%TF.GenerationSoftware,KiCad,Pcbnew,(5.1.9-0-10_14)*%
%TF.CreationDate,2021-07-19T10:05:44-07:00*%
%TF.ProjectId,TRS-IO-M1,5452532d-494f-42d4-9d31-2e6b69636164,rev?*%
%TF.SameCoordinates,Original*%
%TF.FileFunction,Copper,L1,Top*%
%TF.FilePolarity,Positive*%
%FSLAX46Y46*%
G04 Gerber Fmt 4.6, Leading zero omitted, Abs format (unit mm)*
G04 Created by KiCad (PCBNEW (5.1.9-0-10_14)) date 2021-07-19 10:05:44*
%MOMM*%
%LPD*%
G01*
G04 APERTURE LIST*
%TA.AperFunction,ComponentPad*%
%ADD10O,1.600000X1.600000*%
%TD*%
%TA.AperFunction,ComponentPad*%
%ADD11R,1.600000X1.600000*%
%TD*%
%TA.AperFunction,ComponentPad*%
%ADD12C,2.000000*%
%TD*%
%TA.AperFunction,ComponentPad*%
%ADD13C,1.600000*%
%TD*%
%TA.AperFunction,ComponentPad*%
%ADD14R,1.050000X1.500000*%
%TD*%
%TA.AperFunction,ComponentPad*%
%ADD15O,1.050000X1.500000*%
%TD*%
%TA.AperFunction,ConnectorPad*%
%ADD16R,7.620000X1.778000*%
%TD*%
%TA.AperFunction,ComponentPad*%
%ADD17O,1.700000X1.700000*%
%TD*%
%TA.AperFunction,ComponentPad*%
%ADD18R,1.700000X1.700000*%
%TD*%
%TA.AperFunction,ComponentPad*%
%ADD19O,1.070000X1.800000*%
%TD*%
%TA.AperFunction,ComponentPad*%
%ADD20R,1.070000X1.800000*%
%TD*%
%TA.AperFunction,SMDPad,CuDef*%
%ADD21R,0.700000X1.600000*%
%TD*%
%TA.AperFunction,SMDPad,CuDef*%
%ADD22R,1.600000X1.400000*%
%TD*%
%TA.AperFunction,SMDPad,CuDef*%
%ADD23R,1.200000X2.200000*%
%TD*%
%TA.AperFunction,SMDPad,CuDef*%
%ADD24R,1.200000X1.400000*%
%TD*%
%TA.AperFunction,ViaPad*%
%ADD25C,0.800000*%
%TD*%
%TA.AperFunction,Conductor*%
%ADD26C,0.500380*%
%TD*%
%TA.AperFunction,Conductor*%
%ADD27C,0.250000*%
%TD*%
G04 APERTURE END LIST*
D10*
%TO.P,U9,20*%
%TO.N,+5V*%
X181737000Y-99009200D03*
%TO.P,U9,10*%
%TO.N,GND*%
X174117000Y-121869200D03*
%TO.P,U9,19*%
%TO.N,SRAM_WE_N*%
X181737000Y-101549200D03*
%TO.P,U9,9*%
%TO.N,OUT_N*%
X174117000Y-119329200D03*
%TO.P,U9,18*%
%TO.N,SRAM_OE_N*%
X181737000Y-104089200D03*
%TO.P,U9,8*%
%TO.N,IN_N*%
X174117000Y-116789200D03*
%TO.P,U9,17*%
%TO.N,S1*%
X181737000Y-106629200D03*
%TO.P,U9,7*%
%TO.N,WR_N*%
X174117000Y-114249200D03*
%TO.P,U9,16*%
%TO.N,S0*%
X181737000Y-109169200D03*
%TO.P,U9,6*%
%TO.N,RD_N*%
X174117000Y-111709200D03*
%TO.P,U9,15*%
%TO.N,DBUS_SEL_N*%
X181737000Y-111709200D03*
%TO.P,U9,5*%
%TO.N,RAS_N*%
X174117000Y-109169200D03*
%TO.P,U9,14*%
%TO.N,ESP_SEL_N*%
X181737000Y-114249200D03*
%TO.P,U9,4*%
%TO.N,ADDR_1*%
X174117000Y-106629200D03*
%TO.P,U9,13*%
%TO.N,READ_N*%
X181737000Y-116789200D03*
%TO.P,U9,3*%
%TO.N,ADDR_0*%
X174117000Y-104089200D03*
%TO.P,U9,12*%
%TO.N,WAIT*%
X181737000Y-119329200D03*
%TO.P,U9,2*%
%TO.N,ADDR_FREHD*%
X174117000Y-101549200D03*
%TO.P,U9,11*%
%TO.N,ESP_WAIT_RELEASE_N*%
X181737000Y-121869200D03*
D11*
%TO.P,U9,1*%
%TO.N,ADDR_TRS_IO*%
X174117000Y-99009200D03*
%TD*%
D10*
%TO.P,U8,24*%
%TO.N,+5V*%
X155829000Y-52019200D03*
%TO.P,U8,12*%
%TO.N,GND*%
X148209000Y-79959200D03*
%TO.P,U8,23*%
%TO.N,Net-(U8-Pad23)*%
X155829000Y-54559200D03*
%TO.P,U8,11*%
%TO.N,AA4*%
X148209000Y-77419200D03*
%TO.P,U8,22*%
%TO.N,Net-(U8-Pad22)*%
X155829000Y-57099200D03*
%TO.P,U8,10*%
%TO.N,AA1*%
X148209000Y-74879200D03*
%TO.P,U8,21*%
%TO.N,ADDR_TRS_IO*%
X155829000Y-59639200D03*
%TO.P,U8,9*%
%TO.N,AA0*%
X148209000Y-72339200D03*
%TO.P,U8,20*%
%TO.N,ADDR_FREHD*%
X155829000Y-62179200D03*
%TO.P,U8,8*%
%TO.N,AA9*%
X148209000Y-69799200D03*
%TO.P,U8,19*%
%TO.N,ADDR_0*%
X155829000Y-64719200D03*
%TO.P,U8,7*%
%TO.N,AA8*%
X148209000Y-67259200D03*
%TO.P,U8,18*%
%TO.N,ADDR_1*%
X155829000Y-67259200D03*
%TO.P,U8,6*%
%TO.N,AA14*%
X148209000Y-64719200D03*
%TO.P,U8,17*%
%TO.N,AA3*%
X155829000Y-69799200D03*
%TO.P,U8,5*%
%TO.N,AA11*%
X148209000Y-62179200D03*
%TO.P,U8,16*%
%TO.N,AA5*%
X155829000Y-72339200D03*
%TO.P,U8,4*%
%TO.N,AA15*%
X148209000Y-59639200D03*
%TO.P,U8,15*%
%TO.N,AA7*%
X155829000Y-74879200D03*
%TO.P,U8,3*%
%TO.N,AA13*%
X148209000Y-57099200D03*
%TO.P,U8,14*%
%TO.N,AA6*%
X155829000Y-77419200D03*
%TO.P,U8,2*%
%TO.N,AA12*%
X148209000Y-54559200D03*
%TO.P,U8,13*%
%TO.N,AA2*%
X155829000Y-79959200D03*
D11*
%TO.P,U8,1*%
%TO.N,AA10*%
X148209000Y-52019200D03*
%TD*%
D10*
%TO.P,U7,20*%
%TO.N,+3V3*%
X200279000Y-113995200D03*
%TO.P,U7,10*%
%TO.N,GND*%
X192659000Y-136855200D03*
%TO.P,U7,19*%
X200279000Y-116535200D03*
%TO.P,U7,9*%
%TO.N,Net-(U7-Pad9)*%
X192659000Y-134315200D03*
%TO.P,U7,18*%
%TO.N,ESP3_SEL_N*%
X200279000Y-119075200D03*
%TO.P,U7,8*%
%TO.N,Net-(U7-Pad8)*%
X192659000Y-131775200D03*
%TO.P,U7,17*%
%TO.N,ESP_READ_N*%
X200279000Y-121615200D03*
%TO.P,U7,7*%
%TO.N,Net-(U7-Pad7)*%
X192659000Y-129235200D03*
%TO.P,U7,16*%
%TO.N,ESP_S0*%
X200279000Y-124155200D03*
%TO.P,U7,6*%
%TO.N,Net-(U7-Pad6)*%
X192659000Y-126695200D03*
%TO.P,U7,15*%
%TO.N,ESP_S1*%
X200279000Y-126695200D03*
%TO.P,U7,5*%
%TO.N,S1*%
X192659000Y-124155200D03*
%TO.P,U7,14*%
%TO.N,Net-(U7-Pad14)*%
X200279000Y-129235200D03*
%TO.P,U7,4*%
%TO.N,S0*%
X192659000Y-121615200D03*
%TO.P,U7,13*%
%TO.N,Net-(U7-Pad13)*%
X200279000Y-131775200D03*
%TO.P,U7,3*%
%TO.N,READ_N*%
X192659000Y-119075200D03*
%TO.P,U7,12*%
%TO.N,Net-(U7-Pad12)*%
X200279000Y-134315200D03*
%TO.P,U7,2*%
%TO.N,ESP_SEL_N*%
X192659000Y-116535200D03*
%TO.P,U7,11*%
%TO.N,Net-(U7-Pad11)*%
X200279000Y-136855200D03*
D11*
%TO.P,U7,1*%
%TO.N,+3V3*%
X192659000Y-113995200D03*
%TD*%
D10*
%TO.P,U6,20*%
%TO.N,+5V*%
X137541000Y-113995200D03*
%TO.P,U6,10*%
%TO.N,GND*%
X129921000Y-136855200D03*
%TO.P,U6,19*%
X137541000Y-116535200D03*
%TO.P,U6,9*%
%TO.N,A2*%
X129921000Y-134315200D03*
%TO.P,U6,18*%
%TO.N,AA0*%
X137541000Y-119075200D03*
%TO.P,U6,8*%
%TO.N,A6*%
X129921000Y-131775200D03*
%TO.P,U6,17*%
%TO.N,AA1*%
X137541000Y-121615200D03*
%TO.P,U6,7*%
%TO.N,A7*%
X129921000Y-129235200D03*
%TO.P,U6,16*%
%TO.N,AA4*%
X137541000Y-124155200D03*
%TO.P,U6,6*%
%TO.N,A5*%
X129921000Y-126695200D03*
%TO.P,U6,15*%
%TO.N,AA3*%
X137541000Y-126695200D03*
%TO.P,U6,5*%
%TO.N,A3*%
X129921000Y-124155200D03*
%TO.P,U6,14*%
%TO.N,AA5*%
X137541000Y-129235200D03*
%TO.P,U6,4*%
%TO.N,A4*%
X129921000Y-121615200D03*
%TO.P,U6,13*%
%TO.N,AA7*%
X137541000Y-131775200D03*
%TO.P,U6,3*%
%TO.N,A1*%
X129921000Y-119075200D03*
%TO.P,U6,12*%
%TO.N,AA6*%
X137541000Y-134315200D03*
%TO.P,U6,2*%
%TO.N,A0*%
X129921000Y-116535200D03*
%TO.P,U6,11*%
%TO.N,AA2*%
X137541000Y-136855200D03*
D11*
%TO.P,U6,1*%
%TO.N,+5V*%
X129921000Y-113995200D03*
%TD*%
D10*
%TO.P,U5,20*%
%TO.N,+5V*%
X137541000Y-52019200D03*
%TO.P,U5,10*%
%TO.N,GND*%
X129921000Y-74879200D03*
%TO.P,U5,19*%
X137541000Y-54559200D03*
%TO.P,U5,9*%
%TO.N,A9*%
X129921000Y-72339200D03*
%TO.P,U5,18*%
%TO.N,AA10*%
X137541000Y-57099200D03*
%TO.P,U5,8*%
%TO.N,A8*%
X129921000Y-69799200D03*
%TO.P,U5,17*%
%TO.N,AA12*%
X137541000Y-59639200D03*
%TO.P,U5,7*%
%TO.N,A14*%
X129921000Y-67259200D03*
%TO.P,U5,16*%
%TO.N,AA13*%
X137541000Y-62179200D03*
%TO.P,U5,6*%
%TO.N,A11*%
X129921000Y-64719200D03*
%TO.P,U5,15*%
%TO.N,AA15*%
X137541000Y-64719200D03*
%TO.P,U5,5*%
%TO.N,A15*%
X129921000Y-62179200D03*
%TO.P,U5,14*%
%TO.N,AA11*%
X137541000Y-67259200D03*
%TO.P,U5,4*%
%TO.N,A13*%
X129921000Y-59639200D03*
%TO.P,U5,13*%
%TO.N,AA14*%
X137541000Y-69799200D03*
%TO.P,U5,3*%
%TO.N,A12*%
X129921000Y-57099200D03*
%TO.P,U5,12*%
%TO.N,AA8*%
X137541000Y-72339200D03*
%TO.P,U5,2*%
%TO.N,A10*%
X129921000Y-54559200D03*
%TO.P,U5,11*%
%TO.N,AA9*%
X137541000Y-74879200D03*
D11*
%TO.P,U5,1*%
%TO.N,+5V*%
X129921000Y-52019200D03*
%TD*%
D10*
%TO.P,U4,20*%
%TO.N,+3V3*%
X137541000Y-83007200D03*
%TO.P,U4,10*%
%TO.N,GND*%
X129921000Y-105867200D03*
%TO.P,U4,19*%
%TO.N,DBUS_SEL_N*%
X137541000Y-85547200D03*
%TO.P,U4,9*%
%TO.N,D2*%
X129921000Y-103327200D03*
%TO.P,U4,18*%
%TO.N,DD4*%
X137541000Y-88087200D03*
%TO.P,U4,8*%
%TO.N,D0*%
X129921000Y-100787200D03*
%TO.P,U4,17*%
%TO.N,DD7*%
X137541000Y-90627200D03*
%TO.P,U4,7*%
%TO.N,D5*%
X129921000Y-98247200D03*
%TO.P,U4,16*%
%TO.N,DD1*%
X137541000Y-93167200D03*
%TO.P,U4,6*%
%TO.N,D3*%
X129921000Y-95707200D03*
%TO.P,U4,15*%
%TO.N,DD6*%
X137541000Y-95707200D03*
%TO.P,U4,5*%
%TO.N,D6*%
X129921000Y-93167200D03*
%TO.P,U4,14*%
%TO.N,DD3*%
X137541000Y-98247200D03*
%TO.P,U4,4*%
%TO.N,D1*%
X129921000Y-90627200D03*
%TO.P,U4,13*%
%TO.N,DD5*%
X137541000Y-100787200D03*
%TO.P,U4,3*%
%TO.N,D7*%
X129921000Y-88087200D03*
%TO.P,U4,12*%
%TO.N,DD0*%
X137541000Y-103327200D03*
%TO.P,U4,2*%
%TO.N,D4*%
X129921000Y-85547200D03*
%TO.P,U4,11*%
%TO.N,DD2*%
X137541000Y-105867200D03*
D11*
%TO.P,U4,1*%
%TO.N,READ_N*%
X129921000Y-83007200D03*
%TD*%
D10*
%TO.P,U3,28*%
%TO.N,AA7*%
X181737000Y-52019200D03*
%TO.P,U3,14*%
%TO.N,MISO*%
X174117000Y-85039200D03*
%TO.P,U3,27*%
%TO.N,AA6*%
X181737000Y-54559200D03*
%TO.P,U3,13*%
%TO.N,MOSI*%
X174117000Y-82499200D03*
%TO.P,U3,26*%
%TO.N,AA5*%
X181737000Y-57099200D03*
%TO.P,U3,12*%
%TO.N,SCK*%
X174117000Y-79959200D03*
%TO.P,U3,25*%
%TO.N,AA4*%
X181737000Y-59639200D03*
%TO.P,U3,11*%
%TO.N,CS23S17*%
X174117000Y-77419200D03*
%TO.P,U3,24*%
%TO.N,AA3*%
X181737000Y-62179200D03*
%TO.P,U3,10*%
%TO.N,GND*%
X174117000Y-74879200D03*
%TO.P,U3,23*%
%TO.N,AA2*%
X181737000Y-64719200D03*
%TO.P,U3,9*%
%TO.N,+5V*%
X174117000Y-72339200D03*
%TO.P,U3,22*%
%TO.N,AA1*%
X181737000Y-67259200D03*
%TO.P,U3,8*%
%TO.N,AA15*%
X174117000Y-69799200D03*
%TO.P,U3,21*%
%TO.N,AA0*%
X181737000Y-69799200D03*
%TO.P,U3,7*%
%TO.N,AA14*%
X174117000Y-67259200D03*
%TO.P,U3,20*%
%TO.N,Net-(U3-Pad20)*%
X181737000Y-72339200D03*
%TO.P,U3,6*%
%TO.N,AA13*%
X174117000Y-64719200D03*
%TO.P,U3,19*%
%TO.N,Net-(U3-Pad19)*%
X181737000Y-74879200D03*
%TO.P,U3,5*%
%TO.N,AA12*%
X174117000Y-62179200D03*
%TO.P,U3,18*%
%TO.N,+5V*%
X181737000Y-77419200D03*
%TO.P,U3,4*%
%TO.N,AA11*%
X174117000Y-59639200D03*
%TO.P,U3,17*%
%TO.N,GND*%
X181737000Y-79959200D03*
%TO.P,U3,3*%
%TO.N,AA10*%
X174117000Y-57099200D03*
%TO.P,U3,16*%
%TO.N,GND*%
X181737000Y-82499200D03*
%TO.P,U3,2*%
%TO.N,AA9*%
X174117000Y-54559200D03*
%TO.P,U3,15*%
%TO.N,GND*%
X181737000Y-85039200D03*
D11*
%TO.P,U3,1*%
%TO.N,AA8*%
X174117000Y-52019200D03*
%TD*%
D10*
%TO.P,U2,28*%
%TO.N,+5V*%
X163399000Y-103845200D03*
%TO.P,U2,14*%
%TO.N,GND*%
X148159000Y-136865200D03*
%TO.P,U2,27*%
%TO.N,SRAM_WE_N*%
X163399000Y-106385200D03*
%TO.P,U2,13*%
%TO.N,D2*%
X148159000Y-134325200D03*
%TO.P,U2,26*%
%TO.N,AA3*%
X163399000Y-108925200D03*
%TO.P,U2,12*%
%TO.N,D5*%
X148159000Y-131785200D03*
%TO.P,U2,25*%
%TO.N,AA5*%
X163399000Y-111465200D03*
%TO.P,U2,11*%
%TO.N,D6*%
X148159000Y-129245200D03*
%TO.P,U2,24*%
%TO.N,AA7*%
X163399000Y-114005200D03*
%TO.P,U2,10*%
%TO.N,AA4*%
X148159000Y-126705200D03*
%TO.P,U2,23*%
%TO.N,AA6*%
X163399000Y-116545200D03*
%TO.P,U2,9*%
%TO.N,AA1*%
X148159000Y-124165200D03*
%TO.P,U2,22*%
%TO.N,SRAM_OE_N*%
X163399000Y-119085200D03*
%TO.P,U2,8*%
%TO.N,AA0*%
X148159000Y-121625200D03*
%TO.P,U2,21*%
%TO.N,AA2*%
X163399000Y-121625200D03*
%TO.P,U2,7*%
%TO.N,AA9*%
X148159000Y-119085200D03*
%TO.P,U2,20*%
%TO.N,GND*%
X163399000Y-124165200D03*
%TO.P,U2,6*%
%TO.N,AA8*%
X148159000Y-116545200D03*
%TO.P,U2,19*%
%TO.N,D4*%
X163399000Y-126705200D03*
%TO.P,U2,5*%
%TO.N,AA14*%
X148159000Y-114005200D03*
%TO.P,U2,18*%
%TO.N,D7*%
X163399000Y-129245200D03*
%TO.P,U2,4*%
%TO.N,AA11*%
X148159000Y-111465200D03*
%TO.P,U2,17*%
%TO.N,D1*%
X163399000Y-131785200D03*
%TO.P,U2,3*%
%TO.N,AA13*%
X148159000Y-108925200D03*
%TO.P,U2,16*%
%TO.N,D3*%
X163399000Y-134325200D03*
%TO.P,U2,2*%
%TO.N,AA12*%
X148159000Y-106385200D03*
%TO.P,U2,15*%
%TO.N,D0*%
X163399000Y-136865200D03*
D11*
%TO.P,U2,1*%
%TO.N,AA10*%
X148159000Y-103845200D03*
%TD*%
D10*
%TO.P,U1,38*%
%TO.N,+5V*%
X215519000Y-52082700D03*
%TO.P,U1,37*%
%TO.N,Net-(U1-Pad37)*%
X215519000Y-54559200D03*
%TO.P,U1,19*%
%TO.N,GND*%
X192659000Y-97739200D03*
%TO.P,U1,36*%
%TO.N,Net-(U1-Pad36)*%
X215519000Y-57099200D03*
%TO.P,U1,18*%
%TO.N,CS_SD_CARD*%
X192659000Y-95199200D03*
%TO.P,U1,35*%
%TO.N,Net-(U1-Pad35)*%
X215519000Y-59639200D03*
%TO.P,U1,17*%
%TO.N,ESP_MISO*%
X192659000Y-92659200D03*
%TO.P,U1,34*%
%TO.N,DD1*%
X215519000Y-62179200D03*
%TO.P,U1,16*%
%TO.N,Net-(U1-Pad16)*%
X192659000Y-90119200D03*
%TO.P,U1,33*%
%TO.N,GND*%
X215519000Y-64719200D03*
%TO.P,U1,15*%
%TO.N,Net-(U1-Pad15)*%
X192659000Y-87579200D03*
%TO.P,U1,32*%
%TO.N,DD0*%
X215519000Y-67259200D03*
%TO.P,U1,14*%
%TO.N,MOSI*%
X192659000Y-85039200D03*
%TO.P,U1,31*%
%TO.N,DD2*%
X215519000Y-69799200D03*
%TO.P,U1,13*%
%TO.N,GND*%
X192659000Y-82499200D03*
%TO.P,U1,30*%
%TO.N,ESP3_SEL_N*%
X215519000Y-72339200D03*
%TO.P,U1,12*%
%TO.N,DD7*%
X192659000Y-79959200D03*
%TO.P,U1,29*%
%TO.N,CS23S17*%
X215519000Y-74879200D03*
%TO.P,U1,11*%
%TO.N,DD6*%
X192659000Y-77419200D03*
%TO.P,U1,28*%
%TO.N,SCK*%
X215519000Y-77419200D03*
%TO.P,U1,10*%
%TO.N,LED_RED*%
X192659000Y-74879200D03*
%TO.P,U1,27*%
%TO.N,ESP_INT*%
X215519000Y-79959200D03*
%TO.P,U1,9*%
%TO.N,DD5*%
X192659000Y-72339200D03*
%TO.P,U1,26*%
%TO.N,LED_BLUE*%
X215519000Y-82499200D03*
%TO.P,U1,8*%
%TO.N,DD4*%
X192659000Y-69799200D03*
%TO.P,U1,25*%
%TO.N,ESP_S1*%
X215519000Y-85039200D03*
%TO.P,U1,7*%
%TO.N,LED_GREEN*%
X192659000Y-67259200D03*
%TO.P,U1,24*%
%TO.N,ESP_S0*%
X215519000Y-87579200D03*
%TO.P,U1,6*%
%TO.N,Net-(U1-Pad6)*%
X192659000Y-64719200D03*
%TO.P,U1,23*%
%TO.N,BUTTON*%
X215519000Y-90119200D03*
%TO.P,U1,5*%
%TO.N,ESP_WAIT_RELEASE_N*%
X192659000Y-62179200D03*
%TO.P,U1,22*%
%TO.N,ESP_READ_N*%
X215519000Y-92659200D03*
%TO.P,U1,4*%
%TO.N,DD3*%
X192659000Y-59639200D03*
%TO.P,U1,21*%
%TO.N,Net-(U1-Pad21)*%
X215519000Y-95199200D03*
%TO.P,U1,3*%
%TO.N,Net-(U1-Pad3)*%
X192659000Y-57099200D03*
%TO.P,U1,20*%
%TO.N,+3V3*%
X215519000Y-97739200D03*
%TO.P,U1,2*%
%TO.N,Net-(U1-Pad2)*%
X192659000Y-54559200D03*
D11*
%TO.P,U1,1*%
%TO.N,Net-(U1-Pad1)*%
X192659000Y-52019200D03*
%TD*%
D12*
%TO.P,SW1,1*%
%TO.N,GND*%
X215132500Y-109931200D03*
%TO.P,SW1,2*%
%TO.N,BUTTON*%
X215132500Y-114431200D03*
%TO.P,SW1,1*%
%TO.N,GND*%
X208632500Y-109931200D03*
%TO.P,SW1,2*%
%TO.N,BUTTON*%
X208632500Y-114431200D03*
%TD*%
D10*
%TO.P,R4,2*%
%TO.N,BUTTON*%
X215582500Y-104343200D03*
D13*
%TO.P,R4,1*%
%TO.N,+3V3*%
X207962500Y-104343200D03*
%TD*%
D10*
%TO.P,R3,2*%
%TO.N,Net-(D1-Pad3)*%
X210693000Y-128981200D03*
D13*
%TO.P,R3,1*%
%TO.N,LED_BLUE*%
X210693000Y-121361200D03*
%TD*%
D10*
%TO.P,R2,2*%
%TO.N,Net-(D1-Pad4)*%
X214249000Y-128981200D03*
D13*
%TO.P,R2,1*%
%TO.N,LED_GREEN*%
X214249000Y-121361200D03*
%TD*%
D10*
%TO.P,R1,2*%
%TO.N,Net-(D1-Pad1)*%
X207137000Y-128981200D03*
D13*
%TO.P,R1,1*%
%TO.N,LED_RED*%
X207137000Y-121361200D03*
%TD*%
D14*
%TO.P,Q2,1*%
%TO.N,GND*%
X176657000Y-129235200D03*
D15*
%TO.P,Q2,3*%
%TO.N,INT_N*%
X179197000Y-129235200D03*
%TO.P,Q2,2*%
%TO.N,ESP_INT*%
X177927000Y-129235200D03*
%TD*%
D14*
%TO.P,Q1,1*%
%TO.N,GND*%
X176657000Y-135839200D03*
D15*
%TO.P,Q1,3*%
%TO.N,WAIT_N*%
X179197000Y-135839200D03*
%TO.P,Q1,2*%
%TO.N,WAIT*%
X177927000Y-135839200D03*
%TD*%
D16*
%TO.P,J2,2*%
%TO.N,RAS_N*%
X107061000Y-68783200D03*
%TO.P,J2,4*%
%TO.N,CAS_N*%
X107061000Y-71323200D03*
%TO.P,J2,6*%
%TO.N,A12*%
X107061000Y-73863200D03*
%TO.P,J2,8*%
%TO.N,A15*%
X107061000Y-76403200D03*
%TO.P,J2,10*%
%TO.N,A11*%
X107061000Y-78943200D03*
%TO.P,J2,12*%
%TO.N,A8*%
X107061000Y-81483200D03*
%TO.P,J2,14*%
%TO.N,WR_N*%
X107061000Y-84023200D03*
%TO.P,J2,16*%
%TO.N,RD_N*%
X107061000Y-86563200D03*
%TO.P,J2,18*%
%TO.N,A9*%
X107061000Y-89103200D03*
%TO.P,J2,20*%
%TO.N,IN_N*%
X107061000Y-91643200D03*
%TO.P,J2,22*%
%TO.N,INT_N*%
X107061000Y-94183200D03*
%TO.P,J2,24*%
%TO.N,TEST_N*%
X107061000Y-96723200D03*
%TO.P,J2,26*%
%TO.N,A0*%
X107061000Y-99263200D03*
%TO.P,J2,28*%
%TO.N,A1*%
X107061000Y-101803200D03*
%TO.P,J2,30*%
%TO.N,GND*%
X107061000Y-104343200D03*
%TO.P,J2,32*%
%TO.N,A4*%
X107061000Y-106883200D03*
%TO.P,J2,34*%
%TO.N,WAIT_N*%
X107061000Y-109423200D03*
%TO.P,J2,36*%
%TO.N,A5*%
X107061000Y-111963200D03*
%TO.P,J2,38*%
%TO.N,GND*%
X107061000Y-114503200D03*
%TO.P,J2,40*%
%TO.N,5V*%
X107061000Y-117043200D03*
%TD*%
D17*
%TO.P,J1,40*%
%TO.N,5V*%
X121379000Y-117019200D03*
%TO.P,J1,39*%
%TO.N,A2*%
X118839000Y-117019200D03*
%TO.P,J1,38*%
%TO.N,GND*%
X121379000Y-114479200D03*
%TO.P,J1,37*%
%TO.N,A6*%
X118839000Y-114479200D03*
%TO.P,J1,36*%
%TO.N,A5*%
X121379000Y-111939200D03*
%TO.P,J1,35*%
%TO.N,A7*%
X118839000Y-111939200D03*
%TO.P,J1,34*%
%TO.N,WAIT_N*%
X121379000Y-109399200D03*
%TO.P,J1,33*%
%TO.N,A3*%
X118839000Y-109399200D03*
%TO.P,J1,32*%
%TO.N,A4*%
X121379000Y-106859200D03*
%TO.P,J1,31*%
%TO.N,D2*%
X118839000Y-106859200D03*
%TO.P,J1,30*%
%TO.N,GND*%
X121379000Y-104319200D03*
%TO.P,J1,29*%
%TO.N,D0*%
X118839000Y-104319200D03*
%TO.P,J1,28*%
%TO.N,A1*%
X121379000Y-101779200D03*
%TO.P,J1,27*%
%TO.N,D5*%
X118839000Y-101779200D03*
%TO.P,J1,26*%
%TO.N,A0*%
X121379000Y-99239200D03*
%TO.P,J1,25*%
%TO.N,D3*%
X118839000Y-99239200D03*
%TO.P,J1,24*%
%TO.N,TEST_N*%
X121379000Y-96699200D03*
%TO.P,J1,23*%
%TO.N,D6*%
X118839000Y-96699200D03*
%TO.P,J1,22*%
%TO.N,INT_N*%
X121379000Y-94159200D03*
%TO.P,J1,21*%
%TO.N,D1*%
X118839000Y-94159200D03*
%TO.P,J1,20*%
%TO.N,IN_N*%
X121379000Y-91619200D03*
%TO.P,J1,19*%
%TO.N,D7*%
X118839000Y-91619200D03*
%TO.P,J1,18*%
%TO.N,A9*%
X121379000Y-89079200D03*
%TO.P,J1,17*%
%TO.N,D4*%
X118839000Y-89079200D03*
%TO.P,J1,16*%
%TO.N,RD_N*%
X121379000Y-86539200D03*
%TO.P,J1,15*%
%TO.N,MUX*%
X118839000Y-86539200D03*
%TO.P,J1,14*%
%TO.N,WR_N*%
X121379000Y-83999200D03*
%TO.P,J1,13*%
%TO.N,INTACK_N*%
X118839000Y-83999200D03*
%TO.P,J1,12*%
%TO.N,A8*%
X121379000Y-81459200D03*
%TO.P,J1,11*%
%TO.N,OUT_N*%
X118839000Y-81459200D03*
%TO.P,J1,10*%
%TO.N,A11*%
X121379000Y-78919200D03*
%TO.P,J1,9*%
%TO.N,A14*%
X118839000Y-78919200D03*
%TO.P,J1,8*%
%TO.N,A15*%
X121379000Y-76379200D03*
%TO.P,J1,7*%
%TO.N,GND*%
X118839000Y-76379200D03*
%TO.P,J1,6*%
%TO.N,A12*%
X121379000Y-73839200D03*
%TO.P,J1,5*%
%TO.N,A13*%
X118839000Y-73839200D03*
%TO.P,J1,4*%
%TO.N,CAS_N*%
X121379000Y-71299200D03*
%TO.P,J1,3*%
%TO.N,A10*%
X118839000Y-71299200D03*
%TO.P,J1,2*%
%TO.N,RAS_N*%
X121379000Y-68759200D03*
D18*
%TO.P,J1,1*%
%TO.N,SYSRES_N*%
X118839000Y-68759200D03*
%TD*%
D19*
%TO.P,D1,4*%
%TO.N,Net-(D1-Pad4)*%
X211963000Y-135077200D03*
%TO.P,D1,3*%
%TO.N,Net-(D1-Pad3)*%
X210693000Y-135077200D03*
%TO.P,D1,2*%
%TO.N,GND*%
X209423000Y-135077200D03*
D20*
%TO.P,D1,1*%
%TO.N,Net-(D1-Pad1)*%
X208153000Y-135077200D03*
%TD*%
D13*
%TO.P,C8,2*%
%TO.N,GND*%
X160869000Y-52019200D03*
%TO.P,C8,1*%
%TO.N,+5V*%
X158369000Y-52019200D03*
%TD*%
%TO.P,C7,2*%
%TO.N,GND*%
X142581000Y-52019200D03*
%TO.P,C7,1*%
%TO.N,+5V*%
X140081000Y-52019200D03*
%TD*%
%TO.P,C6,2*%
%TO.N,GND*%
X142581000Y-114249200D03*
%TO.P,C6,1*%
%TO.N,+5V*%
X140081000Y-114249200D03*
%TD*%
%TO.P,C5,2*%
%TO.N,GND*%
X205573000Y-113741200D03*
%TO.P,C5,1*%
%TO.N,+3V3*%
X203073000Y-113741200D03*
%TD*%
%TO.P,C4,2*%
%TO.N,GND*%
X142581000Y-83261200D03*
%TO.P,C4,1*%
%TO.N,+3V3*%
X140081000Y-83261200D03*
%TD*%
%TO.P,C3,2*%
%TO.N,GND*%
X169077000Y-72339200D03*
%TO.P,C3,1*%
%TO.N,+5V*%
X171577000Y-72339200D03*
%TD*%
%TO.P,C2,2*%
%TO.N,GND*%
X186777000Y-99009200D03*
%TO.P,C2,1*%
%TO.N,+5V*%
X184277000Y-99009200D03*
%TD*%
%TO.P,C1,2*%
%TO.N,GND*%
X168489000Y-103835200D03*
%TO.P,C1,1*%
%TO.N,+5V*%
X165989000Y-103835200D03*
%TD*%
%TO.P,C9,1*%
%TO.N,+3V3*%
X198551800Y-65836800D03*
%TO.P,C9,2*%
%TO.N,GND*%
X196051800Y-65836800D03*
%TD*%
D21*
%TO.P,J3,1*%
%TO.N,Net-(J3-Pad1)*%
X201838200Y-63205000D03*
%TO.P,J3,2*%
%TO.N,CS_SD_CARD*%
X202938200Y-63205000D03*
%TO.P,J3,3*%
%TO.N,MOSI*%
X204038200Y-63205000D03*
%TO.P,J3,4*%
%TO.N,+3V3*%
X205138200Y-63205000D03*
%TO.P,J3,5*%
%TO.N,SCK*%
X206238200Y-63205000D03*
%TO.P,J3,6*%
%TO.N,GND*%
X207338200Y-63205000D03*
%TO.P,J3,7*%
%TO.N,ESP_MISO*%
X208438200Y-63205000D03*
%TO.P,J3,8*%
%TO.N,Net-(J3-Pad8)*%
X209538200Y-63205000D03*
%TO.P,J3,9*%
%TO.N,Net-(J3-Pad9)*%
X210638200Y-63205000D03*
D22*
%TO.P,J3,10*%
%TO.N,GND*%
X197188200Y-62705000D03*
D23*
%TO.P,J3,11*%
X196288200Y-53105000D03*
%TO.P,J3,12*%
X211788200Y-53105000D03*
D24*
%TO.P,J3,13*%
X211788200Y-62705000D03*
%TD*%
D15*
%TO.P,Q3,2*%
%TO.N,+3V3*%
X205460600Y-90500200D03*
%TO.P,Q3,3*%
%TO.N,MISO*%
X206730600Y-90500200D03*
D14*
%TO.P,Q3,1*%
%TO.N,ESP_MISO*%
X204190600Y-90500200D03*
%TD*%
D10*
%TO.P,R5,2*%
%TO.N,ESP_MISO*%
X208940400Y-85953600D03*
D13*
%TO.P,R5,1*%
%TO.N,+3V3*%
X201320400Y-85953600D03*
%TD*%
%TO.P,R6,1*%
%TO.N,+5V*%
X201320400Y-82423000D03*
D10*
%TO.P,R6,2*%
%TO.N,MISO*%
X208940400Y-82423000D03*
%TD*%
D13*
%TO.P,R7,1*%
%TO.N,+3V3*%
X201320400Y-79121000D03*
D10*
%TO.P,R7,2*%
%TO.N,Net-(J3-Pad8)*%
X208940400Y-79121000D03*
%TD*%
%TO.P,R8,2*%
%TO.N,MOSI*%
X208940400Y-75692000D03*
D13*
%TO.P,R8,1*%
%TO.N,+3V3*%
X201320400Y-75692000D03*
%TD*%
%TO.P,R9,1*%
%TO.N,+3V3*%
X201320400Y-72263000D03*
D10*
%TO.P,R9,2*%
%TO.N,CS_SD_CARD*%
X208940400Y-72263000D03*
%TD*%
%TO.P,R10,2*%
%TO.N,Net-(J3-Pad1)*%
X208940400Y-68834000D03*
D13*
%TO.P,R10,1*%
%TO.N,+3V3*%
X201320400Y-68834000D03*
%TD*%
D25*
%TO.N,+5V*%
X171577000Y-97231200D03*
X129921000Y-109931200D03*
X136290809Y-109951009D03*
X198374000Y-76479400D03*
%TO.N,GND*%
X170103800Y-122097800D03*
X182829200Y-88812200D03*
X173278800Y-88900000D03*
X168859200Y-89154000D03*
X148412200Y-82651600D03*
X164134800Y-82677000D03*
X142519400Y-79984600D03*
X139268200Y-76200000D03*
X129946400Y-108229400D03*
X139877800Y-108254800D03*
X123571000Y-105867200D03*
X183464200Y-97194200D03*
X208210200Y-53105000D03*
X169011600Y-74904600D03*
%TO.N,+3V3*%
X200279000Y-97993200D03*
X207899000Y-97993200D03*
%TO.N,RAS_N*%
X126873000Y-68783200D03*
X174951002Y-138705202D03*
X126873000Y-138633200D03*
%TO.N,A13*%
X124346000Y-64719200D03*
%TO.N,A11*%
X132207000Y-78943200D03*
%TO.N,A14*%
X126148000Y-77673200D03*
%TO.N,A8*%
X131445000Y-81483200D03*
%TO.N,OUT_N*%
X133620000Y-118059200D03*
X133731000Y-79959200D03*
%TO.N,WR_N*%
X135070000Y-111963200D03*
X135001000Y-84531200D03*
%TO.N,RD_N*%
X126111000Y-86563200D03*
X126111000Y-139903200D03*
X173355000Y-139903200D03*
%TO.N,A9*%
X127635000Y-89103200D03*
%TO.N,D4*%
X158115000Y-126695200D03*
X157607000Y-86055200D03*
%TO.N,IN_N*%
X134345000Y-115265200D03*
X134345000Y-94183200D03*
%TO.N,D7*%
X153104000Y-129235200D03*
X153035000Y-89103200D03*
%TO.N,INT_N*%
X125386000Y-95017201D03*
X125349000Y-140665200D03*
%TO.N,D1*%
X152379000Y-131775200D03*
X152273000Y-91389200D03*
X125386000Y-92151200D03*
%TO.N,D6*%
X132895000Y-130505200D03*
X128397000Y-95961200D03*
%TO.N,A0*%
X128392347Y-98750547D03*
%TO.N,D3*%
X151654000Y-134315200D03*
X151511000Y-96977200D03*
%TO.N,A1*%
X124661000Y-112217200D03*
%TO.N,D5*%
X132170000Y-133045200D03*
%TO.N,D0*%
X151765000Y-136855200D03*
X150929000Y-100787200D03*
%TO.N,A4*%
X123825000Y-113233200D03*
%TO.N,D2*%
X131445000Y-135331200D03*
%TO.N,WAIT_N*%
X127635000Y-109423200D03*
X127635000Y-141390200D03*
X179197000Y-141427200D03*
%TO.N,A3*%
X123063000Y-113995200D03*
%TO.N,A7*%
X124661000Y-129235200D03*
%TO.N,A6*%
X120015000Y-131775200D03*
%TO.N,A2*%
X118745000Y-134315200D03*
%TO.N,ESP_INT*%
X218567000Y-127965200D03*
%TO.N,ESP_READ_N*%
X201295000Y-92659200D03*
%TO.N,ESP_S0*%
X217080000Y-124028200D03*
%TO.N,ESP_S1*%
X217842000Y-126619000D03*
%TO.N,SCK*%
X206222600Y-64592200D03*
X206121000Y-77495400D03*
%TO.N,ESP_WAIT_RELEASE_N*%
X185293000Y-62179200D03*
%TO.N,MOSI*%
X175895000Y-86817200D03*
X204038200Y-64592200D03*
X204343000Y-75666600D03*
X197662800Y-85013800D03*
%TO.N,ESP_MISO*%
X199009000Y-92659200D03*
X208508600Y-64592200D03*
%TO.N,ESP3_SEL_N*%
X219329000Y-119075200D03*
%TO.N,READ_N*%
X180213000Y-81991200D03*
%TO.N,MISO*%
X172427190Y-91490800D03*
%TO.N,S0*%
X194437000Y-109169200D03*
%TO.N,S1*%
X195199000Y-106629200D03*
%TO.N,DD3*%
X187833000Y-96469200D03*
%TO.N,DD4*%
X196723000Y-88849200D03*
%TO.N,DD5*%
X195707000Y-100279200D03*
%TO.N,DD6*%
X188595000Y-95707200D03*
%TO.N,DD7*%
X189357000Y-90627200D03*
%TO.N,DD2*%
X213233000Y-105613200D03*
%TO.N,DD0*%
X212217000Y-102819200D03*
%TO.N,DD1*%
X211201000Y-93929200D03*
%TO.N,AA14*%
X143965000Y-69799200D03*
%TO.N,AA12*%
X146177000Y-59385200D03*
X146111185Y-54559200D03*
X172427190Y-56591200D03*
%TO.N,AA7*%
X160221000Y-130759200D03*
X154713999Y-130660199D03*
X176403000Y-73609200D03*
%TO.N,AA6*%
X160946000Y-133045200D03*
X156554000Y-133045200D03*
X179451000Y-76403200D03*
X179451000Y-54813200D03*
%TO.N,AA5*%
X159496000Y-127965200D03*
X153829000Y-127965200D03*
X183261000Y-71069200D03*
%TO.N,AA4*%
X149479000Y-122885200D03*
X163957000Y-52419201D03*
X163957000Y-75569199D03*
%TO.N,AA3*%
X158771000Y-125425200D03*
X166751000Y-69799200D03*
X166751000Y-64465200D03*
%TO.N,AA10*%
X146836185Y-56824637D03*
%TO.N,AA2*%
X161671000Y-135585200D03*
X157099000Y-135585200D03*
X180213000Y-79269201D03*
X180213000Y-64719200D03*
%TO.N,SRAM_OE_N*%
X178435000Y-120599200D03*
X178435000Y-104089200D03*
%TO.N,AA1*%
X150204000Y-120345200D03*
X146177000Y-120345200D03*
X167513000Y-72593200D03*
X167513000Y-65735200D03*
%TO.N,AA11*%
X144690000Y-67005200D03*
X170726810Y-63195200D03*
X170561000Y-59639200D03*
%TO.N,AA0*%
X138811000Y-77673200D03*
%TO.N,AA9*%
X140843000Y-74879200D03*
X152527000Y-52273200D03*
%TO.N,AA8*%
X143514990Y-72339200D03*
X151511000Y-52273200D03*
%TO.N,AA13*%
X145415000Y-62433200D03*
X145386185Y-57861200D03*
X175387000Y-58369200D03*
%TO.N,SRAM_WE_N*%
X177165000Y-101549200D03*
%TO.N,AA15*%
X176112000Y-60655200D03*
%TO.N,DBUS_SEL_N*%
X174879000Y-87362200D03*
X179451000Y-111709200D03*
%TO.N,ADDR_TRS_IO*%
X161671000Y-99009200D03*
%TO.N,ADDR_FREHD*%
X160618000Y-101295200D03*
%TO.N,ADDR_1*%
X159131000Y-107645200D03*
%TO.N,LED_GREEN*%
X187985400Y-120218200D03*
X186664600Y-67259200D03*
%TO.N,LED_RED*%
X195924000Y-122631200D03*
%TO.N,Net-(J3-Pad1)*%
X201803000Y-64541400D03*
X202717785Y-68919554D03*
%TO.N,CS_SD_CARD*%
X202874453Y-64587547D03*
X203479400Y-72263000D03*
X198247000Y-95173800D03*
%TO.N,Net-(J3-Pad8)*%
X209575400Y-64592200D03*
%TD*%
D26*
%TO.N,+5V*%
X179959000Y-97231200D02*
X171577000Y-97231200D01*
X181737000Y-99009200D02*
X179959000Y-97231200D01*
D27*
X176657000Y-72339200D02*
X181737000Y-77419200D01*
X174117000Y-72339200D02*
X176657000Y-72339200D01*
X181737000Y-99009200D02*
X184277000Y-99009200D01*
X165979000Y-103845200D02*
X165989000Y-103835200D01*
X163399000Y-103845200D02*
X165979000Y-103845200D01*
X139827000Y-113995200D02*
X140081000Y-114249200D01*
X137541000Y-113995200D02*
X139827000Y-113995200D01*
X158369000Y-52019200D02*
X155829000Y-52019200D01*
X140081000Y-52019200D02*
X137541000Y-52019200D01*
X129921000Y-109931200D02*
X136271000Y-109931200D01*
X136271000Y-109931200D02*
X136290809Y-109951009D01*
X182862001Y-76294199D02*
X198188799Y-76294199D01*
X198188799Y-76294199D02*
X198374000Y-76479400D01*
X181737000Y-77419200D02*
X182862001Y-76294199D01*
%TO.N,GND*%
X107061000Y-114503200D02*
X116967000Y-114503200D01*
X120203999Y-115654201D02*
X121379000Y-114479200D01*
X118118001Y-115654201D02*
X120203999Y-115654201D01*
X116967000Y-114503200D02*
X118118001Y-115654201D01*
X107061000Y-104343200D02*
X116967000Y-104343200D01*
X120203999Y-105494201D02*
X121379000Y-104319200D01*
X118118001Y-105494201D02*
X120203999Y-105494201D01*
X116967000Y-104343200D02*
X118118001Y-105494201D01*
X170332400Y-121869200D02*
X170103800Y-122097800D01*
X174117000Y-121869200D02*
X170332400Y-121869200D01*
X215132500Y-109931200D02*
X208632500Y-109931200D01*
X208632500Y-110681700D02*
X208632500Y-109931200D01*
X205573000Y-113741200D02*
X208632500Y-110681700D01*
X202779000Y-116535200D02*
X205573000Y-113741200D01*
X200279000Y-116535200D02*
X202779000Y-116535200D01*
X182843000Y-88798400D02*
X182829200Y-88812200D01*
X173366600Y-88812200D02*
X173278800Y-88900000D01*
X182829200Y-88812200D02*
X173366600Y-88812200D01*
X169113200Y-88900000D02*
X168859200Y-89154000D01*
X173278800Y-88900000D02*
X169113200Y-88900000D01*
X164109400Y-82651600D02*
X164134800Y-82677000D01*
X148412200Y-82651600D02*
X164109400Y-82651600D01*
X142544800Y-79959200D02*
X142519400Y-79984600D01*
X148209000Y-79959200D02*
X142544800Y-79959200D01*
X131241800Y-76200000D02*
X139268200Y-76200000D01*
X129921000Y-74879200D02*
X131241800Y-76200000D01*
X139852400Y-108229400D02*
X139877800Y-108254800D01*
X130022600Y-108229400D02*
X139852400Y-108229400D01*
X129921000Y-105867200D02*
X123571000Y-105867200D01*
X120211998Y-136855200D02*
X129921000Y-136855200D01*
X118019999Y-134663201D02*
X120211998Y-136855200D01*
X118019999Y-132697199D02*
X118019999Y-134663201D01*
X122554001Y-128163197D02*
X118019999Y-132697199D01*
X122554001Y-115654201D02*
X122554001Y-128163197D01*
X121379000Y-114479200D02*
X122554001Y-115654201D01*
X184009200Y-97739200D02*
X183464200Y-97194200D01*
X129785999Y-75014201D02*
X129921000Y-74879200D01*
X121004997Y-75014201D02*
X129785999Y-75014201D01*
X119639998Y-76379200D02*
X121004997Y-75014201D01*
X118839000Y-76379200D02*
X119639998Y-76379200D01*
X181737000Y-82499200D02*
X192659000Y-82499200D01*
X211788200Y-53105000D02*
X208210200Y-53105000D01*
X211788200Y-53105000D02*
X211788200Y-62705000D01*
X213504800Y-62705000D02*
X215519000Y-64719200D01*
X211788200Y-62705000D02*
X213504800Y-62705000D01*
X197188200Y-64700400D02*
X196051800Y-65836800D01*
X197188200Y-62705000D02*
X197188200Y-64700400D01*
X207338200Y-62155000D02*
X207338200Y-63205000D01*
X211788200Y-62619998D02*
X211248201Y-62079999D01*
X207413201Y-62079999D02*
X207338200Y-62155000D01*
X211248201Y-62079999D02*
X207413201Y-62079999D01*
X211788200Y-62705000D02*
X211788200Y-62619998D01*
X208210200Y-53105000D02*
X196288200Y-53105000D01*
X186777000Y-97775400D02*
X186740800Y-97739200D01*
X186777000Y-99009200D02*
X186777000Y-97775400D01*
X186740800Y-97739200D02*
X184009200Y-97739200D01*
X192659000Y-97739200D02*
X186740800Y-97739200D01*
X169037000Y-74879200D02*
X169011600Y-74904600D01*
X174117000Y-74879200D02*
X169037000Y-74879200D01*
D26*
%TO.N,+3V3*%
X215265000Y-97993200D02*
X215519000Y-97739200D01*
X138537191Y-82011009D02*
X143181093Y-82011009D01*
X143181093Y-82011009D02*
X144939284Y-83769200D01*
X137541000Y-83007200D02*
X138537191Y-82011009D01*
D27*
X137795000Y-83261200D02*
X137541000Y-83007200D01*
X140081000Y-83261200D02*
X137795000Y-83261200D01*
X200279000Y-113995200D02*
X192659000Y-113995200D01*
X200533000Y-113741200D02*
X200279000Y-113995200D01*
X203073000Y-113741200D02*
X200533000Y-113741200D01*
D26*
X207899000Y-97993200D02*
X215265000Y-97993200D01*
X200279000Y-97993200D02*
X207899000Y-97993200D01*
D27*
X201320400Y-68834000D02*
X201320400Y-68681600D01*
D26*
X199136000Y-83769200D02*
X201320400Y-85953600D01*
D27*
X199136000Y-81305400D02*
X201320400Y-79121000D01*
X199136000Y-83769200D02*
X199136000Y-81305400D01*
X201914000Y-85953600D02*
X201320400Y-85953600D01*
X205460600Y-89500200D02*
X201914000Y-85953600D01*
X205460600Y-90500200D02*
X205460600Y-89500200D01*
X205138200Y-62155000D02*
X205138200Y-63205000D01*
X205063199Y-62079999D02*
X205138200Y-62155000D01*
X201177231Y-62079999D02*
X205063199Y-62079999D01*
X198551800Y-64705430D02*
X201177231Y-62079999D01*
X198551800Y-65836800D02*
X198551800Y-64705430D01*
D26*
X144939284Y-83769200D02*
X199136000Y-83769200D01*
D27*
%TO.N,RAS_N*%
X126849000Y-68759200D02*
X126873000Y-68783200D01*
X121379000Y-68759200D02*
X126849000Y-68759200D01*
X174623005Y-139033199D02*
X174951002Y-138705202D01*
X127272999Y-139033199D02*
X174623005Y-139033199D01*
X126873000Y-138633200D02*
X127272999Y-139033199D01*
X107061000Y-68783200D02*
X116967000Y-68783200D01*
X120203999Y-69934201D02*
X121379000Y-68759200D01*
X117728999Y-69934201D02*
X120203999Y-69934201D01*
X116967000Y-69172202D02*
X117728999Y-69934201D01*
X116967000Y-68783200D02*
X116967000Y-69172202D01*
%TO.N,CAS_N*%
X120203999Y-72474201D02*
X121379000Y-71299200D01*
X118274999Y-72474201D02*
X120203999Y-72474201D01*
X117123998Y-71323200D02*
X118274999Y-72474201D01*
X107061000Y-71323200D02*
X117123998Y-71323200D01*
%TO.N,A12*%
X107061000Y-73863200D02*
X116967000Y-73863200D01*
X120203999Y-75014201D02*
X121379000Y-73839200D01*
X118118001Y-75014201D02*
X120203999Y-75014201D01*
X116967000Y-73863200D02*
X118118001Y-75014201D01*
%TO.N,A13*%
X129426000Y-59639200D02*
X129921000Y-59639200D01*
X124346000Y-64719200D02*
X129426000Y-59639200D01*
%TO.N,A15*%
X107061000Y-76403200D02*
X116967000Y-76403200D01*
X120203999Y-77554201D02*
X121379000Y-76379200D01*
X118118001Y-77554201D02*
X120203999Y-77554201D01*
X116967000Y-76403200D02*
X118118001Y-77554201D01*
%TO.N,A11*%
X119403001Y-80094201D02*
X120578002Y-78919200D01*
X118274999Y-80094201D02*
X119403001Y-80094201D01*
X120578002Y-78919200D02*
X121379000Y-78919200D01*
X117123998Y-78943200D02*
X118274999Y-80094201D01*
X107061000Y-78943200D02*
X117123998Y-78943200D01*
X132183000Y-78919200D02*
X132207000Y-78943200D01*
X121379000Y-78919200D02*
X132183000Y-78919200D01*
%TO.N,A14*%
X120885998Y-77673200D02*
X126148000Y-77673200D01*
X119639998Y-78919200D02*
X120885998Y-77673200D01*
X118839000Y-78919200D02*
X119639998Y-78919200D01*
%TO.N,A8*%
X120203999Y-82634201D02*
X121379000Y-81459200D01*
X118274999Y-82634201D02*
X120203999Y-82634201D01*
X117123998Y-81483200D02*
X118274999Y-82634201D01*
X107061000Y-81483200D02*
X117123998Y-81483200D01*
X131421000Y-81459200D02*
X131445000Y-81483200D01*
X121379000Y-81459200D02*
X131421000Y-81459200D01*
%TO.N,OUT_N*%
X133729001Y-117950199D02*
X133620000Y-118059200D01*
X172737999Y-117950199D02*
X133729001Y-117950199D01*
X174117000Y-119329200D02*
X172737999Y-117950199D01*
X120014001Y-80284199D02*
X118839000Y-81459200D01*
X133406001Y-80284199D02*
X120014001Y-80284199D01*
X133731000Y-79959200D02*
X133406001Y-80284199D01*
%TO.N,WR_N*%
X135976999Y-112870199D02*
X135070000Y-111963200D01*
X172737999Y-112870199D02*
X135976999Y-112870199D01*
X174117000Y-114249200D02*
X172737999Y-112870199D01*
X121512001Y-84132201D02*
X121379000Y-83999200D01*
X134602001Y-84132201D02*
X121512001Y-84132201D01*
X135001000Y-84531200D02*
X134602001Y-84132201D01*
X120203999Y-85174201D02*
X121379000Y-83999200D01*
X118274999Y-85174201D02*
X120203999Y-85174201D01*
X117123998Y-84023200D02*
X118274999Y-85174201D01*
X107061000Y-84023200D02*
X117123998Y-84023200D01*
%TO.N,RD_N*%
X126087000Y-86539200D02*
X126111000Y-86563200D01*
X121379000Y-86539200D02*
X126087000Y-86539200D01*
X126111000Y-139903200D02*
X173355000Y-139903200D01*
X120203999Y-87714201D02*
X121379000Y-86539200D01*
X118274999Y-87714201D02*
X120203999Y-87714201D01*
X117123998Y-86563200D02*
X118274999Y-87714201D01*
X107061000Y-86563200D02*
X117123998Y-86563200D01*
%TO.N,A9*%
X107061000Y-89103200D02*
X116967000Y-89103200D01*
X120203999Y-90254201D02*
X121379000Y-89079200D01*
X118118001Y-90254201D02*
X120203999Y-90254201D01*
X116967000Y-89103200D02*
X118118001Y-90254201D01*
X127611000Y-89079200D02*
X127635000Y-89103200D01*
X121379000Y-89079200D02*
X127611000Y-89079200D01*
%TO.N,D4*%
X158125000Y-126705200D02*
X158115000Y-126695200D01*
X163399000Y-126705200D02*
X158125000Y-126705200D01*
X131046001Y-86672201D02*
X129921000Y-85547200D01*
X156989999Y-86672201D02*
X131046001Y-86672201D01*
X157607000Y-86055200D02*
X156989999Y-86672201D01*
X127753999Y-87714201D02*
X129921000Y-85547200D01*
X121004997Y-87714201D02*
X127753999Y-87714201D01*
X119639998Y-89079200D02*
X121004997Y-87714201D01*
X118839000Y-89079200D02*
X119639998Y-89079200D01*
%TO.N,IN_N*%
X134489999Y-115410199D02*
X134345000Y-115265200D01*
X172737999Y-115410199D02*
X134489999Y-115410199D01*
X174117000Y-116789200D02*
X172737999Y-115410199D01*
X124052001Y-94292201D02*
X121379000Y-91619200D01*
X130573999Y-94292201D02*
X124052001Y-94292201D01*
X130683000Y-94183200D02*
X130573999Y-94292201D01*
X134345000Y-94183200D02*
X130683000Y-94183200D01*
X120203999Y-92794201D02*
X121379000Y-91619200D01*
X118274999Y-92794201D02*
X120203999Y-92794201D01*
X117123998Y-91643200D02*
X118274999Y-92794201D01*
X107061000Y-91643200D02*
X117123998Y-91643200D01*
%TO.N,D7*%
X153114000Y-129245200D02*
X153104000Y-129235200D01*
X163399000Y-129245200D02*
X153114000Y-129245200D01*
X131046001Y-89212201D02*
X129921000Y-88087200D01*
X152925999Y-89212201D02*
X131046001Y-89212201D01*
X153035000Y-89103200D02*
X152925999Y-89212201D01*
X121004997Y-90254201D02*
X127753999Y-90254201D01*
X127753999Y-90254201D02*
X129921000Y-88087200D01*
X119639998Y-91619200D02*
X121004997Y-90254201D01*
X118839000Y-91619200D02*
X119639998Y-91619200D01*
%TO.N,INT_N*%
X120203999Y-95334201D02*
X121379000Y-94159200D01*
X118274999Y-95334201D02*
X120203999Y-95334201D01*
X117123998Y-94183200D02*
X118274999Y-95334201D01*
X107061000Y-94183200D02*
X117123998Y-94183200D01*
X122237001Y-95017201D02*
X125386000Y-95017201D01*
X121379000Y-94159200D02*
X122237001Y-95017201D01*
X180975000Y-131013200D02*
X179197000Y-129235200D01*
X180975000Y-140665200D02*
X180975000Y-131013200D01*
X125349000Y-140665200D02*
X180975000Y-140665200D01*
%TO.N,D1*%
X152389000Y-131785200D02*
X152379000Y-131775200D01*
X163399000Y-131785200D02*
X152389000Y-131785200D01*
X131082999Y-91789199D02*
X129921000Y-90627200D01*
X151873001Y-91789199D02*
X131082999Y-91789199D01*
X152273000Y-91389200D02*
X151873001Y-91789199D01*
X128397000Y-92151200D02*
X125386000Y-92151200D01*
X129921000Y-90627200D02*
X128397000Y-92151200D01*
%TO.N,TEST_N*%
X107061000Y-96723200D02*
X116967000Y-96723200D01*
X120203999Y-97874201D02*
X121379000Y-96699200D01*
X118118001Y-97874201D02*
X120203999Y-97874201D01*
X116967000Y-96723200D02*
X118118001Y-97874201D01*
%TO.N,D6*%
X146899000Y-130505200D02*
X132895000Y-130505200D01*
X148159000Y-129245200D02*
X146899000Y-130505200D01*
X121872002Y-95453200D02*
X120721410Y-95453200D01*
X120721410Y-95453200D02*
X119475410Y-96699200D01*
X122380002Y-95961200D02*
X121872002Y-95453200D01*
X119475410Y-96699200D02*
X118839000Y-96699200D01*
X128397000Y-95961200D02*
X122380002Y-95961200D01*
%TO.N,A0*%
X120203999Y-100414201D02*
X121379000Y-99239200D01*
X118274999Y-100414201D02*
X120203999Y-100414201D01*
X117123998Y-99263200D02*
X118274999Y-100414201D01*
X107061000Y-99263200D02*
X117123998Y-99263200D01*
X127903694Y-99239200D02*
X128392347Y-98750547D01*
X121379000Y-99239200D02*
X127903694Y-99239200D01*
%TO.N,D3*%
X151664000Y-134325200D02*
X151654000Y-134315200D01*
X163399000Y-134325200D02*
X151664000Y-134325200D01*
X131191000Y-96977200D02*
X129921000Y-95707200D01*
X151511000Y-96977200D02*
X131191000Y-96977200D01*
X127753999Y-97874201D02*
X129921000Y-95707200D01*
X121004997Y-97874201D02*
X127753999Y-97874201D01*
X119639998Y-99239200D02*
X121004997Y-97874201D01*
X118839000Y-99239200D02*
X119639998Y-99239200D01*
%TO.N,A1*%
X107061000Y-101803200D02*
X116967000Y-101803200D01*
X120203999Y-102954201D02*
X121379000Y-101779200D01*
X118118001Y-102954201D02*
X120203999Y-102954201D01*
X116967000Y-101803200D02*
X118118001Y-102954201D01*
X124661000Y-113815200D02*
X129921000Y-119075200D01*
X124661000Y-112217200D02*
X124661000Y-113815200D01*
%TO.N,D5*%
X132314999Y-132900201D02*
X132170000Y-133045200D01*
X147043999Y-132900201D02*
X132314999Y-132900201D01*
X148159000Y-131785200D02*
X147043999Y-132900201D01*
X127753999Y-100414201D02*
X129921000Y-98247200D01*
X121004997Y-100414201D02*
X127753999Y-100414201D01*
X119639998Y-101779200D02*
X121004997Y-100414201D01*
X118839000Y-101779200D02*
X119639998Y-101779200D01*
%TO.N,D0*%
X151775000Y-136865200D02*
X151765000Y-136855200D01*
X163399000Y-136865200D02*
X151775000Y-136865200D01*
X131046001Y-101912201D02*
X129921000Y-100787200D01*
X149803999Y-101912201D02*
X131046001Y-101912201D01*
X150929000Y-100787200D02*
X149803999Y-101912201D01*
X127753999Y-102954201D02*
X129921000Y-100787200D01*
X121004997Y-102954201D02*
X127753999Y-102954201D01*
X119639998Y-104319200D02*
X121004997Y-102954201D01*
X118839000Y-104319200D02*
X119639998Y-104319200D01*
%TO.N,A4*%
X107061000Y-106883200D02*
X116967000Y-106883200D01*
X120203999Y-108034201D02*
X121379000Y-106859200D01*
X118118001Y-108034201D02*
X120203999Y-108034201D01*
X116967000Y-106883200D02*
X118118001Y-108034201D01*
X123825000Y-115519200D02*
X129921000Y-121615200D01*
X123825000Y-113233200D02*
X123825000Y-115519200D01*
%TO.N,D2*%
X131554001Y-135440201D02*
X131445000Y-135331200D01*
X147043999Y-135440201D02*
X131554001Y-135440201D01*
X148159000Y-134325200D02*
X147043999Y-135440201D01*
X119475410Y-106859200D02*
X118839000Y-106859200D01*
X120696010Y-105638600D02*
X119475410Y-106859200D01*
X121798602Y-105638600D02*
X120696010Y-105638600D01*
X122554001Y-104883201D02*
X121798602Y-105638600D01*
X128364999Y-104883201D02*
X122554001Y-104883201D01*
X129921000Y-103327200D02*
X128364999Y-104883201D01*
%TO.N,WAIT_N*%
X120203999Y-110574201D02*
X121379000Y-109399200D01*
X118274999Y-110574201D02*
X120203999Y-110574201D01*
X117123998Y-109423200D02*
X118274999Y-110574201D01*
X107061000Y-109423200D02*
X117123998Y-109423200D01*
X127611000Y-109399200D02*
X127635000Y-109423200D01*
X121379000Y-109399200D02*
X127611000Y-109399200D01*
X179160000Y-141390200D02*
X179197000Y-141427200D01*
X127635000Y-141390200D02*
X179160000Y-141390200D01*
%TO.N,A3*%
X129921000Y-123280202D02*
X129921000Y-124155200D01*
X123063000Y-116422202D02*
X129921000Y-123280202D01*
X123063000Y-113995200D02*
X123063000Y-116422202D01*
%TO.N,A5*%
X107061000Y-111963200D02*
X116967000Y-111963200D01*
X120203999Y-113114201D02*
X121379000Y-111939200D01*
X118118001Y-113114201D02*
X120203999Y-113114201D01*
X116967000Y-111963200D02*
X118118001Y-113114201D01*
X122228999Y-111089201D02*
X131302999Y-111089201D01*
X121379000Y-111939200D02*
X122228999Y-111089201D01*
X131302999Y-125313201D02*
X129921000Y-126695200D01*
X131302999Y-111089201D02*
X131302999Y-125313201D01*
%TO.N,A7*%
X124661000Y-129235200D02*
X129921000Y-129235200D01*
%TO.N,A6*%
X120015000Y-131775200D02*
X129921000Y-131775200D01*
%TO.N,5V*%
X107061000Y-117043200D02*
X116967000Y-117043200D01*
X120203999Y-118194201D02*
X121379000Y-117019200D01*
X118118001Y-118194201D02*
X120203999Y-118194201D01*
X116967000Y-117043200D02*
X118118001Y-118194201D01*
%TO.N,A2*%
X118745000Y-134315200D02*
X129921000Y-134315200D01*
%TO.N,ESP_INT*%
X177927000Y-129235200D02*
X177927000Y-129489200D01*
X218457999Y-127856199D02*
X218567000Y-127965200D01*
X179148906Y-127856199D02*
X218457999Y-127856199D01*
X177927000Y-129078105D02*
X179148906Y-127856199D01*
X177927000Y-129489200D02*
X177927000Y-129078105D01*
%TO.N,ESP_READ_N*%
X201295000Y-92659200D02*
X215519000Y-92659200D01*
%TO.N,ESP_S0*%
X216953000Y-124155200D02*
X217080000Y-124028200D01*
X200279000Y-124155200D02*
X216953000Y-124155200D01*
%TO.N,ESP_S1*%
X217765800Y-126695200D02*
X217842000Y-126619000D01*
X200279000Y-126695200D02*
X217765800Y-126695200D01*
%TO.N,SCK*%
X206238200Y-64576600D02*
X206222600Y-64592200D01*
X206238200Y-63205000D02*
X206238200Y-64576600D01*
X215442800Y-77495400D02*
X215519000Y-77419200D01*
X206121000Y-77495400D02*
X215442800Y-77495400D01*
X201280998Y-77495400D02*
X206121000Y-77495400D01*
X197692197Y-81084201D02*
X201280998Y-77495400D01*
X175242001Y-81084201D02*
X197692197Y-81084201D01*
X174117000Y-79959200D02*
X175242001Y-81084201D01*
%TO.N,CS23S17*%
X213581199Y-76817001D02*
X215519000Y-74879200D01*
X208400399Y-76817001D02*
X213581199Y-76817001D01*
X208353797Y-76770399D02*
X208400399Y-76817001D01*
X201058999Y-76817001D02*
X205726397Y-76817001D01*
X205726397Y-76817001D02*
X205772999Y-76770399D01*
X199331799Y-78544201D02*
X201058999Y-76817001D01*
X175242001Y-78544201D02*
X199331799Y-78544201D01*
X205772999Y-76770399D02*
X208353797Y-76770399D01*
X174117000Y-77419200D02*
X175242001Y-78544201D01*
%TO.N,ESP_WAIT_RELEASE_N*%
X185293000Y-62179200D02*
X192659000Y-62179200D01*
%TO.N,MOSI*%
X175895000Y-86817200D02*
X190881000Y-86817200D01*
X204038200Y-63205000D02*
X204038200Y-64592200D01*
X208915000Y-75666600D02*
X208940400Y-75692000D01*
X204343000Y-75666600D02*
X208915000Y-75666600D01*
X190881000Y-86817200D02*
X192557400Y-85140800D01*
X197637400Y-85039200D02*
X197662800Y-85013800D01*
X192659000Y-85039200D02*
X197637400Y-85039200D01*
%TO.N,ESP_MISO*%
X199009000Y-92659200D02*
X192659000Y-92659200D01*
X208438200Y-64521800D02*
X208508600Y-64592200D01*
X208438200Y-63205000D02*
X208438200Y-64521800D01*
%TO.N,ESP3_SEL_N*%
X200279000Y-119075200D02*
X219329000Y-119075200D01*
%TO.N,READ_N*%
X175274002Y-81991200D02*
X180213000Y-81991200D01*
X174657001Y-81374199D02*
X175274002Y-81991200D01*
X137508999Y-81374199D02*
X174657001Y-81374199D01*
X135875998Y-83007200D02*
X137508999Y-81374199D01*
X129921000Y-83007200D02*
X135875998Y-83007200D01*
X190373000Y-116789200D02*
X192659000Y-119075200D01*
X181737000Y-116789200D02*
X190373000Y-116789200D01*
%TO.N,ESP_SEL_N*%
X190373000Y-114249200D02*
X192659000Y-116535200D01*
X181737000Y-114249200D02*
X190373000Y-114249200D01*
%TO.N,MISO*%
X203405599Y-91575201D02*
X203321198Y-91490800D01*
X203321198Y-91490800D02*
X172427190Y-91490800D01*
X206655599Y-91575201D02*
X203405599Y-91575201D01*
X206730600Y-91500200D02*
X206655599Y-91575201D01*
X206730600Y-90500200D02*
X206730600Y-91500200D01*
%TO.N,S0*%
X181737000Y-109169200D02*
X194437000Y-109169200D01*
%TO.N,S1*%
X181737000Y-106629200D02*
X195199000Y-106629200D01*
%TO.N,DD3*%
X171265998Y-96469200D02*
X187833000Y-96469200D01*
X169487998Y-98247200D02*
X171265998Y-96469200D01*
X137541000Y-98247200D02*
X169487998Y-98247200D01*
%TO.N,DD4*%
X192295999Y-88849200D02*
X196723000Y-88849200D01*
X191533999Y-88087200D02*
X192295999Y-88849200D01*
X137541000Y-88087200D02*
X191533999Y-88087200D01*
%TO.N,DD5*%
X151494002Y-100279200D02*
X195707000Y-100279200D01*
X151202003Y-99987201D02*
X151494002Y-100279200D01*
X138340999Y-99987201D02*
X151202003Y-99987201D01*
X137541000Y-100787200D02*
X138340999Y-99987201D01*
%TO.N,DD6*%
X137541000Y-95707200D02*
X188595000Y-95707200D01*
%TO.N,DD7*%
X137541000Y-90627200D02*
X189357000Y-90627200D01*
%TO.N,DD2*%
X182386002Y-105613200D02*
X213233000Y-105613200D01*
X138148001Y-105260199D02*
X182033001Y-105260199D01*
X182033001Y-105260199D02*
X182386002Y-105613200D01*
X137541000Y-105867200D02*
X138148001Y-105260199D01*
%TO.N,DD0*%
X212107999Y-102710199D02*
X212217000Y-102819200D01*
X138158001Y-102710199D02*
X212107999Y-102710199D01*
X137541000Y-103327200D02*
X138158001Y-102710199D01*
%TO.N,DD1*%
X138303000Y-93929200D02*
X211201000Y-93929200D01*
X137541000Y-93167200D02*
X138303000Y-93929200D01*
%TO.N,AA14*%
X143965000Y-69799200D02*
X137541000Y-69799200D01*
X143965000Y-68963200D02*
X148209000Y-64719200D01*
X143965000Y-69799200D02*
X143965000Y-68963200D01*
X167963998Y-67259200D02*
X174117000Y-67259200D01*
X166838997Y-66134199D02*
X167963998Y-67259200D01*
X149623999Y-66134199D02*
X166838997Y-66134199D01*
X148209000Y-64719200D02*
X149623999Y-66134199D01*
%TO.N,AA12*%
X137795000Y-59385200D02*
X137541000Y-59639200D01*
X146177000Y-59385200D02*
X137795000Y-59385200D01*
X148209000Y-54559200D02*
X146111185Y-54559200D01*
X171520191Y-55684201D02*
X172427190Y-56591200D01*
X149334001Y-55684201D02*
X171520191Y-55684201D01*
X148209000Y-54559200D02*
X149334001Y-55684201D01*
%TO.N,AA7*%
X160121999Y-130660199D02*
X160221000Y-130759200D01*
X146503998Y-131775200D02*
X147618999Y-130660199D01*
X137541000Y-131775200D02*
X146503998Y-131775200D01*
X154713999Y-130660199D02*
X160121999Y-130660199D01*
X147618999Y-130660199D02*
X154713999Y-130660199D01*
X157099000Y-73609200D02*
X176403000Y-73609200D01*
X155829000Y-74879200D02*
X157099000Y-73609200D01*
%TO.N,AA6*%
X147773998Y-133045200D02*
X160946000Y-133045200D01*
X146503998Y-134315200D02*
X147773998Y-133045200D01*
X137541000Y-134315200D02*
X146503998Y-134315200D01*
X156954001Y-76294199D02*
X179341999Y-76294199D01*
X179341999Y-76294199D02*
X179451000Y-76403200D01*
X155829000Y-77419200D02*
X156954001Y-76294199D01*
X181483000Y-54813200D02*
X181737000Y-54559200D01*
X179451000Y-54813200D02*
X181483000Y-54813200D01*
%TO.N,AA5*%
X138811000Y-127965200D02*
X159496000Y-127965200D01*
X137541000Y-129235200D02*
X138811000Y-127965200D01*
X183116001Y-71214199D02*
X183261000Y-71069200D01*
X156954001Y-71214199D02*
X183116001Y-71214199D01*
X155829000Y-72339200D02*
X156954001Y-71214199D01*
%TO.N,AA4*%
X138811000Y-122885200D02*
X149479000Y-122885200D01*
X137541000Y-124155200D02*
X138811000Y-122885200D01*
X170073411Y-52419201D02*
X163957000Y-52419201D01*
X173628409Y-55974199D02*
X170073411Y-52419201D01*
X178071999Y-55974199D02*
X173628409Y-55974199D01*
X181737000Y-59639200D02*
X178071999Y-55974199D01*
X149334001Y-76294199D02*
X148209000Y-77419200D01*
X156079003Y-76294199D02*
X149334001Y-76294199D01*
X156804003Y-75569199D02*
X156079003Y-76294199D01*
X163957000Y-75569199D02*
X156804003Y-75569199D01*
%TO.N,AA3*%
X138656001Y-125580199D02*
X158616001Y-125580199D01*
X158616001Y-125580199D02*
X158771000Y-125425200D01*
X137541000Y-126695200D02*
X138656001Y-125580199D01*
X155829000Y-69799200D02*
X166751000Y-69799200D01*
X180611999Y-63304201D02*
X181737000Y-62179200D01*
X173866997Y-63304201D02*
X180611999Y-63304201D01*
X172705998Y-64465200D02*
X173866997Y-63304201D01*
X166751000Y-64465200D02*
X172705998Y-64465200D01*
%TO.N,AA10*%
X137815563Y-56824637D02*
X137541000Y-57099200D01*
X146836185Y-56824637D02*
X137815563Y-56824637D01*
X170162001Y-53144201D02*
X174117000Y-57099200D01*
X149334001Y-53144201D02*
X170162001Y-53144201D01*
X148209000Y-52019200D02*
X149334001Y-53144201D01*
%TO.N,AA2*%
X146503998Y-136855200D02*
X147773998Y-135585200D01*
X137541000Y-136855200D02*
X146503998Y-136855200D01*
X147773998Y-135585200D02*
X157099000Y-135585200D01*
X157099000Y-135585200D02*
X161671000Y-135585200D01*
X175330591Y-79269201D02*
X180213000Y-79269201D01*
X174605591Y-78544201D02*
X175330591Y-79269201D01*
X132881003Y-78544201D02*
X174605591Y-78544201D01*
X132932001Y-78595199D02*
X132881003Y-78544201D01*
X154464999Y-78595199D02*
X132932001Y-78595199D01*
X155829000Y-79959200D02*
X154464999Y-78595199D01*
X180213000Y-64719200D02*
X181737000Y-64719200D01*
%TO.N,SRAM_OE_N*%
X164913000Y-120599200D02*
X178435000Y-120599200D01*
X163399000Y-119085200D02*
X164913000Y-120599200D01*
X178435000Y-104089200D02*
X181737000Y-104089200D01*
%TO.N,AA1*%
X137541000Y-121615200D02*
X138811000Y-120345200D01*
X146177000Y-120345200D02*
X150204000Y-120345200D01*
X138811000Y-120345200D02*
X146177000Y-120345200D01*
X157478590Y-72593200D02*
X167513000Y-72593200D01*
X156317591Y-73754199D02*
X157478590Y-72593200D01*
X149334001Y-73754199D02*
X156317591Y-73754199D01*
X148209000Y-74879200D02*
X149334001Y-73754199D01*
X180322001Y-65844201D02*
X181737000Y-67259200D01*
X167622001Y-65844201D02*
X180322001Y-65844201D01*
X167513000Y-65735200D02*
X167622001Y-65844201D01*
%TO.N,AA11*%
X137795000Y-67005200D02*
X137541000Y-67259200D01*
X144690000Y-67005200D02*
X137795000Y-67005200D01*
X144690000Y-65698200D02*
X148209000Y-62179200D01*
X144690000Y-67005200D02*
X144690000Y-65698200D01*
X170617809Y-63304201D02*
X170726810Y-63195200D01*
X149334001Y-63304201D02*
X170617809Y-63304201D01*
X148209000Y-62179200D02*
X149334001Y-63304201D01*
X170561000Y-59639200D02*
X174117000Y-59639200D01*
%TO.N,AA0*%
X136415999Y-120200201D02*
X137541000Y-119075200D01*
X136415999Y-122155201D02*
X136415999Y-120200201D01*
X137000999Y-122740201D02*
X136415999Y-122155201D01*
X138081001Y-122740201D02*
X137000999Y-122740201D01*
X139196002Y-121625200D02*
X138081001Y-122740201D01*
X148159000Y-121625200D02*
X139196002Y-121625200D01*
X142875000Y-77673200D02*
X148209000Y-72339200D01*
X138811000Y-77673200D02*
X142875000Y-77673200D01*
X180611999Y-68674199D02*
X181737000Y-69799200D01*
X151874001Y-68674199D02*
X180611999Y-68674199D01*
X148209000Y-72339200D02*
X151874001Y-68674199D01*
%TO.N,AA9*%
X140843000Y-74879200D02*
X137541000Y-74879200D01*
X143129000Y-74879200D02*
X148209000Y-69799200D01*
X140843000Y-74879200D02*
X143129000Y-74879200D01*
X174117000Y-54559200D02*
X168783000Y-49225200D01*
X155575000Y-49225200D02*
X152527000Y-52273200D01*
X168783000Y-49225200D02*
X155575000Y-49225200D01*
%TO.N,AA8*%
X143514990Y-72339200D02*
X137541000Y-72339200D01*
X148209000Y-67645190D02*
X148209000Y-67259200D01*
X143514990Y-72339200D02*
X148209000Y-67645190D01*
X151511000Y-52216198D02*
X151511000Y-52273200D01*
X154952008Y-48775190D02*
X151511000Y-52216198D01*
X170872990Y-48775190D02*
X154952008Y-48775190D01*
X174117000Y-52019200D02*
X170872990Y-48775190D01*
%TO.N,AA13*%
X137795000Y-62433200D02*
X137541000Y-62179200D01*
X145415000Y-62433200D02*
X137795000Y-62433200D01*
X147447000Y-57861200D02*
X145386185Y-57861200D01*
X148209000Y-57099200D02*
X147447000Y-57861200D01*
X149479000Y-58369200D02*
X175387000Y-58369200D01*
X148209000Y-57099200D02*
X149479000Y-58369200D01*
%TO.N,SRAM_WE_N*%
X177165000Y-101549200D02*
X181737000Y-101549200D01*
%TO.N,AA15*%
X147083999Y-60764201D02*
X148209000Y-59639200D01*
X147083999Y-61837203D02*
X147083999Y-60764201D01*
X144202002Y-64719200D02*
X147083999Y-61837203D01*
X137541000Y-64719200D02*
X144202002Y-64719200D01*
X176002999Y-60764201D02*
X176112000Y-60655200D01*
X149334001Y-60764201D02*
X176002999Y-60764201D01*
X148209000Y-59639200D02*
X149334001Y-60764201D01*
%TO.N,DBUS_SEL_N*%
X174774998Y-87362200D02*
X174879000Y-87362200D01*
X172159999Y-84747201D02*
X174774998Y-87362200D01*
X138340999Y-84747201D02*
X172159999Y-84747201D01*
X137541000Y-85547200D02*
X138340999Y-84747201D01*
X179451000Y-111709200D02*
X181737000Y-111709200D01*
%TO.N,ADDR_TRS_IO*%
X161671000Y-99009200D02*
X174117000Y-99009200D01*
%TO.N,ADDR_FREHD*%
X173863000Y-101295200D02*
X174117000Y-101549200D01*
X160618000Y-101295200D02*
X173863000Y-101295200D01*
%TO.N,ADDR_1*%
X173101000Y-107645200D02*
X174117000Y-106629200D01*
X159131000Y-107645200D02*
X173101000Y-107645200D01*
%TO.N,BUTTON*%
X215132500Y-114431200D02*
X208632500Y-114431200D01*
%TO.N,LED_GREEN*%
X213088001Y-120200201D02*
X188003399Y-120200201D01*
X188003399Y-120200201D02*
X187985400Y-120218200D01*
X214249000Y-121361200D02*
X213088001Y-120200201D01*
X186664600Y-67259200D02*
X192659000Y-67259200D01*
%TO.N,LED_BLUE*%
X220054001Y-87034201D02*
X215519000Y-82499200D01*
X220054001Y-119423201D02*
X220054001Y-87034201D01*
X216991001Y-122486201D02*
X220054001Y-119423201D01*
X211818001Y-122486201D02*
X216991001Y-122486201D01*
X210693000Y-121361200D02*
X211818001Y-122486201D01*
%TO.N,LED_RED*%
X196033001Y-122740201D02*
X195924000Y-122631200D01*
X205757999Y-122740201D02*
X196033001Y-122740201D01*
X207137000Y-121361200D02*
X205757999Y-122740201D01*
%TO.N,Net-(J3-Pad1)*%
X201838200Y-64506200D02*
X201803000Y-64541400D01*
X201838200Y-63205000D02*
X201838200Y-64506200D01*
X208854846Y-68919554D02*
X208940400Y-68834000D01*
X202717785Y-68919554D02*
X208854846Y-68919554D01*
%TO.N,CS_SD_CARD*%
X202938200Y-64523800D02*
X202874453Y-64587547D01*
X202938200Y-63205000D02*
X202938200Y-64523800D01*
X203479400Y-72263000D02*
X208940400Y-72263000D01*
X192684400Y-95173800D02*
X192659000Y-95199200D01*
X198247000Y-95173800D02*
X192684400Y-95173800D01*
%TO.N,Net-(J3-Pad8)*%
X209538200Y-64555000D02*
X209575400Y-64592200D01*
X209538200Y-63205000D02*
X209538200Y-64555000D01*
%TD*%
M02*
