%TF.GenerationSoftware,KiCad,Pcbnew,(5.1.9-0-10_14)*%
%TF.CreationDate,2021-07-19T10:05:44-07:00*%
%TF.ProjectId,TRS-IO-M1,5452532d-494f-42d4-9d31-2e6b69636164,rev?*%
%TF.SameCoordinates,Original*%
%TF.FileFunction,Legend,Top*%
%TF.FilePolarity,Positive*%
%FSLAX46Y46*%
G04 Gerber Fmt 4.6, Leading zero omitted, Abs format (unit mm)*
G04 Created by KiCad (PCBNEW (5.1.9-0-10_14)) date 2021-07-19 10:05:44*
%MOMM*%
%LPD*%
G01*
G04 APERTURE LIST*
%ADD10C,0.150000*%
%ADD11C,0.250000*%
%ADD12C,0.120000*%
G04 APERTURE END LIST*
D10*
X116143019Y-116233676D02*
X116143019Y-116852723D01*
X115762066Y-116519390D01*
X115762066Y-116662247D01*
X115714447Y-116757485D01*
X115666828Y-116805104D01*
X115571590Y-116852723D01*
X115333495Y-116852723D01*
X115238257Y-116805104D01*
X115190638Y-116757485D01*
X115143019Y-116662247D01*
X115143019Y-116376533D01*
X115190638Y-116281295D01*
X115238257Y-116233676D01*
X115143019Y-117328914D02*
X115143019Y-117519390D01*
X115190638Y-117614628D01*
X115238257Y-117662247D01*
X115381114Y-117757485D01*
X115571590Y-117805104D01*
X115952542Y-117805104D01*
X116047780Y-117757485D01*
X116095400Y-117709866D01*
X116143019Y-117614628D01*
X116143019Y-117424152D01*
X116095400Y-117328914D01*
X116047780Y-117281295D01*
X115952542Y-117233676D01*
X115714447Y-117233676D01*
X115619209Y-117281295D01*
X115571590Y-117328914D01*
X115523971Y-117424152D01*
X115523971Y-117614628D01*
X115571590Y-117709866D01*
X115619209Y-117757485D01*
X115714447Y-117805104D01*
X115193819Y-69043514D02*
X115193819Y-68472085D01*
X115193819Y-68757800D02*
X116193819Y-68757800D01*
X116050961Y-68662561D01*
X115955723Y-68567323D01*
X115908104Y-68472085D01*
X118510085Y-119521314D02*
X118510085Y-120187980D01*
X118271990Y-119140361D02*
X118033895Y-119854647D01*
X118652942Y-119854647D01*
X119224371Y-119187980D02*
X119319609Y-119187980D01*
X119414847Y-119235600D01*
X119462466Y-119283219D01*
X119510085Y-119378457D01*
X119557704Y-119568933D01*
X119557704Y-119807028D01*
X119510085Y-119997504D01*
X119462466Y-120092742D01*
X119414847Y-120140361D01*
X119319609Y-120187980D01*
X119224371Y-120187980D01*
X119129133Y-120140361D01*
X119081514Y-120092742D01*
X119033895Y-119997504D01*
X118986276Y-119807028D01*
X118986276Y-119568933D01*
X119033895Y-119378457D01*
X119081514Y-119283219D01*
X119129133Y-119235600D01*
X119224371Y-119187980D01*
X121799314Y-66416180D02*
X121227885Y-66416180D01*
X121513600Y-66416180D02*
X121513600Y-65416180D01*
X121418361Y-65559038D01*
X121323123Y-65654276D01*
X121227885Y-65701895D01*
D11*
X148805095Y-90525380D02*
X149376523Y-90525380D01*
X149090809Y-91525380D02*
X149090809Y-90525380D01*
X150281285Y-91525380D02*
X149947952Y-91049190D01*
X149709857Y-91525380D02*
X149709857Y-90525380D01*
X150090809Y-90525380D01*
X150186047Y-90573000D01*
X150233666Y-90620619D01*
X150281285Y-90715857D01*
X150281285Y-90858714D01*
X150233666Y-90953952D01*
X150186047Y-91001571D01*
X150090809Y-91049190D01*
X149709857Y-91049190D01*
X150662238Y-91477761D02*
X150805095Y-91525380D01*
X151043190Y-91525380D01*
X151138428Y-91477761D01*
X151186047Y-91430142D01*
X151233666Y-91334904D01*
X151233666Y-91239666D01*
X151186047Y-91144428D01*
X151138428Y-91096809D01*
X151043190Y-91049190D01*
X150852714Y-91001571D01*
X150757476Y-90953952D01*
X150709857Y-90906333D01*
X150662238Y-90811095D01*
X150662238Y-90715857D01*
X150709857Y-90620619D01*
X150757476Y-90573000D01*
X150852714Y-90525380D01*
X151090809Y-90525380D01*
X151233666Y-90573000D01*
X151662238Y-91144428D02*
X152424142Y-91144428D01*
X152900333Y-91525380D02*
X152900333Y-90525380D01*
X153567000Y-90525380D02*
X153757476Y-90525380D01*
X153852714Y-90573000D01*
X153947952Y-90668238D01*
X153995571Y-90858714D01*
X153995571Y-91192047D01*
X153947952Y-91382523D01*
X153852714Y-91477761D01*
X153757476Y-91525380D01*
X153567000Y-91525380D01*
X153471761Y-91477761D01*
X153376523Y-91382523D01*
X153328904Y-91192047D01*
X153328904Y-90858714D01*
X153376523Y-90668238D01*
X153471761Y-90573000D01*
X153567000Y-90525380D01*
X154424142Y-91144428D02*
X155186047Y-91144428D01*
X155662238Y-91525380D02*
X155662238Y-90525380D01*
X155995571Y-91239666D01*
X156328904Y-90525380D01*
X156328904Y-91525380D01*
X157328904Y-91525380D02*
X156757476Y-91525380D01*
X157043190Y-91525380D02*
X157043190Y-90525380D01*
X156947952Y-90668238D01*
X156852714Y-90763476D01*
X156757476Y-90811095D01*
X158424142Y-90858714D02*
X158662238Y-91525380D01*
X158900333Y-90858714D01*
X159805095Y-91525380D02*
X159233666Y-91525380D01*
X159519380Y-91525380D02*
X159519380Y-90525380D01*
X159424142Y-90668238D01*
X159328904Y-90763476D01*
X159233666Y-90811095D01*
X160233666Y-91430142D02*
X160281285Y-91477761D01*
X160233666Y-91525380D01*
X160186047Y-91477761D01*
X160233666Y-91430142D01*
X160233666Y-91525380D01*
X160662238Y-90620619D02*
X160709857Y-90573000D01*
X160805095Y-90525380D01*
X161043190Y-90525380D01*
X161138428Y-90573000D01*
X161186047Y-90620619D01*
X161233666Y-90715857D01*
X161233666Y-90811095D01*
X161186047Y-90953952D01*
X160614619Y-91525380D01*
X161233666Y-91525380D01*
X151828904Y-92275380D02*
X151828904Y-92989666D01*
X151781285Y-93132523D01*
X151686047Y-93227761D01*
X151543190Y-93275380D01*
X151447952Y-93275380D01*
X152733666Y-92608714D02*
X152733666Y-93275380D01*
X152305095Y-92608714D02*
X152305095Y-93132523D01*
X152352714Y-93227761D01*
X152447952Y-93275380D01*
X152590809Y-93275380D01*
X152686047Y-93227761D01*
X152733666Y-93180142D01*
X153352714Y-93275380D02*
X153257476Y-93227761D01*
X153209857Y-93132523D01*
X153209857Y-92275380D01*
X153638428Y-92608714D02*
X153876523Y-93275380D01*
X154114619Y-92608714D02*
X153876523Y-93275380D01*
X153781285Y-93513476D01*
X153733666Y-93561095D01*
X153638428Y-93608714D01*
X155209857Y-92370619D02*
X155257476Y-92323000D01*
X155352714Y-92275380D01*
X155590809Y-92275380D01*
X155686047Y-92323000D01*
X155733666Y-92370619D01*
X155781285Y-92465857D01*
X155781285Y-92561095D01*
X155733666Y-92703952D01*
X155162238Y-93275380D01*
X155781285Y-93275380D01*
X156400333Y-92275380D02*
X156495571Y-92275380D01*
X156590809Y-92323000D01*
X156638428Y-92370619D01*
X156686047Y-92465857D01*
X156733666Y-92656333D01*
X156733666Y-92894428D01*
X156686047Y-93084904D01*
X156638428Y-93180142D01*
X156590809Y-93227761D01*
X156495571Y-93275380D01*
X156400333Y-93275380D01*
X156305095Y-93227761D01*
X156257476Y-93180142D01*
X156209857Y-93084904D01*
X156162238Y-92894428D01*
X156162238Y-92656333D01*
X156209857Y-92465857D01*
X156257476Y-92370619D01*
X156305095Y-92323000D01*
X156400333Y-92275380D01*
X157114619Y-92370619D02*
X157162238Y-92323000D01*
X157257476Y-92275380D01*
X157495571Y-92275380D01*
X157590809Y-92323000D01*
X157638428Y-92370619D01*
X157686047Y-92465857D01*
X157686047Y-92561095D01*
X157638428Y-92703952D01*
X157067000Y-93275380D01*
X157686047Y-93275380D01*
X158638428Y-93275380D02*
X158067000Y-93275380D01*
X158352714Y-93275380D02*
X158352714Y-92275380D01*
X158257476Y-92418238D01*
X158162238Y-92513476D01*
X158067000Y-92561095D01*
D12*
%TO.C,U9*%
X180577000Y-97679200D02*
X178927000Y-97679200D01*
X180577000Y-123199200D02*
X180577000Y-97679200D01*
X175277000Y-123199200D02*
X180577000Y-123199200D01*
X175277000Y-97679200D02*
X175277000Y-123199200D01*
X176927000Y-97679200D02*
X175277000Y-97679200D01*
X178927000Y-97679200D02*
G75*
G02*
X176927000Y-97679200I-1000000J0D01*
G01*
%TO.C,U8*%
X154669000Y-50689200D02*
X153019000Y-50689200D01*
X154669000Y-81289200D02*
X154669000Y-50689200D01*
X149369000Y-81289200D02*
X154669000Y-81289200D01*
X149369000Y-50689200D02*
X149369000Y-81289200D01*
X151019000Y-50689200D02*
X149369000Y-50689200D01*
X153019000Y-50689200D02*
G75*
G02*
X151019000Y-50689200I-1000000J0D01*
G01*
%TO.C,U7*%
X199119000Y-112665200D02*
X197469000Y-112665200D01*
X199119000Y-138185200D02*
X199119000Y-112665200D01*
X193819000Y-138185200D02*
X199119000Y-138185200D01*
X193819000Y-112665200D02*
X193819000Y-138185200D01*
X195469000Y-112665200D02*
X193819000Y-112665200D01*
X197469000Y-112665200D02*
G75*
G02*
X195469000Y-112665200I-1000000J0D01*
G01*
%TO.C,U6*%
X136381000Y-112665200D02*
X134731000Y-112665200D01*
X136381000Y-138185200D02*
X136381000Y-112665200D01*
X131081000Y-138185200D02*
X136381000Y-138185200D01*
X131081000Y-112665200D02*
X131081000Y-138185200D01*
X132731000Y-112665200D02*
X131081000Y-112665200D01*
X134731000Y-112665200D02*
G75*
G02*
X132731000Y-112665200I-1000000J0D01*
G01*
%TO.C,U5*%
X136381000Y-50689200D02*
X134731000Y-50689200D01*
X136381000Y-76209200D02*
X136381000Y-50689200D01*
X131081000Y-76209200D02*
X136381000Y-76209200D01*
X131081000Y-50689200D02*
X131081000Y-76209200D01*
X132731000Y-50689200D02*
X131081000Y-50689200D01*
X134731000Y-50689200D02*
G75*
G02*
X132731000Y-50689200I-1000000J0D01*
G01*
%TO.C,U4*%
X136381000Y-81677200D02*
X134731000Y-81677200D01*
X136381000Y-107197200D02*
X136381000Y-81677200D01*
X131081000Y-107197200D02*
X136381000Y-107197200D01*
X131081000Y-81677200D02*
X131081000Y-107197200D01*
X132731000Y-81677200D02*
X131081000Y-81677200D01*
X134731000Y-81677200D02*
G75*
G02*
X132731000Y-81677200I-1000000J0D01*
G01*
%TO.C,U3*%
X180577000Y-50689200D02*
X178927000Y-50689200D01*
X180577000Y-86369200D02*
X180577000Y-50689200D01*
X175277000Y-86369200D02*
X180577000Y-86369200D01*
X175277000Y-50689200D02*
X175277000Y-86369200D01*
X176927000Y-50689200D02*
X175277000Y-50689200D01*
X178927000Y-50689200D02*
G75*
G02*
X176927000Y-50689200I-1000000J0D01*
G01*
%TO.C,U2*%
X162239000Y-102515200D02*
X156779000Y-102515200D01*
X162239000Y-138195200D02*
X162239000Y-102515200D01*
X149319000Y-138195200D02*
X162239000Y-138195200D01*
X149319000Y-102515200D02*
X149319000Y-138195200D01*
X154779000Y-102515200D02*
X149319000Y-102515200D01*
X156779000Y-102515200D02*
G75*
G02*
X154779000Y-102515200I-1000000J0D01*
G01*
%TO.C,U1*%
X214384400Y-50689200D02*
X205546200Y-50689200D01*
X214384400Y-97681700D02*
X214384400Y-50701700D01*
X193819000Y-97799200D02*
X214384400Y-97799200D01*
X193819000Y-50701700D02*
X193819000Y-97681700D01*
X203546200Y-50689200D02*
X193819000Y-50689200D01*
X205546200Y-50663800D02*
G75*
G02*
X203546200Y-50663800I-1000000J0D01*
G01*
%TO.C,SW1*%
X215382500Y-112931200D02*
X215382500Y-111431200D01*
X214132500Y-108931200D02*
X209632500Y-108931200D01*
X208382500Y-111431200D02*
X208382500Y-112931200D01*
X209632500Y-115431200D02*
X214132500Y-115431200D01*
%TO.C,R4*%
X215042500Y-105713200D02*
X215042500Y-105383200D01*
X208502500Y-105713200D02*
X215042500Y-105713200D01*
X208502500Y-105383200D02*
X208502500Y-105713200D01*
X215042500Y-102973200D02*
X215042500Y-103303200D01*
X208502500Y-102973200D02*
X215042500Y-102973200D01*
X208502500Y-103303200D02*
X208502500Y-102973200D01*
%TO.C,R3*%
X209323000Y-128441200D02*
X209653000Y-128441200D01*
X209323000Y-121901200D02*
X209323000Y-128441200D01*
X209653000Y-121901200D02*
X209323000Y-121901200D01*
X212063000Y-128441200D02*
X211733000Y-128441200D01*
X212063000Y-121901200D02*
X212063000Y-128441200D01*
X211733000Y-121901200D02*
X212063000Y-121901200D01*
%TO.C,R2*%
X212879000Y-128441200D02*
X213209000Y-128441200D01*
X212879000Y-121901200D02*
X212879000Y-128441200D01*
X213209000Y-121901200D02*
X212879000Y-121901200D01*
X215619000Y-128441200D02*
X215289000Y-128441200D01*
X215619000Y-121901200D02*
X215619000Y-128441200D01*
X215289000Y-121901200D02*
X215619000Y-121901200D01*
%TO.C,R1*%
X205767000Y-128441200D02*
X206097000Y-128441200D01*
X205767000Y-121901200D02*
X205767000Y-128441200D01*
X206097000Y-121901200D02*
X205767000Y-121901200D01*
X208507000Y-128441200D02*
X208177000Y-128441200D01*
X208507000Y-121901200D02*
X208507000Y-128441200D01*
X208177000Y-121901200D02*
X208507000Y-121901200D01*
%TO.C,Q2*%
X176127000Y-131085200D02*
X179727000Y-131085200D01*
X179765478Y-131073678D02*
G75*
G03*
X177927000Y-126635200I-1838478J1838478D01*
G01*
X176088522Y-131073678D02*
G75*
G02*
X177927000Y-126635200I1838478J1838478D01*
G01*
%TO.C,Q1*%
X176127000Y-137689200D02*
X179727000Y-137689200D01*
X179765478Y-137677678D02*
G75*
G03*
X177927000Y-133239200I-1838478J1838478D01*
G01*
X176088522Y-137677678D02*
G75*
G02*
X177927000Y-133239200I1838478J1838478D01*
G01*
%TO.C,J1*%
X117509000Y-67429200D02*
X118839000Y-67429200D01*
X117509000Y-68759200D02*
X117509000Y-67429200D01*
X120109000Y-67429200D02*
X122709000Y-67429200D01*
X120109000Y-70029200D02*
X120109000Y-67429200D01*
X117509000Y-70029200D02*
X120109000Y-70029200D01*
X122709000Y-67429200D02*
X122709000Y-118349200D01*
X117509000Y-70029200D02*
X117509000Y-118349200D01*
X117509000Y-118349200D02*
X122709000Y-118349200D01*
%TO.C,D1*%
X207498000Y-136157200D02*
X207498000Y-136622200D01*
X207498000Y-133532200D02*
X207498000Y-133997200D01*
X212312479Y-136157629D02*
G75*
G02*
X207803316Y-136157200I-2254479J1080429D01*
G01*
X212312479Y-133996771D02*
G75*
G03*
X207803316Y-133997200I-2254479J-1080429D01*
G01*
X212845815Y-136158027D02*
G75*
G02*
X207498000Y-136622030I-2787815J1080827D01*
G01*
X212845815Y-133996373D02*
G75*
G03*
X207498000Y-133532370I-2787815J-1080827D01*
G01*
%TO.C,C8*%
X161239000Y-53074200D02*
X161239000Y-53139200D01*
X161239000Y-50899200D02*
X161239000Y-50964200D01*
X157999000Y-53074200D02*
X157999000Y-53139200D01*
X157999000Y-50899200D02*
X157999000Y-50964200D01*
X157999000Y-53139200D02*
X161239000Y-53139200D01*
X157999000Y-50899200D02*
X161239000Y-50899200D01*
%TO.C,C7*%
X142951000Y-53074200D02*
X142951000Y-53139200D01*
X142951000Y-50899200D02*
X142951000Y-50964200D01*
X139711000Y-53074200D02*
X139711000Y-53139200D01*
X139711000Y-50899200D02*
X139711000Y-50964200D01*
X139711000Y-53139200D02*
X142951000Y-53139200D01*
X139711000Y-50899200D02*
X142951000Y-50899200D01*
%TO.C,C6*%
X142951000Y-115304200D02*
X142951000Y-115369200D01*
X142951000Y-113129200D02*
X142951000Y-113194200D01*
X139711000Y-115304200D02*
X139711000Y-115369200D01*
X139711000Y-113129200D02*
X139711000Y-113194200D01*
X139711000Y-115369200D02*
X142951000Y-115369200D01*
X139711000Y-113129200D02*
X142951000Y-113129200D01*
%TO.C,C5*%
X205943000Y-114796200D02*
X205943000Y-114861200D01*
X205943000Y-112621200D02*
X205943000Y-112686200D01*
X202703000Y-114796200D02*
X202703000Y-114861200D01*
X202703000Y-112621200D02*
X202703000Y-112686200D01*
X202703000Y-114861200D02*
X205943000Y-114861200D01*
X202703000Y-112621200D02*
X205943000Y-112621200D01*
%TO.C,C4*%
X142951000Y-84316200D02*
X142951000Y-84381200D01*
X142951000Y-82141200D02*
X142951000Y-82206200D01*
X139711000Y-84316200D02*
X139711000Y-84381200D01*
X139711000Y-82141200D02*
X139711000Y-82206200D01*
X139711000Y-84381200D02*
X142951000Y-84381200D01*
X139711000Y-82141200D02*
X142951000Y-82141200D01*
%TO.C,C3*%
X168707000Y-71284200D02*
X168707000Y-71219200D01*
X168707000Y-73459200D02*
X168707000Y-73394200D01*
X171947000Y-71284200D02*
X171947000Y-71219200D01*
X171947000Y-73459200D02*
X171947000Y-73394200D01*
X171947000Y-71219200D02*
X168707000Y-71219200D01*
X171947000Y-73459200D02*
X168707000Y-73459200D01*
%TO.C,C2*%
X187147000Y-100064200D02*
X187147000Y-100129200D01*
X187147000Y-97889200D02*
X187147000Y-97954200D01*
X183907000Y-100064200D02*
X183907000Y-100129200D01*
X183907000Y-97889200D02*
X183907000Y-97954200D01*
X183907000Y-100129200D02*
X187147000Y-100129200D01*
X183907000Y-97889200D02*
X187147000Y-97889200D01*
%TO.C,C1*%
X168859000Y-104890200D02*
X168859000Y-104955200D01*
X168859000Y-102715200D02*
X168859000Y-102780200D01*
X165619000Y-104890200D02*
X165619000Y-104955200D01*
X165619000Y-102715200D02*
X165619000Y-102780200D01*
X165619000Y-104955200D02*
X168859000Y-104955200D01*
X165619000Y-102715200D02*
X168859000Y-102715200D01*
%TO.C,C9*%
X198921800Y-66956800D02*
X195681800Y-66956800D01*
X198921800Y-64716800D02*
X195681800Y-64716800D01*
X198921800Y-66956800D02*
X198921800Y-66891800D01*
X198921800Y-64781800D02*
X198921800Y-64716800D01*
X195681800Y-66956800D02*
X195681800Y-66891800D01*
X195681800Y-64781800D02*
X195681800Y-64716800D01*
D10*
%TO.C,J3*%
X209468200Y-52705000D02*
G75*
G03*
X209468200Y-52705000I-500000J0D01*
G01*
X201488200Y-52705000D02*
G75*
G03*
X201488200Y-52705000I-500000J0D01*
G01*
X211538200Y-62705000D02*
X196538200Y-62705000D01*
X196538200Y-62705000D02*
X196538200Y-48005000D01*
X196538200Y-48005000D02*
X211538200Y-48005000D01*
X211538200Y-48005000D02*
X211538200Y-62705000D01*
D12*
%TO.C,Q3*%
X203660600Y-92350200D02*
X207260600Y-92350200D01*
X203622122Y-92338678D02*
G75*
G02*
X205460600Y-87900200I1838478J1838478D01*
G01*
X207299078Y-92338678D02*
G75*
G03*
X205460600Y-87900200I-1838478J1838478D01*
G01*
%TO.C,R5*%
X208400400Y-87323600D02*
X208400400Y-86993600D01*
X201860400Y-87323600D02*
X208400400Y-87323600D01*
X201860400Y-86993600D02*
X201860400Y-87323600D01*
X208400400Y-84583600D02*
X208400400Y-84913600D01*
X201860400Y-84583600D02*
X208400400Y-84583600D01*
X201860400Y-84913600D02*
X201860400Y-84583600D01*
%TO.C,R6*%
X201860400Y-81383000D02*
X201860400Y-81053000D01*
X201860400Y-81053000D02*
X208400400Y-81053000D01*
X208400400Y-81053000D02*
X208400400Y-81383000D01*
X201860400Y-83463000D02*
X201860400Y-83793000D01*
X201860400Y-83793000D02*
X208400400Y-83793000D01*
X208400400Y-83793000D02*
X208400400Y-83463000D01*
%TO.C,R7*%
X201860400Y-78081000D02*
X201860400Y-77751000D01*
X201860400Y-77751000D02*
X208400400Y-77751000D01*
X208400400Y-77751000D02*
X208400400Y-78081000D01*
X201860400Y-80161000D02*
X201860400Y-80491000D01*
X201860400Y-80491000D02*
X208400400Y-80491000D01*
X208400400Y-80491000D02*
X208400400Y-80161000D01*
%TO.C,R8*%
X208400400Y-77062000D02*
X208400400Y-76732000D01*
X201860400Y-77062000D02*
X208400400Y-77062000D01*
X201860400Y-76732000D02*
X201860400Y-77062000D01*
X208400400Y-74322000D02*
X208400400Y-74652000D01*
X201860400Y-74322000D02*
X208400400Y-74322000D01*
X201860400Y-74652000D02*
X201860400Y-74322000D01*
%TO.C,R9*%
X201860400Y-71223000D02*
X201860400Y-70893000D01*
X201860400Y-70893000D02*
X208400400Y-70893000D01*
X208400400Y-70893000D02*
X208400400Y-71223000D01*
X201860400Y-73303000D02*
X201860400Y-73633000D01*
X201860400Y-73633000D02*
X208400400Y-73633000D01*
X208400400Y-73633000D02*
X208400400Y-73303000D01*
%TO.C,R10*%
X208400400Y-70204000D02*
X208400400Y-69874000D01*
X201860400Y-70204000D02*
X208400400Y-70204000D01*
X201860400Y-69874000D02*
X201860400Y-70204000D01*
X208400400Y-67464000D02*
X208400400Y-67794000D01*
X201860400Y-67464000D02*
X208400400Y-67464000D01*
X201860400Y-67794000D02*
X201860400Y-67464000D01*
%TO.C,U9*%
D10*
X177165095Y-96131580D02*
X177165095Y-96941104D01*
X177212714Y-97036342D01*
X177260333Y-97083961D01*
X177355571Y-97131580D01*
X177546047Y-97131580D01*
X177641285Y-97083961D01*
X177688904Y-97036342D01*
X177736523Y-96941104D01*
X177736523Y-96131580D01*
X178260333Y-97131580D02*
X178450809Y-97131580D01*
X178546047Y-97083961D01*
X178593666Y-97036342D01*
X178688904Y-96893485D01*
X178736523Y-96703009D01*
X178736523Y-96322057D01*
X178688904Y-96226819D01*
X178641285Y-96179200D01*
X178546047Y-96131580D01*
X178355571Y-96131580D01*
X178260333Y-96179200D01*
X178212714Y-96226819D01*
X178165095Y-96322057D01*
X178165095Y-96560152D01*
X178212714Y-96655390D01*
X178260333Y-96703009D01*
X178355571Y-96750628D01*
X178546047Y-96750628D01*
X178641285Y-96703009D01*
X178688904Y-96655390D01*
X178736523Y-96560152D01*
%TO.C,U8*%
X151257095Y-49141580D02*
X151257095Y-49951104D01*
X151304714Y-50046342D01*
X151352333Y-50093961D01*
X151447571Y-50141580D01*
X151638047Y-50141580D01*
X151733285Y-50093961D01*
X151780904Y-50046342D01*
X151828523Y-49951104D01*
X151828523Y-49141580D01*
X152447571Y-49570152D02*
X152352333Y-49522533D01*
X152304714Y-49474914D01*
X152257095Y-49379676D01*
X152257095Y-49332057D01*
X152304714Y-49236819D01*
X152352333Y-49189200D01*
X152447571Y-49141580D01*
X152638047Y-49141580D01*
X152733285Y-49189200D01*
X152780904Y-49236819D01*
X152828523Y-49332057D01*
X152828523Y-49379676D01*
X152780904Y-49474914D01*
X152733285Y-49522533D01*
X152638047Y-49570152D01*
X152447571Y-49570152D01*
X152352333Y-49617771D01*
X152304714Y-49665390D01*
X152257095Y-49760628D01*
X152257095Y-49951104D01*
X152304714Y-50046342D01*
X152352333Y-50093961D01*
X152447571Y-50141580D01*
X152638047Y-50141580D01*
X152733285Y-50093961D01*
X152780904Y-50046342D01*
X152828523Y-49951104D01*
X152828523Y-49760628D01*
X152780904Y-49665390D01*
X152733285Y-49617771D01*
X152638047Y-49570152D01*
%TO.C,U7*%
X195707095Y-111117580D02*
X195707095Y-111927104D01*
X195754714Y-112022342D01*
X195802333Y-112069961D01*
X195897571Y-112117580D01*
X196088047Y-112117580D01*
X196183285Y-112069961D01*
X196230904Y-112022342D01*
X196278523Y-111927104D01*
X196278523Y-111117580D01*
X196659476Y-111117580D02*
X197326142Y-111117580D01*
X196897571Y-112117580D01*
%TO.C,U6*%
X132969095Y-111117580D02*
X132969095Y-111927104D01*
X133016714Y-112022342D01*
X133064333Y-112069961D01*
X133159571Y-112117580D01*
X133350047Y-112117580D01*
X133445285Y-112069961D01*
X133492904Y-112022342D01*
X133540523Y-111927104D01*
X133540523Y-111117580D01*
X134445285Y-111117580D02*
X134254809Y-111117580D01*
X134159571Y-111165200D01*
X134111952Y-111212819D01*
X134016714Y-111355676D01*
X133969095Y-111546152D01*
X133969095Y-111927104D01*
X134016714Y-112022342D01*
X134064333Y-112069961D01*
X134159571Y-112117580D01*
X134350047Y-112117580D01*
X134445285Y-112069961D01*
X134492904Y-112022342D01*
X134540523Y-111927104D01*
X134540523Y-111689009D01*
X134492904Y-111593771D01*
X134445285Y-111546152D01*
X134350047Y-111498533D01*
X134159571Y-111498533D01*
X134064333Y-111546152D01*
X134016714Y-111593771D01*
X133969095Y-111689009D01*
%TO.C,U5*%
X132969095Y-49141580D02*
X132969095Y-49951104D01*
X133016714Y-50046342D01*
X133064333Y-50093961D01*
X133159571Y-50141580D01*
X133350047Y-50141580D01*
X133445285Y-50093961D01*
X133492904Y-50046342D01*
X133540523Y-49951104D01*
X133540523Y-49141580D01*
X134492904Y-49141580D02*
X134016714Y-49141580D01*
X133969095Y-49617771D01*
X134016714Y-49570152D01*
X134111952Y-49522533D01*
X134350047Y-49522533D01*
X134445285Y-49570152D01*
X134492904Y-49617771D01*
X134540523Y-49713009D01*
X134540523Y-49951104D01*
X134492904Y-50046342D01*
X134445285Y-50093961D01*
X134350047Y-50141580D01*
X134111952Y-50141580D01*
X134016714Y-50093961D01*
X133969095Y-50046342D01*
%TO.C,U4*%
X132969095Y-80129580D02*
X132969095Y-80939104D01*
X133016714Y-81034342D01*
X133064333Y-81081961D01*
X133159571Y-81129580D01*
X133350047Y-81129580D01*
X133445285Y-81081961D01*
X133492904Y-81034342D01*
X133540523Y-80939104D01*
X133540523Y-80129580D01*
X134445285Y-80462914D02*
X134445285Y-81129580D01*
X134207190Y-80081961D02*
X133969095Y-80796247D01*
X134588142Y-80796247D01*
%TO.C,U3*%
X177165095Y-49141580D02*
X177165095Y-49951104D01*
X177212714Y-50046342D01*
X177260333Y-50093961D01*
X177355571Y-50141580D01*
X177546047Y-50141580D01*
X177641285Y-50093961D01*
X177688904Y-50046342D01*
X177736523Y-49951104D01*
X177736523Y-49141580D01*
X178117476Y-49141580D02*
X178736523Y-49141580D01*
X178403190Y-49522533D01*
X178546047Y-49522533D01*
X178641285Y-49570152D01*
X178688904Y-49617771D01*
X178736523Y-49713009D01*
X178736523Y-49951104D01*
X178688904Y-50046342D01*
X178641285Y-50093961D01*
X178546047Y-50141580D01*
X178260333Y-50141580D01*
X178165095Y-50093961D01*
X178117476Y-50046342D01*
%TO.C,U2*%
X155017095Y-100967580D02*
X155017095Y-101777104D01*
X155064714Y-101872342D01*
X155112333Y-101919961D01*
X155207571Y-101967580D01*
X155398047Y-101967580D01*
X155493285Y-101919961D01*
X155540904Y-101872342D01*
X155588523Y-101777104D01*
X155588523Y-100967580D01*
X156017095Y-101062819D02*
X156064714Y-101015200D01*
X156159952Y-100967580D01*
X156398047Y-100967580D01*
X156493285Y-101015200D01*
X156540904Y-101062819D01*
X156588523Y-101158057D01*
X156588523Y-101253295D01*
X156540904Y-101396152D01*
X155969476Y-101967580D01*
X156588523Y-101967580D01*
%TO.C,U1*%
X191566895Y-49083980D02*
X191566895Y-49893504D01*
X191614514Y-49988742D01*
X191662133Y-50036361D01*
X191757371Y-50083980D01*
X191947847Y-50083980D01*
X192043085Y-50036361D01*
X192090704Y-49988742D01*
X192138323Y-49893504D01*
X192138323Y-49083980D01*
X193138323Y-50083980D02*
X192566895Y-50083980D01*
X192852609Y-50083980D02*
X192852609Y-49083980D01*
X192757371Y-49226838D01*
X192662133Y-49322076D01*
X192566895Y-49369695D01*
%TO.C,SW1*%
X210553466Y-112545761D02*
X210696323Y-112593380D01*
X210934419Y-112593380D01*
X211029657Y-112545761D01*
X211077276Y-112498142D01*
X211124895Y-112402904D01*
X211124895Y-112307666D01*
X211077276Y-112212428D01*
X211029657Y-112164809D01*
X210934419Y-112117190D01*
X210743942Y-112069571D01*
X210648704Y-112021952D01*
X210601085Y-111974333D01*
X210553466Y-111879095D01*
X210553466Y-111783857D01*
X210601085Y-111688619D01*
X210648704Y-111641000D01*
X210743942Y-111593380D01*
X210982038Y-111593380D01*
X211124895Y-111641000D01*
X211458228Y-111593380D02*
X211696323Y-112593380D01*
X211886800Y-111879095D01*
X212077276Y-112593380D01*
X212315371Y-111593380D01*
X213220133Y-112593380D02*
X212648704Y-112593380D01*
X212934419Y-112593380D02*
X212934419Y-111593380D01*
X212839180Y-111736238D01*
X212743942Y-111831476D01*
X212648704Y-111879095D01*
%TO.C,R4*%
X211669333Y-104770180D02*
X211336000Y-104293990D01*
X211097904Y-104770180D02*
X211097904Y-103770180D01*
X211478857Y-103770180D01*
X211574095Y-103817800D01*
X211621714Y-103865419D01*
X211669333Y-103960657D01*
X211669333Y-104103514D01*
X211621714Y-104198752D01*
X211574095Y-104246371D01*
X211478857Y-104293990D01*
X211097904Y-104293990D01*
X212526476Y-104103514D02*
X212526476Y-104770180D01*
X212288380Y-103722561D02*
X212050285Y-104436847D01*
X212669333Y-104436847D01*
%TO.C,R3*%
X211069180Y-125363266D02*
X210592990Y-125696600D01*
X211069180Y-125934695D02*
X210069180Y-125934695D01*
X210069180Y-125553742D01*
X210116800Y-125458504D01*
X210164419Y-125410885D01*
X210259657Y-125363266D01*
X210402514Y-125363266D01*
X210497752Y-125410885D01*
X210545371Y-125458504D01*
X210592990Y-125553742D01*
X210592990Y-125934695D01*
X210069180Y-125029933D02*
X210069180Y-124410885D01*
X210450133Y-124744219D01*
X210450133Y-124601361D01*
X210497752Y-124506123D01*
X210545371Y-124458504D01*
X210640609Y-124410885D01*
X210878704Y-124410885D01*
X210973942Y-124458504D01*
X211021561Y-124506123D01*
X211069180Y-124601361D01*
X211069180Y-124887076D01*
X211021561Y-124982314D01*
X210973942Y-125029933D01*
%TO.C,R2*%
X214701380Y-125363266D02*
X214225190Y-125696600D01*
X214701380Y-125934695D02*
X213701380Y-125934695D01*
X213701380Y-125553742D01*
X213749000Y-125458504D01*
X213796619Y-125410885D01*
X213891857Y-125363266D01*
X214034714Y-125363266D01*
X214129952Y-125410885D01*
X214177571Y-125458504D01*
X214225190Y-125553742D01*
X214225190Y-125934695D01*
X213796619Y-124982314D02*
X213749000Y-124934695D01*
X213701380Y-124839457D01*
X213701380Y-124601361D01*
X213749000Y-124506123D01*
X213796619Y-124458504D01*
X213891857Y-124410885D01*
X213987095Y-124410885D01*
X214129952Y-124458504D01*
X214701380Y-125029933D01*
X214701380Y-124410885D01*
%TO.C,R1*%
X207563980Y-125388666D02*
X207087790Y-125722000D01*
X207563980Y-125960095D02*
X206563980Y-125960095D01*
X206563980Y-125579142D01*
X206611600Y-125483904D01*
X206659219Y-125436285D01*
X206754457Y-125388666D01*
X206897314Y-125388666D01*
X206992552Y-125436285D01*
X207040171Y-125483904D01*
X207087790Y-125579142D01*
X207087790Y-125960095D01*
X207563980Y-124436285D02*
X207563980Y-125007714D01*
X207563980Y-124722000D02*
X206563980Y-124722000D01*
X206706838Y-124817238D01*
X206802076Y-124912476D01*
X206849695Y-125007714D01*
%TO.C,Q2*%
X177831761Y-126222819D02*
X177736523Y-126175200D01*
X177641285Y-126079961D01*
X177498428Y-125937104D01*
X177403190Y-125889485D01*
X177307952Y-125889485D01*
X177355571Y-126127580D02*
X177260333Y-126079961D01*
X177165095Y-125984723D01*
X177117476Y-125794247D01*
X177117476Y-125460914D01*
X177165095Y-125270438D01*
X177260333Y-125175200D01*
X177355571Y-125127580D01*
X177546047Y-125127580D01*
X177641285Y-125175200D01*
X177736523Y-125270438D01*
X177784142Y-125460914D01*
X177784142Y-125794247D01*
X177736523Y-125984723D01*
X177641285Y-126079961D01*
X177546047Y-126127580D01*
X177355571Y-126127580D01*
X178165095Y-125222819D02*
X178212714Y-125175200D01*
X178307952Y-125127580D01*
X178546047Y-125127580D01*
X178641285Y-125175200D01*
X178688904Y-125222819D01*
X178736523Y-125318057D01*
X178736523Y-125413295D01*
X178688904Y-125556152D01*
X178117476Y-126127580D01*
X178736523Y-126127580D01*
%TO.C,Q1*%
X177831761Y-132826819D02*
X177736523Y-132779200D01*
X177641285Y-132683961D01*
X177498428Y-132541104D01*
X177403190Y-132493485D01*
X177307952Y-132493485D01*
X177355571Y-132731580D02*
X177260333Y-132683961D01*
X177165095Y-132588723D01*
X177117476Y-132398247D01*
X177117476Y-132064914D01*
X177165095Y-131874438D01*
X177260333Y-131779200D01*
X177355571Y-131731580D01*
X177546047Y-131731580D01*
X177641285Y-131779200D01*
X177736523Y-131874438D01*
X177784142Y-132064914D01*
X177784142Y-132398247D01*
X177736523Y-132588723D01*
X177641285Y-132683961D01*
X177546047Y-132731580D01*
X177355571Y-132731580D01*
X178736523Y-132731580D02*
X178165095Y-132731580D01*
X178450809Y-132731580D02*
X178450809Y-131731580D01*
X178355571Y-131874438D01*
X178260333Y-131969676D01*
X178165095Y-132017295D01*
%TO.C,J2*%
X114347666Y-63727080D02*
X114347666Y-64441366D01*
X114300047Y-64584223D01*
X114204809Y-64679461D01*
X114061952Y-64727080D01*
X113966714Y-64727080D01*
X114776238Y-63822319D02*
X114823857Y-63774700D01*
X114919095Y-63727080D01*
X115157190Y-63727080D01*
X115252428Y-63774700D01*
X115300047Y-63822319D01*
X115347666Y-63917557D01*
X115347666Y-64012795D01*
X115300047Y-64155652D01*
X114728619Y-64727080D01*
X115347666Y-64727080D01*
%TO.C,J1*%
X123974266Y-67498980D02*
X123974266Y-68213266D01*
X123926647Y-68356123D01*
X123831409Y-68451361D01*
X123688552Y-68498980D01*
X123593314Y-68498980D01*
X124974266Y-68498980D02*
X124402838Y-68498980D01*
X124688552Y-68498980D02*
X124688552Y-67498980D01*
X124593314Y-67641838D01*
X124498076Y-67737076D01*
X124402838Y-67784695D01*
%TO.C,D1*%
X209319904Y-131569580D02*
X209319904Y-130569580D01*
X209558000Y-130569580D01*
X209700857Y-130617200D01*
X209796095Y-130712438D01*
X209843714Y-130807676D01*
X209891333Y-130998152D01*
X209891333Y-131141009D01*
X209843714Y-131331485D01*
X209796095Y-131426723D01*
X209700857Y-131521961D01*
X209558000Y-131569580D01*
X209319904Y-131569580D01*
X210843714Y-131569580D02*
X210272285Y-131569580D01*
X210558000Y-131569580D02*
X210558000Y-130569580D01*
X210462761Y-130712438D01*
X210367523Y-130807676D01*
X210272285Y-130855295D01*
%TO.C,C8*%
X159452333Y-50126342D02*
X159404714Y-50173961D01*
X159261857Y-50221580D01*
X159166619Y-50221580D01*
X159023761Y-50173961D01*
X158928523Y-50078723D01*
X158880904Y-49983485D01*
X158833285Y-49793009D01*
X158833285Y-49650152D01*
X158880904Y-49459676D01*
X158928523Y-49364438D01*
X159023761Y-49269200D01*
X159166619Y-49221580D01*
X159261857Y-49221580D01*
X159404714Y-49269200D01*
X159452333Y-49316819D01*
X160023761Y-49650152D02*
X159928523Y-49602533D01*
X159880904Y-49554914D01*
X159833285Y-49459676D01*
X159833285Y-49412057D01*
X159880904Y-49316819D01*
X159928523Y-49269200D01*
X160023761Y-49221580D01*
X160214238Y-49221580D01*
X160309476Y-49269200D01*
X160357095Y-49316819D01*
X160404714Y-49412057D01*
X160404714Y-49459676D01*
X160357095Y-49554914D01*
X160309476Y-49602533D01*
X160214238Y-49650152D01*
X160023761Y-49650152D01*
X159928523Y-49697771D01*
X159880904Y-49745390D01*
X159833285Y-49840628D01*
X159833285Y-50031104D01*
X159880904Y-50126342D01*
X159928523Y-50173961D01*
X160023761Y-50221580D01*
X160214238Y-50221580D01*
X160309476Y-50173961D01*
X160357095Y-50126342D01*
X160404714Y-50031104D01*
X160404714Y-49840628D01*
X160357095Y-49745390D01*
X160309476Y-49697771D01*
X160214238Y-49650152D01*
%TO.C,C7*%
X141164333Y-50126342D02*
X141116714Y-50173961D01*
X140973857Y-50221580D01*
X140878619Y-50221580D01*
X140735761Y-50173961D01*
X140640523Y-50078723D01*
X140592904Y-49983485D01*
X140545285Y-49793009D01*
X140545285Y-49650152D01*
X140592904Y-49459676D01*
X140640523Y-49364438D01*
X140735761Y-49269200D01*
X140878619Y-49221580D01*
X140973857Y-49221580D01*
X141116714Y-49269200D01*
X141164333Y-49316819D01*
X141497666Y-49221580D02*
X142164333Y-49221580D01*
X141735761Y-50221580D01*
%TO.C,C6*%
X141164333Y-112356342D02*
X141116714Y-112403961D01*
X140973857Y-112451580D01*
X140878619Y-112451580D01*
X140735761Y-112403961D01*
X140640523Y-112308723D01*
X140592904Y-112213485D01*
X140545285Y-112023009D01*
X140545285Y-111880152D01*
X140592904Y-111689676D01*
X140640523Y-111594438D01*
X140735761Y-111499200D01*
X140878619Y-111451580D01*
X140973857Y-111451580D01*
X141116714Y-111499200D01*
X141164333Y-111546819D01*
X142021476Y-111451580D02*
X141831000Y-111451580D01*
X141735761Y-111499200D01*
X141688142Y-111546819D01*
X141592904Y-111689676D01*
X141545285Y-111880152D01*
X141545285Y-112261104D01*
X141592904Y-112356342D01*
X141640523Y-112403961D01*
X141735761Y-112451580D01*
X141926238Y-112451580D01*
X142021476Y-112403961D01*
X142069095Y-112356342D01*
X142116714Y-112261104D01*
X142116714Y-112023009D01*
X142069095Y-111927771D01*
X142021476Y-111880152D01*
X141926238Y-111832533D01*
X141735761Y-111832533D01*
X141640523Y-111880152D01*
X141592904Y-111927771D01*
X141545285Y-112023009D01*
%TO.C,C5*%
X204156333Y-111848342D02*
X204108714Y-111895961D01*
X203965857Y-111943580D01*
X203870619Y-111943580D01*
X203727761Y-111895961D01*
X203632523Y-111800723D01*
X203584904Y-111705485D01*
X203537285Y-111515009D01*
X203537285Y-111372152D01*
X203584904Y-111181676D01*
X203632523Y-111086438D01*
X203727761Y-110991200D01*
X203870619Y-110943580D01*
X203965857Y-110943580D01*
X204108714Y-110991200D01*
X204156333Y-111038819D01*
X205061095Y-110943580D02*
X204584904Y-110943580D01*
X204537285Y-111419771D01*
X204584904Y-111372152D01*
X204680142Y-111324533D01*
X204918238Y-111324533D01*
X205013476Y-111372152D01*
X205061095Y-111419771D01*
X205108714Y-111515009D01*
X205108714Y-111753104D01*
X205061095Y-111848342D01*
X205013476Y-111895961D01*
X204918238Y-111943580D01*
X204680142Y-111943580D01*
X204584904Y-111895961D01*
X204537285Y-111848342D01*
%TO.C,C4*%
X141164333Y-81368342D02*
X141116714Y-81415961D01*
X140973857Y-81463580D01*
X140878619Y-81463580D01*
X140735761Y-81415961D01*
X140640523Y-81320723D01*
X140592904Y-81225485D01*
X140545285Y-81035009D01*
X140545285Y-80892152D01*
X140592904Y-80701676D01*
X140640523Y-80606438D01*
X140735761Y-80511200D01*
X140878619Y-80463580D01*
X140973857Y-80463580D01*
X141116714Y-80511200D01*
X141164333Y-80558819D01*
X142021476Y-80796914D02*
X142021476Y-81463580D01*
X141783380Y-80415961D02*
X141545285Y-81130247D01*
X142164333Y-81130247D01*
%TO.C,C3*%
X170160333Y-74946342D02*
X170112714Y-74993961D01*
X169969857Y-75041580D01*
X169874619Y-75041580D01*
X169731761Y-74993961D01*
X169636523Y-74898723D01*
X169588904Y-74803485D01*
X169541285Y-74613009D01*
X169541285Y-74470152D01*
X169588904Y-74279676D01*
X169636523Y-74184438D01*
X169731761Y-74089200D01*
X169874619Y-74041580D01*
X169969857Y-74041580D01*
X170112714Y-74089200D01*
X170160333Y-74136819D01*
X170493666Y-74041580D02*
X171112714Y-74041580D01*
X170779380Y-74422533D01*
X170922238Y-74422533D01*
X171017476Y-74470152D01*
X171065095Y-74517771D01*
X171112714Y-74613009D01*
X171112714Y-74851104D01*
X171065095Y-74946342D01*
X171017476Y-74993961D01*
X170922238Y-75041580D01*
X170636523Y-75041580D01*
X170541285Y-74993961D01*
X170493666Y-74946342D01*
%TO.C,C2*%
X185360333Y-97116342D02*
X185312714Y-97163961D01*
X185169857Y-97211580D01*
X185074619Y-97211580D01*
X184931761Y-97163961D01*
X184836523Y-97068723D01*
X184788904Y-96973485D01*
X184741285Y-96783009D01*
X184741285Y-96640152D01*
X184788904Y-96449676D01*
X184836523Y-96354438D01*
X184931761Y-96259200D01*
X185074619Y-96211580D01*
X185169857Y-96211580D01*
X185312714Y-96259200D01*
X185360333Y-96306819D01*
X185741285Y-96306819D02*
X185788904Y-96259200D01*
X185884142Y-96211580D01*
X186122238Y-96211580D01*
X186217476Y-96259200D01*
X186265095Y-96306819D01*
X186312714Y-96402057D01*
X186312714Y-96497295D01*
X186265095Y-96640152D01*
X185693666Y-97211580D01*
X186312714Y-97211580D01*
%TO.C,C1*%
X167072333Y-101942342D02*
X167024714Y-101989961D01*
X166881857Y-102037580D01*
X166786619Y-102037580D01*
X166643761Y-101989961D01*
X166548523Y-101894723D01*
X166500904Y-101799485D01*
X166453285Y-101609009D01*
X166453285Y-101466152D01*
X166500904Y-101275676D01*
X166548523Y-101180438D01*
X166643761Y-101085200D01*
X166786619Y-101037580D01*
X166881857Y-101037580D01*
X167024714Y-101085200D01*
X167072333Y-101132819D01*
X168024714Y-102037580D02*
X167453285Y-102037580D01*
X167739000Y-102037580D02*
X167739000Y-101037580D01*
X167643761Y-101180438D01*
X167548523Y-101275676D01*
X167453285Y-101323295D01*
%TO.C,C9*%
X197135133Y-68443942D02*
X197087514Y-68491561D01*
X196944657Y-68539180D01*
X196849419Y-68539180D01*
X196706561Y-68491561D01*
X196611323Y-68396323D01*
X196563704Y-68301085D01*
X196516085Y-68110609D01*
X196516085Y-67967752D01*
X196563704Y-67777276D01*
X196611323Y-67682038D01*
X196706561Y-67586800D01*
X196849419Y-67539180D01*
X196944657Y-67539180D01*
X197087514Y-67586800D01*
X197135133Y-67634419D01*
X197611323Y-68539180D02*
X197801800Y-68539180D01*
X197897038Y-68491561D01*
X197944657Y-68443942D01*
X198039895Y-68301085D01*
X198087514Y-68110609D01*
X198087514Y-67729657D01*
X198039895Y-67634419D01*
X197992276Y-67586800D01*
X197897038Y-67539180D01*
X197706561Y-67539180D01*
X197611323Y-67586800D01*
X197563704Y-67634419D01*
X197516085Y-67729657D01*
X197516085Y-67967752D01*
X197563704Y-68062990D01*
X197611323Y-68110609D01*
X197706561Y-68158228D01*
X197897038Y-68158228D01*
X197992276Y-68110609D01*
X198039895Y-68062990D01*
X198087514Y-67967752D01*
%TO.C,J3*%
X204085866Y-48423580D02*
X204085866Y-49137866D01*
X204038247Y-49280723D01*
X203943009Y-49375961D01*
X203800152Y-49423580D01*
X203704914Y-49423580D01*
X204466819Y-48423580D02*
X205085866Y-48423580D01*
X204752533Y-48804533D01*
X204895390Y-48804533D01*
X204990628Y-48852152D01*
X205038247Y-48899771D01*
X205085866Y-48995009D01*
X205085866Y-49233104D01*
X205038247Y-49328342D01*
X204990628Y-49375961D01*
X204895390Y-49423580D01*
X204609676Y-49423580D01*
X204514438Y-49375961D01*
X204466819Y-49328342D01*
%TO.C,Q3*%
X205390761Y-93968819D02*
X205295523Y-93921200D01*
X205200285Y-93825961D01*
X205057428Y-93683104D01*
X204962190Y-93635485D01*
X204866952Y-93635485D01*
X204914571Y-93873580D02*
X204819333Y-93825961D01*
X204724095Y-93730723D01*
X204676476Y-93540247D01*
X204676476Y-93206914D01*
X204724095Y-93016438D01*
X204819333Y-92921200D01*
X204914571Y-92873580D01*
X205105047Y-92873580D01*
X205200285Y-92921200D01*
X205295523Y-93016438D01*
X205343142Y-93206914D01*
X205343142Y-93540247D01*
X205295523Y-93730723D01*
X205200285Y-93825961D01*
X205105047Y-93873580D01*
X204914571Y-93873580D01*
X205676476Y-92873580D02*
X206295523Y-92873580D01*
X205962190Y-93254533D01*
X206105047Y-93254533D01*
X206200285Y-93302152D01*
X206247904Y-93349771D01*
X206295523Y-93445009D01*
X206295523Y-93683104D01*
X206247904Y-93778342D01*
X206200285Y-93825961D01*
X206105047Y-93873580D01*
X205819333Y-93873580D01*
X205724095Y-93825961D01*
X205676476Y-93778342D01*
%TO.C,R5*%
X204912933Y-86380580D02*
X204579600Y-85904390D01*
X204341504Y-86380580D02*
X204341504Y-85380580D01*
X204722457Y-85380580D01*
X204817695Y-85428200D01*
X204865314Y-85475819D01*
X204912933Y-85571057D01*
X204912933Y-85713914D01*
X204865314Y-85809152D01*
X204817695Y-85856771D01*
X204722457Y-85904390D01*
X204341504Y-85904390D01*
X205817695Y-85380580D02*
X205341504Y-85380580D01*
X205293885Y-85856771D01*
X205341504Y-85809152D01*
X205436742Y-85761533D01*
X205674838Y-85761533D01*
X205770076Y-85809152D01*
X205817695Y-85856771D01*
X205865314Y-85952009D01*
X205865314Y-86190104D01*
X205817695Y-86285342D01*
X205770076Y-86332961D01*
X205674838Y-86380580D01*
X205436742Y-86380580D01*
X205341504Y-86332961D01*
X205293885Y-86285342D01*
%TO.C,R6*%
X204912933Y-82849980D02*
X204579600Y-82373790D01*
X204341504Y-82849980D02*
X204341504Y-81849980D01*
X204722457Y-81849980D01*
X204817695Y-81897600D01*
X204865314Y-81945219D01*
X204912933Y-82040457D01*
X204912933Y-82183314D01*
X204865314Y-82278552D01*
X204817695Y-82326171D01*
X204722457Y-82373790D01*
X204341504Y-82373790D01*
X205770076Y-81849980D02*
X205579600Y-81849980D01*
X205484361Y-81897600D01*
X205436742Y-81945219D01*
X205341504Y-82088076D01*
X205293885Y-82278552D01*
X205293885Y-82659504D01*
X205341504Y-82754742D01*
X205389123Y-82802361D01*
X205484361Y-82849980D01*
X205674838Y-82849980D01*
X205770076Y-82802361D01*
X205817695Y-82754742D01*
X205865314Y-82659504D01*
X205865314Y-82421409D01*
X205817695Y-82326171D01*
X205770076Y-82278552D01*
X205674838Y-82230933D01*
X205484361Y-82230933D01*
X205389123Y-82278552D01*
X205341504Y-82326171D01*
X205293885Y-82421409D01*
%TO.C,R7*%
X204989133Y-79598780D02*
X204655800Y-79122590D01*
X204417704Y-79598780D02*
X204417704Y-78598780D01*
X204798657Y-78598780D01*
X204893895Y-78646400D01*
X204941514Y-78694019D01*
X204989133Y-78789257D01*
X204989133Y-78932114D01*
X204941514Y-79027352D01*
X204893895Y-79074971D01*
X204798657Y-79122590D01*
X204417704Y-79122590D01*
X205322466Y-78598780D02*
X205989133Y-78598780D01*
X205560561Y-79598780D01*
%TO.C,R8*%
X204963733Y-76220580D02*
X204630400Y-75744390D01*
X204392304Y-76220580D02*
X204392304Y-75220580D01*
X204773257Y-75220580D01*
X204868495Y-75268200D01*
X204916114Y-75315819D01*
X204963733Y-75411057D01*
X204963733Y-75553914D01*
X204916114Y-75649152D01*
X204868495Y-75696771D01*
X204773257Y-75744390D01*
X204392304Y-75744390D01*
X205535161Y-75649152D02*
X205439923Y-75601533D01*
X205392304Y-75553914D01*
X205344685Y-75458676D01*
X205344685Y-75411057D01*
X205392304Y-75315819D01*
X205439923Y-75268200D01*
X205535161Y-75220580D01*
X205725638Y-75220580D01*
X205820876Y-75268200D01*
X205868495Y-75315819D01*
X205916114Y-75411057D01*
X205916114Y-75458676D01*
X205868495Y-75553914D01*
X205820876Y-75601533D01*
X205725638Y-75649152D01*
X205535161Y-75649152D01*
X205439923Y-75696771D01*
X205392304Y-75744390D01*
X205344685Y-75839628D01*
X205344685Y-76030104D01*
X205392304Y-76125342D01*
X205439923Y-76172961D01*
X205535161Y-76220580D01*
X205725638Y-76220580D01*
X205820876Y-76172961D01*
X205868495Y-76125342D01*
X205916114Y-76030104D01*
X205916114Y-75839628D01*
X205868495Y-75744390D01*
X205820876Y-75696771D01*
X205725638Y-75649152D01*
%TO.C,R9*%
X204963733Y-72689980D02*
X204630400Y-72213790D01*
X204392304Y-72689980D02*
X204392304Y-71689980D01*
X204773257Y-71689980D01*
X204868495Y-71737600D01*
X204916114Y-71785219D01*
X204963733Y-71880457D01*
X204963733Y-72023314D01*
X204916114Y-72118552D01*
X204868495Y-72166171D01*
X204773257Y-72213790D01*
X204392304Y-72213790D01*
X205439923Y-72689980D02*
X205630400Y-72689980D01*
X205725638Y-72642361D01*
X205773257Y-72594742D01*
X205868495Y-72451885D01*
X205916114Y-72261409D01*
X205916114Y-71880457D01*
X205868495Y-71785219D01*
X205820876Y-71737600D01*
X205725638Y-71689980D01*
X205535161Y-71689980D01*
X205439923Y-71737600D01*
X205392304Y-71785219D01*
X205344685Y-71880457D01*
X205344685Y-72118552D01*
X205392304Y-72213790D01*
X205439923Y-72261409D01*
X205535161Y-72309028D01*
X205725638Y-72309028D01*
X205820876Y-72261409D01*
X205868495Y-72213790D01*
X205916114Y-72118552D01*
%TO.C,R10*%
X204436742Y-69286380D02*
X204103409Y-68810190D01*
X203865314Y-69286380D02*
X203865314Y-68286380D01*
X204246266Y-68286380D01*
X204341504Y-68334000D01*
X204389123Y-68381619D01*
X204436742Y-68476857D01*
X204436742Y-68619714D01*
X204389123Y-68714952D01*
X204341504Y-68762571D01*
X204246266Y-68810190D01*
X203865314Y-68810190D01*
X205389123Y-69286380D02*
X204817695Y-69286380D01*
X205103409Y-69286380D02*
X205103409Y-68286380D01*
X205008171Y-68429238D01*
X204912933Y-68524476D01*
X204817695Y-68572095D01*
X206008171Y-68286380D02*
X206103409Y-68286380D01*
X206198647Y-68334000D01*
X206246266Y-68381619D01*
X206293885Y-68476857D01*
X206341504Y-68667333D01*
X206341504Y-68905428D01*
X206293885Y-69095904D01*
X206246266Y-69191142D01*
X206198647Y-69238761D01*
X206103409Y-69286380D01*
X206008171Y-69286380D01*
X205912933Y-69238761D01*
X205865314Y-69191142D01*
X205817695Y-69095904D01*
X205770076Y-68905428D01*
X205770076Y-68667333D01*
X205817695Y-68476857D01*
X205865314Y-68381619D01*
X205912933Y-68334000D01*
X206008171Y-68286380D01*
%TD*%
M02*
