%TF.GenerationSoftware,KiCad,Pcbnew,(6.0.7)*%
%TF.CreationDate,2022-08-24T05:19:48-07:00*%
%TF.ProjectId,TRS-IO-M1,5452532d-494f-42d4-9d31-2e6b69636164,rev?*%
%TF.SameCoordinates,Original*%
%TF.FileFunction,Copper,L1,Top*%
%TF.FilePolarity,Positive*%
%FSLAX46Y46*%
G04 Gerber Fmt 4.6, Leading zero omitted, Abs format (unit mm)*
G04 Created by KiCad (PCBNEW (6.0.7)) date 2022-08-24 05:19:48*
%MOMM*%
%LPD*%
G01*
G04 APERTURE LIST*
G04 Aperture macros list*
%AMRoundRect*
0 Rectangle with rounded corners*
0 $1 Rounding radius*
0 $2 $3 $4 $5 $6 $7 $8 $9 X,Y pos of 4 corners*
0 Add a 4 corners polygon primitive as box body*
4,1,4,$2,$3,$4,$5,$6,$7,$8,$9,$2,$3,0*
0 Add four circle primitives for the rounded corners*
1,1,$1+$1,$2,$3*
1,1,$1+$1,$4,$5*
1,1,$1+$1,$6,$7*
1,1,$1+$1,$8,$9*
0 Add four rect primitives between the rounded corners*
20,1,$1+$1,$2,$3,$4,$5,0*
20,1,$1+$1,$4,$5,$6,$7,0*
20,1,$1+$1,$6,$7,$8,$9,0*
20,1,$1+$1,$8,$9,$2,$3,0*%
G04 Aperture macros list end*
%TA.AperFunction,ComponentPad*%
%ADD10R,1.700000X1.700000*%
%TD*%
%TA.AperFunction,ComponentPad*%
%ADD11O,1.700000X1.700000*%
%TD*%
%TA.AperFunction,ComponentPad*%
%ADD12C,6.000000*%
%TD*%
%TA.AperFunction,ComponentPad*%
%ADD13C,0.800000*%
%TD*%
%TA.AperFunction,ComponentPad*%
%ADD14C,1.600000*%
%TD*%
%TA.AperFunction,ComponentPad*%
%ADD15O,1.600000X1.600000*%
%TD*%
%TA.AperFunction,SMDPad,CuDef*%
%ADD16RoundRect,0.250000X-0.337500X-0.475000X0.337500X-0.475000X0.337500X0.475000X-0.337500X0.475000X0*%
%TD*%
%TA.AperFunction,ComponentPad*%
%ADD17O,2.000000X1.200000*%
%TD*%
%TA.AperFunction,SMDPad,CuDef*%
%ADD18RoundRect,0.100000X-0.637500X-0.100000X0.637500X-0.100000X0.637500X0.100000X-0.637500X0.100000X0*%
%TD*%
%TA.AperFunction,ComponentPad*%
%ADD19R,1.050000X1.500000*%
%TD*%
%TA.AperFunction,ComponentPad*%
%ADD20O,1.050000X1.500000*%
%TD*%
%TA.AperFunction,SMDPad,CuDef*%
%ADD21R,2.200000X1.200000*%
%TD*%
%TA.AperFunction,SMDPad,CuDef*%
%ADD22R,6.400000X5.800000*%
%TD*%
%TA.AperFunction,ComponentPad*%
%ADD23R,1.600000X1.600000*%
%TD*%
%TA.AperFunction,ConnectorPad*%
%ADD24R,7.620000X1.778000*%
%TD*%
%TA.AperFunction,SMDPad,CuDef*%
%ADD25RoundRect,0.250000X0.412500X0.650000X-0.412500X0.650000X-0.412500X-0.650000X0.412500X-0.650000X0*%
%TD*%
%TA.AperFunction,SMDPad,CuDef*%
%ADD26RoundRect,0.125000X-0.825000X-0.125000X0.825000X-0.125000X0.825000X0.125000X-0.825000X0.125000X0*%
%TD*%
%TA.AperFunction,ComponentPad*%
%ADD27R,1.070000X1.800000*%
%TD*%
%TA.AperFunction,ComponentPad*%
%ADD28O,1.070000X1.800000*%
%TD*%
%TA.AperFunction,ComponentPad*%
%ADD29C,2.000000*%
%TD*%
%TA.AperFunction,ViaPad*%
%ADD30C,0.800000*%
%TD*%
%TA.AperFunction,Conductor*%
%ADD31C,0.500380*%
%TD*%
%TA.AperFunction,Conductor*%
%ADD32C,0.200000*%
%TD*%
%TA.AperFunction,Conductor*%
%ADD33C,0.250000*%
%TD*%
G04 APERTURE END LIST*
D10*
%TO.P,J6,1,Pin_1*%
%TO.N,unconnected-(J6-Pad1)*%
X208280000Y-108400000D03*
D11*
%TO.P,J6,2,Pin_2*%
%TO.N,unconnected-(J6-Pad2)*%
X208280000Y-105860000D03*
%TO.P,J6,3,Pin_3*%
%TO.N,unconnected-(J6-Pad3)*%
X208280000Y-103320000D03*
%TO.P,J6,4,Pin_4*%
%TO.N,BUTTON*%
X208280000Y-100780000D03*
%TO.P,J6,5,Pin_5*%
%TO.N,REQ*%
X208280000Y-98240000D03*
%TO.P,J6,6,Pin_6*%
%TO.N,unconnected-(J6-Pad6)*%
X208280000Y-95700000D03*
%TO.P,J6,7,Pin_7*%
%TO.N,LED_BLUE*%
X208280000Y-93160000D03*
%TO.P,J6,8,Pin_8*%
%TO.N,FULL_ADDR*%
X208280000Y-90620000D03*
%TO.P,J6,9,Pin_9*%
%TO.N,SCK*%
X208280000Y-88080000D03*
%TO.P,J6,10,Pin_10*%
%TO.N,CS_FPGA*%
X208280000Y-85540000D03*
%TO.P,J6,11,Pin_11*%
%TO.N,DONE*%
X208280000Y-83000000D03*
%TO.P,J6,12,Pin_12*%
%TO.N,AA2_10*%
X208280000Y-80460000D03*
%TO.P,J6,13,Pin_13*%
%TO.N,AA0_9*%
X208280000Y-77920000D03*
%TO.P,J6,14,Pin_14*%
%TO.N,GND*%
X208280000Y-75380000D03*
%TO.P,J6,15,Pin_15*%
%TO.N,AA1_8*%
X208280000Y-72840000D03*
%TO.P,J6,16,Pin_16*%
%TO.N,unconnected-(J6-Pad16)*%
X208280000Y-70300000D03*
%TO.P,J6,17,Pin_17*%
%TO.N,unconnected-(J6-Pad17)*%
X208280000Y-67760000D03*
%TO.P,J6,18,Pin_18*%
%TO.N,unconnected-(J6-Pad18)*%
X208280000Y-65220000D03*
%TO.P,J6,19,Pin_19*%
%TO.N,+5V*%
X208280000Y-62680000D03*
%TD*%
D12*
%TO.P,H1,1*%
%TO.N,N/C*%
X124714000Y-60960000D03*
D13*
X126304990Y-62550990D03*
X123123010Y-59369010D03*
X126964000Y-60960000D03*
X124714000Y-58710000D03*
X122464000Y-60960000D03*
X124714000Y-63210000D03*
X126304990Y-59369010D03*
X123123010Y-62550990D03*
%TD*%
%TO.P,H2,1*%
%TO.N,N/C*%
X217744990Y-62550990D03*
X218404000Y-60960000D03*
D12*
X216154000Y-60960000D03*
D13*
X213904000Y-60960000D03*
X214563010Y-62550990D03*
X214563010Y-59369010D03*
X217744990Y-59369010D03*
X216154000Y-63210000D03*
X216154000Y-58710000D03*
%TD*%
%TO.P,H3,1*%
%TO.N,N/C*%
X126964000Y-125476000D03*
X124714000Y-127726000D03*
X126304990Y-123885010D03*
X123123010Y-127066990D03*
D12*
X124714000Y-125476000D03*
D13*
X122464000Y-125476000D03*
X124714000Y-123226000D03*
X126304990Y-127066990D03*
X123123010Y-123885010D03*
%TD*%
%TO.P,H4,1*%
%TO.N,N/C*%
X217744990Y-123885010D03*
X213904000Y-125476000D03*
X217744990Y-127066990D03*
X216154000Y-127726000D03*
X214563010Y-123885010D03*
X218404000Y-125476000D03*
X216154000Y-123226000D03*
X214563010Y-127066990D03*
D12*
X216154000Y-125476000D03*
%TD*%
D14*
%TO.P,R1,1*%
%TO.N,LED_RED*%
X186182000Y-99568000D03*
D15*
%TO.P,R1,2*%
%TO.N,Net-(D1-Pad1)*%
X186182000Y-107188000D03*
%TD*%
D14*
%TO.P,R2,1*%
%TO.N,LED_GREEN*%
X192786000Y-99568000D03*
D15*
%TO.P,R2,2*%
%TO.N,Net-(D1-Pad4)*%
X192786000Y-107188000D03*
%TD*%
D16*
%TO.P,C2,1*%
%TO.N,+3V3*%
X143234500Y-75692000D03*
%TO.P,C2,2*%
%TO.N,GND*%
X145309500Y-75692000D03*
%TD*%
D17*
%TO.P,U5,1,Pad_38*%
%TO.N,CS_SD_CARD*%
X153650000Y-62230000D03*
%TO.P,U5,2,Pad_37*%
%TO.N,MOSI*%
X153650000Y-64770000D03*
%TO.P,U5,3,Pad_36*%
%TO.N,SCK*%
X153650000Y-67310000D03*
%TO.P,U5,4,Pad_39*%
%TO.N,MISO*%
X153650000Y-69850000D03*
%TO.P,U5,5,Pad_25*%
%TO.N,AA2_10*%
X153650000Y-72390000D03*
%TO.P,U5,6,Pad_26*%
%TO.N,AA6_12*%
X153650000Y-74930000D03*
%TO.P,U5,7,Pad_27*%
%TO.N,AA7_13*%
X153650000Y-77470000D03*
%TO.P,U5,8,Pad_28*%
%TO.N,AA5_15*%
X153650000Y-80010000D03*
%TO.P,U5,9,Pad_29*%
%TO.N,AA3_11*%
X153650000Y-82550000D03*
%TO.P,U5,10,Pad_30*%
%TO.N,AA4_14*%
X153650000Y-85090000D03*
%TO.P,U5,11,Pad_33*%
%TO.N,AA1_8*%
X153650000Y-87630000D03*
%TO.P,U5,12,Pad_34*%
%TO.N,AA0_9*%
X153650000Y-90170000D03*
%TO.P,U5,13,Pad_40*%
%TO.N,Z80_IOREQ_N*%
X153650000Y-92710000D03*
%TO.P,U5,14,Pad_35*%
%TO.N,Z80_MREQ_N*%
X153650000Y-95250000D03*
%TO.P,U5,15,Pad_41*%
%TO.N,Z80_WR_N*%
X153650000Y-97790000D03*
%TO.P,U5,16,Pad_42*%
%TO.N,Z80_RD_N*%
X153650000Y-100330000D03*
%TO.P,U5,17,Pad_51*%
%TO.N,Z80_M1_N*%
X153650000Y-102870000D03*
%TO.P,U5,18,Pad_53*%
%TO.N,READ_N*%
X153650000Y-105410000D03*
%TO.P,U5,19,Pad_54*%
%TO.N,DBUS_SEL_N*%
X153650000Y-107950000D03*
%TO.P,U5,20,Pad_55*%
%TO.N,A0_MUX*%
X153650000Y-110490000D03*
%TO.P,U5,21,Pad_56*%
%TO.N,INT*%
X153650000Y-113030000D03*
%TO.P,U5,22,Pad_57*%
%TO.N,WAIT*%
X153650000Y-115570000D03*
%TO.P,U5,23,Pad_68*%
%TO.N,unconnected-(U5-Pad23)*%
X153650000Y-118110000D03*
%TO.P,U5,24,Pad_69*%
%TO.N,unconnected-(U5-Pad24)*%
X153650000Y-120650000D03*
%TO.P,U5,25,3V3*%
%TO.N,+3V3*%
X176550000Y-120650000D03*
%TO.P,U5,26,GND*%
%TO.N,GND*%
X176550000Y-118110000D03*
%TO.P,U5,27,Pad_32*%
%TO.N,CS_FPGA*%
X176550000Y-115570000D03*
%TO.P,U5,28,Pad_31*%
%TO.N,ESP_S2*%
X176550000Y-113030000D03*
%TO.P,U5,29,Pad_49*%
%TO.N,ESP_S1*%
X176550000Y-110490000D03*
%TO.P,U5,30,Pad_48*%
%TO.N,ESP_S0*%
X176550000Y-107950000D03*
%TO.P,U5,31,5V*%
%TO.N,VU*%
X176550000Y-105410000D03*
%TO.P,U5,32,Pad_70*%
%TO.N,unconnected-(U5-Pad32)*%
X176550000Y-102870000D03*
%TO.P,U5,33,Pad_71*%
%TO.N,unconnected-(U5-Pad33)*%
X176550000Y-100330000D03*
%TO.P,U5,34,Pad_72*%
%TO.N,unconnected-(U5-Pad34)*%
X176550000Y-97790000D03*
%TO.P,U5,35,Pad_73*%
%TO.N,unconnected-(U5-Pad35)*%
X176550000Y-95250000D03*
%TO.P,U5,36,Pad_74*%
%TO.N,unconnected-(U5-Pad36)*%
X176550000Y-92710000D03*
%TO.P,U5,37,Pad_75*%
%TO.N,unconnected-(U5-Pad37)*%
X176550000Y-90170000D03*
%TO.P,U5,38,Pad_76*%
%TO.N,REQ*%
X176550000Y-87630000D03*
%TO.P,U5,39,Pad_77*%
%TO.N,DONE*%
X176550000Y-85090000D03*
%TO.P,U5,40,Pad_79*%
%TO.N,DD2*%
X176550000Y-82550000D03*
%TO.P,U5,41,Pad_80*%
%TO.N,DD0*%
X176550000Y-80010000D03*
%TO.P,U5,42,Pad_81*%
%TO.N,DD5*%
X176550000Y-77470000D03*
%TO.P,U5,43,Pad_82*%
%TO.N,DD3*%
X176550000Y-74930000D03*
%TO.P,U5,44,Pad_83*%
%TO.N,DD6*%
X176550000Y-72390000D03*
%TO.P,U5,45,Pad_84*%
%TO.N,DD1*%
X176550000Y-69850000D03*
%TO.P,U5,46,Pad_85*%
%TO.N,DD7*%
X176550000Y-67310000D03*
%TO.P,U5,47,Pad_86*%
%TO.N,DD4*%
X176550000Y-64770000D03*
%TO.P,U5,48,Pad_63*%
%TO.N,A1_MUX*%
X176550000Y-62230000D03*
%TD*%
D18*
%TO.P,U1,1,VCCA*%
%TO.N,+3V3*%
X136837500Y-87865000D03*
%TO.P,U1,2,DIR*%
%TO.N,READ_N*%
X136837500Y-88515000D03*
%TO.P,U1,3,A1*%
%TO.N,D4*%
X136837500Y-89165000D03*
%TO.P,U1,4,A2*%
%TO.N,D7*%
X136837500Y-89815000D03*
%TO.P,U1,5,A3*%
%TO.N,D1*%
X136837500Y-90465000D03*
%TO.P,U1,6,A4*%
%TO.N,D6*%
X136837500Y-91115000D03*
%TO.P,U1,7,A5*%
%TO.N,D3*%
X136837500Y-91765000D03*
%TO.P,U1,8,A6*%
%TO.N,D5*%
X136837500Y-92415000D03*
%TO.P,U1,9,A7*%
%TO.N,D0*%
X136837500Y-93065000D03*
%TO.P,U1,10,A8*%
%TO.N,D2*%
X136837500Y-93715000D03*
%TO.P,U1,11,GND*%
%TO.N,GND*%
X136837500Y-94365000D03*
%TO.P,U1,12,GND*%
X136837500Y-95015000D03*
%TO.P,U1,13,GND*%
X142562500Y-95015000D03*
%TO.P,U1,14,B8*%
%TO.N,DD2*%
X142562500Y-94365000D03*
%TO.P,U1,15,B7*%
%TO.N,DD0*%
X142562500Y-93715000D03*
%TO.P,U1,16,B6*%
%TO.N,DD5*%
X142562500Y-93065000D03*
%TO.P,U1,17,B5*%
%TO.N,DD3*%
X142562500Y-92415000D03*
%TO.P,U1,18,B4*%
%TO.N,DD6*%
X142562500Y-91765000D03*
%TO.P,U1,19,B3*%
%TO.N,DD1*%
X142562500Y-91115000D03*
%TO.P,U1,20,B2*%
%TO.N,DD7*%
X142562500Y-90465000D03*
%TO.P,U1,21,B1*%
%TO.N,DD4*%
X142562500Y-89815000D03*
%TO.P,U1,22,OEn*%
%TO.N,DBUS_SEL_N*%
X142562500Y-89165000D03*
%TO.P,U1,23,VCCB*%
%TO.N,+1V8*%
X142562500Y-88515000D03*
%TO.P,U1,24,VCCB*%
X142562500Y-87865000D03*
%TD*%
D16*
%TO.P,C1,1*%
%TO.N,+3V3*%
X143234500Y-64770000D03*
%TO.P,C1,2*%
%TO.N,GND*%
X145309500Y-64770000D03*
%TD*%
D19*
%TO.P,Q2,1,S*%
%TO.N,GND*%
X143764000Y-119380000D03*
D20*
%TO.P,Q2,2,G*%
%TO.N,INT*%
X142494000Y-119380000D03*
%TO.P,Q2,3,D*%
%TO.N,INT_N*%
X141224000Y-119380000D03*
%TD*%
D10*
%TO.P,J4,1,Pin_1*%
%TO.N,+5V*%
X212852000Y-71120000D03*
D11*
%TO.P,J4,2,Pin_2*%
%TO.N,VU*%
X215392000Y-71120000D03*
%TD*%
D21*
%TO.P,U8,1,GND*%
%TO.N,GND*%
X139310000Y-110115000D03*
D22*
%TO.P,U8,2,VO*%
%TO.N,+1V8*%
X145610000Y-112395000D03*
D21*
X139310000Y-112395000D03*
%TO.P,U8,3,VI*%
%TO.N,+3V3*%
X139310000Y-114675000D03*
%TD*%
D23*
%TO.P,U6,1,GPIO6*%
%TO.N,unconnected-(U6-Pad1)*%
X182880000Y-62645000D03*
D15*
%TO.P,U6,2,GPIO7*%
%TO.N,unconnected-(U6-Pad2)*%
X182880000Y-65185000D03*
%TO.P,U6,3,GPIO8*%
%TO.N,unconnected-(U6-Pad3)*%
X182880000Y-67725000D03*
%TO.P,U6,4,GPIO15*%
%TO.N,AA3_11*%
X182880000Y-70265000D03*
%TO.P,U6,5,GPIO2*%
%TO.N,unconnected-(U6-Pad5)*%
X182880000Y-72805000D03*
%TO.P,U6,6,GPIO0*%
%TO.N,unconnected-(U6-Pad6)*%
X182880000Y-75345000D03*
%TO.P,U6,7,GPIO4*%
%TO.N,LED_GREEN*%
X182880000Y-77885000D03*
%TO.P,U6,8,GPIO16*%
%TO.N,ESP_S0*%
X182880000Y-80425000D03*
%TO.P,U6,9,GPIO17*%
%TO.N,ESP_S1*%
X182880000Y-82965000D03*
%TO.P,U6,10,GPIO5*%
%TO.N,LED_RED*%
X182880000Y-85505000D03*
%TO.P,U6,11,GPIO18*%
%TO.N,ESP_S2*%
X182880000Y-88045000D03*
%TO.P,U6,12,GPIO19*%
%TO.N,EI*%
X182880000Y-90585000D03*
%TO.P,U6,13,GND*%
%TO.N,GND*%
X182880000Y-93125000D03*
%TO.P,U6,14,GPIO21*%
%TO.N,MOSI*%
X182880000Y-95665000D03*
%TO.P,U6,15,GPIO3*%
%TO.N,unconnected-(U6-Pad15)*%
X182880000Y-98205000D03*
%TO.P,U6,16,GPIO1*%
%TO.N,unconnected-(U6-Pad16)*%
X182880000Y-100745000D03*
%TO.P,U6,17,GPIO22*%
%TO.N,MISO*%
X182880000Y-103285000D03*
%TO.P,U6,18,GPIO23*%
%TO.N,CS_SD_CARD*%
X182880000Y-105825000D03*
%TO.P,U6,19,GND*%
%TO.N,GND*%
X182880000Y-108365000D03*
%TO.P,U6,20,3V3*%
%TO.N,unconnected-(U6-Pad20)*%
X205740000Y-108365000D03*
%TO.P,U6,21,RESET*%
%TO.N,unconnected-(U6-Pad21)*%
X205740000Y-105825000D03*
%TO.P,U6,22,GPIO36*%
%TO.N,unconnected-(U6-Pad22)*%
X205740000Y-103285000D03*
%TO.P,U6,23,GPIO39*%
%TO.N,BUTTON*%
X205740000Y-100745000D03*
%TO.P,U6,24,GPIO34*%
%TO.N,REQ*%
X205740000Y-98205000D03*
%TO.P,U6,25,GPIO35*%
%TO.N,unconnected-(U6-Pad25)*%
X205740000Y-95665000D03*
%TO.P,U6,26,GPIO32*%
%TO.N,LED_BLUE*%
X205740000Y-93125000D03*
%TO.P,U6,27,GPIO33*%
%TO.N,FULL_ADDR*%
X205740000Y-90585000D03*
%TO.P,U6,28,GPIO25*%
%TO.N,SCK*%
X205740000Y-88045000D03*
%TO.P,U6,29,GPIO26*%
%TO.N,CS_FPGA*%
X205740000Y-85505000D03*
%TO.P,U6,30,GPIO27*%
%TO.N,DONE*%
X205740000Y-82965000D03*
%TO.P,U6,31,GPIO14*%
%TO.N,AA2_10*%
X205740000Y-80425000D03*
%TO.P,U6,32,GPIO12*%
%TO.N,AA0_9*%
X205740000Y-77885000D03*
%TO.P,U6,33,GND*%
%TO.N,GND*%
X205740000Y-75345000D03*
%TO.P,U6,34,GPIO13*%
%TO.N,AA1_8*%
X205740000Y-72805000D03*
%TO.P,U6,35,GPIO9*%
%TO.N,unconnected-(U6-Pad35)*%
X205740000Y-70265000D03*
%TO.P,U6,36,GPIO10*%
%TO.N,unconnected-(U6-Pad36)*%
X205740000Y-67725000D03*
%TO.P,U6,37,GPIO11*%
%TO.N,unconnected-(U6-Pad37)*%
X205740000Y-65185000D03*
%TO.P,U6,38,5V*%
%TO.N,+5V*%
X205740000Y-62708500D03*
%TD*%
D14*
%TO.P,R4,1*%
%TO.N,+3V3*%
X202184000Y-107188000D03*
D15*
%TO.P,R4,2*%
%TO.N,BUTTON*%
X202184000Y-99568000D03*
%TD*%
D24*
%TO.P,J1,1,Pin_1*%
%TO.N,GND*%
X106934000Y-123698000D03*
%TO.P,J1,3,Pin_3*%
%TO.N,A7*%
X106934000Y-121158000D03*
%TO.P,J1,5,Pin_5*%
%TO.N,A5*%
X106934000Y-118618000D03*
%TO.P,J1,7,Pin_7*%
%TO.N,A1*%
X106934000Y-116078000D03*
%TO.P,J1,9,Pin_9*%
%TO.N,A2*%
X106934000Y-113538000D03*
%TO.P,J1,11,Pin_11*%
%TO.N,D5*%
X106934000Y-110998000D03*
%TO.P,J1,13,Pin_13*%
%TO.N,unconnected-(J1-Pad13)*%
X106934000Y-108458000D03*
%TO.P,J1,15,Pin_15*%
%TO.N,D0*%
X106934000Y-105918000D03*
%TO.P,J1,17,Pin_17*%
%TO.N,D7*%
X106934000Y-103378000D03*
%TO.P,J1,19,Pin_19*%
%TO.N,5V*%
X106934000Y-100838000D03*
%TO.P,J1,21,Pin_21*%
%TO.N,A15*%
X106934000Y-98298000D03*
%TO.P,J1,23,Pin_23*%
%TO.N,A14*%
X106934000Y-95758000D03*
%TO.P,J1,25,Pin_25*%
%TO.N,unconnected-(J1-Pad25)*%
X106934000Y-93218000D03*
%TO.P,J1,27,Pin_27*%
%TO.N,A13*%
X106934000Y-90678000D03*
%TO.P,J1,29,Pin_29*%
%TO.N,A12*%
X106934000Y-88138000D03*
%TO.P,J1,31,Pin_31*%
%TO.N,INT_N*%
X106934000Y-85598000D03*
%TO.P,J1,33,Pin_33*%
%TO.N,unconnected-(J1-Pad33)*%
X106934000Y-83058000D03*
%TO.P,J1,35,Pin_35*%
%TO.N,PHANTOM*%
X106934000Y-80518000D03*
%TO.P,J1,37,Pin_37*%
%TO.N,WAIT_N*%
X106934000Y-77978000D03*
%TO.P,J1,39,Pin_39*%
%TO.N,PHOLD*%
X106934000Y-75438000D03*
%TO.P,J1,41,Pin_41*%
%TO.N,RD_N*%
X106934000Y-72898000D03*
%TO.P,J1,43,Pin_43*%
%TO.N,MREQ_N*%
X106934000Y-70358000D03*
%TO.P,J1,45,Pin_45*%
%TO.N,M1_N*%
X106934000Y-67818000D03*
%TO.P,J1,47,Pin_47*%
%TO.N,RFSH*%
X106934000Y-65278000D03*
%TO.P,J1,49,Pin_49*%
%TO.N,GND*%
X106934000Y-62738000D03*
%TD*%
D10*
%TO.P,J5,1,Pin_1*%
%TO.N,FULL_ADDR*%
X212847000Y-84074000D03*
D11*
%TO.P,J5,2,Pin_2*%
%TO.N,GND*%
X215387000Y-84074000D03*
%TD*%
D16*
%TO.P,C3,1*%
%TO.N,+3V3*%
X143234500Y-97790000D03*
%TO.P,C3,2*%
%TO.N,GND*%
X145309500Y-97790000D03*
%TD*%
D10*
%TO.P,J3,1,Pin_1*%
%TO.N,EI*%
X212852000Y-77470000D03*
D11*
%TO.P,J3,2,Pin_2*%
%TO.N,GND*%
X215392000Y-77470000D03*
%TD*%
D25*
%TO.P,C4,1*%
%TO.N,+1V8*%
X136436500Y-110998000D03*
%TO.P,C4,2*%
%TO.N,GND*%
X133311500Y-110998000D03*
%TD*%
D14*
%TO.P,R3,1*%
%TO.N,LED_BLUE*%
X189484000Y-99568000D03*
D15*
%TO.P,R3,2*%
%TO.N,Net-(D1-Pad3)*%
X189484000Y-107188000D03*
%TD*%
D26*
%TO.P,U2,1,A->B*%
%TO.N,+3V3*%
X136200000Y-66925000D03*
%TO.P,U2,2,A0*%
%TO.N,A10*%
X136200000Y-67575000D03*
%TO.P,U2,3,A1*%
%TO.N,A12*%
X136200000Y-68225000D03*
%TO.P,U2,4,A2*%
%TO.N,A13*%
X136200000Y-68875000D03*
%TO.P,U2,5,A3*%
%TO.N,A15*%
X136200000Y-69525000D03*
%TO.P,U2,6,A4*%
%TO.N,A11*%
X136200000Y-70175000D03*
%TO.P,U2,7,A5*%
%TO.N,A14*%
X136200000Y-70825000D03*
%TO.P,U2,8,A6*%
%TO.N,A8*%
X136200000Y-71475000D03*
%TO.P,U2,9,A7*%
%TO.N,A9*%
X136200000Y-72125000D03*
%TO.P,U2,10,GND*%
%TO.N,GND*%
X136200000Y-72775000D03*
%TO.P,U2,11,B7*%
%TO.N,AA0_9*%
X143200000Y-72775000D03*
%TO.P,U2,12,B6*%
%TO.N,AA1_8*%
X143200000Y-72125000D03*
%TO.P,U2,13,B5*%
%TO.N,AA4_14*%
X143200000Y-71475000D03*
%TO.P,U2,14,B4*%
%TO.N,AA3_11*%
X143200000Y-70825000D03*
%TO.P,U2,15,B3*%
%TO.N,AA5_15*%
X143200000Y-70175000D03*
%TO.P,U2,16,B2*%
%TO.N,AA7_13*%
X143200000Y-69525000D03*
%TO.P,U2,17,B1*%
%TO.N,AA6_12*%
X143200000Y-68875000D03*
%TO.P,U2,18,B0*%
%TO.N,AA2_10*%
X143200000Y-68225000D03*
%TO.P,U2,19,CE*%
%TO.N,A1_MUX*%
X143200000Y-67575000D03*
%TO.P,U2,20,VCC*%
%TO.N,+3V3*%
X143200000Y-66925000D03*
%TD*%
D27*
%TO.P,D1,1,RA*%
%TO.N,Net-(D1-Pad1)*%
X186314000Y-121920000D03*
D28*
%TO.P,D1,2,K*%
%TO.N,GND*%
X187584000Y-121920000D03*
%TO.P,D1,3,BA*%
%TO.N,Net-(D1-Pad3)*%
X188854000Y-121920000D03*
%TO.P,D1,4,GA*%
%TO.N,Net-(D1-Pad4)*%
X190124000Y-121920000D03*
%TD*%
D26*
%TO.P,U3,1,A->B*%
%TO.N,+3V3*%
X136200000Y-99945000D03*
%TO.P,U3,2,A0*%
%TO.N,A0*%
X136200000Y-100595000D03*
%TO.P,U3,3,A1*%
%TO.N,A1*%
X136200000Y-101245000D03*
%TO.P,U3,4,A2*%
%TO.N,A4*%
X136200000Y-101895000D03*
%TO.P,U3,5,A3*%
%TO.N,A3*%
X136200000Y-102545000D03*
%TO.P,U3,6,A4*%
%TO.N,A5*%
X136200000Y-103195000D03*
%TO.P,U3,7,A5*%
%TO.N,A7*%
X136200000Y-103845000D03*
%TO.P,U3,8,A6*%
%TO.N,A6*%
X136200000Y-104495000D03*
%TO.P,U3,9,A7*%
%TO.N,A2*%
X136200000Y-105145000D03*
%TO.P,U3,10,GND*%
%TO.N,GND*%
X136200000Y-105795000D03*
%TO.P,U3,11,B7*%
%TO.N,AA2_10*%
X143200000Y-105795000D03*
%TO.P,U3,12,B6*%
%TO.N,AA6_12*%
X143200000Y-105145000D03*
%TO.P,U3,13,B5*%
%TO.N,AA7_13*%
X143200000Y-104495000D03*
%TO.P,U3,14,B4*%
%TO.N,AA5_15*%
X143200000Y-103845000D03*
%TO.P,U3,15,B3*%
%TO.N,AA3_11*%
X143200000Y-103195000D03*
%TO.P,U3,16,B2*%
%TO.N,AA4_14*%
X143200000Y-102545000D03*
%TO.P,U3,17,B1*%
%TO.N,AA1_8*%
X143200000Y-101895000D03*
%TO.P,U3,18,B0*%
%TO.N,AA0_9*%
X143200000Y-101245000D03*
%TO.P,U3,19,CE*%
%TO.N,A0_MUX*%
X143200000Y-100595000D03*
%TO.P,U3,20,VCC*%
%TO.N,+3V3*%
X143200000Y-99945000D03*
%TD*%
D19*
%TO.P,Q1,1,S*%
%TO.N,GND*%
X137160000Y-119380000D03*
D20*
%TO.P,Q1,2,G*%
%TO.N,WAIT*%
X135890000Y-119380000D03*
%TO.P,Q1,3,D*%
%TO.N,WAIT_N*%
X134620000Y-119380000D03*
%TD*%
D11*
%TO.P,J2,1,Pin_1*%
%TO.N,GND*%
X118867000Y-123703000D03*
%TO.P,J2,2,Pin_2*%
X116327000Y-123703000D03*
%TO.P,J2,3,Pin_3*%
%TO.N,A7*%
X118867000Y-121163000D03*
%TO.P,J2,4,Pin_4*%
%TO.N,A6*%
X116327000Y-121163000D03*
%TO.P,J2,5,Pin_5*%
%TO.N,A5*%
X118867000Y-118623000D03*
%TO.P,J2,6,Pin_6*%
%TO.N,A4*%
X116327000Y-118623000D03*
%TO.P,J2,7,Pin_7*%
%TO.N,A1*%
X118867000Y-116083000D03*
%TO.P,J2,8,Pin_8*%
%TO.N,A3*%
X116327000Y-116083000D03*
%TO.P,J2,9,Pin_9*%
%TO.N,A2*%
X118867000Y-113543000D03*
%TO.P,J2,10,Pin_10*%
%TO.N,A0*%
X116327000Y-113543000D03*
%TO.P,J2,11,Pin_11*%
%TO.N,D5*%
X118867000Y-111003000D03*
%TO.P,J2,12,Pin_12*%
%TO.N,D2*%
X116327000Y-111003000D03*
%TO.P,J2,13,Pin_13*%
%TO.N,unconnected-(J2-Pad13)*%
X118867000Y-108463000D03*
%TO.P,J2,14,Pin_14*%
%TO.N,D1*%
X116327000Y-108463000D03*
%TO.P,J2,15,Pin_15*%
%TO.N,D0*%
X118867000Y-105923000D03*
%TO.P,J2,16,Pin_16*%
%TO.N,D3*%
X116327000Y-105923000D03*
%TO.P,J2,17,Pin_17*%
%TO.N,D7*%
X118867000Y-103383000D03*
%TO.P,J2,18,Pin_18*%
%TO.N,D6*%
X116327000Y-103383000D03*
%TO.P,J2,19,Pin_19*%
%TO.N,5V*%
X118867000Y-100843000D03*
%TO.P,J2,20,Pin_20*%
%TO.N,D4*%
X116327000Y-100843000D03*
%TO.P,J2,21,Pin_21*%
%TO.N,A15*%
X118867000Y-98303000D03*
%TO.P,J2,22,Pin_22*%
%TO.N,A8*%
X116327000Y-98303000D03*
%TO.P,J2,23,Pin_23*%
%TO.N,A14*%
X118867000Y-95763000D03*
%TO.P,J2,24,Pin_24*%
%TO.N,A9*%
X116327000Y-95763000D03*
%TO.P,J2,25,Pin_25*%
%TO.N,unconnected-(J2-Pad25)*%
X118867000Y-93223000D03*
%TO.P,J2,26,Pin_26*%
%TO.N,A10*%
X116327000Y-93223000D03*
%TO.P,J2,27,Pin_27*%
%TO.N,A13*%
X118867000Y-90683000D03*
%TO.P,J2,28,Pin_28*%
%TO.N,A11*%
X116327000Y-90683000D03*
%TO.P,J2,29,Pin_29*%
%TO.N,A12*%
X118867000Y-88143000D03*
%TO.P,J2,30,Pin_30*%
%TO.N,PHI*%
X116327000Y-88143000D03*
%TO.P,J2,31,Pin_31*%
%TO.N,INT_N*%
X118867000Y-85603000D03*
%TO.P,J2,32,Pin_32*%
%TO.N,unconnected-(J2-Pad32)*%
X116327000Y-85603000D03*
%TO.P,J2,33,Pin_33*%
%TO.N,unconnected-(J2-Pad33)*%
X118867000Y-83063000D03*
%TO.P,J2,34,Pin_34*%
%TO.N,PHLDA*%
X116327000Y-83063000D03*
%TO.P,J2,35,Pin_35*%
%TO.N,PHANTOM*%
X118867000Y-80523000D03*
%TO.P,J2,36,Pin_36*%
%TO.N,HALT*%
X116327000Y-80523000D03*
%TO.P,J2,37,Pin_37*%
%TO.N,WAIT_N*%
X118867000Y-77983000D03*
%TO.P,J2,38,Pin_38*%
%TO.N,IORQ_N*%
X116327000Y-77983000D03*
%TO.P,J2,39,Pin_39*%
%TO.N,PHOLD*%
X118867000Y-75443000D03*
%TO.P,J2,40,Pin_40*%
%TO.N,WR_N*%
X116327000Y-75443000D03*
%TO.P,J2,41,Pin_41*%
%TO.N,RD_N*%
X118867000Y-72903000D03*
%TO.P,J2,42,Pin_42*%
%TO.N,CCDBS*%
X116327000Y-72903000D03*
%TO.P,J2,43,Pin_43*%
%TO.N,MREQ_N*%
X118867000Y-70363000D03*
%TO.P,J2,44,Pin_44*%
%TO.N,DODBS*%
X116327000Y-70363000D03*
%TO.P,J2,45,Pin_45*%
%TO.N,M1_N*%
X118867000Y-67823000D03*
%TO.P,J2,46,Pin_46*%
%TO.N,RESET*%
X116327000Y-67823000D03*
%TO.P,J2,47,Pin_47*%
%TO.N,RFSH*%
X118867000Y-65283000D03*
%TO.P,J2,48,Pin_48*%
%TO.N,NMI*%
X116327000Y-65283000D03*
%TO.P,J2,49,Pin_49*%
%TO.N,GND*%
X118867000Y-62743000D03*
D10*
%TO.P,J2,50,Pin_50*%
X116327000Y-62743000D03*
%TD*%
D29*
%TO.P,SW1,1,1*%
%TO.N,GND*%
X205994000Y-123952000D03*
X199494000Y-123952000D03*
%TO.P,SW1,2,2*%
%TO.N,BUTTON*%
X205994000Y-119452000D03*
X199494000Y-119452000D03*
%TD*%
D26*
%TO.P,U4,1,A->B*%
%TO.N,+3V3*%
X136200000Y-77847000D03*
%TO.P,U4,2,A0*%
%TO.N,IORQ_N*%
X136200000Y-78497000D03*
%TO.P,U4,3,A1*%
%TO.N,MREQ_N*%
X136200000Y-79147000D03*
%TO.P,U4,4,A2*%
%TO.N,WR_N*%
X136200000Y-79797000D03*
%TO.P,U4,5,A3*%
%TO.N,RD_N*%
X136200000Y-80447000D03*
%TO.P,U4,6,A4*%
%TO.N,M1_N*%
X136200000Y-81097000D03*
%TO.P,U4,7,A5*%
%TO.N,unconnected-(U4-Pad7)*%
X136200000Y-81747000D03*
%TO.P,U4,8,A6*%
%TO.N,unconnected-(U4-Pad8)*%
X136200000Y-82397000D03*
%TO.P,U4,9,A7*%
%TO.N,unconnected-(U4-Pad9)*%
X136200000Y-83047000D03*
%TO.P,U4,10,GND*%
%TO.N,GND*%
X136200000Y-83697000D03*
%TO.P,U4,11,B7*%
%TO.N,unconnected-(U4-Pad11)*%
X143200000Y-83697000D03*
%TO.P,U4,12,B6*%
%TO.N,unconnected-(U4-Pad12)*%
X143200000Y-83047000D03*
%TO.P,U4,13,B5*%
%TO.N,unconnected-(U4-Pad13)*%
X143200000Y-82397000D03*
%TO.P,U4,14,B4*%
%TO.N,Z80_M1_N*%
X143200000Y-81747000D03*
%TO.P,U4,15,B3*%
%TO.N,Z80_RD_N*%
X143200000Y-81097000D03*
%TO.P,U4,16,B2*%
%TO.N,Z80_WR_N*%
X143200000Y-80447000D03*
%TO.P,U4,17,B1*%
%TO.N,Z80_MREQ_N*%
X143200000Y-79797000D03*
%TO.P,U4,18,B0*%
%TO.N,Z80_IOREQ_N*%
X143200000Y-79147000D03*
%TO.P,U4,19,CE*%
%TO.N,GND*%
X143200000Y-78497000D03*
%TO.P,U4,20,VCC*%
%TO.N,+3V3*%
X143200000Y-77847000D03*
%TD*%
D25*
%TO.P,C5,1*%
%TO.N,+3V3*%
X136436500Y-114808000D03*
%TO.P,C5,2*%
%TO.N,GND*%
X133311500Y-114808000D03*
%TD*%
D30*
%TO.N,CS_FPGA*%
X209804000Y-114046000D03*
%TO.N,GND*%
X129286000Y-114808000D03*
X145542000Y-62992000D03*
X143764000Y-74168000D03*
X135636000Y-97790000D03*
X145288000Y-99314000D03*
X138029346Y-72898000D03*
X135636000Y-107950000D03*
X139192000Y-108458000D03*
%TO.N,+3V3*%
X143256000Y-96266000D03*
X133858000Y-77724000D03*
X133858000Y-66875500D03*
X135128000Y-87376000D03*
X142240000Y-75692000D03*
X133858000Y-99895500D03*
X134874000Y-113030000D03*
%TO.N,A10*%
X122428000Y-94234000D03*
X122428000Y-67564000D03*
%TO.N,A12*%
X123190000Y-68274500D03*
X120650000Y-83820000D03*
X123190000Y-83820000D03*
%TO.N,A13*%
X124024131Y-68924500D03*
X123952000Y-90678000D03*
%TO.N,A15*%
X124714000Y-98298000D03*
X124743885Y-69618012D03*
%TO.N,A11*%
X125476000Y-91440000D03*
X125513586Y-70255637D03*
%TO.N,A14*%
X126428380Y-70874500D03*
X126238000Y-95758000D03*
%TO.N,A8*%
X127000000Y-99568000D03*
X127181017Y-71532179D03*
%TO.N,WR_N*%
X128524000Y-79871500D03*
X128524000Y-76708000D03*
%TO.N,RD_N*%
X130302000Y-80297020D03*
X130302000Y-72898000D03*
%TO.N,MREQ_N*%
X120866500Y-78994000D03*
X120866500Y-70358000D03*
%TO.N,A9*%
X127762000Y-97028000D03*
X128030050Y-72174500D03*
%TO.N,D4*%
X120650000Y-101854000D03*
X120650000Y-89154000D03*
%TO.N,M1_N*%
X120215367Y-81054944D03*
X120142000Y-67818000D03*
%TO.N,D7*%
X121412000Y-103378000D03*
X121481636Y-89864500D03*
%TO.N,INT_N*%
X137329846Y-98552000D03*
X123190000Y-85598000D03*
X123190000Y-94996000D03*
%TO.N,D1*%
X128461500Y-90514500D03*
X128524000Y-109474000D03*
%TO.N,D6*%
X129286000Y-104394000D03*
X129286000Y-91186000D03*
%TO.N,A0*%
X122428000Y-114554000D03*
X122428000Y-100584000D03*
%TO.N,D3*%
X130057064Y-91821976D03*
X130048000Y-106680000D03*
%TO.N,A1*%
X123190000Y-116078000D03*
X123190000Y-101294500D03*
%TO.N,D5*%
X131064000Y-110998000D03*
X131064000Y-92464500D03*
%TO.N,D0*%
X131826000Y-105918000D03*
X131899915Y-93114500D03*
%TO.N,A4*%
X123952000Y-119634000D03*
X123952000Y-101944500D03*
%TO.N,D2*%
X132588000Y-112522000D03*
X132842000Y-93764500D03*
%TO.N,WAIT_N*%
X125222000Y-120142000D03*
%TO.N,A3*%
X124714000Y-102616000D03*
X124714000Y-117094000D03*
%TO.N,A5*%
X125545636Y-103244500D03*
X125476000Y-118618000D03*
%TO.N,A7*%
X126175500Y-107772011D03*
X126238000Y-121158000D03*
%TO.N,A6*%
X127000000Y-122174000D03*
X126972336Y-108471511D03*
%TO.N,A2*%
X129540000Y-113538000D03*
X129540000Y-109474000D03*
%TO.N,+1V8*%
X138029346Y-86614000D03*
X142494000Y-86614000D03*
%TO.N,AA0_9*%
X198374000Y-89154000D03*
%TO.N,AA1_8*%
X197612000Y-86614000D03*
%TO.N,SCK*%
X195580000Y-66294000D03*
X195580000Y-90424000D03*
%TO.N,MOSI*%
X161098500Y-96266000D03*
%TO.N,READ_N*%
X135128000Y-88392000D03*
%TO.N,MISO*%
X160528000Y-103632000D03*
%TO.N,DD3*%
X145530420Y-92672479D03*
%TO.N,DD4*%
X143772003Y-89864500D03*
%TO.N,DD5*%
X144412084Y-93397000D03*
%TO.N,DD6*%
X144526000Y-91948000D03*
%TO.N,DD7*%
X144574660Y-90460108D03*
%TO.N,DD2*%
X144354955Y-94846000D03*
%TO.N,DD0*%
X145285880Y-94121500D03*
%TO.N,DD1*%
X145272704Y-91175468D03*
%TO.N,A1_MUX*%
X147574000Y-63754000D03*
%TO.N,CS_SD_CARD*%
X161798000Y-106426000D03*
%TO.N,REQ*%
X174244000Y-96965500D03*
%TD*%
D31*
%TO.N,GND*%
X208280000Y-75380000D02*
X213302000Y-75380000D01*
X213302000Y-75380000D02*
X215392000Y-77470000D01*
X205775000Y-75380000D02*
X205740000Y-75345000D01*
X208280000Y-75380000D02*
X205775000Y-75380000D01*
D32*
%TO.N,CS_FPGA*%
X209804000Y-114046000D02*
X209804000Y-87064000D01*
X209804000Y-87064000D02*
X208280000Y-85540000D01*
D31*
%TO.N,VU*%
X210312000Y-60706000D02*
X215392000Y-65786000D01*
X173228000Y-60706000D02*
X210312000Y-60706000D01*
X172974000Y-105410000D02*
X171958000Y-104394000D01*
X171958000Y-61976000D02*
X173228000Y-60706000D01*
X215392000Y-65786000D02*
X215392000Y-71120000D01*
X176550000Y-105410000D02*
X172974000Y-105410000D01*
X171958000Y-104394000D02*
X171958000Y-61976000D01*
%TO.N,+5V*%
X212852000Y-65024000D02*
X212852000Y-71120000D01*
X210508000Y-62680000D02*
X212852000Y-65024000D01*
X208280000Y-62680000D02*
X210508000Y-62680000D01*
X208251500Y-62708500D02*
X208280000Y-62680000D01*
X205740000Y-62708500D02*
X208251500Y-62708500D01*
D32*
%TO.N,AA1_8*%
X208245000Y-72805000D02*
X208280000Y-72840000D01*
X205740000Y-72805000D02*
X208245000Y-72805000D01*
%TO.N,AA0_9*%
X208245000Y-77885000D02*
X208280000Y-77920000D01*
X205740000Y-77885000D02*
X208245000Y-77885000D01*
D33*
%TO.N,AA2_10*%
X208245000Y-80425000D02*
X208280000Y-80460000D01*
X205740000Y-80425000D02*
X208245000Y-80425000D01*
%TO.N,CS_FPGA*%
X205740000Y-85505000D02*
X208245000Y-85505000D01*
X208245000Y-85505000D02*
X208280000Y-85540000D01*
D32*
%TO.N,DONE*%
X205740000Y-82965000D02*
X208245000Y-82965000D01*
X208245000Y-82965000D02*
X208280000Y-83000000D01*
%TO.N,SCK*%
X208245000Y-88045000D02*
X208280000Y-88080000D01*
X205740000Y-88045000D02*
X208245000Y-88045000D01*
%TO.N,LED_BLUE*%
X208245000Y-93125000D02*
X208280000Y-93160000D01*
X205740000Y-93125000D02*
X208245000Y-93125000D01*
%TO.N,REQ*%
X208245000Y-98205000D02*
X208280000Y-98240000D01*
X205740000Y-98205000D02*
X208245000Y-98205000D01*
%TO.N,BUTTON*%
X208245000Y-100745000D02*
X208280000Y-100780000D01*
X205740000Y-100745000D02*
X208245000Y-100745000D01*
%TO.N,GND*%
X133311500Y-110274500D02*
X133311500Y-110998000D01*
X135636000Y-107950000D02*
X133311500Y-110274500D01*
X136837500Y-94365000D02*
X136837500Y-95015000D01*
X145309500Y-77287861D02*
X144100361Y-78497000D01*
X144100361Y-78497000D02*
X143200000Y-78497000D01*
D33*
X116322000Y-62738000D02*
X116327000Y-62743000D01*
D32*
X136200000Y-105795000D02*
X136200000Y-107386000D01*
X139310000Y-108576000D02*
X139192000Y-108458000D01*
X142994259Y-95015000D02*
X145309500Y-97330241D01*
X145309500Y-64770000D02*
X145309500Y-63224500D01*
D33*
X116322000Y-123698000D02*
X116327000Y-123703000D01*
D32*
X145309500Y-99292500D02*
X145288000Y-99314000D01*
X136200000Y-72775000D02*
X137906346Y-72775000D01*
X138029346Y-82768015D02*
X138029346Y-72898000D01*
X133311500Y-114808000D02*
X133311500Y-110998000D01*
X133311500Y-114808000D02*
X129286000Y-114808000D01*
X145309500Y-75692000D02*
X145288000Y-75692000D01*
X136837500Y-95015000D02*
X136837500Y-96588500D01*
D33*
X106934000Y-62738000D02*
X116322000Y-62738000D01*
D32*
X137100361Y-83697000D02*
X138029346Y-82768015D01*
X136200000Y-83697000D02*
X137100361Y-83697000D01*
X142562500Y-95015000D02*
X142994259Y-95015000D01*
X139310000Y-110115000D02*
X139310000Y-108576000D01*
X145309500Y-97330241D02*
X145309500Y-97790000D01*
X136837500Y-96588500D02*
X135636000Y-97790000D01*
X145309500Y-63224500D02*
X145542000Y-62992000D01*
D33*
X106934000Y-123698000D02*
X116322000Y-123698000D01*
D32*
X145309500Y-75692000D02*
X145309500Y-77287861D01*
X145288000Y-75692000D02*
X143764000Y-74168000D01*
X145309500Y-97790000D02*
X145309500Y-99292500D01*
X137906346Y-72775000D02*
X138029346Y-72898000D01*
X136200000Y-107386000D02*
X135636000Y-107950000D01*
%TO.N,+3V3*%
X143234500Y-97790000D02*
X143234500Y-99910500D01*
D31*
X140208000Y-123952000D02*
X175514000Y-123952000D01*
X136436500Y-114808000D02*
X139177000Y-114808000D01*
D32*
X143234500Y-66890500D02*
X143200000Y-66925000D01*
X136200000Y-77847000D02*
X133981000Y-77847000D01*
X143234500Y-96287500D02*
X143256000Y-96266000D01*
X143234500Y-75692000D02*
X142240000Y-75692000D01*
X196088000Y-107950000D02*
X196088000Y-123698000D01*
D31*
X139310000Y-114675000D02*
X139310000Y-123054000D01*
D32*
X135617000Y-87865000D02*
X135128000Y-87376000D01*
X136200000Y-66925000D02*
X143200000Y-66925000D01*
D31*
X133858000Y-66875500D02*
X133858210Y-66875290D01*
X139177000Y-114808000D02*
X139310000Y-114675000D01*
D32*
X143234500Y-97790000D02*
X143234500Y-96287500D01*
X143234500Y-64770000D02*
X143234500Y-66890500D01*
D31*
X139310000Y-123054000D02*
X140208000Y-123952000D01*
X133858000Y-99895500D02*
X133858210Y-99895290D01*
D32*
X133981000Y-77847000D02*
X133858000Y-77724000D01*
X136837500Y-87865000D02*
X135617000Y-87865000D01*
X177292000Y-124206000D02*
X176550000Y-123464000D01*
D31*
X134874000Y-113030000D02*
X134874000Y-113245500D01*
D32*
X196088000Y-123698000D02*
X195580000Y-124206000D01*
D31*
X176550000Y-122916000D02*
X176550000Y-122662000D01*
D32*
X202184000Y-107188000D02*
X196850000Y-107188000D01*
X176550000Y-123464000D02*
X176550000Y-122662000D01*
D31*
X133858210Y-99895290D02*
X135613052Y-99895290D01*
D32*
X143234500Y-99910500D02*
X143200000Y-99945000D01*
X196850000Y-107188000D02*
X196088000Y-107950000D01*
D31*
X175514000Y-123952000D02*
X176550000Y-122916000D01*
D32*
X143234500Y-75692000D02*
X143234500Y-77812500D01*
D31*
X134874000Y-113245500D02*
X136436500Y-114808000D01*
X133858210Y-66875290D02*
X135613052Y-66875290D01*
X176550000Y-122662000D02*
X176550000Y-120650000D01*
D32*
X195580000Y-124206000D02*
X177292000Y-124206000D01*
X143234500Y-77812500D02*
X143200000Y-77847000D01*
%TO.N,A10*%
X118248511Y-94372511D02*
X117099000Y-93223000D01*
X122439000Y-67575000D02*
X122428000Y-67564000D01*
X122289489Y-94372511D02*
X118248511Y-94372511D01*
X122428000Y-94234000D02*
X122289489Y-94372511D01*
X117099000Y-93223000D02*
X116327000Y-93223000D01*
X136200000Y-67575000D02*
X122439000Y-67575000D01*
%TO.N,A12*%
X123190000Y-83820000D02*
X120650000Y-83820000D01*
X123239500Y-68225000D02*
X123190000Y-68274500D01*
X136200000Y-68225000D02*
X123239500Y-68225000D01*
D33*
X114670990Y-88138000D02*
X115840501Y-86968489D01*
X115840501Y-86968489D02*
X117692489Y-86968489D01*
X106934000Y-88138000D02*
X114670990Y-88138000D01*
X117692489Y-86968489D02*
X118867000Y-88143000D01*
D32*
%TO.N,A13*%
X136200000Y-68875000D02*
X124073631Y-68875000D01*
D33*
X115723511Y-89508489D02*
X117692489Y-89508489D01*
X114554000Y-90678000D02*
X115723511Y-89508489D01*
D32*
X123947000Y-90683000D02*
X118867000Y-90683000D01*
D33*
X117692489Y-89508489D02*
X118867000Y-90683000D01*
X106934000Y-90678000D02*
X114554000Y-90678000D01*
D32*
X124073631Y-68875000D02*
X124024131Y-68924500D01*
X123952000Y-90678000D02*
X123947000Y-90683000D01*
%TO.N,A15*%
X124709000Y-98303000D02*
X118867000Y-98303000D01*
D33*
X117692489Y-97128489D02*
X118867000Y-98303000D01*
D32*
X124836897Y-69525000D02*
X124743885Y-69618012D01*
D33*
X115840501Y-97128489D02*
X117692489Y-97128489D01*
D32*
X124714000Y-98298000D02*
X124709000Y-98303000D01*
D33*
X106934000Y-98298000D02*
X114670990Y-98298000D01*
X114670990Y-98298000D02*
X115840501Y-97128489D01*
D32*
X136200000Y-69525000D02*
X124836897Y-69525000D01*
%TO.N,A11*%
X136200000Y-70175000D02*
X125594223Y-70175000D01*
X125594223Y-70175000D02*
X125513586Y-70255637D01*
X125476000Y-91440000D02*
X125083489Y-91832511D01*
X125083489Y-91832511D02*
X117476511Y-91832511D01*
X117476511Y-91832511D02*
X116327000Y-90683000D01*
D33*
%TO.N,A14*%
X117692489Y-94588489D02*
X118867000Y-95763000D01*
D32*
X126238000Y-95758000D02*
X126233000Y-95763000D01*
X126233000Y-95763000D02*
X118867000Y-95763000D01*
D33*
X115840501Y-94588489D02*
X117692489Y-94588489D01*
D32*
X126477880Y-70825000D02*
X126428380Y-70874500D01*
D33*
X106934000Y-95758000D02*
X114670990Y-95758000D01*
D32*
X136200000Y-70825000D02*
X126477880Y-70825000D01*
D33*
X114670990Y-95758000D02*
X115840501Y-94588489D01*
D32*
%TO.N,A8*%
X118506345Y-99568000D02*
X117241345Y-98303000D01*
X136200000Y-71475000D02*
X127238196Y-71475000D01*
X117241345Y-98303000D02*
X116327000Y-98303000D01*
X127000000Y-99568000D02*
X118506345Y-99568000D01*
X127238196Y-71475000D02*
X127181017Y-71532179D01*
D33*
%TO.N,PHANTOM*%
X106934000Y-80518000D02*
X114554000Y-80518000D01*
X115723511Y-79348489D02*
X117692489Y-79348489D01*
X114554000Y-80518000D02*
X115723511Y-79348489D01*
X117692489Y-79348489D02*
X118867000Y-80523000D01*
D32*
%TO.N,WR_N*%
X130791239Y-79797000D02*
X130591748Y-79597509D01*
X130591748Y-79597509D02*
X128797991Y-79597509D01*
X136200000Y-79797000D02*
X130791239Y-79797000D01*
X118192362Y-76708000D02*
X116927362Y-75443000D01*
X128797991Y-79597509D02*
X128524000Y-79871500D01*
X116927362Y-75443000D02*
X116327000Y-75443000D01*
X128524000Y-76708000D02*
X118192362Y-76708000D01*
D33*
%TO.N,PHOLD*%
X115723511Y-74268489D02*
X117692489Y-74268489D01*
X106934000Y-75438000D02*
X114554000Y-75438000D01*
X114554000Y-75438000D02*
X115723511Y-74268489D01*
X117692489Y-74268489D02*
X118867000Y-75443000D01*
%TO.N,RD_N*%
X130297000Y-72903000D02*
X130302000Y-72898000D01*
X106934000Y-72898000D02*
X114554000Y-72898000D01*
X115723511Y-71728489D02*
X117692489Y-71728489D01*
X117692489Y-71728489D02*
X118867000Y-72903000D01*
X114554000Y-72898000D02*
X115723511Y-71728489D01*
X130302000Y-80297020D02*
X130451980Y-80447000D01*
X118867000Y-72903000D02*
X130297000Y-72903000D01*
X130451980Y-80447000D02*
X136200000Y-80447000D01*
%TO.N,MREQ_N*%
X120866500Y-78994000D02*
X121019500Y-79147000D01*
X120861500Y-70363000D02*
X120866500Y-70358000D01*
X115723511Y-69188489D02*
X117692489Y-69188489D01*
X121019500Y-79147000D02*
X136200000Y-79147000D01*
X106934000Y-70358000D02*
X114554000Y-70358000D01*
X114554000Y-70358000D02*
X115723511Y-69188489D01*
X117692489Y-69188489D02*
X118867000Y-70363000D01*
X118867000Y-70363000D02*
X120861500Y-70363000D01*
D32*
%TO.N,A9*%
X127762000Y-97028000D02*
X118192362Y-97028000D01*
X116927362Y-95763000D02*
X116327000Y-95763000D01*
X136200000Y-72125000D02*
X128079550Y-72125000D01*
X128079550Y-72125000D02*
X128030050Y-72174500D01*
X118192362Y-97028000D02*
X116927362Y-95763000D01*
%TO.N,D4*%
X118248511Y-101992511D02*
X117099000Y-100843000D01*
X120650000Y-101854000D02*
X120511489Y-101992511D01*
X120511489Y-101992511D02*
X118248511Y-101992511D01*
X136837500Y-89165000D02*
X120661000Y-89165000D01*
X117099000Y-100843000D02*
X116327000Y-100843000D01*
X120661000Y-89165000D02*
X120650000Y-89154000D01*
D33*
%TO.N,M1_N*%
X106934000Y-67818000D02*
X114554000Y-67818000D01*
X120215367Y-81054944D02*
X120248791Y-81021520D01*
X120248791Y-81021520D02*
X136124520Y-81021520D01*
X114554000Y-67818000D02*
X115723511Y-66648489D01*
X117692489Y-66648489D02*
X118867000Y-67823000D01*
X120137000Y-67823000D02*
X120142000Y-67818000D01*
X136124520Y-81021520D02*
X136200000Y-81097000D01*
X118867000Y-67823000D02*
X120137000Y-67823000D01*
X115723511Y-66648489D02*
X117692489Y-66648489D01*
%TO.N,D7*%
X114670990Y-103378000D02*
X115840501Y-102208489D01*
D32*
X121412000Y-103378000D02*
X121407000Y-103383000D01*
X121531136Y-89815000D02*
X121481636Y-89864500D01*
D33*
X115840501Y-102208489D02*
X117692489Y-102208489D01*
X106934000Y-103378000D02*
X114670990Y-103378000D01*
X117692489Y-102208489D02*
X118867000Y-103383000D01*
D32*
X136837500Y-89815000D02*
X121531136Y-89815000D01*
X121407000Y-103383000D02*
X118867000Y-103383000D01*
%TO.N,INT_N*%
X133350000Y-98552000D02*
X133096000Y-98298000D01*
X133096000Y-98298000D02*
X133096000Y-96520000D01*
D33*
X123190000Y-94996000D02*
X132334000Y-94996000D01*
X106934000Y-85598000D02*
X114670990Y-85598000D01*
X114670990Y-85598000D02*
X115840501Y-84428489D01*
X115840501Y-84428489D02*
X117692489Y-84428489D01*
X123185000Y-85603000D02*
X123190000Y-85598000D01*
X132334000Y-94996000D02*
X133096000Y-95758000D01*
X133096000Y-95758000D02*
X133096000Y-96520000D01*
X118867000Y-85603000D02*
X123185000Y-85603000D01*
D32*
X137329846Y-98552000D02*
X133350000Y-98552000D01*
D33*
X117692489Y-84428489D02*
X118867000Y-85603000D01*
D32*
%TO.N,D1*%
X136837500Y-90465000D02*
X128511000Y-90465000D01*
X128385489Y-109612511D02*
X118248511Y-109612511D01*
X118248511Y-109612511D02*
X117099000Y-108463000D01*
X117099000Y-108463000D02*
X116327000Y-108463000D01*
X128511000Y-90465000D02*
X128461500Y-90514500D01*
X128524000Y-109474000D02*
X128385489Y-109612511D01*
D33*
%TO.N,RFSH*%
X117692489Y-64108489D02*
X118867000Y-65283000D01*
X106934000Y-65278000D02*
X114554000Y-65278000D01*
X115723511Y-64108489D02*
X117692489Y-64108489D01*
X114554000Y-65278000D02*
X115723511Y-64108489D01*
D32*
%TO.N,D6*%
X129147489Y-104532511D02*
X118390856Y-104532511D01*
X129286000Y-104394000D02*
X129147489Y-104532511D01*
X129357000Y-91115000D02*
X129286000Y-91186000D01*
X136837500Y-91115000D02*
X129357000Y-91115000D01*
X117241345Y-103383000D02*
X116327000Y-103383000D01*
X118390856Y-104532511D02*
X117241345Y-103383000D01*
%TO.N,A0*%
X117099000Y-113543000D02*
X116327000Y-113543000D01*
X136200000Y-100595000D02*
X122439000Y-100595000D01*
X122439000Y-100595000D02*
X122428000Y-100584000D01*
X122428000Y-114554000D02*
X122289489Y-114692511D01*
X118248511Y-114692511D02*
X117099000Y-113543000D01*
X122289489Y-114692511D02*
X118248511Y-114692511D01*
%TO.N,D3*%
X130048000Y-106680000D02*
X129655489Y-107072511D01*
X136837500Y-91765000D02*
X130114040Y-91765000D01*
X117476511Y-107072511D02*
X116327000Y-105923000D01*
X129655489Y-107072511D02*
X117476511Y-107072511D01*
X130114040Y-91765000D02*
X130057064Y-91821976D01*
%TO.N,A1*%
X123185000Y-116083000D02*
X118867000Y-116083000D01*
X123239500Y-101245000D02*
X123190000Y-101294500D01*
X136200000Y-101245000D02*
X123239500Y-101245000D01*
D33*
X117692489Y-114908489D02*
X118867000Y-116083000D01*
X114554000Y-116078000D02*
X115723511Y-114908489D01*
D32*
X123190000Y-116078000D02*
X123185000Y-116083000D01*
D33*
X115723511Y-114908489D02*
X117692489Y-114908489D01*
X106934000Y-116078000D02*
X114554000Y-116078000D01*
%TO.N,D5*%
X106934000Y-110998000D02*
X114670990Y-110998000D01*
X115840501Y-109828489D02*
X117692489Y-109828489D01*
X114670990Y-110998000D02*
X115840501Y-109828489D01*
D32*
X131113500Y-92415000D02*
X131064000Y-92464500D01*
X136837500Y-92415000D02*
X131113500Y-92415000D01*
D33*
X117692489Y-109828489D02*
X118867000Y-111003000D01*
D32*
X131064000Y-110998000D02*
X131059000Y-111003000D01*
X131059000Y-111003000D02*
X118867000Y-111003000D01*
%TO.N,D0*%
X136837500Y-93065000D02*
X131949415Y-93065000D01*
X131949415Y-93065000D02*
X131899915Y-93114500D01*
X131821000Y-105923000D02*
X118867000Y-105923000D01*
D33*
X115723511Y-104748489D02*
X117692489Y-104748489D01*
D32*
X131826000Y-105918000D02*
X131821000Y-105923000D01*
D33*
X114554000Y-105918000D02*
X115723511Y-104748489D01*
X106934000Y-105918000D02*
X114554000Y-105918000D01*
X117692489Y-104748489D02*
X118867000Y-105923000D01*
D32*
%TO.N,A4*%
X116927362Y-118623000D02*
X116327000Y-118623000D01*
X123952000Y-119634000D02*
X123813489Y-119772511D01*
X123813489Y-119772511D02*
X118076873Y-119772511D01*
X118076873Y-119772511D02*
X116927362Y-118623000D01*
X124001500Y-101895000D02*
X123952000Y-101944500D01*
X136200000Y-101895000D02*
X124001500Y-101895000D01*
%TO.N,D2*%
X136837500Y-93715000D02*
X132891500Y-93715000D01*
X117099000Y-111003000D02*
X116327000Y-111003000D01*
X132588000Y-112522000D02*
X132218511Y-112152511D01*
X132218511Y-112152511D02*
X118248511Y-112152511D01*
X118248511Y-112152511D02*
X117099000Y-111003000D01*
X132891500Y-93715000D02*
X132842000Y-93764500D01*
D33*
%TO.N,WAIT_N*%
X117692489Y-76808489D02*
X118867000Y-77983000D01*
D32*
X125984000Y-119380000D02*
X125222000Y-120142000D01*
X134620000Y-119380000D02*
X125984000Y-119380000D01*
D33*
X106934000Y-77978000D02*
X114670990Y-77978000D01*
X114670990Y-77978000D02*
X115840501Y-76808489D01*
X115840501Y-76808489D02*
X117692489Y-76808489D01*
D32*
%TO.N,A3*%
X124575489Y-117232511D02*
X118076873Y-117232511D01*
X124714000Y-117094000D02*
X124575489Y-117232511D01*
X136200000Y-102545000D02*
X124785000Y-102545000D01*
X118076873Y-117232511D02*
X116927362Y-116083000D01*
X124785000Y-102545000D02*
X124714000Y-102616000D01*
X116927362Y-116083000D02*
X116327000Y-116083000D01*
D33*
%TO.N,A5*%
X117692489Y-117448489D02*
X118867000Y-118623000D01*
D32*
X125471000Y-118623000D02*
X118867000Y-118623000D01*
D33*
X115723511Y-117448489D02*
X117692489Y-117448489D01*
D32*
X136200000Y-103195000D02*
X125595136Y-103195000D01*
X125595136Y-103195000D02*
X125545636Y-103244500D01*
D33*
X106934000Y-118618000D02*
X114554000Y-118618000D01*
D32*
X125476000Y-118618000D02*
X125471000Y-118623000D01*
D33*
X114554000Y-118618000D02*
X115723511Y-117448489D01*
D32*
%TO.N,A7*%
X136200000Y-103845000D02*
X133391000Y-103845000D01*
X126238000Y-121158000D02*
X126233000Y-121163000D01*
X132257989Y-107772011D02*
X126175500Y-107772011D01*
D33*
X117692489Y-119988489D02*
X118867000Y-121163000D01*
D32*
X132842000Y-107188000D02*
X132257989Y-107772011D01*
D33*
X115723511Y-119988489D02*
X117692489Y-119988489D01*
X114554000Y-121158000D02*
X115723511Y-119988489D01*
D32*
X133391000Y-103845000D02*
X132842000Y-104394000D01*
X126233000Y-121163000D02*
X118867000Y-121163000D01*
D33*
X106934000Y-121158000D02*
X114554000Y-121158000D01*
D32*
X132842000Y-104394000D02*
X132842000Y-107188000D01*
%TO.N,A6*%
X119343144Y-122312511D02*
X117476511Y-122312511D01*
X132320489Y-108471511D02*
X126972336Y-108471511D01*
X133503000Y-107289000D02*
X132320489Y-108471511D01*
X127000000Y-122174000D02*
X119481655Y-122174000D01*
X136200000Y-104495000D02*
X133503000Y-104495000D01*
X133503000Y-104495000D02*
X133503000Y-107289000D01*
X119481655Y-122174000D02*
X119343144Y-122312511D01*
X117476511Y-122312511D02*
X116327000Y-121163000D01*
D33*
%TO.N,5V*%
X115840501Y-99668489D02*
X117692489Y-99668489D01*
X117692489Y-99668489D02*
X118867000Y-100843000D01*
X106934000Y-100838000D02*
X114670990Y-100838000D01*
X114670990Y-100838000D02*
X115840501Y-99668489D01*
%TO.N,A2*%
X117692489Y-112368489D02*
X118867000Y-113543000D01*
D32*
X129540000Y-113538000D02*
X129535000Y-113543000D01*
X129535000Y-113543000D02*
X118867000Y-113543000D01*
X134112000Y-107442000D02*
X132080000Y-109474000D01*
X132080000Y-109474000D02*
X129540000Y-109474000D01*
D33*
X106934000Y-113538000D02*
X114554000Y-113538000D01*
D32*
X134112000Y-105410000D02*
X134112000Y-107442000D01*
D33*
X115723511Y-112368489D02*
X117692489Y-112368489D01*
D32*
X136200000Y-105145000D02*
X134377000Y-105145000D01*
D33*
X114554000Y-113538000D02*
X115723511Y-112368489D01*
D32*
X134377000Y-105145000D02*
X134366000Y-105156000D01*
X134366000Y-105156000D02*
X134112000Y-105410000D01*
%TO.N,+1V8*%
X136436500Y-108165500D02*
X136436500Y-110998000D01*
D31*
X137833500Y-112395000D02*
X136436500Y-110998000D01*
D32*
X138029346Y-106572654D02*
X136436500Y-108165500D01*
X138029346Y-86614000D02*
X138029346Y-106572654D01*
X142562500Y-87865000D02*
X142562500Y-86682500D01*
X142562500Y-87865000D02*
X142562500Y-88515000D01*
D31*
X139310000Y-112395000D02*
X137833500Y-112395000D01*
D32*
X142562500Y-86682500D02*
X142494000Y-86614000D01*
D31*
X145610000Y-112395000D02*
X139310000Y-112395000D01*
D32*
%TO.N,AA0_9*%
X199991000Y-77885000D02*
X205740000Y-77885000D01*
X143200000Y-72775000D02*
X148721000Y-72775000D01*
X141525480Y-100885481D02*
X141884999Y-101245000D01*
X148915440Y-72969440D02*
X148915440Y-89733440D01*
X148915440Y-89733440D02*
X149352000Y-90170000D01*
X198374000Y-89154000D02*
X198374000Y-79502000D01*
X143200000Y-72775000D02*
X141855000Y-72775000D01*
X198374000Y-79502000D02*
X199991000Y-77885000D01*
X149352000Y-90170000D02*
X153650000Y-90170000D01*
X141884999Y-101245000D02*
X143200000Y-101245000D01*
X148721000Y-72775000D02*
X148915440Y-72969440D01*
X141855000Y-72775000D02*
X141525480Y-73104520D01*
X141525480Y-73104520D02*
X141525480Y-100885481D01*
%TO.N,AA1_8*%
X149314960Y-86830960D02*
X150114000Y-87630000D01*
X149087000Y-72125000D02*
X149314960Y-72352960D01*
X143200000Y-72125000D02*
X141767320Y-72125000D01*
X197612000Y-86614000D02*
X197612000Y-73660000D01*
X150114000Y-87630000D02*
X153650000Y-87630000D01*
X197612000Y-73660000D02*
X198467000Y-72805000D01*
X143200000Y-72125000D02*
X149087000Y-72125000D01*
X149314960Y-72352960D02*
X149314960Y-86830960D01*
X141125961Y-72766359D02*
X141125961Y-101050968D01*
X141767320Y-72125000D02*
X141125961Y-72766359D01*
X141125961Y-101050968D02*
X141969993Y-101895000D01*
X198467000Y-72805000D02*
X205740000Y-72805000D01*
X141969993Y-101895000D02*
X143200000Y-101895000D01*
%TO.N,AA4_14*%
X149714480Y-71736480D02*
X149714480Y-84436480D01*
X149453000Y-71475000D02*
X149714480Y-71736480D01*
X150368000Y-85090000D02*
X153650000Y-85090000D01*
X141457319Y-71475000D02*
X140726442Y-72205877D01*
X141915001Y-102545000D02*
X143200000Y-102545000D01*
X143200000Y-71475000D02*
X149453000Y-71475000D01*
X140726442Y-72205877D02*
X140726442Y-101356441D01*
X143200000Y-71475000D02*
X141457319Y-71475000D01*
X140726442Y-101356441D02*
X141915001Y-102545000D01*
X149714480Y-84436480D02*
X150368000Y-85090000D01*
%TO.N,ESP_S0*%
X178562000Y-81534000D02*
X179671000Y-80425000D01*
X178562000Y-106934000D02*
X178562000Y-81534000D01*
X176550000Y-107950000D02*
X177546000Y-107950000D01*
X179671000Y-80425000D02*
X182880000Y-80425000D01*
X177546000Y-107950000D02*
X178562000Y-106934000D01*
%TO.N,ESP_S1*%
X178816000Y-110490000D02*
X179324000Y-109982000D01*
X180687000Y-82965000D02*
X182880000Y-82965000D01*
X179324000Y-109982000D02*
X179324000Y-84328000D01*
X176550000Y-110490000D02*
X178816000Y-110490000D01*
X179324000Y-84328000D02*
X180687000Y-82965000D01*
%TO.N,SCK*%
X195580000Y-66294000D02*
X195580000Y-90424000D01*
%TO.N,MOSI*%
X161290000Y-65786000D02*
X161290000Y-96074500D01*
X161290000Y-96074500D02*
X161098500Y-96266000D01*
X153650000Y-64770000D02*
X160274000Y-64770000D01*
X160274000Y-64770000D02*
X161290000Y-65786000D01*
%TO.N,AA3_11*%
X140326923Y-102226923D02*
X141295000Y-103195000D01*
X141295000Y-103195000D02*
X143200000Y-103195000D01*
X141147319Y-70825000D02*
X140326923Y-71645396D01*
X140326923Y-71645396D02*
X140326923Y-102226923D01*
X150114000Y-71120000D02*
X150114000Y-81534000D01*
X143200000Y-70825000D02*
X141147319Y-70825000D01*
X150114000Y-81534000D02*
X151130000Y-82550000D01*
X143200000Y-70825000D02*
X149819000Y-70825000D01*
X149819000Y-70825000D02*
X150114000Y-71120000D01*
X151130000Y-82550000D02*
X153650000Y-82550000D01*
%TO.N,AA5_15*%
X140645000Y-70175000D02*
X139927404Y-70892596D01*
X151130000Y-80010000D02*
X153650000Y-80010000D01*
X143200000Y-70175000D02*
X140645000Y-70175000D01*
X150185000Y-70175000D02*
X150693440Y-70683440D01*
X150693440Y-70683440D02*
X150693440Y-79573440D01*
X143200000Y-70175000D02*
X150185000Y-70175000D01*
X139927404Y-103097404D02*
X140675000Y-103845000D01*
X140675000Y-103845000D02*
X143200000Y-103845000D01*
X139927404Y-70892596D02*
X139927404Y-103097404D01*
X150693440Y-79573440D02*
X151130000Y-80010000D01*
%TO.N,AA7_13*%
X140055000Y-104495000D02*
X143200000Y-104495000D01*
X151638000Y-77470000D02*
X153650000Y-77470000D01*
X143200000Y-69525000D02*
X150551000Y-69525000D01*
X143200000Y-69525000D02*
X140025000Y-69525000D01*
X151092960Y-70066960D02*
X151092960Y-76924960D01*
X139527884Y-103967884D02*
X140055000Y-104495000D01*
X150551000Y-69525000D02*
X151092960Y-70066960D01*
X151092960Y-76924960D02*
X151638000Y-77470000D01*
X139527884Y-70022116D02*
X139527884Y-103967884D01*
X140025000Y-69525000D02*
X139527884Y-70022116D01*
%TO.N,AA6_12*%
X139128365Y-69716641D02*
X139128365Y-104838365D01*
X152146000Y-74930000D02*
X153650000Y-74930000D01*
X139128365Y-104838365D02*
X139535480Y-105245480D01*
X151492480Y-69196480D02*
X151492480Y-74276480D01*
X139535480Y-105245480D02*
X143510000Y-105245480D01*
X151171000Y-68875000D02*
X151492480Y-69196480D01*
X139970006Y-68875000D02*
X139128365Y-69716641D01*
X143200000Y-68875000D02*
X151171000Y-68875000D01*
X151492480Y-74276480D02*
X152146000Y-74930000D01*
X143200000Y-68875000D02*
X139970006Y-68875000D01*
%TO.N,AA2_10*%
X139519994Y-105795000D02*
X143200000Y-105795000D01*
X152908000Y-72390000D02*
X153650000Y-72390000D01*
X151283000Y-68225000D02*
X151892000Y-68834000D01*
X143200000Y-68225000D02*
X151283000Y-68225000D01*
X138728846Y-105003852D02*
X139519994Y-105795000D01*
X139420000Y-68225000D02*
X138728846Y-68916154D01*
X151892000Y-68834000D02*
X151892000Y-71374000D01*
X143200000Y-68225000D02*
X139420000Y-68225000D01*
X138728846Y-68916154D02*
X138728846Y-105003852D01*
X151892000Y-71374000D02*
X152908000Y-72390000D01*
%TO.N,READ_N*%
X136837500Y-88515000D02*
X135251000Y-88515000D01*
X135251000Y-88515000D02*
X135128000Y-88392000D01*
%TO.N,MISO*%
X160528000Y-70866000D02*
X160398989Y-70995011D01*
X160398989Y-103502989D02*
X160528000Y-103632000D01*
X153650000Y-69850000D02*
X159512000Y-69850000D01*
X160398989Y-70995011D02*
X160398989Y-103502989D01*
X159512000Y-69850000D02*
X160528000Y-70866000D01*
D33*
%TO.N,DD3*%
X145530399Y-92672500D02*
X145530420Y-92672479D01*
X144225886Y-92672500D02*
X145530399Y-92672500D01*
X143968386Y-92415000D02*
X144225886Y-92672500D01*
X142562500Y-92415000D02*
X143968386Y-92415000D01*
%TO.N,DD4*%
X143722503Y-89815000D02*
X143772003Y-89864500D01*
X142562500Y-89815000D02*
X143722503Y-89815000D01*
%TO.N,DD5*%
X142619520Y-93122020D02*
X144137104Y-93122020D01*
X144137104Y-93122020D02*
X144412084Y-93397000D01*
X142562500Y-93065000D02*
X142619520Y-93122020D01*
%TO.N,DD6*%
X142562500Y-91765000D02*
X144343000Y-91765000D01*
X144343000Y-91765000D02*
X144526000Y-91948000D01*
%TO.N,DD7*%
X142562500Y-90465000D02*
X142686511Y-90589011D01*
X142686511Y-90589011D02*
X144445757Y-90589011D01*
X144445757Y-90589011D02*
X144574660Y-90460108D01*
%TO.N,DD2*%
X142562500Y-94365000D02*
X143719752Y-94365000D01*
X143719752Y-94365000D02*
X144200752Y-94846000D01*
X144200752Y-94846000D02*
X144354955Y-94846000D01*
%TO.N,DD0*%
X144111970Y-94121500D02*
X145285880Y-94121500D01*
X143705470Y-93715000D02*
X144111970Y-94121500D01*
X142562500Y-93715000D02*
X143705470Y-93715000D01*
%TO.N,DD1*%
X145263553Y-91184619D02*
X145272704Y-91175468D01*
X142562500Y-91115000D02*
X142632119Y-91184619D01*
X142632119Y-91184619D02*
X145263553Y-91184619D01*
D32*
%TO.N,A1_MUX*%
X147320000Y-66802000D02*
X147574000Y-66548000D01*
X146547000Y-67575000D02*
X147320000Y-66802000D01*
X143200000Y-67575000D02*
X146547000Y-67575000D01*
X147574000Y-66548000D02*
X147574000Y-63754000D01*
%TO.N,A0_MUX*%
X153650000Y-110216000D02*
X153650000Y-110490000D01*
X143200000Y-100595000D02*
X145553000Y-100595000D01*
X145830400Y-100872400D02*
X145830400Y-107730400D01*
X145830400Y-107730400D02*
X146558000Y-108458000D01*
X145553000Y-100595000D02*
X145830400Y-100872400D01*
X146558000Y-108458000D02*
X151892000Y-108458000D01*
X151892000Y-108458000D02*
X153650000Y-110216000D01*
%TO.N,DBUS_SEL_N*%
X145807000Y-89165000D02*
X146229920Y-89587920D01*
X146229920Y-89587920D02*
X146229920Y-107367920D01*
X146812000Y-107950000D02*
X153650000Y-107950000D01*
X142562500Y-89165000D02*
X145807000Y-89165000D01*
X146229920Y-107367920D02*
X146812000Y-107950000D01*
%TO.N,BUTTON*%
X199494000Y-119452000D02*
X205994000Y-119452000D01*
X204640489Y-118098489D02*
X204640489Y-101844511D01*
X205994000Y-119452000D02*
X204640489Y-118098489D01*
X204640489Y-101844511D02*
X205740000Y-100745000D01*
%TO.N,LED_GREEN*%
X191931000Y-77885000D02*
X182880000Y-77885000D01*
X192786000Y-99568000D02*
X192786000Y-78740000D01*
X192786000Y-78740000D02*
X191931000Y-77885000D01*
%TO.N,LED_BLUE*%
X189484000Y-99568000D02*
X190583511Y-100667511D01*
X198721000Y-93125000D02*
X205740000Y-93125000D01*
X197274489Y-100667511D02*
X197866000Y-100076000D01*
X190583511Y-100667511D02*
X197274489Y-100667511D01*
X197866000Y-100076000D02*
X197866000Y-93980000D01*
X197866000Y-93980000D02*
X198721000Y-93125000D01*
%TO.N,LED_RED*%
X186182000Y-86360000D02*
X185327000Y-85505000D01*
X186182000Y-99568000D02*
X186182000Y-86360000D01*
X185327000Y-85505000D02*
X182880000Y-85505000D01*
%TO.N,Net-(D1-Pad4)*%
X192024000Y-108712000D02*
X192786000Y-107950000D01*
X190124000Y-109342000D02*
X190754000Y-108712000D01*
X190754000Y-108712000D02*
X192024000Y-108712000D01*
X190124000Y-121920000D02*
X190124000Y-109342000D01*
X192786000Y-107950000D02*
X192786000Y-107188000D01*
%TO.N,Net-(D1-Pad3)*%
X188854000Y-121920000D02*
X188854000Y-107818000D01*
X188854000Y-107818000D02*
X189484000Y-107188000D01*
%TO.N,Net-(D1-Pad1)*%
X186314000Y-121920000D02*
X186314000Y-107320000D01*
X186314000Y-107320000D02*
X186182000Y-107188000D01*
%TO.N,CS_SD_CARD*%
X161798000Y-63246000D02*
X161798000Y-106426000D01*
X153650000Y-62230000D02*
X160782000Y-62230000D01*
X161544000Y-62992000D02*
X161798000Y-63246000D01*
X160782000Y-62230000D02*
X161544000Y-62992000D01*
%TO.N,ESP_S2*%
X176550000Y-113030000D02*
X179324000Y-113030000D01*
X180086000Y-89408000D02*
X181449000Y-88045000D01*
X181449000Y-88045000D02*
X182880000Y-88045000D01*
X179324000Y-113030000D02*
X180086000Y-112268000D01*
X180086000Y-112268000D02*
X180086000Y-89408000D01*
%TO.N,REQ*%
X174244000Y-88392000D02*
X175006000Y-87630000D01*
X174244000Y-96965500D02*
X174244000Y-88392000D01*
X175006000Y-87630000D02*
X176550000Y-87630000D01*
%TO.N,Z80_WR_N*%
X143200000Y-80447000D02*
X147249000Y-80447000D01*
X147828000Y-97790000D02*
X153650000Y-97790000D01*
X147249000Y-80447000D02*
X147428480Y-80626480D01*
X147428480Y-97390480D02*
X147828000Y-97790000D01*
X147428480Y-80626480D02*
X147428480Y-97390480D01*
%TO.N,Z80_RD_N*%
X146883000Y-81097000D02*
X147028960Y-81242960D01*
X147028960Y-99784960D02*
X147574000Y-100330000D01*
X147574000Y-100330000D02*
X153650000Y-100330000D01*
X143200000Y-81097000D02*
X146883000Y-81097000D01*
X147028960Y-81242960D02*
X147028960Y-99784960D01*
%TO.N,IORQ_N*%
X119343144Y-79132511D02*
X118076873Y-79132511D01*
X121093759Y-78232000D02*
X120243655Y-78232000D01*
X116927362Y-77983000D02*
X116327000Y-77983000D01*
X136200000Y-78497000D02*
X121358759Y-78497000D01*
X121358759Y-78497000D02*
X121093759Y-78232000D01*
X118076873Y-79132511D02*
X116927362Y-77983000D01*
X120243655Y-78232000D02*
X119343144Y-79132511D01*
%TO.N,Z80_M1_N*%
X146517000Y-81747000D02*
X146629440Y-81859440D01*
X146629440Y-102433440D02*
X147066000Y-102870000D01*
X147066000Y-102870000D02*
X153650000Y-102870000D01*
X143200000Y-81747000D02*
X146517000Y-81747000D01*
X146629440Y-81859440D02*
X146629440Y-102433440D01*
%TO.N,Z80_MREQ_N*%
X143200000Y-79797000D02*
X147533000Y-79797000D01*
X147828000Y-94488000D02*
X148590000Y-95250000D01*
X147828000Y-80010000D02*
X147828000Y-94488000D01*
X147533000Y-79797000D02*
X147574000Y-79756000D01*
X147574000Y-79756000D02*
X147828000Y-80010000D01*
X148590000Y-95250000D02*
X153650000Y-95250000D01*
%TO.N,Z80_IOREQ_N*%
X148336000Y-91948000D02*
X149098000Y-92710000D01*
X148336000Y-79248000D02*
X148336000Y-91948000D01*
X143200000Y-79147000D02*
X148235000Y-79147000D01*
X148235000Y-79147000D02*
X148336000Y-79248000D01*
X149098000Y-92710000D02*
X153650000Y-92710000D01*
%TD*%
M02*
