M48
; DRILL file {KiCad (6.0.7)} date Wed Aug 24 05:09:04 2022
; FORMAT={-:-/ absolute / inch / decimal}
; #@! TF.CreationDate,2022-08-24T05:09:04-07:00
; #@! TF.GenerationSoftware,Kicad,Pcbnew,(6.0.7)
; #@! TF.FileFunction,Plated,1,2,PTH
FMAT,2
INCH
; #@! TA.AperFunction,Plated,PTH,ViaDrill
T1C0.0157
; #@! TA.AperFunction,Plated,PTH,ComponentDrill
T2C0.0197
; #@! TA.AperFunction,Plated,PTH,ComponentDrill
T3C0.0295
; #@! TA.AperFunction,Plated,PTH,ComponentDrill
T4C0.0315
; #@! TA.AperFunction,Plated,PTH,ComponentDrill
T5C0.0354
; #@! TA.AperFunction,Plated,PTH,ComponentDrill
T6C0.0394
; #@! TA.AperFunction,Plated,PTH,ComponentDrill
T7C0.0433
; #@! TA.AperFunction,Plated,PTH,ComponentDrill
T8C0.1181
%
G90
G05
T1
X4.73Y-2.67
X4.7329Y-3.1911
X4.75Y-3.3
X4.75Y-3.51
X4.75Y-4.01
X4.7585Y-2.77
X4.7585Y-3.11
X4.78Y-4.07
X4.7827Y-3.538
X4.82Y-2.66
X4.82Y-3.71
X4.82Y-3.96
X4.82Y-4.51
X4.85Y-2.688
X4.85Y-3.3
X4.85Y-3.37
X4.85Y-3.74
X4.85Y-3.988
X4.85Y-4.57
X4.88Y-3.57
X4.88Y-4.0136
X4.88Y-4.71
X4.8828Y-2.7136
X4.91Y-3.87
X4.91Y-4.04
X4.91Y-4.61
X4.9112Y-2.7409
X4.93Y-4.73
X4.94Y-3.6
X4.94Y-4.67
X4.9415Y-2.766
X4.9427Y-4.0647
X4.9675Y-4.243
X4.97Y-3.77
X4.97Y-4.77
X4.9775Y-2.7903
X4.9989Y-4.2705
X5.0Y-3.92
X5.0Y-4.81
X5.0071Y-2.8162
X5.03Y-3.82
X5.0406Y-2.8415
X5.0575Y-3.5636
X5.06Y-3.02
X5.06Y-3.1445
X5.06Y-4.31
X5.09Y-3.59
X5.09Y-4.11
X5.09Y-4.52
X5.1Y-4.31
X5.1Y-4.47
X5.12Y-4.2
X5.1204Y-3.615
X5.13Y-2.87
X5.13Y-3.1613
X5.16Y-3.6403
X5.16Y-4.37
X5.19Y-4.17
X5.1929Y-3.6659
X5.22Y-4.43
X5.23Y-3.6915
X5.27Y-2.6329
X5.27Y-3.06
X5.27Y-3.9329
X5.31Y-4.45
X5.32Y-3.44
X5.32Y-3.48
X5.34Y-3.85
X5.34Y-4.25
X5.4067Y-3.88
X5.4342Y-2.87
X5.4342Y-3.41
X5.48Y-4.27
X5.6Y-2.98
X5.61Y-3.41
X5.64Y-3.79
X5.66Y-2.92
X5.6603Y-3.538
X5.6833Y-3.7341
X5.6855Y-3.677
X5.69Y-3.62
X5.6919Y-3.5614
X5.7194Y-3.5896
X5.7199Y-3.7056
X5.72Y-3.91
X5.7295Y-3.6485
X5.73Y-2.48
X5.81Y-2.51
X6.32Y-4.08
X6.3425Y-3.79
X6.37Y-4.19
X6.86Y-3.8175
X7.7Y-2.61
X7.7Y-3.56
X7.78Y-3.41
X7.81Y-3.51
X8.26Y-4.49
T2
X4.8214Y-2.4
X4.8214Y-4.94
X4.8474Y-2.3374
X4.8474Y-2.4626
X4.8474Y-4.8774
X4.8474Y-5.0026
X4.91Y-2.3114
X4.91Y-2.4886
X4.91Y-4.8514
X4.91Y-5.0286
X4.9726Y-2.3374
X4.9726Y-2.4626
X4.9726Y-4.8774
X4.9726Y-5.0026
X4.9986Y-2.4
X4.9986Y-4.94
X8.4214Y-2.4
X8.4214Y-4.94
X8.4474Y-2.3374
X8.4474Y-2.4626
X8.4474Y-4.8774
X8.4474Y-5.0026
X8.51Y-2.3114
X8.51Y-2.4886
X8.51Y-4.8514
X8.51Y-5.0286
X8.5726Y-2.3374
X8.5726Y-2.4626
X8.5726Y-4.8774
X8.5726Y-5.0026
X8.5986Y-2.4
X8.5986Y-4.94
T3
X5.3Y-4.7
X5.35Y-4.7
X5.4Y-4.7
X5.56Y-4.7
X5.61Y-4.7
X5.66Y-4.7
T4
X6.0492Y-2.45
X6.0492Y-2.55
X6.0492Y-2.65
X6.0492Y-2.75
X6.0492Y-2.85
X6.0492Y-2.95
X6.0492Y-3.05
X6.0492Y-3.15
X6.0492Y-3.25
X6.0492Y-3.35
X6.0492Y-3.45
X6.0492Y-3.55
X6.0492Y-3.65
X6.0492Y-3.75
X6.0492Y-3.85
X6.0492Y-3.95
X6.0492Y-4.05
X6.0492Y-4.15
X6.0492Y-4.25
X6.0492Y-4.35
X6.0492Y-4.45
X6.0492Y-4.55
X6.0492Y-4.65
X6.0492Y-4.75
X6.9508Y-2.45
X6.9508Y-2.55
X6.9508Y-2.65
X6.9508Y-2.75
X6.9508Y-2.85
X6.9508Y-2.95
X6.9508Y-3.05
X6.9508Y-3.15
X6.9508Y-3.25
X6.9508Y-3.35
X6.9508Y-3.45
X6.9508Y-3.55
X6.9508Y-3.65
X6.9508Y-3.75
X6.9508Y-3.85
X6.9508Y-3.95
X6.9508Y-4.05
X6.9508Y-4.15
X6.9508Y-4.25
X6.9508Y-4.35
X6.9508Y-4.45
X6.9508Y-4.55
X6.9508Y-4.65
X6.9508Y-4.75
X7.2Y-2.4663
X7.2Y-2.5663
X7.2Y-2.6663
X7.2Y-2.7663
X7.2Y-2.8663
X7.2Y-2.9663
X7.2Y-3.0663
X7.2Y-3.1663
X7.2Y-3.2663
X7.2Y-3.3663
X7.2Y-3.4663
X7.2Y-3.5663
X7.2Y-3.6663
X7.2Y-3.7663
X7.2Y-3.8663
X7.2Y-3.9663
X7.2Y-4.0663
X7.2Y-4.1663
X7.2Y-4.2663
X7.33Y-3.92
X7.33Y-4.22
X7.46Y-3.92
X7.46Y-4.22
X7.59Y-3.92
X7.59Y-4.22
X7.96Y-3.92
X7.96Y-4.22
X8.1Y-2.4688
X8.1Y-2.5663
X8.1Y-2.6663
X8.1Y-2.7663
X8.1Y-2.8663
X8.1Y-2.9663
X8.1Y-3.0663
X8.1Y-3.1663
X8.1Y-3.2663
X8.1Y-3.3663
X8.1Y-3.4663
X8.1Y-3.5663
X8.1Y-3.6663
X8.1Y-3.7663
X8.1Y-3.8663
X8.1Y-3.9663
X8.1Y-4.0663
X8.1Y-4.1663
X8.1Y-4.2663
T5
X7.3352Y-4.8
X7.3852Y-4.8
X7.4352Y-4.8
X7.4852Y-4.8
T6
X4.5798Y-2.4702
X4.5798Y-2.5702
X4.5798Y-2.6702
X4.5798Y-2.7702
X4.5798Y-2.8702
X4.5798Y-2.9702
X4.5798Y-3.0702
X4.5798Y-3.1702
X4.5798Y-3.2702
X4.5798Y-3.3702
X4.5798Y-3.4702
X4.5798Y-3.5702
X4.5798Y-3.6702
X4.5798Y-3.7702
X4.5798Y-3.8702
X4.5798Y-3.9702
X4.5798Y-4.0702
X4.5798Y-4.1702
X4.5798Y-4.2702
X4.5798Y-4.3702
X4.5798Y-4.4702
X4.5798Y-4.5702
X4.5798Y-4.6702
X4.5798Y-4.7702
X4.5798Y-4.8702
X4.6798Y-2.4702
X4.6798Y-2.5702
X4.6798Y-2.6702
X4.6798Y-2.7702
X4.6798Y-2.8702
X4.6798Y-2.9702
X4.6798Y-3.0702
X4.6798Y-3.1702
X4.6798Y-3.2702
X4.6798Y-3.3702
X4.6798Y-3.4702
X4.6798Y-3.5702
X4.6798Y-3.6702
X4.6798Y-3.7702
X4.6798Y-3.8702
X4.6798Y-3.9702
X4.6798Y-4.0702
X4.6798Y-4.1702
X4.6798Y-4.2702
X4.6798Y-4.3702
X4.6798Y-4.4702
X4.6798Y-4.5702
X4.6798Y-4.6702
X4.6798Y-4.7702
X4.6798Y-4.8702
X8.2Y-2.4677
X8.2Y-2.5677
X8.2Y-2.6677
X8.2Y-2.7677
X8.2Y-2.8677
X8.2Y-2.9677
X8.2Y-3.0677
X8.2Y-3.1677
X8.2Y-3.2677
X8.2Y-3.3677
X8.2Y-3.4677
X8.2Y-3.5677
X8.2Y-3.6677
X8.2Y-3.7677
X8.2Y-3.8677
X8.2Y-3.9677
X8.2Y-4.0677
X8.2Y-4.1677
X8.2Y-4.2677
X8.3798Y-3.31
X8.38Y-2.8
X8.38Y-3.05
X8.4798Y-3.31
X8.48Y-2.8
X8.48Y-3.05
T7
X7.8541Y-4.7028
X7.8541Y-4.88
X8.11Y-4.7028
X8.11Y-4.88
T8
X4.91Y-2.4
X4.91Y-4.94
X8.51Y-2.4
X8.51Y-4.94
T0
M30
