%TF.GenerationSoftware,KiCad,Pcbnew,(6.0.11)*%
%TF.CreationDate,2023-04-29T22:06:13-07:00*%
%TF.ProjectId,TRS-IO-M3,5452532d-494f-42d4-9d33-2e6b69636164,rev?*%
%TF.SameCoordinates,Original*%
%TF.FileFunction,Soldermask,Bot*%
%TF.FilePolarity,Negative*%
%FSLAX46Y46*%
G04 Gerber Fmt 4.6, Leading zero omitted, Abs format (unit mm)*
G04 Created by KiCad (PCBNEW (6.0.11)) date 2023-04-29 22:06:13*
%MOMM*%
%LPD*%
G01*
G04 APERTURE LIST*
G04 Aperture macros list*
%AMRoundRect*
0 Rectangle with rounded corners*
0 $1 Rounding radius*
0 $2 $3 $4 $5 $6 $7 $8 $9 X,Y pos of 4 corners*
0 Add a 4 corners polygon primitive as box body*
4,1,4,$2,$3,$4,$5,$6,$7,$8,$9,$2,$3,0*
0 Add four circle primitives for the rounded corners*
1,1,$1+$1,$2,$3*
1,1,$1+$1,$4,$5*
1,1,$1+$1,$6,$7*
1,1,$1+$1,$8,$9*
0 Add four rect primitives between the rounded corners*
20,1,$1+$1,$2,$3,$4,$5,0*
20,1,$1+$1,$4,$5,$6,$7,0*
20,1,$1+$1,$6,$7,$8,$9,0*
20,1,$1+$1,$8,$9,$2,$3,0*%
%AMHorizOval*
0 Thick line with rounded ends*
0 $1 width*
0 $2 $3 position (X,Y) of the first rounded end (center of the circle)*
0 $4 $5 position (X,Y) of the second rounded end (center of the circle)*
0 Add line between two ends*
20,1,$1,$2,$3,$4,$5,0*
0 Add two circle primitives to create the rounded ends*
1,1,$1,$2,$3*
1,1,$1,$4,$5*%
G04 Aperture macros list end*
%ADD10C,6.102000*%
%ADD11C,0.902000*%
%ADD12RoundRect,0.051000X0.850000X-0.850000X0.850000X0.850000X-0.850000X0.850000X-0.850000X-0.850000X0*%
%ADD13O,1.802000X1.802000*%
%ADD14O,2.102000X1.302000*%
%ADD15HorizOval,2.502000X-0.212132X-0.212132X0.212132X0.212132X0*%
%ADD16RoundRect,0.051000X-0.850000X-0.850000X0.850000X-0.850000X0.850000X0.850000X-0.850000X0.850000X0*%
%ADD17RoundRect,0.051000X-0.800000X-0.800000X0.800000X-0.800000X0.800000X0.800000X-0.800000X0.800000X0*%
%ADD18O,1.702000X1.702000*%
%ADD19RoundRect,0.051000X3.810000X-0.889000X3.810000X0.889000X-3.810000X0.889000X-3.810000X-0.889000X0*%
%ADD20RoundRect,0.051000X-0.535000X-0.900000X0.535000X-0.900000X0.535000X0.900000X-0.535000X0.900000X0*%
%ADD21O,1.172000X1.902000*%
%ADD22C,2.102000*%
%ADD23RoundRect,0.051000X0.850000X0.850000X-0.850000X0.850000X-0.850000X-0.850000X0.850000X-0.850000X0*%
G04 APERTURE END LIST*
D10*
%TO.C,H1*%
X124714000Y-60960000D03*
D11*
X126304990Y-62550990D03*
X123123010Y-59369010D03*
X126964000Y-60960000D03*
X124714000Y-58710000D03*
X122464000Y-60960000D03*
X124714000Y-63210000D03*
X126304990Y-59369010D03*
X123123010Y-62550990D03*
%TD*%
%TO.C,H2*%
X233540990Y-62550990D03*
X234200000Y-60960000D03*
D10*
X231950000Y-60960000D03*
D11*
X229700000Y-60960000D03*
X230359010Y-62550990D03*
X230359010Y-59369010D03*
X233540990Y-59369010D03*
X231950000Y-63210000D03*
X231950000Y-58710000D03*
%TD*%
%TO.C,H3*%
X126964000Y-125476000D03*
X124714000Y-127726000D03*
X126304990Y-123885010D03*
X123123010Y-127066990D03*
D10*
X124714000Y-125476000D03*
D11*
X122464000Y-125476000D03*
X124714000Y-123226000D03*
X126304990Y-127066990D03*
X123123010Y-123885010D03*
%TD*%
%TO.C,H4*%
X233540990Y-123885010D03*
X229700000Y-125476000D03*
X233540990Y-127066990D03*
X231950000Y-127726000D03*
X230359010Y-123885010D03*
X234200000Y-125476000D03*
X231950000Y-123226000D03*
X230359010Y-127066990D03*
D10*
X231950000Y-125476000D03*
%TD*%
D12*
%TO.C,J5*%
X133600000Y-66675000D03*
D13*
X136140000Y-66675000D03*
X138680000Y-66675000D03*
X141220000Y-66675000D03*
X143760000Y-66675000D03*
X146300000Y-66675000D03*
%TD*%
D14*
%TO.C,U5*%
X175520000Y-58985000D03*
X175520000Y-61525000D03*
X175520000Y-64065000D03*
X175520000Y-66605000D03*
X175520000Y-69145000D03*
X175520000Y-71685000D03*
X175520000Y-74225000D03*
X175520000Y-76765000D03*
X175520000Y-79305000D03*
X175520000Y-81845000D03*
X175520000Y-84385000D03*
X175520000Y-86925000D03*
X175520000Y-89465000D03*
X175520000Y-92005000D03*
X175520000Y-94545000D03*
X175520000Y-97085000D03*
X175520000Y-99625000D03*
X175520000Y-102165000D03*
X175520000Y-104705000D03*
X175520000Y-107245000D03*
X175520000Y-109785000D03*
X175520000Y-112325000D03*
X175520000Y-114865000D03*
X175520000Y-117405000D03*
X198420000Y-117405000D03*
X198420000Y-114865000D03*
X198420000Y-112325000D03*
X198420000Y-109785000D03*
X198420000Y-107245000D03*
X198420000Y-104705000D03*
X198420000Y-102165000D03*
X198420000Y-99625000D03*
X198420000Y-97085000D03*
X198420000Y-94545000D03*
X198420000Y-92005000D03*
X198420000Y-89465000D03*
X198420000Y-86925000D03*
X198420000Y-84385000D03*
X198420000Y-81845000D03*
X198420000Y-79305000D03*
X198420000Y-76765000D03*
X198420000Y-74225000D03*
X198420000Y-71685000D03*
X198420000Y-69145000D03*
X198420000Y-66605000D03*
X198420000Y-64065000D03*
X198420000Y-61525000D03*
X198420000Y-58985000D03*
%TD*%
D15*
%TO.C,J7*%
X162084000Y-120878000D03*
X164084000Y-122678000D03*
X164084000Y-128778000D03*
X162084000Y-126378000D03*
X164084000Y-117178000D03*
%TD*%
D16*
%TO.C,J4*%
X171300000Y-60475000D03*
D13*
X171300000Y-63015000D03*
%TD*%
D17*
%TO.C,U6*%
X204750000Y-68400000D03*
D18*
X204750000Y-70940000D03*
X204750000Y-73480000D03*
X204750000Y-76020000D03*
X204750000Y-78560000D03*
X204750000Y-81100000D03*
X204750000Y-83640000D03*
X204750000Y-86180000D03*
X204750000Y-88720000D03*
X204750000Y-91260000D03*
X204750000Y-93800000D03*
X204750000Y-96340000D03*
X204750000Y-98880000D03*
X204750000Y-101420000D03*
X204750000Y-103960000D03*
X204750000Y-106500000D03*
X204750000Y-109040000D03*
X204750000Y-111580000D03*
X204750000Y-114120000D03*
X227610000Y-114120000D03*
X227610000Y-111580000D03*
X227610000Y-109040000D03*
X227610000Y-106500000D03*
X227610000Y-103960000D03*
X227610000Y-101420000D03*
X227610000Y-98880000D03*
X227610000Y-96340000D03*
X227610000Y-93800000D03*
X227610000Y-91260000D03*
X227610000Y-88720000D03*
X227610000Y-86180000D03*
X227610000Y-83640000D03*
X227610000Y-81100000D03*
X227610000Y-78560000D03*
X227610000Y-76020000D03*
X227610000Y-73480000D03*
X227610000Y-70940000D03*
X227610000Y-68463500D03*
%TD*%
D19*
%TO.C,J1*%
X106934000Y-123698000D03*
X106934000Y-121158000D03*
X106934000Y-118618000D03*
X106934000Y-116078000D03*
X106934000Y-113538000D03*
X106934000Y-110998000D03*
X106934000Y-108458000D03*
X106934000Y-105918000D03*
X106934000Y-103378000D03*
X106934000Y-100838000D03*
X106934000Y-98298000D03*
X106934000Y-95758000D03*
X106934000Y-93218000D03*
X106934000Y-90678000D03*
X106934000Y-88138000D03*
X106934000Y-85598000D03*
X106934000Y-83058000D03*
X106934000Y-80518000D03*
X106934000Y-77978000D03*
X106934000Y-75438000D03*
X106934000Y-72898000D03*
X106934000Y-70358000D03*
X106934000Y-67818000D03*
X106934000Y-65278000D03*
X106934000Y-62738000D03*
%TD*%
D12*
%TO.C,J6*%
X152800000Y-66675000D03*
D13*
X155340000Y-66675000D03*
X157880000Y-66675000D03*
X160420000Y-66675000D03*
X162960000Y-66675000D03*
X165500000Y-66675000D03*
%TD*%
D20*
%TO.C,D1*%
X147045600Y-123444000D03*
D21*
X148315600Y-123444000D03*
X149585600Y-123444000D03*
X150855600Y-123444000D03*
%TD*%
D13*
%TO.C,J2*%
X118867000Y-123703000D03*
X116327000Y-123703000D03*
X118867000Y-121163000D03*
X116327000Y-121163000D03*
X118867000Y-118623000D03*
X116327000Y-118623000D03*
X118867000Y-116083000D03*
X116327000Y-116083000D03*
X118867000Y-113543000D03*
X116327000Y-113543000D03*
X118867000Y-111003000D03*
X116327000Y-111003000D03*
X118867000Y-108463000D03*
X116327000Y-108463000D03*
X118867000Y-105923000D03*
X116327000Y-105923000D03*
X118867000Y-103383000D03*
X116327000Y-103383000D03*
X118867000Y-100843000D03*
X116327000Y-100843000D03*
X118867000Y-98303000D03*
X116327000Y-98303000D03*
X118867000Y-95763000D03*
X116327000Y-95763000D03*
X118867000Y-93223000D03*
X116327000Y-93223000D03*
X118867000Y-90683000D03*
X116327000Y-90683000D03*
X118867000Y-88143000D03*
X116327000Y-88143000D03*
X118867000Y-85603000D03*
X116327000Y-85603000D03*
X118867000Y-83063000D03*
X116327000Y-83063000D03*
X118867000Y-80523000D03*
X116327000Y-80523000D03*
X118867000Y-77983000D03*
X116327000Y-77983000D03*
X118867000Y-75443000D03*
X116327000Y-75443000D03*
X118867000Y-72903000D03*
X116327000Y-72903000D03*
X118867000Y-70363000D03*
X116327000Y-70363000D03*
X118867000Y-67823000D03*
X116327000Y-67823000D03*
X118867000Y-65283000D03*
X116327000Y-65283000D03*
X118867000Y-62743000D03*
D16*
X116327000Y-62743000D03*
%TD*%
D22*
%TO.C,SW1*%
X226250000Y-125750000D03*
X219750000Y-125750000D03*
X226250000Y-121250000D03*
X219750000Y-121250000D03*
%TD*%
D23*
%TO.C,J3*%
X230150000Y-114150000D03*
D13*
X230150000Y-111610000D03*
X230150000Y-109070000D03*
X230150000Y-106530000D03*
X230150000Y-103990000D03*
X230150000Y-101450000D03*
X230150000Y-98910000D03*
X230150000Y-96370000D03*
X230150000Y-93830000D03*
X230150000Y-91290000D03*
X230150000Y-88750000D03*
X230150000Y-86210000D03*
X230150000Y-83670000D03*
X230150000Y-81130000D03*
X230150000Y-78590000D03*
X230150000Y-76050000D03*
X230150000Y-73510000D03*
X230150000Y-70970000D03*
X230150000Y-68430000D03*
%TD*%
G36*
X147633519Y-122646267D02*
G01*
X147653195Y-122713279D01*
X147705538Y-122758634D01*
X147774091Y-122768491D01*
X147837247Y-122739648D01*
X147857302Y-122717450D01*
X147879159Y-122686350D01*
X147879480Y-122685993D01*
X147888237Y-122678354D01*
X147890200Y-122677969D01*
X147891515Y-122679476D01*
X147891139Y-122681079D01*
X147809855Y-122787010D01*
X147751516Y-122927854D01*
X147731600Y-123079132D01*
X147731600Y-123808868D01*
X147751516Y-123960146D01*
X147809855Y-124100990D01*
X147889246Y-124204455D01*
X147889507Y-124206438D01*
X147887920Y-124207656D01*
X147886328Y-124207166D01*
X147875390Y-124197420D01*
X147875073Y-124197060D01*
X147858128Y-124172406D01*
X147804178Y-124128506D01*
X147735350Y-124120775D01*
X147673271Y-124151481D01*
X147637562Y-124211018D01*
X147633584Y-124242092D01*
X147632372Y-124243683D01*
X147630388Y-124243429D01*
X147629600Y-124241838D01*
X147629600Y-122646830D01*
X147630600Y-122645098D01*
X147632600Y-122645098D01*
X147633519Y-122646267D01*
G37*
G36*
X149074959Y-122797141D02*
G01*
X149074993Y-122798748D01*
X149021516Y-122927854D01*
X149001600Y-123079132D01*
X149001600Y-123808868D01*
X149021516Y-123960146D01*
X149073804Y-124086380D01*
X149073543Y-124088363D01*
X149071695Y-124089128D01*
X149070308Y-124088278D01*
X149057593Y-124069778D01*
X149057066Y-124069820D01*
X149056330Y-124069220D01*
X149023464Y-124025704D01*
X148958469Y-124001778D01*
X148890859Y-124016789D01*
X148841929Y-124066137D01*
X148835603Y-124079800D01*
X148833104Y-124086209D01*
X148832877Y-124086633D01*
X148829691Y-124091167D01*
X148827877Y-124092009D01*
X148826241Y-124090859D01*
X148826207Y-124089252D01*
X148879684Y-123960146D01*
X148899600Y-123808868D01*
X148899600Y-123079132D01*
X148879684Y-122927854D01*
X148827396Y-122801620D01*
X148827657Y-122799637D01*
X148829505Y-122798872D01*
X148830892Y-122799722D01*
X148843607Y-122818222D01*
X148844134Y-122818180D01*
X148844870Y-122818780D01*
X148877736Y-122862296D01*
X148942731Y-122886222D01*
X149010341Y-122871211D01*
X149059271Y-122821863D01*
X149065597Y-122808200D01*
X149068096Y-122801791D01*
X149068323Y-122801367D01*
X149071509Y-122796833D01*
X149073323Y-122795991D01*
X149074959Y-122797141D01*
G37*
G36*
X150344959Y-122797141D02*
G01*
X150344993Y-122798748D01*
X150291516Y-122927854D01*
X150271600Y-123079132D01*
X150271600Y-123808868D01*
X150291516Y-123960146D01*
X150343804Y-124086380D01*
X150343543Y-124088363D01*
X150341695Y-124089128D01*
X150340308Y-124088278D01*
X150327593Y-124069778D01*
X150327066Y-124069820D01*
X150326330Y-124069220D01*
X150293464Y-124025704D01*
X150228469Y-124001778D01*
X150160859Y-124016789D01*
X150111929Y-124066137D01*
X150105603Y-124079800D01*
X150103104Y-124086209D01*
X150102877Y-124086633D01*
X150099691Y-124091167D01*
X150097877Y-124092009D01*
X150096241Y-124090859D01*
X150096207Y-124089252D01*
X150149684Y-123960146D01*
X150169600Y-123808868D01*
X150169600Y-123079132D01*
X150149684Y-122927854D01*
X150097396Y-122801620D01*
X150097657Y-122799637D01*
X150099505Y-122798872D01*
X150100892Y-122799722D01*
X150113607Y-122818222D01*
X150114134Y-122818180D01*
X150114870Y-122818780D01*
X150147736Y-122862296D01*
X150212731Y-122886222D01*
X150280341Y-122871211D01*
X150329271Y-122821863D01*
X150335597Y-122808200D01*
X150338096Y-122801791D01*
X150338323Y-122801367D01*
X150341509Y-122796833D01*
X150343323Y-122795991D01*
X150344959Y-122797141D01*
G37*
G36*
X163367960Y-121303711D02*
G01*
X163368173Y-121305207D01*
X163351340Y-121372290D01*
X163373477Y-121437914D01*
X163427580Y-121481153D01*
X163496549Y-121488286D01*
X163536581Y-121471618D01*
X163538565Y-121471875D01*
X163539333Y-121473721D01*
X163538448Y-121475136D01*
X163520292Y-121487062D01*
X163412917Y-121582729D01*
X162988755Y-122006891D01*
X162846259Y-122177315D01*
X162803503Y-122252274D01*
X162801776Y-122253283D01*
X162800039Y-122252292D01*
X162799826Y-122250796D01*
X162816659Y-122183711D01*
X162794523Y-122118087D01*
X162740420Y-122074848D01*
X162671451Y-122067715D01*
X162631416Y-122084384D01*
X162629432Y-122084127D01*
X162628664Y-122082281D01*
X162629549Y-122080866D01*
X162647708Y-122068938D01*
X162755083Y-121973271D01*
X163179245Y-121549109D01*
X163321741Y-121378685D01*
X163364496Y-121303729D01*
X163366223Y-121302720D01*
X163367960Y-121303711D01*
G37*
M02*
