%TF.GenerationSoftware,KiCad,Pcbnew,(6.0.7)*%
%TF.CreationDate,2022-08-24T05:25:31-07:00*%
%TF.ProjectId,TRS-IO-M3,5452532d-494f-42d4-9d33-2e6b69636164,rev?*%
%TF.SameCoordinates,Original*%
%TF.FileFunction,Soldermask,Bot*%
%TF.FilePolarity,Negative*%
%FSLAX46Y46*%
G04 Gerber Fmt 4.6, Leading zero omitted, Abs format (unit mm)*
G04 Created by KiCad (PCBNEW (6.0.7)) date 2022-08-24 05:25:31*
%MOMM*%
%LPD*%
G01*
G04 APERTURE LIST*
G04 Aperture macros list*
%AMRoundRect*
0 Rectangle with rounded corners*
0 $1 Rounding radius*
0 $2 $3 $4 $5 $6 $7 $8 $9 X,Y pos of 4 corners*
0 Add a 4 corners polygon primitive as box body*
4,1,4,$2,$3,$4,$5,$6,$7,$8,$9,$2,$3,0*
0 Add four circle primitives for the rounded corners*
1,1,$1+$1,$2,$3*
1,1,$1+$1,$4,$5*
1,1,$1+$1,$6,$7*
1,1,$1+$1,$8,$9*
0 Add four rect primitives between the rounded corners*
20,1,$1+$1,$2,$3,$4,$5,0*
20,1,$1+$1,$4,$5,$6,$7,0*
20,1,$1+$1,$6,$7,$8,$9,0*
20,1,$1+$1,$8,$9,$2,$3,0*%
%AMHorizOval*
0 Thick line with rounded ends*
0 $1 width*
0 $2 $3 position (X,Y) of the first rounded end (center of the circle)*
0 $4 $5 position (X,Y) of the second rounded end (center of the circle)*
0 Add line between two ends*
20,1,$1,$2,$3,$4,$5,0*
0 Add two circle primitives to create the rounded ends*
1,1,$1,$2,$3*
1,1,$1,$4,$5*%
G04 Aperture macros list end*
%ADD10C,6.102000*%
%ADD11C,0.902000*%
%ADD12RoundRect,0.051000X0.850000X-0.850000X0.850000X0.850000X-0.850000X0.850000X-0.850000X-0.850000X0*%
%ADD13O,1.802000X1.802000*%
%ADD14O,2.102000X1.302000*%
%ADD15HorizOval,2.502000X-0.212132X-0.212132X0.212132X0.212132X0*%
%ADD16RoundRect,0.051000X-0.850000X-0.850000X0.850000X-0.850000X0.850000X0.850000X-0.850000X0.850000X0*%
%ADD17RoundRect,0.051000X-0.800000X-0.800000X0.800000X-0.800000X0.800000X0.800000X-0.800000X0.800000X0*%
%ADD18O,1.702000X1.702000*%
%ADD19RoundRect,0.051000X3.810000X-0.889000X3.810000X0.889000X-3.810000X0.889000X-3.810000X-0.889000X0*%
%ADD20RoundRect,0.051000X-0.535000X-0.900000X0.535000X-0.900000X0.535000X0.900000X-0.535000X0.900000X0*%
%ADD21O,1.172000X1.902000*%
%ADD22C,2.102000*%
%ADD23RoundRect,0.051000X0.850000X0.850000X-0.850000X0.850000X-0.850000X-0.850000X0.850000X-0.850000X0*%
G04 APERTURE END LIST*
D10*
%TO.C,H1*%
X124714000Y-60960000D03*
D11*
X126304990Y-62550990D03*
X123123010Y-59369010D03*
X126964000Y-60960000D03*
X124714000Y-58710000D03*
X122464000Y-60960000D03*
X124714000Y-63210000D03*
X126304990Y-59369010D03*
X123123010Y-62550990D03*
%TD*%
%TO.C,H2*%
X233540990Y-62550990D03*
X234200000Y-60960000D03*
D10*
X231950000Y-60960000D03*
D11*
X229700000Y-60960000D03*
X230359010Y-62550990D03*
X230359010Y-59369010D03*
X233540990Y-59369010D03*
X231950000Y-63210000D03*
X231950000Y-58710000D03*
%TD*%
%TO.C,H3*%
X126964000Y-125476000D03*
X124714000Y-127726000D03*
X126304990Y-123885010D03*
X123123010Y-127066990D03*
D10*
X124714000Y-125476000D03*
D11*
X122464000Y-125476000D03*
X124714000Y-123226000D03*
X126304990Y-127066990D03*
X123123010Y-123885010D03*
%TD*%
%TO.C,H4*%
X233540990Y-123885010D03*
X229700000Y-125476000D03*
X233540990Y-127066990D03*
X231950000Y-127726000D03*
X230359010Y-123885010D03*
X234200000Y-125476000D03*
X231950000Y-123226000D03*
X230359010Y-127066990D03*
D10*
X231950000Y-125476000D03*
%TD*%
D12*
%TO.C,J5*%
X133600000Y-66675000D03*
D13*
X136140000Y-66675000D03*
X138680000Y-66675000D03*
X141220000Y-66675000D03*
X143760000Y-66675000D03*
X146300000Y-66675000D03*
%TD*%
D14*
%TO.C,U5*%
X175520000Y-58985000D03*
X175520000Y-61525000D03*
X175520000Y-64065000D03*
X175520000Y-66605000D03*
X175520000Y-69145000D03*
X175520000Y-71685000D03*
X175520000Y-74225000D03*
X175520000Y-76765000D03*
X175520000Y-79305000D03*
X175520000Y-81845000D03*
X175520000Y-84385000D03*
X175520000Y-86925000D03*
X175520000Y-89465000D03*
X175520000Y-92005000D03*
X175520000Y-94545000D03*
X175520000Y-97085000D03*
X175520000Y-99625000D03*
X175520000Y-102165000D03*
X175520000Y-104705000D03*
X175520000Y-107245000D03*
X175520000Y-109785000D03*
X175520000Y-112325000D03*
X175520000Y-114865000D03*
X175520000Y-117405000D03*
X198420000Y-117405000D03*
X198420000Y-114865000D03*
X198420000Y-112325000D03*
X198420000Y-109785000D03*
X198420000Y-107245000D03*
X198420000Y-104705000D03*
X198420000Y-102165000D03*
X198420000Y-99625000D03*
X198420000Y-97085000D03*
X198420000Y-94545000D03*
X198420000Y-92005000D03*
X198420000Y-89465000D03*
X198420000Y-86925000D03*
X198420000Y-84385000D03*
X198420000Y-81845000D03*
X198420000Y-79305000D03*
X198420000Y-76765000D03*
X198420000Y-74225000D03*
X198420000Y-71685000D03*
X198420000Y-69145000D03*
X198420000Y-66605000D03*
X198420000Y-64065000D03*
X198420000Y-61525000D03*
X198420000Y-58985000D03*
%TD*%
D15*
%TO.C,J7*%
X162084000Y-120878000D03*
X164084000Y-122678000D03*
X164084000Y-128778000D03*
X162084000Y-126378000D03*
X164084000Y-117178000D03*
%TD*%
D16*
%TO.C,J4*%
X171300000Y-60475000D03*
D13*
X171300000Y-63015000D03*
%TD*%
D17*
%TO.C,U6*%
X204750000Y-68400000D03*
D18*
X204750000Y-70940000D03*
X204750000Y-73480000D03*
X204750000Y-76020000D03*
X204750000Y-78560000D03*
X204750000Y-81100000D03*
X204750000Y-83640000D03*
X204750000Y-86180000D03*
X204750000Y-88720000D03*
X204750000Y-91260000D03*
X204750000Y-93800000D03*
X204750000Y-96340000D03*
X204750000Y-98880000D03*
X204750000Y-101420000D03*
X204750000Y-103960000D03*
X204750000Y-106500000D03*
X204750000Y-109040000D03*
X204750000Y-111580000D03*
X204750000Y-114120000D03*
X227610000Y-114120000D03*
X227610000Y-111580000D03*
X227610000Y-109040000D03*
X227610000Y-106500000D03*
X227610000Y-103960000D03*
X227610000Y-101420000D03*
X227610000Y-98880000D03*
X227610000Y-96340000D03*
X227610000Y-93800000D03*
X227610000Y-91260000D03*
X227610000Y-88720000D03*
X227610000Y-86180000D03*
X227610000Y-83640000D03*
X227610000Y-81100000D03*
X227610000Y-78560000D03*
X227610000Y-76020000D03*
X227610000Y-73480000D03*
X227610000Y-70940000D03*
X227610000Y-68463500D03*
%TD*%
D19*
%TO.C,J1*%
X106934000Y-123698000D03*
X106934000Y-121158000D03*
X106934000Y-118618000D03*
X106934000Y-116078000D03*
X106934000Y-113538000D03*
X106934000Y-110998000D03*
X106934000Y-108458000D03*
X106934000Y-105918000D03*
X106934000Y-103378000D03*
X106934000Y-100838000D03*
X106934000Y-98298000D03*
X106934000Y-95758000D03*
X106934000Y-93218000D03*
X106934000Y-90678000D03*
X106934000Y-88138000D03*
X106934000Y-85598000D03*
X106934000Y-83058000D03*
X106934000Y-80518000D03*
X106934000Y-77978000D03*
X106934000Y-75438000D03*
X106934000Y-72898000D03*
X106934000Y-70358000D03*
X106934000Y-67818000D03*
X106934000Y-65278000D03*
X106934000Y-62738000D03*
%TD*%
D12*
%TO.C,J6*%
X152800000Y-66675000D03*
D13*
X155340000Y-66675000D03*
X157880000Y-66675000D03*
X160420000Y-66675000D03*
X162960000Y-66675000D03*
X165500000Y-66675000D03*
%TD*%
D20*
%TO.C,D1*%
X207750000Y-123500000D03*
D21*
X209020000Y-123500000D03*
X210290000Y-123500000D03*
X211560000Y-123500000D03*
%TD*%
D13*
%TO.C,J2*%
X118867000Y-123703000D03*
X116327000Y-123703000D03*
X118867000Y-121163000D03*
X116327000Y-121163000D03*
X118867000Y-118623000D03*
X116327000Y-118623000D03*
X118867000Y-116083000D03*
X116327000Y-116083000D03*
X118867000Y-113543000D03*
X116327000Y-113543000D03*
X118867000Y-111003000D03*
X116327000Y-111003000D03*
X118867000Y-108463000D03*
X116327000Y-108463000D03*
X118867000Y-105923000D03*
X116327000Y-105923000D03*
X118867000Y-103383000D03*
X116327000Y-103383000D03*
X118867000Y-100843000D03*
X116327000Y-100843000D03*
X118867000Y-98303000D03*
X116327000Y-98303000D03*
X118867000Y-95763000D03*
X116327000Y-95763000D03*
X118867000Y-93223000D03*
X116327000Y-93223000D03*
X118867000Y-90683000D03*
X116327000Y-90683000D03*
X118867000Y-88143000D03*
X116327000Y-88143000D03*
X118867000Y-85603000D03*
X116327000Y-85603000D03*
X118867000Y-83063000D03*
X116327000Y-83063000D03*
X118867000Y-80523000D03*
X116327000Y-80523000D03*
X118867000Y-77983000D03*
X116327000Y-77983000D03*
X118867000Y-75443000D03*
X116327000Y-75443000D03*
X118867000Y-72903000D03*
X116327000Y-72903000D03*
X118867000Y-70363000D03*
X116327000Y-70363000D03*
X118867000Y-67823000D03*
X116327000Y-67823000D03*
X118867000Y-65283000D03*
X116327000Y-65283000D03*
X118867000Y-62743000D03*
D16*
X116327000Y-62743000D03*
%TD*%
D22*
%TO.C,SW1*%
X226250000Y-125750000D03*
X219750000Y-125750000D03*
X226250000Y-121250000D03*
X219750000Y-121250000D03*
%TD*%
D23*
%TO.C,J3*%
X230150000Y-114150000D03*
D13*
X230150000Y-111610000D03*
X230150000Y-109070000D03*
X230150000Y-106530000D03*
X230150000Y-103990000D03*
X230150000Y-101450000D03*
X230150000Y-98910000D03*
X230150000Y-96370000D03*
X230150000Y-93830000D03*
X230150000Y-91290000D03*
X230150000Y-88750000D03*
X230150000Y-86210000D03*
X230150000Y-83670000D03*
X230150000Y-81130000D03*
X230150000Y-78590000D03*
X230150000Y-76050000D03*
X230150000Y-73510000D03*
X230150000Y-70970000D03*
X230150000Y-68430000D03*
%TD*%
G36*
X208337919Y-122702267D02*
G01*
X208357595Y-122769279D01*
X208409938Y-122814634D01*
X208478491Y-122824491D01*
X208541647Y-122795648D01*
X208561702Y-122773450D01*
X208583559Y-122742350D01*
X208583880Y-122741993D01*
X208592637Y-122734354D01*
X208594600Y-122733969D01*
X208595915Y-122735476D01*
X208595539Y-122737079D01*
X208514255Y-122843010D01*
X208455916Y-122983854D01*
X208436000Y-123135132D01*
X208436000Y-123864868D01*
X208455916Y-124016146D01*
X208514255Y-124156990D01*
X208593646Y-124260455D01*
X208593907Y-124262438D01*
X208592320Y-124263656D01*
X208590728Y-124263166D01*
X208579790Y-124253420D01*
X208579473Y-124253060D01*
X208562528Y-124228406D01*
X208508578Y-124184506D01*
X208439750Y-124176775D01*
X208377671Y-124207481D01*
X208341962Y-124267018D01*
X208337984Y-124298092D01*
X208336772Y-124299683D01*
X208334788Y-124299429D01*
X208334000Y-124297838D01*
X208334000Y-122702830D01*
X208335000Y-122701098D01*
X208337000Y-122701098D01*
X208337919Y-122702267D01*
G37*
G36*
X209779359Y-122853141D02*
G01*
X209779393Y-122854748D01*
X209725916Y-122983854D01*
X209706000Y-123135132D01*
X209706000Y-123864868D01*
X209725916Y-124016146D01*
X209778204Y-124142380D01*
X209777943Y-124144363D01*
X209776095Y-124145128D01*
X209774708Y-124144278D01*
X209761993Y-124125778D01*
X209761466Y-124125820D01*
X209760730Y-124125220D01*
X209727864Y-124081704D01*
X209662869Y-124057778D01*
X209595259Y-124072789D01*
X209546329Y-124122137D01*
X209540003Y-124135800D01*
X209537504Y-124142209D01*
X209537277Y-124142633D01*
X209534091Y-124147167D01*
X209532277Y-124148009D01*
X209530641Y-124146859D01*
X209530607Y-124145252D01*
X209584084Y-124016146D01*
X209604000Y-123864868D01*
X209604000Y-123135132D01*
X209584084Y-122983854D01*
X209531796Y-122857620D01*
X209532057Y-122855637D01*
X209533905Y-122854872D01*
X209535292Y-122855722D01*
X209548007Y-122874222D01*
X209548534Y-122874180D01*
X209549270Y-122874780D01*
X209582136Y-122918296D01*
X209647131Y-122942222D01*
X209714741Y-122927211D01*
X209763671Y-122877863D01*
X209769997Y-122864200D01*
X209772496Y-122857791D01*
X209772723Y-122857367D01*
X209775909Y-122852833D01*
X209777723Y-122851991D01*
X209779359Y-122853141D01*
G37*
G36*
X211049359Y-122853141D02*
G01*
X211049393Y-122854748D01*
X210995916Y-122983854D01*
X210976000Y-123135132D01*
X210976000Y-123864868D01*
X210995916Y-124016146D01*
X211048204Y-124142380D01*
X211047943Y-124144363D01*
X211046095Y-124145128D01*
X211044708Y-124144278D01*
X211031993Y-124125778D01*
X211031466Y-124125820D01*
X211030730Y-124125220D01*
X210997864Y-124081704D01*
X210932869Y-124057778D01*
X210865259Y-124072789D01*
X210816329Y-124122137D01*
X210810003Y-124135800D01*
X210807504Y-124142209D01*
X210807277Y-124142633D01*
X210804091Y-124147167D01*
X210802277Y-124148009D01*
X210800641Y-124146859D01*
X210800607Y-124145252D01*
X210854084Y-124016146D01*
X210874000Y-123864868D01*
X210874000Y-123135132D01*
X210854084Y-122983854D01*
X210801796Y-122857620D01*
X210802057Y-122855637D01*
X210803905Y-122854872D01*
X210805292Y-122855722D01*
X210818007Y-122874222D01*
X210818534Y-122874180D01*
X210819270Y-122874780D01*
X210852136Y-122918296D01*
X210917131Y-122942222D01*
X210984741Y-122927211D01*
X211033671Y-122877863D01*
X211039997Y-122864200D01*
X211042496Y-122857791D01*
X211042723Y-122857367D01*
X211045909Y-122852833D01*
X211047723Y-122851991D01*
X211049359Y-122853141D01*
G37*
G36*
X163367960Y-121303711D02*
G01*
X163368173Y-121305207D01*
X163351340Y-121372290D01*
X163373477Y-121437914D01*
X163427580Y-121481153D01*
X163496549Y-121488286D01*
X163536581Y-121471618D01*
X163538565Y-121471875D01*
X163539333Y-121473721D01*
X163538448Y-121475136D01*
X163520292Y-121487062D01*
X163412917Y-121582729D01*
X162988755Y-122006891D01*
X162846259Y-122177315D01*
X162803503Y-122252274D01*
X162801776Y-122253283D01*
X162800039Y-122252292D01*
X162799826Y-122250796D01*
X162816659Y-122183711D01*
X162794523Y-122118087D01*
X162740420Y-122074848D01*
X162671451Y-122067715D01*
X162631416Y-122084384D01*
X162629432Y-122084127D01*
X162628664Y-122082281D01*
X162629549Y-122080866D01*
X162647708Y-122068938D01*
X162755083Y-121973271D01*
X163179245Y-121549109D01*
X163321741Y-121378685D01*
X163364496Y-121303729D01*
X163366223Y-121302720D01*
X163367960Y-121303711D01*
G37*
M02*
