%TF.GenerationSoftware,KiCad,Pcbnew,(6.0.7)*%
%TF.CreationDate,2022-08-24T05:25:30-07:00*%
%TF.ProjectId,TRS-IO-M3,5452532d-494f-42d4-9d33-2e6b69636164,rev?*%
%TF.SameCoordinates,Original*%
%TF.FileFunction,Copper,L1,Top*%
%TF.FilePolarity,Positive*%
%FSLAX46Y46*%
G04 Gerber Fmt 4.6, Leading zero omitted, Abs format (unit mm)*
G04 Created by KiCad (PCBNEW (6.0.7)) date 2022-08-24 05:25:30*
%MOMM*%
%LPD*%
G01*
G04 APERTURE LIST*
G04 Aperture macros list*
%AMRoundRect*
0 Rectangle with rounded corners*
0 $1 Rounding radius*
0 $2 $3 $4 $5 $6 $7 $8 $9 X,Y pos of 4 corners*
0 Add a 4 corners polygon primitive as box body*
4,1,4,$2,$3,$4,$5,$6,$7,$8,$9,$2,$3,0*
0 Add four circle primitives for the rounded corners*
1,1,$1+$1,$2,$3*
1,1,$1+$1,$4,$5*
1,1,$1+$1,$6,$7*
1,1,$1+$1,$8,$9*
0 Add four rect primitives between the rounded corners*
20,1,$1+$1,$2,$3,$4,$5,0*
20,1,$1+$1,$4,$5,$6,$7,0*
20,1,$1+$1,$6,$7,$8,$9,0*
20,1,$1+$1,$8,$9,$2,$3,0*%
%AMHorizOval*
0 Thick line with rounded ends*
0 $1 width*
0 $2 $3 position (X,Y) of the first rounded end (center of the circle)*
0 $4 $5 position (X,Y) of the second rounded end (center of the circle)*
0 Add line between two ends*
20,1,$1,$2,$3,$4,$5,0*
0 Add two circle primitives to create the rounded ends*
1,1,$1,$2,$3*
1,1,$1,$4,$5*%
G04 Aperture macros list end*
%TA.AperFunction,ComponentPad*%
%ADD10C,6.000000*%
%TD*%
%TA.AperFunction,ComponentPad*%
%ADD11C,0.800000*%
%TD*%
%TA.AperFunction,SMDPad,CuDef*%
%ADD12RoundRect,0.250000X0.350000X0.450000X-0.350000X0.450000X-0.350000X-0.450000X0.350000X-0.450000X0*%
%TD*%
%TA.AperFunction,SMDPad,CuDef*%
%ADD13RoundRect,0.250000X-0.450000X0.350000X-0.450000X-0.350000X0.450000X-0.350000X0.450000X0.350000X0*%
%TD*%
%TA.AperFunction,ComponentPad*%
%ADD14R,1.700000X1.700000*%
%TD*%
%TA.AperFunction,ComponentPad*%
%ADD15O,1.700000X1.700000*%
%TD*%
%TA.AperFunction,SMDPad,CuDef*%
%ADD16RoundRect,0.250000X-0.475000X0.337500X-0.475000X-0.337500X0.475000X-0.337500X0.475000X0.337500X0*%
%TD*%
%TA.AperFunction,ComponentPad*%
%ADD17O,2.000000X1.200000*%
%TD*%
%TA.AperFunction,SMDPad,CuDef*%
%ADD18RoundRect,0.250000X0.475000X-0.337500X0.475000X0.337500X-0.475000X0.337500X-0.475000X-0.337500X0*%
%TD*%
%TA.AperFunction,SMDPad,CuDef*%
%ADD19R,2.200000X1.200000*%
%TD*%
%TA.AperFunction,SMDPad,CuDef*%
%ADD20R,6.400000X5.800000*%
%TD*%
%TA.AperFunction,SMDPad,CuDef*%
%ADD21RoundRect,0.100000X-0.637500X-0.100000X0.637500X-0.100000X0.637500X0.100000X-0.637500X0.100000X0*%
%TD*%
%TA.AperFunction,ComponentPad*%
%ADD22HorizOval,2.400000X-0.212132X-0.212132X0.212132X0.212132X0*%
%TD*%
%TA.AperFunction,SMDPad,CuDef*%
%ADD23RoundRect,0.150000X0.150000X-0.587500X0.150000X0.587500X-0.150000X0.587500X-0.150000X-0.587500X0*%
%TD*%
%TA.AperFunction,SMDPad,CuDef*%
%ADD24RoundRect,0.250000X-0.350000X-0.450000X0.350000X-0.450000X0.350000X0.450000X-0.350000X0.450000X0*%
%TD*%
%TA.AperFunction,SMDPad,CuDef*%
%ADD25RoundRect,0.250000X0.412500X0.650000X-0.412500X0.650000X-0.412500X-0.650000X0.412500X-0.650000X0*%
%TD*%
%TA.AperFunction,ComponentPad*%
%ADD26R,1.600000X1.600000*%
%TD*%
%TA.AperFunction,ComponentPad*%
%ADD27O,1.600000X1.600000*%
%TD*%
%TA.AperFunction,SMDPad,CuDef*%
%ADD28RoundRect,0.250000X-0.337500X-0.475000X0.337500X-0.475000X0.337500X0.475000X-0.337500X0.475000X0*%
%TD*%
%TA.AperFunction,ConnectorPad*%
%ADD29R,7.620000X1.778000*%
%TD*%
%TA.AperFunction,ComponentPad*%
%ADD30R,1.070000X1.800000*%
%TD*%
%TA.AperFunction,ComponentPad*%
%ADD31O,1.070000X1.800000*%
%TD*%
%TA.AperFunction,ComponentPad*%
%ADD32C,2.000000*%
%TD*%
%TA.AperFunction,SMDPad,CuDef*%
%ADD33RoundRect,0.125000X-0.825000X-0.125000X0.825000X-0.125000X0.825000X0.125000X-0.825000X0.125000X0*%
%TD*%
%TA.AperFunction,ViaPad*%
%ADD34C,0.800000*%
%TD*%
%TA.AperFunction,Conductor*%
%ADD35C,0.500380*%
%TD*%
%TA.AperFunction,Conductor*%
%ADD36C,0.200000*%
%TD*%
%TA.AperFunction,Conductor*%
%ADD37C,0.250000*%
%TD*%
G04 APERTURE END LIST*
D10*
%TO.P,H1,1*%
%TO.N,N/C*%
X124714000Y-60960000D03*
D11*
X126304990Y-62550990D03*
X123123010Y-59369010D03*
X126964000Y-60960000D03*
X124714000Y-58710000D03*
X122464000Y-60960000D03*
X124714000Y-63210000D03*
X126304990Y-59369010D03*
X123123010Y-62550990D03*
%TD*%
%TO.P,H2,1*%
%TO.N,N/C*%
X233540990Y-62550990D03*
X234200000Y-60960000D03*
D10*
X231950000Y-60960000D03*
D11*
X229700000Y-60960000D03*
X230359010Y-62550990D03*
X230359010Y-59369010D03*
X233540990Y-59369010D03*
X231950000Y-63210000D03*
X231950000Y-58710000D03*
%TD*%
%TO.P,H3,1*%
%TO.N,N/C*%
X126964000Y-125476000D03*
X124714000Y-127726000D03*
X126304990Y-123885010D03*
X123123010Y-127066990D03*
D10*
X124714000Y-125476000D03*
D11*
X122464000Y-125476000D03*
X124714000Y-123226000D03*
X126304990Y-127066990D03*
X123123010Y-123885010D03*
%TD*%
%TO.P,H4,1*%
%TO.N,N/C*%
X233540990Y-123885010D03*
X229700000Y-125476000D03*
X233540990Y-127066990D03*
X231950000Y-127726000D03*
X230359010Y-123885010D03*
X234200000Y-125476000D03*
X231950000Y-123226000D03*
X230359010Y-127066990D03*
D10*
X231950000Y-125476000D03*
%TD*%
D12*
%TO.P,R9,1*%
%TO.N,VSYNC*%
X131810000Y-72644000D03*
%TO.P,R9,2*%
%TO.N,GND*%
X129810000Y-72644000D03*
%TD*%
%TO.P,R8,1*%
%TO.N,HSYNC*%
X131810000Y-70358000D03*
%TO.P,R8,2*%
%TO.N,GND*%
X129810000Y-70358000D03*
%TD*%
D13*
%TO.P,R1,1*%
%TO.N,LED_RED*%
X208534000Y-108474000D03*
%TO.P,R1,2*%
%TO.N,Net-(D1-Pad1)*%
X208534000Y-110474000D03*
%TD*%
%TO.P,R2,1*%
%TO.N,LED_GREEN*%
X214068000Y-108474000D03*
%TO.P,R2,2*%
%TO.N,Net-(D1-Pad4)*%
X214068000Y-110474000D03*
%TD*%
D14*
%TO.P,J5,1,Pin_1*%
%TO.N,GND*%
X133600000Y-66675000D03*
D15*
%TO.P,J5,2,Pin_2*%
%TO.N,VIDEO*%
X136140000Y-66675000D03*
%TO.P,J5,3,Pin_3*%
%TO.N,GND*%
X138680000Y-66675000D03*
%TO.P,J5,4,Pin_4*%
%TO.N,VSYNC*%
X141220000Y-66675000D03*
%TO.P,J5,5,Pin_5*%
%TO.N,GND*%
X143760000Y-66675000D03*
%TO.P,J5,6,Pin_6*%
%TO.N,HSYNC*%
X146300000Y-66675000D03*
%TD*%
D16*
%TO.P,C6,1*%
%TO.N,GND*%
X149650000Y-104312500D03*
%TO.P,C6,2*%
%TO.N,+1V8*%
X149650000Y-106387500D03*
%TD*%
D17*
%TO.P,U5,1,Pad_38*%
%TO.N,MOSI*%
X175520000Y-58985000D03*
%TO.P,U5,2,Pad_37*%
%TO.N,MISO*%
X175520000Y-61525000D03*
%TO.P,U5,3,Pad_36*%
%TO.N,SCK*%
X175520000Y-64065000D03*
%TO.P,U5,4,Pad_39*%
%TO.N,CS_SD_CARD*%
X175520000Y-66605000D03*
%TO.P,U5,5,Pad_25*%
%TO.N,HSYNC_O*%
X175520000Y-69145000D03*
%TO.P,U5,6,Pad_26*%
%TO.N,VSYNC_O*%
X175520000Y-71685000D03*
%TO.P,U5,7,Pad_27*%
%TO.N,VIDEO_O*%
X175520000Y-74225000D03*
%TO.P,U5,8,Pad_28*%
%TO.N,HSYNCX*%
X175520000Y-76765000D03*
%TO.P,U5,9,Pad_29*%
%TO.N,VSYNCX*%
X175520000Y-79305000D03*
%TO.P,U5,10,Pad_30*%
%TO.N,VIDEOX*%
X175520000Y-81845000D03*
%TO.P,U5,11,Pad_33*%
%TO.N,_IORQX*%
X175520000Y-84385000D03*
%TO.P,U5,12,Pad_34*%
%TO.N,_M1X*%
X175520000Y-86925000D03*
%TO.P,U5,13,Pad_40*%
%TO.N,_RESETX*%
X175520000Y-89465000D03*
%TO.P,U5,14,Pad_35*%
%TO.N,_OUTX*%
X175520000Y-92005000D03*
%TO.P,U5,15,Pad_41*%
%TO.N,_INX*%
X175520000Y-94545000D03*
%TO.P,U5,16,Pad_42*%
%TO.N,ABUS_SEL_N*%
X175520000Y-97085000D03*
%TO.P,U5,17,Pad_51*%
%TO.N,READ_N*%
X175520000Y-99625000D03*
%TO.P,U5,18,Pad_53*%
%TO.N,DBUS_SEL_N*%
X175520000Y-102165000D03*
%TO.P,U5,19,Pad_54*%
%TO.N,INT*%
X175520000Y-104705000D03*
%TO.P,U5,20,Pad_55*%
%TO.N,WAIT*%
X175520000Y-107245000D03*
%TO.P,U5,21,Pad_56*%
%TO.N,EXTIOSEL*%
X175520000Y-109785000D03*
%TO.P,U5,22,Pad_57*%
%TO.N,CASS_OUT_LEFT*%
X175520000Y-112325000D03*
%TO.P,U5,23,Pad_68*%
%TO.N,unconnected-(U5-Pad23)*%
X175520000Y-114865000D03*
%TO.P,U5,24,Pad_69*%
%TO.N,unconnected-(U5-Pad24)*%
X175520000Y-117405000D03*
%TO.P,U5,25,3V3*%
%TO.N,+3V3*%
X198420000Y-117405000D03*
%TO.P,U5,26,GND*%
%TO.N,GND*%
X198420000Y-114865000D03*
%TO.P,U5,27,Pad_32*%
%TO.N,ESP_S2*%
X198420000Y-112325000D03*
%TO.P,U5,28,Pad_31*%
%TO.N,ESP_S1*%
X198420000Y-109785000D03*
%TO.P,U5,29,Pad_49*%
%TO.N,ESP_S0*%
X198420000Y-107245000D03*
%TO.P,U5,30,Pad_48*%
%TO.N,CS_FPGA*%
X198420000Y-104705000D03*
%TO.P,U5,31,5V*%
%TO.N,VU*%
X198420000Y-102165000D03*
%TO.P,U5,32,Pad_70*%
%TO.N,unconnected-(U5-Pad32)*%
X198420000Y-99625000D03*
%TO.P,U5,33,Pad_71*%
%TO.N,unconnected-(U5-Pad33)*%
X198420000Y-97085000D03*
%TO.P,U5,34,Pad_72*%
%TO.N,unconnected-(U5-Pad34)*%
X198420000Y-94545000D03*
%TO.P,U5,35,Pad_73*%
%TO.N,unconnected-(U5-Pad35)*%
X198420000Y-92005000D03*
%TO.P,U5,36,Pad_74*%
%TO.N,unconnected-(U5-Pad36)*%
X198420000Y-89465000D03*
%TO.P,U5,37,Pad_75*%
%TO.N,unconnected-(U5-Pad37)*%
X198420000Y-86925000D03*
%TO.P,U5,38,Pad_76*%
%TO.N,REQ*%
X198420000Y-84385000D03*
%TO.P,U5,39,Pad_77*%
%TO.N,DONE*%
X198420000Y-81845000D03*
%TO.P,U5,40,Pad_79*%
%TO.N,A0D7*%
X198420000Y-79305000D03*
%TO.P,U5,41,Pad_80*%
%TO.N,A1D6*%
X198420000Y-76765000D03*
%TO.P,U5,42,Pad_81*%
%TO.N,A2D5*%
X198420000Y-74225000D03*
%TO.P,U5,43,Pad_82*%
%TO.N,A3D4*%
X198420000Y-71685000D03*
%TO.P,U5,44,Pad_83*%
%TO.N,A4D3*%
X198420000Y-69145000D03*
%TO.P,U5,45,Pad_84*%
%TO.N,A5D2*%
X198420000Y-66605000D03*
%TO.P,U5,46,Pad_85*%
%TO.N,A6D1*%
X198420000Y-64065000D03*
%TO.P,U5,47,Pad_86*%
%TO.N,A7D0*%
X198420000Y-61525000D03*
%TO.P,U5,48,Pad_63*%
%TO.N,CASS_OUT_RIGHT*%
X198420000Y-58985000D03*
%TD*%
D18*
%TO.P,C1,1*%
%TO.N,+3V3*%
X143850000Y-90887500D03*
%TO.P,C1,2*%
%TO.N,GND*%
X143850000Y-88812500D03*
%TD*%
D16*
%TO.P,C7,1*%
%TO.N,GND*%
X150400000Y-74162500D03*
%TO.P,C7,2*%
%TO.N,+3V3*%
X150400000Y-76237500D03*
%TD*%
D19*
%TO.P,U4,1,GND*%
%TO.N,GND*%
X161544000Y-106433000D03*
%TO.P,U4,2,VO*%
%TO.N,+1V8*%
X161544000Y-108713000D03*
D20*
X167844000Y-108713000D03*
D19*
%TO.P,U4,3,VI*%
%TO.N,+3V3*%
X161544000Y-110993000D03*
%TD*%
D21*
%TO.P,U2,1,VCCA*%
%TO.N,+3V3*%
X143837500Y-108175000D03*
%TO.P,U2,2,DIR*%
%TO.N,READ_N*%
X143837500Y-108825000D03*
%TO.P,U2,3,A1*%
%TO.N,D7*%
X143837500Y-109475000D03*
%TO.P,U2,4,A2*%
%TO.N,D6*%
X143837500Y-110125000D03*
%TO.P,U2,5,A3*%
%TO.N,D5*%
X143837500Y-110775000D03*
%TO.P,U2,6,A4*%
%TO.N,D4*%
X143837500Y-111425000D03*
%TO.P,U2,7,A5*%
%TO.N,D3*%
X143837500Y-112075000D03*
%TO.P,U2,8,A6*%
%TO.N,D2*%
X143837500Y-112725000D03*
%TO.P,U2,9,A7*%
%TO.N,D1*%
X143837500Y-113375000D03*
%TO.P,U2,10,A8*%
%TO.N,D0*%
X143837500Y-114025000D03*
%TO.P,U2,11,GND*%
%TO.N,GND*%
X143837500Y-114675000D03*
%TO.P,U2,12,GND*%
X143837500Y-115325000D03*
%TO.P,U2,13,GND*%
X149562500Y-115325000D03*
%TO.P,U2,14,B8*%
%TO.N,A7D0*%
X149562500Y-114675000D03*
%TO.P,U2,15,B7*%
%TO.N,A6D1*%
X149562500Y-114025000D03*
%TO.P,U2,16,B6*%
%TO.N,A5D2*%
X149562500Y-113375000D03*
%TO.P,U2,17,B5*%
%TO.N,A4D3*%
X149562500Y-112725000D03*
%TO.P,U2,18,B4*%
%TO.N,A3D4*%
X149562500Y-112075000D03*
%TO.P,U2,19,B3*%
%TO.N,A2D5*%
X149562500Y-111425000D03*
%TO.P,U2,20,B2*%
%TO.N,A1D6*%
X149562500Y-110775000D03*
%TO.P,U2,21,B1*%
%TO.N,A0D7*%
X149562500Y-110125000D03*
%TO.P,U2,22,OEn*%
%TO.N,DBUS_SEL_N*%
X149562500Y-109475000D03*
%TO.P,U2,23,VCCB*%
%TO.N,+1V8*%
X149562500Y-108825000D03*
%TO.P,U2,24,VCCB*%
X149562500Y-108175000D03*
%TD*%
D16*
%TO.P,C3,1*%
%TO.N,GND*%
X149600000Y-88812500D03*
%TO.P,C3,2*%
%TO.N,+1V8*%
X149600000Y-90887500D03*
%TD*%
D22*
%TO.P,J7,R*%
%TO.N,Net-(C12-Pad1)*%
X162084000Y-120878000D03*
%TO.P,J7,RN*%
%TO.N,N/C*%
X164084000Y-122678000D03*
%TO.P,J7,S*%
%TO.N,GND*%
X164084000Y-128778000D03*
%TO.P,J7,T*%
%TO.N,Net-(C11-Pad1)*%
X162084000Y-126378000D03*
%TO.P,J7,TN*%
%TO.N,N/C*%
X164084000Y-117178000D03*
%TD*%
D23*
%TO.P,Q2,1,G*%
%TO.N,WAIT*%
X141036000Y-124997500D03*
%TO.P,Q2,2,S*%
%TO.N,GND*%
X142936000Y-124997500D03*
%TO.P,Q2,3,D*%
%TO.N,_IOWAIT*%
X141986000Y-123122500D03*
%TD*%
D24*
%TO.P,R7,1*%
%TO.N,Net-(C10-Pad1)*%
X190262000Y-122936000D03*
%TO.P,R7,2*%
%TO.N,GND*%
X192262000Y-122936000D03*
%TD*%
D25*
%TO.P,C4,1*%
%TO.N,+1V8*%
X158781500Y-106338000D03*
%TO.P,C4,2*%
%TO.N,GND*%
X155656500Y-106338000D03*
%TD*%
D14*
%TO.P,J4,1,Pin_1*%
%TO.N,+5V*%
X171300000Y-60475000D03*
D15*
%TO.P,J4,2,Pin_2*%
%TO.N,VU*%
X171300000Y-63015000D03*
%TD*%
D25*
%TO.P,C12,1*%
%TO.N,Net-(C12-Pad1)*%
X192316500Y-127762000D03*
%TO.P,C12,2*%
%TO.N,Net-(C10-Pad1)*%
X189191500Y-127762000D03*
%TD*%
D26*
%TO.P,U6,1,GPIO6*%
%TO.N,unconnected-(U6-Pad1)*%
X204750000Y-68400000D03*
D27*
%TO.P,U6,2,GPIO7*%
%TO.N,unconnected-(U6-Pad2)*%
X204750000Y-70940000D03*
%TO.P,U6,3,GPIO8*%
%TO.N,unconnected-(U6-Pad3)*%
X204750000Y-73480000D03*
%TO.P,U6,4,GPIO15*%
%TO.N,CS_FPGA*%
X204750000Y-76020000D03*
%TO.P,U6,5,GPIO2*%
%TO.N,unconnected-(U6-Pad5)*%
X204750000Y-78560000D03*
%TO.P,U6,6,GPIO0*%
%TO.N,unconnected-(U6-Pad6)*%
X204750000Y-81100000D03*
%TO.P,U6,7,GPIO4*%
%TO.N,LED_GREEN*%
X204750000Y-83640000D03*
%TO.P,U6,8,GPIO16*%
%TO.N,ESP_S0*%
X204750000Y-86180000D03*
%TO.P,U6,9,GPIO17*%
%TO.N,ESP_S1*%
X204750000Y-88720000D03*
%TO.P,U6,10,GPIO5*%
%TO.N,CS_SD_CARD*%
X204750000Y-91260000D03*
%TO.P,U6,11,GPIO18*%
%TO.N,ESP_S2*%
X204750000Y-93800000D03*
%TO.P,U6,12,GPIO19*%
%TO.N,unconnected-(U6-Pad12)*%
X204750000Y-96340000D03*
%TO.P,U6,13,GND*%
%TO.N,GND*%
X204750000Y-98880000D03*
%TO.P,U6,14,GPIO21*%
%TO.N,LED_RED*%
X204750000Y-101420000D03*
%TO.P,U6,15,GPIO3*%
%TO.N,unconnected-(U6-Pad15)*%
X204750000Y-103960000D03*
%TO.P,U6,16,GPIO1*%
%TO.N,unconnected-(U6-Pad16)*%
X204750000Y-106500000D03*
%TO.P,U6,17,GPIO22*%
%TO.N,BUTTON*%
X204750000Y-109040000D03*
%TO.P,U6,18,GPIO23*%
%TO.N,unconnected-(U6-Pad18)*%
X204750000Y-111580000D03*
%TO.P,U6,19,GND*%
%TO.N,GND*%
X204750000Y-114120000D03*
%TO.P,U6,20,3V3*%
%TO.N,unconnected-(U6-Pad20)*%
X227610000Y-114120000D03*
%TO.P,U6,21,RESET*%
%TO.N,unconnected-(U6-Pad21)*%
X227610000Y-111580000D03*
%TO.P,U6,22,GPIO36*%
%TO.N,unconnected-(U6-Pad22)*%
X227610000Y-109040000D03*
%TO.P,U6,23,GPIO39*%
%TO.N,unconnected-(U6-Pad23)*%
X227610000Y-106500000D03*
%TO.P,U6,24,GPIO34*%
%TO.N,REQ*%
X227610000Y-103960000D03*
%TO.P,U6,25,GPIO35*%
%TO.N,unconnected-(U6-Pad25)*%
X227610000Y-101420000D03*
%TO.P,U6,26,GPIO32*%
%TO.N,LED_BLUE*%
X227610000Y-98880000D03*
%TO.P,U6,27,GPIO33*%
%TO.N,unconnected-(U6-Pad27)*%
X227610000Y-96340000D03*
%TO.P,U6,28,GPIO25*%
%TO.N,unconnected-(U6-Pad28)*%
X227610000Y-93800000D03*
%TO.P,U6,29,GPIO26*%
%TO.N,unconnected-(U6-Pad29)*%
X227610000Y-91260000D03*
%TO.P,U6,30,GPIO27*%
%TO.N,DONE*%
X227610000Y-88720000D03*
%TO.P,U6,31,GPIO14*%
%TO.N,SCK*%
X227610000Y-86180000D03*
%TO.P,U6,32,GPIO12*%
%TO.N,MISO*%
X227610000Y-83640000D03*
%TO.P,U6,33,GND*%
%TO.N,GND*%
X227610000Y-81100000D03*
%TO.P,U6,34,GPIO13*%
%TO.N,MOSI*%
X227610000Y-78560000D03*
%TO.P,U6,35,GPIO9*%
%TO.N,unconnected-(U6-Pad35)*%
X227610000Y-76020000D03*
%TO.P,U6,36,GPIO10*%
%TO.N,unconnected-(U6-Pad36)*%
X227610000Y-73480000D03*
%TO.P,U6,37,GPIO11*%
%TO.N,unconnected-(U6-Pad37)*%
X227610000Y-70940000D03*
%TO.P,U6,38,5V*%
%TO.N,+5V*%
X227610000Y-68463500D03*
%TD*%
D28*
%TO.P,C9,1*%
%TO.N,Net-(C11-Pad2)*%
X180826500Y-125222000D03*
%TO.P,C9,2*%
%TO.N,GND*%
X182901500Y-125222000D03*
%TD*%
D29*
%TO.P,J1,1,Pin_1*%
%TO.N,D0*%
X106934000Y-123698000D03*
%TO.P,J1,3,Pin_3*%
%TO.N,D1*%
X106934000Y-121158000D03*
%TO.P,J1,5,Pin_5*%
%TO.N,D2*%
X106934000Y-118618000D03*
%TO.P,J1,7,Pin_7*%
%TO.N,D3*%
X106934000Y-116078000D03*
%TO.P,J1,9,Pin_9*%
%TO.N,D4*%
X106934000Y-113538000D03*
%TO.P,J1,11,Pin_11*%
%TO.N,D5*%
X106934000Y-110998000D03*
%TO.P,J1,13,Pin_13*%
%TO.N,D6*%
X106934000Y-108458000D03*
%TO.P,J1,15,Pin_15*%
%TO.N,D7*%
X106934000Y-105918000D03*
%TO.P,J1,17,Pin_17*%
%TO.N,A0*%
X106934000Y-103378000D03*
%TO.P,J1,19,Pin_19*%
%TO.N,A1*%
X106934000Y-100838000D03*
%TO.P,J1,21,Pin_21*%
%TO.N,A2*%
X106934000Y-98298000D03*
%TO.P,J1,23,Pin_23*%
%TO.N,A3*%
X106934000Y-95758000D03*
%TO.P,J1,25,Pin_25*%
%TO.N,A4*%
X106934000Y-93218000D03*
%TO.P,J1,27,Pin_27*%
%TO.N,A5*%
X106934000Y-90678000D03*
%TO.P,J1,29,Pin_29*%
%TO.N,A6*%
X106934000Y-88138000D03*
%TO.P,J1,31,Pin_31*%
%TO.N,A7*%
X106934000Y-85598000D03*
%TO.P,J1,33,Pin_33*%
%TO.N,_IN*%
X106934000Y-83058000D03*
%TO.P,J1,35,Pin_35*%
%TO.N,_OUT*%
X106934000Y-80518000D03*
%TO.P,J1,37,Pin_37*%
%TO.N,_RESET*%
X106934000Y-77978000D03*
%TO.P,J1,39,Pin_39*%
%TO.N,_IOINT*%
X106934000Y-75438000D03*
%TO.P,J1,41,Pin_41*%
%TO.N,_IOWAIT*%
X106934000Y-72898000D03*
%TO.P,J1,43,Pin_43*%
%TO.N,_EXTIOSEL*%
X106934000Y-70358000D03*
%TO.P,J1,45,Pin_45*%
%TO.N,NC*%
X106934000Y-67818000D03*
%TO.P,J1,47,Pin_47*%
%TO.N,_M1*%
X106934000Y-65278000D03*
%TO.P,J1,49,Pin_49*%
%TO.N,_IORQ*%
X106934000Y-62738000D03*
%TD*%
D23*
%TO.P,Q1,1,G*%
%TO.N,INT*%
X147386000Y-124997500D03*
%TO.P,Q1,2,S*%
%TO.N,GND*%
X149286000Y-124997500D03*
%TO.P,Q1,3,D*%
%TO.N,_IOINT*%
X148336000Y-123122500D03*
%TD*%
D14*
%TO.P,J6,1,Pin_1*%
%TO.N,GND*%
X152800000Y-66675000D03*
D15*
%TO.P,J6,2,Pin_2*%
%TO.N,VIDEO_O*%
X155340000Y-66675000D03*
%TO.P,J6,3,Pin_3*%
%TO.N,GND*%
X157880000Y-66675000D03*
%TO.P,J6,4,Pin_4*%
%TO.N,VSYNC_O*%
X160420000Y-66675000D03*
%TO.P,J6,5,Pin_5*%
%TO.N,GND*%
X162960000Y-66675000D03*
%TO.P,J6,6,Pin_6*%
%TO.N,HSYNC_O*%
X165500000Y-66675000D03*
%TD*%
D13*
%TO.P,R3,1*%
%TO.N,LED_BLUE*%
X211274000Y-108474000D03*
%TO.P,R3,2*%
%TO.N,Net-(D1-Pad3)*%
X211274000Y-110474000D03*
%TD*%
D28*
%TO.P,C10,1*%
%TO.N,Net-(C10-Pad1)*%
X190224500Y-125222000D03*
%TO.P,C10,2*%
%TO.N,GND*%
X192299500Y-125222000D03*
%TD*%
D24*
%TO.P,R4,1*%
%TO.N,Net-(C11-Pad2)*%
X180864000Y-120650000D03*
%TO.P,R4,2*%
%TO.N,CASS_OUT_LEFT*%
X182864000Y-120650000D03*
%TD*%
%TO.P,R6,1*%
%TO.N,Net-(C11-Pad2)*%
X180864000Y-122936000D03*
%TO.P,R6,2*%
%TO.N,GND*%
X182864000Y-122936000D03*
%TD*%
D30*
%TO.P,D1,1,RA*%
%TO.N,Net-(D1-Pad1)*%
X207750000Y-123500000D03*
D31*
%TO.P,D1,2,K*%
%TO.N,GND*%
X209020000Y-123500000D03*
%TO.P,D1,3,BA*%
%TO.N,Net-(D1-Pad3)*%
X210290000Y-123500000D03*
%TO.P,D1,4,GA*%
%TO.N,Net-(D1-Pad4)*%
X211560000Y-123500000D03*
%TD*%
D24*
%TO.P,R5,1*%
%TO.N,Net-(C10-Pad1)*%
X190262000Y-120650000D03*
%TO.P,R5,2*%
%TO.N,CASS_OUT_RIGHT*%
X192262000Y-120650000D03*
%TD*%
D15*
%TO.P,J2,1,Pin_1*%
%TO.N,D0*%
X118867000Y-123703000D03*
%TO.P,J2,2,Pin_2*%
%TO.N,GND*%
X116327000Y-123703000D03*
%TO.P,J2,3,Pin_3*%
%TO.N,D1*%
X118867000Y-121163000D03*
%TO.P,J2,4,Pin_4*%
%TO.N,GND*%
X116327000Y-121163000D03*
%TO.P,J2,5,Pin_5*%
%TO.N,D2*%
X118867000Y-118623000D03*
%TO.P,J2,6,Pin_6*%
%TO.N,GND*%
X116327000Y-118623000D03*
%TO.P,J2,7,Pin_7*%
%TO.N,D3*%
X118867000Y-116083000D03*
%TO.P,J2,8,Pin_8*%
%TO.N,GND*%
X116327000Y-116083000D03*
%TO.P,J2,9,Pin_9*%
%TO.N,D4*%
X118867000Y-113543000D03*
%TO.P,J2,10,Pin_10*%
%TO.N,GND*%
X116327000Y-113543000D03*
%TO.P,J2,11,Pin_11*%
%TO.N,D5*%
X118867000Y-111003000D03*
%TO.P,J2,12,Pin_12*%
%TO.N,GND*%
X116327000Y-111003000D03*
%TO.P,J2,13,Pin_13*%
%TO.N,D6*%
X118867000Y-108463000D03*
%TO.P,J2,14,Pin_14*%
%TO.N,GND*%
X116327000Y-108463000D03*
%TO.P,J2,15,Pin_15*%
%TO.N,D7*%
X118867000Y-105923000D03*
%TO.P,J2,16,Pin_16*%
%TO.N,GND*%
X116327000Y-105923000D03*
%TO.P,J2,17,Pin_17*%
%TO.N,A0*%
X118867000Y-103383000D03*
%TO.P,J2,18,Pin_18*%
%TO.N,GND*%
X116327000Y-103383000D03*
%TO.P,J2,19,Pin_19*%
%TO.N,A1*%
X118867000Y-100843000D03*
%TO.P,J2,20,Pin_20*%
%TO.N,GND*%
X116327000Y-100843000D03*
%TO.P,J2,21,Pin_21*%
%TO.N,A2*%
X118867000Y-98303000D03*
%TO.P,J2,22,Pin_22*%
%TO.N,GND*%
X116327000Y-98303000D03*
%TO.P,J2,23,Pin_23*%
%TO.N,A3*%
X118867000Y-95763000D03*
%TO.P,J2,24,Pin_24*%
%TO.N,GND*%
X116327000Y-95763000D03*
%TO.P,J2,25,Pin_25*%
%TO.N,A4*%
X118867000Y-93223000D03*
%TO.P,J2,26,Pin_26*%
%TO.N,GND*%
X116327000Y-93223000D03*
%TO.P,J2,27,Pin_27*%
%TO.N,A5*%
X118867000Y-90683000D03*
%TO.P,J2,28,Pin_28*%
%TO.N,GND*%
X116327000Y-90683000D03*
%TO.P,J2,29,Pin_29*%
%TO.N,A6*%
X118867000Y-88143000D03*
%TO.P,J2,30,Pin_30*%
%TO.N,GND*%
X116327000Y-88143000D03*
%TO.P,J2,31,Pin_31*%
%TO.N,A7*%
X118867000Y-85603000D03*
%TO.P,J2,32,Pin_32*%
%TO.N,GND*%
X116327000Y-85603000D03*
%TO.P,J2,33,Pin_33*%
%TO.N,_IN*%
X118867000Y-83063000D03*
%TO.P,J2,34,Pin_34*%
%TO.N,GND*%
X116327000Y-83063000D03*
%TO.P,J2,35,Pin_35*%
%TO.N,_OUT*%
X118867000Y-80523000D03*
%TO.P,J2,36,Pin_36*%
%TO.N,GND*%
X116327000Y-80523000D03*
%TO.P,J2,37,Pin_37*%
%TO.N,_RESET*%
X118867000Y-77983000D03*
%TO.P,J2,38,Pin_38*%
%TO.N,GND*%
X116327000Y-77983000D03*
%TO.P,J2,39,Pin_39*%
%TO.N,_IOINT*%
X118867000Y-75443000D03*
%TO.P,J2,40,Pin_40*%
%TO.N,GND*%
X116327000Y-75443000D03*
%TO.P,J2,41,Pin_41*%
%TO.N,_IOWAIT*%
X118867000Y-72903000D03*
%TO.P,J2,42,Pin_42*%
%TO.N,GND*%
X116327000Y-72903000D03*
%TO.P,J2,43,Pin_43*%
%TO.N,_EXTIOSEL*%
X118867000Y-70363000D03*
%TO.P,J2,44,Pin_44*%
%TO.N,GND*%
X116327000Y-70363000D03*
%TO.P,J2,45,Pin_45*%
%TO.N,NC*%
X118867000Y-67823000D03*
%TO.P,J2,46,Pin_46*%
%TO.N,GND*%
X116327000Y-67823000D03*
%TO.P,J2,47,Pin_47*%
%TO.N,_M1*%
X118867000Y-65283000D03*
%TO.P,J2,48,Pin_48*%
%TO.N,GND*%
X116327000Y-65283000D03*
%TO.P,J2,49,Pin_49*%
%TO.N,_IORQ*%
X118867000Y-62743000D03*
D14*
%TO.P,J2,50,Pin_50*%
%TO.N,GND*%
X116327000Y-62743000D03*
%TD*%
D25*
%TO.P,C11,1*%
%TO.N,Net-(C11-Pad1)*%
X183934500Y-127762000D03*
%TO.P,C11,2*%
%TO.N,Net-(C11-Pad2)*%
X180809500Y-127762000D03*
%TD*%
D18*
%TO.P,C2,1*%
%TO.N,+3V3*%
X143800000Y-106387500D03*
%TO.P,C2,2*%
%TO.N,GND*%
X143800000Y-104312500D03*
%TD*%
D32*
%TO.P,SW1,1,1*%
%TO.N,GND*%
X226250000Y-125750000D03*
X219750000Y-125750000D03*
%TO.P,SW1,2,2*%
%TO.N,BUTTON*%
X226250000Y-121250000D03*
X219750000Y-121250000D03*
%TD*%
D21*
%TO.P,U1,1,VCCA*%
%TO.N,+3V3*%
X143837500Y-92800000D03*
%TO.P,U1,2,DIR*%
X143837500Y-93450000D03*
%TO.P,U1,3,A1*%
%TO.N,A7*%
X143837500Y-94100000D03*
%TO.P,U1,4,A2*%
%TO.N,A6*%
X143837500Y-94750000D03*
%TO.P,U1,5,A3*%
%TO.N,A5*%
X143837500Y-95400000D03*
%TO.P,U1,6,A4*%
%TO.N,A4*%
X143837500Y-96050000D03*
%TO.P,U1,7,A5*%
%TO.N,A3*%
X143837500Y-96700000D03*
%TO.P,U1,8,A6*%
%TO.N,A2*%
X143837500Y-97350000D03*
%TO.P,U1,9,A7*%
%TO.N,A1*%
X143837500Y-98000000D03*
%TO.P,U1,10,A8*%
%TO.N,A0*%
X143837500Y-98650000D03*
%TO.P,U1,11,GND*%
%TO.N,GND*%
X143837500Y-99300000D03*
%TO.P,U1,12,GND*%
X143837500Y-99950000D03*
%TO.P,U1,13,GND*%
X149562500Y-99950000D03*
%TO.P,U1,14,B8*%
%TO.N,A0D7*%
X149562500Y-99300000D03*
%TO.P,U1,15,B7*%
%TO.N,A1D6*%
X149562500Y-98650000D03*
%TO.P,U1,16,B6*%
%TO.N,A2D5*%
X149562500Y-98000000D03*
%TO.P,U1,17,B5*%
%TO.N,A3D4*%
X149562500Y-97350000D03*
%TO.P,U1,18,B4*%
%TO.N,A4D3*%
X149562500Y-96700000D03*
%TO.P,U1,19,B3*%
%TO.N,A5D2*%
X149562500Y-96050000D03*
%TO.P,U1,20,B2*%
%TO.N,A6D1*%
X149562500Y-95400000D03*
%TO.P,U1,21,B1*%
%TO.N,A7D0*%
X149562500Y-94750000D03*
%TO.P,U1,22,OEn*%
%TO.N,ABUS_SEL_N*%
X149562500Y-94100000D03*
%TO.P,U1,23,VCCB*%
%TO.N,+1V8*%
X149562500Y-93450000D03*
%TO.P,U1,24,VCCB*%
X149562500Y-92800000D03*
%TD*%
D25*
%TO.P,C5,1*%
%TO.N,+3V3*%
X158731500Y-111138000D03*
%TO.P,C5,2*%
%TO.N,GND*%
X155606500Y-111138000D03*
%TD*%
D28*
%TO.P,C8,1*%
%TO.N,VIDEO_O*%
X155375000Y-72550000D03*
%TO.P,C8,2*%
%TO.N,GND*%
X157450000Y-72550000D03*
%TD*%
D33*
%TO.P,U3,1,A->B*%
%TO.N,+3V3*%
X143200000Y-78375000D03*
%TO.P,U3,2,A0*%
%TO.N,HSYNC*%
X143200000Y-79025000D03*
%TO.P,U3,3,A1*%
%TO.N,VSYNC*%
X143200000Y-79675000D03*
%TO.P,U3,4,A2*%
%TO.N,VIDEO*%
X143200000Y-80325000D03*
%TO.P,U3,5,A3*%
%TO.N,_IORQ*%
X143200000Y-80975000D03*
%TO.P,U3,6,A4*%
%TO.N,_M1*%
X143200000Y-81625000D03*
%TO.P,U3,7,A5*%
%TO.N,_RESET*%
X143200000Y-82275000D03*
%TO.P,U3,8,A6*%
%TO.N,_OUT*%
X143200000Y-82925000D03*
%TO.P,U3,9,A7*%
%TO.N,_IN*%
X143200000Y-83575000D03*
%TO.P,U3,10,GND*%
%TO.N,GND*%
X143200000Y-84225000D03*
%TO.P,U3,11,B7*%
%TO.N,_INX*%
X150200000Y-84225000D03*
%TO.P,U3,12,B6*%
%TO.N,_OUTX*%
X150200000Y-83575000D03*
%TO.P,U3,13,B5*%
%TO.N,_RESETX*%
X150200000Y-82925000D03*
%TO.P,U3,14,B4*%
%TO.N,_M1X*%
X150200000Y-82275000D03*
%TO.P,U3,15,B3*%
%TO.N,_IORQX*%
X150200000Y-81625000D03*
%TO.P,U3,16,B2*%
%TO.N,VIDEOX*%
X150200000Y-80975000D03*
%TO.P,U3,17,B1*%
%TO.N,VSYNCX*%
X150200000Y-80325000D03*
%TO.P,U3,18,B0*%
%TO.N,HSYNCX*%
X150200000Y-79675000D03*
%TO.P,U3,19,CE*%
%TO.N,GND*%
X150200000Y-79025000D03*
%TO.P,U3,20,VCC*%
%TO.N,+3V3*%
X150200000Y-78375000D03*
%TD*%
D14*
%TO.P,J3,1,Pin_1*%
%TO.N,unconnected-(J3-Pad1)*%
X230150000Y-114150000D03*
D15*
%TO.P,J3,2,Pin_2*%
%TO.N,unconnected-(J3-Pad2)*%
X230150000Y-111610000D03*
%TO.P,J3,3,Pin_3*%
%TO.N,unconnected-(J3-Pad3)*%
X230150000Y-109070000D03*
%TO.P,J3,4,Pin_4*%
%TO.N,unconnected-(J3-Pad4)*%
X230150000Y-106530000D03*
%TO.P,J3,5,Pin_5*%
%TO.N,REQ*%
X230150000Y-103990000D03*
%TO.P,J3,6,Pin_6*%
%TO.N,unconnected-(J3-Pad6)*%
X230150000Y-101450000D03*
%TO.P,J3,7,Pin_7*%
%TO.N,LED_BLUE*%
X230150000Y-98910000D03*
%TO.P,J3,8,Pin_8*%
%TO.N,unconnected-(J3-Pad8)*%
X230150000Y-96370000D03*
%TO.P,J3,9,Pin_9*%
%TO.N,unconnected-(J3-Pad9)*%
X230150000Y-93830000D03*
%TO.P,J3,10,Pin_10*%
%TO.N,unconnected-(J3-Pad10)*%
X230150000Y-91290000D03*
%TO.P,J3,11,Pin_11*%
%TO.N,DONE*%
X230150000Y-88750000D03*
%TO.P,J3,12,Pin_12*%
%TO.N,SCK*%
X230150000Y-86210000D03*
%TO.P,J3,13,Pin_13*%
%TO.N,MISO*%
X230150000Y-83670000D03*
%TO.P,J3,14,Pin_14*%
%TO.N,GND*%
X230150000Y-81130000D03*
%TO.P,J3,15,Pin_15*%
%TO.N,MOSI*%
X230150000Y-78590000D03*
%TO.P,J3,16,Pin_16*%
%TO.N,unconnected-(J3-Pad16)*%
X230150000Y-76050000D03*
%TO.P,J3,17,Pin_17*%
%TO.N,unconnected-(J3-Pad17)*%
X230150000Y-73510000D03*
%TO.P,J3,18,Pin_18*%
%TO.N,unconnected-(J3-Pad18)*%
X230150000Y-70970000D03*
%TO.P,J3,19,Pin_19*%
%TO.N,+5V*%
X230150000Y-68430000D03*
%TD*%
D12*
%TO.P,R10,1*%
%TO.N,VIDEO*%
X131810000Y-74930000D03*
%TO.P,R10,2*%
%TO.N,GND*%
X129810000Y-74930000D03*
%TD*%
D23*
%TO.P,Q3,1,G*%
%TO.N,EXTIOSEL*%
X134686000Y-124997500D03*
%TO.P,Q3,2,S*%
%TO.N,GND*%
X136586000Y-124997500D03*
%TO.P,Q3,3,D*%
%TO.N,_EXTIOSEL*%
X135636000Y-123122500D03*
%TD*%
D34*
%TO.N,GND*%
X150876000Y-124968000D03*
X149550000Y-101950000D03*
X184912000Y-125222000D03*
X137922000Y-124968000D03*
X143750000Y-117150000D03*
X153924000Y-110998000D03*
X161036000Y-128778000D03*
X153924000Y-106426000D03*
X144272000Y-124968000D03*
X194310000Y-125222000D03*
X143850000Y-101950000D03*
%TO.N,+3V3*%
X158750000Y-109728000D03*
X140900000Y-78450000D03*
X140900000Y-92800000D03*
X140900000Y-108150000D03*
X161569000Y-112838000D03*
%TO.N,_IOINT*%
X148336000Y-121666000D03*
%TO.N,_IOWAIT*%
X141986000Y-120904000D03*
%TO.N,_EXTIOSEL*%
X135636000Y-120142000D03*
%TO.N,A2D5*%
X157480000Y-98044000D03*
%TO.N,A0D7*%
X159258000Y-99568000D03*
%TO.N,A1D6*%
X158242000Y-98806000D03*
%TO.N,+1V8*%
X151500000Y-92850000D03*
X151525000Y-108175000D03*
%TO.N,VIDEO*%
X136144000Y-74930000D03*
%TO.N,VSYNC*%
X136906000Y-72644000D03*
%TO.N,HSYNC*%
X137668000Y-70358000D03*
%TO.N,A3D4*%
X156550000Y-97300000D03*
%TO.N,A4D3*%
X155400000Y-96650000D03*
%TO.N,A5D2*%
X154350000Y-96050000D03*
%TO.N,READ_N*%
X145025500Y-108850000D03*
%TO.N,A6D1*%
X153582448Y-95293852D03*
%TO.N,A7D0*%
X152700000Y-94824500D03*
%TO.N,DBUS_SEL_N*%
X158750000Y-108712000D03*
%TO.N,LED_GREEN*%
X214122000Y-97536000D03*
%TO.N,LED_BLUE*%
X211328000Y-99060000D03*
%TO.N,Net-(C11-Pad1)*%
X175768000Y-128778000D03*
%TO.N,CASS_OUT_RIGHT*%
X192278000Y-103632000D03*
%TD*%
D35*
%TO.N,+5V*%
X171300000Y-60475000D02*
X171300000Y-58570000D01*
X230150000Y-68430000D02*
X227643500Y-68430000D01*
X226060000Y-57404000D02*
X227610000Y-58954000D01*
X172466000Y-57404000D02*
X226060000Y-57404000D01*
X227643500Y-68430000D02*
X227610000Y-68463500D01*
X171300000Y-58570000D02*
X172466000Y-57404000D01*
X227610000Y-58954000D02*
X227610000Y-68463500D01*
D36*
%TO.N,GND*%
X192262000Y-125184500D02*
X192299500Y-125222000D01*
X149562500Y-101937500D02*
X149550000Y-101950000D01*
X149562500Y-99950000D02*
X149562500Y-101937500D01*
X143800000Y-104312500D02*
X143800000Y-102000000D01*
X130429000Y-66675000D02*
X133600000Y-66675000D01*
X155956000Y-104394000D02*
X155656500Y-104693500D01*
X150400000Y-74162500D02*
X155837500Y-74162500D01*
X129810000Y-70358000D02*
X129810000Y-67294000D01*
X145425000Y-84225000D02*
X143200000Y-84225000D01*
X143837500Y-115325000D02*
X149562500Y-115325000D01*
X146650000Y-79650000D02*
X146650000Y-83000000D01*
X144242500Y-124997500D02*
X144272000Y-124968000D01*
X129810000Y-72644000D02*
X129810000Y-74930000D01*
X155656500Y-106338000D02*
X154012000Y-106338000D01*
X164084000Y-128778000D02*
X161036000Y-128778000D01*
X143837500Y-99300000D02*
X143837500Y-99950000D01*
X143837500Y-101937500D02*
X143850000Y-101950000D01*
X154064000Y-111138000D02*
X153924000Y-110998000D01*
X129810000Y-70358000D02*
X129810000Y-72644000D01*
X143200000Y-88162500D02*
X143850000Y-88812500D01*
X149650000Y-104312500D02*
X149650000Y-102050000D01*
X143837500Y-117062500D02*
X143750000Y-117150000D01*
X155606500Y-111138000D02*
X154064000Y-111138000D01*
X192262000Y-122936000D02*
X192262000Y-125184500D01*
X182864000Y-122936000D02*
X182864000Y-125184500D01*
X161290000Y-104394000D02*
X155956000Y-104394000D01*
X136586000Y-124997500D02*
X137892500Y-124997500D01*
X192299500Y-125222000D02*
X194310000Y-125222000D01*
X151725000Y-79025000D02*
X152300000Y-78450000D01*
X182901500Y-125222000D02*
X184912000Y-125222000D01*
X157880000Y-72120000D02*
X157880000Y-66675000D01*
X182864000Y-125184500D02*
X182901500Y-125222000D01*
X143800000Y-102000000D02*
X143850000Y-101950000D01*
X150200000Y-79025000D02*
X147275000Y-79025000D01*
X149650000Y-102050000D02*
X149550000Y-101950000D01*
X142936000Y-124997500D02*
X144242500Y-124997500D01*
X149600000Y-88812500D02*
X143850000Y-88812500D01*
X155637500Y-115500000D02*
X155637500Y-110750000D01*
X155837500Y-74162500D02*
X157450000Y-72550000D01*
X137892500Y-124997500D02*
X137922000Y-124968000D01*
X150846500Y-124997500D02*
X150876000Y-124968000D01*
X146650000Y-83000000D02*
X145425000Y-84225000D01*
X129810000Y-67294000D02*
X130429000Y-66675000D01*
X143837500Y-114675000D02*
X143837500Y-115325000D01*
X155656500Y-104693500D02*
X155656500Y-106338000D01*
X155637500Y-115500000D02*
X149737500Y-115500000D01*
X143837500Y-115325000D02*
X143837500Y-117062500D01*
X152300000Y-74800000D02*
X151662500Y-74162500D01*
X157450000Y-72550000D02*
X157880000Y-72120000D01*
X149286000Y-124997500D02*
X150846500Y-124997500D01*
X161544000Y-106433000D02*
X161544000Y-104648000D01*
X152300000Y-78450000D02*
X152300000Y-74800000D01*
X149737500Y-115500000D02*
X149562500Y-115325000D01*
X147275000Y-79025000D02*
X146650000Y-79650000D01*
X161544000Y-104648000D02*
X161290000Y-104394000D01*
X143837500Y-99950000D02*
X143837500Y-101937500D01*
X143200000Y-84225000D02*
X143200000Y-88162500D01*
X150200000Y-79025000D02*
X151725000Y-79025000D01*
X154012000Y-106338000D02*
X153924000Y-106426000D01*
X151662500Y-74162500D02*
X150400000Y-74162500D01*
D35*
%TO.N,+3V3*%
X143837500Y-92800000D02*
X143837500Y-93450000D01*
X150400000Y-78175000D02*
X150250190Y-78324810D01*
X150400000Y-76237500D02*
X150400000Y-78175000D01*
X143850000Y-92787500D02*
X143837500Y-92800000D01*
X140900000Y-78450000D02*
X141025190Y-78324810D01*
X161544000Y-110993000D02*
X158876500Y-110993000D01*
X140925000Y-108175000D02*
X140900000Y-108150000D01*
X158750000Y-111119500D02*
X158731500Y-111138000D01*
X141025190Y-78324810D02*
X143149810Y-78324810D01*
X143850000Y-90887500D02*
X143850000Y-92787500D01*
X143800000Y-108137500D02*
X143837500Y-108175000D01*
X158750000Y-109728000D02*
X158750000Y-111119500D01*
D36*
X150200000Y-78375000D02*
X143200000Y-78375000D01*
D35*
X143837500Y-108175000D02*
X140925000Y-108175000D01*
X150250190Y-78324810D02*
X150200000Y-78324810D01*
X143800000Y-106387500D02*
X143800000Y-108137500D01*
X161544000Y-110993000D02*
X161544000Y-112813000D01*
X143837500Y-92800000D02*
X140900000Y-92800000D01*
D36*
%TO.N,VIDEO_O*%
X155340000Y-72515000D02*
X155340000Y-66675000D01*
X155375000Y-72550000D02*
X155340000Y-72515000D01*
%TO.N,_IN*%
X117637367Y-81833367D02*
X118867000Y-83063000D01*
X134963000Y-83063000D02*
X135575000Y-83675000D01*
X106934000Y-83058000D02*
X114558000Y-83058000D01*
X114558000Y-83058000D02*
X115782633Y-81833367D01*
X118867000Y-83063000D02*
X134963000Y-83063000D01*
X135575000Y-83675000D02*
X142925000Y-83675000D01*
X115782633Y-81833367D02*
X117637367Y-81833367D01*
%TO.N,_OUT*%
X136125000Y-82925000D02*
X143200000Y-82925000D01*
X106934000Y-80518000D02*
X114532000Y-80518000D01*
X117507367Y-79163367D02*
X118867000Y-80523000D01*
X118867000Y-80523000D02*
X134973000Y-80523000D01*
X114532000Y-80518000D02*
X115886633Y-79163367D01*
X134973000Y-80523000D02*
X135500000Y-81050000D01*
X135500000Y-81050000D02*
X135500000Y-82300000D01*
X135500000Y-82300000D02*
X136125000Y-82925000D01*
X115886633Y-79163367D02*
X117507367Y-79163367D01*
%TO.N,_RESET*%
X114522000Y-77978000D02*
X115706633Y-76793367D01*
X117677367Y-76793367D02*
X118867000Y-77983000D01*
X118867000Y-77983000D02*
X135360000Y-77983000D01*
X135900000Y-78523000D02*
X135900000Y-81650000D01*
X115706633Y-76793367D02*
X117677367Y-76793367D01*
X136525000Y-82275000D02*
X143200000Y-82275000D01*
X135360000Y-77983000D02*
X135900000Y-78523000D01*
X135900000Y-81650000D02*
X136525000Y-82275000D01*
X106934000Y-77978000D02*
X114522000Y-77978000D01*
%TO.N,_IOINT*%
X114512000Y-75438000D02*
X115726633Y-74223367D01*
X106934000Y-75438000D02*
X114512000Y-75438000D01*
X115726633Y-74223367D02*
X117647367Y-74223367D01*
X117647367Y-74223367D02*
X118867000Y-75443000D01*
X148336000Y-121666000D02*
X148336000Y-123122500D01*
%TO.N,_IOWAIT*%
X141986000Y-120904000D02*
X141986000Y-123122500D01*
X114598000Y-72898000D02*
X115743000Y-71753000D01*
X115743000Y-71753000D02*
X117717000Y-71753000D01*
X106934000Y-72898000D02*
X114598000Y-72898000D01*
X117717000Y-71753000D02*
X118867000Y-72903000D01*
%TO.N,_EXTIOSEL*%
X106934000Y-70358000D02*
X114492000Y-70358000D01*
X114492000Y-70358000D02*
X115700000Y-69150000D01*
X135636000Y-120142000D02*
X135636000Y-123122500D01*
X115700000Y-69150000D02*
X117654000Y-69150000D01*
X117654000Y-69150000D02*
X118867000Y-70363000D01*
%TO.N,NC*%
X117707367Y-66663367D02*
X118867000Y-67823000D01*
X115736633Y-66663367D02*
X117707367Y-66663367D01*
X114582000Y-67818000D02*
X115736633Y-66663367D01*
X106934000Y-67818000D02*
X114582000Y-67818000D01*
%TO.N,_M1*%
X114522000Y-65278000D02*
X115667000Y-64133000D01*
X136450000Y-77776000D02*
X136450000Y-81100000D01*
X121133000Y-65283000D02*
X121800000Y-65950000D01*
X115667000Y-64133000D02*
X117717000Y-64133000D01*
X136975000Y-81625000D02*
X143200000Y-81625000D01*
X136450000Y-81100000D02*
X136975000Y-81625000D01*
X118867000Y-65283000D02*
X121133000Y-65283000D01*
X117717000Y-64133000D02*
X118867000Y-65283000D01*
X121800000Y-65950000D02*
X121800000Y-76900000D01*
X106934000Y-65278000D02*
X114522000Y-65278000D01*
X122400000Y-77500000D02*
X136174000Y-77500000D01*
X121800000Y-76900000D02*
X122400000Y-77500000D01*
X136174000Y-77500000D02*
X136450000Y-77776000D01*
%TO.N,_IORQ*%
X120493000Y-62743000D02*
X122350000Y-64600000D01*
X114488000Y-62282000D02*
X115177000Y-61593000D01*
X137050000Y-80500000D02*
X137525000Y-80975000D01*
X115177000Y-61593000D02*
X117717000Y-61593000D01*
X137525000Y-80975000D02*
X143200000Y-80975000D01*
X122350000Y-64600000D02*
X122350000Y-76550000D01*
X122800000Y-77000000D02*
X136690000Y-77000000D01*
X136690000Y-77000000D02*
X137050000Y-77360000D01*
X114488000Y-62738000D02*
X114488000Y-62282000D01*
X117717000Y-61593000D02*
X118867000Y-62743000D01*
X137050000Y-77360000D02*
X137050000Y-80500000D01*
X118867000Y-62743000D02*
X120493000Y-62743000D01*
X122350000Y-76550000D02*
X122800000Y-77000000D01*
X106934000Y-62738000D02*
X114488000Y-62738000D01*
%TO.N,A2D5*%
X149562500Y-98000000D02*
X157436000Y-98000000D01*
X147725000Y-110325000D02*
X148825000Y-111425000D01*
X149562500Y-98000000D02*
X148909315Y-98000000D01*
X157436000Y-98000000D02*
X157480000Y-98044000D01*
X148909315Y-98000000D02*
X147725000Y-99184315D01*
X147725000Y-99184315D02*
X147725000Y-110325000D01*
X148825000Y-111425000D02*
X149562500Y-111425000D01*
%TO.N,D4*%
X114462000Y-113538000D02*
X115847000Y-112153000D01*
X117477000Y-112153000D02*
X118867000Y-113543000D01*
X115847000Y-112153000D02*
X117477000Y-112153000D01*
X143837500Y-111425000D02*
X135025000Y-111425000D01*
X132907000Y-113543000D02*
X118867000Y-113543000D01*
X106934000Y-113538000D02*
X114462000Y-113538000D01*
X135025000Y-111425000D02*
X132907000Y-113543000D01*
%TO.N,A0D7*%
X148525000Y-109875000D02*
X148775000Y-110125000D01*
X149562500Y-99300000D02*
X148750000Y-99300000D01*
X148750000Y-99300000D02*
X148525000Y-99525000D01*
D37*
X150622000Y-99568000D02*
X150368000Y-99314000D01*
D36*
X148775000Y-110125000D02*
X149562500Y-110125000D01*
D37*
X159258000Y-99568000D02*
X150622000Y-99568000D01*
D36*
X148525000Y-99525000D02*
X148525000Y-109875000D01*
%TO.N,D7*%
X117680000Y-104736000D02*
X118867000Y-105923000D01*
X134600000Y-109000000D02*
X134600000Y-106500000D01*
X143837500Y-109475000D02*
X135075000Y-109475000D01*
X106934000Y-105918000D02*
X114568000Y-105918000D01*
X115750000Y-104736000D02*
X117680000Y-104736000D01*
X114568000Y-105918000D02*
X115750000Y-104736000D01*
X134023000Y-105923000D02*
X118867000Y-105923000D01*
X135075000Y-109475000D02*
X134600000Y-109000000D01*
X134600000Y-106500000D02*
X134023000Y-105923000D01*
%TO.N,A1D6*%
X148125000Y-110040686D02*
X148859314Y-110775000D01*
X148834315Y-98650000D02*
X148125000Y-99359315D01*
X148125000Y-99359315D02*
X148125000Y-110040686D01*
X148859314Y-110775000D02*
X149562500Y-110775000D01*
X149656500Y-98744000D02*
X158180000Y-98744000D01*
X149562500Y-98650000D02*
X149656500Y-98744000D01*
X158180000Y-98744000D02*
X158242000Y-98806000D01*
X149562500Y-98650000D02*
X148834315Y-98650000D01*
X149712500Y-98800000D02*
X149562500Y-98650000D01*
%TO.N,D1*%
X106934000Y-121158000D02*
X114592000Y-121158000D01*
X143837500Y-113375000D02*
X136525000Y-113375000D01*
X136100000Y-118300000D02*
X135377000Y-119023000D01*
X136100000Y-113800000D02*
X136100000Y-118300000D01*
X115737000Y-120013000D02*
X117717000Y-120013000D01*
X117717000Y-120013000D02*
X118867000Y-121163000D01*
X135377000Y-119023000D02*
X121007000Y-119023000D01*
X121007000Y-119023000D02*
X118867000Y-121163000D01*
X136525000Y-113375000D02*
X136100000Y-113800000D01*
X114592000Y-121158000D02*
X115737000Y-120013000D01*
%TO.N,D6*%
X143837500Y-110125000D02*
X134675000Y-110125000D01*
X117717000Y-107313000D02*
X118867000Y-108463000D01*
X133013000Y-108463000D02*
X118867000Y-108463000D01*
X106934000Y-108458000D02*
X114542000Y-108458000D01*
X115687000Y-107313000D02*
X117717000Y-107313000D01*
X114542000Y-108458000D02*
X115687000Y-107313000D01*
X134675000Y-110125000D02*
X133013000Y-108463000D01*
%TO.N,A0*%
X134150000Y-99100000D02*
X134150000Y-102750000D01*
X143837500Y-98650000D02*
X134600000Y-98650000D01*
X134150000Y-102750000D02*
X133517000Y-103383000D01*
X133517000Y-103383000D02*
X118867000Y-103383000D01*
X134600000Y-98650000D02*
X134150000Y-99100000D01*
X114522000Y-103378000D02*
X115850654Y-102049346D01*
X115850654Y-102049346D02*
X117533346Y-102049346D01*
X106934000Y-103378000D02*
X114522000Y-103378000D01*
X117533346Y-102049346D02*
X118867000Y-103383000D01*
%TO.N,D3*%
X114528000Y-116078000D02*
X115673000Y-114933000D01*
X134950000Y-115450000D02*
X134317000Y-116083000D01*
X117717000Y-114933000D02*
X118867000Y-116083000D01*
X143837500Y-112075000D02*
X135325000Y-112075000D01*
X134317000Y-116083000D02*
X118867000Y-116083000D01*
X134950000Y-112450000D02*
X134950000Y-115450000D01*
X106934000Y-116078000D02*
X114528000Y-116078000D01*
X135325000Y-112075000D02*
X134950000Y-112450000D01*
X115673000Y-114933000D02*
X117717000Y-114933000D01*
%TO.N,A1*%
X106934000Y-100838000D02*
X114462000Y-100838000D01*
X134150000Y-98000000D02*
X133700000Y-98450000D01*
X117672367Y-99648367D02*
X118867000Y-100843000D01*
X114462000Y-100838000D02*
X115651633Y-99648367D01*
X115651633Y-99648367D02*
X117672367Y-99648367D01*
X143837500Y-98000000D02*
X134150000Y-98000000D01*
X133107000Y-100843000D02*
X118867000Y-100843000D01*
X133700000Y-98450000D02*
X133700000Y-100250000D01*
X133700000Y-100250000D02*
X133107000Y-100843000D01*
%TO.N,D5*%
X115693000Y-109853000D02*
X117717000Y-109853000D01*
X143837500Y-110775000D02*
X119095000Y-110775000D01*
X114548000Y-110998000D02*
X115693000Y-109853000D01*
X106934000Y-110998000D02*
X114548000Y-110998000D01*
X119095000Y-110775000D02*
X118867000Y-111003000D01*
X117717000Y-109853000D02*
X118867000Y-111003000D01*
%TO.N,D0*%
X121277000Y-119423000D02*
X135927000Y-119423000D01*
X136550000Y-118800000D02*
X136550000Y-114650000D01*
X106934000Y-123698000D02*
X114548000Y-123698000D01*
X120650000Y-120050000D02*
X121277000Y-119423000D01*
X120650000Y-121920000D02*
X120650000Y-120050000D01*
X117717000Y-122553000D02*
X118867000Y-123703000D01*
X136550000Y-114650000D02*
X137175000Y-114025000D01*
X118867000Y-123703000D02*
X120650000Y-121920000D01*
X114548000Y-123698000D02*
X115693000Y-122553000D01*
X137175000Y-114025000D02*
X143837500Y-114025000D01*
X135927000Y-119423000D02*
X136550000Y-118800000D01*
X115693000Y-122553000D02*
X117717000Y-122553000D01*
%TO.N,A4*%
X134350000Y-96050000D02*
X134000000Y-95700000D01*
X133373000Y-93223000D02*
X118867000Y-93223000D01*
X134000000Y-95700000D02*
X134000000Y-93850000D01*
X134000000Y-93850000D02*
X133373000Y-93223000D01*
X117632367Y-91988367D02*
X118867000Y-93223000D01*
X114432000Y-93218000D02*
X115661633Y-91988367D01*
X115661633Y-91988367D02*
X117632367Y-91988367D01*
X143837500Y-96050000D02*
X134350000Y-96050000D01*
X106934000Y-93218000D02*
X114432000Y-93218000D01*
%TO.N,D2*%
X135550000Y-113000000D02*
X135550000Y-117950000D01*
X115613000Y-117473000D02*
X117717000Y-117473000D01*
X114468000Y-118618000D02*
X115613000Y-117473000D01*
X106934000Y-118618000D02*
X114468000Y-118618000D01*
X134877000Y-118623000D02*
X118867000Y-118623000D01*
X135550000Y-117950000D02*
X134877000Y-118623000D01*
X135825000Y-112725000D02*
X135550000Y-113000000D01*
X143837500Y-112725000D02*
X135825000Y-112725000D01*
X117717000Y-117473000D02*
X118867000Y-118623000D01*
%TO.N,A3*%
X115877000Y-94373000D02*
X117477000Y-94373000D01*
X133900000Y-96700000D02*
X132963000Y-95763000D01*
X132963000Y-95763000D02*
X118867000Y-95763000D01*
X114492000Y-95758000D02*
X115877000Y-94373000D01*
X117477000Y-94373000D02*
X118867000Y-95763000D01*
X143837500Y-96700000D02*
X133900000Y-96700000D01*
X106934000Y-95758000D02*
X114492000Y-95758000D01*
%TO.N,A5*%
X117584000Y-89400000D02*
X118867000Y-90683000D01*
X106934000Y-90678000D02*
X114522000Y-90678000D01*
X134500000Y-91250000D02*
X133933000Y-90683000D01*
X143837500Y-95400000D02*
X135050000Y-95400000D01*
X115800000Y-89400000D02*
X117584000Y-89400000D01*
X135050000Y-95400000D02*
X134500000Y-94850000D01*
X134500000Y-94850000D02*
X134500000Y-91250000D01*
X133933000Y-90683000D02*
X118867000Y-90683000D01*
X114522000Y-90678000D02*
X115800000Y-89400000D01*
%TO.N,A7*%
X117717000Y-84453000D02*
X118867000Y-85603000D01*
X135550000Y-93550000D02*
X135550000Y-86250000D01*
X106934000Y-85598000D02*
X114548000Y-85598000D01*
X143837500Y-94100000D02*
X136100000Y-94100000D01*
X115693000Y-84453000D02*
X117717000Y-84453000D01*
X134903000Y-85603000D02*
X118867000Y-85603000D01*
X135550000Y-86250000D02*
X134903000Y-85603000D01*
X136100000Y-94100000D02*
X135550000Y-93550000D01*
X114548000Y-85598000D02*
X115693000Y-84453000D01*
%TO.N,A6*%
X115776633Y-86823367D02*
X117547367Y-86823367D01*
X117547367Y-86823367D02*
X118867000Y-88143000D01*
X106934000Y-88138000D02*
X114462000Y-88138000D01*
X135050000Y-88750000D02*
X134443000Y-88143000D01*
X134443000Y-88143000D02*
X118867000Y-88143000D01*
X135500000Y-94750000D02*
X135050000Y-94300000D01*
X114462000Y-88138000D02*
X115776633Y-86823367D01*
X143837500Y-94750000D02*
X135500000Y-94750000D01*
X135050000Y-94300000D02*
X135050000Y-88750000D01*
%TO.N,A2*%
X114502000Y-98298000D02*
X115821633Y-96978367D01*
X143837500Y-97350000D02*
X133850000Y-97350000D01*
X133850000Y-97350000D02*
X132897000Y-98303000D01*
X117542367Y-96978367D02*
X118867000Y-98303000D01*
X132897000Y-98303000D02*
X118867000Y-98303000D01*
X115821633Y-96978367D02*
X117542367Y-96978367D01*
X106934000Y-98298000D02*
X114502000Y-98298000D01*
%TO.N,WAIT*%
X157226000Y-114300000D02*
X156718000Y-114808000D01*
X140970000Y-125063500D02*
X141036000Y-124997500D01*
X156210000Y-127254000D02*
X141478000Y-127254000D01*
X172917000Y-107245000D02*
X172212000Y-107950000D01*
X172212000Y-107950000D02*
X172212000Y-113792000D01*
X156718000Y-126746000D02*
X156210000Y-127254000D01*
X175520000Y-107245000D02*
X172917000Y-107245000D01*
X156718000Y-114808000D02*
X156718000Y-126746000D01*
X172212000Y-113792000D02*
X171704000Y-114300000D01*
X140970000Y-126746000D02*
X140970000Y-125063500D01*
X171704000Y-114300000D02*
X157226000Y-114300000D01*
X141478000Y-127254000D02*
X140970000Y-126746000D01*
D35*
%TO.N,+1V8*%
X157925000Y-108175000D02*
X151525000Y-108175000D01*
D37*
X149562500Y-108175000D02*
X149562500Y-108825000D01*
D35*
X158781500Y-106338000D02*
X158781500Y-107318500D01*
D37*
X149612500Y-92850000D02*
X149562500Y-92800000D01*
D35*
X161156500Y-108713000D02*
X158781500Y-106338000D01*
X151525000Y-108175000D02*
X149562500Y-108175000D01*
D37*
X151500000Y-92850000D02*
X149612500Y-92850000D01*
D35*
X158781500Y-107318500D02*
X157925000Y-108175000D01*
X161544000Y-108713000D02*
X167844000Y-108713000D01*
D37*
X149600000Y-90887500D02*
X149600000Y-92762500D01*
X149600000Y-92762500D02*
X149562500Y-92800000D01*
X149562500Y-92800000D02*
X149562500Y-93450000D01*
X149650000Y-106387500D02*
X149650000Y-108087500D01*
X149650000Y-108087500D02*
X149562500Y-108175000D01*
D36*
%TO.N,VIDEO*%
X137160000Y-74930000D02*
X136144000Y-74930000D01*
X137668000Y-75438000D02*
X137160000Y-74930000D01*
X138237000Y-80325000D02*
X137668000Y-79756000D01*
X143200000Y-80325000D02*
X138237000Y-80325000D01*
X137668000Y-79756000D02*
X137668000Y-75438000D01*
X136144000Y-74930000D02*
X131810000Y-74930000D01*
%TO.N,VSYNC*%
X138857000Y-79675000D02*
X138430000Y-79248000D01*
X136906000Y-72644000D02*
X131810000Y-72644000D01*
X143200000Y-79675000D02*
X138857000Y-79675000D01*
X138430000Y-72898000D02*
X138176000Y-72644000D01*
X138176000Y-72644000D02*
X136906000Y-72644000D01*
X138430000Y-79248000D02*
X138430000Y-72898000D01*
%TO.N,HSYNC*%
X143200000Y-79025000D02*
X141314950Y-79025000D01*
X139192000Y-78740000D02*
X139192000Y-70866000D01*
X139192000Y-70866000D02*
X138684000Y-70358000D01*
X137668000Y-70358000D02*
X131810000Y-70358000D01*
X138684000Y-70358000D02*
X137668000Y-70358000D01*
X139602000Y-79150000D02*
X139192000Y-78740000D01*
X141189950Y-79150000D02*
X139602000Y-79150000D01*
X141314950Y-79025000D02*
X141189950Y-79150000D01*
%TO.N,SCK*%
X175520000Y-64065000D02*
X176733000Y-65278000D01*
X224282000Y-65278000D02*
X225152000Y-66148000D01*
X225880000Y-86180000D02*
X227610000Y-86180000D01*
X176733000Y-65278000D02*
X224282000Y-65278000D01*
X227640000Y-86210000D02*
X227610000Y-86180000D01*
X230150000Y-86210000D02*
X227640000Y-86210000D01*
X225152000Y-66148000D02*
X225152000Y-85452000D01*
X225152000Y-85452000D02*
X225880000Y-86180000D01*
%TO.N,MOSI*%
X226060000Y-60960000D02*
X226060000Y-77724000D01*
X225298000Y-60198000D02*
X226060000Y-60960000D01*
X230150000Y-78590000D02*
X227640000Y-78590000D01*
X176733000Y-60198000D02*
X225298000Y-60198000D01*
X226896000Y-78560000D02*
X227610000Y-78560000D01*
X175520000Y-58985000D02*
X176733000Y-60198000D01*
X226060000Y-77724000D02*
X226896000Y-78560000D01*
X227640000Y-78590000D02*
X227610000Y-78560000D01*
%TO.N,EXTIOSEL*%
X156972000Y-127762000D02*
X135382000Y-127762000D01*
X173425000Y-109785000D02*
X172720000Y-110490000D01*
X172212000Y-114808000D02*
X157734000Y-114808000D01*
X157734000Y-114808000D02*
X157226000Y-115316000D01*
X157226000Y-127508000D02*
X156972000Y-127762000D01*
X175520000Y-109785000D02*
X173425000Y-109785000D01*
X172720000Y-110490000D02*
X172720000Y-114300000D01*
X134620000Y-125063500D02*
X134686000Y-124997500D01*
X172720000Y-114300000D02*
X172212000Y-114808000D01*
X135382000Y-127762000D02*
X134620000Y-127000000D01*
X157226000Y-115316000D02*
X157226000Y-127508000D01*
X134620000Y-127000000D02*
X134620000Y-125063500D01*
%TO.N,A3D4*%
X156250000Y-97600000D02*
X150465685Y-97600000D01*
X148909314Y-112075000D02*
X149562500Y-112075000D01*
X148909315Y-97350000D02*
X147325000Y-98934315D01*
X150215685Y-97350000D02*
X149562500Y-97350000D01*
X156550000Y-97300000D02*
X156250000Y-97600000D01*
X149562500Y-97350000D02*
X148909315Y-97350000D01*
X150465685Y-97600000D02*
X150215685Y-97350000D01*
X147325000Y-98934315D02*
X147325000Y-110490686D01*
X147325000Y-110490686D02*
X148909314Y-112075000D01*
%TO.N,A4D3*%
X150465685Y-96950000D02*
X150215685Y-96700000D01*
X155400000Y-96650000D02*
X155100000Y-96950000D01*
X150215685Y-96700000D02*
X149562500Y-96700000D01*
X148909315Y-96700000D02*
X146925000Y-98684315D01*
X148775000Y-112725000D02*
X149562500Y-112725000D01*
X155100000Y-96950000D02*
X150465685Y-96950000D01*
X146925000Y-110875000D02*
X148775000Y-112725000D01*
X149562500Y-96700000D02*
X148909315Y-96700000D01*
X146925000Y-98684315D02*
X146925000Y-110875000D01*
%TO.N,A5D2*%
X146525000Y-98434315D02*
X146525000Y-111040686D01*
X149562500Y-96050000D02*
X148909315Y-96050000D01*
X146525000Y-111040686D02*
X148859314Y-113375000D01*
X148909315Y-96050000D02*
X146525000Y-98434315D01*
X154350000Y-96050000D02*
X149562500Y-96050000D01*
X148859314Y-113375000D02*
X149562500Y-113375000D01*
D37*
%TO.N,READ_N*%
X145025500Y-108850000D02*
X143862500Y-108850000D01*
X143862500Y-108850000D02*
X143837500Y-108825000D01*
D36*
%TO.N,MISO*%
X224536000Y-62738000D02*
X225552000Y-63754000D01*
X225552000Y-83058000D02*
X226134000Y-83640000D01*
X227640000Y-83670000D02*
X227610000Y-83640000D01*
X226134000Y-83640000D02*
X227610000Y-83640000D01*
X230150000Y-83670000D02*
X227640000Y-83670000D01*
X175520000Y-61525000D02*
X176733000Y-62738000D01*
X225552000Y-63754000D02*
X225552000Y-83058000D01*
X176733000Y-62738000D02*
X224536000Y-62738000D01*
%TO.N,A6D1*%
X146125000Y-111240685D02*
X148909315Y-114025000D01*
X153582448Y-95293852D02*
X153351800Y-95524500D01*
X149687000Y-95524500D02*
X149562500Y-95400000D01*
X148909315Y-114025000D02*
X149562500Y-114025000D01*
X153351800Y-95524500D02*
X149687000Y-95524500D01*
X149562500Y-95400000D02*
X148909315Y-95400000D01*
X148909315Y-95400000D02*
X146125000Y-98184315D01*
X146125000Y-98184315D02*
X146125000Y-111240685D01*
%TO.N,A7D0*%
X149562500Y-94750000D02*
X148909315Y-94750000D01*
X145725000Y-97934315D02*
X145725000Y-111525000D01*
X152625500Y-94750000D02*
X149562500Y-94750000D01*
X148875000Y-114675000D02*
X149562500Y-114675000D01*
X148909315Y-94750000D02*
X145725000Y-97934315D01*
X152700000Y-94824500D02*
X152625500Y-94750000D01*
X145725000Y-111525000D02*
X148875000Y-114675000D01*
D37*
%TO.N,ABUS_SEL_N*%
X168550000Y-94750000D02*
X168550000Y-96414000D01*
X149562500Y-94100000D02*
X167900000Y-94100000D01*
X168550000Y-96414000D02*
X169221000Y-97085000D01*
X167900000Y-94100000D02*
X168550000Y-94750000D01*
X169221000Y-97085000D02*
X175520000Y-97085000D01*
%TO.N,_INX*%
X168898000Y-84848000D02*
X168275000Y-84225000D01*
X168898000Y-84848000D02*
X168898000Y-93968000D01*
X169475000Y-94545000D02*
X175520000Y-94545000D01*
X168898000Y-93968000D02*
X169475000Y-94545000D01*
X168275000Y-84225000D02*
X150200000Y-84225000D01*
%TO.N,_OUTX*%
X150200000Y-83575000D02*
X168925000Y-83575000D01*
X169450000Y-84100000D02*
X169450000Y-91218000D01*
X169450000Y-91218000D02*
X170237000Y-92005000D01*
X168925000Y-83575000D02*
X169450000Y-84100000D01*
X170237000Y-92005000D02*
X175520000Y-92005000D01*
%TO.N,_RESETX*%
X169275000Y-82925000D02*
X169900000Y-83550000D01*
X169900000Y-88874000D02*
X170491000Y-89465000D01*
X150200000Y-82925000D02*
X169275000Y-82925000D01*
X170491000Y-89465000D02*
X175520000Y-89465000D01*
X169900000Y-83550000D02*
X169900000Y-88874000D01*
%TO.N,_M1X*%
X169775000Y-82275000D02*
X170350000Y-82850000D01*
X150200000Y-82275000D02*
X169775000Y-82275000D01*
X170999000Y-86925000D02*
X175520000Y-86925000D01*
X170350000Y-86276000D02*
X170999000Y-86925000D01*
X170350000Y-82850000D02*
X170350000Y-86276000D01*
%TO.N,_IORQX*%
X171507000Y-84385000D02*
X175520000Y-84385000D01*
X150200000Y-81625000D02*
X170375000Y-81625000D01*
X170850000Y-83728000D02*
X171507000Y-84385000D01*
X170375000Y-81625000D02*
X170850000Y-82100000D01*
X170850000Y-82100000D02*
X170850000Y-83728000D01*
%TO.N,HSYNCX*%
X173171000Y-76765000D02*
X175520000Y-76765000D01*
X172466000Y-77470000D02*
X173171000Y-76765000D01*
X171825000Y-79675000D02*
X150200000Y-79675000D01*
X172466000Y-78994000D02*
X172466000Y-77470000D01*
X171825000Y-79635000D02*
X172466000Y-78994000D01*
X171825000Y-79675000D02*
X171825000Y-79635000D01*
%TO.N,VSYNCX*%
X172151000Y-80325000D02*
X173228000Y-79248000D01*
X173228000Y-79248000D02*
X173285000Y-79305000D01*
X173285000Y-79305000D02*
X175520000Y-79305000D01*
X150200000Y-80325000D02*
X172151000Y-80325000D01*
D36*
%TO.N,DBUS_SEL_N*%
X149562500Y-109475000D02*
X157987000Y-109475000D01*
X157987000Y-109475000D02*
X158750000Y-108712000D01*
%TO.N,BUTTON*%
X219750000Y-121250000D02*
X226250000Y-121250000D01*
%TO.N,LED_GREEN*%
X214122000Y-97536000D02*
X214122000Y-108420000D01*
X214122000Y-108420000D02*
X214068000Y-108474000D01*
%TO.N,LED_BLUE*%
X227610000Y-98880000D02*
X230120000Y-98880000D01*
X211274000Y-99114000D02*
X211328000Y-99060000D01*
X230120000Y-98880000D02*
X230150000Y-98910000D01*
X211274000Y-108474000D02*
X211274000Y-99114000D01*
%TO.N,LED_RED*%
X207592000Y-101420000D02*
X204750000Y-101420000D01*
X208534000Y-108474000D02*
X208534000Y-102362000D01*
X208534000Y-102362000D02*
X207592000Y-101420000D01*
%TO.N,Net-(D1-Pad4)*%
X211560000Y-112982000D02*
X211560000Y-123500000D01*
X214068000Y-110474000D02*
X211560000Y-112982000D01*
%TO.N,Net-(D1-Pad3)*%
X210290000Y-111458000D02*
X210290000Y-123500000D01*
X211274000Y-110474000D02*
X210290000Y-111458000D01*
%TO.N,Net-(D1-Pad1)*%
X207750000Y-111258000D02*
X207750000Y-123500000D01*
X208534000Y-110474000D02*
X207750000Y-111258000D01*
%TO.N,CS_SD_CARD*%
X197104000Y-90678000D02*
X204168000Y-90678000D01*
X204168000Y-90678000D02*
X204750000Y-91260000D01*
X196342000Y-68326000D02*
X196342000Y-89916000D01*
X175520000Y-66605000D02*
X176420000Y-67505000D01*
X196342000Y-89916000D02*
X197104000Y-90678000D01*
X195521000Y-67505000D02*
X196342000Y-68326000D01*
X176420000Y-67505000D02*
X195521000Y-67505000D01*
D35*
%TO.N,VU*%
X172466000Y-70358000D02*
X193040000Y-70358000D01*
X193040000Y-70358000D02*
X194564000Y-71882000D01*
X196145000Y-102165000D02*
X198420000Y-102165000D01*
X171300000Y-63015000D02*
X171300000Y-69192000D01*
X194564000Y-100584000D02*
X196145000Y-102165000D01*
X171300000Y-69192000D02*
X172466000Y-70358000D01*
X194564000Y-71882000D02*
X194564000Y-100584000D01*
D37*
%TO.N,VIDEOX*%
X170725000Y-80975000D02*
X150200000Y-80975000D01*
X175520000Y-81845000D02*
X171595000Y-81845000D01*
X171595000Y-81845000D02*
X170725000Y-80975000D01*
D36*
%TO.N,INT*%
X172409000Y-104705000D02*
X171704000Y-105410000D01*
X171704000Y-113284000D02*
X171196000Y-113792000D01*
X156718000Y-113792000D02*
X156210000Y-114300000D01*
X147320000Y-126238000D02*
X147320000Y-125063500D01*
X156210000Y-125984000D02*
X155448000Y-126746000D01*
X171196000Y-113792000D02*
X156718000Y-113792000D01*
X171704000Y-105410000D02*
X171704000Y-113284000D01*
X156210000Y-114300000D02*
X156210000Y-125984000D01*
X175520000Y-104705000D02*
X172409000Y-104705000D01*
X147828000Y-126746000D02*
X147320000Y-126238000D01*
X155448000Y-126746000D02*
X147828000Y-126746000D01*
X147320000Y-125063500D02*
X147386000Y-124997500D01*
%TO.N,DONE*%
X230120000Y-88720000D02*
X230150000Y-88750000D01*
X198775000Y-82200000D02*
X223932000Y-82200000D01*
X224752000Y-83020000D02*
X224752000Y-87846000D01*
X223932000Y-82200000D02*
X224752000Y-83020000D01*
X225626000Y-88720000D02*
X227610000Y-88720000D01*
X224752000Y-87846000D02*
X225626000Y-88720000D01*
X198420000Y-81845000D02*
X198775000Y-82200000D01*
X227610000Y-88720000D02*
X230120000Y-88720000D01*
%TO.N,REQ*%
X225118000Y-103960000D02*
X227610000Y-103960000D01*
X224352000Y-85668000D02*
X224352000Y-103194000D01*
X223764000Y-85080000D02*
X224352000Y-85668000D01*
X227610000Y-103960000D02*
X230120000Y-103960000D01*
X224352000Y-103194000D02*
X225118000Y-103960000D01*
X199115000Y-85080000D02*
X223764000Y-85080000D01*
X230120000Y-103960000D02*
X230150000Y-103990000D01*
X198420000Y-84385000D02*
X199115000Y-85080000D01*
%TO.N,Net-(C11-Pad2)*%
X180864000Y-125184500D02*
X180826500Y-125222000D01*
X180864000Y-120650000D02*
X180864000Y-122936000D01*
X180826500Y-127745000D02*
X180809500Y-127762000D01*
X180826500Y-125222000D02*
X180826500Y-127745000D01*
X180864000Y-122936000D02*
X180864000Y-125184500D01*
%TO.N,Net-(C10-Pad1)*%
X190224500Y-125222000D02*
X189191500Y-126255000D01*
X190262000Y-125184500D02*
X190224500Y-125222000D01*
X190262000Y-122936000D02*
X190262000Y-125184500D01*
X189191500Y-126255000D02*
X189191500Y-127762000D01*
X190262000Y-120650000D02*
X190262000Y-122936000D01*
%TO.N,Net-(C11-Pad1)*%
X175952000Y-128962000D02*
X175768000Y-128778000D01*
X183934500Y-127762000D02*
X182734500Y-128962000D01*
X182734500Y-128962000D02*
X175952000Y-128962000D01*
%TO.N,Net-(C12-Pad1)*%
X174436000Y-129478000D02*
X191578000Y-129478000D01*
X172948000Y-120878000D02*
X173736000Y-121666000D01*
X173736000Y-121666000D02*
X173736000Y-128778000D01*
X173736000Y-128778000D02*
X174436000Y-129478000D01*
X162084000Y-120878000D02*
X172948000Y-120878000D01*
X192316500Y-128739500D02*
X192316500Y-127762000D01*
X191578000Y-129478000D02*
X192316500Y-128739500D01*
%TO.N,CASS_OUT_LEFT*%
X182061000Y-112325000D02*
X175520000Y-112325000D01*
X182864000Y-113014000D02*
X182118000Y-112268000D01*
X182864000Y-120650000D02*
X182864000Y-113014000D01*
X182118000Y-112268000D02*
X182061000Y-112325000D01*
%TO.N,CASS_OUT_RIGHT*%
X192278000Y-120634000D02*
X192262000Y-120650000D01*
X192278000Y-103632000D02*
X192278000Y-120634000D01*
%TD*%
M02*
