%TF.GenerationSoftware,KiCad,Pcbnew,(6.0.7)*%
%TF.CreationDate,2022-08-23T12:46:31-07:00*%
%TF.ProjectId,TRS-IO-M3,5452532d-494f-42d4-9d33-2e6b69636164,rev?*%
%TF.SameCoordinates,Original*%
%TF.FileFunction,Legend,Top*%
%TF.FilePolarity,Positive*%
%FSLAX46Y46*%
G04 Gerber Fmt 4.6, Leading zero omitted, Abs format (unit mm)*
G04 Created by KiCad (PCBNEW (6.0.7)) date 2022-08-23 12:46:31*
%MOMM*%
%LPD*%
G01*
G04 APERTURE LIST*
%ADD10C,0.300000*%
%ADD11C,0.150000*%
%ADD12C,0.120000*%
G04 APERTURE END LIST*
D10*
X159506757Y-112803714D02*
X159435328Y-112875142D01*
X159506757Y-112946571D01*
X159578185Y-112875142D01*
X159506757Y-112803714D01*
X159506757Y-112946571D01*
X159512000Y-104675714D02*
X159440571Y-104747142D01*
X159512000Y-104818571D01*
X159583428Y-104747142D01*
X159512000Y-104675714D01*
X159512000Y-104818571D01*
D11*
X112577619Y-123983714D02*
X112577619Y-123412285D01*
X112577619Y-123698000D02*
X113577619Y-123698000D01*
X113434761Y-123602761D01*
X113339523Y-123507523D01*
X113291904Y-123412285D01*
D10*
X142494000Y-107723714D02*
X142422571Y-107795142D01*
X142494000Y-107866571D01*
X142565428Y-107795142D01*
X142494000Y-107723714D01*
X142494000Y-107866571D01*
X142494000Y-92229714D02*
X142422571Y-92301142D01*
X142494000Y-92372571D01*
X142565428Y-92301142D01*
X142494000Y-92229714D01*
X142494000Y-92372571D01*
X141732000Y-77497714D02*
X141660571Y-77569142D01*
X141732000Y-77640571D01*
X141803428Y-77569142D01*
X141732000Y-77497714D01*
X141732000Y-77640571D01*
X154028571Y-68878571D02*
X154528571Y-70378571D01*
X155028571Y-68878571D01*
X155528571Y-70378571D02*
X155528571Y-69378571D01*
X155528571Y-68878571D02*
X155457142Y-68950000D01*
X155528571Y-69021428D01*
X155600000Y-68950000D01*
X155528571Y-68878571D01*
X155528571Y-69021428D01*
X156885714Y-70378571D02*
X156885714Y-68878571D01*
X156885714Y-70307142D02*
X156742857Y-70378571D01*
X156457142Y-70378571D01*
X156314285Y-70307142D01*
X156242857Y-70235714D01*
X156171428Y-70092857D01*
X156171428Y-69664285D01*
X156242857Y-69521428D01*
X156314285Y-69450000D01*
X156457142Y-69378571D01*
X156742857Y-69378571D01*
X156885714Y-69450000D01*
X158171428Y-70307142D02*
X158028571Y-70378571D01*
X157742857Y-70378571D01*
X157600000Y-70307142D01*
X157528571Y-70164285D01*
X157528571Y-69592857D01*
X157600000Y-69450000D01*
X157742857Y-69378571D01*
X158028571Y-69378571D01*
X158171428Y-69450000D01*
X158242857Y-69592857D01*
X158242857Y-69735714D01*
X157528571Y-69878571D01*
X159100000Y-70378571D02*
X158957142Y-70307142D01*
X158885714Y-70235714D01*
X158814285Y-70092857D01*
X158814285Y-69664285D01*
X158885714Y-69521428D01*
X158957142Y-69450000D01*
X159100000Y-69378571D01*
X159314285Y-69378571D01*
X159457142Y-69450000D01*
X159528571Y-69521428D01*
X159600000Y-69664285D01*
X159600000Y-70092857D01*
X159528571Y-70235714D01*
X159457142Y-70307142D01*
X159314285Y-70378571D01*
X159100000Y-70378571D01*
X161671428Y-68878571D02*
X161957142Y-68878571D01*
X162100000Y-68950000D01*
X162242857Y-69092857D01*
X162314285Y-69378571D01*
X162314285Y-69878571D01*
X162242857Y-70164285D01*
X162100000Y-70307142D01*
X161957142Y-70378571D01*
X161671428Y-70378571D01*
X161528571Y-70307142D01*
X161385714Y-70164285D01*
X161314285Y-69878571D01*
X161314285Y-69378571D01*
X161385714Y-69092857D01*
X161528571Y-68950000D01*
X161671428Y-68878571D01*
X163600000Y-69378571D02*
X163600000Y-70378571D01*
X162957142Y-69378571D02*
X162957142Y-70164285D01*
X163028571Y-70307142D01*
X163171428Y-70378571D01*
X163385714Y-70378571D01*
X163528571Y-70307142D01*
X163600000Y-70235714D01*
X164100000Y-69378571D02*
X164671428Y-69378571D01*
X164314285Y-68878571D02*
X164314285Y-70164285D01*
X164385714Y-70307142D01*
X164528571Y-70378571D01*
X164671428Y-70378571D01*
D11*
X129622619Y-87972095D02*
X129622619Y-88543523D01*
X128622619Y-88257809D02*
X129622619Y-88257809D01*
X128622619Y-89448285D02*
X129098809Y-89114952D01*
X128622619Y-88876857D02*
X129622619Y-88876857D01*
X129622619Y-89257809D01*
X129575000Y-89353047D01*
X129527380Y-89400666D01*
X129432142Y-89448285D01*
X129289285Y-89448285D01*
X129194047Y-89400666D01*
X129146428Y-89353047D01*
X129098809Y-89257809D01*
X129098809Y-88876857D01*
X128670238Y-89829238D02*
X128622619Y-89972095D01*
X128622619Y-90210190D01*
X128670238Y-90305428D01*
X128717857Y-90353047D01*
X128813095Y-90400666D01*
X128908333Y-90400666D01*
X129003571Y-90353047D01*
X129051190Y-90305428D01*
X129098809Y-90210190D01*
X129146428Y-90019714D01*
X129194047Y-89924476D01*
X129241666Y-89876857D01*
X129336904Y-89829238D01*
X129432142Y-89829238D01*
X129527380Y-89876857D01*
X129575000Y-89924476D01*
X129622619Y-90019714D01*
X129622619Y-90257809D01*
X129575000Y-90400666D01*
X129003571Y-90829238D02*
X129003571Y-91591142D01*
X128622619Y-92067333D02*
X129622619Y-92067333D01*
X129622619Y-92733999D02*
X129622619Y-92924476D01*
X129575000Y-93019714D01*
X129479761Y-93114952D01*
X129289285Y-93162571D01*
X128955952Y-93162571D01*
X128765476Y-93114952D01*
X128670238Y-93019714D01*
X128622619Y-92924476D01*
X128622619Y-92733999D01*
X128670238Y-92638761D01*
X128765476Y-92543523D01*
X128955952Y-92495904D01*
X129289285Y-92495904D01*
X129479761Y-92543523D01*
X129575000Y-92638761D01*
X129622619Y-92733999D01*
X129003571Y-93591142D02*
X129003571Y-94353047D01*
X128622619Y-94829238D02*
X129622619Y-94829238D01*
X128908333Y-95162571D01*
X129622619Y-95495904D01*
X128622619Y-95495904D01*
X129622619Y-95876857D02*
X129622619Y-96495904D01*
X129241666Y-96162571D01*
X129241666Y-96305428D01*
X129194047Y-96400666D01*
X129146428Y-96448285D01*
X129051190Y-96495904D01*
X128813095Y-96495904D01*
X128717857Y-96448285D01*
X128670238Y-96400666D01*
X128622619Y-96305428D01*
X128622619Y-96019714D01*
X128670238Y-95924476D01*
X128717857Y-95876857D01*
X129289285Y-97591142D02*
X128622619Y-97829238D01*
X129289285Y-98067333D01*
X129527380Y-98400666D02*
X129575000Y-98448285D01*
X129622619Y-98543523D01*
X129622619Y-98781619D01*
X129575000Y-98876857D01*
X129527380Y-98924476D01*
X129432142Y-98972095D01*
X129336904Y-98972095D01*
X129194047Y-98924476D01*
X128622619Y-98353047D01*
X128622619Y-98972095D01*
X128717857Y-99400666D02*
X128670238Y-99448285D01*
X128622619Y-99400666D01*
X128670238Y-99353047D01*
X128717857Y-99400666D01*
X128622619Y-99400666D01*
X128622619Y-100400666D02*
X128622619Y-99829238D01*
X128622619Y-100114952D02*
X129622619Y-100114952D01*
X129479761Y-100019714D01*
X129384523Y-99924476D01*
X129336904Y-99829238D01*
X127298333Y-89662571D02*
X127298333Y-90138761D01*
X127012619Y-89567333D02*
X128012619Y-89900666D01*
X127012619Y-90234000D01*
X127679285Y-90995904D02*
X127012619Y-90995904D01*
X127679285Y-90567333D02*
X127155476Y-90567333D01*
X127060238Y-90614952D01*
X127012619Y-90710190D01*
X127012619Y-90853047D01*
X127060238Y-90948285D01*
X127107857Y-90995904D01*
X127679285Y-91900666D02*
X126869761Y-91900666D01*
X126774523Y-91853047D01*
X126726904Y-91805428D01*
X126679285Y-91710190D01*
X126679285Y-91567333D01*
X126726904Y-91472095D01*
X127060238Y-91900666D02*
X127012619Y-91805428D01*
X127012619Y-91614952D01*
X127060238Y-91519714D01*
X127107857Y-91472095D01*
X127203095Y-91424476D01*
X127488809Y-91424476D01*
X127584047Y-91472095D01*
X127631666Y-91519714D01*
X127679285Y-91614952D01*
X127679285Y-91805428D01*
X127631666Y-91900666D01*
X127679285Y-92805428D02*
X127012619Y-92805428D01*
X127679285Y-92376857D02*
X127155476Y-92376857D01*
X127060238Y-92424476D01*
X127012619Y-92519714D01*
X127012619Y-92662571D01*
X127060238Y-92757809D01*
X127107857Y-92805428D01*
X127060238Y-93234000D02*
X127012619Y-93329238D01*
X127012619Y-93519714D01*
X127060238Y-93614952D01*
X127155476Y-93662571D01*
X127203095Y-93662571D01*
X127298333Y-93614952D01*
X127345952Y-93519714D01*
X127345952Y-93376857D01*
X127393571Y-93281619D01*
X127488809Y-93234000D01*
X127536428Y-93234000D01*
X127631666Y-93281619D01*
X127679285Y-93376857D01*
X127679285Y-93519714D01*
X127631666Y-93614952D01*
X127679285Y-93948285D02*
X127679285Y-94329238D01*
X128012619Y-94091142D02*
X127155476Y-94091142D01*
X127060238Y-94138761D01*
X127012619Y-94234000D01*
X127012619Y-94329238D01*
X127917380Y-95376857D02*
X127965000Y-95424476D01*
X128012619Y-95519714D01*
X128012619Y-95757809D01*
X127965000Y-95853047D01*
X127917380Y-95900666D01*
X127822142Y-95948285D01*
X127726904Y-95948285D01*
X127584047Y-95900666D01*
X127012619Y-95329238D01*
X127012619Y-95948285D01*
X128012619Y-96567333D02*
X128012619Y-96662571D01*
X127965000Y-96757809D01*
X127917380Y-96805428D01*
X127822142Y-96853047D01*
X127631666Y-96900666D01*
X127393571Y-96900666D01*
X127203095Y-96853047D01*
X127107857Y-96805428D01*
X127060238Y-96757809D01*
X127012619Y-96662571D01*
X127012619Y-96567333D01*
X127060238Y-96472095D01*
X127107857Y-96424476D01*
X127203095Y-96376857D01*
X127393571Y-96329238D01*
X127631666Y-96329238D01*
X127822142Y-96376857D01*
X127917380Y-96424476D01*
X127965000Y-96472095D01*
X128012619Y-96567333D01*
X127917380Y-97281619D02*
X127965000Y-97329238D01*
X128012619Y-97424476D01*
X128012619Y-97662571D01*
X127965000Y-97757809D01*
X127917380Y-97805428D01*
X127822142Y-97853047D01*
X127726904Y-97853047D01*
X127584047Y-97805428D01*
X127012619Y-97234000D01*
X127012619Y-97853047D01*
X127917380Y-98234000D02*
X127965000Y-98281619D01*
X128012619Y-98376857D01*
X128012619Y-98614952D01*
X127965000Y-98710190D01*
X127917380Y-98757809D01*
X127822142Y-98805428D01*
X127726904Y-98805428D01*
X127584047Y-98757809D01*
X127012619Y-98186380D01*
X127012619Y-98805428D01*
D10*
X135985714Y-69078571D02*
X136485714Y-70578571D01*
X136985714Y-69078571D01*
X137485714Y-70578571D02*
X137485714Y-69578571D01*
X137485714Y-69078571D02*
X137414285Y-69150000D01*
X137485714Y-69221428D01*
X137557142Y-69150000D01*
X137485714Y-69078571D01*
X137485714Y-69221428D01*
X138842857Y-70578571D02*
X138842857Y-69078571D01*
X138842857Y-70507142D02*
X138700000Y-70578571D01*
X138414285Y-70578571D01*
X138271428Y-70507142D01*
X138200000Y-70435714D01*
X138128571Y-70292857D01*
X138128571Y-69864285D01*
X138200000Y-69721428D01*
X138271428Y-69650000D01*
X138414285Y-69578571D01*
X138700000Y-69578571D01*
X138842857Y-69650000D01*
X140128571Y-70507142D02*
X139985714Y-70578571D01*
X139700000Y-70578571D01*
X139557142Y-70507142D01*
X139485714Y-70364285D01*
X139485714Y-69792857D01*
X139557142Y-69650000D01*
X139700000Y-69578571D01*
X139985714Y-69578571D01*
X140128571Y-69650000D01*
X140200000Y-69792857D01*
X140200000Y-69935714D01*
X139485714Y-70078571D01*
X141057142Y-70578571D02*
X140914285Y-70507142D01*
X140842857Y-70435714D01*
X140771428Y-70292857D01*
X140771428Y-69864285D01*
X140842857Y-69721428D01*
X140914285Y-69650000D01*
X141057142Y-69578571D01*
X141271428Y-69578571D01*
X141414285Y-69650000D01*
X141485714Y-69721428D01*
X141557142Y-69864285D01*
X141557142Y-70292857D01*
X141485714Y-70435714D01*
X141414285Y-70507142D01*
X141271428Y-70578571D01*
X141057142Y-70578571D01*
X143342857Y-70578571D02*
X143342857Y-69078571D01*
X144057142Y-69578571D02*
X144057142Y-70578571D01*
X144057142Y-69721428D02*
X144128571Y-69650000D01*
X144271428Y-69578571D01*
X144485714Y-69578571D01*
X144628571Y-69650000D01*
X144700000Y-69792857D01*
X144700000Y-70578571D01*
D11*
X119157714Y-126944380D02*
X118586285Y-126944380D01*
X118872000Y-126944380D02*
X118872000Y-125944380D01*
X118776761Y-126087238D01*
X118681523Y-126182476D01*
X118586285Y-126230095D01*
D10*
X170014285Y-65749571D02*
X170514285Y-67249571D01*
X171014285Y-65749571D01*
X171514285Y-65749571D02*
X171514285Y-66963857D01*
X171585714Y-67106714D01*
X171657142Y-67178142D01*
X171800000Y-67249571D01*
X172085714Y-67249571D01*
X172228571Y-67178142D01*
X172300000Y-67106714D01*
X172371428Y-66963857D01*
X172371428Y-65749571D01*
D11*
%TO.C,R9*%
X127595333Y-73096380D02*
X127262000Y-72620190D01*
X127023904Y-73096380D02*
X127023904Y-72096380D01*
X127404857Y-72096380D01*
X127500095Y-72144000D01*
X127547714Y-72191619D01*
X127595333Y-72286857D01*
X127595333Y-72429714D01*
X127547714Y-72524952D01*
X127500095Y-72572571D01*
X127404857Y-72620190D01*
X127023904Y-72620190D01*
X128071523Y-73096380D02*
X128262000Y-73096380D01*
X128357238Y-73048761D01*
X128404857Y-73001142D01*
X128500095Y-72858285D01*
X128547714Y-72667809D01*
X128547714Y-72286857D01*
X128500095Y-72191619D01*
X128452476Y-72144000D01*
X128357238Y-72096380D01*
X128166761Y-72096380D01*
X128071523Y-72144000D01*
X128023904Y-72191619D01*
X127976285Y-72286857D01*
X127976285Y-72524952D01*
X128023904Y-72620190D01*
X128071523Y-72667809D01*
X128166761Y-72715428D01*
X128357238Y-72715428D01*
X128452476Y-72667809D01*
X128500095Y-72620190D01*
X128547714Y-72524952D01*
%TO.C,R8*%
X127595333Y-70810380D02*
X127262000Y-70334190D01*
X127023904Y-70810380D02*
X127023904Y-69810380D01*
X127404857Y-69810380D01*
X127500095Y-69858000D01*
X127547714Y-69905619D01*
X127595333Y-70000857D01*
X127595333Y-70143714D01*
X127547714Y-70238952D01*
X127500095Y-70286571D01*
X127404857Y-70334190D01*
X127023904Y-70334190D01*
X128166761Y-70238952D02*
X128071523Y-70191333D01*
X128023904Y-70143714D01*
X127976285Y-70048476D01*
X127976285Y-70000857D01*
X128023904Y-69905619D01*
X128071523Y-69858000D01*
X128166761Y-69810380D01*
X128357238Y-69810380D01*
X128452476Y-69858000D01*
X128500095Y-69905619D01*
X128547714Y-70000857D01*
X128547714Y-70048476D01*
X128500095Y-70143714D01*
X128452476Y-70191333D01*
X128357238Y-70238952D01*
X128166761Y-70238952D01*
X128071523Y-70286571D01*
X128023904Y-70334190D01*
X127976285Y-70429428D01*
X127976285Y-70619904D01*
X128023904Y-70715142D01*
X128071523Y-70762761D01*
X128166761Y-70810380D01*
X128357238Y-70810380D01*
X128452476Y-70762761D01*
X128500095Y-70715142D01*
X128547714Y-70619904D01*
X128547714Y-70429428D01*
X128500095Y-70334190D01*
X128452476Y-70286571D01*
X128357238Y-70238952D01*
%TO.C,R1*%
X208313333Y-112807380D02*
X207980000Y-112331190D01*
X207741904Y-112807380D02*
X207741904Y-111807380D01*
X208122857Y-111807380D01*
X208218095Y-111855000D01*
X208265714Y-111902619D01*
X208313333Y-111997857D01*
X208313333Y-112140714D01*
X208265714Y-112235952D01*
X208218095Y-112283571D01*
X208122857Y-112331190D01*
X207741904Y-112331190D01*
X209265714Y-112807380D02*
X208694285Y-112807380D01*
X208980000Y-112807380D02*
X208980000Y-111807380D01*
X208884761Y-111950238D01*
X208789523Y-112045476D01*
X208694285Y-112093095D01*
%TO.C,R2*%
X213847333Y-112807380D02*
X213514000Y-112331190D01*
X213275904Y-112807380D02*
X213275904Y-111807380D01*
X213656857Y-111807380D01*
X213752095Y-111855000D01*
X213799714Y-111902619D01*
X213847333Y-111997857D01*
X213847333Y-112140714D01*
X213799714Y-112235952D01*
X213752095Y-112283571D01*
X213656857Y-112331190D01*
X213275904Y-112331190D01*
X214228285Y-111902619D02*
X214275904Y-111855000D01*
X214371142Y-111807380D01*
X214609238Y-111807380D01*
X214704476Y-111855000D01*
X214752095Y-111902619D01*
X214799714Y-111997857D01*
X214799714Y-112093095D01*
X214752095Y-112235952D01*
X214180666Y-112807380D01*
X214799714Y-112807380D01*
%TO.C,J5*%
X130782380Y-62623333D02*
X131496666Y-62623333D01*
X131639523Y-62670952D01*
X131734761Y-62766190D01*
X131782380Y-62909047D01*
X131782380Y-63004285D01*
X130782380Y-61670952D02*
X130782380Y-62147142D01*
X131258571Y-62194761D01*
X131210952Y-62147142D01*
X131163333Y-62051904D01*
X131163333Y-61813809D01*
X131210952Y-61718571D01*
X131258571Y-61670952D01*
X131353809Y-61623333D01*
X131591904Y-61623333D01*
X131687142Y-61670952D01*
X131734761Y-61718571D01*
X131782380Y-61813809D01*
X131782380Y-62051904D01*
X131734761Y-62147142D01*
X131687142Y-62194761D01*
%TO.C,C6*%
X151687142Y-105516666D02*
X151734761Y-105564285D01*
X151782380Y-105707142D01*
X151782380Y-105802380D01*
X151734761Y-105945238D01*
X151639523Y-106040476D01*
X151544285Y-106088095D01*
X151353809Y-106135714D01*
X151210952Y-106135714D01*
X151020476Y-106088095D01*
X150925238Y-106040476D01*
X150830000Y-105945238D01*
X150782380Y-105802380D01*
X150782380Y-105707142D01*
X150830000Y-105564285D01*
X150877619Y-105516666D01*
X150782380Y-104659523D02*
X150782380Y-104850000D01*
X150830000Y-104945238D01*
X150877619Y-104992857D01*
X151020476Y-105088095D01*
X151210952Y-105135714D01*
X151591904Y-105135714D01*
X151687142Y-105088095D01*
X151734761Y-105040476D01*
X151782380Y-104945238D01*
X151782380Y-104754761D01*
X151734761Y-104659523D01*
X151687142Y-104611904D01*
X151591904Y-104564285D01*
X151353809Y-104564285D01*
X151258571Y-104611904D01*
X151210952Y-104659523D01*
X151163333Y-104754761D01*
X151163333Y-104945238D01*
X151210952Y-105040476D01*
X151258571Y-105088095D01*
X151353809Y-105135714D01*
%TO.C,U5*%
X186208095Y-56337380D02*
X186208095Y-57146904D01*
X186255714Y-57242142D01*
X186303333Y-57289761D01*
X186398571Y-57337380D01*
X186589047Y-57337380D01*
X186684285Y-57289761D01*
X186731904Y-57242142D01*
X186779523Y-57146904D01*
X186779523Y-56337380D01*
X187731904Y-56337380D02*
X187255714Y-56337380D01*
X187208095Y-56813571D01*
X187255714Y-56765952D01*
X187350952Y-56718333D01*
X187589047Y-56718333D01*
X187684285Y-56765952D01*
X187731904Y-56813571D01*
X187779523Y-56908809D01*
X187779523Y-57146904D01*
X187731904Y-57242142D01*
X187684285Y-57289761D01*
X187589047Y-57337380D01*
X187350952Y-57337380D01*
X187255714Y-57289761D01*
X187208095Y-57242142D01*
%TO.C,C1*%
X142527142Y-90016666D02*
X142574761Y-90064285D01*
X142622380Y-90207142D01*
X142622380Y-90302380D01*
X142574761Y-90445238D01*
X142479523Y-90540476D01*
X142384285Y-90588095D01*
X142193809Y-90635714D01*
X142050952Y-90635714D01*
X141860476Y-90588095D01*
X141765238Y-90540476D01*
X141670000Y-90445238D01*
X141622380Y-90302380D01*
X141622380Y-90207142D01*
X141670000Y-90064285D01*
X141717619Y-90016666D01*
X142622380Y-89064285D02*
X142622380Y-89635714D01*
X142622380Y-89350000D02*
X141622380Y-89350000D01*
X141765238Y-89445238D01*
X141860476Y-89540476D01*
X141908095Y-89635714D01*
%TO.C,C7*%
X152437142Y-75366666D02*
X152484761Y-75414285D01*
X152532380Y-75557142D01*
X152532380Y-75652380D01*
X152484761Y-75795238D01*
X152389523Y-75890476D01*
X152294285Y-75938095D01*
X152103809Y-75985714D01*
X151960952Y-75985714D01*
X151770476Y-75938095D01*
X151675238Y-75890476D01*
X151580000Y-75795238D01*
X151532380Y-75652380D01*
X151532380Y-75557142D01*
X151580000Y-75414285D01*
X151627619Y-75366666D01*
X151532380Y-75033333D02*
X151532380Y-74366666D01*
X152532380Y-74795238D01*
%TO.C,U4*%
X169672095Y-112990380D02*
X169672095Y-113799904D01*
X169719714Y-113895142D01*
X169767333Y-113942761D01*
X169862571Y-113990380D01*
X170053047Y-113990380D01*
X170148285Y-113942761D01*
X170195904Y-113895142D01*
X170243523Y-113799904D01*
X170243523Y-112990380D01*
X171148285Y-113323714D02*
X171148285Y-113990380D01*
X170910190Y-112942761D02*
X170672095Y-113657047D01*
X171291142Y-113657047D01*
%TO.C,U2*%
X145938095Y-106352380D02*
X145938095Y-107161904D01*
X145985714Y-107257142D01*
X146033333Y-107304761D01*
X146128571Y-107352380D01*
X146319047Y-107352380D01*
X146414285Y-107304761D01*
X146461904Y-107257142D01*
X146509523Y-107161904D01*
X146509523Y-106352380D01*
X146938095Y-106447619D02*
X146985714Y-106400000D01*
X147080952Y-106352380D01*
X147319047Y-106352380D01*
X147414285Y-106400000D01*
X147461904Y-106447619D01*
X147509523Y-106542857D01*
X147509523Y-106638095D01*
X147461904Y-106780952D01*
X146890476Y-107352380D01*
X147509523Y-107352380D01*
%TO.C,C3*%
X151637142Y-90016666D02*
X151684761Y-90064285D01*
X151732380Y-90207142D01*
X151732380Y-90302380D01*
X151684761Y-90445238D01*
X151589523Y-90540476D01*
X151494285Y-90588095D01*
X151303809Y-90635714D01*
X151160952Y-90635714D01*
X150970476Y-90588095D01*
X150875238Y-90540476D01*
X150780000Y-90445238D01*
X150732380Y-90302380D01*
X150732380Y-90207142D01*
X150780000Y-90064285D01*
X150827619Y-90016666D01*
X150732380Y-89683333D02*
X150732380Y-89064285D01*
X151113333Y-89397619D01*
X151113333Y-89254761D01*
X151160952Y-89159523D01*
X151208571Y-89111904D01*
X151303809Y-89064285D01*
X151541904Y-89064285D01*
X151637142Y-89111904D01*
X151684761Y-89159523D01*
X151732380Y-89254761D01*
X151732380Y-89540476D01*
X151684761Y-89635714D01*
X151637142Y-89683333D01*
%TO.C,J7*%
X163650666Y-114006380D02*
X163650666Y-114720666D01*
X163603047Y-114863523D01*
X163507809Y-114958761D01*
X163364952Y-115006380D01*
X163269714Y-115006380D01*
X164031619Y-114006380D02*
X164698285Y-114006380D01*
X164269714Y-115006380D01*
%TO.C,Q2*%
X142144761Y-127293619D02*
X142049523Y-127246000D01*
X141954285Y-127150761D01*
X141811428Y-127007904D01*
X141716190Y-126960285D01*
X141620952Y-126960285D01*
X141668571Y-127198380D02*
X141573333Y-127150761D01*
X141478095Y-127055523D01*
X141430476Y-126865047D01*
X141430476Y-126531714D01*
X141478095Y-126341238D01*
X141573333Y-126246000D01*
X141668571Y-126198380D01*
X141859047Y-126198380D01*
X141954285Y-126246000D01*
X142049523Y-126341238D01*
X142097142Y-126531714D01*
X142097142Y-126865047D01*
X142049523Y-127055523D01*
X141954285Y-127150761D01*
X141859047Y-127198380D01*
X141668571Y-127198380D01*
X142478095Y-126293619D02*
X142525714Y-126246000D01*
X142620952Y-126198380D01*
X142859047Y-126198380D01*
X142954285Y-126246000D01*
X143001904Y-126293619D01*
X143049523Y-126388857D01*
X143049523Y-126484095D01*
X143001904Y-126626952D01*
X142430476Y-127198380D01*
X143049523Y-127198380D01*
%TO.C,R7*%
X194143333Y-123388380D02*
X193810000Y-122912190D01*
X193571904Y-123388380D02*
X193571904Y-122388380D01*
X193952857Y-122388380D01*
X194048095Y-122436000D01*
X194095714Y-122483619D01*
X194143333Y-122578857D01*
X194143333Y-122721714D01*
X194095714Y-122816952D01*
X194048095Y-122864571D01*
X193952857Y-122912190D01*
X193571904Y-122912190D01*
X194476666Y-122388380D02*
X195143333Y-122388380D01*
X194714761Y-123388380D01*
%TO.C,C4*%
X157052333Y-108545142D02*
X157004714Y-108592761D01*
X156861857Y-108640380D01*
X156766619Y-108640380D01*
X156623761Y-108592761D01*
X156528523Y-108497523D01*
X156480904Y-108402285D01*
X156433285Y-108211809D01*
X156433285Y-108068952D01*
X156480904Y-107878476D01*
X156528523Y-107783238D01*
X156623761Y-107688000D01*
X156766619Y-107640380D01*
X156861857Y-107640380D01*
X157004714Y-107688000D01*
X157052333Y-107735619D01*
X157909476Y-107973714D02*
X157909476Y-108640380D01*
X157671380Y-107592761D02*
X157433285Y-108307047D01*
X158052333Y-108307047D01*
%TO.C,J4*%
X170966666Y-57597380D02*
X170966666Y-58311666D01*
X170919047Y-58454523D01*
X170823809Y-58549761D01*
X170680952Y-58597380D01*
X170585714Y-58597380D01*
X171871428Y-57930714D02*
X171871428Y-58597380D01*
X171633333Y-57549761D02*
X171395238Y-58264047D01*
X172014285Y-58264047D01*
%TO.C,C12*%
X194175142Y-128119142D02*
X194127523Y-128166761D01*
X193984666Y-128214380D01*
X193889428Y-128214380D01*
X193746571Y-128166761D01*
X193651333Y-128071523D01*
X193603714Y-127976285D01*
X193556095Y-127785809D01*
X193556095Y-127642952D01*
X193603714Y-127452476D01*
X193651333Y-127357238D01*
X193746571Y-127262000D01*
X193889428Y-127214380D01*
X193984666Y-127214380D01*
X194127523Y-127262000D01*
X194175142Y-127309619D01*
X195127523Y-128214380D02*
X194556095Y-128214380D01*
X194841809Y-128214380D02*
X194841809Y-127214380D01*
X194746571Y-127357238D01*
X194651333Y-127452476D01*
X194556095Y-127500095D01*
X195508476Y-127309619D02*
X195556095Y-127262000D01*
X195651333Y-127214380D01*
X195889428Y-127214380D01*
X195984666Y-127262000D01*
X196032285Y-127309619D01*
X196079904Y-127404857D01*
X196079904Y-127500095D01*
X196032285Y-127642952D01*
X195460857Y-128214380D01*
X196079904Y-128214380D01*
%TO.C,U6*%
X216688095Y-65522380D02*
X216688095Y-66331904D01*
X216735714Y-66427142D01*
X216783333Y-66474761D01*
X216878571Y-66522380D01*
X217069047Y-66522380D01*
X217164285Y-66474761D01*
X217211904Y-66427142D01*
X217259523Y-66331904D01*
X217259523Y-65522380D01*
X218164285Y-65522380D02*
X217973809Y-65522380D01*
X217878571Y-65570000D01*
X217830952Y-65617619D01*
X217735714Y-65760476D01*
X217688095Y-65950952D01*
X217688095Y-66331904D01*
X217735714Y-66427142D01*
X217783333Y-66474761D01*
X217878571Y-66522380D01*
X218069047Y-66522380D01*
X218164285Y-66474761D01*
X218211904Y-66427142D01*
X218259523Y-66331904D01*
X218259523Y-66093809D01*
X218211904Y-65998571D01*
X218164285Y-65950952D01*
X218069047Y-65903333D01*
X217878571Y-65903333D01*
X217783333Y-65950952D01*
X217735714Y-65998571D01*
X217688095Y-66093809D01*
%TO.C,C9*%
X178649333Y-125579142D02*
X178601714Y-125626761D01*
X178458857Y-125674380D01*
X178363619Y-125674380D01*
X178220761Y-125626761D01*
X178125523Y-125531523D01*
X178077904Y-125436285D01*
X178030285Y-125245809D01*
X178030285Y-125102952D01*
X178077904Y-124912476D01*
X178125523Y-124817238D01*
X178220761Y-124722000D01*
X178363619Y-124674380D01*
X178458857Y-124674380D01*
X178601714Y-124722000D01*
X178649333Y-124769619D01*
X179125523Y-125674380D02*
X179316000Y-125674380D01*
X179411238Y-125626761D01*
X179458857Y-125579142D01*
X179554095Y-125436285D01*
X179601714Y-125245809D01*
X179601714Y-124864857D01*
X179554095Y-124769619D01*
X179506476Y-124722000D01*
X179411238Y-124674380D01*
X179220761Y-124674380D01*
X179125523Y-124722000D01*
X179077904Y-124769619D01*
X179030285Y-124864857D01*
X179030285Y-125102952D01*
X179077904Y-125198190D01*
X179125523Y-125245809D01*
X179220761Y-125293428D01*
X179411238Y-125293428D01*
X179506476Y-125245809D01*
X179554095Y-125198190D01*
X179601714Y-125102952D01*
%TO.C,Q1*%
X148494761Y-127293619D02*
X148399523Y-127246000D01*
X148304285Y-127150761D01*
X148161428Y-127007904D01*
X148066190Y-126960285D01*
X147970952Y-126960285D01*
X148018571Y-127198380D02*
X147923333Y-127150761D01*
X147828095Y-127055523D01*
X147780476Y-126865047D01*
X147780476Y-126531714D01*
X147828095Y-126341238D01*
X147923333Y-126246000D01*
X148018571Y-126198380D01*
X148209047Y-126198380D01*
X148304285Y-126246000D01*
X148399523Y-126341238D01*
X148447142Y-126531714D01*
X148447142Y-126865047D01*
X148399523Y-127055523D01*
X148304285Y-127150761D01*
X148209047Y-127198380D01*
X148018571Y-127198380D01*
X149399523Y-127198380D02*
X148828095Y-127198380D01*
X149113809Y-127198380D02*
X149113809Y-126198380D01*
X149018571Y-126341238D01*
X148923333Y-126436476D01*
X148828095Y-126484095D01*
%TO.C,J6*%
X149982380Y-62623333D02*
X150696666Y-62623333D01*
X150839523Y-62670952D01*
X150934761Y-62766190D01*
X150982380Y-62909047D01*
X150982380Y-63004285D01*
X149982380Y-61718571D02*
X149982380Y-61909047D01*
X150030000Y-62004285D01*
X150077619Y-62051904D01*
X150220476Y-62147142D01*
X150410952Y-62194761D01*
X150791904Y-62194761D01*
X150887142Y-62147142D01*
X150934761Y-62099523D01*
X150982380Y-62004285D01*
X150982380Y-61813809D01*
X150934761Y-61718571D01*
X150887142Y-61670952D01*
X150791904Y-61623333D01*
X150553809Y-61623333D01*
X150458571Y-61670952D01*
X150410952Y-61718571D01*
X150363333Y-61813809D01*
X150363333Y-62004285D01*
X150410952Y-62099523D01*
X150458571Y-62147142D01*
X150553809Y-62194761D01*
%TO.C,R3*%
X211053333Y-112807380D02*
X210720000Y-112331190D01*
X210481904Y-112807380D02*
X210481904Y-111807380D01*
X210862857Y-111807380D01*
X210958095Y-111855000D01*
X211005714Y-111902619D01*
X211053333Y-111997857D01*
X211053333Y-112140714D01*
X211005714Y-112235952D01*
X210958095Y-112283571D01*
X210862857Y-112331190D01*
X210481904Y-112331190D01*
X211386666Y-111807380D02*
X212005714Y-111807380D01*
X211672380Y-112188333D01*
X211815238Y-112188333D01*
X211910476Y-112235952D01*
X211958095Y-112283571D01*
X212005714Y-112378809D01*
X212005714Y-112616904D01*
X211958095Y-112712142D01*
X211910476Y-112759761D01*
X211815238Y-112807380D01*
X211529523Y-112807380D01*
X211434285Y-112759761D01*
X211386666Y-112712142D01*
%TO.C,C10*%
X194175142Y-125579142D02*
X194127523Y-125626761D01*
X193984666Y-125674380D01*
X193889428Y-125674380D01*
X193746571Y-125626761D01*
X193651333Y-125531523D01*
X193603714Y-125436285D01*
X193556095Y-125245809D01*
X193556095Y-125102952D01*
X193603714Y-124912476D01*
X193651333Y-124817238D01*
X193746571Y-124722000D01*
X193889428Y-124674380D01*
X193984666Y-124674380D01*
X194127523Y-124722000D01*
X194175142Y-124769619D01*
X195127523Y-125674380D02*
X194556095Y-125674380D01*
X194841809Y-125674380D02*
X194841809Y-124674380D01*
X194746571Y-124817238D01*
X194651333Y-124912476D01*
X194556095Y-124960095D01*
X195746571Y-124674380D02*
X195841809Y-124674380D01*
X195937047Y-124722000D01*
X195984666Y-124769619D01*
X196032285Y-124864857D01*
X196079904Y-125055333D01*
X196079904Y-125293428D01*
X196032285Y-125483904D01*
X195984666Y-125579142D01*
X195937047Y-125626761D01*
X195841809Y-125674380D01*
X195746571Y-125674380D01*
X195651333Y-125626761D01*
X195603714Y-125579142D01*
X195556095Y-125483904D01*
X195508476Y-125293428D01*
X195508476Y-125055333D01*
X195556095Y-124864857D01*
X195603714Y-124769619D01*
X195651333Y-124722000D01*
X195746571Y-124674380D01*
%TO.C,R4*%
X178649333Y-121102380D02*
X178316000Y-120626190D01*
X178077904Y-121102380D02*
X178077904Y-120102380D01*
X178458857Y-120102380D01*
X178554095Y-120150000D01*
X178601714Y-120197619D01*
X178649333Y-120292857D01*
X178649333Y-120435714D01*
X178601714Y-120530952D01*
X178554095Y-120578571D01*
X178458857Y-120626190D01*
X178077904Y-120626190D01*
X179506476Y-120435714D02*
X179506476Y-121102380D01*
X179268380Y-120054761D02*
X179030285Y-120769047D01*
X179649333Y-120769047D01*
%TO.C,R6*%
X178649333Y-123388380D02*
X178316000Y-122912190D01*
X178077904Y-123388380D02*
X178077904Y-122388380D01*
X178458857Y-122388380D01*
X178554095Y-122436000D01*
X178601714Y-122483619D01*
X178649333Y-122578857D01*
X178649333Y-122721714D01*
X178601714Y-122816952D01*
X178554095Y-122864571D01*
X178458857Y-122912190D01*
X178077904Y-122912190D01*
X179506476Y-122388380D02*
X179316000Y-122388380D01*
X179220761Y-122436000D01*
X179173142Y-122483619D01*
X179077904Y-122626476D01*
X179030285Y-122816952D01*
X179030285Y-123197904D01*
X179077904Y-123293142D01*
X179125523Y-123340761D01*
X179220761Y-123388380D01*
X179411238Y-123388380D01*
X179506476Y-123340761D01*
X179554095Y-123293142D01*
X179601714Y-123197904D01*
X179601714Y-122959809D01*
X179554095Y-122864571D01*
X179506476Y-122816952D01*
X179411238Y-122769333D01*
X179220761Y-122769333D01*
X179125523Y-122816952D01*
X179077904Y-122864571D01*
X179030285Y-122959809D01*
%TO.C,D1*%
X208916904Y-119992380D02*
X208916904Y-118992380D01*
X209155000Y-118992380D01*
X209297857Y-119040000D01*
X209393095Y-119135238D01*
X209440714Y-119230476D01*
X209488333Y-119420952D01*
X209488333Y-119563809D01*
X209440714Y-119754285D01*
X209393095Y-119849523D01*
X209297857Y-119944761D01*
X209155000Y-119992380D01*
X208916904Y-119992380D01*
X210440714Y-119992380D02*
X209869285Y-119992380D01*
X210155000Y-119992380D02*
X210155000Y-118992380D01*
X210059761Y-119135238D01*
X209964523Y-119230476D01*
X209869285Y-119278095D01*
%TO.C,R5*%
X194143333Y-121102380D02*
X193810000Y-120626190D01*
X193571904Y-121102380D02*
X193571904Y-120102380D01*
X193952857Y-120102380D01*
X194048095Y-120150000D01*
X194095714Y-120197619D01*
X194143333Y-120292857D01*
X194143333Y-120435714D01*
X194095714Y-120530952D01*
X194048095Y-120578571D01*
X193952857Y-120626190D01*
X193571904Y-120626190D01*
X195048095Y-120102380D02*
X194571904Y-120102380D01*
X194524285Y-120578571D01*
X194571904Y-120530952D01*
X194667142Y-120483333D01*
X194905238Y-120483333D01*
X195000476Y-120530952D01*
X195048095Y-120578571D01*
X195095714Y-120673809D01*
X195095714Y-120911904D01*
X195048095Y-121007142D01*
X195000476Y-121054761D01*
X194905238Y-121102380D01*
X194667142Y-121102380D01*
X194571904Y-121054761D01*
X194524285Y-121007142D01*
%TO.C,C11*%
X177665142Y-127865142D02*
X177617523Y-127912761D01*
X177474666Y-127960380D01*
X177379428Y-127960380D01*
X177236571Y-127912761D01*
X177141333Y-127817523D01*
X177093714Y-127722285D01*
X177046095Y-127531809D01*
X177046095Y-127388952D01*
X177093714Y-127198476D01*
X177141333Y-127103238D01*
X177236571Y-127008000D01*
X177379428Y-126960380D01*
X177474666Y-126960380D01*
X177617523Y-127008000D01*
X177665142Y-127055619D01*
X178617523Y-127960380D02*
X178046095Y-127960380D01*
X178331809Y-127960380D02*
X178331809Y-126960380D01*
X178236571Y-127103238D01*
X178141333Y-127198476D01*
X178046095Y-127246095D01*
X179569904Y-127960380D02*
X178998476Y-127960380D01*
X179284190Y-127960380D02*
X179284190Y-126960380D01*
X179188952Y-127103238D01*
X179093714Y-127198476D01*
X178998476Y-127246095D01*
%TO.C,C2*%
X142477142Y-105516666D02*
X142524761Y-105564285D01*
X142572380Y-105707142D01*
X142572380Y-105802380D01*
X142524761Y-105945238D01*
X142429523Y-106040476D01*
X142334285Y-106088095D01*
X142143809Y-106135714D01*
X142000952Y-106135714D01*
X141810476Y-106088095D01*
X141715238Y-106040476D01*
X141620000Y-105945238D01*
X141572380Y-105802380D01*
X141572380Y-105707142D01*
X141620000Y-105564285D01*
X141667619Y-105516666D01*
X141667619Y-105135714D02*
X141620000Y-105088095D01*
X141572380Y-104992857D01*
X141572380Y-104754761D01*
X141620000Y-104659523D01*
X141667619Y-104611904D01*
X141762857Y-104564285D01*
X141858095Y-104564285D01*
X142000952Y-104611904D01*
X142572380Y-105183333D01*
X142572380Y-104564285D01*
%TO.C,SW1*%
X221666666Y-119550761D02*
X221809523Y-119598380D01*
X222047619Y-119598380D01*
X222142857Y-119550761D01*
X222190476Y-119503142D01*
X222238095Y-119407904D01*
X222238095Y-119312666D01*
X222190476Y-119217428D01*
X222142857Y-119169809D01*
X222047619Y-119122190D01*
X221857142Y-119074571D01*
X221761904Y-119026952D01*
X221714285Y-118979333D01*
X221666666Y-118884095D01*
X221666666Y-118788857D01*
X221714285Y-118693619D01*
X221761904Y-118646000D01*
X221857142Y-118598380D01*
X222095238Y-118598380D01*
X222238095Y-118646000D01*
X222571428Y-118598380D02*
X222809523Y-119598380D01*
X223000000Y-118884095D01*
X223190476Y-119598380D01*
X223428571Y-118598380D01*
X224333333Y-119598380D02*
X223761904Y-119598380D01*
X224047619Y-119598380D02*
X224047619Y-118598380D01*
X223952380Y-118741238D01*
X223857142Y-118836476D01*
X223761904Y-118884095D01*
%TO.C,U1*%
X145938095Y-90977380D02*
X145938095Y-91786904D01*
X145985714Y-91882142D01*
X146033333Y-91929761D01*
X146128571Y-91977380D01*
X146319047Y-91977380D01*
X146414285Y-91929761D01*
X146461904Y-91882142D01*
X146509523Y-91786904D01*
X146509523Y-90977380D01*
X147509523Y-91977380D02*
X146938095Y-91977380D01*
X147223809Y-91977380D02*
X147223809Y-90977380D01*
X147128571Y-91120238D01*
X147033333Y-91215476D01*
X146938095Y-91263095D01*
%TO.C,C5*%
X157002333Y-113345142D02*
X156954714Y-113392761D01*
X156811857Y-113440380D01*
X156716619Y-113440380D01*
X156573761Y-113392761D01*
X156478523Y-113297523D01*
X156430904Y-113202285D01*
X156383285Y-113011809D01*
X156383285Y-112868952D01*
X156430904Y-112678476D01*
X156478523Y-112583238D01*
X156573761Y-112488000D01*
X156716619Y-112440380D01*
X156811857Y-112440380D01*
X156954714Y-112488000D01*
X157002333Y-112535619D01*
X157907095Y-112440380D02*
X157430904Y-112440380D01*
X157383285Y-112916571D01*
X157430904Y-112868952D01*
X157526142Y-112821333D01*
X157764238Y-112821333D01*
X157859476Y-112868952D01*
X157907095Y-112916571D01*
X157954714Y-113011809D01*
X157954714Y-113249904D01*
X157907095Y-113345142D01*
X157859476Y-113392761D01*
X157764238Y-113440380D01*
X157526142Y-113440380D01*
X157430904Y-113392761D01*
X157383285Y-113345142D01*
%TO.C,C8*%
X156245833Y-74807142D02*
X156198214Y-74854761D01*
X156055357Y-74902380D01*
X155960119Y-74902380D01*
X155817261Y-74854761D01*
X155722023Y-74759523D01*
X155674404Y-74664285D01*
X155626785Y-74473809D01*
X155626785Y-74330952D01*
X155674404Y-74140476D01*
X155722023Y-74045238D01*
X155817261Y-73950000D01*
X155960119Y-73902380D01*
X156055357Y-73902380D01*
X156198214Y-73950000D01*
X156245833Y-73997619D01*
X156817261Y-74330952D02*
X156722023Y-74283333D01*
X156674404Y-74235714D01*
X156626785Y-74140476D01*
X156626785Y-74092857D01*
X156674404Y-73997619D01*
X156722023Y-73950000D01*
X156817261Y-73902380D01*
X157007738Y-73902380D01*
X157102976Y-73950000D01*
X157150595Y-73997619D01*
X157198214Y-74092857D01*
X157198214Y-74140476D01*
X157150595Y-74235714D01*
X157102976Y-74283333D01*
X157007738Y-74330952D01*
X156817261Y-74330952D01*
X156722023Y-74378571D01*
X156674404Y-74426190D01*
X156626785Y-74521428D01*
X156626785Y-74711904D01*
X156674404Y-74807142D01*
X156722023Y-74854761D01*
X156817261Y-74902380D01*
X157007738Y-74902380D01*
X157102976Y-74854761D01*
X157150595Y-74807142D01*
X157198214Y-74711904D01*
X157198214Y-74521428D01*
X157150595Y-74426190D01*
X157102976Y-74378571D01*
X157007738Y-74330952D01*
%TO.C,U3*%
X145938095Y-76202380D02*
X145938095Y-77011904D01*
X145985714Y-77107142D01*
X146033333Y-77154761D01*
X146128571Y-77202380D01*
X146319047Y-77202380D01*
X146414285Y-77154761D01*
X146461904Y-77107142D01*
X146509523Y-77011904D01*
X146509523Y-76202380D01*
X146890476Y-76202380D02*
X147509523Y-76202380D01*
X147176190Y-76583333D01*
X147319047Y-76583333D01*
X147414285Y-76630952D01*
X147461904Y-76678571D01*
X147509523Y-76773809D01*
X147509523Y-77011904D01*
X147461904Y-77107142D01*
X147414285Y-77154761D01*
X147319047Y-77202380D01*
X147033333Y-77202380D01*
X146938095Y-77154761D01*
X146890476Y-77107142D01*
%TO.C,R10*%
X126611142Y-75382380D02*
X126277809Y-74906190D01*
X126039714Y-75382380D02*
X126039714Y-74382380D01*
X126420666Y-74382380D01*
X126515904Y-74430000D01*
X126563523Y-74477619D01*
X126611142Y-74572857D01*
X126611142Y-74715714D01*
X126563523Y-74810952D01*
X126515904Y-74858571D01*
X126420666Y-74906190D01*
X126039714Y-74906190D01*
X127563523Y-75382380D02*
X126992095Y-75382380D01*
X127277809Y-75382380D02*
X127277809Y-74382380D01*
X127182571Y-74525238D01*
X127087333Y-74620476D01*
X126992095Y-74668095D01*
X128182571Y-74382380D02*
X128277809Y-74382380D01*
X128373047Y-74430000D01*
X128420666Y-74477619D01*
X128468285Y-74572857D01*
X128515904Y-74763333D01*
X128515904Y-75001428D01*
X128468285Y-75191904D01*
X128420666Y-75287142D01*
X128373047Y-75334761D01*
X128277809Y-75382380D01*
X128182571Y-75382380D01*
X128087333Y-75334761D01*
X128039714Y-75287142D01*
X127992095Y-75191904D01*
X127944476Y-75001428D01*
X127944476Y-74763333D01*
X127992095Y-74572857D01*
X128039714Y-74477619D01*
X128087333Y-74430000D01*
X128182571Y-74382380D01*
%TO.C,Q3*%
X135794761Y-127293619D02*
X135699523Y-127246000D01*
X135604285Y-127150761D01*
X135461428Y-127007904D01*
X135366190Y-126960285D01*
X135270952Y-126960285D01*
X135318571Y-127198380D02*
X135223333Y-127150761D01*
X135128095Y-127055523D01*
X135080476Y-126865047D01*
X135080476Y-126531714D01*
X135128095Y-126341238D01*
X135223333Y-126246000D01*
X135318571Y-126198380D01*
X135509047Y-126198380D01*
X135604285Y-126246000D01*
X135699523Y-126341238D01*
X135747142Y-126531714D01*
X135747142Y-126865047D01*
X135699523Y-127055523D01*
X135604285Y-127150761D01*
X135509047Y-127198380D01*
X135318571Y-127198380D01*
X136080476Y-126198380D02*
X136699523Y-126198380D01*
X136366190Y-126579333D01*
X136509047Y-126579333D01*
X136604285Y-126626952D01*
X136651904Y-126674571D01*
X136699523Y-126769809D01*
X136699523Y-127007904D01*
X136651904Y-127103142D01*
X136604285Y-127150761D01*
X136509047Y-127198380D01*
X136223333Y-127198380D01*
X136128095Y-127150761D01*
X136080476Y-127103142D01*
D12*
%TO.C,R9*%
X131037064Y-71909000D02*
X130582936Y-71909000D01*
X131037064Y-73379000D02*
X130582936Y-73379000D01*
%TO.C,R8*%
X131037064Y-69623000D02*
X130582936Y-69623000D01*
X131037064Y-71093000D02*
X130582936Y-71093000D01*
%TO.C,R1*%
X209269000Y-109246936D02*
X209269000Y-109701064D01*
X207799000Y-109246936D02*
X207799000Y-109701064D01*
%TO.C,R2*%
X213333000Y-109246936D02*
X213333000Y-109701064D01*
X214803000Y-109246936D02*
X214803000Y-109701064D01*
%TO.C,J5*%
X133880000Y-62575000D02*
X133880000Y-56575000D01*
X133980000Y-56575000D02*
X133980000Y-62575000D01*
X136520000Y-65632071D02*
X136520000Y-65235000D01*
X139950000Y-65235000D02*
X139950000Y-62575000D01*
X141600000Y-56575000D02*
X141600000Y-62575000D01*
X132270000Y-62575000D02*
X132270000Y-65235000D01*
X144140000Y-65632071D02*
X144140000Y-65235000D01*
X144140000Y-56575000D02*
X144140000Y-62575000D01*
X138300000Y-65632071D02*
X138300000Y-65235000D01*
X133760000Y-62575000D02*
X133760000Y-56575000D01*
X136520000Y-56575000D02*
X136520000Y-62575000D01*
X142490000Y-65235000D02*
X142490000Y-62575000D01*
X141600000Y-65632071D02*
X141600000Y-65235000D01*
X146680000Y-65632071D02*
X146680000Y-65235000D01*
X133520000Y-62575000D02*
X133520000Y-56575000D01*
X143380000Y-65632071D02*
X143380000Y-65235000D01*
X133280000Y-62575000D02*
X133280000Y-56575000D01*
X133980000Y-65565000D02*
X133980000Y-65235000D01*
X145920000Y-65632071D02*
X145920000Y-65235000D01*
X132270000Y-65235000D02*
X147630000Y-65235000D01*
X133400000Y-62575000D02*
X133400000Y-56575000D01*
X145920000Y-56575000D02*
X146680000Y-56575000D01*
X135760000Y-62575000D02*
X135760000Y-56575000D01*
X140840000Y-65632071D02*
X140840000Y-65235000D01*
X139060000Y-56575000D02*
X139060000Y-62575000D01*
X135760000Y-56575000D02*
X136520000Y-56575000D01*
X138300000Y-56575000D02*
X139060000Y-56575000D01*
X134870000Y-65235000D02*
X134870000Y-62575000D01*
X133220000Y-65565000D02*
X133220000Y-65235000D01*
X140840000Y-56575000D02*
X141600000Y-56575000D01*
X143380000Y-56575000D02*
X144140000Y-56575000D01*
X145030000Y-65235000D02*
X145030000Y-62575000D01*
X147630000Y-62575000D02*
X132270000Y-62575000D01*
X139060000Y-65632071D02*
X139060000Y-65235000D01*
X146680000Y-56575000D02*
X146680000Y-62575000D01*
X133220000Y-56575000D02*
X133980000Y-56575000D01*
X135760000Y-65632071D02*
X135760000Y-65235000D01*
X137410000Y-65235000D02*
X137410000Y-62575000D01*
X133600000Y-67945000D02*
X132330000Y-67945000D01*
X143380000Y-62575000D02*
X143380000Y-56575000D01*
X132330000Y-67945000D02*
X132330000Y-66675000D01*
X140840000Y-62575000D02*
X140840000Y-56575000D01*
X133640000Y-62575000D02*
X133640000Y-56575000D01*
X138300000Y-62575000D02*
X138300000Y-56575000D01*
X133220000Y-62575000D02*
X133220000Y-56575000D01*
X145920000Y-62575000D02*
X145920000Y-56575000D01*
X147630000Y-65235000D02*
X147630000Y-62575000D01*
%TO.C,C6*%
X150385000Y-105088748D02*
X150385000Y-105611252D01*
X148915000Y-105088748D02*
X148915000Y-105611252D01*
%TO.C,U5*%
X190010000Y-58245000D02*
X183930001Y-58245000D01*
X183930001Y-57885000D02*
X174020000Y-57885000D01*
X183930001Y-58245000D02*
X183930001Y-57885000D01*
X174020000Y-118505000D02*
X199920000Y-118505000D01*
X174020000Y-57885000D02*
X174020000Y-118505000D01*
X199920000Y-118505000D02*
X199920000Y-57885000D01*
X199920000Y-57885000D02*
X190010000Y-57885000D01*
X190010000Y-57885000D02*
X190010000Y-58245000D01*
%TO.C,C1*%
X144585000Y-90111252D02*
X144585000Y-89588748D01*
X143115000Y-90111252D02*
X143115000Y-89588748D01*
%TO.C,C7*%
X151135000Y-74938748D02*
X151135000Y-75461252D01*
X149665000Y-74938748D02*
X149665000Y-75461252D01*
%TO.C,U4*%
X164774000Y-112163000D02*
X163274000Y-112163000D01*
X163274000Y-111893000D02*
X162174000Y-111893000D01*
X164774000Y-105263000D02*
X163274000Y-105263000D01*
X163274000Y-105533000D02*
X160444000Y-105533000D01*
X163274000Y-112163000D02*
X163274000Y-111893000D01*
X163274000Y-105263000D02*
X163274000Y-105533000D01*
%TO.C,U2*%
X146700000Y-115785000D02*
X144500000Y-115785000D01*
X146700000Y-107715000D02*
X148900000Y-107715000D01*
X146700000Y-115785000D02*
X148900000Y-115785000D01*
X146700000Y-107715000D02*
X143100000Y-107715000D01*
%TO.C,C3*%
X148865000Y-89588748D02*
X148865000Y-90111252D01*
X150335000Y-89588748D02*
X150335000Y-90111252D01*
%TO.C,J7*%
X159764000Y-115858000D02*
X163084000Y-115858000D01*
X166304000Y-130098000D02*
X166304000Y-134098000D01*
X168204000Y-130098000D02*
X166304000Y-130098000D01*
X159764000Y-130098000D02*
X159764000Y-115858000D01*
X165334000Y-115858000D02*
X168204000Y-115858000D01*
X166304000Y-134098000D02*
X160064000Y-134098000D01*
X160064000Y-134098000D02*
X160064000Y-130098000D01*
X160064000Y-130098000D02*
X159764000Y-130098000D01*
X168204000Y-115858000D02*
X168204000Y-130098000D01*
%TO.C,Q2*%
X140426000Y-124060000D02*
X140426000Y-123410000D01*
X143546000Y-124060000D02*
X143546000Y-124710000D01*
X143546000Y-124060000D02*
X143546000Y-123410000D01*
X140426000Y-124060000D02*
X140426000Y-125735000D01*
%TO.C,R7*%
X191034936Y-123671000D02*
X191489064Y-123671000D01*
X191034936Y-122201000D02*
X191489064Y-122201000D01*
%TO.C,C4*%
X157930252Y-107248000D02*
X156507748Y-107248000D01*
X157930252Y-105428000D02*
X156507748Y-105428000D01*
%TO.C,J4*%
X169970000Y-59145000D02*
X171300000Y-59145000D01*
X172630000Y-61745000D02*
X172630000Y-64345000D01*
X169970000Y-61745000D02*
X172630000Y-61745000D01*
X169970000Y-64345000D02*
X172630000Y-64345000D01*
X169970000Y-60475000D02*
X169970000Y-59145000D01*
X169970000Y-61745000D02*
X169970000Y-64345000D01*
%TO.C,C12*%
X191465252Y-128672000D02*
X190042748Y-128672000D01*
X191465252Y-126852000D02*
X190042748Y-126852000D01*
%TO.C,U6*%
X205910000Y-67082500D02*
X205910000Y-114062500D01*
X226475400Y-114062500D02*
X226475400Y-67082500D01*
X215637200Y-67070000D02*
X205910000Y-67070000D01*
X226475400Y-67070000D02*
X217637200Y-67070000D01*
X205910000Y-114180000D02*
X226475400Y-114180000D01*
X215637200Y-67044600D02*
G75*
G03*
X217637200Y-67044600I1000000J0D01*
G01*
%TO.C,C9*%
X181602748Y-125957000D02*
X182125252Y-125957000D01*
X181602748Y-124487000D02*
X182125252Y-124487000D01*
%TO.C,Q1*%
X146776000Y-124060000D02*
X146776000Y-123410000D01*
X149896000Y-124060000D02*
X149896000Y-124710000D01*
X146776000Y-124060000D02*
X146776000Y-125735000D01*
X149896000Y-124060000D02*
X149896000Y-123410000D01*
%TO.C,G1*%
G36*
X164757165Y-80887734D02*
G01*
X164902028Y-81143563D01*
X164902282Y-81424372D01*
X164850914Y-81515904D01*
X164606323Y-81704770D01*
X164422240Y-81645954D01*
X164330716Y-81356217D01*
X164326031Y-81241435D01*
X164371189Y-80893564D01*
X164512438Y-80776184D01*
X164520829Y-80775990D01*
X164757165Y-80887734D01*
G37*
G36*
X164477152Y-94696423D02*
G01*
X164869344Y-94879841D01*
X165225221Y-95216468D01*
X165465653Y-95616250D01*
X165522890Y-95886514D01*
X165408417Y-96426893D01*
X165103023Y-96848917D01*
X164663745Y-97130439D01*
X164147619Y-97249314D01*
X163611684Y-97183395D01*
X163112975Y-96910535D01*
X163043611Y-96849174D01*
X162811663Y-96469917D01*
X162747145Y-96098900D01*
X163290971Y-96098900D01*
X163421738Y-96308555D01*
X163699469Y-96433718D01*
X164101417Y-96462338D01*
X164505947Y-96399342D01*
X164787935Y-96253203D01*
X164914817Y-95998787D01*
X164831524Y-95757323D01*
X164593192Y-95560445D01*
X164254959Y-95439784D01*
X163871962Y-95426974D01*
X163534270Y-95533958D01*
X163302864Y-95781953D01*
X163290971Y-96098900D01*
X162747145Y-96098900D01*
X162725371Y-95973683D01*
X162791962Y-95470601D01*
X162933617Y-95173051D01*
X163256128Y-94905868D01*
X163730734Y-94727485D01*
X163871962Y-94712176D01*
X164249402Y-94671263D01*
X164477152Y-94696423D01*
G37*
G36*
X164489540Y-87641671D02*
G01*
X164815304Y-87805208D01*
X164983521Y-88029391D01*
X164990953Y-88090126D01*
X164871641Y-88332142D01*
X164568377Y-88524358D01*
X164163169Y-88619034D01*
X164077161Y-88622063D01*
X163593737Y-88547577D01*
X163320971Y-88329656D01*
X163262157Y-88090126D01*
X163350879Y-87810895D01*
X163421738Y-87717770D01*
X163707281Y-87577670D01*
X164091707Y-87559065D01*
X164489540Y-87641671D01*
G37*
G36*
X163755346Y-89835322D02*
G01*
X163914791Y-89978130D01*
X163927079Y-90053356D01*
X163817322Y-90282615D01*
X163627864Y-90419063D01*
X163392084Y-90626413D01*
X163281859Y-90934735D01*
X163285335Y-91271587D01*
X163390660Y-91564527D01*
X163585980Y-91741114D01*
X163843250Y-91735445D01*
X164007950Y-91569924D01*
X164193005Y-91237193D01*
X164292304Y-90992077D01*
X164549460Y-90394411D01*
X164834033Y-90025573D01*
X165182934Y-89848591D01*
X165463533Y-89818922D01*
X165814594Y-89866748D01*
X166057539Y-90057856D01*
X166189269Y-90251121D01*
X166419904Y-90873620D01*
X166402052Y-91546706D01*
X166239151Y-92026311D01*
X166041161Y-92342765D01*
X165799555Y-92466945D01*
X165640722Y-92478607D01*
X165362647Y-92439385D01*
X165264145Y-92275167D01*
X165256922Y-92146147D01*
X165322333Y-91882191D01*
X165507387Y-91813686D01*
X165716415Y-91699081D01*
X165835143Y-91411036D01*
X165841399Y-91033208D01*
X165778778Y-90789789D01*
X165599729Y-90514820D01*
X165384100Y-90485695D01*
X165155288Y-90689138D01*
X164936691Y-91111875D01*
X164867729Y-91306686D01*
X164582506Y-91946470D01*
X164217746Y-92335420D01*
X163769353Y-92477747D01*
X163727602Y-92478607D01*
X163259349Y-92365576D01*
X162933297Y-92034951D01*
X162758597Y-91499435D01*
X162730220Y-91093928D01*
X162775280Y-90582408D01*
X162894401Y-90187782D01*
X162937237Y-90114480D01*
X163178476Y-89908936D01*
X163480543Y-89814070D01*
X163755346Y-89835322D01*
G37*
G36*
X165053154Y-100008770D02*
G01*
X165337496Y-100351912D01*
X165493065Y-100886515D01*
X165421916Y-101375605D01*
X165154467Y-101766074D01*
X164721135Y-102004815D01*
X164362934Y-102053477D01*
X163927079Y-102053477D01*
X163927079Y-101255571D01*
X163914373Y-100923110D01*
X164326031Y-100923110D01*
X164371189Y-101270981D01*
X164512438Y-101388360D01*
X164520829Y-101388555D01*
X164766080Y-101280794D01*
X164888418Y-101032203D01*
X164847367Y-100754823D01*
X164781714Y-100666377D01*
X164532028Y-100480147D01*
X164384355Y-100534518D01*
X164327494Y-100835802D01*
X164326031Y-100923110D01*
X163914373Y-100923110D01*
X163908894Y-100779749D01*
X163848146Y-100527350D01*
X163743885Y-100457665D01*
X163463650Y-100572027D01*
X163311147Y-100885173D01*
X163307555Y-101352196D01*
X163311105Y-101375302D01*
X163339918Y-101744485D01*
X163263531Y-101929546D01*
X163197031Y-101968059D01*
X162982540Y-101942190D01*
X162828997Y-101721693D01*
X162742007Y-101372090D01*
X162727176Y-100958898D01*
X162790109Y-100547639D01*
X162936414Y-100203833D01*
X163035828Y-100083939D01*
X163505057Y-99796725D01*
X164048015Y-99694319D01*
X164532028Y-99760152D01*
X164589210Y-99767930D01*
X165053154Y-100008770D01*
G37*
G36*
X165763640Y-78083058D02*
G01*
X165704689Y-78424624D01*
X165567521Y-78582728D01*
X165397357Y-78627624D01*
X165051619Y-78560469D01*
X164810483Y-78288881D01*
X164724984Y-77891410D01*
X164758005Y-77693929D01*
X164905865Y-77605466D01*
X165241760Y-77584397D01*
X165264949Y-77584367D01*
X165804914Y-77584367D01*
X165763640Y-78083058D01*
G37*
G36*
X165404122Y-92891773D02*
G01*
X165423152Y-92985197D01*
X165509694Y-93104713D01*
X165722367Y-93143529D01*
X165959967Y-93186467D01*
X166046888Y-93368993D01*
X166054827Y-93542482D01*
X166019820Y-93826847D01*
X165867378Y-93931157D01*
X165708139Y-93941435D01*
X165461054Y-93983609D01*
X165433208Y-94127743D01*
X165437996Y-94140911D01*
X165421108Y-94295587D01*
X165190429Y-94340388D01*
X164957115Y-94293463D01*
X164942862Y-94140911D01*
X164941289Y-94032598D01*
X164800501Y-93971320D01*
X164472719Y-93945195D01*
X164140783Y-93941435D01*
X163668343Y-93949464D01*
X163403326Y-93985326D01*
X163287384Y-94066686D01*
X163262157Y-94207403D01*
X163168123Y-94429661D01*
X162996189Y-94473372D01*
X162811394Y-94420016D01*
X162738009Y-94212939D01*
X162730220Y-94017426D01*
X162789104Y-93642082D01*
X162931568Y-93360433D01*
X162939195Y-93352504D01*
X163173714Y-93224937D01*
X163586451Y-93158493D01*
X164069562Y-93143529D01*
X164567676Y-93132606D01*
X164851998Y-93092031D01*
X164974098Y-93010094D01*
X164990953Y-92934302D01*
X165087239Y-92777638D01*
X165223675Y-92775969D01*
X165404122Y-92891773D01*
G37*
G36*
X167517654Y-102585414D02*
G01*
X161533361Y-102585414D01*
X161533361Y-102186461D01*
X161932314Y-102186461D01*
X167118702Y-102186461D01*
X167118702Y-89154000D01*
X167117347Y-86699430D01*
X167113296Y-84496454D01*
X167106563Y-82546668D01*
X167097165Y-80851669D01*
X167085118Y-79413051D01*
X167070439Y-78232411D01*
X167053143Y-77311344D01*
X167033248Y-76651446D01*
X167010769Y-76254313D01*
X166985723Y-76121539D01*
X166985717Y-76121539D01*
X166952086Y-76253804D01*
X166923201Y-76647803D01*
X166899147Y-77299340D01*
X166880006Y-78204223D01*
X166865861Y-79358258D01*
X166856796Y-80757249D01*
X166852892Y-82397003D01*
X166852733Y-82837246D01*
X166852733Y-89552953D01*
X162198283Y-89552953D01*
X162198283Y-88233812D01*
X162740035Y-88233812D01*
X162858830Y-88723773D01*
X162933617Y-88853273D01*
X163264730Y-89128051D01*
X163746813Y-89301035D01*
X164273743Y-89338569D01*
X164409245Y-89321238D01*
X164922656Y-89110251D01*
X165288976Y-88725352D01*
X165472329Y-88231006D01*
X165436838Y-87691677D01*
X165390132Y-87558736D01*
X165095987Y-87164026D01*
X164647811Y-86911223D01*
X164122377Y-86810062D01*
X163596457Y-86870277D01*
X163146824Y-87101602D01*
X162996716Y-87255262D01*
X162787607Y-87703526D01*
X162740035Y-88233812D01*
X162198283Y-88233812D01*
X162198283Y-85430440D01*
X162730220Y-85430440D01*
X162753259Y-85854148D01*
X162830772Y-86058900D01*
X162921848Y-86095361D01*
X163148260Y-86014314D01*
X163195665Y-85962377D01*
X163364548Y-85888289D01*
X163710763Y-85840012D01*
X163998885Y-85829393D01*
X164122377Y-85832849D01*
X164420463Y-85841190D01*
X164649866Y-85896558D01*
X164760543Y-86025458D01*
X164802163Y-86157088D01*
X164951739Y-86415589D01*
X165192907Y-86584641D01*
X165428324Y-86607200D01*
X165497169Y-86564364D01*
X165497030Y-86402855D01*
X165381037Y-86123882D01*
X165360348Y-86086776D01*
X165244008Y-85828394D01*
X165248650Y-85699649D01*
X165263107Y-85696408D01*
X165342513Y-85578416D01*
X165386675Y-85283661D01*
X165389906Y-85164471D01*
X165356967Y-84794599D01*
X165247777Y-84642188D01*
X165190429Y-84632534D01*
X165014123Y-84738984D01*
X164990953Y-84832011D01*
X164932859Y-84944341D01*
X164725451Y-85006539D01*
X164319041Y-85030176D01*
X164134403Y-85031487D01*
X163680446Y-85012277D01*
X163340118Y-84962139D01*
X163195665Y-84898503D01*
X163003253Y-84776140D01*
X162921848Y-84765518D01*
X162799737Y-84845461D01*
X162740728Y-85114418D01*
X162730220Y-85430440D01*
X162198283Y-85430440D01*
X162198283Y-83917404D01*
X162730220Y-83917404D01*
X162762384Y-84231314D01*
X162886674Y-84354494D01*
X162996189Y-84366566D01*
X163218446Y-84272531D01*
X163262157Y-84100597D01*
X163289098Y-83956659D01*
X163409100Y-83876410D01*
X163680933Y-83841767D01*
X164126555Y-83834628D01*
X164611409Y-83847946D01*
X164880892Y-83895531D01*
X164984623Y-83988834D01*
X164990953Y-84034105D01*
X165097402Y-84210411D01*
X165190429Y-84233581D01*
X165366736Y-84127132D01*
X165389906Y-84034105D01*
X165505509Y-83873671D01*
X165722367Y-83834628D01*
X165959967Y-83791690D01*
X166046888Y-83609164D01*
X166054827Y-83435676D01*
X166019045Y-83150555D01*
X165866941Y-83046250D01*
X165722367Y-83036723D01*
X165454976Y-82967360D01*
X165389906Y-82837246D01*
X165283456Y-82660940D01*
X165190429Y-82637770D01*
X165013951Y-82736511D01*
X164990953Y-82822239D01*
X164906344Y-82932580D01*
X164629117Y-83007345D01*
X164124171Y-83055598D01*
X164076374Y-83058387D01*
X163445964Y-83125123D01*
X163038570Y-83256991D01*
X162814208Y-83479507D01*
X162732894Y-83818184D01*
X162730220Y-83917404D01*
X162198283Y-83917404D01*
X162198283Y-82837246D01*
X162196082Y-81409859D01*
X162726194Y-81409859D01*
X162775781Y-81918746D01*
X162810940Y-82028464D01*
X162996771Y-82208909D01*
X163130746Y-82238817D01*
X163280216Y-82198300D01*
X163327061Y-82030797D01*
X163298656Y-81708152D01*
X163304797Y-81226777D01*
X163455392Y-80901503D01*
X163729477Y-80776222D01*
X163743885Y-80775990D01*
X163853131Y-80855195D01*
X163911079Y-81119783D01*
X163927079Y-81573895D01*
X163927079Y-82371801D01*
X164367448Y-82371801D01*
X164871939Y-82257912D01*
X165190429Y-81998361D01*
X165243800Y-81954867D01*
X165448815Y-81520604D01*
X165452767Y-81013058D01*
X165349742Y-80708547D01*
X165029623Y-80317484D01*
X164565053Y-80080823D01*
X164033633Y-80006566D01*
X163512965Y-80102717D01*
X163080649Y-80377279D01*
X163001951Y-80466408D01*
X162807028Y-80881231D01*
X162726194Y-81409859D01*
X162196082Y-81409859D01*
X162195664Y-81138849D01*
X162187862Y-79680182D01*
X162174960Y-78465439D01*
X162157042Y-77498814D01*
X162147015Y-77185414D01*
X162730220Y-77185414D01*
X162747972Y-77659252D01*
X162807742Y-77911174D01*
X162915469Y-77983319D01*
X163120765Y-77876051D01*
X163177263Y-77783843D01*
X163370558Y-77632894D01*
X163731456Y-77584367D01*
X164042854Y-77599661D01*
X164168345Y-77698160D01*
X164177404Y-77958788D01*
X164167829Y-78080094D01*
X164123874Y-78389440D01*
X164008358Y-78551143D01*
X163744021Y-78638229D01*
X163537770Y-78675618D01*
X163075179Y-78797263D01*
X162825087Y-78995176D01*
X162735582Y-79316870D01*
X162732256Y-79412901D01*
X162818196Y-79647670D01*
X163009163Y-79714195D01*
X163195665Y-79579131D01*
X163379853Y-79474402D01*
X163587734Y-79446147D01*
X163919779Y-79363448D01*
X164033633Y-79297025D01*
X164205848Y-79196553D01*
X164431235Y-79035434D01*
X164601002Y-79033202D01*
X164844801Y-79191483D01*
X164862807Y-79204783D01*
X165298450Y-79382316D01*
X165737875Y-79320698D01*
X166102469Y-79032539D01*
X166124422Y-79002409D01*
X166227424Y-78734499D01*
X166296314Y-78318737D01*
X166331173Y-77822733D01*
X166332079Y-77314100D01*
X166299114Y-76860449D01*
X166232357Y-76529394D01*
X166131890Y-76388544D01*
X166121319Y-76387508D01*
X165945013Y-76493958D01*
X165921843Y-76586984D01*
X165800838Y-76686498D01*
X165482444Y-76756434D01*
X165033587Y-76796792D01*
X164521199Y-76807572D01*
X164012206Y-76788775D01*
X163573537Y-76740399D01*
X163272123Y-76662446D01*
X163177263Y-76586984D01*
X163009824Y-76410245D01*
X162915469Y-76387508D01*
X162805458Y-76463969D01*
X162746970Y-76721411D01*
X162730220Y-77185414D01*
X162147015Y-77185414D01*
X162134189Y-76784502D01*
X162106487Y-76326696D01*
X162074016Y-76129591D01*
X162065298Y-76121539D01*
X162040252Y-76254252D01*
X162017772Y-76651324D01*
X161997877Y-77311162D01*
X161980581Y-78232169D01*
X161965901Y-79412750D01*
X161953854Y-80851308D01*
X161944455Y-82546249D01*
X161937721Y-84495976D01*
X161933669Y-86698894D01*
X161932314Y-89153407D01*
X161932314Y-102186461D01*
X161533361Y-102186461D01*
X161533361Y-75722587D01*
X167517654Y-75722587D01*
X167517654Y-102585414D01*
G37*
G36*
X165376455Y-97685898D02*
G01*
X165433699Y-98019452D01*
X165434290Y-98074031D01*
X165413386Y-98427424D01*
X165362334Y-98663523D01*
X165354352Y-98678809D01*
X165346949Y-98889361D01*
X165396644Y-99001187D01*
X165515104Y-99308761D01*
X165420988Y-99490735D01*
X165250004Y-99526775D01*
X164988189Y-99405010D01*
X164838042Y-99127822D01*
X164736657Y-98894972D01*
X164589654Y-98776423D01*
X164316128Y-98733900D01*
X163994789Y-98728869D01*
X163524101Y-98757065D01*
X163272949Y-98848657D01*
X163214066Y-98928346D01*
X163036343Y-99105252D01*
X162933870Y-99127822D01*
X162811714Y-99065863D01*
X162748665Y-98845300D01*
X162730235Y-98414107D01*
X162730220Y-98396408D01*
X162741764Y-97973726D01*
X162791677Y-97753532D01*
X162902879Y-97672796D01*
X162996189Y-97664995D01*
X163212284Y-97720685D01*
X163262157Y-97797979D01*
X163384289Y-97867471D01*
X163707822Y-97915050D01*
X164126555Y-97930963D01*
X164606613Y-97918761D01*
X164873950Y-97873684D01*
X164981046Y-97783030D01*
X164990953Y-97721736D01*
X165090658Y-97561956D01*
X165212650Y-97555506D01*
X165376455Y-97685898D01*
G37*
%TO.C,J6*%
X154960000Y-65632071D02*
X154960000Y-65235000D01*
X160040000Y-65632071D02*
X160040000Y-65235000D01*
X152420000Y-65565000D02*
X152420000Y-65235000D01*
X153080000Y-62575000D02*
X153080000Y-56575000D01*
X165880000Y-56575000D02*
X165880000Y-62575000D01*
X154960000Y-56575000D02*
X155720000Y-56575000D01*
X164230000Y-65235000D02*
X164230000Y-62575000D01*
X155720000Y-65632071D02*
X155720000Y-65235000D01*
X151470000Y-65235000D02*
X166830000Y-65235000D01*
X155720000Y-56575000D02*
X155720000Y-62575000D01*
X158260000Y-56575000D02*
X158260000Y-62575000D01*
X160800000Y-65632071D02*
X160800000Y-65235000D01*
X162580000Y-62575000D02*
X162580000Y-56575000D01*
X157500000Y-62575000D02*
X157500000Y-56575000D01*
X162580000Y-56575000D02*
X163340000Y-56575000D01*
X165120000Y-56575000D02*
X165880000Y-56575000D01*
X157500000Y-56575000D02*
X158260000Y-56575000D01*
X160040000Y-62575000D02*
X160040000Y-56575000D01*
X161690000Y-65235000D02*
X161690000Y-62575000D01*
X163340000Y-65632071D02*
X163340000Y-65235000D01*
X160040000Y-56575000D02*
X160800000Y-56575000D01*
X162580000Y-65632071D02*
X162580000Y-65235000D01*
X154070000Y-65235000D02*
X154070000Y-62575000D01*
X157500000Y-65632071D02*
X157500000Y-65235000D01*
X151470000Y-62575000D02*
X151470000Y-65235000D01*
X165880000Y-65632071D02*
X165880000Y-65235000D01*
X160800000Y-56575000D02*
X160800000Y-62575000D01*
X165120000Y-65632071D02*
X165120000Y-65235000D01*
X152840000Y-62575000D02*
X152840000Y-56575000D01*
X156610000Y-65235000D02*
X156610000Y-62575000D01*
X152720000Y-62575000D02*
X152720000Y-56575000D01*
X163340000Y-56575000D02*
X163340000Y-62575000D01*
X152420000Y-62575000D02*
X152420000Y-56575000D01*
X153180000Y-65565000D02*
X153180000Y-65235000D01*
X166830000Y-62575000D02*
X151470000Y-62575000D01*
X152420000Y-56575000D02*
X153180000Y-56575000D01*
X152800000Y-67945000D02*
X151530000Y-67945000D01*
X153180000Y-56575000D02*
X153180000Y-62575000D01*
X151530000Y-67945000D02*
X151530000Y-66675000D01*
X152600000Y-62575000D02*
X152600000Y-56575000D01*
X152960000Y-62575000D02*
X152960000Y-56575000D01*
X152480000Y-62575000D02*
X152480000Y-56575000D01*
X165120000Y-62575000D02*
X165120000Y-56575000D01*
X166830000Y-65235000D02*
X166830000Y-62575000D01*
X159150000Y-65235000D02*
X159150000Y-62575000D01*
X154960000Y-62575000D02*
X154960000Y-56575000D01*
X158260000Y-65632071D02*
X158260000Y-65235000D01*
%TO.C,R3*%
X212009000Y-109246936D02*
X212009000Y-109701064D01*
X210539000Y-109246936D02*
X210539000Y-109701064D01*
%TO.C,C10*%
X191000748Y-125957000D02*
X191523252Y-125957000D01*
X191000748Y-124487000D02*
X191523252Y-124487000D01*
%TO.C,R4*%
X181636936Y-119915000D02*
X182091064Y-119915000D01*
X181636936Y-121385000D02*
X182091064Y-121385000D01*
%TO.C,R6*%
X181636936Y-122201000D02*
X182091064Y-122201000D01*
X181636936Y-123671000D02*
X182091064Y-123671000D01*
%TO.C,D1*%
X207095000Y-124580000D02*
X207095000Y-125045000D01*
X207095000Y-121955000D02*
X207095000Y-122420000D01*
X212442815Y-122419173D02*
G75*
G03*
X207095000Y-121955170I-2787815J-1080827D01*
G01*
X207095000Y-125044830D02*
G75*
G03*
X212442815Y-124580827I2560000J1544830D01*
G01*
X211909479Y-122419571D02*
G75*
G03*
X207400316Y-122420000I-2254479J-1080429D01*
G01*
X207400316Y-124580000D02*
G75*
G03*
X211909479Y-124580429I2254684J1080000D01*
G01*
%TO.C,R5*%
X191034936Y-121385000D02*
X191489064Y-121385000D01*
X191034936Y-119915000D02*
X191489064Y-119915000D01*
%TO.C,J2*%
X114997000Y-125033000D02*
X120197000Y-125033000D01*
X117597000Y-61413000D02*
X120197000Y-61413000D01*
X114997000Y-61413000D02*
X116327000Y-61413000D01*
X120197000Y-61413000D02*
X120197000Y-125033000D01*
X114997000Y-64013000D02*
X117597000Y-64013000D01*
X114997000Y-64013000D02*
X114997000Y-125033000D01*
X117597000Y-64013000D02*
X117597000Y-61413000D01*
X114997000Y-62743000D02*
X114997000Y-61413000D01*
%TO.C,C11*%
X183083252Y-128672000D02*
X181660748Y-128672000D01*
X183083252Y-126852000D02*
X181660748Y-126852000D01*
%TO.C,C2*%
X144535000Y-105611252D02*
X144535000Y-105088748D01*
X143065000Y-105611252D02*
X143065000Y-105088748D01*
%TO.C,SW1*%
X226500000Y-124250000D02*
X226500000Y-122750000D01*
X225250000Y-120250000D02*
X220750000Y-120250000D01*
X219500000Y-122750000D02*
X219500000Y-124250000D01*
X220750000Y-126750000D02*
X225250000Y-126750000D01*
%TO.C,U1*%
X146700000Y-92340000D02*
X148900000Y-92340000D01*
X146700000Y-100410000D02*
X148900000Y-100410000D01*
X146700000Y-92340000D02*
X143100000Y-92340000D01*
X146700000Y-100410000D02*
X144500000Y-100410000D01*
%TO.C,C5*%
X157880252Y-112048000D02*
X156457748Y-112048000D01*
X157880252Y-110228000D02*
X156457748Y-110228000D01*
%TO.C,C8*%
X156151248Y-71815000D02*
X156673752Y-71815000D01*
X156151248Y-73285000D02*
X156673752Y-73285000D01*
%TO.C,U3*%
X146700000Y-85010000D02*
X149460000Y-85010000D01*
X146700000Y-85010000D02*
X143940000Y-85010000D01*
X143940000Y-77590000D02*
X143940000Y-77865000D01*
X149460000Y-85010000D02*
X149460000Y-84735000D01*
X146700000Y-77590000D02*
X143940000Y-77590000D01*
X143940000Y-85010000D02*
X143940000Y-84735000D01*
X143940000Y-77865000D02*
X142250000Y-77865000D01*
X149460000Y-77590000D02*
X149460000Y-77865000D01*
X146700000Y-77590000D02*
X149460000Y-77590000D01*
%TO.C,J3*%
X231480000Y-67100000D02*
X228820000Y-67100000D01*
X231480000Y-115480000D02*
X230150000Y-115480000D01*
X231480000Y-112880000D02*
X228820000Y-112880000D01*
X231480000Y-112880000D02*
X231480000Y-67100000D01*
X231480000Y-114150000D02*
X231480000Y-115480000D01*
X228820000Y-112880000D02*
X228820000Y-67100000D01*
%TO.C,R10*%
X131037064Y-74195000D02*
X130582936Y-74195000D01*
X131037064Y-75665000D02*
X130582936Y-75665000D01*
%TO.C,Q3*%
X137196000Y-124060000D02*
X137196000Y-123410000D01*
X134076000Y-124060000D02*
X134076000Y-123410000D01*
X134076000Y-124060000D02*
X134076000Y-125735000D01*
X137196000Y-124060000D02*
X137196000Y-124710000D01*
%TD*%
M02*
