M48
; DRILL file {KiCad (6.0.7)} date Tue Aug 23 12:46:38 2022
; FORMAT={-:-/ absolute / inch / decimal}
; #@! TF.CreationDate,2022-08-23T12:46:38-07:00
; #@! TF.GenerationSoftware,Kicad,Pcbnew,(6.0.7)
; #@! TF.FileFunction,Plated,1,2,PTH
FMAT,2
INCH
; #@! TA.AperFunction,Plated,PTH,ViaDrill
T1C0.0157
; #@! TA.AperFunction,Plated,PTH,ComponentDrill
T2C0.0197
; #@! TA.AperFunction,Plated,PTH,ComponentDrill
T3C0.0315
; #@! TA.AperFunction,Plated,PTH,ComponentDrill
T4C0.0354
; #@! TA.AperFunction,Plated,PTH,ComponentDrill
T5C0.0394
; #@! TA.AperFunction,Plated,PTH,ComponentDrill
T6C0.0433
; #@! TA.AperFunction,Plated,PTH,ComponentDrill
T7C0.0787
; #@! TA.AperFunction,Plated,PTH,ComponentDrill
T8C0.1181
%
G90
G05
T1
X5.34Y-4.73
X5.36Y-2.95
X5.39Y-2.86
X5.42Y-2.77
X5.43Y-4.92
X5.5472Y-3.0886
X5.5472Y-3.6535
X5.5472Y-4.2579
X5.59Y-4.76
X5.6594Y-4.6122
X5.6634Y-4.0138
X5.68Y-4.92
X5.7097Y-4.2854
X5.84Y-4.79
X5.8878Y-4.0138
X5.94Y-4.92
X5.9646Y-3.6555
X5.9656Y-4.2589
X6.0118Y-3.7332
X6.0466Y-3.7517
X6.06Y-4.19
X6.06Y-4.37
X6.0768Y-3.7815
X6.1181Y-3.8051
X6.1634Y-3.8307
X6.2Y-3.86
X6.23Y-3.89
X6.25Y-4.28
X6.25Y-4.32
X6.27Y-3.92
X6.34Y-5.07
X6.361Y-4.4424
X6.92Y-5.07
X7.28Y-4.93
X7.57Y-4.08
X7.65Y-4.93
X8.32Y-3.9
X8.43Y-3.84
T2
X4.8214Y-2.4
X4.8214Y-4.94
X4.8474Y-2.3374
X4.8474Y-2.4626
X4.8474Y-4.8774
X4.8474Y-5.0026
X4.91Y-2.3114
X4.91Y-2.4886
X4.91Y-4.8514
X4.91Y-5.0286
X4.9726Y-2.3374
X4.9726Y-2.4626
X4.9726Y-4.8774
X4.9726Y-5.0026
X4.9986Y-2.4
X4.9986Y-4.94
X9.0433Y-2.4
X9.0433Y-4.94
X9.0693Y-2.3374
X9.0693Y-2.4626
X9.0693Y-4.8774
X9.0693Y-5.0026
X9.1319Y-2.3114
X9.1319Y-2.4886
X9.1319Y-4.8514
X9.1319Y-5.0286
X9.1945Y-2.3374
X9.1945Y-2.4626
X9.1945Y-4.8774
X9.1945Y-5.0026
X9.2205Y-2.4
X9.2205Y-4.94
T3
X6.9102Y-2.3222
X6.9102Y-2.4222
X6.9102Y-2.5222
X6.9102Y-2.6222
X6.9102Y-2.7222
X6.9102Y-2.8222
X6.9102Y-2.9222
X6.9102Y-3.0222
X6.9102Y-3.1222
X6.9102Y-3.2222
X6.9102Y-3.3222
X6.9102Y-3.4222
X6.9102Y-3.5222
X6.9102Y-3.6222
X6.9102Y-3.7222
X6.9102Y-3.8222
X6.9102Y-3.9222
X6.9102Y-4.0222
X6.9102Y-4.1222
X6.9102Y-4.2222
X6.9102Y-4.3222
X6.9102Y-4.4222
X6.9102Y-4.5222
X6.9102Y-4.6222
X7.8118Y-2.3222
X7.8118Y-2.4222
X7.8118Y-2.5222
X7.8118Y-2.6222
X7.8118Y-2.7222
X7.8118Y-2.8222
X7.8118Y-2.9222
X7.8118Y-3.0222
X7.8118Y-3.1222
X7.8118Y-3.2222
X7.8118Y-3.3222
X7.8118Y-3.4222
X7.8118Y-3.5222
X7.8118Y-3.6222
X7.8118Y-3.7222
X7.8118Y-3.8222
X7.8118Y-3.9222
X7.8118Y-4.0222
X7.8118Y-4.1222
X7.8118Y-4.2222
X7.8118Y-4.3222
X7.8118Y-4.4222
X7.8118Y-4.5222
X7.8118Y-4.6222
X8.061Y-2.6929
X8.061Y-2.7929
X8.061Y-2.8929
X8.061Y-2.9929
X8.061Y-3.0929
X8.061Y-3.1929
X8.061Y-3.2929
X8.061Y-3.3929
X8.061Y-3.4929
X8.061Y-3.5929
X8.061Y-3.6929
X8.061Y-3.7929
X8.061Y-3.8929
X8.061Y-3.9929
X8.061Y-4.0929
X8.061Y-4.1929
X8.061Y-4.2929
X8.061Y-4.3929
X8.061Y-4.4929
X8.961Y-2.6954
X8.961Y-2.7929
X8.961Y-2.8929
X8.961Y-2.9929
X8.961Y-3.0929
X8.961Y-3.1929
X8.961Y-3.2929
X8.961Y-3.3929
X8.961Y-3.4929
X8.961Y-3.5929
X8.961Y-3.6929
X8.961Y-3.7929
X8.961Y-3.8929
X8.961Y-3.9929
X8.961Y-4.0929
X8.961Y-4.1929
X8.961Y-4.2929
X8.961Y-4.3929
X8.961Y-4.4929
T4
X8.1791Y-4.8622
X8.2291Y-4.8622
X8.2791Y-4.8622
X8.3291Y-4.8622
T5
X4.5798Y-2.4702
X4.5798Y-2.5702
X4.5798Y-2.6702
X4.5798Y-2.7702
X4.5798Y-2.8702
X4.5798Y-2.9702
X4.5798Y-3.0702
X4.5798Y-3.1702
X4.5798Y-3.2702
X4.5798Y-3.3702
X4.5798Y-3.4702
X4.5798Y-3.5702
X4.5798Y-3.6702
X4.5798Y-3.7702
X4.5798Y-3.8702
X4.5798Y-3.9702
X4.5798Y-4.0702
X4.5798Y-4.1702
X4.5798Y-4.2702
X4.5798Y-4.3702
X4.5798Y-4.4702
X4.5798Y-4.5702
X4.5798Y-4.6702
X4.5798Y-4.7702
X4.5798Y-4.8702
X4.6798Y-2.4702
X4.6798Y-2.5702
X4.6798Y-2.6702
X4.6798Y-2.7702
X4.6798Y-2.8702
X4.6798Y-2.9702
X4.6798Y-3.0702
X4.6798Y-3.1702
X4.6798Y-3.2702
X4.6798Y-3.3702
X4.6798Y-3.4702
X4.6798Y-3.5702
X4.6798Y-3.6702
X4.6798Y-3.7702
X4.6798Y-3.8702
X4.6798Y-3.9702
X4.6798Y-4.0702
X4.6798Y-4.1702
X4.6798Y-4.2702
X4.6798Y-4.3702
X4.6798Y-4.4702
X4.6798Y-4.5702
X4.6798Y-4.6702
X4.6798Y-4.7702
X4.6798Y-4.8702
X5.2598Y-2.625
X5.3598Y-2.625
X5.4598Y-2.625
X5.5598Y-2.625
X5.6598Y-2.625
X5.7598Y-2.625
X6.0157Y-2.625
X6.1157Y-2.625
X6.2157Y-2.625
X6.3157Y-2.625
X6.4157Y-2.625
X6.5157Y-2.625
X6.7441Y-2.3809
X6.7441Y-2.4809
X9.061Y-2.6941
X9.061Y-2.7941
X9.061Y-2.8941
X9.061Y-2.9941
X9.061Y-3.0941
X9.061Y-3.1941
X9.061Y-3.2941
X9.061Y-3.3941
X9.061Y-3.4941
X9.061Y-3.5941
X9.061Y-3.6941
X9.061Y-3.7941
X9.061Y-3.8941
X9.061Y-3.9941
X9.061Y-4.0941
X9.061Y-4.1941
X9.061Y-4.2941
X9.061Y-4.3941
X9.061Y-4.4941
T6
X8.6516Y-4.7736
X8.6516Y-4.9508
X8.9075Y-4.7736
X8.9075Y-4.9508
T7
X6.3813Y-4.759
X6.3813Y-4.9755
X6.46Y-4.6133
X6.46Y-4.8298
X6.46Y-5.07
T8
X4.91Y-2.4
X4.91Y-4.94
X9.1319Y-2.4
X9.1319Y-4.94
T0
M30
