G04 #@! TF.FileFunction,Copper,L1,Top,Signal*
%FSLAX46Y46*%
G04 Gerber Fmt 4.6, Leading zero omitted, Abs format (unit mm)*
G04 Created by KiCad (PCBNEW 4.0.7) date 06/16/19 18:27:59*
%MOMM*%
%LPD*%
G01*
G04 APERTURE LIST*
%ADD10C,0.100000*%
%ADD11C,1.600000*%
%ADD12R,1.800000X1.070000*%
%ADD13O,1.800000X1.070000*%
%ADD14C,1.000000*%
%ADD15R,1.000000X1.000000*%
%ADD16O,1.600000X1.600000*%
%ADD17C,2.000000*%
%ADD18R,1.600000X1.600000*%
%ADD19R,1.700000X1.700000*%
%ADD20O,1.700000X1.700000*%
%ADD21C,2.100000*%
%ADD22C,1.750000*%
%ADD23C,0.600000*%
%ADD24C,0.250000*%
G04 APERTURE END LIST*
D10*
D11*
X130810000Y-116840000D03*
X128310000Y-116840000D03*
X161290000Y-116840000D03*
X158790000Y-116840000D03*
X191770000Y-116840000D03*
X189270000Y-116840000D03*
X142875000Y-101600000D03*
X142875000Y-99100000D03*
D12*
X210820000Y-96520000D03*
D13*
X210820000Y-97790000D03*
X210820000Y-99060000D03*
X210820000Y-100330000D03*
D14*
X172085000Y-106172000D03*
X173355000Y-107442000D03*
D15*
X170815000Y-107442000D03*
D14*
X172085000Y-115570000D03*
X170815000Y-114300000D03*
D15*
X173355000Y-114300000D03*
D14*
X178435000Y-115570000D03*
X177165000Y-114300000D03*
D15*
X179705000Y-114300000D03*
D11*
X174625000Y-83693000D03*
D16*
X182245000Y-83693000D03*
D11*
X174625000Y-87503000D03*
D16*
X182245000Y-87503000D03*
D11*
X174625000Y-91440000D03*
D16*
X182245000Y-91440000D03*
D17*
X132461000Y-99877000D03*
X132461000Y-95377000D03*
X138961000Y-99877000D03*
X138961000Y-95377000D03*
D18*
X191770000Y-127000000D03*
D16*
X214630000Y-119380000D03*
X194310000Y-127000000D03*
X212090000Y-119380000D03*
X196850000Y-127000000D03*
X209550000Y-119380000D03*
X199390000Y-127000000D03*
X207010000Y-119380000D03*
X201930000Y-127000000D03*
X204470000Y-119380000D03*
X204470000Y-127000000D03*
X201930000Y-119380000D03*
X207010000Y-127000000D03*
X199390000Y-119380000D03*
X209550000Y-127000000D03*
X196850000Y-119380000D03*
X212090000Y-127000000D03*
X194310000Y-119380000D03*
X214630000Y-127000000D03*
X191770000Y-119380000D03*
D18*
X161290000Y-127000000D03*
D16*
X184150000Y-119380000D03*
X163830000Y-127000000D03*
X181610000Y-119380000D03*
X166370000Y-127000000D03*
X179070000Y-119380000D03*
X168910000Y-127000000D03*
X176530000Y-119380000D03*
X171450000Y-127000000D03*
X173990000Y-119380000D03*
X173990000Y-127000000D03*
X171450000Y-119380000D03*
X176530000Y-127000000D03*
X168910000Y-119380000D03*
X179070000Y-127000000D03*
X166370000Y-119380000D03*
X181610000Y-127000000D03*
X163830000Y-119380000D03*
X184150000Y-127000000D03*
X161290000Y-119380000D03*
D18*
X130810000Y-127000000D03*
D16*
X153670000Y-119380000D03*
X133350000Y-127000000D03*
X151130000Y-119380000D03*
X135890000Y-127000000D03*
X148590000Y-119380000D03*
X138430000Y-127000000D03*
X146050000Y-119380000D03*
X140970000Y-127000000D03*
X143510000Y-119380000D03*
X143510000Y-127000000D03*
X140970000Y-119380000D03*
X146050000Y-127000000D03*
X138430000Y-119380000D03*
X148590000Y-127000000D03*
X135890000Y-119380000D03*
X151130000Y-127000000D03*
X133350000Y-119380000D03*
X153670000Y-127000000D03*
X130810000Y-119380000D03*
D19*
X140970000Y-137160000D03*
D20*
X140970000Y-134620000D03*
X143510000Y-137160000D03*
X143510000Y-134620000D03*
X146050000Y-137160000D03*
X146050000Y-134620000D03*
X148590000Y-137160000D03*
X148590000Y-134620000D03*
X151130000Y-137160000D03*
X151130000Y-134620000D03*
X153670000Y-137160000D03*
X153670000Y-134620000D03*
X156210000Y-137160000D03*
X156210000Y-134620000D03*
X158750000Y-137160000D03*
X158750000Y-134620000D03*
X161290000Y-137160000D03*
X161290000Y-134620000D03*
X163830000Y-137160000D03*
X163830000Y-134620000D03*
X166370000Y-137160000D03*
X166370000Y-134620000D03*
X168910000Y-137160000D03*
X168910000Y-134620000D03*
X171450000Y-137160000D03*
X171450000Y-134620000D03*
X173990000Y-137160000D03*
X173990000Y-134620000D03*
X176530000Y-137160000D03*
X176530000Y-134620000D03*
X179070000Y-137160000D03*
X179070000Y-134620000D03*
X181610000Y-137160000D03*
X181610000Y-134620000D03*
X184150000Y-137160000D03*
X184150000Y-134620000D03*
X186690000Y-137160000D03*
X186690000Y-134620000D03*
X189230000Y-137160000D03*
X189230000Y-134620000D03*
X191770000Y-137160000D03*
X191770000Y-134620000D03*
X194310000Y-137160000D03*
X194310000Y-134620000D03*
X196850000Y-137160000D03*
X196850000Y-134620000D03*
X199390000Y-137160000D03*
X199390000Y-134620000D03*
X201930000Y-137160000D03*
X201930000Y-134620000D03*
D18*
X189865000Y-71374000D03*
D16*
X187325000Y-71374000D03*
X184785000Y-71374000D03*
X182245000Y-71374000D03*
X179705000Y-71374000D03*
X177165000Y-71374000D03*
X154305000Y-96774000D03*
X174625000Y-71374000D03*
X156845000Y-96774000D03*
X172085000Y-71374000D03*
X159385000Y-96774000D03*
X169545000Y-71374000D03*
X161925000Y-96774000D03*
X167005000Y-71374000D03*
X164465000Y-96774000D03*
X164465000Y-71374000D03*
X167005000Y-96774000D03*
X161925000Y-71374000D03*
X169545000Y-96774000D03*
X159385000Y-71374000D03*
X172085000Y-96774000D03*
X156845000Y-71374000D03*
X174625000Y-96774000D03*
X154305000Y-71374000D03*
X177165000Y-96774000D03*
X179705000Y-96774000D03*
X182245000Y-96774000D03*
X184785000Y-96774000D03*
X187325000Y-96774000D03*
X189865000Y-96774000D03*
D18*
X151765000Y-100838000D03*
D16*
X154305000Y-100838000D03*
X197485000Y-77978000D03*
X156845000Y-100838000D03*
X194945000Y-77978000D03*
X159385000Y-100838000D03*
X192405000Y-77978000D03*
X161925000Y-100838000D03*
X189865000Y-77978000D03*
X164465000Y-100838000D03*
X187325000Y-77978000D03*
X167005000Y-100838000D03*
X184785000Y-77978000D03*
X169545000Y-100838000D03*
X182245000Y-77978000D03*
X172085000Y-100838000D03*
X179705000Y-77978000D03*
X174625000Y-100838000D03*
X177165000Y-77978000D03*
X177165000Y-100838000D03*
X174625000Y-77978000D03*
X179705000Y-100838000D03*
X172085000Y-77978000D03*
X182245000Y-100838000D03*
X169545000Y-77978000D03*
X184785000Y-100838000D03*
X167005000Y-77978000D03*
X187325000Y-100838000D03*
X164465000Y-77978000D03*
X189865000Y-100838000D03*
X161925000Y-77978000D03*
X192405000Y-100838000D03*
X159385000Y-77978000D03*
X194945000Y-100838000D03*
X156845000Y-77978000D03*
X197485000Y-100838000D03*
X154305000Y-77978000D03*
X151828500Y-77978000D03*
D19*
X206883000Y-137160000D03*
D20*
X206883000Y-134620000D03*
D19*
X148209000Y-72009000D03*
D20*
X150749000Y-72009000D03*
D19*
X199644000Y-72009000D03*
D20*
X202184000Y-72009000D03*
X204724000Y-72009000D03*
X207264000Y-72009000D03*
D21*
X145333000Y-74245000D03*
D22*
X144073000Y-71755000D03*
X139573000Y-71755000D03*
D21*
X138323000Y-74245000D03*
D23*
X191135000Y-99695000D03*
X151257000Y-99060000D03*
X146685000Y-99695000D03*
X156972000Y-131826000D03*
X156972000Y-127000000D03*
X178435000Y-125095000D03*
X175895000Y-124460000D03*
X173355000Y-123825000D03*
X159385000Y-128270000D03*
X155575000Y-109220000D03*
X173355000Y-108839000D03*
X151384000Y-130302000D03*
X167005000Y-130175000D03*
X148844000Y-129540000D03*
X174625000Y-129540000D03*
X142875000Y-121920000D03*
X163195000Y-121920000D03*
X164465000Y-91059000D03*
X156464000Y-104140000D03*
X136525000Y-104140000D03*
X161544000Y-105410000D03*
X144145000Y-105410000D03*
X187960000Y-74041000D03*
X186309000Y-74041000D03*
X206502000Y-74422000D03*
X164084000Y-104775000D03*
X141605000Y-104775000D03*
X166370000Y-106680000D03*
X149225000Y-106680000D03*
X168910000Y-106045000D03*
X146685000Y-106045000D03*
X204470000Y-80264000D03*
X180086000Y-79883000D03*
X177546000Y-80772000D03*
X201930000Y-81153000D03*
X180086000Y-104775000D03*
X208915000Y-104775000D03*
X172466000Y-81661000D03*
X199390000Y-82042000D03*
X182626000Y-104140000D03*
X213995000Y-104140000D03*
X196215000Y-86106000D03*
X169926000Y-85598000D03*
X187706000Y-103505000D03*
X211455000Y-103505000D03*
X149225000Y-79883000D03*
X153797000Y-79375000D03*
X139065000Y-107315000D03*
X147320000Y-107315000D03*
X194310000Y-122174000D03*
X177165000Y-122555000D03*
X151638000Y-107696000D03*
X158877000Y-107696000D03*
X168910000Y-123190000D03*
X148844000Y-123190000D03*
X207645000Y-121285000D03*
X208280000Y-131318000D03*
X198501000Y-121158000D03*
X197485000Y-97155000D03*
X188214000Y-110490000D03*
X161925000Y-110490000D03*
X139319000Y-89535000D03*
X156464000Y-89535000D03*
X205613000Y-83693000D03*
X205613000Y-96520000D03*
X206248000Y-99060000D03*
X206248000Y-91440000D03*
X207899000Y-100330000D03*
X207899000Y-87503000D03*
D24*
X191135000Y-99695000D02*
X191135000Y-72644000D01*
X191135000Y-72644000D02*
X189865000Y-71374000D01*
X191135000Y-109220000D02*
X191135000Y-116205000D01*
X191135000Y-99695000D02*
X191135000Y-109220000D01*
X191135000Y-116205000D02*
X191770000Y-116840000D01*
X151765000Y-100838000D02*
X151765000Y-99568000D01*
X151765000Y-99568000D02*
X151257000Y-99060000D01*
X146685000Y-101600000D02*
X146685000Y-99695000D01*
X142875000Y-101600000D02*
X131445000Y-101600000D01*
X130810000Y-102235000D02*
X130810000Y-116840000D01*
X131445000Y-101600000D02*
X130810000Y-102235000D01*
X130810000Y-116840000D02*
X130810000Y-119380000D01*
X130810000Y-119380000D02*
X130810000Y-127000000D01*
X191770000Y-116840000D02*
X191770000Y-119380000D01*
X146685000Y-101600000D02*
X142875000Y-101600000D01*
X156972000Y-127000000D02*
X156972000Y-131826000D01*
X201930000Y-134620000D02*
X201930000Y-132784002D01*
X212090000Y-132334000D02*
X212090000Y-127000000D01*
X211836000Y-132588000D02*
X212090000Y-132334000D01*
X202126002Y-132588000D02*
X211836000Y-132588000D01*
X201930000Y-132784002D02*
X202126002Y-132588000D01*
X199390000Y-134620000D02*
X199390000Y-132276002D01*
X209550000Y-131826000D02*
X209550000Y-127000000D01*
X209296000Y-132080000D02*
X209550000Y-131826000D01*
X199586002Y-132080000D02*
X209296000Y-132080000D01*
X199390000Y-132276002D02*
X199586002Y-132080000D01*
X196850000Y-134620000D02*
X196850000Y-131768002D01*
X207010000Y-131318000D02*
X207010000Y-127000000D01*
X206756000Y-131572000D02*
X207010000Y-131318000D01*
X197046002Y-131572000D02*
X206756000Y-131572000D01*
X196850000Y-131768002D02*
X197046002Y-131572000D01*
X194310000Y-134620000D02*
X194310000Y-131260002D01*
X204470000Y-130810000D02*
X204470000Y-127000000D01*
X204216000Y-131064000D02*
X204470000Y-130810000D01*
X194506002Y-131064000D02*
X204216000Y-131064000D01*
X194310000Y-131260002D02*
X194506002Y-131064000D01*
X191770000Y-134620000D02*
X191770000Y-130752002D01*
X201930000Y-130302000D02*
X201930000Y-127000000D01*
X201676000Y-130556000D02*
X201930000Y-130302000D01*
X191966002Y-130556000D02*
X201676000Y-130556000D01*
X191770000Y-130752002D02*
X191966002Y-130556000D01*
X189230000Y-134620000D02*
X189230000Y-130244002D01*
X199390000Y-129794000D02*
X199390000Y-127000000D01*
X199136000Y-130048000D02*
X199390000Y-129794000D01*
X189426002Y-130048000D02*
X199136000Y-130048000D01*
X189230000Y-130244002D02*
X189426002Y-130048000D01*
X196342000Y-129540000D02*
X196596000Y-129540000D01*
X196342000Y-129540000D02*
X186944000Y-129540000D01*
X186944000Y-129540000D02*
X186690000Y-129794000D01*
X186690000Y-134620000D02*
X186690000Y-129794000D01*
X196850000Y-129032000D02*
X196850000Y-127000000D01*
X196850000Y-129286000D02*
X196850000Y-129032000D01*
X196596000Y-129540000D02*
X196850000Y-129286000D01*
X194310000Y-128016000D02*
X194310000Y-128778000D01*
X193294000Y-129032000D02*
X184404000Y-129032000D01*
X184404000Y-129032000D02*
X184150000Y-129286000D01*
X184150000Y-134620000D02*
X184150000Y-129286000D01*
X194310000Y-128016000D02*
X194310000Y-127000000D01*
X194056000Y-129032000D02*
X193294000Y-129032000D01*
X194310000Y-128778000D02*
X194056000Y-129032000D01*
X181610000Y-127000000D02*
X181610000Y-134620000D01*
X179070000Y-127000000D02*
X179070000Y-134620000D01*
X179070000Y-125730000D02*
X178435000Y-125095000D01*
X179070000Y-127000000D02*
X179070000Y-125730000D01*
X176530000Y-127000000D02*
X176530000Y-134620000D01*
X176530000Y-125095000D02*
X175895000Y-124460000D01*
X176530000Y-125095000D02*
X176530000Y-127000000D01*
X173990000Y-127000000D02*
X173990000Y-134620000D01*
X173990000Y-124460000D02*
X173355000Y-123825000D01*
X173990000Y-124460000D02*
X173990000Y-127000000D01*
X171450000Y-127000000D02*
X171450000Y-134620000D01*
X168910000Y-127000000D02*
X168910000Y-134620000D01*
X166370000Y-127000000D02*
X166370000Y-134620000D01*
X163830000Y-127000000D02*
X163830000Y-134620000D01*
X161290000Y-134620000D02*
X161290000Y-133350000D01*
X161290000Y-133350000D02*
X159385000Y-131445000D01*
X159385000Y-124460000D02*
X159385000Y-128270000D01*
X159385000Y-128270000D02*
X159385000Y-129540000D01*
X168910000Y-119380000D02*
X168910000Y-120650000D01*
X159385000Y-129540000D02*
X159385000Y-131445000D01*
X160020000Y-123825000D02*
X159385000Y-124460000D01*
X165735000Y-123825000D02*
X160020000Y-123825000D01*
X168910000Y-120650000D02*
X165735000Y-123825000D01*
X166370000Y-119380000D02*
X166370000Y-122301000D01*
X158750000Y-122809000D02*
X158750000Y-134620000D01*
X159004000Y-122555000D02*
X158750000Y-122809000D01*
X166116000Y-122555000D02*
X159004000Y-122555000D01*
X166370000Y-122301000D02*
X166116000Y-122555000D01*
X155575000Y-109347000D02*
X155194000Y-109728000D01*
X155194000Y-109728000D02*
X155194000Y-133096000D01*
X153670000Y-134620000D02*
X155194000Y-133096000D01*
X155575000Y-109220000D02*
X155575000Y-109347000D01*
X173355000Y-108839000D02*
X173355000Y-107442000D01*
X151130000Y-130556000D02*
X151130000Y-134620000D01*
X151384000Y-130302000D02*
X151130000Y-130556000D01*
X170180000Y-114935000D02*
X170815000Y-114300000D01*
X170180000Y-120650000D02*
X170180000Y-114935000D01*
X167640000Y-123190000D02*
X170180000Y-120650000D01*
X167640000Y-129540000D02*
X167640000Y-123190000D01*
X167005000Y-130175000D02*
X167640000Y-129540000D01*
X148590000Y-129794000D02*
X148590000Y-134620000D01*
X148844000Y-129540000D02*
X148590000Y-129794000D01*
X175895000Y-114300000D02*
X177165000Y-114300000D01*
X175260000Y-114935000D02*
X175895000Y-114300000D01*
X175260000Y-128905000D02*
X175260000Y-114935000D01*
X174625000Y-129540000D02*
X175260000Y-128905000D01*
X142875000Y-121920000D02*
X142748000Y-121920000D01*
X163195000Y-121920000D02*
X163830000Y-121285000D01*
X163830000Y-121285000D02*
X163830000Y-120650000D01*
X163830000Y-119380000D02*
X163830000Y-120650000D01*
X142240000Y-133350000D02*
X140970000Y-134620000D01*
X142240000Y-122428000D02*
X142240000Y-133350000D01*
X142748000Y-121920000D02*
X142240000Y-122428000D01*
X172085000Y-100838000D02*
X172085000Y-106172000D01*
X172085000Y-96774000D02*
X172085000Y-100838000D01*
X172085000Y-115570000D02*
X173990000Y-117475000D01*
X173990000Y-117475000D02*
X173990000Y-119380000D01*
X178435000Y-115570000D02*
X176530000Y-117475000D01*
X176530000Y-117475000D02*
X176530000Y-119380000D01*
X174625000Y-77978000D02*
X174625000Y-83693000D01*
X174625000Y-77978000D02*
X174625000Y-76835000D01*
X173228000Y-75438000D02*
X173228000Y-72517000D01*
X173228000Y-72517000D02*
X172085000Y-71374000D01*
X174625000Y-76835000D02*
X173228000Y-75438000D01*
X182245000Y-77978000D02*
X182245000Y-81788000D01*
X176149000Y-87503000D02*
X174625000Y-87503000D01*
X176530000Y-87122000D02*
X176149000Y-87503000D01*
X176530000Y-83312000D02*
X176530000Y-87122000D01*
X177292000Y-82550000D02*
X176530000Y-83312000D01*
X181483000Y-82550000D02*
X177292000Y-82550000D01*
X182245000Y-81788000D02*
X181483000Y-82550000D01*
X182245000Y-77978000D02*
X182245000Y-76835000D01*
X180848000Y-75438000D02*
X180848000Y-72517000D01*
X180848000Y-72517000D02*
X179705000Y-71374000D01*
X182245000Y-76835000D02*
X180848000Y-75438000D01*
X164465000Y-91059000D02*
X164465000Y-89916000D01*
X164465000Y-71374000D02*
X164465000Y-77978000D01*
X164465000Y-77978000D02*
X164465000Y-89916000D01*
X164465000Y-89916000D02*
X164465000Y-90043000D01*
X156845000Y-100838000D02*
X156845000Y-103759000D01*
X156845000Y-103759000D02*
X156464000Y-104140000D01*
X135890000Y-104775000D02*
X136525000Y-104140000D01*
X135890000Y-104775000D02*
X135890000Y-119380000D01*
X156845000Y-96774000D02*
X156845000Y-100838000D01*
X161925000Y-100838000D02*
X161925000Y-105029000D01*
X161925000Y-105029000D02*
X161544000Y-105410000D01*
X143510000Y-106045000D02*
X144145000Y-105410000D01*
X143510000Y-119380000D02*
X143510000Y-106045000D01*
X161925000Y-96774000D02*
X161925000Y-100838000D01*
X189865000Y-77978000D02*
X189865000Y-76835000D01*
X188468000Y-75438000D02*
X188468000Y-74549000D01*
X188468000Y-74549000D02*
X187960000Y-74041000D01*
X189865000Y-76835000D02*
X188468000Y-75438000D01*
X184785000Y-71374000D02*
X185928000Y-72517000D01*
X185928000Y-73660000D02*
X186309000Y-74041000D01*
X185928000Y-72517000D02*
X185928000Y-73660000D01*
X207010000Y-75946000D02*
X207010000Y-74930000D01*
X207010000Y-74930000D02*
X206502000Y-74422000D01*
X207010000Y-78867000D02*
X207010000Y-75946000D01*
X184912000Y-71501000D02*
X184785000Y-71374000D01*
X207010000Y-78740000D02*
X207010000Y-78867000D01*
X207010000Y-78867000D02*
X207010000Y-119380000D01*
X164465000Y-100838000D02*
X164465000Y-104394000D01*
X164465000Y-104394000D02*
X164084000Y-104775000D01*
X140970000Y-119380000D02*
X140970000Y-105410000D01*
X140970000Y-105410000D02*
X141605000Y-104775000D01*
X164465000Y-96774000D02*
X164465000Y-100838000D01*
X167005000Y-100838000D02*
X167005000Y-106045000D01*
X167005000Y-106045000D02*
X166370000Y-106680000D01*
X148590000Y-107315000D02*
X148590000Y-119380000D01*
X148590000Y-107315000D02*
X149225000Y-106680000D01*
X167005000Y-96774000D02*
X167005000Y-100838000D01*
X169545000Y-100838000D02*
X169545000Y-105410000D01*
X169545000Y-105410000D02*
X168910000Y-106045000D01*
X146050000Y-106680000D02*
X146685000Y-106045000D01*
X146050000Y-106680000D02*
X146050000Y-119380000D01*
X169545000Y-96774000D02*
X169545000Y-100838000D01*
X204470000Y-119380000D02*
X204470000Y-94107000D01*
X204470000Y-80264000D02*
X204470000Y-94107000D01*
X179705000Y-79502000D02*
X180086000Y-79883000D01*
X179705000Y-79502000D02*
X179705000Y-77978000D01*
X179705000Y-77978000D02*
X179705000Y-76771500D01*
X178435000Y-75438000D02*
X178435000Y-72644000D01*
X178435000Y-72644000D02*
X177165000Y-71374000D01*
X179705000Y-76708000D02*
X178435000Y-75438000D01*
X179705000Y-76771500D02*
X179705000Y-76708000D01*
X177165000Y-77978000D02*
X177165000Y-80391000D01*
X177165000Y-80391000D02*
X177546000Y-80772000D01*
X201930000Y-81153000D02*
X201930000Y-119380000D01*
X177165000Y-77978000D02*
X177165000Y-76835000D01*
X175768000Y-75438000D02*
X175768000Y-72517000D01*
X175768000Y-72517000D02*
X174625000Y-71374000D01*
X177165000Y-76835000D02*
X175768000Y-75438000D01*
X177165000Y-100838000D02*
X177165000Y-109347000D01*
X177165000Y-109347000D02*
X177673000Y-109855000D01*
X180340000Y-109855000D02*
X180975000Y-109855000D01*
X180975000Y-109855000D02*
X181610000Y-110490000D01*
X181610000Y-110490000D02*
X181610000Y-111125000D01*
X181610000Y-119380000D02*
X181610000Y-111125000D01*
X177673000Y-109855000D02*
X180340000Y-109855000D01*
X177165000Y-96774000D02*
X177165000Y-100838000D01*
X179705000Y-100838000D02*
X179705000Y-104394000D01*
X179705000Y-104394000D02*
X180086000Y-104775000D01*
X179705000Y-96774000D02*
X179705000Y-100838000D01*
X209550000Y-105410000D02*
X209550000Y-119380000D01*
X208915000Y-104775000D02*
X209550000Y-105410000D01*
X172085000Y-77978000D02*
X172085000Y-81280000D01*
X172085000Y-81280000D02*
X172466000Y-81661000D01*
X199390000Y-82042000D02*
X199390000Y-119380000D01*
X170688000Y-73279000D02*
X170688000Y-72517000D01*
X170688000Y-75438000D02*
X170688000Y-73279000D01*
X172085000Y-76835000D02*
X170688000Y-75438000D01*
X172085000Y-77978000D02*
X172085000Y-76835000D01*
X170688000Y-72517000D02*
X169545000Y-71374000D01*
X182245000Y-100838000D02*
X182245000Y-103759000D01*
X182245000Y-103759000D02*
X182626000Y-104140000D01*
X214630000Y-104775000D02*
X214630000Y-119380000D01*
X213995000Y-104140000D02*
X214630000Y-104775000D01*
X182245000Y-96774000D02*
X182245000Y-100838000D01*
X196850000Y-119380000D02*
X196850000Y-102362000D01*
X196215000Y-101727000D02*
X196215000Y-86106000D01*
X196850000Y-102362000D02*
X196215000Y-101727000D01*
X169545000Y-85217000D02*
X169545000Y-77978000D01*
X169545000Y-85217000D02*
X169926000Y-85598000D01*
X168148000Y-73279000D02*
X168148000Y-72517000D01*
X168148000Y-75438000D02*
X169545000Y-76835000D01*
X168148000Y-75438000D02*
X168148000Y-73279000D01*
X169545000Y-77978000D02*
X169545000Y-76835000D01*
X168148000Y-72517000D02*
X167005000Y-71374000D01*
X196850000Y-119380000D02*
X196850000Y-119126000D01*
X187325000Y-100838000D02*
X187325000Y-100203000D01*
X187325000Y-100203000D02*
X184785000Y-97663000D01*
X184785000Y-97663000D02*
X184785000Y-96774000D01*
X187325000Y-100838000D02*
X187325000Y-103124000D01*
X187325000Y-103124000D02*
X187706000Y-103505000D01*
X212090000Y-119380000D02*
X212090000Y-104775000D01*
X212090000Y-104140000D02*
X212090000Y-104775000D01*
X211455000Y-103505000D02*
X212090000Y-104140000D01*
X154305000Y-77978000D02*
X154305000Y-78867000D01*
X154305000Y-78867000D02*
X153797000Y-79375000D01*
X154305000Y-76835000D02*
X154305000Y-78486000D01*
X154305000Y-71374000D02*
X154305000Y-76835000D01*
X149225000Y-79883000D02*
X149225000Y-95885000D01*
X138430000Y-107950000D02*
X138430000Y-119380000D01*
X139065000Y-107315000D02*
X138430000Y-107950000D01*
X147955000Y-106680000D02*
X147320000Y-107315000D01*
X147955000Y-97155000D02*
X147955000Y-106680000D01*
X149225000Y-95885000D02*
X147955000Y-97155000D01*
X194310000Y-122174000D02*
X194310000Y-119380000D01*
X179070000Y-119380000D02*
X179070000Y-120650000D01*
X179070000Y-120650000D02*
X177165000Y-122555000D01*
X159385000Y-107188000D02*
X158877000Y-107696000D01*
X151130000Y-119380000D02*
X151130000Y-108204000D01*
X151130000Y-108204000D02*
X151638000Y-107696000D01*
X159385000Y-107188000D02*
X159385000Y-100838000D01*
X159385000Y-96774000D02*
X159385000Y-100838000D01*
X171450000Y-120650000D02*
X168910000Y-123190000D01*
X171450000Y-119380000D02*
X171450000Y-120650000D01*
X148590000Y-123444000D02*
X148590000Y-127000000D01*
X148844000Y-123190000D02*
X148590000Y-123444000D01*
X207772000Y-121285000D02*
X207645000Y-121285000D01*
X208280000Y-121793000D02*
X207772000Y-121285000D01*
X208280000Y-131318000D02*
X208280000Y-121793000D01*
X198120000Y-118618000D02*
X198120000Y-120777000D01*
X197485000Y-100838000D02*
X198120000Y-101473000D01*
X198120000Y-110109000D02*
X198120000Y-118618000D01*
X198120000Y-110109000D02*
X198120000Y-101473000D01*
X198120000Y-120777000D02*
X198501000Y-121158000D01*
X197485000Y-97155000D02*
X197485000Y-100838000D01*
X189865000Y-96774000D02*
X188595000Y-98044000D01*
X188595000Y-110109000D02*
X188214000Y-110490000D01*
X188595000Y-98044000D02*
X188595000Y-110109000D01*
X161290000Y-116840000D02*
X161290000Y-111125000D01*
X161290000Y-111125000D02*
X161925000Y-110490000D01*
X161290000Y-116840000D02*
X161290000Y-119380000D01*
X138961000Y-89916000D02*
X138961000Y-76431000D01*
X140081000Y-75311000D02*
X140081000Y-72263000D01*
X138961000Y-76431000D02*
X140081000Y-75311000D01*
X140081000Y-72263000D02*
X139573000Y-71755000D01*
X139573000Y-71755000D02*
X139573000Y-71120000D01*
X139573000Y-71120000D02*
X140462000Y-70231000D01*
X140462000Y-70231000D02*
X149733000Y-70231000D01*
X149733000Y-70231000D02*
X150749000Y-71247000D01*
X150749000Y-71247000D02*
X150749000Y-72009000D01*
X138961000Y-95377000D02*
X138961000Y-89916000D01*
X138961000Y-89916000D02*
X138961000Y-89893000D01*
X138961000Y-89893000D02*
X139319000Y-89535000D01*
X132461000Y-95377000D02*
X138961000Y-95377000D01*
X156845000Y-71374000D02*
X156845000Y-77978000D01*
X156845000Y-77978000D02*
X156845000Y-89154000D01*
X156845000Y-89154000D02*
X156464000Y-89535000D01*
X205613000Y-82042000D02*
X205613000Y-83693000D01*
X205613000Y-83693000D02*
X205613000Y-96520000D01*
X199644000Y-74168000D02*
X200152000Y-74676000D01*
X200152000Y-74676000D02*
X203581000Y-74676000D01*
X203581000Y-74676000D02*
X203962000Y-75057000D01*
X203962000Y-75057000D02*
X203962000Y-76454000D01*
X203962000Y-76454000D02*
X205613000Y-78105000D01*
X205613000Y-78105000D02*
X205613000Y-82042000D01*
X199644000Y-72009000D02*
X199644000Y-74168000D01*
X206248000Y-90932000D02*
X206248000Y-84709000D01*
X206248000Y-90932000D02*
X206248000Y-91440000D01*
X206248000Y-91440000D02*
X206248000Y-98933000D01*
X204724000Y-72009000D02*
X204724000Y-76200000D01*
X206248000Y-77724000D02*
X206248000Y-84709000D01*
X204724000Y-76200000D02*
X206248000Y-77724000D01*
X207899000Y-99949000D02*
X207899000Y-100330000D01*
X207899000Y-87503000D02*
X207899000Y-99949000D01*
X207899000Y-85725000D02*
X207899000Y-87503000D01*
X207264000Y-73914000D02*
X207899000Y-74549000D01*
X207899000Y-74549000D02*
X207899000Y-85725000D01*
X207264000Y-72009000D02*
X207264000Y-73914000D01*
M02*
