M48
;DRILL file {KiCad 4.0.7} date 07/07/19 07:38:17
;FORMAT={-:-/ absolute / inch / decimal}
FMAT,2
INCH,TZ
T1C0.016
T2C0.024
T3C0.031
T4C0.035
T5C0.039
T6C0.039
T7C0.043
T8C0.051
%
G90
G05
M72
T1
X5.375Y-4.1
X5.475Y-4.225
X5.485Y-3.525
X5.575Y-4.125
X5.625Y-4.8
X5.675Y-4.15
X5.775Y-3.925
X5.775Y-4.175
X5.8Y-4.225
X5.86Y-4.85
X5.86Y-5.1
X5.875Y-3.145
X5.875Y-4.2
X5.955Y-3.9
X5.96Y-5.13
X5.97Y-4.24
X6.055Y-3.125
X6.125Y-4.3
X6.16Y-3.525
X6.16Y-4.1
X6.18Y-5.
X6.18Y-5.19
X6.255Y-4.24
X6.275Y-5.05
X6.36Y-4.15
X6.375Y-4.35
X6.425Y-4.8
X6.46Y-4.125
X6.475Y-3.585
X6.55Y-4.2
X6.575Y-5.125
X6.65Y-4.175
X6.65Y-4.85
X6.69Y-3.37
X6.79Y-3.215
X6.825Y-4.285
X6.825Y-4.875
X6.875Y-5.1
X6.925Y-4.9
X6.975Y-4.825
X6.99Y-3.18
X7.025Y-4.925
X7.09Y-3.145
X7.09Y-4.125
X7.19Y-4.1
X7.335Y-2.915
X7.39Y-4.075
X7.4Y-2.915
X7.41Y-4.35
X7.525Y-3.925
X7.65Y-4.81
X7.725Y-3.39
X7.775Y-3.825
X7.815Y-4.77
X7.85Y-3.23
X7.95Y-3.195
X8.05Y-3.16
X8.095Y-3.295
X8.095Y-3.8
X8.12Y-3.6
X8.12Y-3.9
X8.13Y-2.93
X8.175Y-4.775
X8.185Y-3.445
X8.185Y-3.95
X8.2Y-5.17
X8.225Y-4.125
X8.325Y-4.075
X8.425Y-4.1
T2
X6.725Y-4.23
X6.725Y-4.5
X6.775Y-4.18
X6.775Y-4.55
X6.825Y-4.23
X6.825Y-4.5
X6.975Y-4.5
X7.025Y-4.55
X7.075Y-4.5
T3
X5.0516Y-4.6
X5.15Y-4.6
X5.15Y-4.7
X5.15Y-5.
X5.25Y-4.7
X5.25Y-5.
X5.35Y-4.7
X5.35Y-5.
X5.45Y-4.7
X5.45Y-5.
X5.55Y-4.7
X5.55Y-5.
X5.625Y-3.9016
X5.625Y-4.
X5.65Y-4.7
X5.65Y-5.
X5.75Y-4.7
X5.75Y-5.
X5.85Y-4.7
X5.85Y-5.
X5.95Y-4.7
X5.95Y-5.
X5.975Y-3.97
X5.9775Y-3.07
X6.05Y-4.7
X6.05Y-5.
X6.075Y-2.81
X6.075Y-3.07
X6.075Y-3.81
X6.075Y-3.97
X6.175Y-2.81
X6.175Y-3.07
X6.175Y-3.81
X6.175Y-3.97
X6.2516Y-4.6
X6.275Y-2.81
X6.275Y-3.07
X6.275Y-3.81
X6.275Y-3.97
X6.35Y-4.6
X6.35Y-4.7
X6.35Y-5.
X6.375Y-2.81
X6.375Y-3.07
X6.375Y-3.81
X6.375Y-3.97
X6.45Y-4.7
X6.45Y-5.
X6.475Y-2.81
X6.475Y-3.07
X6.475Y-3.81
X6.475Y-3.97
X6.55Y-4.7
X6.55Y-5.
X6.575Y-2.81
X6.575Y-3.07
X6.575Y-3.81
X6.575Y-3.97
X6.65Y-4.7
X6.65Y-5.
X6.675Y-2.81
X6.675Y-3.07
X6.675Y-3.81
X6.675Y-3.97
X6.75Y-4.7
X6.75Y-5.
X6.775Y-2.81
X6.775Y-3.07
X6.775Y-3.81
X6.775Y-3.97
X6.85Y-4.7
X6.85Y-5.
X6.875Y-2.81
X6.875Y-3.07
X6.875Y-3.295
X6.875Y-3.445
X6.875Y-3.6
X6.875Y-3.81
X6.875Y-3.97
X6.95Y-4.7
X6.95Y-5.
X6.975Y-2.81
X6.975Y-3.07
X6.975Y-3.81
X6.975Y-3.97
X7.05Y-4.7
X7.05Y-5.
X7.075Y-2.81
X7.075Y-3.07
X7.075Y-3.81
X7.075Y-3.97
X7.15Y-4.7
X7.15Y-5.
X7.175Y-2.81
X7.175Y-3.07
X7.175Y-3.295
X7.175Y-3.445
X7.175Y-3.6
X7.175Y-3.81
X7.175Y-3.97
X7.25Y-4.7
X7.25Y-5.
X7.275Y-2.81
X7.275Y-3.07
X7.275Y-3.81
X7.275Y-3.97
X7.375Y-2.81
X7.375Y-3.07
X7.375Y-3.81
X7.375Y-3.97
X7.4516Y-4.6
X7.475Y-2.81
X7.475Y-3.07
X7.475Y-3.81
X7.475Y-3.97
X7.55Y-4.6
X7.55Y-4.7
X7.55Y-5.
X7.575Y-3.07
X7.575Y-3.97
X7.65Y-4.7
X7.65Y-5.
X7.675Y-3.07
X7.675Y-3.97
X7.75Y-4.7
X7.75Y-5.
X7.775Y-3.07
X7.775Y-3.97
X7.85Y-4.7
X7.85Y-5.
X7.95Y-4.7
X7.95Y-5.
X8.05Y-4.7
X8.05Y-5.
X8.15Y-4.7
X8.15Y-5.
X8.25Y-4.7
X8.25Y-5.
X8.35Y-4.7
X8.35Y-5.
X8.45Y-4.7
X8.45Y-5.
T4
X8.3Y-3.8
X8.3Y-3.85
X8.3Y-3.9
X8.3Y-3.95
T5
X5.39Y-2.825
X5.5672Y-2.825
T6
X5.55Y-5.3
X5.55Y-5.4
X5.65Y-5.3
X5.65Y-5.4
X5.75Y-5.3
X5.75Y-5.4
X5.835Y-2.835
X5.85Y-5.3
X5.85Y-5.4
X5.935Y-2.835
X5.95Y-5.3
X5.95Y-5.4
X6.05Y-5.3
X6.05Y-5.4
X6.15Y-5.3
X6.15Y-5.4
X6.25Y-5.3
X6.25Y-5.4
X6.35Y-5.3
X6.35Y-5.4
X6.45Y-5.3
X6.45Y-5.4
X6.55Y-5.3
X6.55Y-5.4
X6.65Y-5.3
X6.65Y-5.4
X6.75Y-5.3
X6.75Y-5.4
X6.85Y-5.3
X6.85Y-5.4
X6.95Y-5.3
X6.95Y-5.4
X7.05Y-5.3
X7.05Y-5.4
X7.15Y-5.3
X7.15Y-5.4
X7.25Y-5.3
X7.25Y-5.4
X7.35Y-5.3
X7.35Y-5.4
X7.45Y-5.3
X7.45Y-5.4
X7.55Y-5.3
X7.55Y-5.4
X7.65Y-5.3
X7.65Y-5.4
X7.75Y-5.3
X7.75Y-5.4
X7.85Y-5.3
X7.85Y-5.4
X7.86Y-2.835
X7.95Y-5.3
X7.95Y-5.4
X7.96Y-2.835
X8.06Y-2.835
X8.145Y-5.3
X8.145Y-5.4
X8.16Y-2.835
T7
X5.215Y-3.755
X5.215Y-3.9322
X5.4709Y-3.755
X5.4709Y-3.9322
T8
X5.3408Y-2.923
X5.6168Y-2.923
T0
M30
