G04 #@! TF.GenerationSoftware,KiCad,Pcbnew,(5.1.5)-3*
G04 #@! TF.CreationDate,2021-08-30T09:07:39+12:00*
G04 #@! TF.ProjectId,TRSIO,54525349-4f2e-46b6-9963-61645f706362,rev?*
G04 #@! TF.SameCoordinates,Original*
G04 #@! TF.FileFunction,Legend,Top*
G04 #@! TF.FilePolarity,Positive*
%FSLAX46Y46*%
G04 Gerber Fmt 4.6, Leading zero omitted, Abs format (unit mm)*
G04 Created by KiCad (PCBNEW (5.1.5)-3) date 2021-08-30 09:07:39*
%MOMM*%
%LPD*%
G04 APERTURE LIST*
%ADD10C,0.150000*%
%ADD11C,0.300000*%
%ADD12C,0.120000*%
G04 APERTURE END LIST*
D10*
X139223785Y-139803214D02*
X139223785Y-140469880D01*
X138985690Y-139422261D02*
X138747595Y-140136547D01*
X139366642Y-140136547D01*
X139795214Y-140469880D02*
X139985690Y-140469880D01*
X140080928Y-140422261D01*
X140128547Y-140374642D01*
X140223785Y-140231785D01*
X140271404Y-140041309D01*
X140271404Y-139660357D01*
X140223785Y-139565119D01*
X140176166Y-139517500D01*
X140080928Y-139469880D01*
X139890452Y-139469880D01*
X139795214Y-139517500D01*
X139747595Y-139565119D01*
X139699976Y-139660357D01*
X139699976Y-139898452D01*
X139747595Y-139993690D01*
X139795214Y-140041309D01*
X139890452Y-140088928D01*
X140080928Y-140088928D01*
X140176166Y-140041309D01*
X140223785Y-139993690D01*
X140271404Y-139898452D01*
X203231714Y-140469880D02*
X202660285Y-140469880D01*
X202946000Y-140469880D02*
X202946000Y-139469880D01*
X202850761Y-139612738D01*
X202755523Y-139707976D01*
X202660285Y-139755595D01*
D11*
X200363571Y-85406571D02*
X201220714Y-85406571D01*
X200792142Y-86906571D02*
X200792142Y-85406571D01*
X202577857Y-86906571D02*
X202077857Y-86192285D01*
X201720714Y-86906571D02*
X201720714Y-85406571D01*
X202292142Y-85406571D01*
X202435000Y-85478000D01*
X202506428Y-85549428D01*
X202577857Y-85692285D01*
X202577857Y-85906571D01*
X202506428Y-86049428D01*
X202435000Y-86120857D01*
X202292142Y-86192285D01*
X201720714Y-86192285D01*
X203149285Y-86835142D02*
X203363571Y-86906571D01*
X203720714Y-86906571D01*
X203863571Y-86835142D01*
X203935000Y-86763714D01*
X204006428Y-86620857D01*
X204006428Y-86478000D01*
X203935000Y-86335142D01*
X203863571Y-86263714D01*
X203720714Y-86192285D01*
X203435000Y-86120857D01*
X203292142Y-86049428D01*
X203220714Y-85978000D01*
X203149285Y-85835142D01*
X203149285Y-85692285D01*
X203220714Y-85549428D01*
X203292142Y-85478000D01*
X203435000Y-85406571D01*
X203792142Y-85406571D01*
X204006428Y-85478000D01*
X204649285Y-86335142D02*
X205792142Y-86335142D01*
X206506428Y-86906571D02*
X206506428Y-85406571D01*
X207506428Y-85406571D02*
X207792142Y-85406571D01*
X207935000Y-85478000D01*
X208077857Y-85620857D01*
X208149285Y-85906571D01*
X208149285Y-86406571D01*
X208077857Y-86692285D01*
X207935000Y-86835142D01*
X207792142Y-86906571D01*
X207506428Y-86906571D01*
X207363571Y-86835142D01*
X207220714Y-86692285D01*
X207149285Y-86406571D01*
X207149285Y-85906571D01*
X207220714Y-85620857D01*
X207363571Y-85478000D01*
X207506428Y-85406571D01*
X209720714Y-85406571D02*
X210220714Y-86906571D01*
X210720714Y-85406571D01*
X212006428Y-86906571D02*
X211149285Y-86906571D01*
X211577857Y-86906571D02*
X211577857Y-85406571D01*
X211435000Y-85620857D01*
X211292142Y-85763714D01*
X211149285Y-85835142D01*
X212649285Y-86763714D02*
X212720714Y-86835142D01*
X212649285Y-86906571D01*
X212577857Y-86835142D01*
X212649285Y-86763714D01*
X212649285Y-86906571D01*
X213292142Y-85549428D02*
X213363571Y-85478000D01*
X213506428Y-85406571D01*
X213863571Y-85406571D01*
X214006428Y-85478000D01*
X214077857Y-85549428D01*
X214149285Y-85692285D01*
X214149285Y-85835142D01*
X214077857Y-86049428D01*
X213220714Y-86906571D01*
X214149285Y-86906571D01*
X200435000Y-89028000D02*
X201149285Y-89028000D01*
X200292142Y-89456571D02*
X200792142Y-87956571D01*
X201292142Y-89456571D01*
X202435000Y-88456571D02*
X202435000Y-89456571D01*
X201792142Y-88456571D02*
X201792142Y-89242285D01*
X201863571Y-89385142D01*
X202006428Y-89456571D01*
X202220714Y-89456571D01*
X202363571Y-89385142D01*
X202435000Y-89313714D01*
X203792142Y-88456571D02*
X203792142Y-89670857D01*
X203720714Y-89813714D01*
X203649285Y-89885142D01*
X203506428Y-89956571D01*
X203292142Y-89956571D01*
X203149285Y-89885142D01*
X203792142Y-89385142D02*
X203649285Y-89456571D01*
X203363571Y-89456571D01*
X203220714Y-89385142D01*
X203149285Y-89313714D01*
X203077857Y-89170857D01*
X203077857Y-88742285D01*
X203149285Y-88599428D01*
X203220714Y-88528000D01*
X203363571Y-88456571D01*
X203649285Y-88456571D01*
X203792142Y-88528000D01*
X205149285Y-88456571D02*
X205149285Y-89456571D01*
X204506428Y-88456571D02*
X204506428Y-89242285D01*
X204577857Y-89385142D01*
X204720714Y-89456571D01*
X204935000Y-89456571D01*
X205077857Y-89385142D01*
X205149285Y-89313714D01*
X205792142Y-89385142D02*
X205935000Y-89456571D01*
X206220714Y-89456571D01*
X206363571Y-89385142D01*
X206435000Y-89242285D01*
X206435000Y-89170857D01*
X206363571Y-89028000D01*
X206220714Y-88956571D01*
X206006428Y-88956571D01*
X205863571Y-88885142D01*
X205792142Y-88742285D01*
X205792142Y-88670857D01*
X205863571Y-88528000D01*
X206006428Y-88456571D01*
X206220714Y-88456571D01*
X206363571Y-88528000D01*
X206863571Y-88456571D02*
X207435000Y-88456571D01*
X207077857Y-87956571D02*
X207077857Y-89242285D01*
X207149285Y-89385142D01*
X207292142Y-89456571D01*
X207435000Y-89456571D01*
X209006428Y-88099428D02*
X209077857Y-88028000D01*
X209220714Y-87956571D01*
X209577857Y-87956571D01*
X209720714Y-88028000D01*
X209792142Y-88099428D01*
X209863571Y-88242285D01*
X209863571Y-88385142D01*
X209792142Y-88599428D01*
X208935000Y-89456571D01*
X209863571Y-89456571D01*
X210792142Y-87956571D02*
X210935000Y-87956571D01*
X211077857Y-88028000D01*
X211149285Y-88099428D01*
X211220714Y-88242285D01*
X211292142Y-88528000D01*
X211292142Y-88885142D01*
X211220714Y-89170857D01*
X211149285Y-89313714D01*
X211077857Y-89385142D01*
X210935000Y-89456571D01*
X210792142Y-89456571D01*
X210649285Y-89385142D01*
X210577857Y-89313714D01*
X210506428Y-89170857D01*
X210435000Y-88885142D01*
X210435000Y-88528000D01*
X210506428Y-88242285D01*
X210577857Y-88099428D01*
X210649285Y-88028000D01*
X210792142Y-87956571D01*
X211863571Y-88099428D02*
X211935000Y-88028000D01*
X212077857Y-87956571D01*
X212435000Y-87956571D01*
X212577857Y-88028000D01*
X212649285Y-88099428D01*
X212720714Y-88242285D01*
X212720714Y-88385142D01*
X212649285Y-88599428D01*
X211792142Y-89456571D01*
X212720714Y-89456571D01*
X214149285Y-89456571D02*
X213292142Y-89456571D01*
X213720714Y-89456571D02*
X213720714Y-87956571D01*
X213577857Y-88170857D01*
X213435000Y-88313714D01*
X213292142Y-88385142D01*
D10*
X147984976Y-114165571D02*
X147651642Y-114165571D01*
X147651642Y-114689380D02*
X147651642Y-113689380D01*
X148127833Y-113689380D01*
X148508785Y-114689380D02*
X148508785Y-114022714D01*
X148508785Y-114213190D02*
X148556404Y-114117952D01*
X148604023Y-114070333D01*
X148699261Y-114022714D01*
X148794500Y-114022714D01*
X149508785Y-114641761D02*
X149413547Y-114689380D01*
X149223071Y-114689380D01*
X149127833Y-114641761D01*
X149080214Y-114546523D01*
X149080214Y-114165571D01*
X149127833Y-114070333D01*
X149223071Y-114022714D01*
X149413547Y-114022714D01*
X149508785Y-114070333D01*
X149556404Y-114165571D01*
X149556404Y-114260809D01*
X149080214Y-114356047D01*
X149984976Y-114689380D02*
X149984976Y-113689380D01*
X149984976Y-114165571D02*
X150556404Y-114165571D01*
X150556404Y-114689380D02*
X150556404Y-113689380D01*
X151032595Y-114689380D02*
X151032595Y-113689380D01*
X151270690Y-113689380D01*
X151413547Y-113737000D01*
X151508785Y-113832238D01*
X151556404Y-113927476D01*
X151604023Y-114117952D01*
X151604023Y-114260809D01*
X151556404Y-114451285D01*
X151508785Y-114546523D01*
X151413547Y-114641761D01*
X151270690Y-114689380D01*
X151032595Y-114689380D01*
X146556404Y-116339380D02*
X146556404Y-115339380D01*
X146794500Y-115339380D01*
X146937357Y-115387000D01*
X147032595Y-115482238D01*
X147080214Y-115577476D01*
X147127833Y-115767952D01*
X147127833Y-115910809D01*
X147080214Y-116101285D01*
X147032595Y-116196523D01*
X146937357Y-116291761D01*
X146794500Y-116339380D01*
X146556404Y-116339380D01*
X147556404Y-116339380D02*
X147556404Y-115672714D01*
X147556404Y-115339380D02*
X147508785Y-115387000D01*
X147556404Y-115434619D01*
X147604023Y-115387000D01*
X147556404Y-115339380D01*
X147556404Y-115434619D01*
X147984976Y-116291761D02*
X148080214Y-116339380D01*
X148270690Y-116339380D01*
X148365928Y-116291761D01*
X148413547Y-116196523D01*
X148413547Y-116148904D01*
X148365928Y-116053666D01*
X148270690Y-116006047D01*
X148127833Y-116006047D01*
X148032595Y-115958428D01*
X147984976Y-115863190D01*
X147984976Y-115815571D01*
X148032595Y-115720333D01*
X148127833Y-115672714D01*
X148270690Y-115672714D01*
X148365928Y-115720333D01*
X149270690Y-116339380D02*
X149270690Y-115815571D01*
X149223071Y-115720333D01*
X149127833Y-115672714D01*
X148937357Y-115672714D01*
X148842119Y-115720333D01*
X149270690Y-116291761D02*
X149175452Y-116339380D01*
X148937357Y-116339380D01*
X148842119Y-116291761D01*
X148794500Y-116196523D01*
X148794500Y-116101285D01*
X148842119Y-116006047D01*
X148937357Y-115958428D01*
X149175452Y-115958428D01*
X149270690Y-115910809D01*
X149746880Y-116339380D02*
X149746880Y-115339380D01*
X149746880Y-115720333D02*
X149842119Y-115672714D01*
X150032595Y-115672714D01*
X150127833Y-115720333D01*
X150175452Y-115767952D01*
X150223071Y-115863190D01*
X150223071Y-116148904D01*
X150175452Y-116244142D01*
X150127833Y-116291761D01*
X150032595Y-116339380D01*
X149842119Y-116339380D01*
X149746880Y-116291761D01*
X150794500Y-116339380D02*
X150699261Y-116291761D01*
X150651642Y-116196523D01*
X150651642Y-115339380D01*
X151556404Y-116291761D02*
X151461166Y-116339380D01*
X151270690Y-116339380D01*
X151175452Y-116291761D01*
X151127833Y-116196523D01*
X151127833Y-115815571D01*
X151175452Y-115720333D01*
X151270690Y-115672714D01*
X151461166Y-115672714D01*
X151556404Y-115720333D01*
X151604023Y-115815571D01*
X151604023Y-115910809D01*
X151127833Y-116006047D01*
X193158619Y-70239333D02*
X194158619Y-70239333D01*
X194158619Y-70477428D01*
X194111000Y-70620285D01*
X194015761Y-70715523D01*
X193920523Y-70763142D01*
X193730047Y-70810761D01*
X193587190Y-70810761D01*
X193396714Y-70763142D01*
X193301476Y-70715523D01*
X193206238Y-70620285D01*
X193158619Y-70477428D01*
X193158619Y-70239333D01*
X193682428Y-71239333D02*
X193682428Y-71572666D01*
X193158619Y-71715523D02*
X193158619Y-71239333D01*
X194158619Y-71239333D01*
X194158619Y-71715523D01*
X194158619Y-72001238D02*
X193158619Y-72334571D01*
X194158619Y-72667904D01*
X193158619Y-73001238D02*
X194158619Y-73001238D01*
X193158619Y-73572666D02*
X193730047Y-73144095D01*
X194158619Y-73572666D02*
X193587190Y-73001238D01*
X193158619Y-74001238D02*
X194158619Y-74001238D01*
X194158619Y-74334571D02*
X194158619Y-74906000D01*
X193158619Y-74620285D02*
X194158619Y-74620285D01*
X194158619Y-75096476D02*
X193158619Y-75429809D01*
X194158619Y-75763142D01*
X193158619Y-76620285D02*
X193158619Y-76048857D01*
X193158619Y-76334571D02*
X194158619Y-76334571D01*
X194015761Y-76239333D01*
X193920523Y-76144095D01*
X193872904Y-76048857D01*
X191508619Y-71525047D02*
X192508619Y-71525047D01*
X192508619Y-71906000D01*
X192461000Y-72001238D01*
X192413380Y-72048857D01*
X192318142Y-72096476D01*
X192175285Y-72096476D01*
X192080047Y-72048857D01*
X192032428Y-72001238D01*
X191984809Y-71906000D01*
X191984809Y-71525047D01*
X191508619Y-72525047D02*
X192508619Y-72525047D01*
X191508619Y-73001238D02*
X192508619Y-73001238D01*
X191508619Y-73572666D01*
X192508619Y-73572666D01*
X191508619Y-75334571D02*
X191508619Y-74763142D01*
X191508619Y-75048857D02*
X192508619Y-75048857D01*
X192365761Y-74953619D01*
X192270523Y-74858380D01*
X192222904Y-74763142D01*
X149677380Y-101551714D02*
X148677380Y-101551714D01*
X149153571Y-101551714D02*
X149153571Y-100980285D01*
X149677380Y-100980285D02*
X148677380Y-100980285D01*
X149677380Y-100504095D02*
X148677380Y-100504095D01*
X149677380Y-99551714D02*
X149677380Y-100027904D01*
X148677380Y-100027904D01*
X149153571Y-99218380D02*
X149153571Y-98885047D01*
X149677380Y-98742190D02*
X149677380Y-99218380D01*
X148677380Y-99218380D01*
X148677380Y-98742190D01*
X148677380Y-98456476D02*
X148677380Y-97885047D01*
X149677380Y-98170761D02*
X148677380Y-98170761D01*
X148725000Y-97027904D02*
X148677380Y-97123142D01*
X148677380Y-97266000D01*
X148725000Y-97408857D01*
X148820238Y-97504095D01*
X148915476Y-97551714D01*
X149105952Y-97599333D01*
X149248809Y-97599333D01*
X149439285Y-97551714D01*
X149534523Y-97504095D01*
X149629761Y-97408857D01*
X149677380Y-97266000D01*
X149677380Y-97170761D01*
X149629761Y-97027904D01*
X149582142Y-96980285D01*
X149248809Y-96980285D01*
X149248809Y-97170761D01*
X148677380Y-96361238D02*
X148677380Y-96170761D01*
X148725000Y-96075523D01*
X148820238Y-95980285D01*
X149010714Y-95932666D01*
X149344047Y-95932666D01*
X149534523Y-95980285D01*
X149629761Y-96075523D01*
X149677380Y-96170761D01*
X149677380Y-96361238D01*
X149629761Y-96456476D01*
X149534523Y-96551714D01*
X149344047Y-96599333D01*
X149010714Y-96599333D01*
X148820238Y-96551714D01*
X148725000Y-96456476D01*
X148677380Y-96361238D01*
X149677380Y-94742190D02*
X148677380Y-94742190D01*
X148677380Y-94361238D01*
X148725000Y-94266000D01*
X148772619Y-94218380D01*
X148867857Y-94170761D01*
X149010714Y-94170761D01*
X149105952Y-94218380D01*
X149153571Y-94266000D01*
X149201190Y-94361238D01*
X149201190Y-94742190D01*
X149677380Y-93742190D02*
X148677380Y-93742190D01*
X149677380Y-93266000D02*
X148677380Y-93266000D01*
X149677380Y-92694571D01*
X148677380Y-92694571D01*
X149677380Y-90932666D02*
X149677380Y-91504095D01*
X149677380Y-91218380D02*
X148677380Y-91218380D01*
X148820238Y-91313619D01*
X148915476Y-91408857D01*
X148963095Y-91504095D01*
X209129380Y-137207476D02*
X209129380Y-137683666D01*
X209605571Y-137731285D01*
X209557952Y-137683666D01*
X209510333Y-137588428D01*
X209510333Y-137350333D01*
X209557952Y-137255095D01*
X209605571Y-137207476D01*
X209700809Y-137159857D01*
X209938904Y-137159857D01*
X210034142Y-137207476D01*
X210081761Y-137255095D01*
X210129380Y-137350333D01*
X210129380Y-137588428D01*
X210081761Y-137683666D01*
X210034142Y-137731285D01*
X209129380Y-136874142D02*
X210129380Y-136540809D01*
X209129380Y-136207476D01*
X209748428Y-135112238D02*
X209748428Y-134350333D01*
X210129380Y-134731285D02*
X209367476Y-134731285D01*
X137628380Y-137850285D02*
X137628380Y-137278857D01*
X138628380Y-137564571D02*
X137628380Y-137564571D01*
X138628380Y-136374095D02*
X138152190Y-136707428D01*
X138628380Y-136945523D02*
X137628380Y-136945523D01*
X137628380Y-136564571D01*
X137676000Y-136469333D01*
X137723619Y-136421714D01*
X137818857Y-136374095D01*
X137961714Y-136374095D01*
X138056952Y-136421714D01*
X138104571Y-136469333D01*
X138152190Y-136564571D01*
X138152190Y-136945523D01*
X138580761Y-135993142D02*
X138628380Y-135850285D01*
X138628380Y-135612190D01*
X138580761Y-135516952D01*
X138533142Y-135469333D01*
X138437904Y-135421714D01*
X138342666Y-135421714D01*
X138247428Y-135469333D01*
X138199809Y-135516952D01*
X138152190Y-135612190D01*
X138104571Y-135802666D01*
X138056952Y-135897904D01*
X138009333Y-135945523D01*
X137914095Y-135993142D01*
X137818857Y-135993142D01*
X137723619Y-135945523D01*
X137676000Y-135897904D01*
X137628380Y-135802666D01*
X137628380Y-135564571D01*
X137676000Y-135421714D01*
X138056952Y-134850285D02*
X138009333Y-134945523D01*
X137961714Y-134993142D01*
X137866476Y-135040761D01*
X137818857Y-135040761D01*
X137723619Y-134993142D01*
X137676000Y-134945523D01*
X137628380Y-134850285D01*
X137628380Y-134659809D01*
X137676000Y-134564571D01*
X137723619Y-134516952D01*
X137818857Y-134469333D01*
X137866476Y-134469333D01*
X137961714Y-134516952D01*
X138009333Y-134564571D01*
X138056952Y-134659809D01*
X138056952Y-134850285D01*
X138104571Y-134945523D01*
X138152190Y-134993142D01*
X138247428Y-135040761D01*
X138437904Y-135040761D01*
X138533142Y-134993142D01*
X138580761Y-134945523D01*
X138628380Y-134850285D01*
X138628380Y-134659809D01*
X138580761Y-134564571D01*
X138533142Y-134516952D01*
X138437904Y-134469333D01*
X138247428Y-134469333D01*
X138152190Y-134516952D01*
X138104571Y-134564571D01*
X138056952Y-134659809D01*
X137628380Y-133850285D02*
X137628380Y-133755047D01*
X137676000Y-133659809D01*
X137723619Y-133612190D01*
X137818857Y-133564571D01*
X138009333Y-133516952D01*
X138247428Y-133516952D01*
X138437904Y-133564571D01*
X138533142Y-133612190D01*
X138580761Y-133659809D01*
X138628380Y-133755047D01*
X138628380Y-133850285D01*
X138580761Y-133945523D01*
X138533142Y-133993142D01*
X138437904Y-134040761D01*
X138247428Y-134088380D01*
X138009333Y-134088380D01*
X137818857Y-134040761D01*
X137723619Y-133993142D01*
X137676000Y-133945523D01*
X137628380Y-133850285D01*
X195318142Y-72588380D02*
X194841952Y-72588380D01*
X194841952Y-71588380D01*
X195651476Y-72064571D02*
X195984809Y-72064571D01*
X196127666Y-72588380D02*
X195651476Y-72588380D01*
X195651476Y-71588380D01*
X196127666Y-71588380D01*
X196556238Y-72588380D02*
X196556238Y-71588380D01*
X196794333Y-71588380D01*
X196937190Y-71636000D01*
X197032428Y-71731238D01*
X197080047Y-71826476D01*
X197127666Y-72016952D01*
X197127666Y-72159809D01*
X197080047Y-72350285D01*
X197032428Y-72445523D01*
X196937190Y-72540761D01*
X196794333Y-72588380D01*
X196556238Y-72588380D01*
X148272666Y-74953761D02*
X148415523Y-75001380D01*
X148653619Y-75001380D01*
X148748857Y-74953761D01*
X148796476Y-74906142D01*
X148844095Y-74810904D01*
X148844095Y-74715666D01*
X148796476Y-74620428D01*
X148748857Y-74572809D01*
X148653619Y-74525190D01*
X148463142Y-74477571D01*
X148367904Y-74429952D01*
X148320285Y-74382333D01*
X148272666Y-74287095D01*
X148272666Y-74191857D01*
X148320285Y-74096619D01*
X148367904Y-74049000D01*
X148463142Y-74001380D01*
X148701238Y-74001380D01*
X148844095Y-74049000D01*
X149177428Y-74001380D02*
X149415523Y-75001380D01*
X149606000Y-74287095D01*
X149796476Y-75001380D01*
X150034571Y-74001380D01*
X150939333Y-75001380D02*
X150367904Y-75001380D01*
X150653619Y-75001380D02*
X150653619Y-74001380D01*
X150558380Y-74144238D01*
X150463142Y-74239476D01*
X150367904Y-74287095D01*
D12*
X191195000Y-85074000D02*
G75*
G02X191195000Y-83074000I0J1000000D01*
G01*
X191195000Y-83074000D02*
X191195000Y-72534000D01*
X191182500Y-72534000D02*
X152657500Y-72534000D01*
X152657500Y-72534000D02*
X152657500Y-95614000D01*
X152657500Y-95614000D02*
X191182500Y-95614000D01*
X191195000Y-95614000D02*
X191195000Y-85074000D01*
X131120000Y-117900000D02*
X128000000Y-117900000D01*
X131120000Y-115780000D02*
X128000000Y-115780000D01*
X131120000Y-117900000D02*
X131120000Y-117836000D01*
X131120000Y-115844000D02*
X131120000Y-115780000D01*
X128000000Y-117900000D02*
X128000000Y-117836000D01*
X128000000Y-115844000D02*
X128000000Y-115780000D01*
X161600000Y-117900000D02*
X158480000Y-117900000D01*
X161600000Y-115780000D02*
X158480000Y-115780000D01*
X161600000Y-117900000D02*
X161600000Y-117836000D01*
X161600000Y-115844000D02*
X161600000Y-115780000D01*
X158480000Y-117900000D02*
X158480000Y-117836000D01*
X158480000Y-115844000D02*
X158480000Y-115780000D01*
X188651000Y-115360000D02*
X185531000Y-115360000D01*
X188651000Y-113240000D02*
X185531000Y-113240000D01*
X188651000Y-115360000D02*
X188651000Y-115296000D01*
X188651000Y-113304000D02*
X188651000Y-113240000D01*
X185531000Y-115360000D02*
X185531000Y-115296000D01*
X185531000Y-113304000D02*
X185531000Y-113240000D01*
X141815000Y-101910000D02*
X141815000Y-98790000D01*
X143935000Y-101910000D02*
X143935000Y-98790000D01*
X141815000Y-101910000D02*
X141879000Y-101910000D01*
X143871000Y-101910000D02*
X143935000Y-101910000D01*
X141815000Y-98790000D02*
X141879000Y-98790000D01*
X143871000Y-98790000D02*
X143935000Y-98790000D01*
X212662827Y-84004315D02*
G75*
G03X213126830Y-78656500I-1080827J2787815D01*
G01*
X210501173Y-84004315D02*
G75*
G02X210037170Y-78656500I1080827J2787815D01*
G01*
X212662429Y-83470979D02*
G75*
G03X212662000Y-78961816I-1080429J2254479D01*
G01*
X210501571Y-83470979D02*
G75*
G02X210502000Y-78961816I1080429J2254479D01*
G01*
X213127000Y-78656500D02*
X212662000Y-78656500D01*
X210502000Y-78656500D02*
X210037000Y-78656500D01*
X170285000Y-109292000D02*
X173885000Y-109292000D01*
X170246522Y-109280478D02*
G75*
G02X172085000Y-104842000I1838478J1838478D01*
G01*
X173923478Y-109280478D02*
G75*
G03X172085000Y-104842000I-1838478J1838478D01*
G01*
X173885000Y-112450000D02*
X170285000Y-112450000D01*
X173923478Y-112461522D02*
G75*
G02X172085000Y-116900000I-1838478J-1838478D01*
G01*
X170246522Y-112461522D02*
G75*
G03X172085000Y-116900000I1838478J-1838478D01*
G01*
X180235000Y-112450000D02*
X176635000Y-112450000D01*
X180273478Y-112461522D02*
G75*
G02X178435000Y-116900000I-1838478J-1838478D01*
G01*
X176596522Y-112461522D02*
G75*
G03X178435000Y-116900000I1838478J-1838478D01*
G01*
X175225000Y-83919500D02*
X175225000Y-83589500D01*
X175225000Y-83589500D02*
X181645000Y-83589500D01*
X181645000Y-83589500D02*
X181645000Y-83919500D01*
X175225000Y-85879500D02*
X175225000Y-86209500D01*
X175225000Y-86209500D02*
X181645000Y-86209500D01*
X181645000Y-86209500D02*
X181645000Y-85879500D01*
X175225000Y-87539000D02*
X175225000Y-87209000D01*
X175225000Y-87209000D02*
X181645000Y-87209000D01*
X181645000Y-87209000D02*
X181645000Y-87539000D01*
X175225000Y-89499000D02*
X175225000Y-89829000D01*
X175225000Y-89829000D02*
X181645000Y-89829000D01*
X181645000Y-89829000D02*
X181645000Y-89499000D01*
X175225000Y-91095000D02*
X175225000Y-90765000D01*
X175225000Y-90765000D02*
X181645000Y-90765000D01*
X181645000Y-90765000D02*
X181645000Y-91095000D01*
X175225000Y-93055000D02*
X175225000Y-93385000D01*
X175225000Y-93385000D02*
X181645000Y-93385000D01*
X181645000Y-93385000D02*
X181645000Y-93055000D01*
X133461000Y-100877000D02*
X137961000Y-100877000D01*
X132211000Y-96877000D02*
X132211000Y-98377000D01*
X137961000Y-94377000D02*
X133461000Y-94377000D01*
X139211000Y-98377000D02*
X139211000Y-96877000D01*
X190440000Y-122190000D02*
G75*
G02X190440000Y-124190000I0J-1000000D01*
G01*
X190440000Y-124190000D02*
X190440000Y-125840000D01*
X190440000Y-125840000D02*
X215960000Y-125840000D01*
X215960000Y-125840000D02*
X215960000Y-120540000D01*
X215960000Y-120540000D02*
X190440000Y-120540000D01*
X190440000Y-120540000D02*
X190440000Y-122190000D01*
X159960000Y-122190000D02*
G75*
G02X159960000Y-124190000I0J-1000000D01*
G01*
X159960000Y-124190000D02*
X159960000Y-125840000D01*
X159960000Y-125840000D02*
X185480000Y-125840000D01*
X185480000Y-125840000D02*
X185480000Y-120540000D01*
X185480000Y-120540000D02*
X159960000Y-120540000D01*
X159960000Y-120540000D02*
X159960000Y-122190000D01*
X129480000Y-122190000D02*
G75*
G02X129480000Y-124190000I0J-1000000D01*
G01*
X129480000Y-124190000D02*
X129480000Y-125840000D01*
X129480000Y-125840000D02*
X155000000Y-125840000D01*
X155000000Y-125840000D02*
X155000000Y-120540000D01*
X155000000Y-120540000D02*
X129480000Y-120540000D01*
X129480000Y-120540000D02*
X129480000Y-122190000D01*
X203260000Y-138490000D02*
X203260000Y-133290000D01*
X142240000Y-138490000D02*
X203260000Y-138490000D01*
X139640000Y-133290000D02*
X203260000Y-133290000D01*
X142240000Y-138490000D02*
X142240000Y-135890000D01*
X142240000Y-135890000D02*
X139640000Y-135890000D01*
X139640000Y-135890000D02*
X139640000Y-133290000D01*
X140970000Y-138490000D02*
X139640000Y-138490000D01*
X139640000Y-138490000D02*
X139640000Y-137160000D01*
X150409600Y-87950800D02*
G75*
G02X150409600Y-89950800I0J-1000000D01*
G01*
X150435000Y-89950800D02*
X150435000Y-99678000D01*
X150447500Y-99678000D02*
X197427500Y-99678000D01*
X197545000Y-99678000D02*
X197545000Y-79112600D01*
X197427500Y-79112600D02*
X150447500Y-79112600D01*
X150435000Y-79112600D02*
X150435000Y-87950800D01*
X208213000Y-133290000D02*
X205553000Y-133290000D01*
X208213000Y-135890000D02*
X208213000Y-133290000D01*
X205553000Y-135890000D02*
X205553000Y-133290000D01*
X208213000Y-135890000D02*
X205553000Y-135890000D01*
X208213000Y-137160000D02*
X208213000Y-138490000D01*
X208213000Y-138490000D02*
X206883000Y-138490000D01*
X152079000Y-73339000D02*
X152079000Y-70679000D01*
X149479000Y-73339000D02*
X152079000Y-73339000D01*
X149479000Y-70679000D02*
X152079000Y-70679000D01*
X149479000Y-73339000D02*
X149479000Y-70679000D01*
X148209000Y-73339000D02*
X146879000Y-73339000D01*
X146879000Y-73339000D02*
X146879000Y-72009000D01*
X208594000Y-73339000D02*
X208594000Y-70679000D01*
X200914000Y-73339000D02*
X208594000Y-73339000D01*
X200914000Y-70679000D02*
X208594000Y-70679000D01*
X200914000Y-73339000D02*
X200914000Y-70679000D01*
X199644000Y-73339000D02*
X198314000Y-73339000D01*
X198314000Y-73339000D02*
X198314000Y-72009000D01*
X135816000Y-72725000D02*
X135816000Y-72955000D01*
X135296000Y-69055000D02*
X143016000Y-69055000D01*
X143016000Y-69055000D02*
X143016000Y-72955000D01*
X135296000Y-76065000D02*
X135816000Y-76065000D01*
X135296000Y-69055000D02*
X135296000Y-72955000D01*
X142496000Y-72725000D02*
X142496000Y-72955000D01*
X135816000Y-75555000D02*
X135816000Y-76065000D01*
X135296000Y-75555000D02*
X135296000Y-76065000D01*
X141956000Y-72725000D02*
X142496000Y-72725000D01*
X142496000Y-75555000D02*
X142496000Y-76065000D01*
X142496000Y-76065000D02*
X143016000Y-76065000D01*
X143016000Y-75555000D02*
X143016000Y-76065000D01*
X135816000Y-72725000D02*
X136356000Y-72725000D01*
X137456000Y-72725000D02*
X140856000Y-72725000D01*
X155000000Y-112462000D02*
X152340000Y-112462000D01*
X155000000Y-115062000D02*
X155000000Y-112462000D01*
X152340000Y-115062000D02*
X152340000Y-112462000D01*
X155000000Y-115062000D02*
X152340000Y-115062000D01*
X155000000Y-116332000D02*
X155000000Y-117662000D01*
X155000000Y-117662000D02*
X153670000Y-117662000D01*
X163992000Y-113502000D02*
X163992000Y-113832000D01*
X163992000Y-113832000D02*
X157572000Y-113832000D01*
X157572000Y-113832000D02*
X157572000Y-113502000D01*
X163992000Y-111542000D02*
X163992000Y-111212000D01*
X163992000Y-111212000D02*
X157572000Y-111212000D01*
X157572000Y-111212000D02*
X157572000Y-111542000D01*
X189201500Y-105945500D02*
X189201500Y-106275500D01*
X189201500Y-106275500D02*
X182781500Y-106275500D01*
X182781500Y-106275500D02*
X182781500Y-105945500D01*
X189201500Y-103985500D02*
X189201500Y-103655500D01*
X189201500Y-103655500D02*
X182781500Y-103655500D01*
X182781500Y-103655500D02*
X182781500Y-103985500D01*
X161833000Y-90845000D02*
X161833000Y-90515000D01*
X155413000Y-90845000D02*
X161833000Y-90845000D01*
X155413000Y-90515000D02*
X155413000Y-90845000D01*
X161833000Y-88225000D02*
X161833000Y-88555000D01*
X155413000Y-88225000D02*
X161833000Y-88225000D01*
X155413000Y-88555000D02*
X155413000Y-88225000D01*
X155413000Y-92238000D02*
X155413000Y-91908000D01*
X155413000Y-91908000D02*
X161833000Y-91908000D01*
X161833000Y-91908000D02*
X161833000Y-92238000D01*
X155413000Y-94198000D02*
X155413000Y-94528000D01*
X155413000Y-94528000D02*
X161833000Y-94528000D01*
X161833000Y-94528000D02*
X161833000Y-94198000D01*
X194345000Y-93385000D02*
X194345000Y-93055000D01*
X187925000Y-93385000D02*
X194345000Y-93385000D01*
X187925000Y-93055000D02*
X187925000Y-93385000D01*
X194345000Y-90765000D02*
X194345000Y-91095000D01*
X187925000Y-90765000D02*
X194345000Y-90765000D01*
X187925000Y-91095000D02*
X187925000Y-90765000D01*
X155413000Y-84872000D02*
X155413000Y-84542000D01*
X155413000Y-84542000D02*
X161833000Y-84542000D01*
X161833000Y-84542000D02*
X161833000Y-84872000D01*
X155413000Y-86832000D02*
X155413000Y-87162000D01*
X155413000Y-87162000D02*
X161833000Y-87162000D01*
X161833000Y-87162000D02*
X161833000Y-86832000D01*
X161833000Y-83542500D02*
X161833000Y-83212500D01*
X155413000Y-83542500D02*
X161833000Y-83542500D01*
X155413000Y-83212500D02*
X155413000Y-83542500D01*
X161833000Y-80922500D02*
X161833000Y-81252500D01*
X155413000Y-80922500D02*
X161833000Y-80922500D01*
X155413000Y-81252500D02*
X155413000Y-80922500D01*
X191710000Y-109681500D02*
X191710000Y-111331500D01*
X214690000Y-109681500D02*
X191710000Y-109681500D01*
X214690000Y-114981500D02*
X214690000Y-109681500D01*
X191710000Y-114981500D02*
X214690000Y-114981500D01*
X191710000Y-113331500D02*
X191710000Y-114981500D01*
X191710000Y-111331500D02*
G75*
G02X191710000Y-113331500I0J-1000000D01*
G01*
X180305000Y-79779500D02*
X180305000Y-80109500D01*
X186725000Y-79779500D02*
X180305000Y-79779500D01*
X186725000Y-80109500D02*
X186725000Y-79779500D01*
X180305000Y-82399500D02*
X180305000Y-82069500D01*
X186725000Y-82399500D02*
X180305000Y-82399500D01*
X186725000Y-82069500D02*
X186725000Y-82399500D01*
D10*
X129373333Y-115165142D02*
X129325714Y-115212761D01*
X129182857Y-115260380D01*
X129087619Y-115260380D01*
X128944761Y-115212761D01*
X128849523Y-115117523D01*
X128801904Y-115022285D01*
X128754285Y-114831809D01*
X128754285Y-114688952D01*
X128801904Y-114498476D01*
X128849523Y-114403238D01*
X128944761Y-114308000D01*
X129087619Y-114260380D01*
X129182857Y-114260380D01*
X129325714Y-114308000D01*
X129373333Y-114355619D01*
X130325714Y-115260380D02*
X129754285Y-115260380D01*
X130040000Y-115260380D02*
X130040000Y-114260380D01*
X129944761Y-114403238D01*
X129849523Y-114498476D01*
X129754285Y-114546095D01*
X159853333Y-115165142D02*
X159805714Y-115212761D01*
X159662857Y-115260380D01*
X159567619Y-115260380D01*
X159424761Y-115212761D01*
X159329523Y-115117523D01*
X159281904Y-115022285D01*
X159234285Y-114831809D01*
X159234285Y-114688952D01*
X159281904Y-114498476D01*
X159329523Y-114403238D01*
X159424761Y-114308000D01*
X159567619Y-114260380D01*
X159662857Y-114260380D01*
X159805714Y-114308000D01*
X159853333Y-114355619D01*
X160234285Y-114355619D02*
X160281904Y-114308000D01*
X160377142Y-114260380D01*
X160615238Y-114260380D01*
X160710476Y-114308000D01*
X160758095Y-114355619D01*
X160805714Y-114450857D01*
X160805714Y-114546095D01*
X160758095Y-114688952D01*
X160186666Y-115260380D01*
X160805714Y-115260380D01*
X186967833Y-116816142D02*
X186920214Y-116863761D01*
X186777357Y-116911380D01*
X186682119Y-116911380D01*
X186539261Y-116863761D01*
X186444023Y-116768523D01*
X186396404Y-116673285D01*
X186348785Y-116482809D01*
X186348785Y-116339952D01*
X186396404Y-116149476D01*
X186444023Y-116054238D01*
X186539261Y-115959000D01*
X186682119Y-115911380D01*
X186777357Y-115911380D01*
X186920214Y-115959000D01*
X186967833Y-116006619D01*
X187301166Y-115911380D02*
X187920214Y-115911380D01*
X187586880Y-116292333D01*
X187729738Y-116292333D01*
X187824976Y-116339952D01*
X187872595Y-116387571D01*
X187920214Y-116482809D01*
X187920214Y-116720904D01*
X187872595Y-116816142D01*
X187824976Y-116863761D01*
X187729738Y-116911380D01*
X187444023Y-116911380D01*
X187348785Y-116863761D01*
X187301166Y-116816142D01*
X140922142Y-100516666D02*
X140969761Y-100564285D01*
X141017380Y-100707142D01*
X141017380Y-100802380D01*
X140969761Y-100945238D01*
X140874523Y-101040476D01*
X140779285Y-101088095D01*
X140588809Y-101135714D01*
X140445952Y-101135714D01*
X140255476Y-101088095D01*
X140160238Y-101040476D01*
X140065000Y-100945238D01*
X140017380Y-100802380D01*
X140017380Y-100707142D01*
X140065000Y-100564285D01*
X140112619Y-100516666D01*
X140350714Y-99659523D02*
X141017380Y-99659523D01*
X139969761Y-99897619D02*
X140684047Y-100135714D01*
X140684047Y-99516666D01*
X210907404Y-77604880D02*
X210907404Y-76604880D01*
X211145500Y-76604880D01*
X211288357Y-76652500D01*
X211383595Y-76747738D01*
X211431214Y-76842976D01*
X211478833Y-77033452D01*
X211478833Y-77176309D01*
X211431214Y-77366785D01*
X211383595Y-77462023D01*
X211288357Y-77557261D01*
X211145500Y-77604880D01*
X210907404Y-77604880D01*
X212431214Y-77604880D02*
X211859785Y-77604880D01*
X212145500Y-77604880D02*
X212145500Y-76604880D01*
X212050261Y-76747738D01*
X211955023Y-76842976D01*
X211859785Y-76890595D01*
X171989761Y-110783619D02*
X171894523Y-110736000D01*
X171799285Y-110640761D01*
X171656428Y-110497904D01*
X171561190Y-110450285D01*
X171465952Y-110450285D01*
X171513571Y-110688380D02*
X171418333Y-110640761D01*
X171323095Y-110545523D01*
X171275476Y-110355047D01*
X171275476Y-110021714D01*
X171323095Y-109831238D01*
X171418333Y-109736000D01*
X171513571Y-109688380D01*
X171704047Y-109688380D01*
X171799285Y-109736000D01*
X171894523Y-109831238D01*
X171942142Y-110021714D01*
X171942142Y-110355047D01*
X171894523Y-110545523D01*
X171799285Y-110640761D01*
X171704047Y-110688380D01*
X171513571Y-110688380D01*
X172894523Y-110688380D02*
X172323095Y-110688380D01*
X172608809Y-110688380D02*
X172608809Y-109688380D01*
X172513571Y-109831238D01*
X172418333Y-109926476D01*
X172323095Y-109974095D01*
X171989761Y-112180619D02*
X171894523Y-112133000D01*
X171799285Y-112037761D01*
X171656428Y-111894904D01*
X171561190Y-111847285D01*
X171465952Y-111847285D01*
X171513571Y-112085380D02*
X171418333Y-112037761D01*
X171323095Y-111942523D01*
X171275476Y-111752047D01*
X171275476Y-111418714D01*
X171323095Y-111228238D01*
X171418333Y-111133000D01*
X171513571Y-111085380D01*
X171704047Y-111085380D01*
X171799285Y-111133000D01*
X171894523Y-111228238D01*
X171942142Y-111418714D01*
X171942142Y-111752047D01*
X171894523Y-111942523D01*
X171799285Y-112037761D01*
X171704047Y-112085380D01*
X171513571Y-112085380D01*
X172323095Y-111180619D02*
X172370714Y-111133000D01*
X172465952Y-111085380D01*
X172704047Y-111085380D01*
X172799285Y-111133000D01*
X172846904Y-111180619D01*
X172894523Y-111275857D01*
X172894523Y-111371095D01*
X172846904Y-111513952D01*
X172275476Y-112085380D01*
X172894523Y-112085380D01*
X178339761Y-112180619D02*
X178244523Y-112133000D01*
X178149285Y-112037761D01*
X178006428Y-111894904D01*
X177911190Y-111847285D01*
X177815952Y-111847285D01*
X177863571Y-112085380D02*
X177768333Y-112037761D01*
X177673095Y-111942523D01*
X177625476Y-111752047D01*
X177625476Y-111418714D01*
X177673095Y-111228238D01*
X177768333Y-111133000D01*
X177863571Y-111085380D01*
X178054047Y-111085380D01*
X178149285Y-111133000D01*
X178244523Y-111228238D01*
X178292142Y-111418714D01*
X178292142Y-111752047D01*
X178244523Y-111942523D01*
X178149285Y-112037761D01*
X178054047Y-112085380D01*
X177863571Y-112085380D01*
X178625476Y-111085380D02*
X179244523Y-111085380D01*
X178911190Y-111466333D01*
X179054047Y-111466333D01*
X179149285Y-111513952D01*
X179196904Y-111561571D01*
X179244523Y-111656809D01*
X179244523Y-111894904D01*
X179196904Y-111990142D01*
X179149285Y-112037761D01*
X179054047Y-112085380D01*
X178768333Y-112085380D01*
X178673095Y-112037761D01*
X178625476Y-111990142D01*
X178141333Y-85351880D02*
X177808000Y-84875690D01*
X177569904Y-85351880D02*
X177569904Y-84351880D01*
X177950857Y-84351880D01*
X178046095Y-84399500D01*
X178093714Y-84447119D01*
X178141333Y-84542357D01*
X178141333Y-84685214D01*
X178093714Y-84780452D01*
X178046095Y-84828071D01*
X177950857Y-84875690D01*
X177569904Y-84875690D01*
X179093714Y-85351880D02*
X178522285Y-85351880D01*
X178808000Y-85351880D02*
X178808000Y-84351880D01*
X178712761Y-84494738D01*
X178617523Y-84589976D01*
X178522285Y-84637595D01*
X178141333Y-88971380D02*
X177808000Y-88495190D01*
X177569904Y-88971380D02*
X177569904Y-87971380D01*
X177950857Y-87971380D01*
X178046095Y-88019000D01*
X178093714Y-88066619D01*
X178141333Y-88161857D01*
X178141333Y-88304714D01*
X178093714Y-88399952D01*
X178046095Y-88447571D01*
X177950857Y-88495190D01*
X177569904Y-88495190D01*
X178522285Y-88066619D02*
X178569904Y-88019000D01*
X178665142Y-87971380D01*
X178903238Y-87971380D01*
X178998476Y-88019000D01*
X179046095Y-88066619D01*
X179093714Y-88161857D01*
X179093714Y-88257095D01*
X179046095Y-88399952D01*
X178474666Y-88971380D01*
X179093714Y-88971380D01*
X178141333Y-92527380D02*
X177808000Y-92051190D01*
X177569904Y-92527380D02*
X177569904Y-91527380D01*
X177950857Y-91527380D01*
X178046095Y-91575000D01*
X178093714Y-91622619D01*
X178141333Y-91717857D01*
X178141333Y-91860714D01*
X178093714Y-91955952D01*
X178046095Y-92003571D01*
X177950857Y-92051190D01*
X177569904Y-92051190D01*
X178474666Y-91527380D02*
X179093714Y-91527380D01*
X178760380Y-91908333D01*
X178903238Y-91908333D01*
X178998476Y-91955952D01*
X179046095Y-92003571D01*
X179093714Y-92098809D01*
X179093714Y-92336904D01*
X179046095Y-92432142D01*
X178998476Y-92479761D01*
X178903238Y-92527380D01*
X178617523Y-92527380D01*
X178522285Y-92479761D01*
X178474666Y-92432142D01*
X134377666Y-93781761D02*
X134520523Y-93829380D01*
X134758619Y-93829380D01*
X134853857Y-93781761D01*
X134901476Y-93734142D01*
X134949095Y-93638904D01*
X134949095Y-93543666D01*
X134901476Y-93448428D01*
X134853857Y-93400809D01*
X134758619Y-93353190D01*
X134568142Y-93305571D01*
X134472904Y-93257952D01*
X134425285Y-93210333D01*
X134377666Y-93115095D01*
X134377666Y-93019857D01*
X134425285Y-92924619D01*
X134472904Y-92877000D01*
X134568142Y-92829380D01*
X134806238Y-92829380D01*
X134949095Y-92877000D01*
X135282428Y-92829380D02*
X135520523Y-93829380D01*
X135711000Y-93115095D01*
X135901476Y-93829380D01*
X136139571Y-92829380D01*
X137044333Y-93829380D02*
X136472904Y-93829380D01*
X136758619Y-93829380D02*
X136758619Y-92829380D01*
X136663380Y-92972238D01*
X136568142Y-93067476D01*
X136472904Y-93115095D01*
X188892380Y-123951904D02*
X189701904Y-123951904D01*
X189797142Y-123904285D01*
X189844761Y-123856666D01*
X189892380Y-123761428D01*
X189892380Y-123570952D01*
X189844761Y-123475714D01*
X189797142Y-123428095D01*
X189701904Y-123380476D01*
X188892380Y-123380476D01*
X188987619Y-122951904D02*
X188940000Y-122904285D01*
X188892380Y-122809047D01*
X188892380Y-122570952D01*
X188940000Y-122475714D01*
X188987619Y-122428095D01*
X189082857Y-122380476D01*
X189178095Y-122380476D01*
X189320952Y-122428095D01*
X189892380Y-122999523D01*
X189892380Y-122380476D01*
X158412380Y-123951904D02*
X159221904Y-123951904D01*
X159317142Y-123904285D01*
X159364761Y-123856666D01*
X159412380Y-123761428D01*
X159412380Y-123570952D01*
X159364761Y-123475714D01*
X159317142Y-123428095D01*
X159221904Y-123380476D01*
X158412380Y-123380476D01*
X158412380Y-122999523D02*
X158412380Y-122380476D01*
X158793333Y-122713809D01*
X158793333Y-122570952D01*
X158840952Y-122475714D01*
X158888571Y-122428095D01*
X158983809Y-122380476D01*
X159221904Y-122380476D01*
X159317142Y-122428095D01*
X159364761Y-122475714D01*
X159412380Y-122570952D01*
X159412380Y-122856666D01*
X159364761Y-122951904D01*
X159317142Y-122999523D01*
X127932380Y-123951904D02*
X128741904Y-123951904D01*
X128837142Y-123904285D01*
X128884761Y-123856666D01*
X128932380Y-123761428D01*
X128932380Y-123570952D01*
X128884761Y-123475714D01*
X128837142Y-123428095D01*
X128741904Y-123380476D01*
X127932380Y-123380476D01*
X128265714Y-122475714D02*
X128932380Y-122475714D01*
X127884761Y-122713809D02*
X128599047Y-122951904D01*
X128599047Y-122332857D01*
X137858666Y-77493761D02*
X138001523Y-77541380D01*
X138239619Y-77541380D01*
X138334857Y-77493761D01*
X138382476Y-77446142D01*
X138430095Y-77350904D01*
X138430095Y-77255666D01*
X138382476Y-77160428D01*
X138334857Y-77112809D01*
X138239619Y-77065190D01*
X138049142Y-77017571D01*
X137953904Y-76969952D01*
X137906285Y-76922333D01*
X137858666Y-76827095D01*
X137858666Y-76731857D01*
X137906285Y-76636619D01*
X137953904Y-76589000D01*
X138049142Y-76541380D01*
X138287238Y-76541380D01*
X138430095Y-76589000D01*
X138763428Y-76541380D02*
X139001523Y-77541380D01*
X139192000Y-76827095D01*
X139382476Y-77541380D01*
X139620571Y-76541380D01*
X139953904Y-76636619D02*
X140001523Y-76589000D01*
X140096761Y-76541380D01*
X140334857Y-76541380D01*
X140430095Y-76589000D01*
X140477714Y-76636619D01*
X140525333Y-76731857D01*
X140525333Y-76827095D01*
X140477714Y-76969952D01*
X139906285Y-77541380D01*
X140525333Y-77541380D01*
X153082666Y-110704380D02*
X153082666Y-111418666D01*
X153035047Y-111561523D01*
X152939809Y-111656761D01*
X152796952Y-111704380D01*
X152701714Y-111704380D01*
X154035047Y-110704380D02*
X153558857Y-110704380D01*
X153511238Y-111180571D01*
X153558857Y-111132952D01*
X153654095Y-111085333D01*
X153892190Y-111085333D01*
X153987428Y-111132952D01*
X154035047Y-111180571D01*
X154082666Y-111275809D01*
X154082666Y-111513904D01*
X154035047Y-111609142D01*
X153987428Y-111656761D01*
X153892190Y-111704380D01*
X153654095Y-111704380D01*
X153558857Y-111656761D01*
X153511238Y-111609142D01*
X160361333Y-112974380D02*
X160028000Y-112498190D01*
X159789904Y-112974380D02*
X159789904Y-111974380D01*
X160170857Y-111974380D01*
X160266095Y-112022000D01*
X160313714Y-112069619D01*
X160361333Y-112164857D01*
X160361333Y-112307714D01*
X160313714Y-112402952D01*
X160266095Y-112450571D01*
X160170857Y-112498190D01*
X159789904Y-112498190D01*
X161218476Y-112307714D02*
X161218476Y-112974380D01*
X160980380Y-111926761D02*
X160742285Y-112641047D01*
X161361333Y-112641047D01*
X139938166Y-136929880D02*
X139938166Y-137644166D01*
X139890547Y-137787023D01*
X139795309Y-137882261D01*
X139652452Y-137929880D01*
X139557214Y-137929880D01*
X140842928Y-136929880D02*
X140652452Y-136929880D01*
X140557214Y-136977500D01*
X140509595Y-137025119D01*
X140414357Y-137167976D01*
X140366738Y-137358452D01*
X140366738Y-137739404D01*
X140414357Y-137834642D01*
X140461976Y-137882261D01*
X140557214Y-137929880D01*
X140747690Y-137929880D01*
X140842928Y-137882261D01*
X140890547Y-137834642D01*
X140938166Y-137739404D01*
X140938166Y-137501309D01*
X140890547Y-137406071D01*
X140842928Y-137358452D01*
X140747690Y-137310833D01*
X140557214Y-137310833D01*
X140461976Y-137358452D01*
X140414357Y-137406071D01*
X140366738Y-137501309D01*
X185888333Y-105481380D02*
X185555000Y-105005190D01*
X185316904Y-105481380D02*
X185316904Y-104481380D01*
X185697857Y-104481380D01*
X185793095Y-104529000D01*
X185840714Y-104576619D01*
X185888333Y-104671857D01*
X185888333Y-104814714D01*
X185840714Y-104909952D01*
X185793095Y-104957571D01*
X185697857Y-105005190D01*
X185316904Y-105005190D01*
X186793095Y-104481380D02*
X186316904Y-104481380D01*
X186269285Y-104957571D01*
X186316904Y-104909952D01*
X186412142Y-104862333D01*
X186650238Y-104862333D01*
X186745476Y-104909952D01*
X186793095Y-104957571D01*
X186840714Y-105052809D01*
X186840714Y-105290904D01*
X186793095Y-105386142D01*
X186745476Y-105433761D01*
X186650238Y-105481380D01*
X186412142Y-105481380D01*
X186316904Y-105433761D01*
X186269285Y-105386142D01*
X158202333Y-89923880D02*
X157869000Y-89447690D01*
X157630904Y-89923880D02*
X157630904Y-88923880D01*
X158011857Y-88923880D01*
X158107095Y-88971500D01*
X158154714Y-89019119D01*
X158202333Y-89114357D01*
X158202333Y-89257214D01*
X158154714Y-89352452D01*
X158107095Y-89400071D01*
X158011857Y-89447690D01*
X157630904Y-89447690D01*
X159059476Y-88923880D02*
X158869000Y-88923880D01*
X158773761Y-88971500D01*
X158726142Y-89019119D01*
X158630904Y-89161976D01*
X158583285Y-89352452D01*
X158583285Y-89733404D01*
X158630904Y-89828642D01*
X158678523Y-89876261D01*
X158773761Y-89923880D01*
X158964238Y-89923880D01*
X159059476Y-89876261D01*
X159107095Y-89828642D01*
X159154714Y-89733404D01*
X159154714Y-89495309D01*
X159107095Y-89400071D01*
X159059476Y-89352452D01*
X158964238Y-89304833D01*
X158773761Y-89304833D01*
X158678523Y-89352452D01*
X158630904Y-89400071D01*
X158583285Y-89495309D01*
X158469332Y-93648879D02*
X158135999Y-93172689D01*
X157897903Y-93648879D02*
X157897903Y-92648879D01*
X158278856Y-92648879D01*
X158374094Y-92696499D01*
X158421713Y-92744118D01*
X158469332Y-92839356D01*
X158469332Y-92982213D01*
X158421713Y-93077451D01*
X158374094Y-93125070D01*
X158278856Y-93172689D01*
X157897903Y-93172689D01*
X158802665Y-92648879D02*
X159469332Y-92648879D01*
X159040760Y-93648879D01*
X190976332Y-92501379D02*
X190642999Y-92025189D01*
X190404903Y-92501379D02*
X190404903Y-91501379D01*
X190785856Y-91501379D01*
X190881094Y-91548999D01*
X190928713Y-91596618D01*
X190976332Y-91691856D01*
X190976332Y-91834713D01*
X190928713Y-91929951D01*
X190881094Y-91977570D01*
X190785856Y-92025189D01*
X190404903Y-92025189D01*
X191547760Y-91929951D02*
X191452522Y-91882332D01*
X191404903Y-91834713D01*
X191357284Y-91739475D01*
X191357284Y-91691856D01*
X191404903Y-91596618D01*
X191452522Y-91548999D01*
X191547760Y-91501379D01*
X191738237Y-91501379D01*
X191833475Y-91548999D01*
X191881094Y-91596618D01*
X191928713Y-91691856D01*
X191928713Y-91739475D01*
X191881094Y-91834713D01*
X191833475Y-91882332D01*
X191738237Y-91929951D01*
X191547760Y-91929951D01*
X191452522Y-91977570D01*
X191404903Y-92025189D01*
X191357284Y-92120427D01*
X191357284Y-92310903D01*
X191404903Y-92406141D01*
X191452522Y-92453760D01*
X191547760Y-92501379D01*
X191738237Y-92501379D01*
X191833475Y-92453760D01*
X191881094Y-92406141D01*
X191928713Y-92310903D01*
X191928713Y-92120427D01*
X191881094Y-92025189D01*
X191833475Y-91977570D01*
X191738237Y-91929951D01*
X158358832Y-86271379D02*
X158025499Y-85795189D01*
X157787403Y-86271379D02*
X157787403Y-85271379D01*
X158168356Y-85271379D01*
X158263594Y-85318999D01*
X158311213Y-85366618D01*
X158358832Y-85461856D01*
X158358832Y-85604713D01*
X158311213Y-85699951D01*
X158263594Y-85747570D01*
X158168356Y-85795189D01*
X157787403Y-85795189D01*
X158835022Y-86271379D02*
X159025499Y-86271379D01*
X159120737Y-86223760D01*
X159168356Y-86176141D01*
X159263594Y-86033284D01*
X159311213Y-85842808D01*
X159311213Y-85461856D01*
X159263594Y-85366618D01*
X159215975Y-85318999D01*
X159120737Y-85271379D01*
X158930260Y-85271379D01*
X158835022Y-85318999D01*
X158787403Y-85366618D01*
X158739784Y-85461856D01*
X158739784Y-85699951D01*
X158787403Y-85795189D01*
X158835022Y-85842808D01*
X158930260Y-85890427D01*
X159120737Y-85890427D01*
X159215975Y-85842808D01*
X159263594Y-85795189D01*
X159311213Y-85699951D01*
X157980142Y-82656379D02*
X157646809Y-82180189D01*
X157408714Y-82656379D02*
X157408714Y-81656379D01*
X157789666Y-81656379D01*
X157884904Y-81703999D01*
X157932523Y-81751618D01*
X157980142Y-81846856D01*
X157980142Y-81989713D01*
X157932523Y-82084951D01*
X157884904Y-82132570D01*
X157789666Y-82180189D01*
X157408714Y-82180189D01*
X158932523Y-82656379D02*
X158361095Y-82656379D01*
X158646809Y-82656379D02*
X158646809Y-81656379D01*
X158551571Y-81799237D01*
X158456333Y-81894475D01*
X158361095Y-81942094D01*
X159551571Y-81656379D02*
X159646809Y-81656379D01*
X159742047Y-81703999D01*
X159789666Y-81751618D01*
X159837285Y-81846856D01*
X159884904Y-82037332D01*
X159884904Y-82275427D01*
X159837285Y-82465903D01*
X159789666Y-82561141D01*
X159742047Y-82608760D01*
X159646809Y-82656379D01*
X159551571Y-82656379D01*
X159456333Y-82608760D01*
X159408714Y-82561141D01*
X159361095Y-82465903D01*
X159313476Y-82275427D01*
X159313476Y-82037332D01*
X159361095Y-81846856D01*
X159408714Y-81751618D01*
X159456333Y-81703999D01*
X159551571Y-81656379D01*
X190162380Y-113093404D02*
X190971904Y-113093404D01*
X191067142Y-113045785D01*
X191114761Y-112998166D01*
X191162380Y-112902928D01*
X191162380Y-112712452D01*
X191114761Y-112617214D01*
X191067142Y-112569595D01*
X190971904Y-112521976D01*
X190162380Y-112521976D01*
X190162380Y-111569595D02*
X190162380Y-112045785D01*
X190638571Y-112093404D01*
X190590952Y-112045785D01*
X190543333Y-111950547D01*
X190543333Y-111712452D01*
X190590952Y-111617214D01*
X190638571Y-111569595D01*
X190733809Y-111521976D01*
X190971904Y-111521976D01*
X191067142Y-111569595D01*
X191114761Y-111617214D01*
X191162380Y-111712452D01*
X191162380Y-111950547D01*
X191114761Y-112045785D01*
X191067142Y-112093404D01*
X182618142Y-81605380D02*
X182284809Y-81129190D01*
X182046714Y-81605380D02*
X182046714Y-80605380D01*
X182427666Y-80605380D01*
X182522904Y-80653000D01*
X182570523Y-80700619D01*
X182618142Y-80795857D01*
X182618142Y-80938714D01*
X182570523Y-81033952D01*
X182522904Y-81081571D01*
X182427666Y-81129190D01*
X182046714Y-81129190D01*
X183570523Y-81605380D02*
X182999095Y-81605380D01*
X183284809Y-81605380D02*
X183284809Y-80605380D01*
X183189571Y-80748238D01*
X183094333Y-80843476D01*
X182999095Y-80891095D01*
X184522904Y-81605380D02*
X183951476Y-81605380D01*
X184237190Y-81605380D02*
X184237190Y-80605380D01*
X184141952Y-80748238D01*
X184046714Y-80843476D01*
X183951476Y-80891095D01*
M02*
