G04 #@! TF.GenerationSoftware,KiCad,Pcbnew,(5.1.5)-3*
G04 #@! TF.CreationDate,2021-08-30T09:07:39+12:00*
G04 #@! TF.ProjectId,TRSIO,54525349-4f2e-46b6-9963-61645f706362,rev?*
G04 #@! TF.SameCoordinates,Original*
G04 #@! TF.FileFunction,Soldermask,Bot*
G04 #@! TF.FilePolarity,Negative*
%FSLAX46Y46*%
G04 Gerber Fmt 4.6, Leading zero omitted, Abs format (unit mm)*
G04 Created by KiCad (PCBNEW (5.1.5)-3) date 2021-08-30 09:07:39*
%MOMM*%
%LPD*%
G04 APERTURE LIST*
%ADD10C,2.600000*%
%ADD11C,3.600000*%
%ADD12R,2.000000X2.000000*%
%ADD13O,2.000000X2.000000*%
%ADD14C,2.000000*%
%ADD15R,2.200000X1.470000*%
%ADD16O,2.200000X1.470000*%
%ADD17C,1.400000*%
%ADD18R,1.400000X1.400000*%
%ADD19C,2.400000*%
%ADD20R,2.100000X2.100000*%
%ADD21O,2.100000X2.100000*%
%ADD22C,2.500000*%
%ADD23C,2.150000*%
%ADD24R,2.178000X8.020000*%
%ADD25R,2.000000X1.100000*%
%ADD26R,1.800000X2.000000*%
%ADD27R,2.600000X1.600000*%
%ADD28R,1.800000X1.600000*%
G04 APERTURE END LIST*
D10*
X214376000Y-100012500D03*
X214376000Y-92075000D03*
D11*
X215519000Y-137414000D03*
X129286000Y-137414000D03*
X215519000Y-72517000D03*
X129286000Y-72517000D03*
D12*
X189865000Y-71374000D03*
D13*
X187325000Y-71374000D03*
X184785000Y-71374000D03*
X182245000Y-71374000D03*
X179705000Y-71374000D03*
X177165000Y-71374000D03*
X154305000Y-96774000D03*
X174625000Y-71374000D03*
X156845000Y-96774000D03*
X172085000Y-71374000D03*
X159385000Y-96774000D03*
X169545000Y-71374000D03*
X161925000Y-96774000D03*
X167005000Y-71374000D03*
X164465000Y-96774000D03*
X164465000Y-71374000D03*
X167005000Y-96774000D03*
X161925000Y-71374000D03*
X169545000Y-96774000D03*
X159385000Y-71374000D03*
X172085000Y-96774000D03*
X156845000Y-71374000D03*
X174625000Y-96774000D03*
X154305000Y-71374000D03*
X177165000Y-96774000D03*
X179705000Y-96774000D03*
X182245000Y-96774000D03*
X184785000Y-96774000D03*
X187325000Y-96774000D03*
X189865000Y-96774000D03*
D14*
X130810000Y-116840000D03*
X128310000Y-116840000D03*
X161290000Y-116840000D03*
X158790000Y-116840000D03*
X188341000Y-114300000D03*
X185841000Y-114300000D03*
X142875000Y-101600000D03*
X142875000Y-99100000D03*
D15*
X211582000Y-79311500D03*
D16*
X211582000Y-80581500D03*
X211582000Y-81851500D03*
X211582000Y-83121500D03*
D17*
X172085000Y-106172000D03*
X173355000Y-107442000D03*
D18*
X170815000Y-107442000D03*
D17*
X172085000Y-115570000D03*
X170815000Y-114300000D03*
D18*
X173355000Y-114300000D03*
D17*
X178435000Y-115570000D03*
X177165000Y-114300000D03*
D18*
X179705000Y-114300000D03*
D14*
X174625000Y-84899500D03*
D13*
X182245000Y-84899500D03*
D14*
X174625000Y-88519000D03*
D13*
X182245000Y-88519000D03*
D14*
X174625000Y-92075000D03*
D13*
X182245000Y-92075000D03*
D19*
X132461000Y-99877000D03*
X132461000Y-95377000D03*
X138961000Y-99877000D03*
X138961000Y-95377000D03*
D12*
X191770000Y-127000000D03*
D13*
X214630000Y-119380000D03*
X194310000Y-127000000D03*
X212090000Y-119380000D03*
X196850000Y-127000000D03*
X209550000Y-119380000D03*
X199390000Y-127000000D03*
X207010000Y-119380000D03*
X201930000Y-127000000D03*
X204470000Y-119380000D03*
X204470000Y-127000000D03*
X201930000Y-119380000D03*
X207010000Y-127000000D03*
X199390000Y-119380000D03*
X209550000Y-127000000D03*
X196850000Y-119380000D03*
X212090000Y-127000000D03*
X194310000Y-119380000D03*
X214630000Y-127000000D03*
X191770000Y-119380000D03*
D12*
X161290000Y-127000000D03*
D13*
X184150000Y-119380000D03*
X163830000Y-127000000D03*
X181610000Y-119380000D03*
X166370000Y-127000000D03*
X179070000Y-119380000D03*
X168910000Y-127000000D03*
X176530000Y-119380000D03*
X171450000Y-127000000D03*
X173990000Y-119380000D03*
X173990000Y-127000000D03*
X171450000Y-119380000D03*
X176530000Y-127000000D03*
X168910000Y-119380000D03*
X179070000Y-127000000D03*
X166370000Y-119380000D03*
X181610000Y-127000000D03*
X163830000Y-119380000D03*
X184150000Y-127000000D03*
X161290000Y-119380000D03*
D12*
X130810000Y-127000000D03*
D13*
X153670000Y-119380000D03*
X133350000Y-127000000D03*
X151130000Y-119380000D03*
X135890000Y-127000000D03*
X148590000Y-119380000D03*
X138430000Y-127000000D03*
X146050000Y-119380000D03*
X140970000Y-127000000D03*
X143510000Y-119380000D03*
X143510000Y-127000000D03*
X140970000Y-119380000D03*
X146050000Y-127000000D03*
X138430000Y-119380000D03*
X148590000Y-127000000D03*
X135890000Y-119380000D03*
X151130000Y-127000000D03*
X133350000Y-119380000D03*
X153670000Y-127000000D03*
X130810000Y-119380000D03*
D20*
X140970000Y-137160000D03*
D21*
X140970000Y-134620000D03*
X143510000Y-137160000D03*
X143510000Y-134620000D03*
X146050000Y-137160000D03*
X146050000Y-134620000D03*
X148590000Y-137160000D03*
X148590000Y-134620000D03*
X151130000Y-137160000D03*
X151130000Y-134620000D03*
X153670000Y-137160000D03*
X153670000Y-134620000D03*
X156210000Y-137160000D03*
X156210000Y-134620000D03*
X158750000Y-137160000D03*
X158750000Y-134620000D03*
X161290000Y-137160000D03*
X161290000Y-134620000D03*
X163830000Y-137160000D03*
X163830000Y-134620000D03*
X166370000Y-137160000D03*
X166370000Y-134620000D03*
X168910000Y-137160000D03*
X168910000Y-134620000D03*
X171450000Y-137160000D03*
X171450000Y-134620000D03*
X173990000Y-137160000D03*
X173990000Y-134620000D03*
X176530000Y-137160000D03*
X176530000Y-134620000D03*
X179070000Y-137160000D03*
X179070000Y-134620000D03*
X181610000Y-137160000D03*
X181610000Y-134620000D03*
X184150000Y-137160000D03*
X184150000Y-134620000D03*
X186690000Y-137160000D03*
X186690000Y-134620000D03*
X189230000Y-137160000D03*
X189230000Y-134620000D03*
X191770000Y-137160000D03*
X191770000Y-134620000D03*
X194310000Y-137160000D03*
X194310000Y-134620000D03*
X196850000Y-137160000D03*
X196850000Y-134620000D03*
X199390000Y-137160000D03*
X199390000Y-134620000D03*
X201930000Y-137160000D03*
X201930000Y-134620000D03*
D12*
X151765000Y-100838000D03*
D13*
X154305000Y-100838000D03*
X197485000Y-77978000D03*
X156845000Y-100838000D03*
X194945000Y-77978000D03*
X159385000Y-100838000D03*
X192405000Y-77978000D03*
X161925000Y-100838000D03*
X189865000Y-77978000D03*
X164465000Y-100838000D03*
X187325000Y-77978000D03*
X167005000Y-100838000D03*
X184785000Y-77978000D03*
X169545000Y-100838000D03*
X182245000Y-77978000D03*
X172085000Y-100838000D03*
X179705000Y-77978000D03*
X174625000Y-100838000D03*
X177165000Y-77978000D03*
X177165000Y-100838000D03*
X174625000Y-77978000D03*
X179705000Y-100838000D03*
X172085000Y-77978000D03*
X182245000Y-100838000D03*
X169545000Y-77978000D03*
X184785000Y-100838000D03*
X167005000Y-77978000D03*
X187325000Y-100838000D03*
X164465000Y-77978000D03*
X189865000Y-100838000D03*
X161925000Y-77978000D03*
X192405000Y-100838000D03*
X159385000Y-77978000D03*
X194945000Y-100838000D03*
X156845000Y-77978000D03*
X197485000Y-100838000D03*
X154305000Y-77978000D03*
X151828500Y-77978000D03*
D20*
X206883000Y-137160000D03*
D21*
X206883000Y-134620000D03*
D20*
X148209000Y-72009000D03*
D21*
X150749000Y-72009000D03*
D20*
X199644000Y-72009000D03*
D21*
X202184000Y-72009000D03*
X204724000Y-72009000D03*
X207264000Y-72009000D03*
D22*
X142666000Y-74245000D03*
D23*
X141406000Y-71755000D03*
X136906000Y-71755000D03*
D22*
X135656000Y-74245000D03*
D20*
X153670000Y-116332000D03*
D21*
X153670000Y-113792000D03*
D14*
X164592000Y-112522000D03*
D13*
X156972000Y-112522000D03*
D24*
X201866500Y-145097500D03*
X199326500Y-145097500D03*
X196786500Y-145097500D03*
X194246500Y-145097500D03*
X191706500Y-145097500D03*
X189166500Y-145097500D03*
X186626500Y-145097500D03*
X184086500Y-145097500D03*
X181546500Y-145097500D03*
X179006500Y-145097500D03*
X176466500Y-145097500D03*
X173926500Y-145097500D03*
X171386500Y-145097500D03*
X168846500Y-145097500D03*
X166306500Y-145097500D03*
X163766500Y-145097500D03*
X161226500Y-145097500D03*
X158686500Y-145097500D03*
X156146500Y-145097500D03*
X153606500Y-145097500D03*
X151066500Y-145097500D03*
X148526500Y-145097500D03*
X145986500Y-145097500D03*
X143446500Y-145097500D03*
X140906500Y-145097500D03*
D25*
X203876000Y-99101000D03*
X203876000Y-98001000D03*
X203876000Y-96901000D03*
X203876000Y-95801000D03*
X203876000Y-94701000D03*
X203876000Y-93601000D03*
X203876000Y-92501000D03*
X203876000Y-91401000D03*
X203876000Y-90301000D03*
D26*
X204376000Y-103751000D03*
D27*
X213976000Y-104651000D03*
X213976000Y-89151000D03*
D28*
X204376000Y-89151000D03*
D14*
X189801500Y-104965500D03*
D13*
X182181500Y-104965500D03*
X162433000Y-89535000D03*
D14*
X154813000Y-89535000D03*
X154813000Y-93218000D03*
D13*
X162433000Y-93218000D03*
X194945000Y-92075000D03*
D14*
X187325000Y-92075000D03*
X154813000Y-85852000D03*
D13*
X162433000Y-85852000D03*
X162433000Y-82232500D03*
D14*
X154813000Y-82232500D03*
D13*
X193040000Y-108521500D03*
X213360000Y-116141500D03*
X195580000Y-108521500D03*
X210820000Y-116141500D03*
X198120000Y-108521500D03*
X208280000Y-116141500D03*
X200660000Y-108521500D03*
X205740000Y-116141500D03*
X203200000Y-108521500D03*
X203200000Y-116141500D03*
X205740000Y-108521500D03*
X200660000Y-116141500D03*
X208280000Y-108521500D03*
X198120000Y-116141500D03*
X210820000Y-108521500D03*
X195580000Y-116141500D03*
X213360000Y-108521500D03*
D12*
X193040000Y-116141500D03*
D13*
X179705000Y-81089500D03*
D14*
X187325000Y-81089500D03*
M02*
