G04 #@! TF.GenerationSoftware,KiCad,Pcbnew,(5.1.5)-3*
G04 #@! TF.CreationDate,2021-08-30T09:07:39+12:00*
G04 #@! TF.ProjectId,TRSIO,54525349-4f2e-46b6-9963-61645f706362,rev?*
G04 #@! TF.SameCoordinates,Original*
G04 #@! TF.FileFunction,Copper,L1,Top*
G04 #@! TF.FilePolarity,Positive*
%FSLAX46Y46*%
G04 Gerber Fmt 4.6, Leading zero omitted, Abs format (unit mm)*
G04 Created by KiCad (PCBNEW (5.1.5)-3) date 2021-08-30 09:07:39*
%MOMM*%
%LPD*%
G04 APERTURE LIST*
%ADD10C,0.300000*%
%ADD11R,1.600000X1.600000*%
%ADD12O,1.600000X1.600000*%
%ADD13C,1.600000*%
%ADD14R,1.800000X1.070000*%
%ADD15O,1.800000X1.070000*%
%ADD16C,1.000000*%
%ADD17R,1.000000X1.000000*%
%ADD18C,2.000000*%
%ADD19R,1.700000X1.700000*%
%ADD20O,1.700000X1.700000*%
%ADD21C,2.100000*%
%ADD22C,1.750000*%
%ADD23R,1.778000X7.620000*%
%ADD24C,0.600000*%
%ADD25C,0.250000*%
%ADD26C,0.500000*%
G04 APERTURE END LIST*
D10*
X179622142Y-170501571D02*
X179622142Y-171715857D01*
X179693571Y-171858714D01*
X179765000Y-171930142D01*
X179907857Y-172001571D01*
X180193571Y-172001571D01*
X180336428Y-171930142D01*
X180407857Y-171858714D01*
X180479285Y-171715857D01*
X180479285Y-170501571D01*
X181193571Y-171001571D02*
X181193571Y-172501571D01*
X181193571Y-171073000D02*
X181336428Y-171001571D01*
X181622142Y-171001571D01*
X181765000Y-171073000D01*
X181836428Y-171144428D01*
X181907857Y-171287285D01*
X181907857Y-171715857D01*
X181836428Y-171858714D01*
X181765000Y-171930142D01*
X181622142Y-172001571D01*
X181336428Y-172001571D01*
X181193571Y-171930142D01*
X183193571Y-172001571D02*
X183193571Y-170501571D01*
X183193571Y-171930142D02*
X183050714Y-172001571D01*
X182765000Y-172001571D01*
X182622142Y-171930142D01*
X182550714Y-171858714D01*
X182479285Y-171715857D01*
X182479285Y-171287285D01*
X182550714Y-171144428D01*
X182622142Y-171073000D01*
X182765000Y-171001571D01*
X183050714Y-171001571D01*
X183193571Y-171073000D01*
X184550714Y-172001571D02*
X184550714Y-171215857D01*
X184479285Y-171073000D01*
X184336428Y-171001571D01*
X184050714Y-171001571D01*
X183907857Y-171073000D01*
X184550714Y-171930142D02*
X184407857Y-172001571D01*
X184050714Y-172001571D01*
X183907857Y-171930142D01*
X183836428Y-171787285D01*
X183836428Y-171644428D01*
X183907857Y-171501571D01*
X184050714Y-171430142D01*
X184407857Y-171430142D01*
X184550714Y-171358714D01*
X185050714Y-171001571D02*
X185622142Y-171001571D01*
X185265000Y-170501571D02*
X185265000Y-171787285D01*
X185336428Y-171930142D01*
X185479285Y-172001571D01*
X185622142Y-172001571D01*
X186693571Y-171930142D02*
X186550714Y-172001571D01*
X186265000Y-172001571D01*
X186122142Y-171930142D01*
X186050714Y-171787285D01*
X186050714Y-171215857D01*
X186122142Y-171073000D01*
X186265000Y-171001571D01*
X186550714Y-171001571D01*
X186693571Y-171073000D01*
X186765000Y-171215857D01*
X186765000Y-171358714D01*
X186050714Y-171501571D01*
X188050714Y-172001571D02*
X188050714Y-170501571D01*
X188050714Y-171930142D02*
X187907857Y-172001571D01*
X187622142Y-172001571D01*
X187479285Y-171930142D01*
X187407857Y-171858714D01*
X187336428Y-171715857D01*
X187336428Y-171287285D01*
X187407857Y-171144428D01*
X187479285Y-171073000D01*
X187622142Y-171001571D01*
X187907857Y-171001571D01*
X188050714Y-171073000D01*
X189693571Y-170501571D02*
X190550714Y-170501571D01*
X190122142Y-172001571D02*
X190122142Y-170501571D01*
X191907857Y-172001571D02*
X191407857Y-171287285D01*
X191050714Y-172001571D02*
X191050714Y-170501571D01*
X191622142Y-170501571D01*
X191765000Y-170573000D01*
X191836428Y-170644428D01*
X191907857Y-170787285D01*
X191907857Y-171001571D01*
X191836428Y-171144428D01*
X191765000Y-171215857D01*
X191622142Y-171287285D01*
X191050714Y-171287285D01*
X192479285Y-171930142D02*
X192693571Y-172001571D01*
X193050714Y-172001571D01*
X193193571Y-171930142D01*
X193265000Y-171858714D01*
X193336428Y-171715857D01*
X193336428Y-171573000D01*
X193265000Y-171430142D01*
X193193571Y-171358714D01*
X193050714Y-171287285D01*
X192765000Y-171215857D01*
X192622142Y-171144428D01*
X192550714Y-171073000D01*
X192479285Y-170930142D01*
X192479285Y-170787285D01*
X192550714Y-170644428D01*
X192622142Y-170573000D01*
X192765000Y-170501571D01*
X193122142Y-170501571D01*
X193336428Y-170573000D01*
X193979285Y-171430142D02*
X195122142Y-171430142D01*
X195836428Y-172001571D02*
X195836428Y-170501571D01*
X196836428Y-170501571D02*
X197122142Y-170501571D01*
X197265000Y-170573000D01*
X197407857Y-170715857D01*
X197479285Y-171001571D01*
X197479285Y-171501571D01*
X197407857Y-171787285D01*
X197265000Y-171930142D01*
X197122142Y-172001571D01*
X196836428Y-172001571D01*
X196693571Y-171930142D01*
X196550714Y-171787285D01*
X196479285Y-171501571D01*
X196479285Y-171001571D01*
X196550714Y-170715857D01*
X196693571Y-170573000D01*
X196836428Y-170501571D01*
X199122142Y-171001571D02*
X199407857Y-172001571D01*
X199693571Y-171287285D01*
X199979285Y-172001571D01*
X200265000Y-171001571D01*
X200836428Y-172001571D02*
X200836428Y-171001571D01*
X200836428Y-170501571D02*
X200765000Y-170573000D01*
X200836428Y-170644428D01*
X200907857Y-170573000D01*
X200836428Y-170501571D01*
X200836428Y-170644428D01*
X201336428Y-171001571D02*
X201907857Y-171001571D01*
X201550714Y-170501571D02*
X201550714Y-171787285D01*
X201622142Y-171930142D01*
X201765000Y-172001571D01*
X201907857Y-172001571D01*
X202407857Y-172001571D02*
X202407857Y-170501571D01*
X203050714Y-172001571D02*
X203050714Y-171215857D01*
X202979285Y-171073000D01*
X202836428Y-171001571D01*
X202622142Y-171001571D01*
X202479285Y-171073000D01*
X202407857Y-171144428D01*
X204836428Y-171930142D02*
X205050714Y-172001571D01*
X205407857Y-172001571D01*
X205550714Y-171930142D01*
X205622142Y-171858714D01*
X205693571Y-171715857D01*
X205693571Y-171573000D01*
X205622142Y-171430142D01*
X205550714Y-171358714D01*
X205407857Y-171287285D01*
X205122142Y-171215857D01*
X204979285Y-171144428D01*
X204907857Y-171073000D01*
X204836428Y-170930142D01*
X204836428Y-170787285D01*
X204907857Y-170644428D01*
X204979285Y-170573000D01*
X205122142Y-170501571D01*
X205479285Y-170501571D01*
X205693571Y-170573000D01*
X206336428Y-172001571D02*
X206336428Y-170501571D01*
X206693571Y-170501571D01*
X206907857Y-170573000D01*
X207050714Y-170715857D01*
X207122142Y-170858714D01*
X207193571Y-171144428D01*
X207193571Y-171358714D01*
X207122142Y-171644428D01*
X207050714Y-171787285D01*
X206907857Y-171930142D01*
X206693571Y-172001571D01*
X206336428Y-172001571D01*
X209836428Y-171858714D02*
X209765000Y-171930142D01*
X209550714Y-172001571D01*
X209407857Y-172001571D01*
X209193571Y-171930142D01*
X209050714Y-171787285D01*
X208979285Y-171644428D01*
X208907857Y-171358714D01*
X208907857Y-171144428D01*
X208979285Y-170858714D01*
X209050714Y-170715857D01*
X209193571Y-170573000D01*
X209407857Y-170501571D01*
X209550714Y-170501571D01*
X209765000Y-170573000D01*
X209836428Y-170644428D01*
X211122142Y-172001571D02*
X211122142Y-171215857D01*
X211050714Y-171073000D01*
X210907857Y-171001571D01*
X210622142Y-171001571D01*
X210479285Y-171073000D01*
X211122142Y-171930142D02*
X210979285Y-172001571D01*
X210622142Y-172001571D01*
X210479285Y-171930142D01*
X210407857Y-171787285D01*
X210407857Y-171644428D01*
X210479285Y-171501571D01*
X210622142Y-171430142D01*
X210979285Y-171430142D01*
X211122142Y-171358714D01*
X211836428Y-172001571D02*
X211836428Y-171001571D01*
X211836428Y-171287285D02*
X211907857Y-171144428D01*
X211979285Y-171073000D01*
X212122142Y-171001571D01*
X212265000Y-171001571D01*
X213407857Y-172001571D02*
X213407857Y-170501571D01*
X213407857Y-171930142D02*
X213265000Y-172001571D01*
X212979285Y-172001571D01*
X212836428Y-171930142D01*
X212765000Y-171858714D01*
X212693571Y-171715857D01*
X212693571Y-171287285D01*
X212765000Y-171144428D01*
X212836428Y-171073000D01*
X212979285Y-171001571D01*
X213265000Y-171001571D01*
X213407857Y-171073000D01*
X215193571Y-171930142D02*
X215407857Y-172001571D01*
X215765000Y-172001571D01*
X215907857Y-171930142D01*
X215979285Y-171858714D01*
X216050714Y-171715857D01*
X216050714Y-171573000D01*
X215979285Y-171430142D01*
X215907857Y-171358714D01*
X215765000Y-171287285D01*
X215479285Y-171215857D01*
X215336428Y-171144428D01*
X215265000Y-171073000D01*
X215193571Y-170930142D01*
X215193571Y-170787285D01*
X215265000Y-170644428D01*
X215336428Y-170573000D01*
X215479285Y-170501571D01*
X215836428Y-170501571D01*
X216050714Y-170573000D01*
X217336428Y-171001571D02*
X217336428Y-172001571D01*
X216693571Y-171001571D02*
X216693571Y-171787285D01*
X216765000Y-171930142D01*
X216907857Y-172001571D01*
X217122142Y-172001571D01*
X217265000Y-171930142D01*
X217336428Y-171858714D01*
X218050714Y-171001571D02*
X218050714Y-172501571D01*
X218050714Y-171073000D02*
X218193571Y-171001571D01*
X218479285Y-171001571D01*
X218622142Y-171073000D01*
X218693571Y-171144428D01*
X218765000Y-171287285D01*
X218765000Y-171715857D01*
X218693571Y-171858714D01*
X218622142Y-171930142D01*
X218479285Y-172001571D01*
X218193571Y-172001571D01*
X218050714Y-171930142D01*
X219407857Y-171001571D02*
X219407857Y-172501571D01*
X219407857Y-171073000D02*
X219550714Y-171001571D01*
X219836428Y-171001571D01*
X219979285Y-171073000D01*
X220050714Y-171144428D01*
X220122142Y-171287285D01*
X220122142Y-171715857D01*
X220050714Y-171858714D01*
X219979285Y-171930142D01*
X219836428Y-172001571D01*
X219550714Y-172001571D01*
X219407857Y-171930142D01*
X220979285Y-172001571D02*
X220836428Y-171930142D01*
X220765000Y-171858714D01*
X220693571Y-171715857D01*
X220693571Y-171287285D01*
X220765000Y-171144428D01*
X220836428Y-171073000D01*
X220979285Y-171001571D01*
X221193571Y-171001571D01*
X221336428Y-171073000D01*
X221407857Y-171144428D01*
X221479285Y-171287285D01*
X221479285Y-171715857D01*
X221407857Y-171858714D01*
X221336428Y-171930142D01*
X221193571Y-172001571D01*
X220979285Y-172001571D01*
X222122142Y-172001571D02*
X222122142Y-171001571D01*
X222122142Y-171287285D02*
X222193571Y-171144428D01*
X222265000Y-171073000D01*
X222407857Y-171001571D01*
X222550714Y-171001571D01*
X222836428Y-171001571D02*
X223407857Y-171001571D01*
X223050714Y-170501571D02*
X223050714Y-171787285D01*
X223122142Y-171930142D01*
X223265000Y-172001571D01*
X223407857Y-172001571D01*
X225693571Y-172001571D02*
X225693571Y-171215857D01*
X225622142Y-171073000D01*
X225479285Y-171001571D01*
X225193571Y-171001571D01*
X225050714Y-171073000D01*
X225693571Y-171930142D02*
X225550714Y-172001571D01*
X225193571Y-172001571D01*
X225050714Y-171930142D01*
X224979285Y-171787285D01*
X224979285Y-171644428D01*
X225050714Y-171501571D01*
X225193571Y-171430142D01*
X225550714Y-171430142D01*
X225693571Y-171358714D01*
X226407857Y-171001571D02*
X226407857Y-172001571D01*
X226407857Y-171144428D02*
X226479285Y-171073000D01*
X226622142Y-171001571D01*
X226836428Y-171001571D01*
X226979285Y-171073000D01*
X227050714Y-171215857D01*
X227050714Y-172001571D01*
X228407857Y-172001571D02*
X228407857Y-170501571D01*
X228407857Y-171930142D02*
X228265000Y-172001571D01*
X227979285Y-172001571D01*
X227836428Y-171930142D01*
X227765000Y-171858714D01*
X227693571Y-171715857D01*
X227693571Y-171287285D01*
X227765000Y-171144428D01*
X227836428Y-171073000D01*
X227979285Y-171001571D01*
X228265000Y-171001571D01*
X228407857Y-171073000D01*
X230265000Y-171215857D02*
X230765000Y-171215857D01*
X230979285Y-172001571D02*
X230265000Y-172001571D01*
X230265000Y-170501571D01*
X230979285Y-170501571D01*
X232265000Y-172001571D02*
X232265000Y-170501571D01*
X232265000Y-171930142D02*
X232122142Y-172001571D01*
X231836428Y-172001571D01*
X231693571Y-171930142D01*
X231622142Y-171858714D01*
X231550714Y-171715857D01*
X231550714Y-171287285D01*
X231622142Y-171144428D01*
X231693571Y-171073000D01*
X231836428Y-171001571D01*
X232122142Y-171001571D01*
X232265000Y-171073000D01*
X233622142Y-171001571D02*
X233622142Y-172215857D01*
X233550714Y-172358714D01*
X233479285Y-172430142D01*
X233336428Y-172501571D01*
X233122142Y-172501571D01*
X232979285Y-172430142D01*
X233622142Y-171930142D02*
X233479285Y-172001571D01*
X233193571Y-172001571D01*
X233050714Y-171930142D01*
X232979285Y-171858714D01*
X232907857Y-171715857D01*
X232907857Y-171287285D01*
X232979285Y-171144428D01*
X233050714Y-171073000D01*
X233193571Y-171001571D01*
X233479285Y-171001571D01*
X233622142Y-171073000D01*
X234907857Y-171930142D02*
X234765000Y-172001571D01*
X234479285Y-172001571D01*
X234336428Y-171930142D01*
X234265000Y-171787285D01*
X234265000Y-171215857D01*
X234336428Y-171073000D01*
X234479285Y-171001571D01*
X234765000Y-171001571D01*
X234907857Y-171073000D01*
X234979285Y-171215857D01*
X234979285Y-171358714D01*
X234265000Y-171501571D01*
X237622142Y-171858714D02*
X237550714Y-171930142D01*
X237336428Y-172001571D01*
X237193571Y-172001571D01*
X236979285Y-171930142D01*
X236836428Y-171787285D01*
X236765000Y-171644428D01*
X236693571Y-171358714D01*
X236693571Y-171144428D01*
X236765000Y-170858714D01*
X236836428Y-170715857D01*
X236979285Y-170573000D01*
X237193571Y-170501571D01*
X237336428Y-170501571D01*
X237550714Y-170573000D01*
X237622142Y-170644428D01*
X238479285Y-172001571D02*
X238336428Y-171930142D01*
X238265000Y-171858714D01*
X238193571Y-171715857D01*
X238193571Y-171287285D01*
X238265000Y-171144428D01*
X238336428Y-171073000D01*
X238479285Y-171001571D01*
X238693571Y-171001571D01*
X238836428Y-171073000D01*
X238907857Y-171144428D01*
X238979285Y-171287285D01*
X238979285Y-171715857D01*
X238907857Y-171858714D01*
X238836428Y-171930142D01*
X238693571Y-172001571D01*
X238479285Y-172001571D01*
X239622142Y-171001571D02*
X239622142Y-172001571D01*
X239622142Y-171144428D02*
X239693571Y-171073000D01*
X239836428Y-171001571D01*
X240050714Y-171001571D01*
X240193571Y-171073000D01*
X240265000Y-171215857D01*
X240265000Y-172001571D01*
X240979285Y-171001571D02*
X240979285Y-172001571D01*
X240979285Y-171144428D02*
X241050714Y-171073000D01*
X241193571Y-171001571D01*
X241407857Y-171001571D01*
X241550714Y-171073000D01*
X241622142Y-171215857D01*
X241622142Y-172001571D01*
X242907857Y-171930142D02*
X242765000Y-172001571D01*
X242479285Y-172001571D01*
X242336428Y-171930142D01*
X242265000Y-171787285D01*
X242265000Y-171215857D01*
X242336428Y-171073000D01*
X242479285Y-171001571D01*
X242765000Y-171001571D01*
X242907857Y-171073000D01*
X242979285Y-171215857D01*
X242979285Y-171358714D01*
X242265000Y-171501571D01*
X244265000Y-171930142D02*
X244122142Y-172001571D01*
X243836428Y-172001571D01*
X243693571Y-171930142D01*
X243622142Y-171858714D01*
X243550714Y-171715857D01*
X243550714Y-171287285D01*
X243622142Y-171144428D01*
X243693571Y-171073000D01*
X243836428Y-171001571D01*
X244122142Y-171001571D01*
X244265000Y-171073000D01*
X244693571Y-171001571D02*
X245265000Y-171001571D01*
X244907857Y-170501571D02*
X244907857Y-171787285D01*
X244979285Y-171930142D01*
X245122142Y-172001571D01*
X245265000Y-172001571D01*
X245979285Y-172001571D02*
X245836428Y-171930142D01*
X245765000Y-171858714D01*
X245693571Y-171715857D01*
X245693571Y-171287285D01*
X245765000Y-171144428D01*
X245836428Y-171073000D01*
X245979285Y-171001571D01*
X246193571Y-171001571D01*
X246336428Y-171073000D01*
X246407857Y-171144428D01*
X246479285Y-171287285D01*
X246479285Y-171715857D01*
X246407857Y-171858714D01*
X246336428Y-171930142D01*
X246193571Y-172001571D01*
X245979285Y-172001571D01*
X247122142Y-172001571D02*
X247122142Y-171001571D01*
X247122142Y-171287285D02*
X247193571Y-171144428D01*
X247265000Y-171073000D01*
X247407857Y-171001571D01*
X247550714Y-171001571D01*
X205645857Y-192361428D02*
X205717285Y-192290000D01*
X205860142Y-192218571D01*
X206217285Y-192218571D01*
X206360142Y-192290000D01*
X206431571Y-192361428D01*
X206503000Y-192504285D01*
X206503000Y-192647142D01*
X206431571Y-192861428D01*
X205574428Y-193718571D01*
X206503000Y-193718571D01*
X207217285Y-193718571D02*
X207503000Y-193718571D01*
X207645857Y-193647142D01*
X207717285Y-193575714D01*
X207860142Y-193361428D01*
X207931571Y-193075714D01*
X207931571Y-192504285D01*
X207860142Y-192361428D01*
X207788714Y-192290000D01*
X207645857Y-192218571D01*
X207360142Y-192218571D01*
X207217285Y-192290000D01*
X207145857Y-192361428D01*
X207074428Y-192504285D01*
X207074428Y-192861428D01*
X207145857Y-193004285D01*
X207217285Y-193075714D01*
X207360142Y-193147142D01*
X207645857Y-193147142D01*
X207788714Y-193075714D01*
X207860142Y-193004285D01*
X207931571Y-192861428D01*
X209645857Y-193290000D02*
X210360142Y-193290000D01*
X209503000Y-193718571D02*
X210003000Y-192218571D01*
X210503000Y-193718571D01*
X211645857Y-192718571D02*
X211645857Y-193718571D01*
X211003000Y-192718571D02*
X211003000Y-193504285D01*
X211074428Y-193647142D01*
X211217285Y-193718571D01*
X211431571Y-193718571D01*
X211574428Y-193647142D01*
X211645857Y-193575714D01*
X213003000Y-192718571D02*
X213003000Y-193932857D01*
X212931571Y-194075714D01*
X212860142Y-194147142D01*
X212717285Y-194218571D01*
X212503000Y-194218571D01*
X212360142Y-194147142D01*
X213003000Y-193647142D02*
X212860142Y-193718571D01*
X212574428Y-193718571D01*
X212431571Y-193647142D01*
X212360142Y-193575714D01*
X212288714Y-193432857D01*
X212288714Y-193004285D01*
X212360142Y-192861428D01*
X212431571Y-192790000D01*
X212574428Y-192718571D01*
X212860142Y-192718571D01*
X213003000Y-192790000D01*
X214360142Y-192718571D02*
X214360142Y-193718571D01*
X213717285Y-192718571D02*
X213717285Y-193504285D01*
X213788714Y-193647142D01*
X213931571Y-193718571D01*
X214145857Y-193718571D01*
X214288714Y-193647142D01*
X214360142Y-193575714D01*
X215003000Y-193647142D02*
X215145857Y-193718571D01*
X215431571Y-193718571D01*
X215574428Y-193647142D01*
X215645857Y-193504285D01*
X215645857Y-193432857D01*
X215574428Y-193290000D01*
X215431571Y-193218571D01*
X215217285Y-193218571D01*
X215074428Y-193147142D01*
X215003000Y-193004285D01*
X215003000Y-192932857D01*
X215074428Y-192790000D01*
X215217285Y-192718571D01*
X215431571Y-192718571D01*
X215574428Y-192790000D01*
X216074428Y-192718571D02*
X216645857Y-192718571D01*
X216288714Y-192218571D02*
X216288714Y-193504285D01*
X216360142Y-193647142D01*
X216503000Y-193718571D01*
X216645857Y-193718571D01*
X218217285Y-192361428D02*
X218288714Y-192290000D01*
X218431571Y-192218571D01*
X218788714Y-192218571D01*
X218931571Y-192290000D01*
X219003000Y-192361428D01*
X219074428Y-192504285D01*
X219074428Y-192647142D01*
X219003000Y-192861428D01*
X218145857Y-193718571D01*
X219074428Y-193718571D01*
X220003000Y-192218571D02*
X220145857Y-192218571D01*
X220288714Y-192290000D01*
X220360142Y-192361428D01*
X220431571Y-192504285D01*
X220503000Y-192790000D01*
X220503000Y-193147142D01*
X220431571Y-193432857D01*
X220360142Y-193575714D01*
X220288714Y-193647142D01*
X220145857Y-193718571D01*
X220003000Y-193718571D01*
X219860142Y-193647142D01*
X219788714Y-193575714D01*
X219717285Y-193432857D01*
X219645857Y-193147142D01*
X219645857Y-192790000D01*
X219717285Y-192504285D01*
X219788714Y-192361428D01*
X219860142Y-192290000D01*
X220003000Y-192218571D01*
X221074428Y-192361428D02*
X221145857Y-192290000D01*
X221288714Y-192218571D01*
X221645857Y-192218571D01*
X221788714Y-192290000D01*
X221860142Y-192361428D01*
X221931571Y-192504285D01*
X221931571Y-192647142D01*
X221860142Y-192861428D01*
X221003000Y-193718571D01*
X221931571Y-193718571D01*
X223360142Y-193718571D02*
X222503000Y-193718571D01*
X222931571Y-193718571D02*
X222931571Y-192218571D01*
X222788714Y-192432857D01*
X222645857Y-192575714D01*
X222503000Y-192647142D01*
X186393714Y-188662571D02*
X187250857Y-188662571D01*
X186822285Y-190162571D02*
X186822285Y-188662571D01*
X188608000Y-190162571D02*
X188108000Y-189448285D01*
X187750857Y-190162571D02*
X187750857Y-188662571D01*
X188322285Y-188662571D01*
X188465142Y-188734000D01*
X188536571Y-188805428D01*
X188608000Y-188948285D01*
X188608000Y-189162571D01*
X188536571Y-189305428D01*
X188465142Y-189376857D01*
X188322285Y-189448285D01*
X187750857Y-189448285D01*
X189179428Y-190091142D02*
X189393714Y-190162571D01*
X189750857Y-190162571D01*
X189893714Y-190091142D01*
X189965142Y-190019714D01*
X190036571Y-189876857D01*
X190036571Y-189734000D01*
X189965142Y-189591142D01*
X189893714Y-189519714D01*
X189750857Y-189448285D01*
X189465142Y-189376857D01*
X189322285Y-189305428D01*
X189250857Y-189234000D01*
X189179428Y-189091142D01*
X189179428Y-188948285D01*
X189250857Y-188805428D01*
X189322285Y-188734000D01*
X189465142Y-188662571D01*
X189822285Y-188662571D01*
X190036571Y-188734000D01*
X190679428Y-189591142D02*
X191822285Y-189591142D01*
X192536571Y-190162571D02*
X192536571Y-188662571D01*
X193536571Y-188662571D02*
X193822285Y-188662571D01*
X193965142Y-188734000D01*
X194108000Y-188876857D01*
X194179428Y-189162571D01*
X194179428Y-189662571D01*
X194108000Y-189948285D01*
X193965142Y-190091142D01*
X193822285Y-190162571D01*
X193536571Y-190162571D01*
X193393714Y-190091142D01*
X193250857Y-189948285D01*
X193179428Y-189662571D01*
X193179428Y-189162571D01*
X193250857Y-188876857D01*
X193393714Y-188734000D01*
X193536571Y-188662571D01*
X195750857Y-188662571D02*
X196250857Y-190162571D01*
X196750857Y-188662571D01*
X197822285Y-190091142D02*
X197679428Y-190162571D01*
X197393714Y-190162571D01*
X197250857Y-190091142D01*
X197179428Y-189948285D01*
X197179428Y-189376857D01*
X197250857Y-189234000D01*
X197393714Y-189162571D01*
X197679428Y-189162571D01*
X197822285Y-189234000D01*
X197893714Y-189376857D01*
X197893714Y-189519714D01*
X197179428Y-189662571D01*
X198536571Y-190162571D02*
X198536571Y-189162571D01*
X198536571Y-189448285D02*
X198608000Y-189305428D01*
X198679428Y-189234000D01*
X198822285Y-189162571D01*
X198965142Y-189162571D01*
X199393714Y-190091142D02*
X199536571Y-190162571D01*
X199822285Y-190162571D01*
X199965142Y-190091142D01*
X200036571Y-189948285D01*
X200036571Y-189876857D01*
X199965142Y-189734000D01*
X199822285Y-189662571D01*
X199608000Y-189662571D01*
X199465142Y-189591142D01*
X199393714Y-189448285D01*
X199393714Y-189376857D01*
X199465142Y-189234000D01*
X199608000Y-189162571D01*
X199822285Y-189162571D01*
X199965142Y-189234000D01*
X200679428Y-190162571D02*
X200679428Y-189162571D01*
X200679428Y-188662571D02*
X200608000Y-188734000D01*
X200679428Y-188805428D01*
X200750857Y-188734000D01*
X200679428Y-188662571D01*
X200679428Y-188805428D01*
X201608000Y-190162571D02*
X201465142Y-190091142D01*
X201393714Y-190019714D01*
X201322285Y-189876857D01*
X201322285Y-189448285D01*
X201393714Y-189305428D01*
X201465142Y-189234000D01*
X201608000Y-189162571D01*
X201822285Y-189162571D01*
X201965142Y-189234000D01*
X202036571Y-189305428D01*
X202108000Y-189448285D01*
X202108000Y-189876857D01*
X202036571Y-190019714D01*
X201965142Y-190091142D01*
X201822285Y-190162571D01*
X201608000Y-190162571D01*
X202750857Y-189162571D02*
X202750857Y-190162571D01*
X202750857Y-189305428D02*
X202822285Y-189234000D01*
X202965142Y-189162571D01*
X203179428Y-189162571D01*
X203322285Y-189234000D01*
X203393714Y-189376857D01*
X203393714Y-190162571D01*
X206036571Y-190162571D02*
X205179428Y-190162571D01*
X205608000Y-190162571D02*
X205608000Y-188662571D01*
X205465142Y-188876857D01*
X205322285Y-189019714D01*
X205179428Y-189091142D01*
X206679428Y-190019714D02*
X206750857Y-190091142D01*
X206679428Y-190162571D01*
X206608000Y-190091142D01*
X206679428Y-190019714D01*
X206679428Y-190162571D01*
X207322285Y-188805428D02*
X207393714Y-188734000D01*
X207536571Y-188662571D01*
X207893714Y-188662571D01*
X208036571Y-188734000D01*
X208108000Y-188805428D01*
X208179428Y-188948285D01*
X208179428Y-189091142D01*
X208108000Y-189305428D01*
X207250857Y-190162571D01*
X208179428Y-190162571D01*
D11*
X189865000Y-71374000D03*
D12*
X187325000Y-71374000D03*
X184785000Y-71374000D03*
X182245000Y-71374000D03*
X179705000Y-71374000D03*
X177165000Y-71374000D03*
X154305000Y-96774000D03*
X174625000Y-71374000D03*
X156845000Y-96774000D03*
X172085000Y-71374000D03*
X159385000Y-96774000D03*
X169545000Y-71374000D03*
X161925000Y-96774000D03*
X167005000Y-71374000D03*
X164465000Y-96774000D03*
X164465000Y-71374000D03*
X167005000Y-96774000D03*
X161925000Y-71374000D03*
X169545000Y-96774000D03*
X159385000Y-71374000D03*
X172085000Y-96774000D03*
X156845000Y-71374000D03*
X174625000Y-96774000D03*
X154305000Y-71374000D03*
X177165000Y-96774000D03*
X179705000Y-96774000D03*
X182245000Y-96774000D03*
X184785000Y-96774000D03*
X187325000Y-96774000D03*
X189865000Y-96774000D03*
D13*
X130810000Y-116840000D03*
X128310000Y-116840000D03*
X161290000Y-116840000D03*
X158790000Y-116840000D03*
X188341000Y-114300000D03*
X185841000Y-114300000D03*
X142875000Y-101600000D03*
X142875000Y-99100000D03*
D14*
X211582000Y-79311500D03*
D15*
X211582000Y-80581500D03*
X211582000Y-81851500D03*
X211582000Y-83121500D03*
D16*
X172085000Y-106172000D03*
X173355000Y-107442000D03*
D17*
X170815000Y-107442000D03*
D16*
X172085000Y-115570000D03*
X170815000Y-114300000D03*
D17*
X173355000Y-114300000D03*
D16*
X178435000Y-115570000D03*
X177165000Y-114300000D03*
D17*
X179705000Y-114300000D03*
D13*
X174625000Y-84899500D03*
D12*
X182245000Y-84899500D03*
D13*
X174625000Y-88519000D03*
D12*
X182245000Y-88519000D03*
D13*
X174625000Y-92075000D03*
D12*
X182245000Y-92075000D03*
D18*
X132461000Y-99877000D03*
X132461000Y-95377000D03*
X138961000Y-99877000D03*
X138961000Y-95377000D03*
D11*
X191770000Y-127000000D03*
D12*
X214630000Y-119380000D03*
X194310000Y-127000000D03*
X212090000Y-119380000D03*
X196850000Y-127000000D03*
X209550000Y-119380000D03*
X199390000Y-127000000D03*
X207010000Y-119380000D03*
X201930000Y-127000000D03*
X204470000Y-119380000D03*
X204470000Y-127000000D03*
X201930000Y-119380000D03*
X207010000Y-127000000D03*
X199390000Y-119380000D03*
X209550000Y-127000000D03*
X196850000Y-119380000D03*
X212090000Y-127000000D03*
X194310000Y-119380000D03*
X214630000Y-127000000D03*
X191770000Y-119380000D03*
D11*
X161290000Y-127000000D03*
D12*
X184150000Y-119380000D03*
X163830000Y-127000000D03*
X181610000Y-119380000D03*
X166370000Y-127000000D03*
X179070000Y-119380000D03*
X168910000Y-127000000D03*
X176530000Y-119380000D03*
X171450000Y-127000000D03*
X173990000Y-119380000D03*
X173990000Y-127000000D03*
X171450000Y-119380000D03*
X176530000Y-127000000D03*
X168910000Y-119380000D03*
X179070000Y-127000000D03*
X166370000Y-119380000D03*
X181610000Y-127000000D03*
X163830000Y-119380000D03*
X184150000Y-127000000D03*
X161290000Y-119380000D03*
D11*
X130810000Y-127000000D03*
D12*
X153670000Y-119380000D03*
X133350000Y-127000000D03*
X151130000Y-119380000D03*
X135890000Y-127000000D03*
X148590000Y-119380000D03*
X138430000Y-127000000D03*
X146050000Y-119380000D03*
X140970000Y-127000000D03*
X143510000Y-119380000D03*
X143510000Y-127000000D03*
X140970000Y-119380000D03*
X146050000Y-127000000D03*
X138430000Y-119380000D03*
X148590000Y-127000000D03*
X135890000Y-119380000D03*
X151130000Y-127000000D03*
X133350000Y-119380000D03*
X153670000Y-127000000D03*
X130810000Y-119380000D03*
D19*
X140970000Y-137160000D03*
D20*
X140970000Y-134620000D03*
X143510000Y-137160000D03*
X143510000Y-134620000D03*
X146050000Y-137160000D03*
X146050000Y-134620000D03*
X148590000Y-137160000D03*
X148590000Y-134620000D03*
X151130000Y-137160000D03*
X151130000Y-134620000D03*
X153670000Y-137160000D03*
X153670000Y-134620000D03*
X156210000Y-137160000D03*
X156210000Y-134620000D03*
X158750000Y-137160000D03*
X158750000Y-134620000D03*
X161290000Y-137160000D03*
X161290000Y-134620000D03*
X163830000Y-137160000D03*
X163830000Y-134620000D03*
X166370000Y-137160000D03*
X166370000Y-134620000D03*
X168910000Y-137160000D03*
X168910000Y-134620000D03*
X171450000Y-137160000D03*
X171450000Y-134620000D03*
X173990000Y-137160000D03*
X173990000Y-134620000D03*
X176530000Y-137160000D03*
X176530000Y-134620000D03*
X179070000Y-137160000D03*
X179070000Y-134620000D03*
X181610000Y-137160000D03*
X181610000Y-134620000D03*
X184150000Y-137160000D03*
X184150000Y-134620000D03*
X186690000Y-137160000D03*
X186690000Y-134620000D03*
X189230000Y-137160000D03*
X189230000Y-134620000D03*
X191770000Y-137160000D03*
X191770000Y-134620000D03*
X194310000Y-137160000D03*
X194310000Y-134620000D03*
X196850000Y-137160000D03*
X196850000Y-134620000D03*
X199390000Y-137160000D03*
X199390000Y-134620000D03*
X201930000Y-137160000D03*
X201930000Y-134620000D03*
D11*
X151765000Y-100838000D03*
D12*
X154305000Y-100838000D03*
X197485000Y-77978000D03*
X156845000Y-100838000D03*
X194945000Y-77978000D03*
X159385000Y-100838000D03*
X192405000Y-77978000D03*
X161925000Y-100838000D03*
X189865000Y-77978000D03*
X164465000Y-100838000D03*
X187325000Y-77978000D03*
X167005000Y-100838000D03*
X184785000Y-77978000D03*
X169545000Y-100838000D03*
X182245000Y-77978000D03*
X172085000Y-100838000D03*
X179705000Y-77978000D03*
X174625000Y-100838000D03*
X177165000Y-77978000D03*
X177165000Y-100838000D03*
X174625000Y-77978000D03*
X179705000Y-100838000D03*
X172085000Y-77978000D03*
X182245000Y-100838000D03*
X169545000Y-77978000D03*
X184785000Y-100838000D03*
X167005000Y-77978000D03*
X187325000Y-100838000D03*
X164465000Y-77978000D03*
X189865000Y-100838000D03*
X161925000Y-77978000D03*
X192405000Y-100838000D03*
X159385000Y-77978000D03*
X194945000Y-100838000D03*
X156845000Y-77978000D03*
X197485000Y-100838000D03*
X154305000Y-77978000D03*
X151828500Y-77978000D03*
D19*
X206883000Y-137160000D03*
D20*
X206883000Y-134620000D03*
D19*
X148209000Y-72009000D03*
D20*
X150749000Y-72009000D03*
D19*
X199644000Y-72009000D03*
D20*
X202184000Y-72009000D03*
X204724000Y-72009000D03*
X207264000Y-72009000D03*
D21*
X142666000Y-74245000D03*
D22*
X141406000Y-71755000D03*
X136906000Y-71755000D03*
D21*
X135656000Y-74245000D03*
D19*
X153670000Y-116332000D03*
D20*
X153670000Y-113792000D03*
D13*
X164592000Y-112522000D03*
D12*
X156972000Y-112522000D03*
D23*
X201866500Y-145097500D03*
X199326500Y-145097500D03*
X196786500Y-145097500D03*
X194246500Y-145097500D03*
X191706500Y-145097500D03*
X189166500Y-145097500D03*
X186626500Y-145097500D03*
X184086500Y-145097500D03*
X181546500Y-145097500D03*
X179006500Y-145097500D03*
X176466500Y-145097500D03*
X173926500Y-145097500D03*
X171386500Y-145097500D03*
X168846500Y-145097500D03*
X166306500Y-145097500D03*
X163766500Y-145097500D03*
X161226500Y-145097500D03*
X158686500Y-145097500D03*
X156146500Y-145097500D03*
X153606500Y-145097500D03*
X151066500Y-145097500D03*
X148526500Y-145097500D03*
X145986500Y-145097500D03*
X143446500Y-145097500D03*
X140906500Y-145097500D03*
D13*
X189801500Y-104965500D03*
D12*
X182181500Y-104965500D03*
X162433000Y-89535000D03*
D13*
X154813000Y-89535000D03*
X154813000Y-93218000D03*
D12*
X162433000Y-93218000D03*
X194945000Y-92075000D03*
D13*
X187325000Y-92075000D03*
X154813000Y-85852000D03*
D12*
X162433000Y-85852000D03*
X162433000Y-82232500D03*
D13*
X154813000Y-82232500D03*
D12*
X193040000Y-108521500D03*
X213360000Y-116141500D03*
X195580000Y-108521500D03*
X210820000Y-116141500D03*
X198120000Y-108521500D03*
X208280000Y-116141500D03*
X200660000Y-108521500D03*
X205740000Y-116141500D03*
X203200000Y-108521500D03*
X203200000Y-116141500D03*
X205740000Y-108521500D03*
X200660000Y-116141500D03*
X208280000Y-108521500D03*
X198120000Y-116141500D03*
X210820000Y-108521500D03*
X195580000Y-116141500D03*
X213360000Y-108521500D03*
D11*
X193040000Y-116141500D03*
D12*
X179705000Y-81089500D03*
D13*
X187325000Y-81089500D03*
D24*
X191135000Y-99695000D03*
X151257000Y-99060000D03*
X146685000Y-99695000D03*
X191135000Y-95313500D03*
X191135000Y-114300000D03*
X156972000Y-131826000D03*
X156972000Y-127000000D03*
X201993500Y-89154000D03*
X201041000Y-90932000D03*
X178435000Y-125095000D03*
X175895000Y-124460000D03*
X173355000Y-123825000D03*
X164465000Y-91059000D03*
X156464000Y-104140000D03*
X136525000Y-104140000D03*
X161544000Y-105410000D03*
X144145000Y-105410000D03*
X164084000Y-104775000D03*
X141605000Y-104775000D03*
X166370000Y-106680000D03*
X149225000Y-106680000D03*
X168910000Y-106045000D03*
X146685000Y-106045000D03*
X149225000Y-79883000D03*
X153797000Y-79375000D03*
X139065000Y-107315000D03*
X147320000Y-107315000D03*
X194310000Y-122174000D03*
X177165000Y-122555000D03*
X151638000Y-107696000D03*
X158877000Y-107696000D03*
X168910000Y-123190000D03*
X148844000Y-123190000D03*
X207645000Y-121285000D03*
X208280000Y-131318000D03*
X197485000Y-97155000D03*
X188214000Y-110490000D03*
X161925000Y-110490000D03*
X190119000Y-110871000D03*
X190119000Y-120713500D03*
X205613000Y-83693000D03*
X205549500Y-79311500D03*
X206248000Y-81851500D03*
X206248000Y-85598000D03*
X180975000Y-86677500D03*
X207899000Y-83121500D03*
X207899000Y-87185500D03*
X157988000Y-126746000D03*
X156972000Y-116840000D03*
X142875000Y-121920000D03*
X163195000Y-121920000D03*
X148844000Y-129540000D03*
X174625000Y-129540000D03*
X151384000Y-130302000D03*
X167005000Y-130175000D03*
X155575000Y-109220000D03*
X173355000Y-108839000D03*
X159385000Y-128270000D03*
X199453500Y-98806000D03*
X199199500Y-90360500D03*
X200215500Y-82994500D03*
X200469500Y-97980500D03*
X186499500Y-112522000D03*
X208216500Y-105410000D03*
X193548000Y-98806000D03*
X183515000Y-117411500D03*
X205486000Y-110807500D03*
X182181500Y-109283500D03*
X194945000Y-79883000D03*
X196278500Y-104902000D03*
X206184500Y-106680000D03*
X210248500Y-106680000D03*
D25*
X191135000Y-72644000D02*
X189865000Y-71374000D01*
X191135000Y-116205000D02*
X191770000Y-116840000D01*
X151765000Y-100838000D02*
X151765000Y-99568000D01*
X151765000Y-99568000D02*
X151257000Y-99060000D01*
X146685000Y-101600000D02*
X146685000Y-99695000D01*
X142875000Y-101600000D02*
X131445000Y-101600000D01*
X130810000Y-102235000D02*
X130810000Y-116840000D01*
X131445000Y-101600000D02*
X130810000Y-102235000D01*
X130810000Y-116840000D02*
X130810000Y-119380000D01*
X130810000Y-119380000D02*
X130810000Y-127000000D01*
X191770000Y-116840000D02*
X191770000Y-119380000D01*
X146685000Y-101600000D02*
X142875000Y-101600000D01*
X191135000Y-109220000D02*
X191135000Y-114300000D01*
X191135000Y-114300000D02*
X191135000Y-114300000D01*
X191845130Y-108458000D02*
X191135000Y-108458000D01*
X193040000Y-108521500D02*
X191908630Y-108521500D01*
X191908630Y-108521500D02*
X191845130Y-108458000D01*
X191135000Y-108458000D02*
X191135000Y-109220000D01*
X191135000Y-99695000D02*
X191135000Y-95313500D01*
X191135000Y-114300000D02*
X191135000Y-116205000D01*
X188456370Y-81089500D02*
X191135000Y-81089500D01*
X187325000Y-81089500D02*
X188456370Y-81089500D01*
X191135000Y-81089500D02*
X191135000Y-72644000D01*
X187325000Y-92075000D02*
X191135000Y-92075000D01*
X191135000Y-95313500D02*
X191135000Y-92075000D01*
X191135000Y-92075000D02*
X191135000Y-81089500D01*
X151257000Y-99060000D02*
X151257000Y-93599000D01*
X151638000Y-93218000D02*
X154813000Y-93218000D01*
X151257000Y-93599000D02*
X151638000Y-93218000D01*
X189801500Y-104965500D02*
X191135000Y-104965500D01*
X191135000Y-99695000D02*
X191135000Y-104965500D01*
X191135000Y-104965500D02*
X191135000Y-108458000D01*
X154813000Y-89535000D02*
X154813000Y-93218000D01*
X154813000Y-83363870D02*
X154813000Y-85852000D01*
X154813000Y-82232500D02*
X154813000Y-83363870D01*
X154813000Y-86983370D02*
X154813000Y-89535000D01*
X154813000Y-85852000D02*
X154813000Y-86983370D01*
X156972000Y-127000000D02*
X156972000Y-131826000D01*
X201993500Y-89154000D02*
X201693501Y-89453999D01*
D26*
X201693501Y-89453999D02*
X201041000Y-90106500D01*
X201041000Y-90106500D02*
X201041000Y-90932000D01*
D25*
X181610000Y-127000000D02*
X181610000Y-134620000D01*
X182459999Y-135469999D02*
X181610000Y-134620000D01*
X182785001Y-139798999D02*
X182785001Y-135795001D01*
X181546500Y-141037500D02*
X182785001Y-139798999D01*
X182785001Y-135795001D02*
X182459999Y-135469999D01*
X181546500Y-145097500D02*
X181546500Y-141037500D01*
X179070000Y-127000000D02*
X179070000Y-134620000D01*
X179070000Y-125730000D02*
X178435000Y-125095000D01*
X179070000Y-127000000D02*
X179070000Y-125730000D01*
X179919999Y-135469999D02*
X179070000Y-134620000D01*
X180245001Y-135795001D02*
X179919999Y-135469999D01*
X180245001Y-139798999D02*
X180245001Y-135795001D01*
X179006500Y-141037500D02*
X180245001Y-139798999D01*
X179006500Y-145097500D02*
X179006500Y-141037500D01*
X176530000Y-127000000D02*
X176530000Y-134620000D01*
X176530000Y-125095000D02*
X175895000Y-124460000D01*
X176530000Y-125095000D02*
X176530000Y-127000000D01*
X177379999Y-135469999D02*
X176530000Y-134620000D01*
X177705001Y-135795001D02*
X177379999Y-135469999D01*
X177705001Y-139798999D02*
X177705001Y-135795001D01*
X176466500Y-141037500D02*
X177705001Y-139798999D01*
X176466500Y-145097500D02*
X176466500Y-141037500D01*
X173990000Y-127000000D02*
X173990000Y-134620000D01*
X173990000Y-124460000D02*
X173355000Y-123825000D01*
X173990000Y-124460000D02*
X173990000Y-127000000D01*
X174839999Y-135469999D02*
X173990000Y-134620000D01*
X175165001Y-135795001D02*
X174839999Y-135469999D01*
X173926500Y-141037500D02*
X175165001Y-139798999D01*
X175165001Y-139798999D02*
X175165001Y-135795001D01*
X173926500Y-145097500D02*
X173926500Y-141037500D01*
X172085000Y-100838000D02*
X172085000Y-106172000D01*
X172085000Y-96774000D02*
X172085000Y-100838000D01*
X172085000Y-115570000D02*
X173990000Y-117475000D01*
X173990000Y-117475000D02*
X173990000Y-119380000D01*
X178435000Y-115570000D02*
X176530000Y-117475000D01*
X176530000Y-117475000D02*
X176530000Y-119380000D01*
X174625000Y-77978000D02*
X174625000Y-76835000D01*
X173228000Y-75438000D02*
X173228000Y-72517000D01*
X173228000Y-72517000D02*
X172085000Y-71374000D01*
X174625000Y-76835000D02*
X173228000Y-75438000D01*
X174625000Y-83502500D02*
X174625000Y-84899500D01*
X174625000Y-83502500D02*
X174625000Y-83693000D01*
X174625000Y-77978000D02*
X174625000Y-83502500D01*
X182245000Y-77978000D02*
X182245000Y-76835000D01*
X180848000Y-75438000D02*
X180848000Y-72517000D01*
X180848000Y-72517000D02*
X179705000Y-71374000D01*
X182245000Y-76835000D02*
X180848000Y-75438000D01*
X176530000Y-88138000D02*
X176149000Y-88519000D01*
X182245000Y-81788000D02*
X181483000Y-82550000D01*
X182245000Y-77978000D02*
X182245000Y-81788000D01*
X176149000Y-88519000D02*
X174625000Y-88519000D01*
X181483000Y-82550000D02*
X177292000Y-82550000D01*
X176530000Y-83312000D02*
X176530000Y-88138000D01*
X177292000Y-82550000D02*
X176530000Y-83312000D01*
X164465000Y-91059000D02*
X164465000Y-89916000D01*
X164465000Y-71374000D02*
X164465000Y-77978000D01*
X164465000Y-77978000D02*
X164465000Y-89916000D01*
X164465000Y-89916000D02*
X164465000Y-90043000D01*
X156845000Y-100838000D02*
X156845000Y-103759000D01*
X156845000Y-103759000D02*
X156464000Y-104140000D01*
X135890000Y-104775000D02*
X136525000Y-104140000D01*
X135890000Y-104775000D02*
X135890000Y-119380000D01*
X156845000Y-96774000D02*
X156845000Y-100838000D01*
X161925000Y-100838000D02*
X161925000Y-105029000D01*
X161925000Y-105029000D02*
X161544000Y-105410000D01*
X143510000Y-106045000D02*
X144145000Y-105410000D01*
X143510000Y-119380000D02*
X143510000Y-106045000D01*
X161925000Y-96774000D02*
X161925000Y-100838000D01*
X164465000Y-100838000D02*
X164465000Y-104394000D01*
X164465000Y-104394000D02*
X164084000Y-104775000D01*
X140970000Y-119380000D02*
X140970000Y-105410000D01*
X140970000Y-105410000D02*
X141605000Y-104775000D01*
X164465000Y-96774000D02*
X164465000Y-100838000D01*
X167005000Y-100838000D02*
X167005000Y-106045000D01*
X167005000Y-106045000D02*
X166370000Y-106680000D01*
X148590000Y-107315000D02*
X148590000Y-119380000D01*
X148590000Y-107315000D02*
X149225000Y-106680000D01*
X167005000Y-96774000D02*
X167005000Y-100838000D01*
X169545000Y-100838000D02*
X169545000Y-105410000D01*
X169545000Y-105410000D02*
X168910000Y-106045000D01*
X146050000Y-106680000D02*
X146685000Y-106045000D01*
X146050000Y-106680000D02*
X146050000Y-119380000D01*
X169545000Y-96774000D02*
X169545000Y-100838000D01*
X177165000Y-100838000D02*
X177165000Y-109347000D01*
X177165000Y-109347000D02*
X177673000Y-109855000D01*
X180340000Y-109855000D02*
X180975000Y-109855000D01*
X180975000Y-109855000D02*
X181610000Y-110490000D01*
X181610000Y-110490000D02*
X181610000Y-111125000D01*
X181610000Y-119380000D02*
X181610000Y-111125000D01*
X177673000Y-109855000D02*
X180340000Y-109855000D01*
X177165000Y-96774000D02*
X177165000Y-100838000D01*
X154305000Y-77978000D02*
X154305000Y-78867000D01*
X154305000Y-78867000D02*
X153797000Y-79375000D01*
X154305000Y-76835000D02*
X154305000Y-78486000D01*
X154305000Y-71374000D02*
X154305000Y-76835000D01*
X149225000Y-79883000D02*
X149225000Y-95885000D01*
X138430000Y-107950000D02*
X138430000Y-119380000D01*
X139065000Y-107315000D02*
X138430000Y-107950000D01*
X147955000Y-106680000D02*
X147320000Y-107315000D01*
X147955000Y-97155000D02*
X147955000Y-106680000D01*
X149225000Y-95885000D02*
X147955000Y-97155000D01*
X194310000Y-122174000D02*
X194310000Y-119380000D01*
X179070000Y-119380000D02*
X179070000Y-120650000D01*
X179070000Y-120650000D02*
X177165000Y-122555000D01*
X159385000Y-107188000D02*
X158877000Y-107696000D01*
X151130000Y-119380000D02*
X151130000Y-108204000D01*
X151130000Y-108204000D02*
X151638000Y-107696000D01*
X159385000Y-107188000D02*
X159385000Y-100838000D01*
X159385000Y-96774000D02*
X159385000Y-100838000D01*
X171450000Y-120650000D02*
X168910000Y-123190000D01*
X171450000Y-119380000D02*
X171450000Y-120650000D01*
X148590000Y-123444000D02*
X148590000Y-127000000D01*
X148844000Y-123190000D02*
X148590000Y-123444000D01*
D26*
X164592000Y-112522000D02*
X161290000Y-112522000D01*
D25*
X207772000Y-121285000D02*
X207645000Y-121285000D01*
D26*
X208280000Y-121793000D02*
X207772000Y-121285000D01*
X208280000Y-131318000D02*
X208280000Y-121793000D01*
D25*
X197485000Y-100838000D02*
X198120000Y-101473000D01*
X197485000Y-97155000D02*
X197485000Y-100838000D01*
D26*
X189865000Y-96774000D02*
X188595000Y-98044000D01*
X161290000Y-116840000D02*
X161290000Y-112522000D01*
X161290000Y-112522000D02*
X161290000Y-111125000D01*
X161290000Y-111125000D02*
X161925000Y-110490000D01*
X161290000Y-116840000D02*
X161290000Y-119380000D01*
D25*
X190119000Y-120713500D02*
X190119000Y-120713500D01*
X190119000Y-110871000D02*
X190119000Y-110871000D01*
D26*
X190119000Y-120713500D02*
X190119000Y-110871000D01*
X188214000Y-103378000D02*
X188595000Y-102997000D01*
X188214000Y-110490000D02*
X188214000Y-103378000D01*
X188595000Y-98044000D02*
X188595000Y-102997000D01*
D25*
X138961000Y-76454000D02*
X138961000Y-73810000D01*
X138961000Y-73810000D02*
X136906000Y-71755000D01*
X140589000Y-70231000D02*
X138430000Y-70231000D01*
X138430000Y-70231000D02*
X136906000Y-71755000D01*
X138961000Y-89916000D02*
X138961000Y-76454000D01*
X138961000Y-76454000D02*
X138961000Y-76431000D01*
X140462000Y-70231000D02*
X140589000Y-70231000D01*
X140589000Y-70231000D02*
X149733000Y-70231000D01*
X149733000Y-70231000D02*
X150749000Y-71247000D01*
X150749000Y-71247000D02*
X150749000Y-72009000D01*
X138961000Y-95377000D02*
X138961000Y-89916000D01*
X138961000Y-89916000D02*
X138961000Y-89893000D01*
X132461000Y-95377000D02*
X138961000Y-95377000D01*
X156845000Y-71374000D02*
X156845000Y-77978000D01*
X205613000Y-82042000D02*
X205613000Y-83693000D01*
X199644000Y-74168000D02*
X200152000Y-74676000D01*
X200152000Y-74676000D02*
X203581000Y-74676000D01*
X203581000Y-74676000D02*
X203962000Y-75057000D01*
X203962000Y-75057000D02*
X203962000Y-76454000D01*
X203962000Y-76454000D02*
X205613000Y-78105000D01*
X205613000Y-78105000D02*
X205613000Y-82042000D01*
X199644000Y-72009000D02*
X199644000Y-74168000D01*
X204724000Y-72009000D02*
X204724000Y-76200000D01*
X206248000Y-77724000D02*
X206248000Y-84709000D01*
X204724000Y-76200000D02*
X206248000Y-77724000D01*
X206248000Y-84709000D02*
X206248000Y-85598000D01*
X182245000Y-92075000D02*
X180403500Y-90233500D01*
X180403500Y-90233500D02*
X180403500Y-87249000D01*
X180403500Y-87249000D02*
X180975000Y-86677500D01*
X207264000Y-73914000D02*
X207899000Y-74549000D01*
X207899000Y-74549000D02*
X207899000Y-85725000D01*
X207264000Y-72009000D02*
X207264000Y-73914000D01*
X207899000Y-85725000D02*
X207899000Y-87185500D01*
X156972000Y-112522000D02*
X156972000Y-116840000D01*
X157988000Y-121158000D02*
X157988000Y-120650000D01*
X157988000Y-126746000D02*
X157988000Y-121158000D01*
X156972000Y-120142000D02*
X156972000Y-116840000D01*
X157226000Y-120396000D02*
X156972000Y-120142000D01*
X157734000Y-120396000D02*
X157226000Y-120396000D01*
X157988000Y-120650000D02*
X157734000Y-120396000D01*
X142875000Y-121920000D02*
X142748000Y-121920000D01*
X163195000Y-121920000D02*
X163830000Y-121285000D01*
X163830000Y-121285000D02*
X163830000Y-120650000D01*
X163830000Y-119380000D02*
X163830000Y-120650000D01*
X142240000Y-133350000D02*
X140970000Y-134620000D01*
X142240000Y-122428000D02*
X142240000Y-133350000D01*
X142748000Y-121920000D02*
X142240000Y-122428000D01*
X141819999Y-135469999D02*
X140970000Y-134620000D01*
X142145001Y-135795001D02*
X141819999Y-135469999D01*
X140906500Y-141037500D02*
X142145001Y-139798999D01*
X142145001Y-139798999D02*
X142145001Y-135795001D01*
X140906500Y-145097500D02*
X140906500Y-141037500D01*
X144359999Y-135469999D02*
X143510000Y-134620000D01*
X144685001Y-135795001D02*
X144359999Y-135469999D01*
X143446500Y-141037500D02*
X144685001Y-139798999D01*
X144685001Y-139798999D02*
X144685001Y-135795001D01*
X143446500Y-145097500D02*
X143446500Y-141037500D01*
X147225001Y-135795001D02*
X146899999Y-135469999D01*
X147225001Y-139798999D02*
X147225001Y-135795001D01*
X145986500Y-141037500D02*
X147225001Y-139798999D01*
X146899999Y-135469999D02*
X146050000Y-134620000D01*
X145986500Y-145097500D02*
X145986500Y-141037500D01*
X148590000Y-129794000D02*
X148590000Y-134620000D01*
X148844000Y-129540000D02*
X148590000Y-129794000D01*
X175895000Y-114300000D02*
X177165000Y-114300000D01*
X175260000Y-114935000D02*
X175895000Y-114300000D01*
X175260000Y-128905000D02*
X175260000Y-114935000D01*
X174625000Y-129540000D02*
X175260000Y-128905000D01*
X149439999Y-135469999D02*
X148590000Y-134620000D01*
X149765001Y-135795001D02*
X149439999Y-135469999D01*
X149765001Y-139798999D02*
X149765001Y-135795001D01*
X148526500Y-141037500D02*
X149765001Y-139798999D01*
X148526500Y-145097500D02*
X148526500Y-141037500D01*
X151130000Y-130556000D02*
X151130000Y-134620000D01*
X151384000Y-130302000D02*
X151130000Y-130556000D01*
X170180000Y-114935000D02*
X170815000Y-114300000D01*
X170180000Y-120650000D02*
X170180000Y-114935000D01*
X167640000Y-123190000D02*
X170180000Y-120650000D01*
X167640000Y-129540000D02*
X167640000Y-123190000D01*
X167005000Y-130175000D02*
X167640000Y-129540000D01*
X151979999Y-135469999D02*
X151130000Y-134620000D01*
X152305001Y-139798999D02*
X152305001Y-135795001D01*
X151066500Y-141037500D02*
X152305001Y-139798999D01*
X152305001Y-135795001D02*
X151979999Y-135469999D01*
X151066500Y-145097500D02*
X151066500Y-141037500D01*
X155575000Y-109347000D02*
X155194000Y-109728000D01*
X155194000Y-109728000D02*
X155194000Y-133096000D01*
X153670000Y-134620000D02*
X155194000Y-133096000D01*
X155575000Y-109220000D02*
X155575000Y-109347000D01*
X173355000Y-108839000D02*
X173355000Y-107442000D01*
X154845001Y-135795001D02*
X154519999Y-135469999D01*
X154845001Y-139798999D02*
X154845001Y-135795001D01*
X153606500Y-141037500D02*
X154845001Y-139798999D01*
X154519999Y-135469999D02*
X153670000Y-134620000D01*
X153606500Y-145097500D02*
X153606500Y-141037500D01*
X157059999Y-135469999D02*
X156210000Y-134620000D01*
X157385001Y-135795001D02*
X157059999Y-135469999D01*
X157385001Y-139798999D02*
X157385001Y-135795001D01*
X156146500Y-141037500D02*
X157385001Y-139798999D01*
X156146500Y-145097500D02*
X156146500Y-141037500D01*
X166370000Y-119380000D02*
X166370000Y-122301000D01*
X158750000Y-122809000D02*
X158750000Y-134620000D01*
X159004000Y-122555000D02*
X158750000Y-122809000D01*
X166116000Y-122555000D02*
X159004000Y-122555000D01*
X166370000Y-122301000D02*
X166116000Y-122555000D01*
X159599999Y-135469999D02*
X158750000Y-134620000D01*
X159925001Y-135795001D02*
X159599999Y-135469999D01*
X158686500Y-141037500D02*
X159925001Y-139798999D01*
X159925001Y-139798999D02*
X159925001Y-135795001D01*
X158686500Y-145097500D02*
X158686500Y-141037500D01*
X161290000Y-134620000D02*
X161290000Y-133350000D01*
X161290000Y-133350000D02*
X159385000Y-131445000D01*
X159385000Y-124460000D02*
X159385000Y-128270000D01*
X159385000Y-128270000D02*
X159385000Y-129540000D01*
X168910000Y-119380000D02*
X168910000Y-120650000D01*
X159385000Y-129540000D02*
X159385000Y-131445000D01*
X160020000Y-123825000D02*
X159385000Y-124460000D01*
X165735000Y-123825000D02*
X160020000Y-123825000D01*
X168910000Y-120650000D02*
X165735000Y-123825000D01*
X162139999Y-135469999D02*
X161290000Y-134620000D01*
X162465001Y-135795001D02*
X162139999Y-135469999D01*
X162465001Y-139798999D02*
X162465001Y-135795001D01*
X161226500Y-141037500D02*
X162465001Y-139798999D01*
X161226500Y-145097500D02*
X161226500Y-141037500D01*
X163830000Y-127000000D02*
X163830000Y-134620000D01*
X165005001Y-139798999D02*
X165005001Y-135795001D01*
X163766500Y-141037500D02*
X165005001Y-139798999D01*
X164679999Y-135469999D02*
X163830000Y-134620000D01*
X165005001Y-135795001D02*
X164679999Y-135469999D01*
X163766500Y-145097500D02*
X163766500Y-141037500D01*
X166370000Y-127000000D02*
X166370000Y-134620000D01*
X167545001Y-135795001D02*
X167219999Y-135469999D01*
X167545001Y-139798999D02*
X167545001Y-135795001D01*
X166306500Y-141037500D02*
X167545001Y-139798999D01*
X167219999Y-135469999D02*
X166370000Y-134620000D01*
X166306500Y-145097500D02*
X166306500Y-141037500D01*
X168910000Y-127000000D02*
X168910000Y-134620000D01*
X169759999Y-135469999D02*
X168910000Y-134620000D01*
X170085001Y-135795001D02*
X169759999Y-135469999D01*
X170085001Y-139798999D02*
X170085001Y-135795001D01*
X168846500Y-141037500D02*
X170085001Y-139798999D01*
X168846500Y-145097500D02*
X168846500Y-141037500D01*
X171450000Y-127000000D02*
X171450000Y-134620000D01*
X172299999Y-135469999D02*
X171450000Y-134620000D01*
X172625001Y-135795001D02*
X172299999Y-135469999D01*
X172625001Y-139798999D02*
X172625001Y-135795001D01*
X171386500Y-141037500D02*
X172625001Y-139798999D01*
X171386500Y-145097500D02*
X171386500Y-141037500D01*
X194310000Y-128016000D02*
X194310000Y-128778000D01*
X193294000Y-129032000D02*
X184404000Y-129032000D01*
X184404000Y-129032000D02*
X184150000Y-129286000D01*
X184150000Y-134620000D02*
X184150000Y-129286000D01*
X194310000Y-128016000D02*
X194310000Y-127000000D01*
X194056000Y-129032000D02*
X193294000Y-129032000D01*
X194310000Y-128778000D02*
X194056000Y-129032000D01*
X184999999Y-135469999D02*
X184150000Y-134620000D01*
X185325001Y-135795001D02*
X184999999Y-135469999D01*
X185325001Y-139798999D02*
X185325001Y-135795001D01*
X184086500Y-141037500D02*
X185325001Y-139798999D01*
X184086500Y-145097500D02*
X184086500Y-141037500D01*
X196342000Y-129540000D02*
X196596000Y-129540000D01*
X196342000Y-129540000D02*
X186944000Y-129540000D01*
X186944000Y-129540000D02*
X186690000Y-129794000D01*
X186690000Y-134620000D02*
X186690000Y-129794000D01*
X196850000Y-129032000D02*
X196850000Y-127000000D01*
X196850000Y-129286000D02*
X196850000Y-129032000D01*
X196596000Y-129540000D02*
X196850000Y-129286000D01*
X187865001Y-135795001D02*
X187539999Y-135469999D01*
X187865001Y-139798999D02*
X187865001Y-135795001D01*
X187539999Y-135469999D02*
X186690000Y-134620000D01*
X186626500Y-141037500D02*
X187865001Y-139798999D01*
X186626500Y-145097500D02*
X186626500Y-141037500D01*
X189230000Y-134620000D02*
X189230000Y-130244002D01*
X199390000Y-129794000D02*
X199390000Y-127000000D01*
X199136000Y-130048000D02*
X199390000Y-129794000D01*
X189426002Y-130048000D02*
X199136000Y-130048000D01*
X189230000Y-130244002D02*
X189426002Y-130048000D01*
X190405001Y-135795001D02*
X190079999Y-135469999D01*
X190405001Y-139798999D02*
X190405001Y-135795001D01*
X189166500Y-141037500D02*
X190405001Y-139798999D01*
X190079999Y-135469999D02*
X189230000Y-134620000D01*
X189166500Y-145097500D02*
X189166500Y-141037500D01*
X191770000Y-134620000D02*
X191770000Y-130752002D01*
X201930000Y-130302000D02*
X201930000Y-127000000D01*
X201676000Y-130556000D02*
X201930000Y-130302000D01*
X191966002Y-130556000D02*
X201676000Y-130556000D01*
X191770000Y-130752002D02*
X191966002Y-130556000D01*
X192619999Y-135469999D02*
X191770000Y-134620000D01*
X192945001Y-135795001D02*
X192619999Y-135469999D01*
X192945001Y-139798999D02*
X192945001Y-135795001D01*
X191706500Y-141037500D02*
X192945001Y-139798999D01*
X191706500Y-145097500D02*
X191706500Y-141037500D01*
X194310000Y-134620000D02*
X194310000Y-131260002D01*
X204470000Y-130810000D02*
X204470000Y-127000000D01*
X204216000Y-131064000D02*
X204470000Y-130810000D01*
X194506002Y-131064000D02*
X204216000Y-131064000D01*
X194310000Y-131260002D02*
X194506002Y-131064000D01*
X195485001Y-135795001D02*
X195159999Y-135469999D01*
X195485001Y-139798999D02*
X195485001Y-135795001D01*
X194246500Y-141037500D02*
X195485001Y-139798999D01*
X195159999Y-135469999D02*
X194310000Y-134620000D01*
X194246500Y-145097500D02*
X194246500Y-141037500D01*
X196850000Y-134620000D02*
X196850000Y-131768002D01*
X207010000Y-131318000D02*
X207010000Y-127000000D01*
X206756000Y-131572000D02*
X207010000Y-131318000D01*
X197046002Y-131572000D02*
X206756000Y-131572000D01*
X196850000Y-131768002D02*
X197046002Y-131572000D01*
X197699999Y-135469999D02*
X196850000Y-134620000D01*
X198025001Y-135795001D02*
X197699999Y-135469999D01*
X198025001Y-139798999D02*
X198025001Y-135795001D01*
X196786500Y-141037500D02*
X198025001Y-139798999D01*
X196786500Y-145097500D02*
X196786500Y-141037500D01*
X199390000Y-134620000D02*
X199390000Y-132276002D01*
X209550000Y-131826000D02*
X209550000Y-127000000D01*
X209296000Y-132080000D02*
X209550000Y-131826000D01*
X199586002Y-132080000D02*
X209296000Y-132080000D01*
X199390000Y-132276002D02*
X199586002Y-132080000D01*
X200565001Y-135795001D02*
X200239999Y-135469999D01*
X199326500Y-141037500D02*
X200565001Y-139798999D01*
X200239999Y-135469999D02*
X199390000Y-134620000D01*
X200565001Y-139798999D02*
X200565001Y-135795001D01*
X199326500Y-145097500D02*
X199326500Y-141037500D01*
X201930000Y-134620000D02*
X201930000Y-132784002D01*
X212090000Y-132334000D02*
X212090000Y-127000000D01*
X211836000Y-132588000D02*
X212090000Y-132334000D01*
X202126002Y-132588000D02*
X211836000Y-132588000D01*
X201930000Y-132784002D02*
X202126002Y-132588000D01*
X201866500Y-141037500D02*
X203105001Y-139798999D01*
X202779999Y-135469999D02*
X201930000Y-134620000D01*
X203105001Y-135795001D02*
X202779999Y-135469999D01*
X203105001Y-139798999D02*
X203105001Y-135795001D01*
X201866500Y-145097500D02*
X201866500Y-141037500D01*
X199453500Y-98806000D02*
X199453500Y-91186000D01*
X199453500Y-91186000D02*
X199453500Y-90868500D01*
X199453500Y-90868500D02*
X199453500Y-90614500D01*
X199453500Y-90614500D02*
X199199500Y-90360500D01*
X179705000Y-77978000D02*
X179705000Y-76771500D01*
X178435000Y-75438000D02*
X178435000Y-72644000D01*
X178435000Y-72644000D02*
X177165000Y-71374000D01*
X179705000Y-76708000D02*
X178435000Y-75438000D01*
X179705000Y-76771500D02*
X179705000Y-76708000D01*
X179705000Y-77978000D02*
X179705000Y-81089500D01*
X200215500Y-82994500D02*
X200215500Y-97726500D01*
X200215500Y-97726500D02*
X200469500Y-97980500D01*
X187325000Y-100838000D02*
X187325000Y-100203000D01*
X184785000Y-96774000D02*
X186055000Y-98044000D01*
X186055000Y-112077500D02*
X186499500Y-112522000D01*
X186499500Y-112522000D02*
X186499500Y-112522000D01*
X186118500Y-100838000D02*
X186055000Y-100901500D01*
X187325000Y-100838000D02*
X186118500Y-100838000D01*
X186055000Y-98044000D02*
X186055000Y-100901500D01*
X186055000Y-100901500D02*
X186055000Y-112077500D01*
X193040000Y-115091500D02*
X194310000Y-113821500D01*
X193040000Y-116141500D02*
X193040000Y-115091500D01*
X194310000Y-113821500D02*
X194310000Y-106362500D01*
X193802000Y-105854500D02*
X193548000Y-105600500D01*
X193548000Y-105600500D02*
X193548000Y-98806000D01*
X208216500Y-105410000D02*
X208216500Y-105537000D01*
X208216500Y-105537000D02*
X207899000Y-105854500D01*
X194310000Y-106362500D02*
X194310000Y-105854500D01*
X207899000Y-105854500D02*
X194310000Y-105854500D01*
X194310000Y-105854500D02*
X193802000Y-105854500D01*
X179705000Y-97905370D02*
X179705000Y-100838000D01*
X179705000Y-96774000D02*
X179705000Y-97905370D01*
X183515000Y-98044000D02*
X182245000Y-96774000D01*
X183515000Y-117411500D02*
X183515000Y-100838000D01*
X182245000Y-100838000D02*
X183515000Y-100838000D01*
X183515000Y-100838000D02*
X183515000Y-98044000D01*
X205740000Y-116141500D02*
X205740000Y-111061500D01*
X205740000Y-111061500D02*
X205486000Y-110807500D01*
X182181500Y-109283500D02*
X182181500Y-104965500D01*
X184912000Y-71501000D02*
X184785000Y-71374000D01*
X185584999Y-72173999D02*
X185584999Y-74205999D01*
X184785000Y-71374000D02*
X185584999Y-72173999D01*
X185584999Y-74205999D02*
X186245500Y-74866500D01*
X186245500Y-74866500D02*
X189293500Y-74866500D01*
X189865000Y-75438000D02*
X189865000Y-77978000D01*
X189293500Y-74866500D02*
X189865000Y-75438000D01*
X194945000Y-79883000D02*
X194945000Y-88646000D01*
X194945000Y-88646000D02*
X194945000Y-92075000D01*
X194945000Y-93206370D02*
X196278500Y-94539870D01*
X194945000Y-92075000D02*
X194945000Y-93206370D01*
X196278500Y-94539870D02*
X196278500Y-102044500D01*
X196278500Y-102044500D02*
X196278500Y-104902000D01*
X206184500Y-106680000D02*
X210248500Y-106680000D01*
X214630000Y-109791500D02*
X213360000Y-108521500D01*
X214630000Y-119380000D02*
X214630000Y-109791500D01*
X212090000Y-109791500D02*
X210820000Y-108521500D01*
X212090000Y-119380000D02*
X212090000Y-109791500D01*
X209550000Y-109791500D02*
X208280000Y-108521500D01*
X209550000Y-119380000D02*
X209550000Y-109791500D01*
X207010000Y-109791500D02*
X205740000Y-108521500D01*
X207010000Y-119380000D02*
X207010000Y-109791500D01*
X204470000Y-109791500D02*
X203200000Y-108521500D01*
X204470000Y-119380000D02*
X204470000Y-109791500D01*
X201930000Y-109791500D02*
X200660000Y-108521500D01*
X201930000Y-119380000D02*
X201930000Y-109791500D01*
X199390000Y-109791500D02*
X199390000Y-119380000D01*
X198120000Y-108521500D02*
X199390000Y-109791500D01*
X196850000Y-119380000D02*
X196850000Y-119126000D01*
X196850000Y-109791500D02*
X196850000Y-119380000D01*
X195580000Y-108521500D02*
X196850000Y-109791500D01*
M02*
