%TF.GenerationSoftware,KiCad,Pcbnew,(6.0.5)*%
%TF.CreationDate,2022-06-13T21:28:53-07:00*%
%TF.ProjectId,TRS-IO-M1,5452532d-494f-42d4-9d31-2e6b69636164,rev?*%
%TF.SameCoordinates,Original*%
%TF.FileFunction,Copper,L1,Top*%
%TF.FilePolarity,Positive*%
%FSLAX46Y46*%
G04 Gerber Fmt 4.6, Leading zero omitted, Abs format (unit mm)*
G04 Created by KiCad (PCBNEW (6.0.5)) date 2022-06-13 21:28:53*
%MOMM*%
%LPD*%
G01*
G04 APERTURE LIST*
G04 Aperture macros list*
%AMRoundRect*
0 Rectangle with rounded corners*
0 $1 Rounding radius*
0 $2 $3 $4 $5 $6 $7 $8 $9 X,Y pos of 4 corners*
0 Add a 4 corners polygon primitive as box body*
4,1,4,$2,$3,$4,$5,$6,$7,$8,$9,$2,$3,0*
0 Add four circle primitives for the rounded corners*
1,1,$1+$1,$2,$3*
1,1,$1+$1,$4,$5*
1,1,$1+$1,$6,$7*
1,1,$1+$1,$8,$9*
0 Add four rect primitives between the rounded corners*
20,1,$1+$1,$2,$3,$4,$5,0*
20,1,$1+$1,$4,$5,$6,$7,0*
20,1,$1+$1,$6,$7,$8,$9,0*
20,1,$1+$1,$8,$9,$2,$3,0*%
G04 Aperture macros list end*
%TA.AperFunction,ComponentPad*%
%ADD10R,1.700000X1.700000*%
%TD*%
%TA.AperFunction,ComponentPad*%
%ADD11O,1.700000X1.700000*%
%TD*%
%TA.AperFunction,ConnectorPad*%
%ADD12R,7.620000X1.778000*%
%TD*%
%TA.AperFunction,ComponentPad*%
%ADD13C,6.000000*%
%TD*%
%TA.AperFunction,ComponentPad*%
%ADD14C,0.800000*%
%TD*%
%TA.AperFunction,ComponentPad*%
%ADD15C,1.600000*%
%TD*%
%TA.AperFunction,ComponentPad*%
%ADD16O,1.600000X1.600000*%
%TD*%
%TA.AperFunction,SMDPad,CuDef*%
%ADD17RoundRect,0.250000X-0.337500X-0.475000X0.337500X-0.475000X0.337500X0.475000X-0.337500X0.475000X0*%
%TD*%
%TA.AperFunction,ComponentPad*%
%ADD18O,2.000000X1.200000*%
%TD*%
%TA.AperFunction,SMDPad,CuDef*%
%ADD19RoundRect,0.100000X-0.637500X-0.100000X0.637500X-0.100000X0.637500X0.100000X-0.637500X0.100000X0*%
%TD*%
%TA.AperFunction,ComponentPad*%
%ADD20R,1.050000X1.500000*%
%TD*%
%TA.AperFunction,ComponentPad*%
%ADD21O,1.050000X1.500000*%
%TD*%
%TA.AperFunction,SMDPad,CuDef*%
%ADD22R,2.200000X1.200000*%
%TD*%
%TA.AperFunction,SMDPad,CuDef*%
%ADD23R,6.400000X5.800000*%
%TD*%
%TA.AperFunction,ComponentPad*%
%ADD24R,1.600000X1.600000*%
%TD*%
%TA.AperFunction,SMDPad,CuDef*%
%ADD25RoundRect,0.250000X0.412500X0.650000X-0.412500X0.650000X-0.412500X-0.650000X0.412500X-0.650000X0*%
%TD*%
%TA.AperFunction,SMDPad,CuDef*%
%ADD26RoundRect,0.125000X-0.825000X-0.125000X0.825000X-0.125000X0.825000X0.125000X-0.825000X0.125000X0*%
%TD*%
%TA.AperFunction,ComponentPad*%
%ADD27R,1.070000X1.800000*%
%TD*%
%TA.AperFunction,ComponentPad*%
%ADD28O,1.070000X1.800000*%
%TD*%
%TA.AperFunction,ComponentPad*%
%ADD29C,2.000000*%
%TD*%
%TA.AperFunction,ViaPad*%
%ADD30C,0.800000*%
%TD*%
%TA.AperFunction,Conductor*%
%ADD31C,0.500380*%
%TD*%
%TA.AperFunction,Conductor*%
%ADD32C,0.200000*%
%TD*%
%TA.AperFunction,Conductor*%
%ADD33C,0.250000*%
%TD*%
G04 APERTURE END LIST*
D10*
%TO.P,J1,1,Pin_1*%
%TO.N,SYSRES_N*%
X118839000Y-68759200D03*
D11*
%TO.P,J1,2,Pin_2*%
%TO.N,RAS_N*%
X121379000Y-68759200D03*
%TO.P,J1,3,Pin_3*%
%TO.N,A10*%
X118839000Y-71299200D03*
%TO.P,J1,4,Pin_4*%
%TO.N,CAS_N*%
X121379000Y-71299200D03*
%TO.P,J1,5,Pin_5*%
%TO.N,A13*%
X118839000Y-73839200D03*
%TO.P,J1,6,Pin_6*%
%TO.N,A12*%
X121379000Y-73839200D03*
%TO.P,J1,7,Pin_7*%
%TO.N,GND*%
X118839000Y-76379200D03*
%TO.P,J1,8,Pin_8*%
%TO.N,A15*%
X121379000Y-76379200D03*
%TO.P,J1,9,Pin_9*%
%TO.N,A14*%
X118839000Y-78919200D03*
%TO.P,J1,10,Pin_10*%
%TO.N,A11*%
X121379000Y-78919200D03*
%TO.P,J1,11,Pin_11*%
%TO.N,OUT_N*%
X118839000Y-81459200D03*
%TO.P,J1,12,Pin_12*%
%TO.N,A8*%
X121379000Y-81459200D03*
%TO.P,J1,13,Pin_13*%
%TO.N,INTACK_N*%
X118839000Y-83999200D03*
%TO.P,J1,14,Pin_14*%
%TO.N,WR_N*%
X121379000Y-83999200D03*
%TO.P,J1,15,Pin_15*%
%TO.N,MUX*%
X118839000Y-86539200D03*
%TO.P,J1,16,Pin_16*%
%TO.N,RD_N*%
X121379000Y-86539200D03*
%TO.P,J1,17,Pin_17*%
%TO.N,D4*%
X118839000Y-89079200D03*
%TO.P,J1,18,Pin_18*%
%TO.N,A9*%
X121379000Y-89079200D03*
%TO.P,J1,19,Pin_19*%
%TO.N,D7*%
X118839000Y-91619200D03*
%TO.P,J1,20,Pin_20*%
%TO.N,IN_N*%
X121379000Y-91619200D03*
%TO.P,J1,21,Pin_21*%
%TO.N,D1*%
X118839000Y-94159200D03*
%TO.P,J1,22,Pin_22*%
%TO.N,INT_N*%
X121379000Y-94159200D03*
%TO.P,J1,23,Pin_23*%
%TO.N,D6*%
X118839000Y-96699200D03*
%TO.P,J1,24,Pin_24*%
%TO.N,TEST_N*%
X121379000Y-96699200D03*
%TO.P,J1,25,Pin_25*%
%TO.N,D3*%
X118839000Y-99239200D03*
%TO.P,J1,26,Pin_26*%
%TO.N,A0*%
X121379000Y-99239200D03*
%TO.P,J1,27,Pin_27*%
%TO.N,D5*%
X118839000Y-101779200D03*
%TO.P,J1,28,Pin_28*%
%TO.N,A1*%
X121379000Y-101779200D03*
%TO.P,J1,29,Pin_29*%
%TO.N,D0*%
X118839000Y-104319200D03*
%TO.P,J1,30,Pin_30*%
%TO.N,GND*%
X121379000Y-104319200D03*
%TO.P,J1,31,Pin_31*%
%TO.N,D2*%
X118839000Y-106859200D03*
%TO.P,J1,32,Pin_32*%
%TO.N,A4*%
X121379000Y-106859200D03*
%TO.P,J1,33,Pin_33*%
%TO.N,A3*%
X118839000Y-109399200D03*
%TO.P,J1,34,Pin_34*%
%TO.N,WAIT_N*%
X121379000Y-109399200D03*
%TO.P,J1,35,Pin_35*%
%TO.N,A7*%
X118839000Y-111939200D03*
%TO.P,J1,36,Pin_36*%
%TO.N,A5*%
X121379000Y-111939200D03*
%TO.P,J1,37,Pin_37*%
%TO.N,A6*%
X118839000Y-114479200D03*
%TO.P,J1,38,Pin_38*%
%TO.N,GND*%
X121379000Y-114479200D03*
%TO.P,J1,39,Pin_39*%
%TO.N,A2*%
X118839000Y-117019200D03*
%TO.P,J1,40,Pin_40*%
%TO.N,5V*%
X121379000Y-117019200D03*
%TD*%
D12*
%TO.P,J2,2,Pin_2*%
%TO.N,RAS_N*%
X107061000Y-68783200D03*
%TO.P,J2,4,Pin_4*%
%TO.N,CAS_N*%
X107061000Y-71323200D03*
%TO.P,J2,6,Pin_6*%
%TO.N,A12*%
X107061000Y-73863200D03*
%TO.P,J2,8,Pin_8*%
%TO.N,A15*%
X107061000Y-76403200D03*
%TO.P,J2,10,Pin_10*%
%TO.N,A11*%
X107061000Y-78943200D03*
%TO.P,J2,12,Pin_12*%
%TO.N,A8*%
X107061000Y-81483200D03*
%TO.P,J2,14,Pin_14*%
%TO.N,WR_N*%
X107061000Y-84023200D03*
%TO.P,J2,16,Pin_16*%
%TO.N,RD_N*%
X107061000Y-86563200D03*
%TO.P,J2,18,Pin_18*%
%TO.N,A9*%
X107061000Y-89103200D03*
%TO.P,J2,20,Pin_20*%
%TO.N,IN_N*%
X107061000Y-91643200D03*
%TO.P,J2,22,Pin_22*%
%TO.N,INT_N*%
X107061000Y-94183200D03*
%TO.P,J2,24,Pin_24*%
%TO.N,TEST_N*%
X107061000Y-96723200D03*
%TO.P,J2,26,Pin_26*%
%TO.N,A0*%
X107061000Y-99263200D03*
%TO.P,J2,28,Pin_28*%
%TO.N,A1*%
X107061000Y-101803200D03*
%TO.P,J2,30,Pin_30*%
%TO.N,GND*%
X107061000Y-104343200D03*
%TO.P,J2,32,Pin_32*%
%TO.N,A4*%
X107061000Y-106883200D03*
%TO.P,J2,34,Pin_34*%
%TO.N,WAIT_N*%
X107061000Y-109423200D03*
%TO.P,J2,36,Pin_36*%
%TO.N,A5*%
X107061000Y-111963200D03*
%TO.P,J2,38,Pin_38*%
%TO.N,GND*%
X107061000Y-114503200D03*
%TO.P,J2,40,Pin_40*%
%TO.N,5V*%
X107061000Y-117043200D03*
%TD*%
D13*
%TO.P,H1,1*%
%TO.N,N/C*%
X118364000Y-60960000D03*
D14*
X119954990Y-62550990D03*
X116773010Y-59369010D03*
X120614000Y-60960000D03*
X118364000Y-58710000D03*
X116114000Y-60960000D03*
X118364000Y-63210000D03*
X119954990Y-59369010D03*
X116773010Y-62550990D03*
%TD*%
%TO.P,H2,1*%
%TO.N,N/C*%
X220284990Y-62550990D03*
X220944000Y-60960000D03*
D13*
X218694000Y-60960000D03*
D14*
X216444000Y-60960000D03*
X217103010Y-62550990D03*
X217103010Y-59369010D03*
X220284990Y-59369010D03*
X218694000Y-63210000D03*
X218694000Y-58710000D03*
%TD*%
%TO.P,H3,1*%
%TO.N,N/C*%
X120614000Y-125476000D03*
X118364000Y-127726000D03*
X119954990Y-123885010D03*
X116773010Y-127066990D03*
D13*
X118364000Y-125476000D03*
D14*
X116114000Y-125476000D03*
X118364000Y-123226000D03*
X119954990Y-127066990D03*
X116773010Y-123885010D03*
%TD*%
%TO.P,H4,1*%
%TO.N,N/C*%
X220284990Y-123885010D03*
X216444000Y-125476000D03*
X220284990Y-127066990D03*
X218694000Y-127726000D03*
X217103010Y-123885010D03*
X220944000Y-125476000D03*
X218694000Y-123226000D03*
X217103010Y-127066990D03*
D13*
X218694000Y-125476000D03*
%TD*%
D15*
%TO.P,R1,1*%
%TO.N,LED_RED*%
X186182000Y-99568000D03*
D16*
%TO.P,R1,2*%
%TO.N,Net-(D1-Pad1)*%
X186182000Y-107188000D03*
%TD*%
D15*
%TO.P,R2,1*%
%TO.N,LED_GREEN*%
X192786000Y-99568000D03*
D16*
%TO.P,R2,2*%
%TO.N,Net-(D1-Pad4)*%
X192786000Y-107188000D03*
%TD*%
D17*
%TO.P,C2,1*%
%TO.N,+3V3*%
X143234500Y-75692000D03*
%TO.P,C2,2*%
%TO.N,GND*%
X145309500Y-75692000D03*
%TD*%
D18*
%TO.P,U5,1,Pad_38*%
%TO.N,CS_SD_CARD*%
X153650000Y-62230000D03*
%TO.P,U5,2,Pad_37*%
%TO.N,MOSI*%
X153650000Y-64770000D03*
%TO.P,U5,3,Pad_36*%
%TO.N,SCK*%
X153650000Y-67310000D03*
%TO.P,U5,4,Pad_39*%
%TO.N,MISO*%
X153650000Y-69850000D03*
%TO.P,U5,5,Pad_25*%
%TO.N,AA2_10*%
X153650000Y-72390000D03*
%TO.P,U5,6,Pad_26*%
%TO.N,AA6_12*%
X153650000Y-74930000D03*
%TO.P,U5,7,Pad_27*%
%TO.N,AA7_13*%
X153650000Y-77470000D03*
%TO.P,U5,8,Pad_28*%
%TO.N,AA5_15*%
X153650000Y-80010000D03*
%TO.P,U5,9,Pad_29*%
%TO.N,AA3_11*%
X153650000Y-82550000D03*
%TO.P,U5,10,Pad_30*%
%TO.N,AA4_14*%
X153650000Y-85090000D03*
%TO.P,U5,11,Pad_33*%
%TO.N,AA1_8*%
X153650000Y-87630000D03*
%TO.P,U5,12,Pad_34*%
%TO.N,AA0_9*%
X153650000Y-90170000D03*
%TO.P,U5,13,Pad_40*%
%TO.N,Z80_RAS_N*%
X153650000Y-92710000D03*
%TO.P,U5,14,Pad_35*%
%TO.N,Z80_OUT_N*%
X153650000Y-95250000D03*
%TO.P,U5,15,Pad_41*%
%TO.N,Z80_WR_N*%
X153650000Y-97790000D03*
%TO.P,U5,16,Pad_42*%
%TO.N,Z80_RD_N*%
X153650000Y-100330000D03*
%TO.P,U5,17,Pad_51*%
%TO.N,Z80_IN_N*%
X153650000Y-102870000D03*
%TO.P,U5,18,Pad_53*%
%TO.N,READ_N*%
X153650000Y-105410000D03*
%TO.P,U5,19,Pad_54*%
%TO.N,DBUS_SEL_N*%
X153650000Y-107950000D03*
%TO.P,U5,20,Pad_55*%
%TO.N,A0_MUX*%
X153650000Y-110490000D03*
%TO.P,U5,21,Pad_56*%
%TO.N,INT*%
X153650000Y-113030000D03*
%TO.P,U5,22,Pad_57*%
%TO.N,WAIT*%
X153650000Y-115570000D03*
%TO.P,U5,23,Pad_68*%
%TO.N,unconnected-(U5-Pad23)*%
X153650000Y-118110000D03*
%TO.P,U5,24,Pad_69*%
%TO.N,unconnected-(U5-Pad24)*%
X153650000Y-120650000D03*
%TO.P,U5,25,3V3*%
%TO.N,+3V3*%
X176550000Y-120650000D03*
%TO.P,U5,26,GND*%
%TO.N,GND*%
X176550000Y-118110000D03*
%TO.P,U5,27,Pad_32*%
%TO.N,CS_FPGA*%
X176550000Y-115570000D03*
%TO.P,U5,28,Pad_31*%
%TO.N,ESP_S2*%
X176550000Y-113030000D03*
%TO.P,U5,29,Pad_49*%
%TO.N,ESP_S1*%
X176550000Y-110490000D03*
%TO.P,U5,30,Pad_48*%
%TO.N,ESP_S0*%
X176550000Y-107950000D03*
%TO.P,U5,31,5V*%
%TO.N,VU*%
X176550000Y-105410000D03*
%TO.P,U5,32,Pad_70*%
%TO.N,unconnected-(U5-Pad32)*%
X176550000Y-102870000D03*
%TO.P,U5,33,Pad_71*%
%TO.N,unconnected-(U5-Pad33)*%
X176550000Y-100330000D03*
%TO.P,U5,34,Pad_72*%
%TO.N,unconnected-(U5-Pad34)*%
X176550000Y-97790000D03*
%TO.P,U5,35,Pad_73*%
%TO.N,unconnected-(U5-Pad35)*%
X176550000Y-95250000D03*
%TO.P,U5,36,Pad_74*%
%TO.N,unconnected-(U5-Pad36)*%
X176550000Y-92710000D03*
%TO.P,U5,37,Pad_75*%
%TO.N,unconnected-(U5-Pad37)*%
X176550000Y-90170000D03*
%TO.P,U5,38,Pad_76*%
%TO.N,REQ*%
X176550000Y-87630000D03*
%TO.P,U5,39,Pad_77*%
%TO.N,DONE*%
X176550000Y-85090000D03*
%TO.P,U5,40,Pad_79*%
%TO.N,DD2*%
X176550000Y-82550000D03*
%TO.P,U5,41,Pad_80*%
%TO.N,DD0*%
X176550000Y-80010000D03*
%TO.P,U5,42,Pad_81*%
%TO.N,DD5*%
X176550000Y-77470000D03*
%TO.P,U5,43,Pad_82*%
%TO.N,DD3*%
X176550000Y-74930000D03*
%TO.P,U5,44,Pad_83*%
%TO.N,DD6*%
X176550000Y-72390000D03*
%TO.P,U5,45,Pad_84*%
%TO.N,DD1*%
X176550000Y-69850000D03*
%TO.P,U5,46,Pad_85*%
%TO.N,DD7*%
X176550000Y-67310000D03*
%TO.P,U5,47,Pad_86*%
%TO.N,DD4*%
X176550000Y-64770000D03*
%TO.P,U5,48,Pad_63*%
%TO.N,A1_MUX*%
X176550000Y-62230000D03*
%TD*%
D19*
%TO.P,U1,1,VCCA*%
%TO.N,+3V3*%
X136837500Y-87865000D03*
%TO.P,U1,2,DIR*%
%TO.N,READ_N*%
X136837500Y-88515000D03*
%TO.P,U1,3,A1*%
%TO.N,D4*%
X136837500Y-89165000D03*
%TO.P,U1,4,A2*%
%TO.N,D7*%
X136837500Y-89815000D03*
%TO.P,U1,5,A3*%
%TO.N,D1*%
X136837500Y-90465000D03*
%TO.P,U1,6,A4*%
%TO.N,D6*%
X136837500Y-91115000D03*
%TO.P,U1,7,A5*%
%TO.N,D3*%
X136837500Y-91765000D03*
%TO.P,U1,8,A6*%
%TO.N,D5*%
X136837500Y-92415000D03*
%TO.P,U1,9,A7*%
%TO.N,D0*%
X136837500Y-93065000D03*
%TO.P,U1,10,A8*%
%TO.N,D2*%
X136837500Y-93715000D03*
%TO.P,U1,11,GND*%
%TO.N,GND*%
X136837500Y-94365000D03*
%TO.P,U1,12,GND*%
X136837500Y-95015000D03*
%TO.P,U1,13,GND*%
X142562500Y-95015000D03*
%TO.P,U1,14,B8*%
%TO.N,DD2*%
X142562500Y-94365000D03*
%TO.P,U1,15,B7*%
%TO.N,DD0*%
X142562500Y-93715000D03*
%TO.P,U1,16,B6*%
%TO.N,DD5*%
X142562500Y-93065000D03*
%TO.P,U1,17,B5*%
%TO.N,DD3*%
X142562500Y-92415000D03*
%TO.P,U1,18,B4*%
%TO.N,DD6*%
X142562500Y-91765000D03*
%TO.P,U1,19,B3*%
%TO.N,DD1*%
X142562500Y-91115000D03*
%TO.P,U1,20,B2*%
%TO.N,DD7*%
X142562500Y-90465000D03*
%TO.P,U1,21,B1*%
%TO.N,DD4*%
X142562500Y-89815000D03*
%TO.P,U1,22,OEn*%
%TO.N,DBUS_SEL_N*%
X142562500Y-89165000D03*
%TO.P,U1,23,VCCB*%
%TO.N,+1V8*%
X142562500Y-88515000D03*
%TO.P,U1,24,VCCB*%
X142562500Y-87865000D03*
%TD*%
D17*
%TO.P,C1,1*%
%TO.N,+3V3*%
X143234500Y-64770000D03*
%TO.P,C1,2*%
%TO.N,GND*%
X145309500Y-64770000D03*
%TD*%
D20*
%TO.P,Q2,1,S*%
%TO.N,GND*%
X143764000Y-119380000D03*
D21*
%TO.P,Q2,2,G*%
%TO.N,INT*%
X142494000Y-119380000D03*
%TO.P,Q2,3,D*%
%TO.N,INT_N*%
X141224000Y-119380000D03*
%TD*%
D10*
%TO.P,J4,1,Pin_1*%
%TO.N,+5V*%
X214371000Y-71120000D03*
D11*
%TO.P,J4,2,Pin_2*%
%TO.N,VU*%
X216911000Y-71120000D03*
%TD*%
D22*
%TO.P,U8,1,GND*%
%TO.N,GND*%
X139310000Y-110115000D03*
D23*
%TO.P,U8,2,VO*%
%TO.N,+1V8*%
X145610000Y-112395000D03*
D22*
X139310000Y-112395000D03*
%TO.P,U8,3,VI*%
%TO.N,+3V3*%
X139310000Y-114675000D03*
%TD*%
D24*
%TO.P,U6,1,GPIO6*%
%TO.N,unconnected-(U6-Pad1)*%
X182880000Y-62645000D03*
D16*
%TO.P,U6,2,GPIO7*%
%TO.N,unconnected-(U6-Pad2)*%
X182880000Y-65185000D03*
%TO.P,U6,3,GPIO8*%
%TO.N,unconnected-(U6-Pad3)*%
X182880000Y-67725000D03*
%TO.P,U6,4,GPIO15*%
%TO.N,AA3_11*%
X182880000Y-70265000D03*
%TO.P,U6,5,GPIO2*%
%TO.N,unconnected-(U6-Pad5)*%
X182880000Y-72805000D03*
%TO.P,U6,6,GPIO0*%
%TO.N,unconnected-(U6-Pad6)*%
X182880000Y-75345000D03*
%TO.P,U6,7,GPIO4*%
%TO.N,LED_GREEN*%
X182880000Y-77885000D03*
%TO.P,U6,8,GPIO16*%
%TO.N,ESP_S0*%
X182880000Y-80425000D03*
%TO.P,U6,9,GPIO17*%
%TO.N,ESP_S1*%
X182880000Y-82965000D03*
%TO.P,U6,10,GPIO5*%
%TO.N,LED_RED*%
X182880000Y-85505000D03*
%TO.P,U6,11,GPIO18*%
%TO.N,ESP_S2*%
X182880000Y-88045000D03*
%TO.P,U6,12,GPIO19*%
%TO.N,EI*%
X182880000Y-90585000D03*
%TO.P,U6,13,GND*%
%TO.N,GND*%
X182880000Y-93125000D03*
%TO.P,U6,14,GPIO21*%
%TO.N,MOSI*%
X182880000Y-95665000D03*
%TO.P,U6,15,GPIO3*%
%TO.N,unconnected-(U6-Pad15)*%
X182880000Y-98205000D03*
%TO.P,U6,16,GPIO1*%
%TO.N,unconnected-(U6-Pad16)*%
X182880000Y-100745000D03*
%TO.P,U6,17,GPIO22*%
%TO.N,MISO*%
X182880000Y-103285000D03*
%TO.P,U6,18,GPIO23*%
%TO.N,CS_SD_CARD*%
X182880000Y-105825000D03*
%TO.P,U6,19,GND*%
%TO.N,GND*%
X182880000Y-108365000D03*
%TO.P,U6,20,3V3*%
%TO.N,unconnected-(U6-Pad20)*%
X205740000Y-108365000D03*
%TO.P,U6,21,RESET*%
%TO.N,unconnected-(U6-Pad21)*%
X205740000Y-105825000D03*
%TO.P,U6,22,GPIO36*%
%TO.N,unconnected-(U6-Pad22)*%
X205740000Y-103285000D03*
%TO.P,U6,23,GPIO39*%
%TO.N,BUTTON*%
X205740000Y-100745000D03*
%TO.P,U6,24,GPIO34*%
%TO.N,REQ*%
X205740000Y-98205000D03*
%TO.P,U6,25,GPIO35*%
%TO.N,unconnected-(U6-Pad25)*%
X205740000Y-95665000D03*
%TO.P,U6,26,GPIO32*%
%TO.N,LED_BLUE*%
X205740000Y-93125000D03*
%TO.P,U6,27,GPIO33*%
%TO.N,FULL_ADDR*%
X205740000Y-90585000D03*
%TO.P,U6,28,GPIO25*%
%TO.N,SCK*%
X205740000Y-88045000D03*
%TO.P,U6,29,GPIO26*%
%TO.N,CS_FPGA*%
X205740000Y-85505000D03*
%TO.P,U6,30,GPIO27*%
%TO.N,DONE*%
X205740000Y-82965000D03*
%TO.P,U6,31,GPIO14*%
%TO.N,AA2_10*%
X205740000Y-80425000D03*
%TO.P,U6,32,GPIO12*%
%TO.N,AA0_9*%
X205740000Y-77885000D03*
%TO.P,U6,33,GND*%
%TO.N,GND*%
X205740000Y-75345000D03*
%TO.P,U6,34,GPIO13*%
%TO.N,AA1_8*%
X205740000Y-72805000D03*
%TO.P,U6,35,GPIO9*%
%TO.N,unconnected-(U6-Pad35)*%
X205740000Y-70265000D03*
%TO.P,U6,36,GPIO10*%
%TO.N,unconnected-(U6-Pad36)*%
X205740000Y-67725000D03*
%TO.P,U6,37,GPIO11*%
%TO.N,unconnected-(U6-Pad37)*%
X205740000Y-65185000D03*
%TO.P,U6,38,5V*%
%TO.N,+5V*%
X205740000Y-62708500D03*
%TD*%
D15*
%TO.P,R4,1*%
%TO.N,+3V3*%
X202184000Y-107188000D03*
D16*
%TO.P,R4,2*%
%TO.N,BUTTON*%
X202184000Y-99568000D03*
%TD*%
D10*
%TO.P,J5,1,Pin_1*%
%TO.N,FULL_ADDR*%
X214376000Y-84074000D03*
D11*
%TO.P,J5,2,Pin_2*%
%TO.N,GND*%
X216916000Y-84074000D03*
%TD*%
D17*
%TO.P,C3,1*%
%TO.N,+3V3*%
X143234500Y-97790000D03*
%TO.P,C3,2*%
%TO.N,GND*%
X145309500Y-97790000D03*
%TD*%
D10*
%TO.P,J3,1,Pin_1*%
%TO.N,EI*%
X214371000Y-77470000D03*
D11*
%TO.P,J3,2,Pin_2*%
%TO.N,GND*%
X216911000Y-77470000D03*
%TD*%
D25*
%TO.P,C4,1*%
%TO.N,+1V8*%
X136436500Y-110998000D03*
%TO.P,C4,2*%
%TO.N,GND*%
X133311500Y-110998000D03*
%TD*%
D15*
%TO.P,R3,1*%
%TO.N,LED_BLUE*%
X189484000Y-99568000D03*
D16*
%TO.P,R3,2*%
%TO.N,Net-(D1-Pad3)*%
X189484000Y-107188000D03*
%TD*%
D26*
%TO.P,U2,1,A->B*%
%TO.N,+3V3*%
X136200000Y-66925000D03*
%TO.P,U2,2,A0*%
%TO.N,A10*%
X136200000Y-67575000D03*
%TO.P,U2,3,A1*%
%TO.N,A12*%
X136200000Y-68225000D03*
%TO.P,U2,4,A2*%
%TO.N,A13*%
X136200000Y-68875000D03*
%TO.P,U2,5,A3*%
%TO.N,A15*%
X136200000Y-69525000D03*
%TO.P,U2,6,A4*%
%TO.N,A11*%
X136200000Y-70175000D03*
%TO.P,U2,7,A5*%
%TO.N,A14*%
X136200000Y-70825000D03*
%TO.P,U2,8,A6*%
%TO.N,A8*%
X136200000Y-71475000D03*
%TO.P,U2,9,A7*%
%TO.N,A9*%
X136200000Y-72125000D03*
%TO.P,U2,10,GND*%
%TO.N,GND*%
X136200000Y-72775000D03*
%TO.P,U2,11,B7*%
%TO.N,AA0_9*%
X143200000Y-72775000D03*
%TO.P,U2,12,B6*%
%TO.N,AA1_8*%
X143200000Y-72125000D03*
%TO.P,U2,13,B5*%
%TO.N,AA4_14*%
X143200000Y-71475000D03*
%TO.P,U2,14,B4*%
%TO.N,AA3_11*%
X143200000Y-70825000D03*
%TO.P,U2,15,B3*%
%TO.N,AA5_15*%
X143200000Y-70175000D03*
%TO.P,U2,16,B2*%
%TO.N,AA7_13*%
X143200000Y-69525000D03*
%TO.P,U2,17,B1*%
%TO.N,AA6_12*%
X143200000Y-68875000D03*
%TO.P,U2,18,B0*%
%TO.N,AA2_10*%
X143200000Y-68225000D03*
%TO.P,U2,19,CE*%
%TO.N,A1_MUX*%
X143200000Y-67575000D03*
%TO.P,U2,20,VCC*%
%TO.N,+3V3*%
X143200000Y-66925000D03*
%TD*%
D10*
%TO.P,J6,1,Pin_1*%
%TO.N,unconnected-(J6-Pad1)*%
X208280000Y-108370000D03*
D11*
%TO.P,J6,2,Pin_2*%
%TO.N,unconnected-(J6-Pad2)*%
X208280000Y-105830000D03*
%TO.P,J6,3,Pin_3*%
%TO.N,unconnected-(J6-Pad3)*%
X208280000Y-103290000D03*
%TO.P,J6,4,Pin_4*%
%TO.N,BUTTON*%
X208280000Y-100750000D03*
%TO.P,J6,5,Pin_5*%
%TO.N,REQ*%
X208280000Y-98210000D03*
%TO.P,J6,6,Pin_6*%
%TO.N,unconnected-(J6-Pad6)*%
X208280000Y-95670000D03*
%TO.P,J6,7,Pin_7*%
%TO.N,LED_BLUE*%
X208280000Y-93130000D03*
%TO.P,J6,8,Pin_8*%
%TO.N,FULL_ADDR*%
X208280000Y-90590000D03*
%TO.P,J6,9,Pin_9*%
%TO.N,SCK*%
X208280000Y-88050000D03*
%TO.P,J6,10,Pin_10*%
%TO.N,CS_FPGA*%
X208280000Y-85510000D03*
%TO.P,J6,11,Pin_11*%
%TO.N,DONE*%
X208280000Y-82970000D03*
%TO.P,J6,12,Pin_12*%
%TO.N,AA2_10*%
X208280000Y-80430000D03*
%TO.P,J6,13,Pin_13*%
%TO.N,AA0_9*%
X208280000Y-77890000D03*
%TO.P,J6,14,Pin_14*%
%TO.N,GND*%
X208280000Y-75350000D03*
%TO.P,J6,15,Pin_15*%
%TO.N,AA1_8*%
X208280000Y-72810000D03*
%TO.P,J6,16,Pin_16*%
%TO.N,unconnected-(J6-Pad16)*%
X208280000Y-70270000D03*
%TO.P,J6,17,Pin_17*%
%TO.N,unconnected-(J6-Pad17)*%
X208280000Y-67730000D03*
%TO.P,J6,18,Pin_18*%
%TO.N,unconnected-(J6-Pad18)*%
X208280000Y-65190000D03*
%TO.P,J6,19,Pin_19*%
%TO.N,+5V*%
X208280000Y-62650000D03*
%TD*%
D27*
%TO.P,D1,1,RA*%
%TO.N,Net-(D1-Pad1)*%
X187452000Y-121920000D03*
D28*
%TO.P,D1,2,K*%
%TO.N,GND*%
X188722000Y-121920000D03*
%TO.P,D1,3,BA*%
%TO.N,Net-(D1-Pad3)*%
X189992000Y-121920000D03*
%TO.P,D1,4,GA*%
%TO.N,Net-(D1-Pad4)*%
X191262000Y-121920000D03*
%TD*%
D26*
%TO.P,U3,1,A->B*%
%TO.N,+3V3*%
X136200000Y-99945000D03*
%TO.P,U3,2,A0*%
%TO.N,A0*%
X136200000Y-100595000D03*
%TO.P,U3,3,A1*%
%TO.N,A1*%
X136200000Y-101245000D03*
%TO.P,U3,4,A2*%
%TO.N,A4*%
X136200000Y-101895000D03*
%TO.P,U3,5,A3*%
%TO.N,A3*%
X136200000Y-102545000D03*
%TO.P,U3,6,A4*%
%TO.N,A5*%
X136200000Y-103195000D03*
%TO.P,U3,7,A5*%
%TO.N,A7*%
X136200000Y-103845000D03*
%TO.P,U3,8,A6*%
%TO.N,A6*%
X136200000Y-104495000D03*
%TO.P,U3,9,A7*%
%TO.N,A2*%
X136200000Y-105145000D03*
%TO.P,U3,10,GND*%
%TO.N,GND*%
X136200000Y-105795000D03*
%TO.P,U3,11,B7*%
%TO.N,AA2_10*%
X143200000Y-105795000D03*
%TO.P,U3,12,B6*%
%TO.N,AA6_12*%
X143200000Y-105145000D03*
%TO.P,U3,13,B5*%
%TO.N,AA7_13*%
X143200000Y-104495000D03*
%TO.P,U3,14,B4*%
%TO.N,AA5_15*%
X143200000Y-103845000D03*
%TO.P,U3,15,B3*%
%TO.N,AA3_11*%
X143200000Y-103195000D03*
%TO.P,U3,16,B2*%
%TO.N,AA4_14*%
X143200000Y-102545000D03*
%TO.P,U3,17,B1*%
%TO.N,AA1_8*%
X143200000Y-101895000D03*
%TO.P,U3,18,B0*%
%TO.N,AA0_9*%
X143200000Y-101245000D03*
%TO.P,U3,19,CE*%
%TO.N,A0_MUX*%
X143200000Y-100595000D03*
%TO.P,U3,20,VCC*%
%TO.N,+3V3*%
X143200000Y-99945000D03*
%TD*%
D20*
%TO.P,Q1,1,S*%
%TO.N,GND*%
X137160000Y-119380000D03*
D21*
%TO.P,Q1,2,G*%
%TO.N,WAIT*%
X135890000Y-119380000D03*
%TO.P,Q1,3,D*%
%TO.N,WAIT_N*%
X134620000Y-119380000D03*
%TD*%
D29*
%TO.P,SW1,1,1*%
%TO.N,GND*%
X206116000Y-124206000D03*
X199616000Y-124206000D03*
%TO.P,SW1,2,2*%
%TO.N,BUTTON*%
X206116000Y-119706000D03*
X199616000Y-119706000D03*
%TD*%
D26*
%TO.P,U4,1,A->B*%
%TO.N,+3V3*%
X136200000Y-77847000D03*
%TO.P,U4,2,A0*%
%TO.N,RAS_N*%
X136200000Y-78497000D03*
%TO.P,U4,3,A1*%
%TO.N,OUT_N*%
X136200000Y-79147000D03*
%TO.P,U4,4,A2*%
%TO.N,WR_N*%
X136200000Y-79797000D03*
%TO.P,U4,5,A3*%
%TO.N,RD_N*%
X136200000Y-80447000D03*
%TO.P,U4,6,A4*%
%TO.N,IN_N*%
X136200000Y-81097000D03*
%TO.P,U4,7,A5*%
%TO.N,unconnected-(U4-Pad7)*%
X136200000Y-81747000D03*
%TO.P,U4,8,A6*%
%TO.N,unconnected-(U4-Pad8)*%
X136200000Y-82397000D03*
%TO.P,U4,9,A7*%
%TO.N,unconnected-(U4-Pad9)*%
X136200000Y-83047000D03*
%TO.P,U4,10,GND*%
%TO.N,GND*%
X136200000Y-83697000D03*
%TO.P,U4,11,B7*%
%TO.N,unconnected-(U4-Pad11)*%
X143200000Y-83697000D03*
%TO.P,U4,12,B6*%
%TO.N,unconnected-(U4-Pad12)*%
X143200000Y-83047000D03*
%TO.P,U4,13,B5*%
%TO.N,unconnected-(U4-Pad13)*%
X143200000Y-82397000D03*
%TO.P,U4,14,B4*%
%TO.N,Z80_IN_N*%
X143200000Y-81747000D03*
%TO.P,U4,15,B3*%
%TO.N,Z80_RD_N*%
X143200000Y-81097000D03*
%TO.P,U4,16,B2*%
%TO.N,Z80_WR_N*%
X143200000Y-80447000D03*
%TO.P,U4,17,B1*%
%TO.N,Z80_OUT_N*%
X143200000Y-79797000D03*
%TO.P,U4,18,B0*%
%TO.N,Z80_RAS_N*%
X143200000Y-79147000D03*
%TO.P,U4,19,CE*%
%TO.N,GND*%
X143200000Y-78497000D03*
%TO.P,U4,20,VCC*%
%TO.N,+3V3*%
X143200000Y-77847000D03*
%TD*%
D25*
%TO.P,C5,1*%
%TO.N,+3V3*%
X136436500Y-114808000D03*
%TO.P,C5,2*%
%TO.N,GND*%
X133311500Y-114808000D03*
%TD*%
D30*
%TO.N,GND*%
X129286000Y-114808000D03*
X135636000Y-98044000D03*
X143764000Y-74168000D03*
X145288000Y-99314000D03*
X132080000Y-94996000D03*
X138029346Y-72898000D03*
X135636000Y-107950000D03*
X132080000Y-98044000D03*
X120142000Y-65532000D03*
X139192000Y-108458000D03*
X145288000Y-62992000D03*
%TO.N,+3V3*%
X143256000Y-96266000D03*
X133858000Y-77724000D03*
X133858000Y-66875500D03*
X135128000Y-87376000D03*
X142240000Y-75692000D03*
X133858000Y-99895500D03*
X182372000Y-112776000D03*
X134874000Y-113030000D03*
%TO.N,RAS_N*%
X133008310Y-78486000D03*
%TO.N,OUT_N*%
X131064000Y-79248000D03*
%TO.N,WR_N*%
X132080000Y-79885011D03*
%TO.N,RD_N*%
X132848836Y-80523679D03*
%TO.N,IN_N*%
X132842000Y-81534000D03*
%TO.N,INT_N*%
X137329846Y-97282000D03*
X128016000Y-97282000D03*
%TO.N,A0*%
X128016000Y-100584000D03*
%TO.N,A1*%
X128778000Y-101346000D03*
%TO.N,A4*%
X127762000Y-102616000D03*
%TO.N,A3*%
X129090826Y-103241652D03*
%TO.N,A5*%
X130048000Y-103632000D03*
%TO.N,A7*%
X131064000Y-104140000D03*
%TO.N,A6*%
X132334000Y-104648000D03*
%TO.N,A2*%
X133096000Y-105410000D03*
%TO.N,+1V8*%
X138029346Y-86614000D03*
X142494000Y-86614000D03*
%TO.N,AA0_9*%
X198374000Y-89154000D03*
%TO.N,AA1_8*%
X197612000Y-86614000D03*
%TO.N,SCK*%
X195580000Y-66294000D03*
X195580000Y-90424000D03*
%TO.N,MOSI*%
X161098500Y-96266000D03*
%TO.N,READ_N*%
X135128000Y-88392000D03*
%TO.N,MISO*%
X160528000Y-103632000D03*
%TO.N,DD3*%
X145530420Y-92672479D03*
%TO.N,DD4*%
X143772003Y-89864500D03*
%TO.N,DD5*%
X144412084Y-93397000D03*
%TO.N,DD6*%
X144526000Y-91948000D03*
%TO.N,DD7*%
X144574660Y-90460108D03*
%TO.N,DD2*%
X144354955Y-94846000D03*
%TO.N,DD0*%
X145285880Y-94121500D03*
%TO.N,DD1*%
X145272704Y-91175468D03*
%TO.N,A1_MUX*%
X147574000Y-63754000D03*
%TO.N,CS_SD_CARD*%
X161798000Y-106426000D03*
%TO.N,CS_FPGA*%
X211519500Y-115570000D03*
%TO.N,REQ*%
X174244000Y-96965500D03*
%TD*%
D31*
%TO.N,+5V*%
X208280000Y-62650000D02*
X213272000Y-62650000D01*
X213272000Y-62650000D02*
X214376000Y-63754000D01*
X214376000Y-63754000D02*
X214371000Y-63759000D01*
X214371000Y-63759000D02*
X214371000Y-71120000D01*
D32*
%TO.N,GND*%
X107061000Y-104343200D02*
X116636800Y-104343200D01*
X133311500Y-110274500D02*
X133311500Y-110998000D01*
X135636000Y-107950000D02*
X133311500Y-110274500D01*
X117810311Y-113329689D02*
X120229489Y-113329689D01*
X136837500Y-94365000D02*
X136837500Y-95015000D01*
X136837500Y-95015000D02*
X132099000Y-95015000D01*
X116636800Y-114503200D02*
X117810311Y-113329689D01*
X117810311Y-103169689D02*
X120229489Y-103169689D01*
X145309500Y-77287861D02*
X144100361Y-78497000D01*
X144100361Y-78497000D02*
X143200000Y-78497000D01*
X136200000Y-105795000D02*
X136200000Y-107386000D01*
X139310000Y-108576000D02*
X139192000Y-108458000D01*
X145309500Y-63013500D02*
X145288000Y-62992000D01*
X142994259Y-95015000D02*
X145309500Y-97330241D01*
X145309500Y-64770000D02*
X145309500Y-63013500D01*
X145309500Y-99292500D02*
X145288000Y-99314000D01*
X136200000Y-72775000D02*
X137906346Y-72775000D01*
X138029346Y-82768015D02*
X138029346Y-72898000D01*
X133311500Y-114808000D02*
X133311500Y-110998000D01*
X133311500Y-114808000D02*
X129286000Y-114808000D01*
X145309500Y-75692000D02*
X145288000Y-75692000D01*
X145288000Y-62992000D02*
X122682000Y-62992000D01*
X137100361Y-83697000D02*
X138029346Y-82768015D01*
X136200000Y-83697000D02*
X137100361Y-83697000D01*
X142562500Y-95015000D02*
X142994259Y-95015000D01*
X139310000Y-110115000D02*
X139310000Y-108576000D01*
X145309500Y-97330241D02*
X145309500Y-97790000D01*
X120229489Y-103169689D02*
X121379000Y-104319200D01*
X122682000Y-62992000D02*
X120142000Y-65532000D01*
X120229489Y-113329689D02*
X121379000Y-114479200D01*
X145309500Y-75692000D02*
X145309500Y-77287861D01*
X116636800Y-104343200D02*
X117810311Y-103169689D01*
X145288000Y-75692000D02*
X143764000Y-74168000D01*
X145309500Y-97790000D02*
X145309500Y-99292500D01*
X137906346Y-72775000D02*
X138029346Y-72898000D01*
X132099000Y-95015000D02*
X132080000Y-94996000D01*
X136200000Y-107386000D02*
X135636000Y-107950000D01*
X132080000Y-98044000D02*
X135636000Y-98044000D01*
X107061000Y-114503200D02*
X116636800Y-114503200D01*
%TO.N,+3V3*%
X143234500Y-97790000D02*
X143234500Y-99910500D01*
D31*
X139700000Y-122936000D02*
X175768000Y-122936000D01*
X136436500Y-114808000D02*
X139177000Y-114808000D01*
D32*
X143234500Y-66890500D02*
X143200000Y-66925000D01*
X136200000Y-77847000D02*
X133981000Y-77847000D01*
X143234500Y-96287500D02*
X143256000Y-96266000D01*
X143234500Y-75692000D02*
X142240000Y-75692000D01*
D31*
X139310000Y-114675000D02*
X139310000Y-122546000D01*
X139310000Y-122546000D02*
X139700000Y-122936000D01*
X176550000Y-122154000D02*
X176550000Y-120650000D01*
D32*
X135617000Y-87865000D02*
X135128000Y-87376000D01*
D31*
X181356000Y-120650000D02*
X182372000Y-119634000D01*
D32*
X136200000Y-66925000D02*
X143200000Y-66925000D01*
D31*
X133858000Y-66875500D02*
X133858210Y-66875290D01*
X176550000Y-120650000D02*
X181356000Y-120650000D01*
X139177000Y-114808000D02*
X139310000Y-114675000D01*
D32*
X143234500Y-97790000D02*
X143234500Y-96287500D01*
X143234500Y-64770000D02*
X143234500Y-66890500D01*
D31*
X133858000Y-99895500D02*
X133858210Y-99895290D01*
D32*
X133981000Y-77847000D02*
X133858000Y-77724000D01*
X136837500Y-87865000D02*
X135617000Y-87865000D01*
D31*
X134874000Y-113030000D02*
X134874000Y-113245500D01*
X182372000Y-119634000D02*
X182372000Y-112776000D01*
X133858210Y-99895290D02*
X135613052Y-99895290D01*
D32*
X143234500Y-99910500D02*
X143200000Y-99945000D01*
D31*
X175768000Y-122936000D02*
X176550000Y-122154000D01*
D32*
X143234500Y-75692000D02*
X143234500Y-77812500D01*
D31*
X134874000Y-113245500D02*
X136436500Y-114808000D01*
X133858210Y-66875290D02*
X135613052Y-66875290D01*
D32*
X143234500Y-77812500D02*
X143200000Y-77847000D01*
%TO.N,RAS_N*%
X107061000Y-68783200D02*
X116636800Y-68783200D01*
X133019310Y-78497000D02*
X133008310Y-78486000D01*
X120229489Y-67609689D02*
X121379000Y-68759200D01*
X117810311Y-67609689D02*
X120229489Y-67609689D01*
X116636800Y-68783200D02*
X117810311Y-67609689D01*
X136200000Y-78497000D02*
X133019310Y-78497000D01*
%TO.N,CAS_N*%
X116636800Y-71323200D02*
X118051289Y-69908711D01*
X107061000Y-71323200D02*
X116636800Y-71323200D01*
X119988511Y-69908711D02*
X121379000Y-71299200D01*
X118051289Y-69908711D02*
X119988511Y-69908711D01*
%TO.N,A10*%
X125730000Y-71755000D02*
X125036289Y-72448711D01*
X126100000Y-67575000D02*
X125730000Y-67945000D01*
X136200000Y-67575000D02*
X126100000Y-67575000D01*
X125036289Y-72448711D02*
X120708711Y-72448711D01*
X119559200Y-71299200D02*
X118839000Y-71299200D01*
X120708711Y-72448711D02*
X119559200Y-71299200D01*
X125730000Y-67945000D02*
X125730000Y-71755000D01*
%TO.N,A12*%
X117810311Y-72689689D02*
X120229489Y-72689689D01*
X126365000Y-68580000D02*
X126365000Y-73025000D01*
X136200000Y-68225000D02*
X126720000Y-68225000D01*
X126365000Y-73025000D02*
X125550800Y-73839200D01*
X126720000Y-68225000D02*
X126365000Y-68580000D01*
X107061000Y-73863200D02*
X116636800Y-73863200D01*
X120229489Y-72689689D02*
X121379000Y-73839200D01*
X125550800Y-73839200D02*
X121379000Y-73839200D01*
X116636800Y-73863200D02*
X117810311Y-72689689D01*
%TO.N,A13*%
X120708711Y-74988711D02*
X119559200Y-73839200D01*
X127340000Y-68875000D02*
X127000000Y-69215000D01*
X127000000Y-73660000D02*
X125671289Y-74988711D01*
X125671289Y-74988711D02*
X120708711Y-74988711D01*
X119559200Y-73839200D02*
X118839000Y-73839200D01*
X136200000Y-68875000D02*
X127340000Y-68875000D01*
X127000000Y-69215000D02*
X127000000Y-73660000D01*
%TO.N,A15*%
X117810311Y-75229689D02*
X120229489Y-75229689D01*
X127635000Y-75565000D02*
X126820800Y-76379200D01*
X127635000Y-69850000D02*
X127635000Y-75565000D01*
X126820800Y-76379200D02*
X121379000Y-76379200D01*
X116636800Y-76403200D02*
X117810311Y-75229689D01*
X107061000Y-76403200D02*
X116636800Y-76403200D01*
X127960000Y-69525000D02*
X127635000Y-69850000D01*
X120229489Y-75229689D02*
X121379000Y-76379200D01*
X136200000Y-69525000D02*
X127960000Y-69525000D01*
%TO.N,A11*%
X128580000Y-70175000D02*
X128270000Y-70485000D01*
X116636800Y-78943200D02*
X117810311Y-77769689D01*
X120229489Y-77769689D02*
X121379000Y-78919200D01*
X117810311Y-77769689D02*
X120229489Y-77769689D01*
X128270000Y-70485000D02*
X128270000Y-78105000D01*
X136200000Y-70175000D02*
X128580000Y-70175000D01*
X127455800Y-78919200D02*
X121379000Y-78919200D01*
X128270000Y-78105000D02*
X127455800Y-78919200D01*
X107061000Y-78943200D02*
X116636800Y-78943200D01*
%TO.N,A14*%
X128905000Y-79375000D02*
X128211289Y-80068711D01*
X120708711Y-80068711D02*
X119559200Y-78919200D01*
X128211289Y-80068711D02*
X120708711Y-80068711D01*
X128905000Y-71120000D02*
X128905000Y-79375000D01*
X119559200Y-78919200D02*
X118839000Y-78919200D01*
X136200000Y-70825000D02*
X129200000Y-70825000D01*
X129200000Y-70825000D02*
X128905000Y-71120000D01*
%TO.N,A8*%
X129540000Y-80645000D02*
X128725800Y-81459200D01*
X120229489Y-80309689D02*
X121379000Y-81459200D01*
X129540000Y-71755000D02*
X129540000Y-80645000D01*
X116636800Y-81483200D02*
X117810311Y-80309689D01*
X129820000Y-71475000D02*
X129540000Y-71755000D01*
X128725800Y-81459200D02*
X121379000Y-81459200D01*
X136200000Y-71475000D02*
X129820000Y-71475000D01*
X107061000Y-81483200D02*
X116636800Y-81483200D01*
X117810311Y-80309689D02*
X120229489Y-80309689D01*
%TO.N,OUT_N*%
X136200000Y-79147000D02*
X136161489Y-79185511D01*
X136161489Y-79185511D02*
X131126489Y-79185511D01*
X131126489Y-79185511D02*
X131064000Y-79248000D01*
%TO.N,WR_N*%
X107061000Y-84023200D02*
X116636800Y-84023200D01*
X116636800Y-84023200D02*
X117810311Y-82849689D01*
X117810311Y-82849689D02*
X120229489Y-82849689D01*
X120229489Y-82849689D02*
X121379000Y-83999200D01*
X136200000Y-79797000D02*
X132168011Y-79797000D01*
X132168011Y-79797000D02*
X132080000Y-79885011D01*
%TO.N,RD_N*%
X136200000Y-80447000D02*
X132925515Y-80447000D01*
X132925515Y-80447000D02*
X132848836Y-80523679D01*
X107061000Y-86563200D02*
X116636800Y-86563200D01*
X116636800Y-86563200D02*
X117810311Y-85389689D01*
X117810311Y-85389689D02*
X120229489Y-85389689D01*
X120229489Y-85389689D02*
X121379000Y-86539200D01*
%TO.N,A9*%
X123190000Y-88265000D02*
X122375800Y-89079200D01*
X136200000Y-72125000D02*
X130440000Y-72125000D01*
X116636800Y-89103200D02*
X117810311Y-87929689D01*
X107061000Y-89103200D02*
X116636800Y-89103200D01*
X117810311Y-87929689D02*
X120229489Y-87929689D01*
X123190000Y-82550000D02*
X123190000Y-88265000D01*
X130440000Y-72125000D02*
X130175000Y-72390000D01*
X128905000Y-81915000D02*
X123825000Y-81915000D01*
X123825000Y-81915000D02*
X123190000Y-82550000D01*
X122375800Y-89079200D02*
X121379000Y-89079200D01*
X130175000Y-80645000D02*
X128905000Y-81915000D01*
X130175000Y-72390000D02*
X130175000Y-80645000D01*
X120229489Y-87929689D02*
X121379000Y-89079200D01*
%TO.N,D4*%
X136837500Y-89165000D02*
X122918855Y-89165000D01*
X122918855Y-89165000D02*
X121855144Y-90228711D01*
X119559200Y-89079200D02*
X118839000Y-89079200D01*
X121855144Y-90228711D02*
X120708711Y-90228711D01*
X120708711Y-90228711D02*
X119559200Y-89079200D01*
%TO.N,IN_N*%
X116636800Y-91643200D02*
X117810311Y-90469689D01*
X107061000Y-91643200D02*
X116636800Y-91643200D01*
X120229489Y-90469689D02*
X121379000Y-91619200D01*
X136200000Y-81097000D02*
X133279000Y-81097000D01*
X117810311Y-90469689D02*
X120229489Y-90469689D01*
X133279000Y-81097000D02*
X132842000Y-81534000D01*
%TO.N,D7*%
X123545000Y-89815000D02*
X123190000Y-90170000D01*
X119404006Y-91619200D02*
X118839000Y-91619200D01*
X123190000Y-92075000D02*
X122496289Y-92768711D01*
X123190000Y-90170000D02*
X123190000Y-92075000D01*
X122496289Y-92768711D02*
X120553517Y-92768711D01*
X136837500Y-89815000D02*
X123545000Y-89815000D01*
X120553517Y-92768711D02*
X119404006Y-91619200D01*
%TO.N,INT_N*%
X117810311Y-93009689D02*
X120229489Y-93009689D01*
X107061000Y-94183200D02*
X116636800Y-94183200D01*
X116636800Y-94183200D02*
X117810311Y-93009689D01*
X137329846Y-97282000D02*
X128016000Y-97282000D01*
X120229489Y-93009689D02*
X121379000Y-94159200D01*
%TO.N,D1*%
X119404006Y-94159200D02*
X118839000Y-94159200D01*
X123825000Y-93980000D02*
X122496289Y-95308711D01*
X123825000Y-90805000D02*
X123825000Y-93980000D01*
X136837500Y-90465000D02*
X124165000Y-90465000D01*
X122496289Y-95308711D02*
X120553517Y-95308711D01*
X124165000Y-90465000D02*
X123825000Y-90805000D01*
X120553517Y-95308711D02*
X119404006Y-94159200D01*
%TO.N,TEST_N*%
X117810311Y-95549689D02*
X120229489Y-95549689D01*
X120229489Y-95549689D02*
X121379000Y-96699200D01*
X116636800Y-96723200D02*
X117810311Y-95549689D01*
X107061000Y-96723200D02*
X116636800Y-96723200D01*
%TO.N,D6*%
X136837500Y-91115000D02*
X124785000Y-91115000D01*
X124460000Y-91440000D02*
X124460000Y-97155000D01*
X124785000Y-91115000D02*
X124460000Y-91440000D01*
X119404006Y-96699200D02*
X118839000Y-96699200D01*
X120553517Y-97848711D02*
X119404006Y-96699200D01*
X124460000Y-97155000D02*
X123766289Y-97848711D01*
X123766289Y-97848711D02*
X120553517Y-97848711D01*
%TO.N,A0*%
X128027000Y-100595000D02*
X128016000Y-100584000D01*
X116636800Y-99263200D02*
X117810311Y-98089689D01*
X136200000Y-100595000D02*
X128027000Y-100595000D01*
X117810311Y-98089689D02*
X120229489Y-98089689D01*
X107061000Y-99263200D02*
X116636800Y-99263200D01*
X120229489Y-98089689D02*
X121379000Y-99239200D01*
%TO.N,D3*%
X125095000Y-92075000D02*
X125095000Y-99695000D01*
X124401289Y-100388711D02*
X120553517Y-100388711D01*
X125405000Y-91765000D02*
X125095000Y-92075000D01*
X136837500Y-91765000D02*
X125405000Y-91765000D01*
X125095000Y-99695000D02*
X124401289Y-100388711D01*
X119404006Y-99239200D02*
X118839000Y-99239200D01*
X120553517Y-100388711D02*
X119404006Y-99239200D01*
%TO.N,A1*%
X107061000Y-101803200D02*
X116636800Y-101803200D01*
X116636800Y-101803200D02*
X117810311Y-100629689D01*
X136200000Y-101245000D02*
X128879000Y-101245000D01*
X128879000Y-101245000D02*
X128778000Y-101346000D01*
X117810311Y-100629689D02*
X120229489Y-100629689D01*
X120229489Y-100629689D02*
X121379000Y-101779200D01*
%TO.N,D5*%
X119404006Y-101779200D02*
X118839000Y-101779200D01*
X120553517Y-102928711D02*
X119404006Y-101779200D01*
X126025000Y-92415000D02*
X125730000Y-92710000D01*
X136837500Y-92415000D02*
X126025000Y-92415000D01*
X125036289Y-102928711D02*
X120553517Y-102928711D01*
X125730000Y-92710000D02*
X125730000Y-102235000D01*
X125730000Y-102235000D02*
X125036289Y-102928711D01*
%TO.N,D0*%
X119404006Y-104319200D02*
X118839000Y-104319200D01*
X125036289Y-105468711D02*
X120553517Y-105468711D01*
X126365000Y-93345000D02*
X126365000Y-104140000D01*
X126365000Y-104140000D02*
X125036289Y-105468711D01*
X120553517Y-105468711D02*
X119404006Y-104319200D01*
X126645000Y-93065000D02*
X126365000Y-93345000D01*
X136837500Y-93065000D02*
X126645000Y-93065000D01*
%TO.N,A4*%
X120229489Y-105709689D02*
X121379000Y-106859200D01*
X136200000Y-101895000D02*
X129499000Y-101895000D01*
X107061000Y-106883200D02*
X116636800Y-106883200D01*
X129499000Y-101895000D02*
X128778000Y-102616000D01*
X117810311Y-105709689D02*
X120229489Y-105709689D01*
X116636800Y-106883200D02*
X117810311Y-105709689D01*
X128778000Y-102616000D02*
X127762000Y-102616000D01*
%TO.N,D2*%
X127000000Y-93980000D02*
X127000000Y-107315000D01*
X127000000Y-107315000D02*
X126306289Y-108008711D01*
X126306289Y-108008711D02*
X120553517Y-108008711D01*
X119404006Y-106859200D02*
X118839000Y-106859200D01*
X127265000Y-93715000D02*
X127000000Y-93980000D01*
X136837500Y-93715000D02*
X127265000Y-93715000D01*
X120553517Y-108008711D02*
X119404006Y-106859200D01*
%TO.N,WAIT_N*%
X117810311Y-108249689D02*
X120229489Y-108249689D01*
X124206000Y-118618000D02*
X124206000Y-110490000D01*
X120229489Y-108249689D02*
X121379000Y-109399200D01*
X123115200Y-109399200D02*
X121379000Y-109399200D01*
X124206000Y-110490000D02*
X123115200Y-109399200D01*
X124968000Y-119380000D02*
X124206000Y-118618000D01*
X107061000Y-109423200D02*
X116636800Y-109423200D01*
X134620000Y-119380000D02*
X124968000Y-119380000D01*
X116636800Y-109423200D02*
X117810311Y-108249689D01*
%TO.N,A3*%
X136200000Y-102545000D02*
X129787478Y-102545000D01*
X129787478Y-102545000D02*
X129090826Y-103241652D01*
%TO.N,A5*%
X116636800Y-111963200D02*
X117810311Y-110789689D01*
X120229489Y-110789689D02*
X121379000Y-111939200D01*
X136200000Y-103195000D02*
X130485000Y-103195000D01*
X130485000Y-103195000D02*
X130048000Y-103632000D01*
X117810311Y-110789689D02*
X120229489Y-110789689D01*
X107061000Y-111963200D02*
X116636800Y-111963200D01*
%TO.N,A7*%
X136200000Y-103845000D02*
X131359000Y-103845000D01*
X131359000Y-103845000D02*
X131064000Y-104140000D01*
%TO.N,A6*%
X136099520Y-104595480D02*
X132386520Y-104595480D01*
X132386520Y-104595480D02*
X132334000Y-104648000D01*
X136200000Y-104495000D02*
X136099520Y-104595480D01*
%TO.N,5V*%
X117810311Y-115869689D02*
X120229489Y-115869689D01*
X116636800Y-117043200D02*
X117810311Y-115869689D01*
X107061000Y-117043200D02*
X116636800Y-117043200D01*
X120229489Y-115869689D02*
X121379000Y-117019200D01*
%TO.N,A2*%
X136200000Y-105145000D02*
X133361000Y-105145000D01*
X133361000Y-105145000D02*
X133096000Y-105410000D01*
%TO.N,+1V8*%
X136436500Y-108165500D02*
X136436500Y-110998000D01*
D31*
X139310000Y-112395000D02*
X137833500Y-112395000D01*
X137833500Y-112395000D02*
X136436500Y-110998000D01*
D32*
X138029346Y-106572654D02*
X136436500Y-108165500D01*
X138029346Y-86614000D02*
X138029346Y-106572654D01*
D31*
X145610000Y-112395000D02*
X139310000Y-112395000D01*
D32*
X142562500Y-87865000D02*
X142562500Y-86682500D01*
X142562500Y-87865000D02*
X142562500Y-88515000D01*
X142562500Y-86682500D02*
X142494000Y-86614000D01*
%TO.N,AA0_9*%
X199991000Y-77885000D02*
X205740000Y-77885000D01*
X143200000Y-72775000D02*
X148721000Y-72775000D01*
X141525480Y-100885481D02*
X141884999Y-101245000D01*
X148915440Y-72969440D02*
X148915440Y-89733440D01*
X148915440Y-89733440D02*
X149352000Y-90170000D01*
X198374000Y-89154000D02*
X198374000Y-79502000D01*
X143200000Y-72775000D02*
X141855000Y-72775000D01*
X198374000Y-79502000D02*
X199991000Y-77885000D01*
X149352000Y-90170000D02*
X153650000Y-90170000D01*
X141884999Y-101245000D02*
X143200000Y-101245000D01*
X148721000Y-72775000D02*
X148915440Y-72969440D01*
X141855000Y-72775000D02*
X141525480Y-73104520D01*
X141525480Y-73104520D02*
X141525480Y-100885481D01*
%TO.N,AA1_8*%
X149314960Y-86830960D02*
X150114000Y-87630000D01*
X149087000Y-72125000D02*
X149314960Y-72352960D01*
X143200000Y-72125000D02*
X141767320Y-72125000D01*
X197612000Y-86614000D02*
X197612000Y-73660000D01*
X150114000Y-87630000D02*
X153650000Y-87630000D01*
X197612000Y-73660000D02*
X198467000Y-72805000D01*
X143200000Y-72125000D02*
X149087000Y-72125000D01*
X149314960Y-72352960D02*
X149314960Y-86830960D01*
X141125961Y-72766359D02*
X141125961Y-101050968D01*
X141767320Y-72125000D02*
X141125961Y-72766359D01*
X141125961Y-101050968D02*
X141969993Y-101895000D01*
X198467000Y-72805000D02*
X205740000Y-72805000D01*
X141969993Y-101895000D02*
X143200000Y-101895000D01*
%TO.N,AA4_14*%
X149714480Y-71736480D02*
X149714480Y-84436480D01*
X149453000Y-71475000D02*
X149714480Y-71736480D01*
X150368000Y-85090000D02*
X153650000Y-85090000D01*
X141457319Y-71475000D02*
X140726442Y-72205877D01*
X141915001Y-102545000D02*
X143200000Y-102545000D01*
X143200000Y-71475000D02*
X149453000Y-71475000D01*
X140726442Y-72205877D02*
X140726442Y-101356441D01*
X143200000Y-71475000D02*
X141457319Y-71475000D01*
X140726442Y-101356441D02*
X141915001Y-102545000D01*
X149714480Y-84436480D02*
X150368000Y-85090000D01*
%TO.N,ESP_S0*%
X178562000Y-81534000D02*
X179671000Y-80425000D01*
X178562000Y-106934000D02*
X178562000Y-81534000D01*
X176550000Y-107950000D02*
X177546000Y-107950000D01*
X179671000Y-80425000D02*
X182880000Y-80425000D01*
X177546000Y-107950000D02*
X178562000Y-106934000D01*
%TO.N,ESP_S1*%
X178816000Y-110490000D02*
X179324000Y-109982000D01*
X180687000Y-82965000D02*
X182880000Y-82965000D01*
X179324000Y-109982000D02*
X179324000Y-84328000D01*
X176550000Y-110490000D02*
X178816000Y-110490000D01*
X179324000Y-84328000D02*
X180687000Y-82965000D01*
%TO.N,SCK*%
X195580000Y-66294000D02*
X195580000Y-90424000D01*
%TO.N,MOSI*%
X161290000Y-65786000D02*
X161290000Y-96074500D01*
X161290000Y-96074500D02*
X161098500Y-96266000D01*
X153650000Y-64770000D02*
X160274000Y-64770000D01*
X160274000Y-64770000D02*
X161290000Y-65786000D01*
%TO.N,AA3_11*%
X140326923Y-102226923D02*
X141295000Y-103195000D01*
X141295000Y-103195000D02*
X143200000Y-103195000D01*
X141147319Y-70825000D02*
X140326923Y-71645396D01*
X140326923Y-71645396D02*
X140326923Y-102226923D01*
X150114000Y-71120000D02*
X150114000Y-81534000D01*
X143200000Y-70825000D02*
X141147319Y-70825000D01*
X150114000Y-81534000D02*
X151130000Y-82550000D01*
X143200000Y-70825000D02*
X149819000Y-70825000D01*
X149819000Y-70825000D02*
X150114000Y-71120000D01*
X151130000Y-82550000D02*
X153650000Y-82550000D01*
%TO.N,AA5_15*%
X140645000Y-70175000D02*
X139927404Y-70892596D01*
X151130000Y-80010000D02*
X153650000Y-80010000D01*
X143200000Y-70175000D02*
X140645000Y-70175000D01*
X150185000Y-70175000D02*
X150693440Y-70683440D01*
X150693440Y-70683440D02*
X150693440Y-79573440D01*
X143200000Y-70175000D02*
X150185000Y-70175000D01*
X139927404Y-103097404D02*
X140675000Y-103845000D01*
X140675000Y-103845000D02*
X143200000Y-103845000D01*
X139927404Y-70892596D02*
X139927404Y-103097404D01*
X150693440Y-79573440D02*
X151130000Y-80010000D01*
%TO.N,AA7_13*%
X140055000Y-104495000D02*
X143200000Y-104495000D01*
X151638000Y-77470000D02*
X153650000Y-77470000D01*
X143200000Y-69525000D02*
X150551000Y-69525000D01*
X143200000Y-69525000D02*
X140025000Y-69525000D01*
X151092960Y-70066960D02*
X151092960Y-76924960D01*
X139527884Y-103967884D02*
X140055000Y-104495000D01*
X150551000Y-69525000D02*
X151092960Y-70066960D01*
X151092960Y-76924960D02*
X151638000Y-77470000D01*
X139527884Y-70022116D02*
X139527884Y-103967884D01*
X140025000Y-69525000D02*
X139527884Y-70022116D01*
%TO.N,AA6_12*%
X139128365Y-69716641D02*
X139128365Y-104838365D01*
X152146000Y-74930000D02*
X153650000Y-74930000D01*
X139128365Y-104838365D02*
X139535480Y-105245480D01*
X151492480Y-69196480D02*
X151492480Y-74276480D01*
X139535480Y-105245480D02*
X143510000Y-105245480D01*
X151171000Y-68875000D02*
X151492480Y-69196480D01*
X139970006Y-68875000D02*
X139128365Y-69716641D01*
X143200000Y-68875000D02*
X151171000Y-68875000D01*
X151492480Y-74276480D02*
X152146000Y-74930000D01*
X143200000Y-68875000D02*
X139970006Y-68875000D01*
%TO.N,AA2_10*%
X139519994Y-105795000D02*
X143200000Y-105795000D01*
X152908000Y-72390000D02*
X153650000Y-72390000D01*
X151283000Y-68225000D02*
X151892000Y-68834000D01*
X143200000Y-68225000D02*
X151283000Y-68225000D01*
X138728846Y-105003852D02*
X139519994Y-105795000D01*
X139420000Y-68225000D02*
X138728846Y-68916154D01*
X151892000Y-68834000D02*
X151892000Y-71374000D01*
X143200000Y-68225000D02*
X139420000Y-68225000D01*
X138728846Y-68916154D02*
X138728846Y-105003852D01*
X151892000Y-71374000D02*
X152908000Y-72390000D01*
%TO.N,READ_N*%
X136837500Y-88515000D02*
X135251000Y-88515000D01*
X135251000Y-88515000D02*
X135128000Y-88392000D01*
%TO.N,MISO*%
X160528000Y-70866000D02*
X160398989Y-70995011D01*
X160398989Y-103502989D02*
X160528000Y-103632000D01*
X153650000Y-69850000D02*
X159512000Y-69850000D01*
X160398989Y-70995011D02*
X160398989Y-103502989D01*
X159512000Y-69850000D02*
X160528000Y-70866000D01*
D33*
%TO.N,DD3*%
X145530399Y-92672500D02*
X145530420Y-92672479D01*
X144225886Y-92672500D02*
X145530399Y-92672500D01*
X143968386Y-92415000D02*
X144225886Y-92672500D01*
X142562500Y-92415000D02*
X143968386Y-92415000D01*
%TO.N,DD4*%
X143722503Y-89815000D02*
X143772003Y-89864500D01*
X142562500Y-89815000D02*
X143722503Y-89815000D01*
%TO.N,DD5*%
X142619520Y-93122020D02*
X144137104Y-93122020D01*
X144137104Y-93122020D02*
X144412084Y-93397000D01*
X142562500Y-93065000D02*
X142619520Y-93122020D01*
%TO.N,DD6*%
X142562500Y-91765000D02*
X144343000Y-91765000D01*
X144343000Y-91765000D02*
X144526000Y-91948000D01*
%TO.N,DD7*%
X142562500Y-90465000D02*
X142686511Y-90589011D01*
X142686511Y-90589011D02*
X144445757Y-90589011D01*
X144445757Y-90589011D02*
X144574660Y-90460108D01*
%TO.N,DD2*%
X142562500Y-94365000D02*
X143719752Y-94365000D01*
X143719752Y-94365000D02*
X144200752Y-94846000D01*
X144200752Y-94846000D02*
X144354955Y-94846000D01*
%TO.N,DD0*%
X144111970Y-94121500D02*
X145285880Y-94121500D01*
X143705470Y-93715000D02*
X144111970Y-94121500D01*
X142562500Y-93715000D02*
X143705470Y-93715000D01*
%TO.N,DD1*%
X145263553Y-91184619D02*
X145272704Y-91175468D01*
X142562500Y-91115000D02*
X142632119Y-91184619D01*
X142632119Y-91184619D02*
X145263553Y-91184619D01*
D32*
%TO.N,A1_MUX*%
X147320000Y-66802000D02*
X147574000Y-66548000D01*
X146547000Y-67575000D02*
X147320000Y-66802000D01*
X143200000Y-67575000D02*
X146547000Y-67575000D01*
X147574000Y-66548000D02*
X147574000Y-63754000D01*
%TO.N,A0_MUX*%
X153650000Y-110216000D02*
X153650000Y-110490000D01*
X143200000Y-100595000D02*
X145553000Y-100595000D01*
X145830400Y-100872400D02*
X145830400Y-107730400D01*
X145830400Y-107730400D02*
X146558000Y-108458000D01*
X145553000Y-100595000D02*
X145830400Y-100872400D01*
X146558000Y-108458000D02*
X151892000Y-108458000D01*
X151892000Y-108458000D02*
X153650000Y-110216000D01*
%TO.N,DBUS_SEL_N*%
X145807000Y-89165000D02*
X146229920Y-89587920D01*
X146229920Y-89587920D02*
X146229920Y-107367920D01*
X146812000Y-107950000D02*
X153650000Y-107950000D01*
X142562500Y-89165000D02*
X145807000Y-89165000D01*
X146229920Y-107367920D02*
X146812000Y-107950000D01*
%TO.N,BUTTON*%
X210820000Y-118618000D02*
X210820000Y-101600000D01*
X210820000Y-101600000D02*
X209804000Y-100584000D01*
X209804000Y-100584000D02*
X209638000Y-100750000D01*
X199616000Y-119706000D02*
X206116000Y-119706000D01*
X209638000Y-100750000D02*
X208280000Y-100750000D01*
X209732000Y-119706000D02*
X210820000Y-118618000D01*
X206116000Y-119706000D02*
X209732000Y-119706000D01*
%TO.N,LED_GREEN*%
X191931000Y-77885000D02*
X182880000Y-77885000D01*
X192786000Y-99568000D02*
X192786000Y-78740000D01*
X192786000Y-78740000D02*
X191931000Y-77885000D01*
%TO.N,LED_BLUE*%
X189484000Y-99568000D02*
X190583511Y-100667511D01*
X198721000Y-93125000D02*
X205740000Y-93125000D01*
X197274489Y-100667511D02*
X197866000Y-100076000D01*
X190583511Y-100667511D02*
X197274489Y-100667511D01*
X197866000Y-100076000D02*
X197866000Y-93980000D01*
X197866000Y-93980000D02*
X198721000Y-93125000D01*
%TO.N,LED_RED*%
X186182000Y-86360000D02*
X185327000Y-85505000D01*
X186182000Y-99568000D02*
X186182000Y-86360000D01*
X185327000Y-85505000D02*
X182880000Y-85505000D01*
%TO.N,Net-(D1-Pad4)*%
X191262000Y-107950000D02*
X192024000Y-107188000D01*
X191262000Y-121920000D02*
X191262000Y-107950000D01*
X192024000Y-107188000D02*
X192786000Y-107188000D01*
%TO.N,Net-(D1-Pad3)*%
X189992000Y-107696000D02*
X189484000Y-107188000D01*
X189992000Y-121920000D02*
X189992000Y-107696000D01*
%TO.N,Net-(D1-Pad1)*%
X187452000Y-121920000D02*
X187452000Y-108458000D01*
X187452000Y-108458000D02*
X186182000Y-107188000D01*
%TO.N,CS_SD_CARD*%
X161798000Y-63246000D02*
X161798000Y-106426000D01*
X153650000Y-62230000D02*
X160782000Y-62230000D01*
X161544000Y-62992000D02*
X161798000Y-63246000D01*
X160782000Y-62230000D02*
X161544000Y-62992000D01*
D31*
%TO.N,VU*%
X212852000Y-60706000D02*
X216916000Y-64770000D01*
X216916000Y-64770000D02*
X216911000Y-64775000D01*
X171958000Y-104394000D02*
X171958000Y-61976000D01*
X216911000Y-64775000D02*
X216911000Y-71120000D01*
X171958000Y-61976000D02*
X173228000Y-60706000D01*
X176550000Y-105410000D02*
X172974000Y-105410000D01*
X172974000Y-105410000D02*
X171958000Y-104394000D01*
X173228000Y-60706000D02*
X212852000Y-60706000D01*
D32*
%TO.N,CS_FPGA*%
X211519500Y-115570000D02*
X211519500Y-86551500D01*
X211519500Y-86551500D02*
X210312000Y-85344000D01*
X210312000Y-85344000D02*
X210146000Y-85510000D01*
X210146000Y-85510000D02*
X208280000Y-85510000D01*
%TO.N,ESP_S2*%
X176550000Y-113030000D02*
X179324000Y-113030000D01*
X180086000Y-89408000D02*
X181449000Y-88045000D01*
X181449000Y-88045000D02*
X182880000Y-88045000D01*
X179324000Y-113030000D02*
X180086000Y-112268000D01*
X180086000Y-112268000D02*
X180086000Y-89408000D01*
%TO.N,REQ*%
X174244000Y-88392000D02*
X175006000Y-87630000D01*
X174244000Y-96965500D02*
X174244000Y-88392000D01*
X175006000Y-87630000D02*
X176550000Y-87630000D01*
%TO.N,Z80_WR_N*%
X143200000Y-80447000D02*
X147249000Y-80447000D01*
X147828000Y-97790000D02*
X153650000Y-97790000D01*
X147249000Y-80447000D02*
X147428480Y-80626480D01*
X147428480Y-97390480D02*
X147828000Y-97790000D01*
X147428480Y-80626480D02*
X147428480Y-97390480D01*
%TO.N,Z80_RD_N*%
X146883000Y-81097000D02*
X147028960Y-81242960D01*
X147028960Y-99784960D02*
X147574000Y-100330000D01*
X147574000Y-100330000D02*
X153650000Y-100330000D01*
X143200000Y-81097000D02*
X146883000Y-81097000D01*
X147028960Y-81242960D02*
X147028960Y-99784960D01*
%TO.N,Z80_RAS_N*%
X148336000Y-91948000D02*
X149098000Y-92710000D01*
X148336000Y-79248000D02*
X148336000Y-91948000D01*
X143200000Y-79147000D02*
X148235000Y-79147000D01*
X148235000Y-79147000D02*
X148336000Y-79248000D01*
X149098000Y-92710000D02*
X153650000Y-92710000D01*
%TO.N,Z80_OUT_N*%
X143200000Y-79797000D02*
X147533000Y-79797000D01*
X147828000Y-94488000D02*
X148590000Y-95250000D01*
X147828000Y-80010000D02*
X147828000Y-94488000D01*
X147533000Y-79797000D02*
X147574000Y-79756000D01*
X147574000Y-79756000D02*
X147828000Y-80010000D01*
X148590000Y-95250000D02*
X153650000Y-95250000D01*
%TO.N,Z80_IN_N*%
X146517000Y-81747000D02*
X146629440Y-81859440D01*
X146629440Y-102433440D02*
X147066000Y-102870000D01*
X147066000Y-102870000D02*
X153650000Y-102870000D01*
X143200000Y-81747000D02*
X146517000Y-81747000D01*
X146629440Y-81859440D02*
X146629440Y-102433440D01*
%TD*%
M02*
