M48
; DRILL file {KiCad (6.0.5)} date Mon Jun 13 21:29:02 2022
; FORMAT={-:-/ absolute / inch / decimal}
; #@! TF.CreationDate,2022-06-13T21:29:02-07:00
; #@! TF.GenerationSoftware,Kicad,Pcbnew,(6.0.5)
; #@! TF.FileFunction,Plated,1,2,PTH
FMAT,2
INCH
; #@! TA.AperFunction,Plated,PTH,ViaDrill
T1C0.0157
; #@! TA.AperFunction,Plated,PTH,ComponentDrill
T2C0.0197
; #@! TA.AperFunction,Plated,PTH,ComponentDrill
T3C0.0295
; #@! TA.AperFunction,Plated,PTH,ComponentDrill
T4C0.0315
; #@! TA.AperFunction,Plated,PTH,ComponentDrill
T5C0.0354
; #@! TA.AperFunction,Plated,PTH,ComponentDrill
T6C0.0394
; #@! TA.AperFunction,Plated,PTH,ComponentDrill
T7C0.0433
; #@! TA.AperFunction,Plated,PTH,ComponentDrill
T8C0.1181
%
G90
G05
T1
X4.73Y-2.58
X5.03Y-4.04
X5.04Y-3.83
X5.04Y-3.96
X5.07Y-3.99
X5.0823Y-4.0646
X5.09Y-4.52
X5.12Y-4.08
X5.16Y-3.12
X5.16Y-4.1
X5.2Y-3.1451
X5.2Y-3.74
X5.2Y-3.86
X5.21Y-4.12
X5.23Y-3.21
X5.2303Y-3.1702
X5.2365Y-3.09
X5.24Y-4.15
X5.27Y-2.6329
X5.27Y-3.06
X5.27Y-3.9329
X5.31Y-4.45
X5.32Y-3.44
X5.32Y-3.48
X5.34Y-3.86
X5.34Y-4.25
X5.4067Y-3.83
X5.4342Y-2.87
X5.4342Y-3.41
X5.48Y-4.27
X5.6Y-2.98
X5.61Y-3.41
X5.64Y-3.79
X5.66Y-2.92
X5.6603Y-3.538
X5.6833Y-3.7341
X5.6855Y-3.677
X5.69Y-3.62
X5.6919Y-3.5614
X5.7194Y-3.5896
X5.7199Y-3.7056
X5.72Y-2.48
X5.72Y-3.91
X5.7295Y-3.6485
X5.81Y-2.51
X6.32Y-4.08
X6.3425Y-3.79
X6.37Y-4.19
X6.86Y-3.8175
X7.18Y-4.44
X7.7Y-2.61
X7.7Y-3.56
X7.78Y-3.41
X7.81Y-3.51
X8.3275Y-4.55
T2
X4.5714Y-2.4
X4.5714Y-4.94
X4.5974Y-2.3374
X4.5974Y-2.4626
X4.5974Y-4.8774
X4.5974Y-5.0026
X4.66Y-2.3114
X4.66Y-2.4886
X4.66Y-4.8514
X4.66Y-5.0286
X4.7226Y-2.3374
X4.7226Y-2.4626
X4.7226Y-4.8774
X4.7226Y-5.0026
X4.7486Y-2.4
X4.7486Y-4.94
X8.5214Y-2.4
X8.5214Y-4.94
X8.5474Y-2.3374
X8.5474Y-2.4626
X8.5474Y-4.8774
X8.5474Y-5.0026
X8.61Y-2.3114
X8.61Y-2.4886
X8.61Y-4.8514
X8.61Y-5.0286
X8.6726Y-2.3374
X8.6726Y-2.4626
X8.6726Y-4.8774
X8.6726Y-5.0026
X8.6986Y-2.4
X8.6986Y-4.94
T3
X5.3Y-4.7
X5.35Y-4.7
X5.4Y-4.7
X5.56Y-4.7
X5.61Y-4.7
X5.66Y-4.7
T4
X6.0492Y-2.45
X6.0492Y-2.55
X6.0492Y-2.65
X6.0492Y-2.75
X6.0492Y-2.85
X6.0492Y-2.95
X6.0492Y-3.05
X6.0492Y-3.15
X6.0492Y-3.25
X6.0492Y-3.35
X6.0492Y-3.45
X6.0492Y-3.55
X6.0492Y-3.65
X6.0492Y-3.75
X6.0492Y-3.85
X6.0492Y-3.95
X6.0492Y-4.05
X6.0492Y-4.15
X6.0492Y-4.25
X6.0492Y-4.35
X6.0492Y-4.45
X6.0492Y-4.55
X6.0492Y-4.65
X6.0492Y-4.75
X6.9508Y-2.45
X6.9508Y-2.55
X6.9508Y-2.65
X6.9508Y-2.75
X6.9508Y-2.85
X6.9508Y-2.95
X6.9508Y-3.05
X6.9508Y-3.15
X6.9508Y-3.25
X6.9508Y-3.35
X6.9508Y-3.45
X6.9508Y-3.55
X6.9508Y-3.65
X6.9508Y-3.75
X6.9508Y-3.85
X6.9508Y-3.95
X6.9508Y-4.05
X6.9508Y-4.15
X6.9508Y-4.25
X6.9508Y-4.35
X6.9508Y-4.45
X6.9508Y-4.55
X6.9508Y-4.65
X6.9508Y-4.75
X7.2Y-2.4663
X7.2Y-2.5663
X7.2Y-2.6663
X7.2Y-2.7663
X7.2Y-2.8663
X7.2Y-2.9663
X7.2Y-3.0663
X7.2Y-3.1663
X7.2Y-3.2663
X7.2Y-3.3663
X7.2Y-3.4663
X7.2Y-3.5663
X7.2Y-3.6663
X7.2Y-3.7663
X7.2Y-3.8663
X7.2Y-3.9663
X7.2Y-4.0663
X7.2Y-4.1663
X7.2Y-4.2663
X7.33Y-3.92
X7.33Y-4.22
X7.46Y-3.92
X7.46Y-4.22
X7.59Y-3.92
X7.59Y-4.22
X7.96Y-3.92
X7.96Y-4.22
X8.1Y-2.4688
X8.1Y-2.5663
X8.1Y-2.6663
X8.1Y-2.7663
X8.1Y-2.8663
X8.1Y-2.9663
X8.1Y-3.0663
X8.1Y-3.1663
X8.1Y-3.2663
X8.1Y-3.3663
X8.1Y-3.4663
X8.1Y-3.5663
X8.1Y-3.6663
X8.1Y-3.7663
X8.1Y-3.8663
X8.1Y-3.9663
X8.1Y-4.0663
X8.1Y-4.1663
X8.1Y-4.2663
T5
X7.38Y-4.8
X7.43Y-4.8
X7.48Y-4.8
X7.53Y-4.8
T6
X4.6787Y-2.7071
X4.6787Y-2.8071
X4.6787Y-2.9071
X4.6787Y-3.0071
X4.6787Y-3.1071
X4.6787Y-3.2071
X4.6787Y-3.3071
X4.6787Y-3.4071
X4.6787Y-3.5071
X4.6787Y-3.6071
X4.6787Y-3.7071
X4.6787Y-3.8071
X4.6787Y-3.9071
X4.6787Y-4.0071
X4.6787Y-4.1071
X4.6787Y-4.2071
X4.6787Y-4.3071
X4.6787Y-4.4071
X4.6787Y-4.5071
X4.6787Y-4.6071
X4.7787Y-2.7071
X4.7787Y-2.8071
X4.7787Y-2.9071
X4.7787Y-3.0071
X4.7787Y-3.1071
X4.7787Y-3.2071
X4.7787Y-3.3071
X4.7787Y-3.4071
X4.7787Y-3.5071
X4.7787Y-3.6071
X4.7787Y-3.7071
X4.7787Y-3.8071
X4.7787Y-3.9071
X4.7787Y-4.0071
X4.7787Y-4.1071
X4.7787Y-4.2071
X4.7787Y-4.3071
X4.7787Y-4.4071
X4.7787Y-4.5071
X4.7787Y-4.6071
X8.2Y-2.4665
X8.2Y-2.5665
X8.2Y-2.6665
X8.2Y-2.7665
X8.2Y-2.8665
X8.2Y-2.9665
X8.2Y-3.0665
X8.2Y-3.1665
X8.2Y-3.2665
X8.2Y-3.3665
X8.2Y-3.4665
X8.2Y-3.5665
X8.2Y-3.6665
X8.2Y-3.7665
X8.2Y-3.8665
X8.2Y-3.9665
X8.2Y-4.0665
X8.2Y-4.1665
X8.2Y-4.2665
X8.4398Y-2.8
X8.4398Y-3.05
X8.44Y-3.31
X8.5398Y-2.8
X8.5398Y-3.05
X8.54Y-3.31
T7
X7.8589Y-4.7128
X7.8589Y-4.89
X8.1148Y-4.7128
X8.1148Y-4.89
T8
X4.66Y-2.4
X4.66Y-4.94
X8.61Y-2.4
X8.61Y-4.94
T0
M30
