M48
; DRILL file {KiCad (6.0.2-0)} date Monday, March 07, 2022 at 10:03:13 PM
; FORMAT={-:-/ absolute / inch / decimal}
; #@! TF.CreationDate,2022-03-07T22:03:13-08:00
; #@! TF.GenerationSoftware,Kicad,Pcbnew,(6.0.2-0)
; #@! TF.FileFunction,Plated,1,2,PTH
FMAT,2
INCH
; #@! TA.AperFunction,Plated,PTH,ViaDrill
T1C0.0157
; #@! TA.AperFunction,Plated,PTH,ComponentDrill
T2C0.0236
; #@! TA.AperFunction,Plated,PTH,ComponentDrill
T3C0.0315
; #@! TA.AperFunction,Plated,PTH,ComponentDrill
T4C0.0354
; #@! TA.AperFunction,Plated,PTH,ComponentDrill
T5C0.0390
; #@! TA.AperFunction,Plated,PTH,ComponentDrill
T6C0.0394
; #@! TA.AperFunction,Plated,PTH,ComponentDrill
T7C0.0433
; #@! TA.AperFunction,Plated,PTH,ComponentDrill
T8C0.0512
%
G90
G05
T1
X5.375Y-4.1
X5.475Y-4.225
X5.575Y-4.125
X5.625Y-4.8
X5.675Y-4.15
X5.775Y-3.925
X5.775Y-4.175
X5.8Y-4.225
X5.86Y-4.85
X5.86Y-5.1
X5.875Y-3.145
X5.875Y-4.2
X5.955Y-3.9
X5.96Y-5.13
X5.97Y-4.24
X6.055Y-3.125
X6.125Y-4.3
X6.16Y-4.1
X6.18Y-4.6
X6.18Y-5.0
X6.18Y-5.19
X6.22Y-4.99
X6.255Y-4.24
X6.275Y-5.05
X6.36Y-4.15
X6.375Y-4.35
X6.425Y-4.8
X6.46Y-4.125
X6.475Y-3.585
X6.55Y-4.2
X6.575Y-5.125
X6.65Y-4.175
X6.65Y-4.85
X6.7595Y-3.73
X6.825Y-4.285
X6.825Y-4.875
X6.875Y-5.1
X6.925Y-4.9
X6.975Y-4.825
X7.025Y-4.925
X7.125Y-3.4125
X7.1725Y-4.3025
X7.225Y-4.6225
X7.2264Y-3.7441
X7.3425Y-4.43
X7.41Y-4.35
X7.485Y-4.365
X7.485Y-4.7525
X7.525Y-3.7525
X7.525Y-3.925
X7.525Y-4.5
X7.62Y-3.89
X7.65Y-4.81
X7.675Y-3.145
X7.7275Y-4.13
X7.775Y-3.825
X7.8425Y-3.5575
X7.8525Y-3.89
X7.8825Y-3.2675
X7.8925Y-3.8575
X7.915Y-3.58
X7.9525Y-3.51
X8.09Y-4.3625
X8.1175Y-4.2
X8.175Y-4.775
X8.1975Y-4.15
X8.2Y-5.17
X8.2775Y-4.2
T2
X6.725Y-4.23
X6.725Y-4.5
X6.775Y-4.18
X6.775Y-4.55
X6.825Y-4.23
X6.825Y-4.5
X6.975Y-4.5
X7.025Y-4.55
X7.075Y-4.5
T3
X5.0516Y-4.6
X5.15Y-4.6
X5.15Y-4.7
X5.15Y-5.0
X5.25Y-4.7
X5.25Y-5.0
X5.35Y-4.7
X5.35Y-5.0
X5.45Y-4.7
X5.45Y-5.0
X5.55Y-4.7
X5.55Y-5.0
X5.625Y-3.9016
X5.625Y-4.0
X5.65Y-4.7
X5.65Y-5.0
X5.75Y-4.7
X5.75Y-5.0
X5.85Y-4.7
X5.85Y-5.0
X5.95Y-4.7
X5.95Y-5.0
X5.975Y-3.97
X5.9775Y-3.07
X6.05Y-4.7
X6.05Y-5.0
X6.075Y-2.81
X6.075Y-3.07
X6.075Y-3.81
X6.075Y-3.97
X6.095Y-3.2375
X6.095Y-3.38
X6.095Y-3.525
X6.095Y-3.67
X6.175Y-2.81
X6.175Y-3.07
X6.175Y-3.81
X6.175Y-3.97
X6.18Y-4.43
X6.2516Y-4.6
X6.275Y-2.81
X6.275Y-3.07
X6.275Y-3.81
X6.275Y-3.97
X6.35Y-4.6
X6.35Y-4.7
X6.35Y-5.0
X6.375Y-2.81
X6.375Y-3.07
X6.375Y-3.81
X6.375Y-3.97
X6.395Y-3.2375
X6.395Y-3.38
X6.395Y-3.525
X6.395Y-3.67
X6.45Y-4.7
X6.45Y-5.0
X6.475Y-2.81
X6.475Y-3.07
X6.475Y-3.81
X6.475Y-3.97
X6.48Y-4.43
X6.55Y-4.7
X6.55Y-5.0
X6.575Y-2.81
X6.575Y-3.07
X6.575Y-3.81
X6.575Y-3.97
X6.65Y-4.7
X6.65Y-5.0
X6.675Y-2.81
X6.675Y-3.07
X6.675Y-3.81
X6.675Y-3.97
X6.75Y-4.7
X6.75Y-5.0
X6.775Y-2.81
X6.775Y-3.07
X6.775Y-3.81
X6.775Y-3.97
X6.85Y-4.7
X6.85Y-5.0
X6.875Y-2.81
X6.875Y-3.07
X6.875Y-3.3425
X6.875Y-3.485
X6.875Y-3.625
X6.875Y-3.81
X6.875Y-3.97
X6.95Y-4.7
X6.95Y-5.0
X6.975Y-2.81
X6.975Y-3.07
X6.975Y-3.81
X6.975Y-3.97
X7.05Y-4.7
X7.05Y-5.0
X7.075Y-2.81
X7.075Y-3.07
X7.075Y-3.1925
X7.075Y-3.81
X7.075Y-3.97
X7.15Y-4.7
X7.15Y-5.0
X7.1725Y-4.1325
X7.175Y-2.81
X7.175Y-3.07
X7.175Y-3.3425
X7.175Y-3.485
X7.175Y-3.625
X7.175Y-3.81
X7.175Y-3.97
X7.25Y-4.7
X7.25Y-5.0
X7.275Y-2.81
X7.275Y-3.07
X7.275Y-3.81
X7.275Y-3.97
X7.3166Y-4.5
X7.375Y-2.81
X7.375Y-3.07
X7.375Y-3.1925
X7.375Y-3.625
X7.375Y-3.81
X7.375Y-3.97
X7.415Y-4.5
X7.4725Y-4.1325
X7.475Y-2.81
X7.475Y-3.07
X7.475Y-3.81
X7.475Y-3.97
X7.55Y-4.7
X7.55Y-5.0
X7.575Y-3.07
X7.575Y-3.97
X7.6Y-4.2725
X7.6Y-4.5725
X7.65Y-4.7
X7.65Y-5.0
X7.675Y-3.07
X7.675Y-3.625
X7.675Y-3.97
X7.7Y-4.2725
X7.7Y-4.5725
X7.75Y-4.7
X7.75Y-5.0
X7.775Y-3.07
X7.775Y-3.97
X7.8Y-4.2725
X7.8Y-4.5725
X7.85Y-4.7
X7.85Y-5.0
X7.9Y-4.2725
X7.9Y-4.5725
X7.95Y-4.7
X7.95Y-5.0
X8.0Y-4.2725
X8.0Y-4.5725
X8.05Y-4.7
X8.05Y-5.0
X8.1Y-4.2725
X8.1Y-4.5725
X8.15Y-4.7
X8.15Y-5.0
X8.2Y-4.2725
X8.2Y-4.5725
X8.25Y-4.7
X8.25Y-5.0
X8.3Y-4.2725
X8.3Y-4.5725
X8.35Y-4.7
X8.35Y-5.0
X8.4Y-4.2725
X8.4Y-4.5725
X8.45Y-4.7
X8.45Y-5.0
T4
X7.9941Y-2.872
X8.0441Y-2.872
X8.0941Y-2.872
X8.1441Y-2.872
T5
X5.39Y-2.825
X5.5672Y-2.825
T6
X5.55Y-5.3
X5.55Y-5.4
X5.65Y-5.3
X5.65Y-5.4
X5.75Y-5.3
X5.75Y-5.4
X5.835Y-2.835
X5.85Y-5.3
X5.85Y-5.4
X5.935Y-2.835
X5.95Y-5.3
X5.95Y-5.4
X6.05Y-4.48
X6.05Y-4.58
X6.05Y-5.3
X6.05Y-5.4
X6.15Y-5.3
X6.15Y-5.4
X6.25Y-5.3
X6.25Y-5.4
X6.35Y-5.3
X6.35Y-5.4
X6.45Y-5.3
X6.45Y-5.4
X6.55Y-5.3
X6.55Y-5.4
X6.65Y-5.3
X6.65Y-5.4
X6.75Y-5.3
X6.75Y-5.4
X6.85Y-5.3
X6.85Y-5.4
X6.95Y-5.3
X6.95Y-5.4
X7.05Y-5.3
X7.05Y-5.4
X7.15Y-5.3
X7.15Y-5.4
X7.25Y-5.3
X7.25Y-5.4
X7.35Y-5.3
X7.35Y-5.4
X7.45Y-5.3
X7.45Y-5.4
X7.55Y-5.3
X7.55Y-5.4
X7.65Y-5.3
X7.65Y-5.4
X7.75Y-5.3
X7.75Y-5.4
X7.85Y-5.3
X7.85Y-5.4
X7.95Y-5.3
X7.95Y-5.4
X8.145Y-5.3
X8.145Y-5.4
T7
X5.215Y-3.755
X5.215Y-3.9322
X5.4709Y-3.755
X5.4709Y-3.9322
T8
X5.3408Y-2.923
X5.6168Y-2.923
T0
M30
