M48
; DRILL file {KiCad (6.0.11)} date Sun Mar 19 12:43:12 2023
; FORMAT={-:-/ absolute / inch / decimal}
; #@! TF.CreationDate,2023-03-19T12:43:12-07:00
; #@! TF.GenerationSoftware,Kicad,Pcbnew,(6.0.11)
; #@! TF.FileFunction,Plated,1,2,PTH
FMAT,2
INCH
; #@! TA.AperFunction,Plated,PTH,ComponentDrill
T1C0.0118
; #@! TA.AperFunction,Plated,PTH,ViaDrill
T2C0.0157
; #@! TA.AperFunction,Plated,PTH,ComponentDrill
T3C0.0197
; #@! TA.AperFunction,Plated,PTH,ComponentDrill
T4C0.0236
; #@! TA.AperFunction,Plated,PTH,ComponentDrill
T5C0.0354
; #@! TA.AperFunction,Plated,PTH,ComponentDrill
T6C0.0394
; #@! TA.AperFunction,Plated,PTH,ComponentDrill
T7C0.0433
; #@! TA.AperFunction,Plated,PTH,ComponentDrill
T8C0.0787
; #@! TA.AperFunction,Plated,PTH,ComponentDrill
T9C0.0866
; #@! TA.AperFunction,Plated,PTH,ComponentDrill
T10C0.1181
%
G90
G05
T1
X7.4668Y-3.5075
X7.4668Y-3.5469
X7.4668Y-3.5863
X7.4668Y-3.6256
X7.4668Y-3.665
X7.5061Y-3.5075
X7.5061Y-3.5469
X7.5061Y-3.5863
X7.5061Y-3.6256
X7.5061Y-3.665
X7.5455Y-3.5075
X7.5455Y-3.5469
X7.5455Y-3.5863
X7.5455Y-3.6256
X7.5455Y-3.665
X7.5849Y-3.5075
X7.5849Y-3.5469
X7.5849Y-3.5863
X7.5849Y-3.6256
X7.5849Y-3.665
X7.6242Y-3.5075
X7.6242Y-3.5469
X7.6242Y-3.5863
X7.6242Y-3.6256
X7.6242Y-3.665
T2
X2.5154Y-2.762
X2.7625Y-2.3375
X2.8Y-2.3125
X2.8375Y-2.2875
X2.9369Y-1.9455
X2.987Y-3.788
X3.0279Y-3.7596
X3.068Y-3.732
X3.2374Y-2.764
X3.2374Y-2.858
X3.2374Y-2.958
X3.2374Y-3.06
X3.2869Y-3.2955
X3.2869Y-3.5955
X3.3Y-4.466
X3.3Y-4.516
X3.5334Y-3.35
X3.584Y-3.96
X3.6914Y-3.6678
X3.712Y-3.732
X3.7316Y-3.6676
X3.7456Y-3.7596
X3.78Y-3.788
X3.8234Y-5.5426
X3.89Y-3.662
X3.9739Y-2.946
X3.9774Y-3.204
X3.9837Y-4.08
X3.9854Y-3.6672
X4.0154Y-4.692
X4.0214Y-3.204
X4.063Y-3.2044
X4.082Y-4.382
X4.1134Y-3.206
X4.1274Y-3.35
X4.136Y-3.81
X4.1369Y-1.9455
X4.1635Y-3.862
X4.1911Y-3.902
X4.2174Y-3.206
X4.228Y-3.96
X4.2654Y-3.522
X4.3125Y-3.6672
X4.3134Y-4.932
X4.3174Y-3.536
X4.3194Y-3.35
X4.325Y-5.0875
X4.3254Y-5.1996
X4.35Y-3.6965
X4.368Y-3.854
X4.368Y-4.028
X4.368Y-4.204
X4.3875Y-3.434
X4.3875Y-3.6739
X4.3875Y-3.725
X4.4774Y-2.744
X4.6Y-3.525
X4.6454Y-3.4
X4.675Y-3.3625
X4.7194Y-3.4
X4.7394Y-2.946
X4.75Y-3.3625
X4.7714Y-2.022
X4.7874Y-3.4
X4.8163Y-3.3625
X4.8574Y-3.4
X4.8664Y-2.025
X4.8849Y-3.3625
X4.8974Y-2.882
X4.9125Y-3.4
X4.9134Y-4.018
X4.95Y-4.9625
X4.9674Y-2.026
X4.975Y-3.45
X5.0069Y-3.6282
X5.0074Y-4.983
X5.0154Y-2.744
X5.05Y-3.525
X5.0869Y-4.983
X5.1054Y-5.284
X5.1194Y-4.0
X5.15Y-3.3625
X5.1744Y-4.983
X5.1994Y-4.3235
X5.2014Y-3.5
X5.25Y-3.3625
X5.2534Y-4.983
X5.2874Y-2.946
X5.3119Y-5.458
X5.3369Y-4.983
X5.371Y-4.226
X5.375Y-2.2375
X5.4Y-2.6215
X5.4244Y-4.983
X5.4414Y-2.886
X5.4994Y-4.983
X5.55Y-3.5
X5.5614Y-2.746
X5.5869Y-4.983
X5.6Y-2.2375
X5.6375Y-3.494
X5.6741Y-2.625
X5.6744Y-4.7722
X5.6744Y-4.983
X5.7314Y-2.6108
X5.7375Y-4.9625
X5.7611Y-2.6393
X5.7625Y-2.25
X5.7875Y-3.4375
X5.7886Y-2.6678
X5.8125Y-2.25
X5.8264Y-2.6836
X5.8294Y-2.946
X5.8382Y-3.3888
X5.8875Y-2.7125
X5.9854Y-2.882
X5.9869Y-3.283
X5.9869Y-3.5955
X6.0354Y-2.002
X6.0875Y-2.7125
X6.1499Y-5.0981
X6.1505Y-4.2875
X6.1854Y-2.2995
X6.2426Y-2.6108
X6.2875Y-2.9
X6.2875Y-3.25
X6.2997Y-2.6108
X6.3Y-3.3897
X6.3Y-3.475
X6.3625Y-2.6125
X6.4108Y-2.2375
X6.4874Y-2.5315
X6.525Y-2.6375
X6.5309Y-2.3135
X6.5856Y-2.484
X6.6334Y-2.306
X6.6625Y-3.4365
X6.6625Y-3.5095
X6.6856Y-2.5715
X6.7114Y-3.5136
X6.7114Y-5.0511
X6.7114Y-5.2136
X6.7125Y-2.9
X6.7125Y-3.25
X6.7125Y-3.39
X6.7734Y-3.736
X6.7874Y-2.484
X6.8034Y-3.338
X6.8034Y-3.85
X6.8365Y-3.7878
X6.8403Y-2.4683
X6.8714Y-3.3655
X6.8834Y-2.5395
X6.9403Y-2.4525
X6.9594Y-3.3935
X6.9594Y-5.1375
X6.9707Y-3.1215
X6.9856Y-2.5102
X7.0Y-5.175
X7.0014Y-3.3935
X7.0094Y-3.1055
X7.0354Y-2.2771
X7.0354Y-2.4705
X7.0625Y-2.9
X7.0809Y-3.1325
X7.0856Y-2.5655
X7.0954Y-4.068
X7.1066Y-3.8748
X7.1334Y-2.408
X7.14Y-3.166
X7.1856Y-2.5362
X7.2174Y-3.366
X7.2194Y-4.398
X7.2394Y-2.314
X7.266Y-2.9665
X7.2856Y-2.4053
X7.306Y-3.074
X7.3094Y-4.536
X7.3134Y-4.102
X7.317Y-2.933
X7.3309Y-2.3895
X7.3676Y-3.8322
X7.3724Y-2.4099
X7.3744Y-2.3619
X7.375Y-2.3125
X7.4176Y-3.8598
X7.4398Y-4.1487
X7.4398Y-4.746
X7.4654Y-4.054
X7.4674Y-4.832
X7.5421Y-4.3204
X7.5421Y-5.0204
X7.625Y-3.15
X7.675Y-3.5125
X7.7189Y-3.362
X7.725Y-3.5125
X7.8134Y-2.648
X7.8174Y-3.144
X8.0114Y-4.348
X8.0114Y-4.96
T3
X2.5108Y-2.176
X2.5108Y-5.57
X2.5367Y-2.1134
X2.5367Y-2.2386
X2.5367Y-5.5074
X2.5367Y-5.6326
X2.5994Y-2.0874
X2.5994Y-2.2646
X2.5994Y-5.4814
X2.5994Y-5.6586
X2.662Y-2.1134
X2.662Y-2.2386
X2.662Y-5.5074
X2.662Y-5.6326
X2.688Y-2.176
X2.688Y-5.57
X7.8168Y-2.178
X7.8168Y-5.57
X7.8427Y-2.1154
X7.8427Y-2.2406
X7.8427Y-5.5074
X7.8427Y-5.6326
X7.9054Y-2.0894
X7.9054Y-2.2666
X7.9054Y-5.4814
X7.9054Y-5.6586
X7.968Y-2.1154
X7.968Y-2.2406
X7.968Y-5.5074
X7.968Y-5.6326
X7.994Y-2.178
X7.994Y-5.57
T5
X2.7379Y-4.9349
X2.7379Y-4.9849
X2.7379Y-5.0349
X2.7379Y-5.0849
X6.2195Y-5.345
X6.2195Y-5.4434
X6.3022Y-5.4434
X6.4046Y-5.4434
X6.4872Y-5.345
X6.4872Y-5.4434
T6
X2.7292Y-3.965
X2.7292Y-4.065
X2.7292Y-4.165
X2.7292Y-4.265
X2.7292Y-4.365
X2.7292Y-4.465
X2.8292Y-3.965
X2.8292Y-4.065
X2.8292Y-4.165
X2.8292Y-4.265
X2.8292Y-4.365
X2.8292Y-4.465
X2.8834Y-2.082
X2.8834Y-2.182
X2.9834Y-2.082
X2.9834Y-2.182
X3.0834Y-2.082
X3.0834Y-2.182
X3.1834Y-2.082
X3.1834Y-2.182
X3.2834Y-2.082
X3.2834Y-2.182
X3.3834Y-2.082
X3.3834Y-2.182
X3.4834Y-2.082
X3.4834Y-2.182
X3.5834Y-2.082
X3.5834Y-2.182
X3.6834Y-2.082
X3.6834Y-2.182
X3.7834Y-2.082
X3.7834Y-2.182
X3.8834Y-2.082
X3.8834Y-2.182
X3.9834Y-2.082
X3.9834Y-2.182
X4.0834Y-2.082
X4.0834Y-2.182
X4.1834Y-2.082
X4.1834Y-2.182
X4.2834Y-2.082
X4.2834Y-2.182
X4.3834Y-2.082
X4.3834Y-2.182
X4.4834Y-2.082
X4.4834Y-2.182
X4.5834Y-2.082
X4.5834Y-2.182
X4.6834Y-2.082
X4.6834Y-2.182
X4.7834Y-2.082
X4.7834Y-2.182
X4.8834Y-2.082
X4.8834Y-2.182
X4.9834Y-2.082
X4.9834Y-2.182
X5.0834Y-2.082
X5.0834Y-2.182
X5.1834Y-2.082
X5.1834Y-2.182
X5.2834Y-2.082
X5.2834Y-2.182
X5.6856Y-2.082
X5.6856Y-2.182
X5.7856Y-2.082
X5.7856Y-2.182
X5.8856Y-2.082
X5.8856Y-2.182
X5.9856Y-2.082
X5.9856Y-2.182
X6.0856Y-2.082
X6.0856Y-2.182
X6.1565Y-5.345
X6.1856Y-2.082
X6.1856Y-2.182
X6.255Y-5.6442
X6.2856Y-2.082
X6.2856Y-2.182
X6.3856Y-2.082
X6.3856Y-2.182
X6.4518Y-5.6442
X6.4856Y-2.082
X6.4856Y-2.182
X6.5502Y-5.345
X6.5856Y-2.082
X6.5856Y-2.182
X6.6856Y-2.082
X6.6856Y-2.182
X6.7856Y-2.082
X6.7856Y-2.182
X6.8211Y-4.5383
X6.8211Y-4.6383
X6.8211Y-4.7383
X6.8211Y-4.8383
X6.8856Y-2.082
X6.8856Y-2.182
X6.9856Y-2.082
X6.9856Y-2.182
X7.0856Y-2.082
X7.0856Y-2.182
X7.1856Y-2.082
X7.1856Y-2.182
X7.2856Y-2.082
X7.2856Y-2.182
X7.3856Y-2.082
X7.3856Y-2.182
X7.4856Y-2.082
X7.4856Y-2.182
X7.5856Y-2.082
X7.5856Y-2.182
T7
X6.9188Y-5.314
X6.9188Y-5.57
X7.096Y-5.314
X7.096Y-5.57
X7.3368Y-5.32
X7.3368Y-5.576
X7.514Y-5.32
X7.514Y-5.576
T8
X4.1446Y-5.417
X4.1446Y-5.6335
X4.2234Y-5.2713
X4.2234Y-5.4878
X4.2234Y-5.728
X6.0778Y-5.5615
X6.629Y-5.5615
T9
X6.3534Y-5.593
T10
X2.5994Y-2.176
X2.5994Y-5.57
X7.9054Y-2.178
X7.9054Y-5.57
T3
G00X8.0226Y-2.5593
M15
G01X8.0502Y-2.5593
M16
G05
G00X8.0226Y-2.8407
M15
G01X8.0502Y-2.8407
M16
G05
T4
G00X7.9242Y-2.6045
M15
G01X7.932Y-2.6045
M16
G05
G00X7.9242Y-2.7955
M15
G01X7.932Y-2.7955
M16
G05
T5
G00X4.9579Y-5.3674
M15
G01X4.9579Y-5.4383
M16
G05
G00X4.9579Y-5.6218
M15
G01X4.9579Y-5.6533
M16
G05
G00X5.5288Y-5.3674
M15
G01X5.5288Y-5.4383
M16
G05
G00X5.5288Y-5.6218
M15
G01X5.5288Y-5.6533
M16
G05
T0
M30
