%TF.GenerationSoftware,KiCad,Pcbnew,(6.0.11)*%
%TF.CreationDate,2023-03-16T22:20:47-07:00*%
%TF.ProjectId,TRS-IO++,5452532d-494f-42b2-9b2e-6b696361645f,rev?*%
%TF.SameCoordinates,Original*%
%TF.FileFunction,Legend,Top*%
%TF.FilePolarity,Positive*%
%FSLAX46Y46*%
G04 Gerber Fmt 4.6, Leading zero omitted, Abs format (unit mm)*
G04 Created by KiCad (PCBNEW (6.0.11)) date 2023-03-16 22:20:47*
%MOMM*%
%LPD*%
G01*
G04 APERTURE LIST*
%ADD10C,0.150000*%
%ADD11C,0.300000*%
%ADD12C,0.120000*%
%ADD13C,0.050000*%
G04 APERTURE END LIST*
D10*
X149774414Y-70200780D02*
X149202985Y-70200780D01*
X149488700Y-70200780D02*
X149488700Y-69200780D01*
X149393461Y-69343638D01*
X149298223Y-69438876D01*
X149202985Y-69486495D01*
X62538185Y-72140819D02*
X62585804Y-72093200D01*
X62681042Y-72045580D01*
X62919138Y-72045580D01*
X63014376Y-72093200D01*
X63061995Y-72140819D01*
X63109614Y-72236057D01*
X63109614Y-72331295D01*
X63061995Y-72474152D01*
X62490566Y-73045580D01*
X63109614Y-73045580D01*
X67087714Y-113990380D02*
X66516285Y-113990380D01*
X66802000Y-113990380D02*
X66802000Y-112990380D01*
X66706761Y-113133238D01*
X66611523Y-113228476D01*
X66516285Y-113276095D01*
X185828528Y-144708571D02*
X186161861Y-144708571D01*
X186304719Y-145232380D02*
X185828528Y-145232380D01*
X185828528Y-144232380D01*
X186304719Y-144232380D01*
X186685671Y-145184761D02*
X186828528Y-145232380D01*
X187066623Y-145232380D01*
X187161861Y-145184761D01*
X187209480Y-145137142D01*
X187257100Y-145041904D01*
X187257100Y-144946666D01*
X187209480Y-144851428D01*
X187161861Y-144803809D01*
X187066623Y-144756190D01*
X186876147Y-144708571D01*
X186780909Y-144660952D01*
X186733290Y-144613333D01*
X186685671Y-144518095D01*
X186685671Y-144422857D01*
X186733290Y-144327619D01*
X186780909Y-144280000D01*
X186876147Y-144232380D01*
X187114242Y-144232380D01*
X187257100Y-144280000D01*
X187685671Y-145232380D02*
X187685671Y-144232380D01*
X188066623Y-144232380D01*
X188161861Y-144280000D01*
X188209480Y-144327619D01*
X188257100Y-144422857D01*
X188257100Y-144565714D01*
X188209480Y-144660952D01*
X188161861Y-144708571D01*
X188066623Y-144756190D01*
X187685671Y-144756190D01*
X190019004Y-145232380D02*
X189685671Y-144756190D01*
X189447576Y-145232380D02*
X189447576Y-144232380D01*
X189828528Y-144232380D01*
X189923766Y-144280000D01*
X189971385Y-144327619D01*
X190019004Y-144422857D01*
X190019004Y-144565714D01*
X189971385Y-144660952D01*
X189923766Y-144708571D01*
X189828528Y-144756190D01*
X189447576Y-144756190D01*
X190399957Y-145184761D02*
X190542814Y-145232380D01*
X190780909Y-145232380D01*
X190876147Y-145184761D01*
X190923766Y-145137142D01*
X190971385Y-145041904D01*
X190971385Y-144946666D01*
X190923766Y-144851428D01*
X190876147Y-144803809D01*
X190780909Y-144756190D01*
X190590433Y-144708571D01*
X190495195Y-144660952D01*
X190447576Y-144613333D01*
X190399957Y-144518095D01*
X190399957Y-144422857D01*
X190447576Y-144327619D01*
X190495195Y-144280000D01*
X190590433Y-144232380D01*
X190828528Y-144232380D01*
X190971385Y-144280000D01*
X191257100Y-144232380D02*
X191828528Y-144232380D01*
X191542814Y-145232380D02*
X191542814Y-144232380D01*
X62963576Y-77509714D02*
X62963576Y-78176380D01*
X62725480Y-77128761D02*
X62487385Y-77843047D01*
X63106433Y-77843047D01*
D11*
X88394071Y-63147471D02*
X89251214Y-63147471D01*
X88822642Y-64647471D02*
X88822642Y-63147471D01*
X90608357Y-64647471D02*
X90108357Y-63933185D01*
X89751214Y-64647471D02*
X89751214Y-63147471D01*
X90322642Y-63147471D01*
X90465500Y-63218900D01*
X90536928Y-63290328D01*
X90608357Y-63433185D01*
X90608357Y-63647471D01*
X90536928Y-63790328D01*
X90465500Y-63861757D01*
X90322642Y-63933185D01*
X89751214Y-63933185D01*
X91179785Y-64576042D02*
X91394071Y-64647471D01*
X91751214Y-64647471D01*
X91894071Y-64576042D01*
X91965500Y-64504614D01*
X92036928Y-64361757D01*
X92036928Y-64218900D01*
X91965500Y-64076042D01*
X91894071Y-64004614D01*
X91751214Y-63933185D01*
X91465500Y-63861757D01*
X91322642Y-63790328D01*
X91251214Y-63718900D01*
X91179785Y-63576042D01*
X91179785Y-63433185D01*
X91251214Y-63290328D01*
X91322642Y-63218900D01*
X91465500Y-63147471D01*
X91822642Y-63147471D01*
X92036928Y-63218900D01*
X92679785Y-64076042D02*
X93822642Y-64076042D01*
X94536928Y-64647471D02*
X94536928Y-63147471D01*
X95536928Y-63147471D02*
X95822642Y-63147471D01*
X95965500Y-63218900D01*
X96108357Y-63361757D01*
X96179785Y-63647471D01*
X96179785Y-64147471D01*
X96108357Y-64433185D01*
X95965500Y-64576042D01*
X95822642Y-64647471D01*
X95536928Y-64647471D01*
X95394071Y-64576042D01*
X95251214Y-64433185D01*
X95179785Y-64147471D01*
X95179785Y-63647471D01*
X95251214Y-63361757D01*
X95394071Y-63218900D01*
X95536928Y-63147471D01*
X96822642Y-64076042D02*
X97965500Y-64076042D01*
X97394071Y-64647471D02*
X97394071Y-63504614D01*
X98679785Y-64076042D02*
X99822642Y-64076042D01*
X99251214Y-64647471D02*
X99251214Y-63504614D01*
X101465500Y-63147471D02*
X101965500Y-64647471D01*
X102465500Y-63147471D01*
X103251214Y-63147471D02*
X103394071Y-63147471D01*
X103536928Y-63218900D01*
X103608357Y-63290328D01*
X103679785Y-63433185D01*
X103751214Y-63718900D01*
X103751214Y-64076042D01*
X103679785Y-64361757D01*
X103608357Y-64504614D01*
X103536928Y-64576042D01*
X103394071Y-64647471D01*
X103251214Y-64647471D01*
X103108357Y-64576042D01*
X103036928Y-64504614D01*
X102965500Y-64361757D01*
X102894071Y-64076042D01*
X102894071Y-63718900D01*
X102965500Y-63433185D01*
X103036928Y-63290328D01*
X103108357Y-63218900D01*
X103251214Y-63147471D01*
X104394071Y-64504614D02*
X104465500Y-64576042D01*
X104394071Y-64647471D01*
X104322642Y-64576042D01*
X104394071Y-64504614D01*
X104394071Y-64647471D01*
X104965500Y-63147471D02*
X105894071Y-63147471D01*
X105394071Y-63718900D01*
X105608357Y-63718900D01*
X105751214Y-63790328D01*
X105822642Y-63861757D01*
X105894071Y-64004614D01*
X105894071Y-64361757D01*
X105822642Y-64504614D01*
X105751214Y-64576042D01*
X105608357Y-64647471D01*
X105179785Y-64647471D01*
X105036928Y-64576042D01*
X104965500Y-64504614D01*
X90822642Y-67062471D02*
X90822642Y-65562471D01*
X91322642Y-66633900D01*
X91822642Y-65562471D01*
X91822642Y-67062471D01*
X93179785Y-67062471D02*
X93179785Y-66276757D01*
X93108357Y-66133900D01*
X92965500Y-66062471D01*
X92679785Y-66062471D01*
X92536928Y-66133900D01*
X93179785Y-66991042D02*
X93036928Y-67062471D01*
X92679785Y-67062471D01*
X92536928Y-66991042D01*
X92465500Y-66848185D01*
X92465500Y-66705328D01*
X92536928Y-66562471D01*
X92679785Y-66491042D01*
X93036928Y-66491042D01*
X93179785Y-66419614D01*
X93894071Y-67062471D02*
X93894071Y-66062471D01*
X93894071Y-66348185D02*
X93965500Y-66205328D01*
X94036928Y-66133900D01*
X94179785Y-66062471D01*
X94322642Y-66062471D01*
X95465500Y-66991042D02*
X95322642Y-67062471D01*
X95036928Y-67062471D01*
X94894071Y-66991042D01*
X94822642Y-66919614D01*
X94751214Y-66776757D01*
X94751214Y-66348185D01*
X94822642Y-66205328D01*
X94894071Y-66133900D01*
X95036928Y-66062471D01*
X95322642Y-66062471D01*
X95465500Y-66133900D01*
X96108357Y-67062471D02*
X96108357Y-65562471D01*
X96751214Y-67062471D02*
X96751214Y-66276757D01*
X96679785Y-66133900D01*
X96536928Y-66062471D01*
X96322642Y-66062471D01*
X96179785Y-66133900D01*
X96108357Y-66205328D01*
X98536928Y-65705328D02*
X98608357Y-65633900D01*
X98751214Y-65562471D01*
X99108357Y-65562471D01*
X99251214Y-65633900D01*
X99322642Y-65705328D01*
X99394071Y-65848185D01*
X99394071Y-65991042D01*
X99322642Y-66205328D01*
X98465500Y-67062471D01*
X99394071Y-67062471D01*
X100322642Y-65562471D02*
X100465500Y-65562471D01*
X100608357Y-65633900D01*
X100679785Y-65705328D01*
X100751214Y-65848185D01*
X100822642Y-66133900D01*
X100822642Y-66491042D01*
X100751214Y-66776757D01*
X100679785Y-66919614D01*
X100608357Y-66991042D01*
X100465500Y-67062471D01*
X100322642Y-67062471D01*
X100179785Y-66991042D01*
X100108357Y-66919614D01*
X100036928Y-66776757D01*
X99965500Y-66491042D01*
X99965500Y-66133900D01*
X100036928Y-65848185D01*
X100108357Y-65705328D01*
X100179785Y-65633900D01*
X100322642Y-65562471D01*
X101394071Y-65705328D02*
X101465500Y-65633900D01*
X101608357Y-65562471D01*
X101965500Y-65562471D01*
X102108357Y-65633900D01*
X102179785Y-65705328D01*
X102251214Y-65848185D01*
X102251214Y-65991042D01*
X102179785Y-66205328D01*
X101322642Y-67062471D01*
X102251214Y-67062471D01*
X102751214Y-65562471D02*
X103679785Y-65562471D01*
X103179785Y-66133900D01*
X103394071Y-66133900D01*
X103536928Y-66205328D01*
X103608357Y-66276757D01*
X103679785Y-66419614D01*
X103679785Y-66776757D01*
X103608357Y-66919614D01*
X103536928Y-66991042D01*
X103394071Y-67062471D01*
X102965500Y-67062471D01*
X102822642Y-66991042D01*
X102751214Y-66919614D01*
D10*
X62439766Y-74687180D02*
X63058814Y-74687180D01*
X62725480Y-75068133D01*
X62868338Y-75068133D01*
X62963576Y-75115752D01*
X63011195Y-75163371D01*
X63058814Y-75258609D01*
X63058814Y-75496704D01*
X63011195Y-75591942D01*
X62963576Y-75639561D01*
X62868338Y-75687180D01*
X62582623Y-75687180D01*
X62487385Y-75639561D01*
X62439766Y-75591942D01*
X176055123Y-114765200D02*
X175959885Y-114717580D01*
X175817028Y-114717580D01*
X175674171Y-114765200D01*
X175578933Y-114860438D01*
X175531314Y-114955676D01*
X175483695Y-115146152D01*
X175483695Y-115289009D01*
X175531314Y-115479485D01*
X175578933Y-115574723D01*
X175674171Y-115669961D01*
X175817028Y-115717580D01*
X175912266Y-115717580D01*
X176055123Y-115669961D01*
X176102742Y-115622342D01*
X176102742Y-115289009D01*
X175912266Y-115289009D01*
X176531314Y-115717580D02*
X176531314Y-114717580D01*
X177102742Y-115717580D01*
X177102742Y-114717580D01*
X177578933Y-115717580D02*
X177578933Y-114717580D01*
X177817028Y-114717580D01*
X177959885Y-114765200D01*
X178055123Y-114860438D01*
X178102742Y-114955676D01*
X178150361Y-115146152D01*
X178150361Y-115289009D01*
X178102742Y-115479485D01*
X178055123Y-115574723D01*
X177959885Y-115669961D01*
X177817028Y-115717580D01*
X177578933Y-115717580D01*
X144643614Y-49423579D02*
X144595995Y-49471199D01*
X144500757Y-49518818D01*
X144262661Y-49518818D01*
X144167423Y-49471199D01*
X144119804Y-49423579D01*
X144072185Y-49328341D01*
X144072185Y-49233103D01*
X144119804Y-49090246D01*
X144691233Y-48518818D01*
X144072185Y-48518818D01*
X122190014Y-70200780D02*
X121618585Y-70200780D01*
X121904300Y-70200780D02*
X121904300Y-69200780D01*
X121809061Y-69343638D01*
X121713823Y-69438876D01*
X121618585Y-69486495D01*
X175388457Y-117308380D02*
X175721790Y-118308380D01*
X176055123Y-117308380D01*
X176959885Y-118213142D02*
X176912266Y-118260761D01*
X176769409Y-118308380D01*
X176674171Y-118308380D01*
X176531314Y-118260761D01*
X176436076Y-118165523D01*
X176388457Y-118070285D01*
X176340838Y-117879809D01*
X176340838Y-117736952D01*
X176388457Y-117546476D01*
X176436076Y-117451238D01*
X176531314Y-117356000D01*
X176674171Y-117308380D01*
X176769409Y-117308380D01*
X176912266Y-117356000D01*
X176959885Y-117403619D01*
X177959885Y-118213142D02*
X177912266Y-118260761D01*
X177769409Y-118308380D01*
X177674171Y-118308380D01*
X177531314Y-118260761D01*
X177436076Y-118165523D01*
X177388457Y-118070285D01*
X177340838Y-117879809D01*
X177340838Y-117736952D01*
X177388457Y-117546476D01*
X177436076Y-117451238D01*
X177531314Y-117356000D01*
X177674171Y-117308380D01*
X177769409Y-117308380D01*
X177912266Y-117356000D01*
X177959885Y-117403619D01*
X178864647Y-117308380D02*
X178388457Y-117308380D01*
X178340838Y-117784571D01*
X178388457Y-117736952D01*
X178483695Y-117689333D01*
X178721790Y-117689333D01*
X178817028Y-117736952D01*
X178864647Y-117784571D01*
X178912266Y-117879809D01*
X178912266Y-118117904D01*
X178864647Y-118213142D01*
X178817028Y-118260761D01*
X178721790Y-118308380D01*
X178483695Y-118308380D01*
X178388457Y-118260761D01*
X178340838Y-118213142D01*
X176102742Y-123388380D02*
X175769409Y-122912190D01*
X175531314Y-123388380D02*
X175531314Y-122388380D01*
X175912266Y-122388380D01*
X176007504Y-122436000D01*
X176055123Y-122483619D01*
X176102742Y-122578857D01*
X176102742Y-122721714D01*
X176055123Y-122816952D01*
X176007504Y-122864571D01*
X175912266Y-122912190D01*
X175531314Y-122912190D01*
X176436076Y-122388380D02*
X177102742Y-123388380D01*
X177102742Y-122388380D02*
X176436076Y-123388380D01*
X177483695Y-123388380D02*
X177483695Y-122388380D01*
X177721790Y-122388380D01*
X177864647Y-122436000D01*
X177959885Y-122531238D01*
X178007504Y-122626476D01*
X178055123Y-122816952D01*
X178055123Y-122959809D01*
X178007504Y-123150285D01*
X177959885Y-123245523D01*
X177864647Y-123340761D01*
X177721790Y-123388380D01*
X177483695Y-123388380D01*
X135956814Y-70200780D02*
X135385385Y-70200780D01*
X135671100Y-70200780D02*
X135671100Y-69200780D01*
X135575861Y-69343638D01*
X135480623Y-69438876D01*
X135385385Y-69486495D01*
X132390064Y-100579180D02*
X131818635Y-100579180D01*
X132104350Y-100579180D02*
X132104350Y-99579180D01*
X132009111Y-99722038D01*
X131913873Y-99817276D01*
X131818635Y-99864895D01*
X68805657Y-97937580D02*
X68805657Y-96937580D01*
X69186609Y-96937580D01*
X69281847Y-96985200D01*
X69329466Y-97032819D01*
X69377085Y-97128057D01*
X69377085Y-97270914D01*
X69329466Y-97366152D01*
X69281847Y-97413771D01*
X69186609Y-97461390D01*
X68805657Y-97461390D01*
X69805657Y-97937580D02*
X69805657Y-96937580D01*
X70138990Y-97651866D01*
X70472323Y-96937580D01*
X70472323Y-97937580D01*
X71138990Y-96937580D02*
X71329466Y-96937580D01*
X71424704Y-96985200D01*
X71519942Y-97080438D01*
X71567561Y-97270914D01*
X71567561Y-97604247D01*
X71519942Y-97794723D01*
X71424704Y-97889961D01*
X71329466Y-97937580D01*
X71138990Y-97937580D01*
X71043752Y-97889961D01*
X70948514Y-97794723D01*
X70900895Y-97604247D01*
X70900895Y-97270914D01*
X70948514Y-97080438D01*
X71043752Y-96985200D01*
X71138990Y-96937580D01*
X71996133Y-97937580D02*
X71996133Y-96937580D01*
X72234228Y-96937580D01*
X72377085Y-96985200D01*
X72472323Y-97080438D01*
X72519942Y-97175676D01*
X72567561Y-97366152D01*
X72567561Y-97509009D01*
X72519942Y-97699485D01*
X72472323Y-97794723D01*
X72377085Y-97889961D01*
X72234228Y-97937580D01*
X71996133Y-97937580D01*
X174528757Y-144528980D02*
X174528757Y-143528980D01*
X174909709Y-143528980D01*
X175004947Y-143576600D01*
X175052566Y-143624219D01*
X175100185Y-143719457D01*
X175100185Y-143862314D01*
X175052566Y-143957552D01*
X175004947Y-144005171D01*
X174909709Y-144052790D01*
X174528757Y-144052790D01*
X175385900Y-143528980D02*
X175957328Y-143528980D01*
X175671614Y-144528980D02*
X175671614Y-143528980D01*
X176862090Y-144528980D02*
X176528757Y-144052790D01*
X176290661Y-144528980D02*
X176290661Y-143528980D01*
X176671614Y-143528980D01*
X176766852Y-143576600D01*
X176814471Y-143624219D01*
X176862090Y-143719457D01*
X176862090Y-143862314D01*
X176814471Y-143957552D01*
X176766852Y-144005171D01*
X176671614Y-144052790D01*
X176290661Y-144052790D01*
X177243042Y-144481361D02*
X177385900Y-144528980D01*
X177623995Y-144528980D01*
X177719233Y-144481361D01*
X177766852Y-144433742D01*
X177814471Y-144338504D01*
X177814471Y-144243266D01*
X177766852Y-144148028D01*
X177719233Y-144100409D01*
X177623995Y-144052790D01*
X177433519Y-144005171D01*
X177338280Y-143957552D01*
X177290661Y-143909933D01*
X177243042Y-143814695D01*
X177243042Y-143719457D01*
X177290661Y-143624219D01*
X177338280Y-143576600D01*
X177433519Y-143528980D01*
X177671614Y-143528980D01*
X177814471Y-143576600D01*
X179576376Y-144528980D02*
X179243042Y-144052790D01*
X179004947Y-144528980D02*
X179004947Y-143528980D01*
X179385900Y-143528980D01*
X179481138Y-143576600D01*
X179528757Y-143624219D01*
X179576376Y-143719457D01*
X179576376Y-143862314D01*
X179528757Y-143957552D01*
X179481138Y-144005171D01*
X179385900Y-144052790D01*
X179004947Y-144052790D01*
X179957328Y-144481361D02*
X180100185Y-144528980D01*
X180338280Y-144528980D01*
X180433519Y-144481361D01*
X180481138Y-144433742D01*
X180528757Y-144338504D01*
X180528757Y-144243266D01*
X180481138Y-144148028D01*
X180433519Y-144100409D01*
X180338280Y-144052790D01*
X180147804Y-144005171D01*
X180052566Y-143957552D01*
X180004947Y-143909933D01*
X179957328Y-143814695D01*
X179957328Y-143719457D01*
X180004947Y-143624219D01*
X180052566Y-143576600D01*
X180147804Y-143528980D01*
X180385900Y-143528980D01*
X180528757Y-143576600D01*
X180814471Y-143528980D02*
X181385900Y-143528980D01*
X181100185Y-144528980D02*
X181100185Y-143528980D01*
X175719233Y-146091361D02*
X175862090Y-146138980D01*
X176100185Y-146138980D01*
X176195423Y-146091361D01*
X176243042Y-146043742D01*
X176290661Y-145948504D01*
X176290661Y-145853266D01*
X176243042Y-145758028D01*
X176195423Y-145710409D01*
X176100185Y-145662790D01*
X175909709Y-145615171D01*
X175814471Y-145567552D01*
X175766852Y-145519933D01*
X175719233Y-145424695D01*
X175719233Y-145329457D01*
X175766852Y-145234219D01*
X175814471Y-145186600D01*
X175909709Y-145138980D01*
X176147804Y-145138980D01*
X176290661Y-145186600D01*
X176576376Y-145472314D02*
X176957328Y-145472314D01*
X176719233Y-145138980D02*
X176719233Y-145996123D01*
X176766852Y-146091361D01*
X176862090Y-146138980D01*
X176957328Y-146138980D01*
X177719233Y-146138980D02*
X177719233Y-145615171D01*
X177671614Y-145519933D01*
X177576376Y-145472314D01*
X177385900Y-145472314D01*
X177290661Y-145519933D01*
X177719233Y-146091361D02*
X177623995Y-146138980D01*
X177385900Y-146138980D01*
X177290661Y-146091361D01*
X177243042Y-145996123D01*
X177243042Y-145900885D01*
X177290661Y-145805647D01*
X177385900Y-145758028D01*
X177623995Y-145758028D01*
X177719233Y-145710409D01*
X178052566Y-145472314D02*
X178433519Y-145472314D01*
X178195423Y-145138980D02*
X178195423Y-145996123D01*
X178243042Y-146091361D01*
X178338280Y-146138980D01*
X178433519Y-146138980D01*
X179195423Y-145472314D02*
X179195423Y-146138980D01*
X178766852Y-145472314D02*
X178766852Y-145996123D01*
X178814471Y-146091361D01*
X178909709Y-146138980D01*
X179052566Y-146138980D01*
X179147804Y-146091361D01*
X179195423Y-146043742D01*
X179623995Y-146091361D02*
X179719233Y-146138980D01*
X179909709Y-146138980D01*
X180004947Y-146091361D01*
X180052566Y-145996123D01*
X180052566Y-145948504D01*
X180004947Y-145853266D01*
X179909709Y-145805647D01*
X179766852Y-145805647D01*
X179671614Y-145758028D01*
X179623995Y-145662790D01*
X179623995Y-145615171D01*
X179671614Y-145519933D01*
X179766852Y-145472314D01*
X179909709Y-145472314D01*
X180004947Y-145519933D01*
X175388457Y-119848380D02*
X175959885Y-119848380D01*
X175674171Y-120848380D02*
X175674171Y-119848380D01*
X176197981Y-119848380D02*
X176864647Y-120848380D01*
X176864647Y-119848380D02*
X176197981Y-120848380D01*
X177245600Y-120848380D02*
X177245600Y-119848380D01*
X177483695Y-119848380D01*
X177626552Y-119896000D01*
X177721790Y-119991238D01*
X177769409Y-120086476D01*
X177817028Y-120276952D01*
X177817028Y-120419809D01*
X177769409Y-120610285D01*
X177721790Y-120705523D01*
X177626552Y-120800761D01*
X177483695Y-120848380D01*
X177245600Y-120848380D01*
X63109614Y-70657980D02*
X62538185Y-70657980D01*
X62823900Y-70657980D02*
X62823900Y-69657980D01*
X62728661Y-69800838D01*
X62633423Y-69896076D01*
X62538185Y-69943695D01*
X72952185Y-48468019D02*
X73523614Y-48468019D01*
X73237900Y-48468019D02*
X73237900Y-49468019D01*
X73333138Y-49325161D01*
X73428376Y-49229923D01*
X73523614Y-49182304D01*
X108337314Y-102153980D02*
X107765885Y-102153980D01*
X108051600Y-102153980D02*
X108051600Y-101153980D01*
X107956361Y-101296838D01*
X107861123Y-101392076D01*
X107765885Y-101439695D01*
%TO.C,R33*%
X82043842Y-70657980D02*
X81710509Y-70181790D01*
X81472414Y-70657980D02*
X81472414Y-69657980D01*
X81853366Y-69657980D01*
X81948604Y-69705600D01*
X81996223Y-69753219D01*
X82043842Y-69848457D01*
X82043842Y-69991314D01*
X81996223Y-70086552D01*
X81948604Y-70134171D01*
X81853366Y-70181790D01*
X81472414Y-70181790D01*
X82377176Y-69657980D02*
X82996223Y-69657980D01*
X82662890Y-70038933D01*
X82805747Y-70038933D01*
X82900985Y-70086552D01*
X82948604Y-70134171D01*
X82996223Y-70229409D01*
X82996223Y-70467504D01*
X82948604Y-70562742D01*
X82900985Y-70610361D01*
X82805747Y-70657980D01*
X82520033Y-70657980D01*
X82424795Y-70610361D01*
X82377176Y-70562742D01*
X83329557Y-69657980D02*
X83948604Y-69657980D01*
X83615271Y-70038933D01*
X83758128Y-70038933D01*
X83853366Y-70086552D01*
X83900985Y-70134171D01*
X83948604Y-70229409D01*
X83948604Y-70467504D01*
X83900985Y-70562742D01*
X83853366Y-70610361D01*
X83758128Y-70657980D01*
X83472414Y-70657980D01*
X83377176Y-70610361D01*
X83329557Y-70562742D01*
%TO.C,R39*%
X92670612Y-129725657D02*
X92194422Y-130058990D01*
X92670612Y-130297085D02*
X91670612Y-130297085D01*
X91670612Y-129916133D01*
X91718232Y-129820895D01*
X91765851Y-129773276D01*
X91861089Y-129725657D01*
X92003946Y-129725657D01*
X92099184Y-129773276D01*
X92146803Y-129820895D01*
X92194422Y-129916133D01*
X92194422Y-130297085D01*
X91670612Y-129392323D02*
X91670612Y-128773276D01*
X92051565Y-129106609D01*
X92051565Y-128963752D01*
X92099184Y-128868514D01*
X92146803Y-128820895D01*
X92242041Y-128773276D01*
X92480136Y-128773276D01*
X92575374Y-128820895D01*
X92622993Y-128868514D01*
X92670612Y-128963752D01*
X92670612Y-129249466D01*
X92622993Y-129344704D01*
X92575374Y-129392323D01*
X92670612Y-128297085D02*
X92670612Y-128106609D01*
X92622993Y-128011371D01*
X92575374Y-127963752D01*
X92432517Y-127868514D01*
X92242041Y-127820895D01*
X91861089Y-127820895D01*
X91765851Y-127868514D01*
X91718232Y-127916133D01*
X91670612Y-128011371D01*
X91670612Y-128201847D01*
X91718232Y-128297085D01*
X91765851Y-128344704D01*
X91861089Y-128392323D01*
X92099184Y-128392323D01*
X92194422Y-128344704D01*
X92242041Y-128297085D01*
X92289660Y-128201847D01*
X92289660Y-128011371D01*
X92242041Y-127916133D01*
X92194422Y-127868514D01*
X92099184Y-127820895D01*
%TO.C,C15*%
X114637541Y-127959741D02*
X114589922Y-128007360D01*
X114447065Y-128054979D01*
X114351827Y-128054979D01*
X114208970Y-128007360D01*
X114113732Y-127912122D01*
X114066113Y-127816884D01*
X114018494Y-127626408D01*
X114018494Y-127483551D01*
X114066113Y-127293075D01*
X114113732Y-127197837D01*
X114208970Y-127102599D01*
X114351827Y-127054979D01*
X114447065Y-127054979D01*
X114589922Y-127102599D01*
X114637541Y-127150218D01*
X115589922Y-128054979D02*
X115018494Y-128054979D01*
X115304208Y-128054979D02*
X115304208Y-127054979D01*
X115208970Y-127197837D01*
X115113732Y-127293075D01*
X115018494Y-127340694D01*
X116494684Y-127054979D02*
X116018494Y-127054979D01*
X115970875Y-127531170D01*
X116018494Y-127483551D01*
X116113732Y-127435932D01*
X116351827Y-127435932D01*
X116447065Y-127483551D01*
X116494684Y-127531170D01*
X116542303Y-127626408D01*
X116542303Y-127864503D01*
X116494684Y-127959741D01*
X116447065Y-128007360D01*
X116351827Y-128054979D01*
X116113732Y-128054979D01*
X116018494Y-128007360D01*
X115970875Y-127959741D01*
%TO.C,R8*%
X133837480Y-127039666D02*
X133361290Y-127373000D01*
X133837480Y-127611095D02*
X132837480Y-127611095D01*
X132837480Y-127230142D01*
X132885100Y-127134904D01*
X132932719Y-127087285D01*
X133027957Y-127039666D01*
X133170814Y-127039666D01*
X133266052Y-127087285D01*
X133313671Y-127134904D01*
X133361290Y-127230142D01*
X133361290Y-127611095D01*
X133266052Y-126468238D02*
X133218433Y-126563476D01*
X133170814Y-126611095D01*
X133075576Y-126658714D01*
X133027957Y-126658714D01*
X132932719Y-126611095D01*
X132885100Y-126563476D01*
X132837480Y-126468238D01*
X132837480Y-126277761D01*
X132885100Y-126182523D01*
X132932719Y-126134904D01*
X133027957Y-126087285D01*
X133075576Y-126087285D01*
X133170814Y-126134904D01*
X133218433Y-126182523D01*
X133266052Y-126277761D01*
X133266052Y-126468238D01*
X133313671Y-126563476D01*
X133361290Y-126611095D01*
X133456528Y-126658714D01*
X133647004Y-126658714D01*
X133742242Y-126611095D01*
X133789861Y-126563476D01*
X133837480Y-126468238D01*
X133837480Y-126277761D01*
X133789861Y-126182523D01*
X133742242Y-126134904D01*
X133647004Y-126087285D01*
X133456528Y-126087285D01*
X133361290Y-126134904D01*
X133313671Y-126182523D01*
X133266052Y-126277761D01*
%TO.C,R40*%
X95822480Y-129725657D02*
X95346290Y-130058990D01*
X95822480Y-130297085D02*
X94822480Y-130297085D01*
X94822480Y-129916133D01*
X94870100Y-129820895D01*
X94917719Y-129773276D01*
X95012957Y-129725657D01*
X95155814Y-129725657D01*
X95251052Y-129773276D01*
X95298671Y-129820895D01*
X95346290Y-129916133D01*
X95346290Y-130297085D01*
X95155814Y-128868514D02*
X95822480Y-128868514D01*
X94774861Y-129106609D02*
X95489147Y-129344704D01*
X95489147Y-128725657D01*
X94822480Y-128154228D02*
X94822480Y-128058990D01*
X94870100Y-127963752D01*
X94917719Y-127916133D01*
X95012957Y-127868514D01*
X95203433Y-127820895D01*
X95441528Y-127820895D01*
X95632004Y-127868514D01*
X95727242Y-127916133D01*
X95774861Y-127963752D01*
X95822480Y-128058990D01*
X95822480Y-128154228D01*
X95774861Y-128249466D01*
X95727242Y-128297085D01*
X95632004Y-128344704D01*
X95441528Y-128392323D01*
X95203433Y-128392323D01*
X95012957Y-128344704D01*
X94917719Y-128297085D01*
X94870100Y-128249466D01*
X94822480Y-128154228D01*
%TO.C,SW3*%
X68907366Y-67398761D02*
X69050223Y-67446380D01*
X69288319Y-67446380D01*
X69383557Y-67398761D01*
X69431176Y-67351142D01*
X69478795Y-67255904D01*
X69478795Y-67160666D01*
X69431176Y-67065428D01*
X69383557Y-67017809D01*
X69288319Y-66970190D01*
X69097842Y-66922571D01*
X69002604Y-66874952D01*
X68954985Y-66827333D01*
X68907366Y-66732095D01*
X68907366Y-66636857D01*
X68954985Y-66541619D01*
X69002604Y-66494000D01*
X69097842Y-66446380D01*
X69335938Y-66446380D01*
X69478795Y-66494000D01*
X69812128Y-66446380D02*
X70050223Y-67446380D01*
X70240700Y-66732095D01*
X70431176Y-67446380D01*
X70669271Y-66446380D01*
X70954985Y-66446380D02*
X71574033Y-66446380D01*
X71240700Y-66827333D01*
X71383557Y-66827333D01*
X71478795Y-66874952D01*
X71526414Y-66922571D01*
X71574033Y-67017809D01*
X71574033Y-67255904D01*
X71526414Y-67351142D01*
X71478795Y-67398761D01*
X71383557Y-67446380D01*
X71097842Y-67446380D01*
X71002604Y-67398761D01*
X70954985Y-67351142D01*
%TO.C,R29*%
X94810342Y-95499180D02*
X94477009Y-95022990D01*
X94238914Y-95499180D02*
X94238914Y-94499180D01*
X94619866Y-94499180D01*
X94715104Y-94546800D01*
X94762723Y-94594419D01*
X94810342Y-94689657D01*
X94810342Y-94832514D01*
X94762723Y-94927752D01*
X94715104Y-94975371D01*
X94619866Y-95022990D01*
X94238914Y-95022990D01*
X95191295Y-94594419D02*
X95238914Y-94546800D01*
X95334152Y-94499180D01*
X95572247Y-94499180D01*
X95667485Y-94546800D01*
X95715104Y-94594419D01*
X95762723Y-94689657D01*
X95762723Y-94784895D01*
X95715104Y-94927752D01*
X95143676Y-95499180D01*
X95762723Y-95499180D01*
X96238914Y-95499180D02*
X96429390Y-95499180D01*
X96524628Y-95451561D01*
X96572247Y-95403942D01*
X96667485Y-95261085D01*
X96715104Y-95070609D01*
X96715104Y-94689657D01*
X96667485Y-94594419D01*
X96619866Y-94546800D01*
X96524628Y-94499180D01*
X96334152Y-94499180D01*
X96238914Y-94546800D01*
X96191295Y-94594419D01*
X96143676Y-94689657D01*
X96143676Y-94927752D01*
X96191295Y-95022990D01*
X96238914Y-95070609D01*
X96334152Y-95118228D01*
X96524628Y-95118228D01*
X96619866Y-95070609D01*
X96667485Y-95022990D01*
X96715104Y-94927752D01*
%TO.C,D3*%
X89630046Y-143451295D02*
X88630046Y-143451295D01*
X88630046Y-143213200D01*
X88677666Y-143070342D01*
X88772904Y-142975104D01*
X88868142Y-142927485D01*
X89058618Y-142879866D01*
X89201475Y-142879866D01*
X89391951Y-142927485D01*
X89487189Y-142975104D01*
X89582427Y-143070342D01*
X89630046Y-143213200D01*
X89630046Y-143451295D01*
X88630046Y-142546533D02*
X88630046Y-141927485D01*
X89010999Y-142260819D01*
X89010999Y-142117961D01*
X89058618Y-142022723D01*
X89106237Y-141975104D01*
X89201475Y-141927485D01*
X89439570Y-141927485D01*
X89534808Y-141975104D01*
X89582427Y-142022723D01*
X89630046Y-142117961D01*
X89630046Y-142403676D01*
X89582427Y-142498914D01*
X89534808Y-142546533D01*
%TO.C,C16*%
X136603042Y-107748342D02*
X136555423Y-107795961D01*
X136412566Y-107843580D01*
X136317328Y-107843580D01*
X136174471Y-107795961D01*
X136079233Y-107700723D01*
X136031614Y-107605485D01*
X135983995Y-107415009D01*
X135983995Y-107272152D01*
X136031614Y-107081676D01*
X136079233Y-106986438D01*
X136174471Y-106891200D01*
X136317328Y-106843580D01*
X136412566Y-106843580D01*
X136555423Y-106891200D01*
X136603042Y-106938819D01*
X137555423Y-107843580D02*
X136983995Y-107843580D01*
X137269709Y-107843580D02*
X137269709Y-106843580D01*
X137174471Y-106986438D01*
X137079233Y-107081676D01*
X136983995Y-107129295D01*
X138412566Y-106843580D02*
X138222090Y-106843580D01*
X138126852Y-106891200D01*
X138079233Y-106938819D01*
X137983995Y-107081676D01*
X137936376Y-107272152D01*
X137936376Y-107653104D01*
X137983995Y-107748342D01*
X138031614Y-107795961D01*
X138126852Y-107843580D01*
X138317328Y-107843580D01*
X138412566Y-107795961D01*
X138460185Y-107748342D01*
X138507804Y-107653104D01*
X138507804Y-107415009D01*
X138460185Y-107319771D01*
X138412566Y-107272152D01*
X138317328Y-107224533D01*
X138126852Y-107224533D01*
X138031614Y-107272152D01*
X137983995Y-107319771D01*
X137936376Y-107415009D01*
%TO.C,R10*%
X129621080Y-127973057D02*
X129144890Y-128306390D01*
X129621080Y-128544485D02*
X128621080Y-128544485D01*
X128621080Y-128163533D01*
X128668700Y-128068295D01*
X128716319Y-128020676D01*
X128811557Y-127973057D01*
X128954414Y-127973057D01*
X129049652Y-128020676D01*
X129097271Y-128068295D01*
X129144890Y-128163533D01*
X129144890Y-128544485D01*
X129621080Y-127020676D02*
X129621080Y-127592104D01*
X129621080Y-127306390D02*
X128621080Y-127306390D01*
X128763938Y-127401628D01*
X128859176Y-127496866D01*
X128906795Y-127592104D01*
X128621080Y-126401628D02*
X128621080Y-126306390D01*
X128668700Y-126211152D01*
X128716319Y-126163533D01*
X128811557Y-126115914D01*
X129002033Y-126068295D01*
X129240128Y-126068295D01*
X129430604Y-126115914D01*
X129525842Y-126163533D01*
X129573461Y-126211152D01*
X129621080Y-126306390D01*
X129621080Y-126401628D01*
X129573461Y-126496866D01*
X129525842Y-126544485D01*
X129430604Y-126592104D01*
X129240128Y-126639723D01*
X129002033Y-126639723D01*
X128811557Y-126592104D01*
X128716319Y-126544485D01*
X128668700Y-126496866D01*
X128621080Y-126401628D01*
%TO.C,R35*%
X82145442Y-75687180D02*
X81812109Y-75210990D01*
X81574014Y-75687180D02*
X81574014Y-74687180D01*
X81954966Y-74687180D01*
X82050204Y-74734800D01*
X82097823Y-74782419D01*
X82145442Y-74877657D01*
X82145442Y-75020514D01*
X82097823Y-75115752D01*
X82050204Y-75163371D01*
X81954966Y-75210990D01*
X81574014Y-75210990D01*
X82478776Y-74687180D02*
X83097823Y-74687180D01*
X82764490Y-75068133D01*
X82907347Y-75068133D01*
X83002585Y-75115752D01*
X83050204Y-75163371D01*
X83097823Y-75258609D01*
X83097823Y-75496704D01*
X83050204Y-75591942D01*
X83002585Y-75639561D01*
X82907347Y-75687180D01*
X82621633Y-75687180D01*
X82526395Y-75639561D01*
X82478776Y-75591942D01*
X84002585Y-74687180D02*
X83526395Y-74687180D01*
X83478776Y-75163371D01*
X83526395Y-75115752D01*
X83621633Y-75068133D01*
X83859728Y-75068133D01*
X83954966Y-75115752D01*
X84002585Y-75163371D01*
X84050204Y-75258609D01*
X84050204Y-75496704D01*
X84002585Y-75591942D01*
X83954966Y-75639561D01*
X83859728Y-75687180D01*
X83621633Y-75687180D01*
X83526395Y-75639561D01*
X83478776Y-75591942D01*
%TO.C,D2*%
X86643980Y-143451295D02*
X85643980Y-143451295D01*
X85643980Y-143213200D01*
X85691600Y-143070342D01*
X85786838Y-142975104D01*
X85882076Y-142927485D01*
X86072552Y-142879866D01*
X86215409Y-142879866D01*
X86405885Y-142927485D01*
X86501123Y-142975104D01*
X86596361Y-143070342D01*
X86643980Y-143213200D01*
X86643980Y-143451295D01*
X85739219Y-142498914D02*
X85691600Y-142451295D01*
X85643980Y-142356057D01*
X85643980Y-142117961D01*
X85691600Y-142022723D01*
X85739219Y-141975104D01*
X85834457Y-141927485D01*
X85929695Y-141927485D01*
X86072552Y-141975104D01*
X86643980Y-142546533D01*
X86643980Y-141927485D01*
%TO.C,R7*%
X135971080Y-127039666D02*
X135494890Y-127373000D01*
X135971080Y-127611095D02*
X134971080Y-127611095D01*
X134971080Y-127230142D01*
X135018700Y-127134904D01*
X135066319Y-127087285D01*
X135161557Y-127039666D01*
X135304414Y-127039666D01*
X135399652Y-127087285D01*
X135447271Y-127134904D01*
X135494890Y-127230142D01*
X135494890Y-127611095D01*
X134971080Y-126706333D02*
X134971080Y-126039666D01*
X135971080Y-126468238D01*
%TO.C,R16*%
X186234642Y-119883180D02*
X185901309Y-119406990D01*
X185663214Y-119883180D02*
X185663214Y-118883180D01*
X186044166Y-118883180D01*
X186139404Y-118930800D01*
X186187023Y-118978419D01*
X186234642Y-119073657D01*
X186234642Y-119216514D01*
X186187023Y-119311752D01*
X186139404Y-119359371D01*
X186044166Y-119406990D01*
X185663214Y-119406990D01*
X187187023Y-119883180D02*
X186615595Y-119883180D01*
X186901309Y-119883180D02*
X186901309Y-118883180D01*
X186806071Y-119026038D01*
X186710833Y-119121276D01*
X186615595Y-119168895D01*
X188044166Y-118883180D02*
X187853690Y-118883180D01*
X187758452Y-118930800D01*
X187710833Y-118978419D01*
X187615595Y-119121276D01*
X187567976Y-119311752D01*
X187567976Y-119692704D01*
X187615595Y-119787942D01*
X187663214Y-119835561D01*
X187758452Y-119883180D01*
X187948928Y-119883180D01*
X188044166Y-119835561D01*
X188091785Y-119787942D01*
X188139404Y-119692704D01*
X188139404Y-119454609D01*
X188091785Y-119359371D01*
X188044166Y-119311752D01*
X187948928Y-119264133D01*
X187758452Y-119264133D01*
X187663214Y-119311752D01*
X187615595Y-119359371D01*
X187567976Y-119454609D01*
%TO.C,C12*%
X98923341Y-121575941D02*
X98875722Y-121623560D01*
X98732865Y-121671179D01*
X98637627Y-121671179D01*
X98494770Y-121623560D01*
X98399532Y-121528322D01*
X98351913Y-121433084D01*
X98304294Y-121242608D01*
X98304294Y-121099751D01*
X98351913Y-120909275D01*
X98399532Y-120814037D01*
X98494770Y-120718799D01*
X98637627Y-120671179D01*
X98732865Y-120671179D01*
X98875722Y-120718799D01*
X98923341Y-120766418D01*
X99875722Y-121671179D02*
X99304294Y-121671179D01*
X99590008Y-121671179D02*
X99590008Y-120671179D01*
X99494770Y-120814037D01*
X99399532Y-120909275D01*
X99304294Y-120956894D01*
X100256675Y-120766418D02*
X100304294Y-120718799D01*
X100399532Y-120671179D01*
X100637627Y-120671179D01*
X100732865Y-120718799D01*
X100780484Y-120766418D01*
X100828103Y-120861656D01*
X100828103Y-120956894D01*
X100780484Y-121099751D01*
X100209056Y-121671179D01*
X100828103Y-121671179D01*
%TO.C,C6*%
X131786442Y-117209866D02*
X131834061Y-117257485D01*
X131881680Y-117400342D01*
X131881680Y-117495580D01*
X131834061Y-117638438D01*
X131738823Y-117733676D01*
X131643585Y-117781295D01*
X131453109Y-117828914D01*
X131310252Y-117828914D01*
X131119776Y-117781295D01*
X131024538Y-117733676D01*
X130929300Y-117638438D01*
X130881680Y-117495580D01*
X130881680Y-117400342D01*
X130929300Y-117257485D01*
X130976919Y-117209866D01*
X130881680Y-116352723D02*
X130881680Y-116543200D01*
X130929300Y-116638438D01*
X130976919Y-116686057D01*
X131119776Y-116781295D01*
X131310252Y-116828914D01*
X131691204Y-116828914D01*
X131786442Y-116781295D01*
X131834061Y-116733676D01*
X131881680Y-116638438D01*
X131881680Y-116447961D01*
X131834061Y-116352723D01*
X131786442Y-116305104D01*
X131691204Y-116257485D01*
X131453109Y-116257485D01*
X131357871Y-116305104D01*
X131310252Y-116352723D01*
X131262633Y-116447961D01*
X131262633Y-116638438D01*
X131310252Y-116733676D01*
X131357871Y-116781295D01*
X131453109Y-116828914D01*
%TO.C,R34*%
X82094642Y-73147180D02*
X81761309Y-72670990D01*
X81523214Y-73147180D02*
X81523214Y-72147180D01*
X81904166Y-72147180D01*
X81999404Y-72194800D01*
X82047023Y-72242419D01*
X82094642Y-72337657D01*
X82094642Y-72480514D01*
X82047023Y-72575752D01*
X81999404Y-72623371D01*
X81904166Y-72670990D01*
X81523214Y-72670990D01*
X82427976Y-72147180D02*
X83047023Y-72147180D01*
X82713690Y-72528133D01*
X82856547Y-72528133D01*
X82951785Y-72575752D01*
X82999404Y-72623371D01*
X83047023Y-72718609D01*
X83047023Y-72956704D01*
X82999404Y-73051942D01*
X82951785Y-73099561D01*
X82856547Y-73147180D01*
X82570833Y-73147180D01*
X82475595Y-73099561D01*
X82427976Y-73051942D01*
X83904166Y-72480514D02*
X83904166Y-73147180D01*
X83666071Y-72099561D02*
X83427976Y-72813847D01*
X84047023Y-72813847D01*
%TO.C,R2*%
X78979733Y-125572780D02*
X78646400Y-125096590D01*
X78408304Y-125572780D02*
X78408304Y-124572780D01*
X78789257Y-124572780D01*
X78884495Y-124620400D01*
X78932114Y-124668019D01*
X78979733Y-124763257D01*
X78979733Y-124906114D01*
X78932114Y-125001352D01*
X78884495Y-125048971D01*
X78789257Y-125096590D01*
X78408304Y-125096590D01*
X79360685Y-124668019D02*
X79408304Y-124620400D01*
X79503542Y-124572780D01*
X79741638Y-124572780D01*
X79836876Y-124620400D01*
X79884495Y-124668019D01*
X79932114Y-124763257D01*
X79932114Y-124858495D01*
X79884495Y-125001352D01*
X79313066Y-125572780D01*
X79932114Y-125572780D01*
%TO.C,C4*%
X135913942Y-117209866D02*
X135961561Y-117257485D01*
X136009180Y-117400342D01*
X136009180Y-117495580D01*
X135961561Y-117638438D01*
X135866323Y-117733676D01*
X135771085Y-117781295D01*
X135580609Y-117828914D01*
X135437752Y-117828914D01*
X135247276Y-117781295D01*
X135152038Y-117733676D01*
X135056800Y-117638438D01*
X135009180Y-117495580D01*
X135009180Y-117400342D01*
X135056800Y-117257485D01*
X135104419Y-117209866D01*
X135342514Y-116352723D02*
X136009180Y-116352723D01*
X134961561Y-116590819D02*
X135675847Y-116828914D01*
X135675847Y-116209866D01*
%TO.C,R31*%
X165587480Y-126525257D02*
X165111290Y-126858590D01*
X165587480Y-127096685D02*
X164587480Y-127096685D01*
X164587480Y-126715733D01*
X164635100Y-126620495D01*
X164682719Y-126572876D01*
X164777957Y-126525257D01*
X164920814Y-126525257D01*
X165016052Y-126572876D01*
X165063671Y-126620495D01*
X165111290Y-126715733D01*
X165111290Y-127096685D01*
X164587480Y-126191923D02*
X164587480Y-125572876D01*
X164968433Y-125906209D01*
X164968433Y-125763352D01*
X165016052Y-125668114D01*
X165063671Y-125620495D01*
X165158909Y-125572876D01*
X165397004Y-125572876D01*
X165492242Y-125620495D01*
X165539861Y-125668114D01*
X165587480Y-125763352D01*
X165587480Y-126049066D01*
X165539861Y-126144304D01*
X165492242Y-126191923D01*
X165587480Y-124620495D02*
X165587480Y-125191923D01*
X165587480Y-124906209D02*
X164587480Y-124906209D01*
X164730338Y-125001447D01*
X164825576Y-125096685D01*
X164873195Y-125191923D01*
%TO.C,C3*%
X138136442Y-117209866D02*
X138184061Y-117257485D01*
X138231680Y-117400342D01*
X138231680Y-117495580D01*
X138184061Y-117638438D01*
X138088823Y-117733676D01*
X137993585Y-117781295D01*
X137803109Y-117828914D01*
X137660252Y-117828914D01*
X137469776Y-117781295D01*
X137374538Y-117733676D01*
X137279300Y-117638438D01*
X137231680Y-117495580D01*
X137231680Y-117400342D01*
X137279300Y-117257485D01*
X137326919Y-117209866D01*
X137231680Y-116876533D02*
X137231680Y-116257485D01*
X137612633Y-116590819D01*
X137612633Y-116447961D01*
X137660252Y-116352723D01*
X137707871Y-116305104D01*
X137803109Y-116257485D01*
X138041204Y-116257485D01*
X138136442Y-116305104D01*
X138184061Y-116352723D01*
X138231680Y-116447961D01*
X138231680Y-116733676D01*
X138184061Y-116828914D01*
X138136442Y-116876533D01*
%TO.C,C7*%
X129881442Y-117209866D02*
X129929061Y-117257485D01*
X129976680Y-117400342D01*
X129976680Y-117495580D01*
X129929061Y-117638438D01*
X129833823Y-117733676D01*
X129738585Y-117781295D01*
X129548109Y-117828914D01*
X129405252Y-117828914D01*
X129214776Y-117781295D01*
X129119538Y-117733676D01*
X129024300Y-117638438D01*
X128976680Y-117495580D01*
X128976680Y-117400342D01*
X129024300Y-117257485D01*
X129071919Y-117209866D01*
X128976680Y-116876533D02*
X128976680Y-116209866D01*
X129976680Y-116638438D01*
%TO.C,C1*%
X142124242Y-117209866D02*
X142171861Y-117257485D01*
X142219480Y-117400342D01*
X142219480Y-117495580D01*
X142171861Y-117638438D01*
X142076623Y-117733676D01*
X141981385Y-117781295D01*
X141790909Y-117828914D01*
X141648052Y-117828914D01*
X141457576Y-117781295D01*
X141362338Y-117733676D01*
X141267100Y-117638438D01*
X141219480Y-117495580D01*
X141219480Y-117400342D01*
X141267100Y-117257485D01*
X141314719Y-117209866D01*
X142219480Y-116257485D02*
X142219480Y-116828914D01*
X142219480Y-116543200D02*
X141219480Y-116543200D01*
X141362338Y-116638438D01*
X141457576Y-116733676D01*
X141505195Y-116828914D01*
%TO.C,SW2*%
X176654166Y-138783961D02*
X176797023Y-138831580D01*
X177035119Y-138831580D01*
X177130357Y-138783961D01*
X177177976Y-138736342D01*
X177225595Y-138641104D01*
X177225595Y-138545866D01*
X177177976Y-138450628D01*
X177130357Y-138403009D01*
X177035119Y-138355390D01*
X176844642Y-138307771D01*
X176749404Y-138260152D01*
X176701785Y-138212533D01*
X176654166Y-138117295D01*
X176654166Y-138022057D01*
X176701785Y-137926819D01*
X176749404Y-137879200D01*
X176844642Y-137831580D01*
X177082738Y-137831580D01*
X177225595Y-137879200D01*
X177558928Y-137831580D02*
X177797023Y-138831580D01*
X177987500Y-138117295D01*
X178177976Y-138831580D01*
X178416071Y-137831580D01*
X178749404Y-137926819D02*
X178797023Y-137879200D01*
X178892261Y-137831580D01*
X179130357Y-137831580D01*
X179225595Y-137879200D01*
X179273214Y-137926819D01*
X179320833Y-138022057D01*
X179320833Y-138117295D01*
X179273214Y-138260152D01*
X178701785Y-138831580D01*
X179320833Y-138831580D01*
%TO.C,J10*%
X103568776Y-133005580D02*
X103568776Y-133719866D01*
X103521157Y-133862723D01*
X103425919Y-133957961D01*
X103283061Y-134005580D01*
X103187823Y-134005580D01*
X104568776Y-134005580D02*
X103997347Y-134005580D01*
X104283061Y-134005580D02*
X104283061Y-133005580D01*
X104187823Y-133148438D01*
X104092585Y-133243676D01*
X103997347Y-133291295D01*
X105187823Y-133005580D02*
X105283061Y-133005580D01*
X105378300Y-133053200D01*
X105425919Y-133100819D01*
X105473538Y-133196057D01*
X105521157Y-133386533D01*
X105521157Y-133624628D01*
X105473538Y-133815104D01*
X105425919Y-133910342D01*
X105378300Y-133957961D01*
X105283061Y-134005580D01*
X105187823Y-134005580D01*
X105092585Y-133957961D01*
X105044966Y-133910342D01*
X104997347Y-133815104D01*
X104949728Y-133624628D01*
X104949728Y-133386533D01*
X104997347Y-133196057D01*
X105044966Y-133100819D01*
X105092585Y-133053200D01*
X105187823Y-133005580D01*
%TO.C,C19*%
X122734642Y-78999142D02*
X122687023Y-79046761D01*
X122544166Y-79094380D01*
X122448928Y-79094380D01*
X122306071Y-79046761D01*
X122210833Y-78951523D01*
X122163214Y-78856285D01*
X122115595Y-78665809D01*
X122115595Y-78522952D01*
X122163214Y-78332476D01*
X122210833Y-78237238D01*
X122306071Y-78142000D01*
X122448928Y-78094380D01*
X122544166Y-78094380D01*
X122687023Y-78142000D01*
X122734642Y-78189619D01*
X123687023Y-79094380D02*
X123115595Y-79094380D01*
X123401309Y-79094380D02*
X123401309Y-78094380D01*
X123306071Y-78237238D01*
X123210833Y-78332476D01*
X123115595Y-78380095D01*
X124163214Y-79094380D02*
X124353690Y-79094380D01*
X124448928Y-79046761D01*
X124496547Y-78999142D01*
X124591785Y-78856285D01*
X124639404Y-78665809D01*
X124639404Y-78284857D01*
X124591785Y-78189619D01*
X124544166Y-78142000D01*
X124448928Y-78094380D01*
X124258452Y-78094380D01*
X124163214Y-78142000D01*
X124115595Y-78189619D01*
X124067976Y-78284857D01*
X124067976Y-78522952D01*
X124115595Y-78618190D01*
X124163214Y-78665809D01*
X124258452Y-78713428D01*
X124448928Y-78713428D01*
X124544166Y-78665809D01*
X124591785Y-78618190D01*
X124639404Y-78522952D01*
%TO.C,C8*%
X127544642Y-117209866D02*
X127592261Y-117257485D01*
X127639880Y-117400342D01*
X127639880Y-117495580D01*
X127592261Y-117638438D01*
X127497023Y-117733676D01*
X127401785Y-117781295D01*
X127211309Y-117828914D01*
X127068452Y-117828914D01*
X126877976Y-117781295D01*
X126782738Y-117733676D01*
X126687500Y-117638438D01*
X126639880Y-117495580D01*
X126639880Y-117400342D01*
X126687500Y-117257485D01*
X126735119Y-117209866D01*
X127068452Y-116638438D02*
X127020833Y-116733676D01*
X126973214Y-116781295D01*
X126877976Y-116828914D01*
X126830357Y-116828914D01*
X126735119Y-116781295D01*
X126687500Y-116733676D01*
X126639880Y-116638438D01*
X126639880Y-116447961D01*
X126687500Y-116352723D01*
X126735119Y-116305104D01*
X126830357Y-116257485D01*
X126877976Y-116257485D01*
X126973214Y-116305104D01*
X127020833Y-116352723D01*
X127068452Y-116447961D01*
X127068452Y-116638438D01*
X127116071Y-116733676D01*
X127163690Y-116781295D01*
X127258928Y-116828914D01*
X127449404Y-116828914D01*
X127544642Y-116781295D01*
X127592261Y-116733676D01*
X127639880Y-116638438D01*
X127639880Y-116447961D01*
X127592261Y-116352723D01*
X127544642Y-116305104D01*
X127449404Y-116257485D01*
X127258928Y-116257485D01*
X127163690Y-116305104D01*
X127116071Y-116352723D01*
X127068452Y-116447961D01*
%TO.C,C23*%
X132285042Y-132386342D02*
X132237423Y-132433961D01*
X132094566Y-132481580D01*
X131999328Y-132481580D01*
X131856471Y-132433961D01*
X131761233Y-132338723D01*
X131713614Y-132243485D01*
X131665995Y-132053009D01*
X131665995Y-131910152D01*
X131713614Y-131719676D01*
X131761233Y-131624438D01*
X131856471Y-131529200D01*
X131999328Y-131481580D01*
X132094566Y-131481580D01*
X132237423Y-131529200D01*
X132285042Y-131576819D01*
X132665995Y-131576819D02*
X132713614Y-131529200D01*
X132808852Y-131481580D01*
X133046947Y-131481580D01*
X133142185Y-131529200D01*
X133189804Y-131576819D01*
X133237423Y-131672057D01*
X133237423Y-131767295D01*
X133189804Y-131910152D01*
X132618376Y-132481580D01*
X133237423Y-132481580D01*
X133570757Y-131481580D02*
X134189804Y-131481580D01*
X133856471Y-131862533D01*
X133999328Y-131862533D01*
X134094566Y-131910152D01*
X134142185Y-131957771D01*
X134189804Y-132053009D01*
X134189804Y-132291104D01*
X134142185Y-132386342D01*
X134094566Y-132433961D01*
X133999328Y-132481580D01*
X133713614Y-132481580D01*
X133618376Y-132433961D01*
X133570757Y-132386342D01*
%TO.C,Q3*%
X115576361Y-99506019D02*
X115481123Y-99458400D01*
X115385885Y-99363161D01*
X115243028Y-99220304D01*
X115147790Y-99172685D01*
X115052552Y-99172685D01*
X115100171Y-99410780D02*
X115004933Y-99363161D01*
X114909695Y-99267923D01*
X114862076Y-99077447D01*
X114862076Y-98744114D01*
X114909695Y-98553638D01*
X115004933Y-98458400D01*
X115100171Y-98410780D01*
X115290647Y-98410780D01*
X115385885Y-98458400D01*
X115481123Y-98553638D01*
X115528742Y-98744114D01*
X115528742Y-99077447D01*
X115481123Y-99267923D01*
X115385885Y-99363161D01*
X115290647Y-99410780D01*
X115100171Y-99410780D01*
X115862076Y-98410780D02*
X116481123Y-98410780D01*
X116147790Y-98791733D01*
X116290647Y-98791733D01*
X116385885Y-98839352D01*
X116433504Y-98886971D01*
X116481123Y-98982209D01*
X116481123Y-99220304D01*
X116433504Y-99315542D01*
X116385885Y-99363161D01*
X116290647Y-99410780D01*
X116004933Y-99410780D01*
X115909695Y-99363161D01*
X115862076Y-99315542D01*
%TO.C,J7*%
X132645366Y-141184380D02*
X132645366Y-141898666D01*
X132597747Y-142041523D01*
X132502509Y-142136761D01*
X132359652Y-142184380D01*
X132264414Y-142184380D01*
X133026319Y-141184380D02*
X133692985Y-141184380D01*
X133264414Y-142184380D01*
%TO.C,J9*%
X201736666Y-117765580D02*
X201736666Y-118479866D01*
X201689047Y-118622723D01*
X201593809Y-118717961D01*
X201450952Y-118765580D01*
X201355714Y-118765580D01*
X202260476Y-118765580D02*
X202450952Y-118765580D01*
X202546190Y-118717961D01*
X202593809Y-118670342D01*
X202689047Y-118527485D01*
X202736666Y-118337009D01*
X202736666Y-117956057D01*
X202689047Y-117860819D01*
X202641428Y-117813200D01*
X202546190Y-117765580D01*
X202355714Y-117765580D01*
X202260476Y-117813200D01*
X202212857Y-117860819D01*
X202165238Y-117956057D01*
X202165238Y-118194152D01*
X202212857Y-118289390D01*
X202260476Y-118337009D01*
X202355714Y-118384628D01*
X202546190Y-118384628D01*
X202641428Y-118337009D01*
X202689047Y-118289390D01*
X202736666Y-118194152D01*
%TO.C,C9*%
X189434742Y-127674666D02*
X189482361Y-127722285D01*
X189529980Y-127865142D01*
X189529980Y-127960380D01*
X189482361Y-128103238D01*
X189387123Y-128198476D01*
X189291885Y-128246095D01*
X189101409Y-128293714D01*
X188958552Y-128293714D01*
X188768076Y-128246095D01*
X188672838Y-128198476D01*
X188577600Y-128103238D01*
X188529980Y-127960380D01*
X188529980Y-127865142D01*
X188577600Y-127722285D01*
X188625219Y-127674666D01*
X189529980Y-127198476D02*
X189529980Y-127008000D01*
X189482361Y-126912761D01*
X189434742Y-126865142D01*
X189291885Y-126769904D01*
X189101409Y-126722285D01*
X188720457Y-126722285D01*
X188625219Y-126769904D01*
X188577600Y-126817523D01*
X188529980Y-126912761D01*
X188529980Y-127103238D01*
X188577600Y-127198476D01*
X188625219Y-127246095D01*
X188720457Y-127293714D01*
X188958552Y-127293714D01*
X189053790Y-127246095D01*
X189101409Y-127198476D01*
X189149028Y-127103238D01*
X189149028Y-126912761D01*
X189101409Y-126817523D01*
X189053790Y-126769904D01*
X188958552Y-126722285D01*
%TO.C,R36*%
X82145442Y-78176380D02*
X81812109Y-77700190D01*
X81574014Y-78176380D02*
X81574014Y-77176380D01*
X81954966Y-77176380D01*
X82050204Y-77224000D01*
X82097823Y-77271619D01*
X82145442Y-77366857D01*
X82145442Y-77509714D01*
X82097823Y-77604952D01*
X82050204Y-77652571D01*
X81954966Y-77700190D01*
X81574014Y-77700190D01*
X82478776Y-77176380D02*
X83097823Y-77176380D01*
X82764490Y-77557333D01*
X82907347Y-77557333D01*
X83002585Y-77604952D01*
X83050204Y-77652571D01*
X83097823Y-77747809D01*
X83097823Y-77985904D01*
X83050204Y-78081142D01*
X83002585Y-78128761D01*
X82907347Y-78176380D01*
X82621633Y-78176380D01*
X82526395Y-78128761D01*
X82478776Y-78081142D01*
X83954966Y-77176380D02*
X83764490Y-77176380D01*
X83669252Y-77224000D01*
X83621633Y-77271619D01*
X83526395Y-77414476D01*
X83478776Y-77604952D01*
X83478776Y-77985904D01*
X83526395Y-78081142D01*
X83574014Y-78128761D01*
X83669252Y-78176380D01*
X83859728Y-78176380D01*
X83954966Y-78128761D01*
X84002585Y-78081142D01*
X84050204Y-77985904D01*
X84050204Y-77747809D01*
X84002585Y-77652571D01*
X83954966Y-77604952D01*
X83859728Y-77557333D01*
X83669252Y-77557333D01*
X83574014Y-77604952D01*
X83526395Y-77652571D01*
X83478776Y-77747809D01*
%TO.C,J8*%
X172921832Y-125114980D02*
X172921832Y-125829266D01*
X172874213Y-125972123D01*
X172778975Y-126067361D01*
X172636118Y-126114980D01*
X172540880Y-126114980D01*
X173540880Y-125543552D02*
X173445642Y-125495933D01*
X173398023Y-125448314D01*
X173350404Y-125353076D01*
X173350404Y-125305457D01*
X173398023Y-125210219D01*
X173445642Y-125162600D01*
X173540880Y-125114980D01*
X173731356Y-125114980D01*
X173826594Y-125162600D01*
X173874213Y-125210219D01*
X173921832Y-125305457D01*
X173921832Y-125353076D01*
X173874213Y-125448314D01*
X173826594Y-125495933D01*
X173731356Y-125543552D01*
X173540880Y-125543552D01*
X173445642Y-125591171D01*
X173398023Y-125638790D01*
X173350404Y-125734028D01*
X173350404Y-125924504D01*
X173398023Y-126019742D01*
X173445642Y-126067361D01*
X173540880Y-126114980D01*
X173731356Y-126114980D01*
X173826594Y-126067361D01*
X173874213Y-126019742D01*
X173921832Y-125924504D01*
X173921832Y-125734028D01*
X173874213Y-125638790D01*
X173826594Y-125591171D01*
X173731356Y-125543552D01*
%TO.C,R17*%
X186082242Y-115666780D02*
X185748909Y-115190590D01*
X185510814Y-115666780D02*
X185510814Y-114666780D01*
X185891766Y-114666780D01*
X185987004Y-114714400D01*
X186034623Y-114762019D01*
X186082242Y-114857257D01*
X186082242Y-115000114D01*
X186034623Y-115095352D01*
X185987004Y-115142971D01*
X185891766Y-115190590D01*
X185510814Y-115190590D01*
X187034623Y-115666780D02*
X186463195Y-115666780D01*
X186748909Y-115666780D02*
X186748909Y-114666780D01*
X186653671Y-114809638D01*
X186558433Y-114904876D01*
X186463195Y-114952495D01*
X187367957Y-114666780D02*
X188034623Y-114666780D01*
X187606052Y-115666780D01*
%TO.C,R26*%
X94810342Y-99664780D02*
X94477009Y-99188590D01*
X94238914Y-99664780D02*
X94238914Y-98664780D01*
X94619866Y-98664780D01*
X94715104Y-98712400D01*
X94762723Y-98760019D01*
X94810342Y-98855257D01*
X94810342Y-98998114D01*
X94762723Y-99093352D01*
X94715104Y-99140971D01*
X94619866Y-99188590D01*
X94238914Y-99188590D01*
X95191295Y-98760019D02*
X95238914Y-98712400D01*
X95334152Y-98664780D01*
X95572247Y-98664780D01*
X95667485Y-98712400D01*
X95715104Y-98760019D01*
X95762723Y-98855257D01*
X95762723Y-98950495D01*
X95715104Y-99093352D01*
X95143676Y-99664780D01*
X95762723Y-99664780D01*
X96619866Y-98664780D02*
X96429390Y-98664780D01*
X96334152Y-98712400D01*
X96286533Y-98760019D01*
X96191295Y-98902876D01*
X96143676Y-99093352D01*
X96143676Y-99474304D01*
X96191295Y-99569542D01*
X96238914Y-99617161D01*
X96334152Y-99664780D01*
X96524628Y-99664780D01*
X96619866Y-99617161D01*
X96667485Y-99569542D01*
X96715104Y-99474304D01*
X96715104Y-99236209D01*
X96667485Y-99140971D01*
X96619866Y-99093352D01*
X96524628Y-99045733D01*
X96334152Y-99045733D01*
X96238914Y-99093352D01*
X96191295Y-99140971D01*
X96143676Y-99236209D01*
%TO.C,Q4*%
X115576361Y-103824019D02*
X115481123Y-103776400D01*
X115385885Y-103681161D01*
X115243028Y-103538304D01*
X115147790Y-103490685D01*
X115052552Y-103490685D01*
X115100171Y-103728780D02*
X115004933Y-103681161D01*
X114909695Y-103585923D01*
X114862076Y-103395447D01*
X114862076Y-103062114D01*
X114909695Y-102871638D01*
X115004933Y-102776400D01*
X115100171Y-102728780D01*
X115290647Y-102728780D01*
X115385885Y-102776400D01*
X115481123Y-102871638D01*
X115528742Y-103062114D01*
X115528742Y-103395447D01*
X115481123Y-103585923D01*
X115385885Y-103681161D01*
X115290647Y-103728780D01*
X115100171Y-103728780D01*
X116385885Y-103062114D02*
X116385885Y-103728780D01*
X116147790Y-102681161D02*
X115909695Y-103395447D01*
X116528742Y-103395447D01*
%TO.C,SW1*%
X187322166Y-138885561D02*
X187465023Y-138933180D01*
X187703119Y-138933180D01*
X187798357Y-138885561D01*
X187845976Y-138837942D01*
X187893595Y-138742704D01*
X187893595Y-138647466D01*
X187845976Y-138552228D01*
X187798357Y-138504609D01*
X187703119Y-138456990D01*
X187512642Y-138409371D01*
X187417404Y-138361752D01*
X187369785Y-138314133D01*
X187322166Y-138218895D01*
X187322166Y-138123657D01*
X187369785Y-138028419D01*
X187417404Y-137980800D01*
X187512642Y-137933180D01*
X187750738Y-137933180D01*
X187893595Y-137980800D01*
X188226928Y-137933180D02*
X188465023Y-138933180D01*
X188655500Y-138218895D01*
X188845976Y-138933180D01*
X189084071Y-137933180D01*
X189988833Y-138933180D02*
X189417404Y-138933180D01*
X189703119Y-138933180D02*
X189703119Y-137933180D01*
X189607880Y-138076038D01*
X189512642Y-138171276D01*
X189417404Y-138218895D01*
%TO.C,R32*%
X163301480Y-126626857D02*
X162825290Y-126960190D01*
X163301480Y-127198285D02*
X162301480Y-127198285D01*
X162301480Y-126817333D01*
X162349100Y-126722095D01*
X162396719Y-126674476D01*
X162491957Y-126626857D01*
X162634814Y-126626857D01*
X162730052Y-126674476D01*
X162777671Y-126722095D01*
X162825290Y-126817333D01*
X162825290Y-127198285D01*
X162301480Y-126293523D02*
X162301480Y-125674476D01*
X162682433Y-126007809D01*
X162682433Y-125864952D01*
X162730052Y-125769714D01*
X162777671Y-125722095D01*
X162872909Y-125674476D01*
X163111004Y-125674476D01*
X163206242Y-125722095D01*
X163253861Y-125769714D01*
X163301480Y-125864952D01*
X163301480Y-126150666D01*
X163253861Y-126245904D01*
X163206242Y-126293523D01*
X162396719Y-125293523D02*
X162349100Y-125245904D01*
X162301480Y-125150666D01*
X162301480Y-124912571D01*
X162349100Y-124817333D01*
X162396719Y-124769714D01*
X162491957Y-124722095D01*
X162587195Y-124722095D01*
X162730052Y-124769714D01*
X163301480Y-125341142D01*
X163301480Y-124722095D01*
%TO.C,J5*%
X70258666Y-115633780D02*
X70258666Y-116348066D01*
X70211047Y-116490923D01*
X70115809Y-116586161D01*
X69972952Y-116633780D01*
X69877714Y-116633780D01*
X71211047Y-115633780D02*
X70734857Y-115633780D01*
X70687238Y-116109971D01*
X70734857Y-116062352D01*
X70830095Y-116014733D01*
X71068190Y-116014733D01*
X71163428Y-116062352D01*
X71211047Y-116109971D01*
X71258666Y-116205209D01*
X71258666Y-116443304D01*
X71211047Y-116538542D01*
X71163428Y-116586161D01*
X71068190Y-116633780D01*
X70830095Y-116633780D01*
X70734857Y-116586161D01*
X70687238Y-116538542D01*
%TO.C,R18*%
X186133042Y-113634780D02*
X185799709Y-113158590D01*
X185561614Y-113634780D02*
X185561614Y-112634780D01*
X185942566Y-112634780D01*
X186037804Y-112682400D01*
X186085423Y-112730019D01*
X186133042Y-112825257D01*
X186133042Y-112968114D01*
X186085423Y-113063352D01*
X186037804Y-113110971D01*
X185942566Y-113158590D01*
X185561614Y-113158590D01*
X187085423Y-113634780D02*
X186513995Y-113634780D01*
X186799709Y-113634780D02*
X186799709Y-112634780D01*
X186704471Y-112777638D01*
X186609233Y-112872876D01*
X186513995Y-112920495D01*
X187656852Y-113063352D02*
X187561614Y-113015733D01*
X187513995Y-112968114D01*
X187466376Y-112872876D01*
X187466376Y-112825257D01*
X187513995Y-112730019D01*
X187561614Y-112682400D01*
X187656852Y-112634780D01*
X187847328Y-112634780D01*
X187942566Y-112682400D01*
X187990185Y-112730019D01*
X188037804Y-112825257D01*
X188037804Y-112872876D01*
X187990185Y-112968114D01*
X187942566Y-113015733D01*
X187847328Y-113063352D01*
X187656852Y-113063352D01*
X187561614Y-113110971D01*
X187513995Y-113158590D01*
X187466376Y-113253828D01*
X187466376Y-113444304D01*
X187513995Y-113539542D01*
X187561614Y-113587161D01*
X187656852Y-113634780D01*
X187847328Y-113634780D01*
X187942566Y-113587161D01*
X187990185Y-113539542D01*
X188037804Y-113444304D01*
X188037804Y-113253828D01*
X187990185Y-113158590D01*
X187942566Y-113110971D01*
X187847328Y-113063352D01*
%TO.C,R1*%
X79030533Y-129839980D02*
X78697200Y-129363790D01*
X78459104Y-129839980D02*
X78459104Y-128839980D01*
X78840057Y-128839980D01*
X78935295Y-128887600D01*
X78982914Y-128935219D01*
X79030533Y-129030457D01*
X79030533Y-129173314D01*
X78982914Y-129268552D01*
X78935295Y-129316171D01*
X78840057Y-129363790D01*
X78459104Y-129363790D01*
X79982914Y-129839980D02*
X79411485Y-129839980D01*
X79697200Y-129839980D02*
X79697200Y-128839980D01*
X79601961Y-128982838D01*
X79506723Y-129078076D01*
X79411485Y-129125695D01*
%TO.C,U3*%
X149234795Y-72705980D02*
X149234795Y-73515504D01*
X149282414Y-73610742D01*
X149330033Y-73658361D01*
X149425271Y-73705980D01*
X149615747Y-73705980D01*
X149710985Y-73658361D01*
X149758604Y-73610742D01*
X149806223Y-73515504D01*
X149806223Y-72705980D01*
X150187176Y-72705980D02*
X150806223Y-72705980D01*
X150472890Y-73086933D01*
X150615747Y-73086933D01*
X150710985Y-73134552D01*
X150758604Y-73182171D01*
X150806223Y-73277409D01*
X150806223Y-73515504D01*
X150758604Y-73610742D01*
X150710985Y-73658361D01*
X150615747Y-73705980D01*
X150330033Y-73705980D01*
X150234795Y-73658361D01*
X150187176Y-73610742D01*
%TO.C,D4*%
X92661112Y-143502095D02*
X91661112Y-143502095D01*
X91661112Y-143264000D01*
X91708732Y-143121142D01*
X91803970Y-143025904D01*
X91899208Y-142978285D01*
X92089684Y-142930666D01*
X92232541Y-142930666D01*
X92423017Y-142978285D01*
X92518255Y-143025904D01*
X92613493Y-143121142D01*
X92661112Y-143264000D01*
X92661112Y-143502095D01*
X91994446Y-142073523D02*
X92661112Y-142073523D01*
X91613493Y-142311619D02*
X92327779Y-142549714D01*
X92327779Y-141930666D01*
%TO.C,U4*%
X131810395Y-103084380D02*
X131810395Y-103893904D01*
X131858014Y-103989142D01*
X131905633Y-104036761D01*
X132000871Y-104084380D01*
X132191347Y-104084380D01*
X132286585Y-104036761D01*
X132334204Y-103989142D01*
X132381823Y-103893904D01*
X132381823Y-103084380D01*
X133286585Y-103417714D02*
X133286585Y-104084380D01*
X133048490Y-103036761D02*
X132810395Y-103751047D01*
X133429442Y-103751047D01*
%TO.C,U1*%
X198093995Y-90843180D02*
X198093995Y-91652704D01*
X198141614Y-91747942D01*
X198189233Y-91795561D01*
X198284471Y-91843180D01*
X198474947Y-91843180D01*
X198570185Y-91795561D01*
X198617804Y-91747942D01*
X198665423Y-91652704D01*
X198665423Y-90843180D01*
X199665423Y-91843180D02*
X199093995Y-91843180D01*
X199379709Y-91843180D02*
X199379709Y-90843180D01*
X199284471Y-90986038D01*
X199189233Y-91081276D01*
X199093995Y-91128895D01*
%TO.C,C21*%
X144486442Y-127846057D02*
X144534061Y-127893676D01*
X144581680Y-128036533D01*
X144581680Y-128131771D01*
X144534061Y-128274628D01*
X144438823Y-128369866D01*
X144343585Y-128417485D01*
X144153109Y-128465104D01*
X144010252Y-128465104D01*
X143819776Y-128417485D01*
X143724538Y-128369866D01*
X143629300Y-128274628D01*
X143581680Y-128131771D01*
X143581680Y-128036533D01*
X143629300Y-127893676D01*
X143676919Y-127846057D01*
X143676919Y-127465104D02*
X143629300Y-127417485D01*
X143581680Y-127322247D01*
X143581680Y-127084152D01*
X143629300Y-126988914D01*
X143676919Y-126941295D01*
X143772157Y-126893676D01*
X143867395Y-126893676D01*
X144010252Y-126941295D01*
X144581680Y-127512723D01*
X144581680Y-126893676D01*
X144581680Y-125941295D02*
X144581680Y-126512723D01*
X144581680Y-126227009D02*
X143581680Y-126227009D01*
X143724538Y-126322247D01*
X143819776Y-126417485D01*
X143867395Y-126512723D01*
%TO.C,R30*%
X180675080Y-127795257D02*
X180198890Y-128128590D01*
X180675080Y-128366685D02*
X179675080Y-128366685D01*
X179675080Y-127985733D01*
X179722700Y-127890495D01*
X179770319Y-127842876D01*
X179865557Y-127795257D01*
X180008414Y-127795257D01*
X180103652Y-127842876D01*
X180151271Y-127890495D01*
X180198890Y-127985733D01*
X180198890Y-128366685D01*
X179675080Y-127461923D02*
X179675080Y-126842876D01*
X180056033Y-127176209D01*
X180056033Y-127033352D01*
X180103652Y-126938114D01*
X180151271Y-126890495D01*
X180246509Y-126842876D01*
X180484604Y-126842876D01*
X180579842Y-126890495D01*
X180627461Y-126938114D01*
X180675080Y-127033352D01*
X180675080Y-127319066D01*
X180627461Y-127414304D01*
X180579842Y-127461923D01*
X179675080Y-126223828D02*
X179675080Y-126128590D01*
X179722700Y-126033352D01*
X179770319Y-125985733D01*
X179865557Y-125938114D01*
X180056033Y-125890495D01*
X180294128Y-125890495D01*
X180484604Y-125938114D01*
X180579842Y-125985733D01*
X180627461Y-126033352D01*
X180675080Y-126128590D01*
X180675080Y-126223828D01*
X180627461Y-126319066D01*
X180579842Y-126366685D01*
X180484604Y-126414304D01*
X180294128Y-126461923D01*
X180056033Y-126461923D01*
X179865557Y-126414304D01*
X179770319Y-126366685D01*
X179722700Y-126319066D01*
X179675080Y-126223828D01*
%TO.C,R24*%
X114637541Y-123736979D02*
X114304208Y-123260789D01*
X114066113Y-123736979D02*
X114066113Y-122736979D01*
X114447065Y-122736979D01*
X114542303Y-122784599D01*
X114589922Y-122832218D01*
X114637541Y-122927456D01*
X114637541Y-123070313D01*
X114589922Y-123165551D01*
X114542303Y-123213170D01*
X114447065Y-123260789D01*
X114066113Y-123260789D01*
X115018494Y-122832218D02*
X115066113Y-122784599D01*
X115161351Y-122736979D01*
X115399446Y-122736979D01*
X115494684Y-122784599D01*
X115542303Y-122832218D01*
X115589922Y-122927456D01*
X115589922Y-123022694D01*
X115542303Y-123165551D01*
X114970875Y-123736979D01*
X115589922Y-123736979D01*
X116447065Y-123070313D02*
X116447065Y-123736979D01*
X116208970Y-122689360D02*
X115970875Y-123403646D01*
X116589922Y-123403646D01*
%TO.C,Q5*%
X115576361Y-108243619D02*
X115481123Y-108196000D01*
X115385885Y-108100761D01*
X115243028Y-107957904D01*
X115147790Y-107910285D01*
X115052552Y-107910285D01*
X115100171Y-108148380D02*
X115004933Y-108100761D01*
X114909695Y-108005523D01*
X114862076Y-107815047D01*
X114862076Y-107481714D01*
X114909695Y-107291238D01*
X115004933Y-107196000D01*
X115100171Y-107148380D01*
X115290647Y-107148380D01*
X115385885Y-107196000D01*
X115481123Y-107291238D01*
X115528742Y-107481714D01*
X115528742Y-107815047D01*
X115481123Y-108005523D01*
X115385885Y-108100761D01*
X115290647Y-108148380D01*
X115100171Y-108148380D01*
X116433504Y-107148380D02*
X115957314Y-107148380D01*
X115909695Y-107624571D01*
X115957314Y-107576952D01*
X116052552Y-107529333D01*
X116290647Y-107529333D01*
X116385885Y-107576952D01*
X116433504Y-107624571D01*
X116481123Y-107719809D01*
X116481123Y-107957904D01*
X116433504Y-108053142D01*
X116385885Y-108100761D01*
X116290647Y-108148380D01*
X116052552Y-108148380D01*
X115957314Y-108100761D01*
X115909695Y-108053142D01*
%TO.C,C5*%
X134008942Y-117209866D02*
X134056561Y-117257485D01*
X134104180Y-117400342D01*
X134104180Y-117495580D01*
X134056561Y-117638438D01*
X133961323Y-117733676D01*
X133866085Y-117781295D01*
X133675609Y-117828914D01*
X133532752Y-117828914D01*
X133342276Y-117781295D01*
X133247038Y-117733676D01*
X133151800Y-117638438D01*
X133104180Y-117495580D01*
X133104180Y-117400342D01*
X133151800Y-117257485D01*
X133199419Y-117209866D01*
X133104180Y-116305104D02*
X133104180Y-116781295D01*
X133580371Y-116828914D01*
X133532752Y-116781295D01*
X133485133Y-116686057D01*
X133485133Y-116447961D01*
X133532752Y-116352723D01*
X133580371Y-116305104D01*
X133675609Y-116257485D01*
X133913704Y-116257485D01*
X134008942Y-116305104D01*
X134056561Y-116352723D01*
X134104180Y-116447961D01*
X134104180Y-116686057D01*
X134056561Y-116781295D01*
X134008942Y-116828914D01*
%TO.C,R12*%
X187040780Y-127795257D02*
X186564590Y-128128590D01*
X187040780Y-128366685D02*
X186040780Y-128366685D01*
X186040780Y-127985733D01*
X186088400Y-127890495D01*
X186136019Y-127842876D01*
X186231257Y-127795257D01*
X186374114Y-127795257D01*
X186469352Y-127842876D01*
X186516971Y-127890495D01*
X186564590Y-127985733D01*
X186564590Y-128366685D01*
X187040780Y-126842876D02*
X187040780Y-127414304D01*
X187040780Y-127128590D02*
X186040780Y-127128590D01*
X186183638Y-127223828D01*
X186278876Y-127319066D01*
X186326495Y-127414304D01*
X186136019Y-126461923D02*
X186088400Y-126414304D01*
X186040780Y-126319066D01*
X186040780Y-126080971D01*
X186088400Y-125985733D01*
X186136019Y-125938114D01*
X186231257Y-125890495D01*
X186326495Y-125890495D01*
X186469352Y-125938114D01*
X187040780Y-126509542D01*
X187040780Y-125890495D01*
%TO.C,R22*%
X98974141Y-126293979D02*
X98640808Y-125817789D01*
X98402713Y-126293979D02*
X98402713Y-125293979D01*
X98783665Y-125293979D01*
X98878903Y-125341599D01*
X98926522Y-125389218D01*
X98974141Y-125484456D01*
X98974141Y-125627313D01*
X98926522Y-125722551D01*
X98878903Y-125770170D01*
X98783665Y-125817789D01*
X98402713Y-125817789D01*
X99355094Y-125389218D02*
X99402713Y-125341599D01*
X99497951Y-125293979D01*
X99736046Y-125293979D01*
X99831284Y-125341599D01*
X99878903Y-125389218D01*
X99926522Y-125484456D01*
X99926522Y-125579694D01*
X99878903Y-125722551D01*
X99307475Y-126293979D01*
X99926522Y-126293979D01*
X100307475Y-125389218D02*
X100355094Y-125341599D01*
X100450332Y-125293979D01*
X100688427Y-125293979D01*
X100783665Y-125341599D01*
X100831284Y-125389218D01*
X100878903Y-125484456D01*
X100878903Y-125579694D01*
X100831284Y-125722551D01*
X100259856Y-126293979D01*
X100878903Y-126293979D01*
%TO.C,C11*%
X150369842Y-78999142D02*
X150322223Y-79046761D01*
X150179366Y-79094380D01*
X150084128Y-79094380D01*
X149941271Y-79046761D01*
X149846033Y-78951523D01*
X149798414Y-78856285D01*
X149750795Y-78665809D01*
X149750795Y-78522952D01*
X149798414Y-78332476D01*
X149846033Y-78237238D01*
X149941271Y-78142000D01*
X150084128Y-78094380D01*
X150179366Y-78094380D01*
X150322223Y-78142000D01*
X150369842Y-78189619D01*
X151322223Y-79094380D02*
X150750795Y-79094380D01*
X151036509Y-79094380D02*
X151036509Y-78094380D01*
X150941271Y-78237238D01*
X150846033Y-78332476D01*
X150750795Y-78380095D01*
X152274604Y-79094380D02*
X151703176Y-79094380D01*
X151988890Y-79094380D02*
X151988890Y-78094380D01*
X151893652Y-78237238D01*
X151798414Y-78332476D01*
X151703176Y-78380095D01*
%TO.C,R28*%
X94759542Y-97531180D02*
X94426209Y-97054990D01*
X94188114Y-97531180D02*
X94188114Y-96531180D01*
X94569066Y-96531180D01*
X94664304Y-96578800D01*
X94711923Y-96626419D01*
X94759542Y-96721657D01*
X94759542Y-96864514D01*
X94711923Y-96959752D01*
X94664304Y-97007371D01*
X94569066Y-97054990D01*
X94188114Y-97054990D01*
X95140495Y-96626419D02*
X95188114Y-96578800D01*
X95283352Y-96531180D01*
X95521447Y-96531180D01*
X95616685Y-96578800D01*
X95664304Y-96626419D01*
X95711923Y-96721657D01*
X95711923Y-96816895D01*
X95664304Y-96959752D01*
X95092876Y-97531180D01*
X95711923Y-97531180D01*
X96283352Y-96959752D02*
X96188114Y-96912133D01*
X96140495Y-96864514D01*
X96092876Y-96769276D01*
X96092876Y-96721657D01*
X96140495Y-96626419D01*
X96188114Y-96578800D01*
X96283352Y-96531180D01*
X96473828Y-96531180D01*
X96569066Y-96578800D01*
X96616685Y-96626419D01*
X96664304Y-96721657D01*
X96664304Y-96769276D01*
X96616685Y-96864514D01*
X96569066Y-96912133D01*
X96473828Y-96959752D01*
X96283352Y-96959752D01*
X96188114Y-97007371D01*
X96140495Y-97054990D01*
X96092876Y-97150228D01*
X96092876Y-97340704D01*
X96140495Y-97435942D01*
X96188114Y-97483561D01*
X96283352Y-97531180D01*
X96473828Y-97531180D01*
X96569066Y-97483561D01*
X96616685Y-97435942D01*
X96664304Y-97340704D01*
X96664304Y-97150228D01*
X96616685Y-97054990D01*
X96569066Y-97007371D01*
X96473828Y-96959752D01*
%TO.C,R23*%
X114637541Y-121654179D02*
X114304208Y-121177989D01*
X114066113Y-121654179D02*
X114066113Y-120654179D01*
X114447065Y-120654179D01*
X114542303Y-120701799D01*
X114589922Y-120749418D01*
X114637541Y-120844656D01*
X114637541Y-120987513D01*
X114589922Y-121082751D01*
X114542303Y-121130370D01*
X114447065Y-121177989D01*
X114066113Y-121177989D01*
X115018494Y-120749418D02*
X115066113Y-120701799D01*
X115161351Y-120654179D01*
X115399446Y-120654179D01*
X115494684Y-120701799D01*
X115542303Y-120749418D01*
X115589922Y-120844656D01*
X115589922Y-120939894D01*
X115542303Y-121082751D01*
X114970875Y-121654179D01*
X115589922Y-121654179D01*
X115923256Y-120654179D02*
X116542303Y-120654179D01*
X116208970Y-121035132D01*
X116351827Y-121035132D01*
X116447065Y-121082751D01*
X116494684Y-121130370D01*
X116542303Y-121225608D01*
X116542303Y-121463703D01*
X116494684Y-121558941D01*
X116447065Y-121606560D01*
X116351827Y-121654179D01*
X116066113Y-121654179D01*
X115970875Y-121606560D01*
X115923256Y-121558941D01*
%TO.C,R4*%
X142117880Y-127039666D02*
X141641690Y-127373000D01*
X142117880Y-127611095D02*
X141117880Y-127611095D01*
X141117880Y-127230142D01*
X141165500Y-127134904D01*
X141213119Y-127087285D01*
X141308357Y-127039666D01*
X141451214Y-127039666D01*
X141546452Y-127087285D01*
X141594071Y-127134904D01*
X141641690Y-127230142D01*
X141641690Y-127611095D01*
X141451214Y-126182523D02*
X142117880Y-126182523D01*
X141070261Y-126420619D02*
X141784547Y-126658714D01*
X141784547Y-126039666D01*
%TO.C,C24*%
X201271442Y-77166742D02*
X201223823Y-77214361D01*
X201080966Y-77261980D01*
X200985728Y-77261980D01*
X200842871Y-77214361D01*
X200747633Y-77119123D01*
X200700014Y-77023885D01*
X200652395Y-76833409D01*
X200652395Y-76690552D01*
X200700014Y-76500076D01*
X200747633Y-76404838D01*
X200842871Y-76309600D01*
X200985728Y-76261980D01*
X201080966Y-76261980D01*
X201223823Y-76309600D01*
X201271442Y-76357219D01*
X201652395Y-76357219D02*
X201700014Y-76309600D01*
X201795252Y-76261980D01*
X202033347Y-76261980D01*
X202128585Y-76309600D01*
X202176204Y-76357219D01*
X202223823Y-76452457D01*
X202223823Y-76547695D01*
X202176204Y-76690552D01*
X201604776Y-77261980D01*
X202223823Y-77261980D01*
X203080966Y-76595314D02*
X203080966Y-77261980D01*
X202842871Y-76214361D02*
X202604776Y-76928647D01*
X203223823Y-76928647D01*
%TO.C,R38*%
X89686480Y-129725657D02*
X89210290Y-130058990D01*
X89686480Y-130297085D02*
X88686480Y-130297085D01*
X88686480Y-129916133D01*
X88734100Y-129820895D01*
X88781719Y-129773276D01*
X88876957Y-129725657D01*
X89019814Y-129725657D01*
X89115052Y-129773276D01*
X89162671Y-129820895D01*
X89210290Y-129916133D01*
X89210290Y-130297085D01*
X88686480Y-129392323D02*
X88686480Y-128773276D01*
X89067433Y-129106609D01*
X89067433Y-128963752D01*
X89115052Y-128868514D01*
X89162671Y-128820895D01*
X89257909Y-128773276D01*
X89496004Y-128773276D01*
X89591242Y-128820895D01*
X89638861Y-128868514D01*
X89686480Y-128963752D01*
X89686480Y-129249466D01*
X89638861Y-129344704D01*
X89591242Y-129392323D01*
X89115052Y-128201847D02*
X89067433Y-128297085D01*
X89019814Y-128344704D01*
X88924576Y-128392323D01*
X88876957Y-128392323D01*
X88781719Y-128344704D01*
X88734100Y-128297085D01*
X88686480Y-128201847D01*
X88686480Y-128011371D01*
X88734100Y-127916133D01*
X88781719Y-127868514D01*
X88876957Y-127820895D01*
X88924576Y-127820895D01*
X89019814Y-127868514D01*
X89067433Y-127916133D01*
X89115052Y-128011371D01*
X89115052Y-128201847D01*
X89162671Y-128297085D01*
X89210290Y-128344704D01*
X89305528Y-128392323D01*
X89496004Y-128392323D01*
X89591242Y-128344704D01*
X89638861Y-128297085D01*
X89686480Y-128201847D01*
X89686480Y-128011371D01*
X89638861Y-127916133D01*
X89591242Y-127868514D01*
X89496004Y-127820895D01*
X89305528Y-127820895D01*
X89210290Y-127868514D01*
X89162671Y-127916133D01*
X89115052Y-128011371D01*
%TO.C,U2*%
X135467995Y-72705980D02*
X135467995Y-73515504D01*
X135515614Y-73610742D01*
X135563233Y-73658361D01*
X135658471Y-73705980D01*
X135848947Y-73705980D01*
X135944185Y-73658361D01*
X135991804Y-73610742D01*
X136039423Y-73515504D01*
X136039423Y-72705980D01*
X136467995Y-72801219D02*
X136515614Y-72753600D01*
X136610852Y-72705980D01*
X136848947Y-72705980D01*
X136944185Y-72753600D01*
X136991804Y-72801219D01*
X137039423Y-72896457D01*
X137039423Y-72991695D01*
X136991804Y-73134552D01*
X136420376Y-73705980D01*
X137039423Y-73705980D01*
%TO.C,C2*%
X140041442Y-117209866D02*
X140089061Y-117257485D01*
X140136680Y-117400342D01*
X140136680Y-117495580D01*
X140089061Y-117638438D01*
X139993823Y-117733676D01*
X139898585Y-117781295D01*
X139708109Y-117828914D01*
X139565252Y-117828914D01*
X139374776Y-117781295D01*
X139279538Y-117733676D01*
X139184300Y-117638438D01*
X139136680Y-117495580D01*
X139136680Y-117400342D01*
X139184300Y-117257485D01*
X139231919Y-117209866D01*
X139231919Y-116828914D02*
X139184300Y-116781295D01*
X139136680Y-116686057D01*
X139136680Y-116447961D01*
X139184300Y-116352723D01*
X139231919Y-116305104D01*
X139327157Y-116257485D01*
X139422395Y-116257485D01*
X139565252Y-116305104D01*
X140136680Y-116876533D01*
X140136680Y-116257485D01*
%TO.C,D1*%
X64692304Y-127706380D02*
X64692304Y-126706380D01*
X64930400Y-126706380D01*
X65073257Y-126754000D01*
X65168495Y-126849238D01*
X65216114Y-126944476D01*
X65263733Y-127134952D01*
X65263733Y-127277809D01*
X65216114Y-127468285D01*
X65168495Y-127563523D01*
X65073257Y-127658761D01*
X64930400Y-127706380D01*
X64692304Y-127706380D01*
X66216114Y-127706380D02*
X65644685Y-127706380D01*
X65930400Y-127706380D02*
X65930400Y-126706380D01*
X65835161Y-126849238D01*
X65739923Y-126944476D01*
X65644685Y-126992095D01*
%TO.C,J11*%
X160566376Y-145265180D02*
X160566376Y-145979466D01*
X160518757Y-146122323D01*
X160423519Y-146217561D01*
X160280661Y-146265180D01*
X160185423Y-146265180D01*
X161566376Y-146265180D02*
X160994947Y-146265180D01*
X161280661Y-146265180D02*
X161280661Y-145265180D01*
X161185423Y-145408038D01*
X161090185Y-145503276D01*
X160994947Y-145550895D01*
X162518757Y-146265180D02*
X161947328Y-146265180D01*
X162233042Y-146265180D02*
X162233042Y-145265180D01*
X162137804Y-145408038D01*
X162042566Y-145503276D01*
X161947328Y-145550895D01*
%TO.C,Conn1*%
X150592680Y-93746709D02*
X150592680Y-93127661D01*
X150973633Y-93460995D01*
X150973633Y-93318138D01*
X151021252Y-93222900D01*
X151068871Y-93175280D01*
X151164109Y-93127661D01*
X151402204Y-93127661D01*
X151497442Y-93175280D01*
X151545061Y-93222900D01*
X151592680Y-93318138D01*
X151592680Y-93603852D01*
X151545061Y-93699090D01*
X151497442Y-93746709D01*
X150592680Y-92794328D02*
X150592680Y-92175280D01*
X150973633Y-92508614D01*
X150973633Y-92365757D01*
X151021252Y-92270519D01*
X151068871Y-92222900D01*
X151164109Y-92175280D01*
X151402204Y-92175280D01*
X151497442Y-92222900D01*
X151545061Y-92270519D01*
X151592680Y-92365757D01*
X151592680Y-92651471D01*
X151545061Y-92746709D01*
X151497442Y-92794328D01*
X151497442Y-91746709D02*
X151545061Y-91699090D01*
X151592680Y-91746709D01*
X151545061Y-91794328D01*
X151497442Y-91746709D01*
X151592680Y-91746709D01*
X150926014Y-90841947D02*
X151592680Y-90841947D01*
X150545061Y-91080042D02*
X151259347Y-91318138D01*
X151259347Y-90699090D01*
X83792680Y-94046709D02*
X83792680Y-93427661D01*
X84173633Y-93760995D01*
X84173633Y-93618138D01*
X84221252Y-93522900D01*
X84268871Y-93475280D01*
X84364109Y-93427661D01*
X84602204Y-93427661D01*
X84697442Y-93475280D01*
X84745061Y-93522900D01*
X84792680Y-93618138D01*
X84792680Y-93903852D01*
X84745061Y-93999090D01*
X84697442Y-94046709D01*
X83792680Y-93094328D02*
X83792680Y-92475280D01*
X84173633Y-92808614D01*
X84173633Y-92665757D01*
X84221252Y-92570519D01*
X84268871Y-92522900D01*
X84364109Y-92475280D01*
X84602204Y-92475280D01*
X84697442Y-92522900D01*
X84745061Y-92570519D01*
X84792680Y-92665757D01*
X84792680Y-92951471D01*
X84745061Y-93046709D01*
X84697442Y-93094328D01*
X84697442Y-92046709D02*
X84745061Y-91999090D01*
X84792680Y-92046709D01*
X84745061Y-92094328D01*
X84697442Y-92046709D01*
X84792680Y-92046709D01*
X84126014Y-91141947D02*
X84792680Y-91141947D01*
X83745061Y-91380042D02*
X84459347Y-91618138D01*
X84459347Y-90999090D01*
%TO.C,R37*%
X86695080Y-129725657D02*
X86218890Y-130058990D01*
X86695080Y-130297085D02*
X85695080Y-130297085D01*
X85695080Y-129916133D01*
X85742700Y-129820895D01*
X85790319Y-129773276D01*
X85885557Y-129725657D01*
X86028414Y-129725657D01*
X86123652Y-129773276D01*
X86171271Y-129820895D01*
X86218890Y-129916133D01*
X86218890Y-130297085D01*
X85695080Y-129392323D02*
X85695080Y-128773276D01*
X86076033Y-129106609D01*
X86076033Y-128963752D01*
X86123652Y-128868514D01*
X86171271Y-128820895D01*
X86266509Y-128773276D01*
X86504604Y-128773276D01*
X86599842Y-128820895D01*
X86647461Y-128868514D01*
X86695080Y-128963752D01*
X86695080Y-129249466D01*
X86647461Y-129344704D01*
X86599842Y-129392323D01*
X85695080Y-128439942D02*
X85695080Y-127773276D01*
X86695080Y-128201847D01*
%TO.C,R5*%
X140085880Y-127039666D02*
X139609690Y-127373000D01*
X140085880Y-127611095D02*
X139085880Y-127611095D01*
X139085880Y-127230142D01*
X139133500Y-127134904D01*
X139181119Y-127087285D01*
X139276357Y-127039666D01*
X139419214Y-127039666D01*
X139514452Y-127087285D01*
X139562071Y-127134904D01*
X139609690Y-127230142D01*
X139609690Y-127611095D01*
X139085880Y-126134904D02*
X139085880Y-126611095D01*
X139562071Y-126658714D01*
X139514452Y-126611095D01*
X139466833Y-126515857D01*
X139466833Y-126277761D01*
X139514452Y-126182523D01*
X139562071Y-126134904D01*
X139657309Y-126087285D01*
X139895404Y-126087285D01*
X139990642Y-126134904D01*
X140038261Y-126182523D01*
X140085880Y-126277761D01*
X140085880Y-126515857D01*
X140038261Y-126611095D01*
X139990642Y-126658714D01*
%TO.C,R3*%
X79030533Y-127706380D02*
X78697200Y-127230190D01*
X78459104Y-127706380D02*
X78459104Y-126706380D01*
X78840057Y-126706380D01*
X78935295Y-126754000D01*
X78982914Y-126801619D01*
X79030533Y-126896857D01*
X79030533Y-127039714D01*
X78982914Y-127134952D01*
X78935295Y-127182571D01*
X78840057Y-127230190D01*
X78459104Y-127230190D01*
X79363866Y-126706380D02*
X79982914Y-126706380D01*
X79649580Y-127087333D01*
X79792438Y-127087333D01*
X79887676Y-127134952D01*
X79935295Y-127182571D01*
X79982914Y-127277809D01*
X79982914Y-127515904D01*
X79935295Y-127611142D01*
X79887676Y-127658761D01*
X79792438Y-127706380D01*
X79506723Y-127706380D01*
X79411485Y-127658761D01*
X79363866Y-127611142D01*
%TO.C,D5*%
X95686380Y-143502095D02*
X94686380Y-143502095D01*
X94686380Y-143264000D01*
X94734000Y-143121142D01*
X94829238Y-143025904D01*
X94924476Y-142978285D01*
X95114952Y-142930666D01*
X95257809Y-142930666D01*
X95448285Y-142978285D01*
X95543523Y-143025904D01*
X95638761Y-143121142D01*
X95686380Y-143264000D01*
X95686380Y-143502095D01*
X94686380Y-142025904D02*
X94686380Y-142502095D01*
X95162571Y-142549714D01*
X95114952Y-142502095D01*
X95067333Y-142406857D01*
X95067333Y-142168761D01*
X95114952Y-142073523D01*
X95162571Y-142025904D01*
X95257809Y-141978285D01*
X95495904Y-141978285D01*
X95591142Y-142025904D01*
X95638761Y-142073523D01*
X95686380Y-142168761D01*
X95686380Y-142406857D01*
X95638761Y-142502095D01*
X95591142Y-142549714D01*
%TO.C,R11*%
X127589080Y-127973057D02*
X127112890Y-128306390D01*
X127589080Y-128544485D02*
X126589080Y-128544485D01*
X126589080Y-128163533D01*
X126636700Y-128068295D01*
X126684319Y-128020676D01*
X126779557Y-127973057D01*
X126922414Y-127973057D01*
X127017652Y-128020676D01*
X127065271Y-128068295D01*
X127112890Y-128163533D01*
X127112890Y-128544485D01*
X127589080Y-127020676D02*
X127589080Y-127592104D01*
X127589080Y-127306390D02*
X126589080Y-127306390D01*
X126731938Y-127401628D01*
X126827176Y-127496866D01*
X126874795Y-127592104D01*
X127589080Y-126068295D02*
X127589080Y-126639723D01*
X127589080Y-126354009D02*
X126589080Y-126354009D01*
X126731938Y-126449247D01*
X126827176Y-126544485D01*
X126874795Y-126639723D01*
%TO.C,R9*%
X131754680Y-126988866D02*
X131278490Y-127322200D01*
X131754680Y-127560295D02*
X130754680Y-127560295D01*
X130754680Y-127179342D01*
X130802300Y-127084104D01*
X130849919Y-127036485D01*
X130945157Y-126988866D01*
X131088014Y-126988866D01*
X131183252Y-127036485D01*
X131230871Y-127084104D01*
X131278490Y-127179342D01*
X131278490Y-127560295D01*
X131754680Y-126512676D02*
X131754680Y-126322200D01*
X131707061Y-126226961D01*
X131659442Y-126179342D01*
X131516585Y-126084104D01*
X131326109Y-126036485D01*
X130945157Y-126036485D01*
X130849919Y-126084104D01*
X130802300Y-126131723D01*
X130754680Y-126226961D01*
X130754680Y-126417438D01*
X130802300Y-126512676D01*
X130849919Y-126560295D01*
X130945157Y-126607914D01*
X131183252Y-126607914D01*
X131278490Y-126560295D01*
X131326109Y-126512676D01*
X131373728Y-126417438D01*
X131373728Y-126226961D01*
X131326109Y-126131723D01*
X131278490Y-126084104D01*
X131183252Y-126036485D01*
%TO.C,C18*%
X108780342Y-111710742D02*
X108732723Y-111758361D01*
X108589866Y-111805980D01*
X108494628Y-111805980D01*
X108351771Y-111758361D01*
X108256533Y-111663123D01*
X108208914Y-111567885D01*
X108161295Y-111377409D01*
X108161295Y-111234552D01*
X108208914Y-111044076D01*
X108256533Y-110948838D01*
X108351771Y-110853600D01*
X108494628Y-110805980D01*
X108589866Y-110805980D01*
X108732723Y-110853600D01*
X108780342Y-110901219D01*
X109732723Y-111805980D02*
X109161295Y-111805980D01*
X109447009Y-111805980D02*
X109447009Y-110805980D01*
X109351771Y-110948838D01*
X109256533Y-111044076D01*
X109161295Y-111091695D01*
X110304152Y-111234552D02*
X110208914Y-111186933D01*
X110161295Y-111139314D01*
X110113676Y-111044076D01*
X110113676Y-110996457D01*
X110161295Y-110901219D01*
X110208914Y-110853600D01*
X110304152Y-110805980D01*
X110494628Y-110805980D01*
X110589866Y-110853600D01*
X110637485Y-110901219D01*
X110685104Y-110996457D01*
X110685104Y-111044076D01*
X110637485Y-111139314D01*
X110589866Y-111186933D01*
X110494628Y-111234552D01*
X110304152Y-111234552D01*
X110208914Y-111282171D01*
X110161295Y-111329790D01*
X110113676Y-111425028D01*
X110113676Y-111615504D01*
X110161295Y-111710742D01*
X110208914Y-111758361D01*
X110304152Y-111805980D01*
X110494628Y-111805980D01*
X110589866Y-111758361D01*
X110637485Y-111710742D01*
X110685104Y-111615504D01*
X110685104Y-111425028D01*
X110637485Y-111329790D01*
X110589866Y-111282171D01*
X110494628Y-111234552D01*
%TO.C,U5*%
X98348895Y-104760780D02*
X98348895Y-105570304D01*
X98396514Y-105665542D01*
X98444133Y-105713161D01*
X98539371Y-105760780D01*
X98729847Y-105760780D01*
X98825085Y-105713161D01*
X98872704Y-105665542D01*
X98920323Y-105570304D01*
X98920323Y-104760780D01*
X99872704Y-104760780D02*
X99396514Y-104760780D01*
X99348895Y-105236971D01*
X99396514Y-105189352D01*
X99491752Y-105141733D01*
X99729847Y-105141733D01*
X99825085Y-105189352D01*
X99872704Y-105236971D01*
X99920323Y-105332209D01*
X99920323Y-105570304D01*
X99872704Y-105665542D01*
X99825085Y-105713161D01*
X99729847Y-105760780D01*
X99491752Y-105760780D01*
X99396514Y-105713161D01*
X99348895Y-105665542D01*
%TO.C,C10*%
X136552242Y-78999142D02*
X136504623Y-79046761D01*
X136361766Y-79094380D01*
X136266528Y-79094380D01*
X136123671Y-79046761D01*
X136028433Y-78951523D01*
X135980814Y-78856285D01*
X135933195Y-78665809D01*
X135933195Y-78522952D01*
X135980814Y-78332476D01*
X136028433Y-78237238D01*
X136123671Y-78142000D01*
X136266528Y-78094380D01*
X136361766Y-78094380D01*
X136504623Y-78142000D01*
X136552242Y-78189619D01*
X137504623Y-79094380D02*
X136933195Y-79094380D01*
X137218909Y-79094380D02*
X137218909Y-78094380D01*
X137123671Y-78237238D01*
X137028433Y-78332476D01*
X136933195Y-78380095D01*
X138123671Y-78094380D02*
X138218909Y-78094380D01*
X138314147Y-78142000D01*
X138361766Y-78189619D01*
X138409385Y-78284857D01*
X138457004Y-78475333D01*
X138457004Y-78713428D01*
X138409385Y-78903904D01*
X138361766Y-78999142D01*
X138314147Y-79046761D01*
X138218909Y-79094380D01*
X138123671Y-79094380D01*
X138028433Y-79046761D01*
X137980814Y-78999142D01*
X137933195Y-78903904D01*
X137885576Y-78713428D01*
X137885576Y-78475333D01*
X137933195Y-78284857D01*
X137980814Y-78189619D01*
X138028433Y-78142000D01*
X138123671Y-78094380D01*
%TO.C,R15*%
X186082242Y-117698780D02*
X185748909Y-117222590D01*
X185510814Y-117698780D02*
X185510814Y-116698780D01*
X185891766Y-116698780D01*
X185987004Y-116746400D01*
X186034623Y-116794019D01*
X186082242Y-116889257D01*
X186082242Y-117032114D01*
X186034623Y-117127352D01*
X185987004Y-117174971D01*
X185891766Y-117222590D01*
X185510814Y-117222590D01*
X187034623Y-117698780D02*
X186463195Y-117698780D01*
X186748909Y-117698780D02*
X186748909Y-116698780D01*
X186653671Y-116841638D01*
X186558433Y-116936876D01*
X186463195Y-116984495D01*
X187939385Y-116698780D02*
X187463195Y-116698780D01*
X187415576Y-117174971D01*
X187463195Y-117127352D01*
X187558433Y-117079733D01*
X187796528Y-117079733D01*
X187891766Y-117127352D01*
X187939385Y-117174971D01*
X187987004Y-117270209D01*
X187987004Y-117508304D01*
X187939385Y-117603542D01*
X187891766Y-117651161D01*
X187796528Y-117698780D01*
X187558433Y-117698780D01*
X187463195Y-117651161D01*
X187415576Y-117603542D01*
%TO.C,R6*%
X138003080Y-127039666D02*
X137526890Y-127373000D01*
X138003080Y-127611095D02*
X137003080Y-127611095D01*
X137003080Y-127230142D01*
X137050700Y-127134904D01*
X137098319Y-127087285D01*
X137193557Y-127039666D01*
X137336414Y-127039666D01*
X137431652Y-127087285D01*
X137479271Y-127134904D01*
X137526890Y-127230142D01*
X137526890Y-127611095D01*
X137003080Y-126182523D02*
X137003080Y-126373000D01*
X137050700Y-126468238D01*
X137098319Y-126515857D01*
X137241176Y-126611095D01*
X137431652Y-126658714D01*
X137812604Y-126658714D01*
X137907842Y-126611095D01*
X137955461Y-126563476D01*
X138003080Y-126468238D01*
X138003080Y-126277761D01*
X137955461Y-126182523D01*
X137907842Y-126134904D01*
X137812604Y-126087285D01*
X137574509Y-126087285D01*
X137479271Y-126134904D01*
X137431652Y-126182523D01*
X137384033Y-126277761D01*
X137384033Y-126468238D01*
X137431652Y-126563476D01*
X137479271Y-126611095D01*
X137574509Y-126658714D01*
%TO.C,R21*%
X98974141Y-128275179D02*
X98640808Y-127798989D01*
X98402713Y-128275179D02*
X98402713Y-127275179D01*
X98783665Y-127275179D01*
X98878903Y-127322799D01*
X98926522Y-127370418D01*
X98974141Y-127465656D01*
X98974141Y-127608513D01*
X98926522Y-127703751D01*
X98878903Y-127751370D01*
X98783665Y-127798989D01*
X98402713Y-127798989D01*
X99355094Y-127370418D02*
X99402713Y-127322799D01*
X99497951Y-127275179D01*
X99736046Y-127275179D01*
X99831284Y-127322799D01*
X99878903Y-127370418D01*
X99926522Y-127465656D01*
X99926522Y-127560894D01*
X99878903Y-127703751D01*
X99307475Y-128275179D01*
X99926522Y-128275179D01*
X100878903Y-128275179D02*
X100307475Y-128275179D01*
X100593189Y-128275179D02*
X100593189Y-127275179D01*
X100497951Y-127418037D01*
X100402713Y-127513275D01*
X100307475Y-127560894D01*
%TO.C,U6*%
X121599595Y-72705980D02*
X121599595Y-73515504D01*
X121647214Y-73610742D01*
X121694833Y-73658361D01*
X121790071Y-73705980D01*
X121980547Y-73705980D01*
X122075785Y-73658361D01*
X122123404Y-73610742D01*
X122171023Y-73515504D01*
X122171023Y-72705980D01*
X123075785Y-72705980D02*
X122885309Y-72705980D01*
X122790071Y-72753600D01*
X122742452Y-72801219D01*
X122647214Y-72944076D01*
X122599595Y-73134552D01*
X122599595Y-73515504D01*
X122647214Y-73610742D01*
X122694833Y-73658361D01*
X122790071Y-73705980D01*
X122980547Y-73705980D01*
X123075785Y-73658361D01*
X123123404Y-73610742D01*
X123171023Y-73515504D01*
X123171023Y-73277409D01*
X123123404Y-73182171D01*
X123075785Y-73134552D01*
X122980547Y-73086933D01*
X122790071Y-73086933D01*
X122694833Y-73134552D01*
X122647214Y-73182171D01*
X122599595Y-73277409D01*
%TO.C,C13*%
X114637541Y-125622941D02*
X114589922Y-125670560D01*
X114447065Y-125718179D01*
X114351827Y-125718179D01*
X114208970Y-125670560D01*
X114113732Y-125575322D01*
X114066113Y-125480084D01*
X114018494Y-125289608D01*
X114018494Y-125146751D01*
X114066113Y-124956275D01*
X114113732Y-124861037D01*
X114208970Y-124765799D01*
X114351827Y-124718179D01*
X114447065Y-124718179D01*
X114589922Y-124765799D01*
X114637541Y-124813418D01*
X115589922Y-125718179D02*
X115018494Y-125718179D01*
X115304208Y-125718179D02*
X115304208Y-124718179D01*
X115208970Y-124861037D01*
X115113732Y-124956275D01*
X115018494Y-125003894D01*
X115923256Y-124718179D02*
X116542303Y-124718179D01*
X116208970Y-125099132D01*
X116351827Y-125099132D01*
X116447065Y-125146751D01*
X116494684Y-125194370D01*
X116542303Y-125289608D01*
X116542303Y-125527703D01*
X116494684Y-125622941D01*
X116447065Y-125670560D01*
X116351827Y-125718179D01*
X116066113Y-125718179D01*
X115970875Y-125670560D01*
X115923256Y-125622941D01*
%TO.C,C14*%
X98974141Y-124014341D02*
X98926522Y-124061960D01*
X98783665Y-124109579D01*
X98688427Y-124109579D01*
X98545570Y-124061960D01*
X98450332Y-123966722D01*
X98402713Y-123871484D01*
X98355094Y-123681008D01*
X98355094Y-123538151D01*
X98402713Y-123347675D01*
X98450332Y-123252437D01*
X98545570Y-123157199D01*
X98688427Y-123109579D01*
X98783665Y-123109579D01*
X98926522Y-123157199D01*
X98974141Y-123204818D01*
X99926522Y-124109579D02*
X99355094Y-124109579D01*
X99640808Y-124109579D02*
X99640808Y-123109579D01*
X99545570Y-123252437D01*
X99450332Y-123347675D01*
X99355094Y-123395294D01*
X100783665Y-123442913D02*
X100783665Y-124109579D01*
X100545570Y-123061960D02*
X100307475Y-123776246D01*
X100926522Y-123776246D01*
D12*
%TO.C,R33*%
X79662564Y-69369000D02*
X79208436Y-69369000D01*
X79662564Y-70839000D02*
X79208436Y-70839000D01*
%TO.C,R39*%
X91534032Y-132157736D02*
X91534032Y-132611864D01*
X93004032Y-132157736D02*
X93004032Y-132611864D01*
%TO.C,C15*%
X110657547Y-126641799D02*
X112080051Y-126641799D01*
X110657547Y-128461799D02*
X112080051Y-128461799D01*
%TO.C,R8*%
X132700900Y-124255264D02*
X132700900Y-123801136D01*
X134170900Y-124255264D02*
X134170900Y-123801136D01*
%TO.C,R40*%
X96065100Y-132157736D02*
X96065100Y-132611864D01*
X94595100Y-132157736D02*
X94595100Y-132611864D01*
%TO.C,SW3*%
X68430700Y-72009000D02*
X68430700Y-73279000D01*
X68430700Y-75029000D02*
X69637367Y-75029000D01*
X68430700Y-72969000D02*
X69637367Y-72969000D01*
X69637367Y-74549000D02*
X69637367Y-75819000D01*
X66830700Y-67994000D02*
X66830700Y-69304000D01*
X68430700Y-77689000D02*
X69637367Y-77689000D01*
X68430700Y-69469000D02*
X68430700Y-70739000D01*
X68430700Y-74549000D02*
X68430700Y-75819000D01*
X73650700Y-70904000D02*
X73650700Y-71844000D01*
X68430700Y-75269000D02*
X69637367Y-75269000D01*
X68430700Y-78289000D02*
X69637367Y-78289000D01*
X68430700Y-72369000D02*
X69637367Y-72369000D01*
X68430700Y-78169000D02*
X69637367Y-78169000D01*
X73650700Y-75984000D02*
X73650700Y-76924000D01*
X66830700Y-75984000D02*
X66830700Y-76924000D01*
X68430700Y-70309000D02*
X69637367Y-70309000D01*
X68430700Y-69709000D02*
X69637367Y-69709000D01*
X66830700Y-67994000D02*
X73650700Y-67994000D01*
X69637367Y-77089000D02*
X69637367Y-78359000D01*
X68430700Y-75629000D02*
X69637367Y-75629000D01*
X68430700Y-75389000D02*
X69637367Y-75389000D01*
X66590700Y-67754000D02*
X67973700Y-67754000D01*
X66590700Y-67754000D02*
X66590700Y-69137000D01*
X72050700Y-72009000D02*
X68430700Y-72009000D01*
X68430700Y-72489000D02*
X69637367Y-72489000D01*
X68430700Y-74789000D02*
X69637367Y-74789000D01*
X68430700Y-77929000D02*
X69637367Y-77929000D01*
X68430700Y-75819000D02*
X72050700Y-75819000D01*
X66830700Y-79834000D02*
X73650700Y-79834000D01*
X68430700Y-70739000D02*
X72050700Y-70739000D01*
X69637367Y-69469000D02*
X69637367Y-70739000D01*
X68430700Y-73209000D02*
X69637367Y-73209000D01*
X72050700Y-78359000D02*
X72050700Y-77089000D01*
X72050700Y-74549000D02*
X68430700Y-74549000D01*
X68430700Y-70189000D02*
X69637367Y-70189000D01*
X66830700Y-73444000D02*
X66830700Y-74384000D01*
X68430700Y-75509000D02*
X69637367Y-75509000D01*
X72050700Y-70739000D02*
X72050700Y-69469000D01*
X68430700Y-69589000D02*
X69637367Y-69589000D01*
X72050700Y-73279000D02*
X72050700Y-72009000D01*
X68430700Y-69949000D02*
X69637367Y-69949000D01*
X68430700Y-78359000D02*
X72050700Y-78359000D01*
X68430700Y-70669000D02*
X69637367Y-70669000D01*
X68430700Y-72729000D02*
X69637367Y-72729000D01*
X68430700Y-77329000D02*
X69637367Y-77329000D01*
X73650700Y-73444000D02*
X73650700Y-74384000D01*
X72050700Y-75819000D02*
X72050700Y-74549000D01*
X68430700Y-77569000D02*
X69637367Y-77569000D01*
X68430700Y-77809000D02*
X69637367Y-77809000D01*
X68430700Y-69829000D02*
X69637367Y-69829000D01*
X68430700Y-72129000D02*
X69637367Y-72129000D01*
X73650700Y-78524000D02*
X73650700Y-79834000D01*
X68430700Y-73279000D02*
X72050700Y-73279000D01*
X68430700Y-72609000D02*
X69637367Y-72609000D01*
X68430700Y-75749000D02*
X69637367Y-75749000D01*
X68430700Y-78049000D02*
X69637367Y-78049000D01*
X68430700Y-77449000D02*
X69637367Y-77449000D01*
X68430700Y-70549000D02*
X69637367Y-70549000D01*
X68430700Y-74909000D02*
X69637367Y-74909000D01*
X66830700Y-78524000D02*
X66830700Y-79834000D01*
X68430700Y-77209000D02*
X69637367Y-77209000D01*
X68430700Y-72249000D02*
X69637367Y-72249000D01*
X68430700Y-77089000D02*
X68430700Y-78359000D01*
X66830700Y-70904000D02*
X66830700Y-71844000D01*
X69637367Y-72009000D02*
X69637367Y-73279000D01*
X72050700Y-77089000D02*
X68430700Y-77089000D01*
X68430700Y-73089000D02*
X69637367Y-73089000D01*
X73650700Y-67994000D02*
X73650700Y-69304000D01*
X68430700Y-75149000D02*
X69637367Y-75149000D01*
X72050700Y-69469000D02*
X68430700Y-69469000D01*
X68430700Y-70069000D02*
X69637367Y-70069000D01*
X68430700Y-72849000D02*
X69637367Y-72849000D01*
X68430700Y-74669000D02*
X69637367Y-74669000D01*
X68430700Y-70429000D02*
X69637367Y-70429000D01*
%TO.C,R29*%
X91771736Y-95781800D02*
X92225864Y-95781800D01*
X91771736Y-94311800D02*
X92225864Y-94311800D01*
%TO.C,D3*%
X90137666Y-141677600D02*
X90137666Y-138817600D01*
X88217666Y-138817600D02*
X88217666Y-141677600D01*
X88217666Y-141677600D02*
X90137666Y-141677600D01*
%TO.C,C16*%
X134143602Y-108075400D02*
X133621098Y-108075400D01*
X134143602Y-106605400D02*
X133621098Y-106605400D01*
%TO.C,R10*%
X128535300Y-124255264D02*
X128535300Y-123801136D01*
X130005300Y-124255264D02*
X130005300Y-123801136D01*
%TO.C,R35*%
X79764164Y-75919000D02*
X79310036Y-75919000D01*
X79764164Y-74449000D02*
X79310036Y-74449000D01*
%TO.C,D2*%
X85186600Y-138817600D02*
X85186600Y-141677600D01*
X87106600Y-141677600D02*
X87106600Y-138817600D01*
X85186600Y-141677600D02*
X87106600Y-141677600D01*
%TO.C,R7*%
X134783700Y-124255264D02*
X134783700Y-123801136D01*
X136253700Y-124255264D02*
X136253700Y-123801136D01*
%TO.C,R16*%
X183196036Y-120165800D02*
X183650164Y-120165800D01*
X183196036Y-118695800D02*
X183650164Y-118695800D01*
%TO.C,C12*%
X104290651Y-122077999D02*
X102868147Y-122077999D01*
X104290651Y-120257999D02*
X102868147Y-120257999D01*
%TO.C,C6*%
X130618100Y-119829948D02*
X130618100Y-120352452D01*
X132088100Y-119829948D02*
X132088100Y-120352452D01*
%TO.C,R34*%
X79713364Y-71909000D02*
X79259236Y-71909000D01*
X79713364Y-73379000D02*
X79259236Y-73379000D01*
%TO.C,R2*%
X76528664Y-125855400D02*
X76074536Y-125855400D01*
X76528664Y-124385400D02*
X76074536Y-124385400D01*
%TO.C,C4*%
X136253700Y-119829948D02*
X136253700Y-120352452D01*
X134783700Y-119829948D02*
X134783700Y-120352452D01*
%TO.C,R31*%
X165717700Y-129058936D02*
X165717700Y-129513064D01*
X164247700Y-129058936D02*
X164247700Y-129513064D01*
%TO.C,C3*%
X138336500Y-119829948D02*
X138336500Y-120352452D01*
X136866500Y-119829948D02*
X136866500Y-120352452D01*
%TO.C,C7*%
X130005300Y-119829948D02*
X130005300Y-120352452D01*
X128535300Y-119829948D02*
X128535300Y-120352452D01*
%TO.C,C1*%
X142502100Y-119829948D02*
X142502100Y-120352452D01*
X141032100Y-119829948D02*
X141032100Y-120352452D01*
%TO.C,SW2*%
X174737500Y-135976800D02*
X174737500Y-140476800D01*
X178737500Y-134726800D02*
X177237500Y-134726800D01*
X181237500Y-140476800D02*
X181237500Y-135976800D01*
X177237500Y-141726800D02*
X178737500Y-141726800D01*
%TO.C,J2*%
X143083700Y-51552800D02*
X194003700Y-51552800D01*
X145683700Y-56752800D02*
X194003700Y-56752800D01*
X145683700Y-54152800D02*
X143083700Y-54152800D01*
X194003700Y-56752800D02*
X194003700Y-51552800D01*
X144413700Y-56752800D02*
X143083700Y-56752800D01*
X145683700Y-56752800D02*
X145683700Y-54152800D01*
X143083700Y-56752800D02*
X143083700Y-55422800D01*
X143083700Y-54152800D02*
X143083700Y-51552800D01*
%TO.C,J10*%
X111393899Y-146811199D02*
X109493899Y-146811199D01*
X108523899Y-132571199D02*
X111393899Y-132571199D01*
X111393899Y-132571199D02*
X111393899Y-146811199D01*
X103253899Y-146811199D02*
X102953899Y-146811199D01*
X109493899Y-150811199D02*
X103253899Y-150811199D01*
X109493899Y-146811199D02*
X109493899Y-150811199D01*
X102953899Y-132571199D02*
X106273899Y-132571199D01*
X103253899Y-150811199D02*
X103253899Y-146811199D01*
X102953899Y-146811199D02*
X102953899Y-132571199D01*
%TO.C,C19*%
X123638752Y-77697000D02*
X123116248Y-77697000D01*
X123638752Y-76227000D02*
X123116248Y-76227000D01*
%TO.C,C8*%
X127922500Y-119829948D02*
X127922500Y-120352452D01*
X126452500Y-119829948D02*
X126452500Y-120352452D01*
%TO.C,C23*%
X129263048Y-131230700D02*
X129785552Y-131230700D01*
X129263048Y-132700700D02*
X129785552Y-132700700D01*
%TO.C,Q3*%
X114488400Y-98856800D02*
X114488400Y-99506800D01*
X114488400Y-98856800D02*
X114488400Y-97181800D01*
X111368400Y-98856800D02*
X111368400Y-98206800D01*
X111368400Y-98856800D02*
X111368400Y-99506800D01*
%TO.C,J7*%
X125571900Y-144573000D02*
X125571900Y-146673000D01*
X126481900Y-135523000D02*
X128281900Y-135523000D01*
X125571900Y-139073000D02*
X125571900Y-141873000D01*
X140791900Y-139073000D02*
X140791900Y-141873000D01*
X138081900Y-135523000D02*
X139881900Y-135523000D01*
X138081900Y-134773000D02*
X138081900Y-135523000D01*
X140791900Y-144573000D02*
X140791900Y-146673000D01*
D10*
%TO.C,J9*%
X206270000Y-125813200D02*
X191570000Y-125813200D01*
X206270000Y-110813200D02*
X206270000Y-125813200D01*
X191570000Y-125813200D02*
X191570000Y-110813200D01*
X191570000Y-110813200D02*
X206270000Y-110813200D01*
X202070000Y-115263200D02*
G75*
G03*
X202070000Y-115263200I-500000J0D01*
G01*
X202070000Y-123243200D02*
G75*
G03*
X202070000Y-123243200I-500000J0D01*
G01*
D12*
%TO.C,C9*%
X189761800Y-130142348D02*
X189761800Y-130664852D01*
X188291800Y-130142348D02*
X188291800Y-130664852D01*
%TO.C,R36*%
X79764164Y-76989000D02*
X79310036Y-76989000D01*
X79764164Y-78459000D02*
X79310036Y-78459000D01*
%TO.C,J8*%
X174585166Y-121622600D02*
X174585166Y-113942600D01*
X173255166Y-124222600D02*
X171925166Y-124222600D01*
X174585166Y-121622600D02*
X171925166Y-121622600D01*
X171925166Y-124222600D02*
X171925166Y-122892600D01*
X171925166Y-121622600D02*
X171925166Y-113942600D01*
X174585166Y-113942600D02*
X171925166Y-113942600D01*
%TO.C,R17*%
X183196036Y-115949400D02*
X183650164Y-115949400D01*
X183196036Y-114479400D02*
X183650164Y-114479400D01*
%TO.C,R26*%
X91771736Y-98477400D02*
X92225864Y-98477400D01*
X91771736Y-99947400D02*
X92225864Y-99947400D01*
%TO.C,Q4*%
X111368400Y-103276400D02*
X111368400Y-102626400D01*
X111368400Y-103276400D02*
X111368400Y-103926400D01*
X114488400Y-103276400D02*
X114488400Y-101601400D01*
X114488400Y-103276400D02*
X114488400Y-103926400D01*
%TO.C,SW1*%
X189354700Y-134879200D02*
X187854700Y-134879200D01*
X187854700Y-141879200D02*
X189354700Y-141879200D01*
X191854700Y-140629200D02*
X191854700Y-136129200D01*
X185354700Y-136129200D02*
X185354700Y-140629200D01*
%TO.C,G1*%
G36*
X167453804Y-68981486D02*
G01*
X167642670Y-69226077D01*
X167583854Y-69410160D01*
X167294117Y-69501684D01*
X167179335Y-69506369D01*
X166831464Y-69461211D01*
X166714084Y-69319962D01*
X166713890Y-69311571D01*
X166825634Y-69075235D01*
X167081463Y-68930372D01*
X167362272Y-68930118D01*
X167453804Y-68981486D01*
G37*
G36*
X180634323Y-69355248D02*
G01*
X180817741Y-68963056D01*
X181154368Y-68607179D01*
X181554150Y-68366747D01*
X181824414Y-68309510D01*
X182364793Y-68423983D01*
X182786817Y-68729377D01*
X183068339Y-69168655D01*
X183187214Y-69684781D01*
X183121295Y-70220716D01*
X182848435Y-70719425D01*
X182787074Y-70788789D01*
X182407817Y-71020737D01*
X181911583Y-71107029D01*
X181408501Y-71040438D01*
X181110951Y-70898783D01*
X180843768Y-70576272D01*
X180665385Y-70101666D01*
X180650076Y-69960438D01*
X181364874Y-69960438D01*
X181471858Y-70298130D01*
X181719853Y-70529536D01*
X182036800Y-70541429D01*
X182246455Y-70410662D01*
X182371618Y-70132931D01*
X182400238Y-69730983D01*
X182337242Y-69326453D01*
X182191103Y-69044465D01*
X181936687Y-68917583D01*
X181695223Y-69000876D01*
X181498345Y-69239208D01*
X181377684Y-69577441D01*
X181364874Y-69960438D01*
X180650076Y-69960438D01*
X180609163Y-69582998D01*
X180634323Y-69355248D01*
G37*
G36*
X174270042Y-68960759D02*
G01*
X174462258Y-69264023D01*
X174556934Y-69669231D01*
X174559963Y-69755239D01*
X174485477Y-70238663D01*
X174267556Y-70511429D01*
X174028026Y-70570243D01*
X173748795Y-70481521D01*
X173655670Y-70410662D01*
X173515570Y-70125119D01*
X173496965Y-69740693D01*
X173579571Y-69342860D01*
X173743108Y-69017096D01*
X173967291Y-68848879D01*
X174028026Y-68841447D01*
X174270042Y-68960759D01*
G37*
G36*
X177484606Y-67430348D02*
G01*
X177964211Y-67593249D01*
X178280665Y-67791239D01*
X178404845Y-68032845D01*
X178416507Y-68191678D01*
X178377285Y-68469753D01*
X178213067Y-68568255D01*
X178084047Y-68575478D01*
X177820091Y-68510067D01*
X177751586Y-68325013D01*
X177636981Y-68115985D01*
X177348936Y-67997257D01*
X176971108Y-67991001D01*
X176727689Y-68053622D01*
X176452720Y-68232671D01*
X176423595Y-68448300D01*
X176627038Y-68677112D01*
X177049775Y-68895709D01*
X177244586Y-68964671D01*
X177884370Y-69249894D01*
X178273320Y-69614654D01*
X178415647Y-70063047D01*
X178416507Y-70104798D01*
X178303476Y-70573051D01*
X177972851Y-70899103D01*
X177437335Y-71073803D01*
X177031828Y-71102180D01*
X176520308Y-71057120D01*
X176125682Y-70937999D01*
X176052380Y-70895163D01*
X175846836Y-70653924D01*
X175751970Y-70351857D01*
X175773222Y-70077054D01*
X175916030Y-69917609D01*
X175991256Y-69905321D01*
X176220515Y-70015078D01*
X176356963Y-70204536D01*
X176564313Y-70440316D01*
X176872635Y-70550541D01*
X177209487Y-70547065D01*
X177502427Y-70441740D01*
X177679014Y-70246420D01*
X177673345Y-69989150D01*
X177507824Y-69824450D01*
X177175093Y-69639395D01*
X176929977Y-69540096D01*
X176332311Y-69282940D01*
X175963473Y-68998367D01*
X175786491Y-68649466D01*
X175756822Y-68368867D01*
X175804648Y-68017806D01*
X175995756Y-67774861D01*
X176189021Y-67643131D01*
X176811520Y-67412496D01*
X177484606Y-67430348D01*
G37*
G36*
X185946670Y-68779246D02*
G01*
X186289812Y-68494904D01*
X186824415Y-68339335D01*
X187313505Y-68410484D01*
X187703974Y-68677933D01*
X187942715Y-69111265D01*
X187991377Y-69469466D01*
X187991377Y-69905321D01*
X187193471Y-69905321D01*
X186717649Y-69923506D01*
X186465250Y-69984254D01*
X186395565Y-70088515D01*
X186509927Y-70368750D01*
X186823073Y-70521253D01*
X187290096Y-70524845D01*
X187313202Y-70521295D01*
X187682385Y-70492482D01*
X187867446Y-70568869D01*
X187905959Y-70635369D01*
X187880090Y-70849860D01*
X187659593Y-71003403D01*
X187309990Y-71090393D01*
X186896798Y-71105224D01*
X186485539Y-71042291D01*
X186141733Y-70895986D01*
X186021839Y-70796572D01*
X185734625Y-70327343D01*
X185632219Y-69784385D01*
X185698052Y-69300372D01*
X186418047Y-69300372D01*
X186472418Y-69448045D01*
X186773702Y-69504906D01*
X186861010Y-69506369D01*
X187208881Y-69461211D01*
X187326260Y-69319962D01*
X187326455Y-69311571D01*
X187218694Y-69066320D01*
X186970103Y-68943982D01*
X186692723Y-68985033D01*
X186604277Y-69050686D01*
X186418047Y-69300372D01*
X185698052Y-69300372D01*
X185705830Y-69243190D01*
X185946670Y-68779246D01*
G37*
G36*
X164020958Y-68068760D02*
G01*
X164362524Y-68127711D01*
X164520628Y-68264879D01*
X164565524Y-68435043D01*
X164498369Y-68780781D01*
X164226781Y-69021917D01*
X163829310Y-69107416D01*
X163631829Y-69074395D01*
X163543366Y-68926535D01*
X163522297Y-68590640D01*
X163522267Y-68567451D01*
X163522267Y-68027486D01*
X164020958Y-68068760D01*
G37*
G36*
X179764747Y-67812580D02*
G01*
X179869057Y-67965022D01*
X179879335Y-68124261D01*
X179921509Y-68371346D01*
X180065643Y-68399192D01*
X180078811Y-68394404D01*
X180233487Y-68411292D01*
X180278288Y-68641971D01*
X180231363Y-68875285D01*
X180078811Y-68889538D01*
X179970498Y-68891111D01*
X179909220Y-69031899D01*
X179883095Y-69359681D01*
X179879335Y-69691617D01*
X179887364Y-70164057D01*
X179923226Y-70429074D01*
X180004586Y-70545016D01*
X180145303Y-70570243D01*
X180367561Y-70664277D01*
X180411272Y-70836211D01*
X180357916Y-71021006D01*
X180150839Y-71094391D01*
X179955326Y-71102180D01*
X179579982Y-71043296D01*
X179298333Y-70900832D01*
X179290404Y-70893205D01*
X179162837Y-70658686D01*
X179096393Y-70245949D01*
X179081429Y-69762838D01*
X179070506Y-69264724D01*
X179029931Y-68980402D01*
X178947994Y-68858302D01*
X178872202Y-68841447D01*
X178715538Y-68745161D01*
X178713869Y-68608725D01*
X178829673Y-68428278D01*
X178923097Y-68409248D01*
X179042613Y-68322706D01*
X179081429Y-68110033D01*
X179124367Y-67872433D01*
X179306893Y-67785512D01*
X179480382Y-67777573D01*
X179764747Y-67812580D01*
G37*
G36*
X188523314Y-66314746D02*
G01*
X188523314Y-72299039D01*
X161660487Y-72299039D01*
X161660487Y-71767102D01*
X162059439Y-71767102D01*
X162192152Y-71792148D01*
X162589224Y-71814628D01*
X163249062Y-71834523D01*
X164170069Y-71851819D01*
X165350650Y-71866499D01*
X166789208Y-71878546D01*
X168484149Y-71887945D01*
X170433876Y-71894679D01*
X172636794Y-71898731D01*
X175091307Y-71900086D01*
X188124361Y-71900086D01*
X188124361Y-66713698D01*
X175091900Y-66713698D01*
X172637330Y-66715053D01*
X170434354Y-66719104D01*
X168484568Y-66725837D01*
X166789569Y-66735235D01*
X165350951Y-66747282D01*
X164170311Y-66761961D01*
X163249244Y-66779257D01*
X162589346Y-66799152D01*
X162192213Y-66821631D01*
X162059439Y-66846677D01*
X162059439Y-66846683D01*
X162191704Y-66880314D01*
X162585703Y-66909199D01*
X163237240Y-66933253D01*
X164142123Y-66952394D01*
X165296158Y-66966539D01*
X166695149Y-66975604D01*
X168334903Y-66979508D01*
X168775146Y-66979667D01*
X175490853Y-66979667D01*
X175490853Y-71634117D01*
X168775146Y-71634117D01*
X167076749Y-71636736D01*
X165618082Y-71644538D01*
X164403339Y-71657440D01*
X163436714Y-71675358D01*
X162722402Y-71698211D01*
X162264596Y-71725913D01*
X162067491Y-71758384D01*
X162059439Y-71767102D01*
X161660487Y-71767102D01*
X161660487Y-70916931D01*
X162325408Y-70916931D01*
X162401869Y-71026942D01*
X162659311Y-71085430D01*
X163123314Y-71102180D01*
X163597152Y-71084428D01*
X163849074Y-71024658D01*
X163921219Y-70916931D01*
X163813951Y-70711635D01*
X163721743Y-70655137D01*
X163570794Y-70461842D01*
X163522267Y-70100944D01*
X163537561Y-69789546D01*
X163636060Y-69664055D01*
X163896688Y-69654996D01*
X164017994Y-69664571D01*
X164327340Y-69708526D01*
X164489043Y-69824042D01*
X164576129Y-70088379D01*
X164613518Y-70294630D01*
X164735163Y-70757221D01*
X164933076Y-71007313D01*
X165254770Y-71096818D01*
X165350801Y-71100144D01*
X165585570Y-71014204D01*
X165652095Y-70823237D01*
X165517031Y-70636735D01*
X165412302Y-70452547D01*
X165384047Y-70244666D01*
X165301348Y-69912621D01*
X165234925Y-69798767D01*
X165944466Y-69798767D01*
X166040617Y-70319435D01*
X166315179Y-70751751D01*
X166404308Y-70830449D01*
X166819131Y-71025372D01*
X167347759Y-71106206D01*
X167856646Y-71056619D01*
X167966364Y-71021460D01*
X168146809Y-70835629D01*
X168176717Y-70701654D01*
X168136200Y-70552184D01*
X167968697Y-70505339D01*
X167646052Y-70533744D01*
X167164677Y-70527603D01*
X166839403Y-70377008D01*
X166714122Y-70102923D01*
X166713890Y-70088515D01*
X166793095Y-69979269D01*
X167057683Y-69921321D01*
X167511795Y-69905321D01*
X168309701Y-69905321D01*
X168309701Y-69464952D01*
X168195812Y-68960461D01*
X167936261Y-68641971D01*
X168575670Y-68641971D01*
X168674411Y-68818449D01*
X168760139Y-68841447D01*
X168870480Y-68926056D01*
X168945245Y-69203283D01*
X168993498Y-69708229D01*
X168996287Y-69756026D01*
X169063023Y-70386436D01*
X169194891Y-70793830D01*
X169417407Y-71018192D01*
X169756084Y-71099506D01*
X169855304Y-71102180D01*
X170169214Y-71070016D01*
X170292394Y-70945726D01*
X170304466Y-70836211D01*
X170210431Y-70613954D01*
X170038497Y-70570243D01*
X169894559Y-70543302D01*
X169814310Y-70423300D01*
X169779667Y-70151467D01*
X169772528Y-69705845D01*
X169785846Y-69220991D01*
X169833431Y-68951508D01*
X169926734Y-68847777D01*
X169972005Y-68841447D01*
X170148311Y-68734998D01*
X170171481Y-68641971D01*
X170570434Y-68641971D01*
X170676884Y-68818277D01*
X170769911Y-68841447D01*
X170882241Y-68899541D01*
X170944439Y-69106949D01*
X170968076Y-69513359D01*
X170969387Y-69697997D01*
X170950177Y-70151954D01*
X170900039Y-70492282D01*
X170836403Y-70636735D01*
X170714040Y-70829147D01*
X170703418Y-70910552D01*
X170783361Y-71032663D01*
X171052318Y-71091672D01*
X171368340Y-71102180D01*
X171792048Y-71079141D01*
X171996800Y-71001628D01*
X172033261Y-70910552D01*
X171952214Y-70684140D01*
X171900277Y-70636735D01*
X171826189Y-70467852D01*
X171777912Y-70121637D01*
X171767293Y-69833515D01*
X171770749Y-69710023D01*
X172747962Y-69710023D01*
X172808177Y-70235943D01*
X173039502Y-70685576D01*
X173193162Y-70835684D01*
X173641426Y-71044793D01*
X174171712Y-71092365D01*
X174661673Y-70973570D01*
X174791173Y-70898783D01*
X175065951Y-70567670D01*
X175238935Y-70085587D01*
X175276469Y-69558657D01*
X175259138Y-69423155D01*
X175048151Y-68909744D01*
X174663252Y-68543424D01*
X174168906Y-68360071D01*
X173629577Y-68395562D01*
X173496636Y-68442268D01*
X173101926Y-68736413D01*
X172849123Y-69184589D01*
X172747962Y-69710023D01*
X171770749Y-69710023D01*
X171779090Y-69411937D01*
X171834458Y-69182534D01*
X171963358Y-69071857D01*
X172094988Y-69030237D01*
X172353489Y-68880661D01*
X172522541Y-68639493D01*
X172545100Y-68404076D01*
X172502264Y-68335231D01*
X172340755Y-68335370D01*
X172061782Y-68451363D01*
X172024676Y-68472052D01*
X171766294Y-68588392D01*
X171637549Y-68583750D01*
X171634308Y-68569293D01*
X171516316Y-68489887D01*
X171221561Y-68445725D01*
X171102371Y-68442494D01*
X170732499Y-68475433D01*
X170580088Y-68584623D01*
X170570434Y-68641971D01*
X170171481Y-68641971D01*
X170065032Y-68465664D01*
X169972005Y-68442494D01*
X169811571Y-68326891D01*
X169772528Y-68110033D01*
X169729590Y-67872433D01*
X169547064Y-67785512D01*
X169373576Y-67777573D01*
X169088455Y-67813355D01*
X168984150Y-67965459D01*
X168974623Y-68110033D01*
X168905260Y-68377424D01*
X168775146Y-68442494D01*
X168598840Y-68548944D01*
X168575670Y-68641971D01*
X167936261Y-68641971D01*
X167892767Y-68588600D01*
X167458504Y-68383585D01*
X166950958Y-68379633D01*
X166646447Y-68482658D01*
X166255384Y-68802777D01*
X166018723Y-69267347D01*
X165944466Y-69798767D01*
X165234925Y-69798767D01*
X165134453Y-69626552D01*
X164973334Y-69401165D01*
X164971102Y-69231398D01*
X165129383Y-68987599D01*
X165142683Y-68969593D01*
X165320216Y-68533950D01*
X165258598Y-68094525D01*
X164970439Y-67729931D01*
X164940309Y-67707978D01*
X164672399Y-67604976D01*
X164256637Y-67536086D01*
X163760633Y-67501227D01*
X163252000Y-67500321D01*
X162798349Y-67533286D01*
X162467294Y-67600043D01*
X162326444Y-67700510D01*
X162325408Y-67711081D01*
X162431858Y-67887387D01*
X162524884Y-67910557D01*
X162624398Y-68031562D01*
X162694334Y-68349956D01*
X162734692Y-68798813D01*
X162745472Y-69311201D01*
X162726675Y-69820194D01*
X162678299Y-70258863D01*
X162600346Y-70560277D01*
X162524884Y-70655137D01*
X162348145Y-70822576D01*
X162325408Y-70916931D01*
X161660487Y-70916931D01*
X161660487Y-66314746D01*
X188523314Y-66314746D01*
G37*
G36*
X185428635Y-68411412D02*
G01*
X185464675Y-68582396D01*
X185342910Y-68844211D01*
X185065722Y-68994358D01*
X184832872Y-69095743D01*
X184714323Y-69242746D01*
X184671800Y-69516272D01*
X184666769Y-69837611D01*
X184694965Y-70308299D01*
X184786557Y-70559451D01*
X184866246Y-70618334D01*
X185043152Y-70796057D01*
X185065722Y-70898530D01*
X185003763Y-71020686D01*
X184783200Y-71083735D01*
X184352007Y-71102165D01*
X184334308Y-71102180D01*
X183911626Y-71090636D01*
X183691432Y-71040723D01*
X183610696Y-70929521D01*
X183602895Y-70836211D01*
X183658585Y-70620116D01*
X183735879Y-70570243D01*
X183805371Y-70448111D01*
X183852950Y-70124578D01*
X183868863Y-69705845D01*
X183856661Y-69225787D01*
X183811584Y-68958450D01*
X183720930Y-68851354D01*
X183659636Y-68841447D01*
X183499856Y-68741742D01*
X183493406Y-68619750D01*
X183623798Y-68455945D01*
X183957352Y-68398701D01*
X184011931Y-68398110D01*
X184365324Y-68419014D01*
X184601423Y-68470066D01*
X184616709Y-68478048D01*
X184827261Y-68485451D01*
X184939087Y-68435756D01*
X185246661Y-68317296D01*
X185428635Y-68411412D01*
G37*
%TO.C,R32*%
X162063300Y-129058936D02*
X162063300Y-129513064D01*
X163533300Y-129058936D02*
X163533300Y-129513064D01*
%TO.C,J5*%
X70592000Y-112141400D02*
X67992000Y-112141400D01*
X67992000Y-114741400D02*
X67992000Y-113411400D01*
X73192000Y-99381400D02*
X67992000Y-99381400D01*
X70592000Y-114741400D02*
X70592000Y-112141400D01*
X73192000Y-114741400D02*
X73192000Y-99381400D01*
X73192000Y-114741400D02*
X70592000Y-114741400D01*
X67992000Y-112141400D02*
X67992000Y-99381400D01*
X69322000Y-114741400D02*
X67992000Y-114741400D01*
%TO.C,R18*%
X183196036Y-113815800D02*
X183650164Y-113815800D01*
X183196036Y-112345800D02*
X183650164Y-112345800D01*
%TO.C,R1*%
X76528664Y-128703400D02*
X76074536Y-128703400D01*
X76528664Y-130173400D02*
X76074536Y-130173400D01*
%TO.C,U3*%
X148880700Y-73253600D02*
X148880700Y-76013600D01*
X148880700Y-70493600D02*
X148605700Y-70493600D01*
X141460700Y-73253600D02*
X141460700Y-70493600D01*
X141460700Y-73253600D02*
X141460700Y-76013600D01*
X148605700Y-70493600D02*
X148605700Y-68803600D01*
X148880700Y-73253600D02*
X148880700Y-70493600D01*
X141460700Y-76013600D02*
X141735700Y-76013600D01*
X148880700Y-76013600D02*
X148605700Y-76013600D01*
X141460700Y-70493600D02*
X141735700Y-70493600D01*
%TO.C,D4*%
X91248732Y-138817600D02*
X91248732Y-141677600D01*
X91248732Y-141677600D02*
X93168732Y-141677600D01*
X93168732Y-141677600D02*
X93168732Y-138817600D01*
%TO.C,U4*%
X124025550Y-106392000D02*
X124300550Y-106392000D01*
X131445550Y-106392000D02*
X131170550Y-106392000D01*
X124025550Y-103632000D02*
X124025550Y-106392000D01*
X131445550Y-103632000D02*
X131445550Y-100872000D01*
X131445550Y-103632000D02*
X131445550Y-106392000D01*
X124025550Y-100872000D02*
X124300550Y-100872000D01*
X131170550Y-100872000D02*
X131170550Y-99182000D01*
X131445550Y-100872000D02*
X131170550Y-100872000D01*
X124025550Y-103632000D02*
X124025550Y-100872000D01*
D13*
%TO.C,U1*%
X200055900Y-82490800D02*
X200055900Y-100490800D01*
D10*
X200110900Y-100507800D02*
X206079900Y-100507800D01*
D13*
X174525900Y-100490800D02*
X174525900Y-82490800D01*
D10*
X200110900Y-82473800D02*
X206079900Y-82473800D01*
X206079900Y-100507800D02*
X206079900Y-82473800D01*
D13*
X200055900Y-100490800D02*
X174525900Y-100490800D01*
X174525900Y-82490800D02*
X200055900Y-82490800D01*
D12*
%TO.C,C21*%
X144864300Y-124289452D02*
X144864300Y-123766948D01*
X143394300Y-124289452D02*
X143394300Y-123766948D01*
%TO.C,R30*%
X179436900Y-130681464D02*
X179436900Y-130227336D01*
X180906900Y-130681464D02*
X180906900Y-130227336D01*
%TO.C,R24*%
X112256263Y-123917999D02*
X111802135Y-123917999D01*
X112256263Y-122447999D02*
X111802135Y-122447999D01*
%TO.C,Q5*%
X111368400Y-107696000D02*
X111368400Y-107046000D01*
X114488400Y-107696000D02*
X114488400Y-106021000D01*
X114488400Y-107696000D02*
X114488400Y-108346000D01*
X111368400Y-107696000D02*
X111368400Y-108346000D01*
%TO.C,C5*%
X132700900Y-119829948D02*
X132700900Y-120352452D01*
X134170900Y-119829948D02*
X134170900Y-120352452D01*
%TO.C,R12*%
X185701000Y-130227336D02*
X185701000Y-130681464D01*
X187171000Y-130227336D02*
X187171000Y-130681464D01*
%TO.C,R22*%
X103196863Y-126576599D02*
X102742735Y-126576599D01*
X103196863Y-125106599D02*
X102742735Y-125106599D01*
D10*
%TO.C,J12*%
X202924000Y-64780000D02*
X201124000Y-64780000D01*
X201124000Y-64780000D02*
X201124000Y-65380000D01*
X201124000Y-72380000D02*
X201124000Y-71780000D01*
X200624000Y-69580000D02*
X200624000Y-70280000D01*
X202724000Y-72380000D02*
X201124000Y-72380000D01*
X200624000Y-70280000D02*
X201124000Y-70280000D01*
D12*
%TO.C,C11*%
X151273952Y-76227000D02*
X150751448Y-76227000D01*
X151273952Y-77697000D02*
X150751448Y-77697000D01*
%TO.C,R28*%
X91771736Y-97864600D02*
X92225864Y-97864600D01*
X91771736Y-96394600D02*
X92225864Y-96394600D01*
%TO.C,R23*%
X112256263Y-120365199D02*
X111802135Y-120365199D01*
X112256263Y-121835199D02*
X111802135Y-121835199D01*
%TO.C,R4*%
X142502100Y-124255264D02*
X142502100Y-123801136D01*
X141032100Y-124255264D02*
X141032100Y-123801136D01*
%TO.C,C24*%
X198721152Y-77493800D02*
X198198648Y-77493800D01*
X198721152Y-76023800D02*
X198198648Y-76023800D01*
%TO.C,R38*%
X88472966Y-132157736D02*
X88472966Y-132611864D01*
X89942966Y-132157736D02*
X89942966Y-132611864D01*
%TO.C,U2*%
X127643100Y-73253600D02*
X127643100Y-76013600D01*
X127643100Y-70493600D02*
X127918100Y-70493600D01*
X135063100Y-73253600D02*
X135063100Y-70493600D01*
X135063100Y-76013600D02*
X134788100Y-76013600D01*
X135063100Y-70493600D02*
X134788100Y-70493600D01*
X134788100Y-70493600D02*
X134788100Y-68803600D01*
X127643100Y-76013600D02*
X127918100Y-76013600D01*
X135063100Y-73253600D02*
X135063100Y-76013600D01*
X127643100Y-73253600D02*
X127643100Y-70493600D01*
%TO.C,C2*%
X140419300Y-119829948D02*
X140419300Y-120352452D01*
X138949300Y-119829948D02*
X138949300Y-120352452D01*
%TO.C,D1*%
X67998200Y-129811000D02*
X68463200Y-129811000D01*
X70623200Y-129811000D02*
X71088200Y-129811000D01*
X70623200Y-129505684D02*
G75*
G03*
X70623629Y-124996521I-1080000J2254684D01*
G01*
X68462771Y-124996521D02*
G75*
G03*
X68463200Y-129505684I1080429J-2254479D01*
G01*
X68462373Y-124463185D02*
G75*
G03*
X67998370Y-129811000I1080827J-2787815D01*
G01*
X71088030Y-129811000D02*
G75*
G03*
X70624027Y-124463185I-1544830J2560000D01*
G01*
D10*
%TO.C,J11*%
X154375900Y-134262800D02*
X154375900Y-146762800D01*
X168375900Y-144862800D02*
X154375900Y-144862800D01*
X154375900Y-146762800D02*
X168375900Y-146762800D01*
X168375900Y-146762800D02*
X168375900Y-134262800D01*
X168375900Y-134262800D02*
X154375900Y-134262800D01*
%TO.C,Conn1*%
X153340300Y-91922900D02*
X153340300Y-109422900D01*
X153240300Y-82922900D02*
X152240300Y-82922900D01*
X152240300Y-82922900D02*
X150240300Y-82922900D01*
X153340300Y-82922900D02*
X153340300Y-91922900D01*
X82340300Y-91922900D02*
X82340300Y-82922900D01*
X83340300Y-82922900D02*
X85340300Y-82922900D01*
X82340300Y-91922900D02*
X82340300Y-109422900D01*
X82340300Y-82922900D02*
X83340300Y-82922900D01*
D12*
%TO.C,R37*%
X86881900Y-132157736D02*
X86881900Y-132611864D01*
X85411900Y-132157736D02*
X85411900Y-132611864D01*
%TO.C,R5*%
X140419300Y-124255264D02*
X140419300Y-123801136D01*
X138949300Y-124255264D02*
X138949300Y-123801136D01*
%TO.C,R3*%
X76528664Y-127989000D02*
X76074536Y-127989000D01*
X76528664Y-126519000D02*
X76074536Y-126519000D01*
%TO.C,J1*%
X73237900Y-56752800D02*
X71907900Y-56752800D01*
X135527900Y-56752800D02*
X135527900Y-51552800D01*
X71907900Y-56752800D02*
X71907900Y-55422800D01*
X71907900Y-54152800D02*
X71907900Y-51552800D01*
X74507900Y-54152800D02*
X71907900Y-54152800D01*
X71907900Y-51552800D02*
X135527900Y-51552800D01*
X74507900Y-56752800D02*
X135527900Y-56752800D01*
X74507900Y-56752800D02*
X74507900Y-54152800D01*
%TO.C,D5*%
X96199800Y-141677600D02*
X96199800Y-138817600D01*
X94279800Y-141677600D02*
X96199800Y-141677600D01*
X94279800Y-138817600D02*
X94279800Y-141677600D01*
%TO.C,R11*%
X126452500Y-124255264D02*
X126452500Y-123801136D01*
X127922500Y-124255264D02*
X127922500Y-123801136D01*
%TO.C,R9*%
X132088100Y-124255264D02*
X132088100Y-123801136D01*
X130618100Y-124255264D02*
X130618100Y-123801136D01*
%TO.C,C18*%
X106280852Y-110567800D02*
X105758348Y-110567800D01*
X106280852Y-112037800D02*
X105758348Y-112037800D01*
%TO.C,U5*%
X107748400Y-105410000D02*
X107748400Y-108170000D01*
X107748400Y-108170000D02*
X107473400Y-108170000D01*
X107473400Y-102650000D02*
X107473400Y-100960000D01*
X100328400Y-108170000D02*
X100603400Y-108170000D01*
X107748400Y-105410000D02*
X107748400Y-102650000D01*
X100328400Y-105410000D02*
X100328400Y-108170000D01*
X100328400Y-105410000D02*
X100328400Y-102650000D01*
X107748400Y-102650000D02*
X107473400Y-102650000D01*
X100328400Y-102650000D02*
X100603400Y-102650000D01*
%TO.C,C10*%
X137456352Y-76227000D02*
X136933848Y-76227000D01*
X137456352Y-77697000D02*
X136933848Y-77697000D01*
%TO.C,R15*%
X183196036Y-116613000D02*
X183650164Y-116613000D01*
X183196036Y-118083000D02*
X183650164Y-118083000D01*
%TO.C,R6*%
X136866500Y-124255264D02*
X136866500Y-123801136D01*
X138336500Y-124255264D02*
X138336500Y-123801136D01*
%TO.C,R21*%
X102742735Y-128608599D02*
X103196863Y-128608599D01*
X102742735Y-127138599D02*
X103196863Y-127138599D01*
%TO.C,U6*%
X121245500Y-73253600D02*
X121245500Y-76013600D01*
X113825500Y-70493600D02*
X114100500Y-70493600D01*
X121245500Y-73253600D02*
X121245500Y-70493600D01*
X121245500Y-76013600D02*
X120970500Y-76013600D01*
X121245500Y-70493600D02*
X120970500Y-70493600D01*
X120970500Y-70493600D02*
X120970500Y-68803600D01*
X113825500Y-73253600D02*
X113825500Y-70493600D01*
X113825500Y-73253600D02*
X113825500Y-76013600D01*
X113825500Y-76013600D02*
X114100500Y-76013600D01*
%TO.C,C13*%
X112239651Y-126000799D02*
X111717147Y-126000799D01*
X112239651Y-124530799D02*
X111717147Y-124530799D01*
%TO.C,C14*%
X102868147Y-124516399D02*
X104290651Y-124516399D01*
X102868147Y-122696399D02*
X104290651Y-122696399D01*
%TD*%
M02*
