%TF.GenerationSoftware,KiCad,Pcbnew,(6.0.11)*%
%TF.CreationDate,2023-11-21T12:23:53-08:00*%
%TF.ProjectId,TRS-IO++,5452532d-494f-42b2-9b2e-6b696361645f,rev?*%
%TF.SameCoordinates,Original*%
%TF.FileFunction,Legend,Top*%
%TF.FilePolarity,Positive*%
%FSLAX46Y46*%
G04 Gerber Fmt 4.6, Leading zero omitted, Abs format (unit mm)*
G04 Created by KiCad (PCBNEW (6.0.11)) date 2023-11-21 12:23:53*
%MOMM*%
%LPD*%
G01*
G04 APERTURE LIST*
%ADD10C,0.150000*%
%ADD11C,0.300000*%
%ADD12C,0.120000*%
%ADD13C,0.050000*%
G04 APERTURE END LIST*
D10*
X149774414Y-70200780D02*
X149202985Y-70200780D01*
X149488700Y-70200780D02*
X149488700Y-69200780D01*
X149393461Y-69343638D01*
X149298223Y-69438876D01*
X149202985Y-69486495D01*
X164180442Y-123337580D02*
X163847109Y-122861390D01*
X163609014Y-123337580D02*
X163609014Y-122337580D01*
X163989966Y-122337580D01*
X164085204Y-122385200D01*
X164132823Y-122432819D01*
X164180442Y-122528057D01*
X164180442Y-122670914D01*
X164132823Y-122766152D01*
X164085204Y-122813771D01*
X163989966Y-122861390D01*
X163609014Y-122861390D01*
X164513776Y-122337580D02*
X165180442Y-123337580D01*
X165180442Y-122337580D02*
X164513776Y-123337580D01*
X165561395Y-123337580D02*
X165561395Y-122337580D01*
X165799490Y-122337580D01*
X165942347Y-122385200D01*
X166037585Y-122480438D01*
X166085204Y-122575676D01*
X166132823Y-122766152D01*
X166132823Y-122909009D01*
X166085204Y-123099485D01*
X166037585Y-123194723D01*
X165942347Y-123289961D01*
X165799490Y-123337580D01*
X165561395Y-123337580D01*
X62538185Y-72140819D02*
X62585804Y-72093200D01*
X62681042Y-72045580D01*
X62919138Y-72045580D01*
X63014376Y-72093200D01*
X63061995Y-72140819D01*
X63109614Y-72236057D01*
X63109614Y-72331295D01*
X63061995Y-72474152D01*
X62490566Y-73045580D01*
X63109614Y-73045580D01*
X67087714Y-113990380D02*
X66516285Y-113990380D01*
X66802000Y-113990380D02*
X66802000Y-112990380D01*
X66706761Y-113133238D01*
X66611523Y-113228476D01*
X66516285Y-113276095D01*
X110574342Y-131516380D02*
X110574342Y-130516380D01*
X111050533Y-130849714D02*
X111050533Y-131516380D01*
X111050533Y-130944952D02*
X111098152Y-130897333D01*
X111193390Y-130849714D01*
X111336247Y-130849714D01*
X111431485Y-130897333D01*
X111479104Y-130992571D01*
X111479104Y-131516380D01*
X111955295Y-130849714D02*
X111955295Y-131849714D01*
X111955295Y-130897333D02*
X112050533Y-130849714D01*
X112241009Y-130849714D01*
X112336247Y-130897333D01*
X112383866Y-130944952D01*
X112431485Y-131040190D01*
X112431485Y-131325904D01*
X112383866Y-131421142D01*
X112336247Y-131468761D01*
X112241009Y-131516380D01*
X112050533Y-131516380D01*
X111955295Y-131468761D01*
X113288628Y-130849714D02*
X113288628Y-131516380D01*
X112860057Y-130849714D02*
X112860057Y-131373523D01*
X112907676Y-131468761D01*
X113002914Y-131516380D01*
X113145771Y-131516380D01*
X113241009Y-131468761D01*
X113288628Y-131421142D01*
X113621961Y-130849714D02*
X114002914Y-130849714D01*
X113764819Y-130516380D02*
X113764819Y-131373523D01*
X113812438Y-131468761D01*
X113907676Y-131516380D01*
X114002914Y-131516380D01*
X185676128Y-144708571D02*
X186009461Y-144708571D01*
X186152319Y-145232380D02*
X185676128Y-145232380D01*
X185676128Y-144232380D01*
X186152319Y-144232380D01*
X186533271Y-145184761D02*
X186676128Y-145232380D01*
X186914223Y-145232380D01*
X187009461Y-145184761D01*
X187057080Y-145137142D01*
X187104700Y-145041904D01*
X187104700Y-144946666D01*
X187057080Y-144851428D01*
X187009461Y-144803809D01*
X186914223Y-144756190D01*
X186723747Y-144708571D01*
X186628509Y-144660952D01*
X186580890Y-144613333D01*
X186533271Y-144518095D01*
X186533271Y-144422857D01*
X186580890Y-144327619D01*
X186628509Y-144280000D01*
X186723747Y-144232380D01*
X186961842Y-144232380D01*
X187104700Y-144280000D01*
X187533271Y-145232380D02*
X187533271Y-144232380D01*
X187914223Y-144232380D01*
X188009461Y-144280000D01*
X188057080Y-144327619D01*
X188104700Y-144422857D01*
X188104700Y-144565714D01*
X188057080Y-144660952D01*
X188009461Y-144708571D01*
X187914223Y-144756190D01*
X187533271Y-144756190D01*
X189866604Y-145232380D02*
X189533271Y-144756190D01*
X189295176Y-145232380D02*
X189295176Y-144232380D01*
X189676128Y-144232380D01*
X189771366Y-144280000D01*
X189818985Y-144327619D01*
X189866604Y-144422857D01*
X189866604Y-144565714D01*
X189818985Y-144660952D01*
X189771366Y-144708571D01*
X189676128Y-144756190D01*
X189295176Y-144756190D01*
X190247557Y-145184761D02*
X190390414Y-145232380D01*
X190628509Y-145232380D01*
X190723747Y-145184761D01*
X190771366Y-145137142D01*
X190818985Y-145041904D01*
X190818985Y-144946666D01*
X190771366Y-144851428D01*
X190723747Y-144803809D01*
X190628509Y-144756190D01*
X190438033Y-144708571D01*
X190342795Y-144660952D01*
X190295176Y-144613333D01*
X190247557Y-144518095D01*
X190247557Y-144422857D01*
X190295176Y-144327619D01*
X190342795Y-144280000D01*
X190438033Y-144232380D01*
X190676128Y-144232380D01*
X190818985Y-144280000D01*
X191104700Y-144232380D02*
X191676128Y-144232380D01*
X191390414Y-145232380D02*
X191390414Y-144232380D01*
X62963576Y-77509714D02*
X62963576Y-78176380D01*
X62725480Y-77128761D02*
X62487385Y-77843047D01*
X63106433Y-77843047D01*
D11*
X88394071Y-63147471D02*
X89251214Y-63147471D01*
X88822642Y-64647471D02*
X88822642Y-63147471D01*
X90608357Y-64647471D02*
X90108357Y-63933185D01*
X89751214Y-64647471D02*
X89751214Y-63147471D01*
X90322642Y-63147471D01*
X90465500Y-63218900D01*
X90536928Y-63290328D01*
X90608357Y-63433185D01*
X90608357Y-63647471D01*
X90536928Y-63790328D01*
X90465500Y-63861757D01*
X90322642Y-63933185D01*
X89751214Y-63933185D01*
X91179785Y-64576042D02*
X91394071Y-64647471D01*
X91751214Y-64647471D01*
X91894071Y-64576042D01*
X91965500Y-64504614D01*
X92036928Y-64361757D01*
X92036928Y-64218900D01*
X91965500Y-64076042D01*
X91894071Y-64004614D01*
X91751214Y-63933185D01*
X91465500Y-63861757D01*
X91322642Y-63790328D01*
X91251214Y-63718900D01*
X91179785Y-63576042D01*
X91179785Y-63433185D01*
X91251214Y-63290328D01*
X91322642Y-63218900D01*
X91465500Y-63147471D01*
X91822642Y-63147471D01*
X92036928Y-63218900D01*
X92679785Y-64076042D02*
X93822642Y-64076042D01*
X94536928Y-64647471D02*
X94536928Y-63147471D01*
X95536928Y-63147471D02*
X95822642Y-63147471D01*
X95965500Y-63218900D01*
X96108357Y-63361757D01*
X96179785Y-63647471D01*
X96179785Y-64147471D01*
X96108357Y-64433185D01*
X95965500Y-64576042D01*
X95822642Y-64647471D01*
X95536928Y-64647471D01*
X95394071Y-64576042D01*
X95251214Y-64433185D01*
X95179785Y-64147471D01*
X95179785Y-63647471D01*
X95251214Y-63361757D01*
X95394071Y-63218900D01*
X95536928Y-63147471D01*
X96822642Y-64076042D02*
X97965500Y-64076042D01*
X97394071Y-64647471D02*
X97394071Y-63504614D01*
X98679785Y-64076042D02*
X99822642Y-64076042D01*
X99251214Y-64647471D02*
X99251214Y-63504614D01*
X101465500Y-63147471D02*
X101965500Y-64647471D01*
X102465500Y-63147471D01*
X103751214Y-64647471D02*
X102894071Y-64647471D01*
X103322642Y-64647471D02*
X103322642Y-63147471D01*
X103179785Y-63361757D01*
X103036928Y-63504614D01*
X102894071Y-63576042D01*
X104394071Y-64504614D02*
X104465500Y-64576042D01*
X104394071Y-64647471D01*
X104322642Y-64576042D01*
X104394071Y-64504614D01*
X104394071Y-64647471D01*
X105894071Y-64647471D02*
X105036928Y-64647471D01*
X105465500Y-64647471D02*
X105465500Y-63147471D01*
X105322642Y-63361757D01*
X105179785Y-63504614D01*
X105036928Y-63576042D01*
X90108357Y-65562471D02*
X90394071Y-65562471D01*
X90536928Y-65633900D01*
X90679785Y-65776757D01*
X90751214Y-66062471D01*
X90751214Y-66562471D01*
X90679785Y-66848185D01*
X90536928Y-66991042D01*
X90394071Y-67062471D01*
X90108357Y-67062471D01*
X89965500Y-66991042D01*
X89822642Y-66848185D01*
X89751214Y-66562471D01*
X89751214Y-66062471D01*
X89822642Y-65776757D01*
X89965500Y-65633900D01*
X90108357Y-65562471D01*
X92036928Y-66991042D02*
X91894071Y-67062471D01*
X91608357Y-67062471D01*
X91465500Y-66991042D01*
X91394071Y-66919614D01*
X91322642Y-66776757D01*
X91322642Y-66348185D01*
X91394071Y-66205328D01*
X91465500Y-66133900D01*
X91608357Y-66062471D01*
X91894071Y-66062471D01*
X92036928Y-66133900D01*
X92465500Y-66062471D02*
X93036928Y-66062471D01*
X92679785Y-65562471D02*
X92679785Y-66848185D01*
X92751214Y-66991042D01*
X92894071Y-67062471D01*
X93036928Y-67062471D01*
X93751214Y-67062471D02*
X93608357Y-66991042D01*
X93536928Y-66919614D01*
X93465500Y-66776757D01*
X93465500Y-66348185D01*
X93536928Y-66205328D01*
X93608357Y-66133900D01*
X93751214Y-66062471D01*
X93965500Y-66062471D01*
X94108357Y-66133900D01*
X94179785Y-66205328D01*
X94251214Y-66348185D01*
X94251214Y-66776757D01*
X94179785Y-66919614D01*
X94108357Y-66991042D01*
X93965500Y-67062471D01*
X93751214Y-67062471D01*
X94894071Y-67062471D02*
X94894071Y-65562471D01*
X94894071Y-66133900D02*
X95036928Y-66062471D01*
X95322642Y-66062471D01*
X95465500Y-66133900D01*
X95536928Y-66205328D01*
X95608357Y-66348185D01*
X95608357Y-66776757D01*
X95536928Y-66919614D01*
X95465500Y-66991042D01*
X95322642Y-67062471D01*
X95036928Y-67062471D01*
X94894071Y-66991042D01*
X96822642Y-66991042D02*
X96679785Y-67062471D01*
X96394071Y-67062471D01*
X96251214Y-66991042D01*
X96179785Y-66848185D01*
X96179785Y-66276757D01*
X96251214Y-66133900D01*
X96394071Y-66062471D01*
X96679785Y-66062471D01*
X96822642Y-66133900D01*
X96894071Y-66276757D01*
X96894071Y-66419614D01*
X96179785Y-66562471D01*
X97536928Y-67062471D02*
X97536928Y-66062471D01*
X97536928Y-66348185D02*
X97608357Y-66205328D01*
X97679785Y-66133900D01*
X97822642Y-66062471D01*
X97965500Y-66062471D01*
X99536928Y-65705328D02*
X99608357Y-65633900D01*
X99751214Y-65562471D01*
X100108357Y-65562471D01*
X100251214Y-65633900D01*
X100322642Y-65705328D01*
X100394071Y-65848185D01*
X100394071Y-65991042D01*
X100322642Y-66205328D01*
X99465500Y-67062471D01*
X100394071Y-67062471D01*
X101322642Y-65562471D02*
X101465500Y-65562471D01*
X101608357Y-65633900D01*
X101679785Y-65705328D01*
X101751214Y-65848185D01*
X101822642Y-66133900D01*
X101822642Y-66491042D01*
X101751214Y-66776757D01*
X101679785Y-66919614D01*
X101608357Y-66991042D01*
X101465500Y-67062471D01*
X101322642Y-67062471D01*
X101179785Y-66991042D01*
X101108357Y-66919614D01*
X101036928Y-66776757D01*
X100965500Y-66491042D01*
X100965500Y-66133900D01*
X101036928Y-65848185D01*
X101108357Y-65705328D01*
X101179785Y-65633900D01*
X101322642Y-65562471D01*
X102394071Y-65705328D02*
X102465500Y-65633900D01*
X102608357Y-65562471D01*
X102965500Y-65562471D01*
X103108357Y-65633900D01*
X103179785Y-65705328D01*
X103251214Y-65848185D01*
X103251214Y-65991042D01*
X103179785Y-66205328D01*
X102322642Y-67062471D01*
X103251214Y-67062471D01*
X103751214Y-65562471D02*
X104679785Y-65562471D01*
X104179785Y-66133900D01*
X104394071Y-66133900D01*
X104536928Y-66205328D01*
X104608357Y-66276757D01*
X104679785Y-66419614D01*
X104679785Y-66776757D01*
X104608357Y-66919614D01*
X104536928Y-66991042D01*
X104394071Y-67062471D01*
X103965500Y-67062471D01*
X103822642Y-66991042D01*
X103751214Y-66919614D01*
D10*
X62439766Y-74687180D02*
X63058814Y-74687180D01*
X62725480Y-75068133D01*
X62868338Y-75068133D01*
X62963576Y-75115752D01*
X63011195Y-75163371D01*
X63058814Y-75258609D01*
X63058814Y-75496704D01*
X63011195Y-75591942D01*
X62963576Y-75639561D01*
X62868338Y-75687180D01*
X62582623Y-75687180D01*
X62487385Y-75639561D01*
X62439766Y-75591942D01*
X176055123Y-114765200D02*
X175959885Y-114717580D01*
X175817028Y-114717580D01*
X175674171Y-114765200D01*
X175578933Y-114860438D01*
X175531314Y-114955676D01*
X175483695Y-115146152D01*
X175483695Y-115289009D01*
X175531314Y-115479485D01*
X175578933Y-115574723D01*
X175674171Y-115669961D01*
X175817028Y-115717580D01*
X175912266Y-115717580D01*
X176055123Y-115669961D01*
X176102742Y-115622342D01*
X176102742Y-115289009D01*
X175912266Y-115289009D01*
X176531314Y-115717580D02*
X176531314Y-114717580D01*
X177102742Y-115717580D01*
X177102742Y-114717580D01*
X177578933Y-115717580D02*
X177578933Y-114717580D01*
X177817028Y-114717580D01*
X177959885Y-114765200D01*
X178055123Y-114860438D01*
X178102742Y-114955676D01*
X178150361Y-115146152D01*
X178150361Y-115289009D01*
X178102742Y-115479485D01*
X178055123Y-115574723D01*
X177959885Y-115669961D01*
X177817028Y-115717580D01*
X177578933Y-115717580D01*
X144643614Y-49423579D02*
X144595995Y-49471199D01*
X144500757Y-49518818D01*
X144262661Y-49518818D01*
X144167423Y-49471199D01*
X144119804Y-49423579D01*
X144072185Y-49328341D01*
X144072185Y-49233103D01*
X144119804Y-49090246D01*
X144691233Y-48518818D01*
X144072185Y-48518818D01*
X165183333Y-145184761D02*
X165326190Y-145232380D01*
X165564285Y-145232380D01*
X165659523Y-145184761D01*
X165707142Y-145137142D01*
X165754761Y-145041904D01*
X165754761Y-144946666D01*
X165707142Y-144851428D01*
X165659523Y-144803809D01*
X165564285Y-144756190D01*
X165373809Y-144708571D01*
X165278571Y-144660952D01*
X165230952Y-144613333D01*
X165183333Y-144518095D01*
X165183333Y-144422857D01*
X165230952Y-144327619D01*
X165278571Y-144280000D01*
X165373809Y-144232380D01*
X165611904Y-144232380D01*
X165754761Y-144280000D01*
X166040476Y-144565714D02*
X166421428Y-144565714D01*
X166183333Y-144232380D02*
X166183333Y-145089523D01*
X166230952Y-145184761D01*
X166326190Y-145232380D01*
X166421428Y-145232380D01*
X167183333Y-145232380D02*
X167183333Y-144708571D01*
X167135714Y-144613333D01*
X167040476Y-144565714D01*
X166850000Y-144565714D01*
X166754761Y-144613333D01*
X167183333Y-145184761D02*
X167088095Y-145232380D01*
X166850000Y-145232380D01*
X166754761Y-145184761D01*
X166707142Y-145089523D01*
X166707142Y-144994285D01*
X166754761Y-144899047D01*
X166850000Y-144851428D01*
X167088095Y-144851428D01*
X167183333Y-144803809D01*
X167516666Y-144565714D02*
X167897619Y-144565714D01*
X167659523Y-144232380D02*
X167659523Y-145089523D01*
X167707142Y-145184761D01*
X167802380Y-145232380D01*
X167897619Y-145232380D01*
X168659523Y-144565714D02*
X168659523Y-145232380D01*
X168230952Y-144565714D02*
X168230952Y-145089523D01*
X168278571Y-145184761D01*
X168373809Y-145232380D01*
X168516666Y-145232380D01*
X168611904Y-145184761D01*
X168659523Y-145137142D01*
X169088095Y-145184761D02*
X169183333Y-145232380D01*
X169373809Y-145232380D01*
X169469047Y-145184761D01*
X169516666Y-145089523D01*
X169516666Y-145041904D01*
X169469047Y-144946666D01*
X169373809Y-144899047D01*
X169230952Y-144899047D01*
X169135714Y-144851428D01*
X169088095Y-144756190D01*
X169088095Y-144708571D01*
X169135714Y-144613333D01*
X169230952Y-144565714D01*
X169373809Y-144565714D01*
X169469047Y-144613333D01*
X122190014Y-70200780D02*
X121618585Y-70200780D01*
X121904300Y-70200780D02*
X121904300Y-69200780D01*
X121809061Y-69343638D01*
X121713823Y-69438876D01*
X121618585Y-69486495D01*
X175388457Y-117308380D02*
X175721790Y-118308380D01*
X176055123Y-117308380D01*
X176959885Y-118213142D02*
X176912266Y-118260761D01*
X176769409Y-118308380D01*
X176674171Y-118308380D01*
X176531314Y-118260761D01*
X176436076Y-118165523D01*
X176388457Y-118070285D01*
X176340838Y-117879809D01*
X176340838Y-117736952D01*
X176388457Y-117546476D01*
X176436076Y-117451238D01*
X176531314Y-117356000D01*
X176674171Y-117308380D01*
X176769409Y-117308380D01*
X176912266Y-117356000D01*
X176959885Y-117403619D01*
X177959885Y-118213142D02*
X177912266Y-118260761D01*
X177769409Y-118308380D01*
X177674171Y-118308380D01*
X177531314Y-118260761D01*
X177436076Y-118165523D01*
X177388457Y-118070285D01*
X177340838Y-117879809D01*
X177340838Y-117736952D01*
X177388457Y-117546476D01*
X177436076Y-117451238D01*
X177531314Y-117356000D01*
X177674171Y-117308380D01*
X177769409Y-117308380D01*
X177912266Y-117356000D01*
X177959885Y-117403619D01*
X178864647Y-117308380D02*
X178388457Y-117308380D01*
X178340838Y-117784571D01*
X178388457Y-117736952D01*
X178483695Y-117689333D01*
X178721790Y-117689333D01*
X178817028Y-117736952D01*
X178864647Y-117784571D01*
X178912266Y-117879809D01*
X178912266Y-118117904D01*
X178864647Y-118213142D01*
X178817028Y-118260761D01*
X178721790Y-118308380D01*
X178483695Y-118308380D01*
X178388457Y-118260761D01*
X178340838Y-118213142D01*
X176102742Y-123388380D02*
X175769409Y-122912190D01*
X175531314Y-123388380D02*
X175531314Y-122388380D01*
X175912266Y-122388380D01*
X176007504Y-122436000D01*
X176055123Y-122483619D01*
X176102742Y-122578857D01*
X176102742Y-122721714D01*
X176055123Y-122816952D01*
X176007504Y-122864571D01*
X175912266Y-122912190D01*
X175531314Y-122912190D01*
X176436076Y-122388380D02*
X177102742Y-123388380D01*
X177102742Y-122388380D02*
X176436076Y-123388380D01*
X177483695Y-123388380D02*
X177483695Y-122388380D01*
X177721790Y-122388380D01*
X177864647Y-122436000D01*
X177959885Y-122531238D01*
X178007504Y-122626476D01*
X178055123Y-122816952D01*
X178055123Y-122959809D01*
X178007504Y-123150285D01*
X177959885Y-123245523D01*
X177864647Y-123340761D01*
X177721790Y-123388380D01*
X177483695Y-123388380D01*
X135956814Y-70200780D02*
X135385385Y-70200780D01*
X135671100Y-70200780D02*
X135671100Y-69200780D01*
X135575861Y-69343638D01*
X135480623Y-69438876D01*
X135385385Y-69486495D01*
X170784780Y-123508642D02*
X169784780Y-123508642D01*
X169784780Y-123127690D01*
X169832400Y-123032452D01*
X169880019Y-122984833D01*
X169975257Y-122937214D01*
X170118114Y-122937214D01*
X170213352Y-122984833D01*
X170260971Y-123032452D01*
X170308590Y-123127690D01*
X170308590Y-123508642D01*
X170784780Y-122508642D02*
X170118114Y-122508642D01*
X170308590Y-122508642D02*
X170213352Y-122461023D01*
X170165733Y-122413404D01*
X170118114Y-122318166D01*
X170118114Y-122222928D01*
X170784780Y-121746738D02*
X170737161Y-121841976D01*
X170689542Y-121889595D01*
X170594304Y-121937214D01*
X170308590Y-121937214D01*
X170213352Y-121889595D01*
X170165733Y-121841976D01*
X170118114Y-121746738D01*
X170118114Y-121603880D01*
X170165733Y-121508642D01*
X170213352Y-121461023D01*
X170308590Y-121413404D01*
X170594304Y-121413404D01*
X170689542Y-121461023D01*
X170737161Y-121508642D01*
X170784780Y-121603880D01*
X170784780Y-121746738D01*
X170118114Y-120556261D02*
X170927638Y-120556261D01*
X171022876Y-120603880D01*
X171070495Y-120651500D01*
X171118114Y-120746738D01*
X171118114Y-120889595D01*
X171070495Y-120984833D01*
X170737161Y-120556261D02*
X170784780Y-120651500D01*
X170784780Y-120841976D01*
X170737161Y-120937214D01*
X170689542Y-120984833D01*
X170594304Y-121032452D01*
X170308590Y-121032452D01*
X170213352Y-120984833D01*
X170165733Y-120937214D01*
X170118114Y-120841976D01*
X170118114Y-120651500D01*
X170165733Y-120556261D01*
X170784780Y-120080071D02*
X170118114Y-120080071D01*
X170308590Y-120080071D02*
X170213352Y-120032452D01*
X170165733Y-119984833D01*
X170118114Y-119889595D01*
X170118114Y-119794357D01*
X170784780Y-119032452D02*
X170260971Y-119032452D01*
X170165733Y-119080071D01*
X170118114Y-119175309D01*
X170118114Y-119365785D01*
X170165733Y-119461023D01*
X170737161Y-119032452D02*
X170784780Y-119127690D01*
X170784780Y-119365785D01*
X170737161Y-119461023D01*
X170641923Y-119508642D01*
X170546685Y-119508642D01*
X170451447Y-119461023D01*
X170403828Y-119365785D01*
X170403828Y-119127690D01*
X170356209Y-119032452D01*
X170784780Y-118556261D02*
X170118114Y-118556261D01*
X170213352Y-118556261D02*
X170165733Y-118508642D01*
X170118114Y-118413404D01*
X170118114Y-118270547D01*
X170165733Y-118175309D01*
X170260971Y-118127690D01*
X170784780Y-118127690D01*
X170260971Y-118127690D02*
X170165733Y-118080071D01*
X170118114Y-117984833D01*
X170118114Y-117841976D01*
X170165733Y-117746738D01*
X170260971Y-117699119D01*
X170784780Y-117699119D01*
X170784780Y-117222928D02*
X170118114Y-117222928D01*
X170213352Y-117222928D02*
X170165733Y-117175309D01*
X170118114Y-117080071D01*
X170118114Y-116937214D01*
X170165733Y-116841976D01*
X170260971Y-116794357D01*
X170784780Y-116794357D01*
X170260971Y-116794357D02*
X170165733Y-116746738D01*
X170118114Y-116651500D01*
X170118114Y-116508642D01*
X170165733Y-116413404D01*
X170260971Y-116365785D01*
X170784780Y-116365785D01*
X170737161Y-115508642D02*
X170784780Y-115603880D01*
X170784780Y-115794357D01*
X170737161Y-115889595D01*
X170641923Y-115937214D01*
X170260971Y-115937214D01*
X170165733Y-115889595D01*
X170118114Y-115794357D01*
X170118114Y-115603880D01*
X170165733Y-115508642D01*
X170260971Y-115461023D01*
X170356209Y-115461023D01*
X170451447Y-115937214D01*
X170784780Y-115032452D02*
X170118114Y-115032452D01*
X170308590Y-115032452D02*
X170213352Y-114984833D01*
X170165733Y-114937214D01*
X170118114Y-114841976D01*
X170118114Y-114746738D01*
X132390064Y-100579180D02*
X131818635Y-100579180D01*
X132104350Y-100579180D02*
X132104350Y-99579180D01*
X132009111Y-99722038D01*
X131913873Y-99817276D01*
X131818635Y-99864895D01*
X68805657Y-97937580D02*
X68805657Y-96937580D01*
X69186609Y-96937580D01*
X69281847Y-96985200D01*
X69329466Y-97032819D01*
X69377085Y-97128057D01*
X69377085Y-97270914D01*
X69329466Y-97366152D01*
X69281847Y-97413771D01*
X69186609Y-97461390D01*
X68805657Y-97461390D01*
X69805657Y-97937580D02*
X69805657Y-96937580D01*
X70138990Y-97651866D01*
X70472323Y-96937580D01*
X70472323Y-97937580D01*
X71138990Y-96937580D02*
X71329466Y-96937580D01*
X71424704Y-96985200D01*
X71519942Y-97080438D01*
X71567561Y-97270914D01*
X71567561Y-97604247D01*
X71519942Y-97794723D01*
X71424704Y-97889961D01*
X71329466Y-97937580D01*
X71138990Y-97937580D01*
X71043752Y-97889961D01*
X70948514Y-97794723D01*
X70900895Y-97604247D01*
X70900895Y-97270914D01*
X70948514Y-97080438D01*
X71043752Y-96985200D01*
X71138990Y-96937580D01*
X71996133Y-97937580D02*
X71996133Y-96937580D01*
X72234228Y-96937580D01*
X72377085Y-96985200D01*
X72472323Y-97080438D01*
X72519942Y-97175676D01*
X72567561Y-97366152D01*
X72567561Y-97509009D01*
X72519942Y-97699485D01*
X72472323Y-97794723D01*
X72377085Y-97889961D01*
X72234228Y-97937580D01*
X71996133Y-97937580D01*
X164132823Y-117305200D02*
X164037585Y-117257580D01*
X163894728Y-117257580D01*
X163751871Y-117305200D01*
X163656633Y-117400438D01*
X163609014Y-117495676D01*
X163561395Y-117686152D01*
X163561395Y-117829009D01*
X163609014Y-118019485D01*
X163656633Y-118114723D01*
X163751871Y-118209961D01*
X163894728Y-118257580D01*
X163989966Y-118257580D01*
X164132823Y-118209961D01*
X164180442Y-118162342D01*
X164180442Y-117829009D01*
X163989966Y-117829009D01*
X164609014Y-118257580D02*
X164609014Y-117257580D01*
X165180442Y-118257580D01*
X165180442Y-117257580D01*
X165656633Y-118257580D02*
X165656633Y-117257580D01*
X165894728Y-117257580D01*
X166037585Y-117305200D01*
X166132823Y-117400438D01*
X166180442Y-117495676D01*
X166228061Y-117686152D01*
X166228061Y-117829009D01*
X166180442Y-118019485D01*
X166132823Y-118114723D01*
X166037585Y-118209961D01*
X165894728Y-118257580D01*
X165656633Y-118257580D01*
X174595257Y-145232380D02*
X174595257Y-144232380D01*
X174976209Y-144232380D01*
X175071447Y-144280000D01*
X175119066Y-144327619D01*
X175166685Y-144422857D01*
X175166685Y-144565714D01*
X175119066Y-144660952D01*
X175071447Y-144708571D01*
X174976209Y-144756190D01*
X174595257Y-144756190D01*
X175452400Y-144232380D02*
X176023828Y-144232380D01*
X175738114Y-145232380D02*
X175738114Y-144232380D01*
X176928590Y-145232380D02*
X176595257Y-144756190D01*
X176357161Y-145232380D02*
X176357161Y-144232380D01*
X176738114Y-144232380D01*
X176833352Y-144280000D01*
X176880971Y-144327619D01*
X176928590Y-144422857D01*
X176928590Y-144565714D01*
X176880971Y-144660952D01*
X176833352Y-144708571D01*
X176738114Y-144756190D01*
X176357161Y-144756190D01*
X177309542Y-145184761D02*
X177452400Y-145232380D01*
X177690495Y-145232380D01*
X177785733Y-145184761D01*
X177833352Y-145137142D01*
X177880971Y-145041904D01*
X177880971Y-144946666D01*
X177833352Y-144851428D01*
X177785733Y-144803809D01*
X177690495Y-144756190D01*
X177500019Y-144708571D01*
X177404780Y-144660952D01*
X177357161Y-144613333D01*
X177309542Y-144518095D01*
X177309542Y-144422857D01*
X177357161Y-144327619D01*
X177404780Y-144280000D01*
X177500019Y-144232380D01*
X177738114Y-144232380D01*
X177880971Y-144280000D01*
X179642876Y-145232380D02*
X179309542Y-144756190D01*
X179071447Y-145232380D02*
X179071447Y-144232380D01*
X179452400Y-144232380D01*
X179547638Y-144280000D01*
X179595257Y-144327619D01*
X179642876Y-144422857D01*
X179642876Y-144565714D01*
X179595257Y-144660952D01*
X179547638Y-144708571D01*
X179452400Y-144756190D01*
X179071447Y-144756190D01*
X180023828Y-145184761D02*
X180166685Y-145232380D01*
X180404780Y-145232380D01*
X180500019Y-145184761D01*
X180547638Y-145137142D01*
X180595257Y-145041904D01*
X180595257Y-144946666D01*
X180547638Y-144851428D01*
X180500019Y-144803809D01*
X180404780Y-144756190D01*
X180214304Y-144708571D01*
X180119066Y-144660952D01*
X180071447Y-144613333D01*
X180023828Y-144518095D01*
X180023828Y-144422857D01*
X180071447Y-144327619D01*
X180119066Y-144280000D01*
X180214304Y-144232380D01*
X180452400Y-144232380D01*
X180595257Y-144280000D01*
X180880971Y-144232380D02*
X181452400Y-144232380D01*
X181166685Y-145232380D02*
X181166685Y-144232380D01*
X175388457Y-119848380D02*
X175959885Y-119848380D01*
X175674171Y-120848380D02*
X175674171Y-119848380D01*
X176197981Y-119848380D02*
X176864647Y-120848380D01*
X176864647Y-119848380D02*
X176197981Y-120848380D01*
X177245600Y-120848380D02*
X177245600Y-119848380D01*
X177483695Y-119848380D01*
X177626552Y-119896000D01*
X177721790Y-119991238D01*
X177769409Y-120086476D01*
X177817028Y-120276952D01*
X177817028Y-120419809D01*
X177769409Y-120610285D01*
X177721790Y-120705523D01*
X177626552Y-120800761D01*
X177483695Y-120848380D01*
X177245600Y-120848380D01*
X63109614Y-70657980D02*
X62538185Y-70657980D01*
X62823900Y-70657980D02*
X62823900Y-69657980D01*
X62728661Y-69800838D01*
X62633423Y-69896076D01*
X62538185Y-69943695D01*
X72952185Y-48468019D02*
X73523614Y-48468019D01*
X73237900Y-48468019D02*
X73237900Y-49468019D01*
X73333138Y-49325161D01*
X73428376Y-49229923D01*
X73523614Y-49182304D01*
X157897580Y-121991671D02*
X158707104Y-121991671D01*
X158802342Y-121944052D01*
X158849961Y-121896433D01*
X158897580Y-121801195D01*
X158897580Y-121610719D01*
X158849961Y-121515480D01*
X158802342Y-121467861D01*
X158707104Y-121420242D01*
X157897580Y-121420242D01*
X158611866Y-120991671D02*
X158611866Y-120515480D01*
X158897580Y-121086909D02*
X157897580Y-120753576D01*
X158897580Y-120420242D01*
X158897580Y-119515480D02*
X158421390Y-119848814D01*
X158897580Y-120086909D02*
X157897580Y-120086909D01*
X157897580Y-119705957D01*
X157945200Y-119610719D01*
X157992819Y-119563100D01*
X158088057Y-119515480D01*
X158230914Y-119515480D01*
X158326152Y-119563100D01*
X158373771Y-119610719D01*
X158421390Y-119705957D01*
X158421390Y-120086909D01*
X157897580Y-119229766D02*
X157897580Y-118658338D01*
X158897580Y-118944052D02*
X157897580Y-118944052D01*
X108337314Y-102153980D02*
X107765885Y-102153980D01*
X108051600Y-102153980D02*
X108051600Y-101153980D01*
X107956361Y-101296838D01*
X107861123Y-101392076D01*
X107765885Y-101439695D01*
X163466157Y-119797580D02*
X164037585Y-119797580D01*
X163751871Y-120797580D02*
X163751871Y-119797580D01*
X164275681Y-119797580D02*
X164942347Y-120797580D01*
X164942347Y-119797580D02*
X164275681Y-120797580D01*
X165323300Y-120797580D02*
X165323300Y-119797580D01*
X165561395Y-119797580D01*
X165704252Y-119845200D01*
X165799490Y-119940438D01*
X165847109Y-120035676D01*
X165894728Y-120226152D01*
X165894728Y-120369009D01*
X165847109Y-120559485D01*
X165799490Y-120654723D01*
X165704252Y-120749961D01*
X165561395Y-120797580D01*
X165323300Y-120797580D01*
X99626990Y-130516380D02*
X99817466Y-130516380D01*
X99912704Y-130564000D01*
X100007942Y-130659238D01*
X100055561Y-130849714D01*
X100055561Y-131183047D01*
X100007942Y-131373523D01*
X99912704Y-131468761D01*
X99817466Y-131516380D01*
X99626990Y-131516380D01*
X99531752Y-131468761D01*
X99436514Y-131373523D01*
X99388895Y-131183047D01*
X99388895Y-130849714D01*
X99436514Y-130659238D01*
X99531752Y-130564000D01*
X99626990Y-130516380D01*
X100912704Y-130849714D02*
X100912704Y-131516380D01*
X100484133Y-130849714D02*
X100484133Y-131373523D01*
X100531752Y-131468761D01*
X100626990Y-131516380D01*
X100769847Y-131516380D01*
X100865085Y-131468761D01*
X100912704Y-131421142D01*
X101246038Y-130849714D02*
X101626990Y-130849714D01*
X101388895Y-130516380D02*
X101388895Y-131373523D01*
X101436514Y-131468761D01*
X101531752Y-131516380D01*
X101626990Y-131516380D01*
X101960323Y-130849714D02*
X101960323Y-131849714D01*
X101960323Y-130897333D02*
X102055561Y-130849714D01*
X102246038Y-130849714D01*
X102341276Y-130897333D01*
X102388895Y-130944952D01*
X102436514Y-131040190D01*
X102436514Y-131325904D01*
X102388895Y-131421142D01*
X102341276Y-131468761D01*
X102246038Y-131516380D01*
X102055561Y-131516380D01*
X101960323Y-131468761D01*
X103293657Y-130849714D02*
X103293657Y-131516380D01*
X102865085Y-130849714D02*
X102865085Y-131373523D01*
X102912704Y-131468761D01*
X103007942Y-131516380D01*
X103150800Y-131516380D01*
X103246038Y-131468761D01*
X103293657Y-131421142D01*
X103626990Y-130849714D02*
X104007942Y-130849714D01*
X103769847Y-130516380D02*
X103769847Y-131373523D01*
X103817466Y-131468761D01*
X103912704Y-131516380D01*
X104007942Y-131516380D01*
%TO.C,SW4*%
X166001866Y-138884361D02*
X166144723Y-138931980D01*
X166382819Y-138931980D01*
X166478057Y-138884361D01*
X166525676Y-138836742D01*
X166573295Y-138741504D01*
X166573295Y-138646266D01*
X166525676Y-138551028D01*
X166478057Y-138503409D01*
X166382819Y-138455790D01*
X166192342Y-138408171D01*
X166097104Y-138360552D01*
X166049485Y-138312933D01*
X166001866Y-138217695D01*
X166001866Y-138122457D01*
X166049485Y-138027219D01*
X166097104Y-137979600D01*
X166192342Y-137931980D01*
X166430438Y-137931980D01*
X166573295Y-137979600D01*
X166906628Y-137931980D02*
X167144723Y-138931980D01*
X167335200Y-138217695D01*
X167525676Y-138931980D01*
X167763771Y-137931980D01*
X168573295Y-138265314D02*
X168573295Y-138931980D01*
X168335200Y-137884361D02*
X168097104Y-138598647D01*
X168716152Y-138598647D01*
%TO.C,R33*%
X82043842Y-70657980D02*
X81710509Y-70181790D01*
X81472414Y-70657980D02*
X81472414Y-69657980D01*
X81853366Y-69657980D01*
X81948604Y-69705600D01*
X81996223Y-69753219D01*
X82043842Y-69848457D01*
X82043842Y-69991314D01*
X81996223Y-70086552D01*
X81948604Y-70134171D01*
X81853366Y-70181790D01*
X81472414Y-70181790D01*
X82377176Y-69657980D02*
X82996223Y-69657980D01*
X82662890Y-70038933D01*
X82805747Y-70038933D01*
X82900985Y-70086552D01*
X82948604Y-70134171D01*
X82996223Y-70229409D01*
X82996223Y-70467504D01*
X82948604Y-70562742D01*
X82900985Y-70610361D01*
X82805747Y-70657980D01*
X82520033Y-70657980D01*
X82424795Y-70610361D01*
X82377176Y-70562742D01*
X83329557Y-69657980D02*
X83948604Y-69657980D01*
X83615271Y-70038933D01*
X83758128Y-70038933D01*
X83853366Y-70086552D01*
X83900985Y-70134171D01*
X83948604Y-70229409D01*
X83948604Y-70467504D01*
X83900985Y-70562742D01*
X83853366Y-70610361D01*
X83758128Y-70657980D01*
X83472414Y-70657980D01*
X83377176Y-70610361D01*
X83329557Y-70562742D01*
%TO.C,R39*%
X89063812Y-131452857D02*
X88587622Y-131786190D01*
X89063812Y-132024285D02*
X88063812Y-132024285D01*
X88063812Y-131643333D01*
X88111432Y-131548095D01*
X88159051Y-131500476D01*
X88254289Y-131452857D01*
X88397146Y-131452857D01*
X88492384Y-131500476D01*
X88540003Y-131548095D01*
X88587622Y-131643333D01*
X88587622Y-132024285D01*
X88063812Y-131119523D02*
X88063812Y-130500476D01*
X88444765Y-130833809D01*
X88444765Y-130690952D01*
X88492384Y-130595714D01*
X88540003Y-130548095D01*
X88635241Y-130500476D01*
X88873336Y-130500476D01*
X88968574Y-130548095D01*
X89016193Y-130595714D01*
X89063812Y-130690952D01*
X89063812Y-130976666D01*
X89016193Y-131071904D01*
X88968574Y-131119523D01*
X89063812Y-130024285D02*
X89063812Y-129833809D01*
X89016193Y-129738571D01*
X88968574Y-129690952D01*
X88825717Y-129595714D01*
X88635241Y-129548095D01*
X88254289Y-129548095D01*
X88159051Y-129595714D01*
X88111432Y-129643333D01*
X88063812Y-129738571D01*
X88063812Y-129929047D01*
X88111432Y-130024285D01*
X88159051Y-130071904D01*
X88254289Y-130119523D01*
X88492384Y-130119523D01*
X88587622Y-130071904D01*
X88635241Y-130024285D01*
X88682860Y-129929047D01*
X88682860Y-129738571D01*
X88635241Y-129643333D01*
X88587622Y-129595714D01*
X88492384Y-129548095D01*
%TO.C,R8*%
X129814580Y-127035266D02*
X129338390Y-127368600D01*
X129814580Y-127606695D02*
X128814580Y-127606695D01*
X128814580Y-127225742D01*
X128862200Y-127130504D01*
X128909819Y-127082885D01*
X129005057Y-127035266D01*
X129147914Y-127035266D01*
X129243152Y-127082885D01*
X129290771Y-127130504D01*
X129338390Y-127225742D01*
X129338390Y-127606695D01*
X129243152Y-126463838D02*
X129195533Y-126559076D01*
X129147914Y-126606695D01*
X129052676Y-126654314D01*
X129005057Y-126654314D01*
X128909819Y-126606695D01*
X128862200Y-126559076D01*
X128814580Y-126463838D01*
X128814580Y-126273361D01*
X128862200Y-126178123D01*
X128909819Y-126130504D01*
X129005057Y-126082885D01*
X129052676Y-126082885D01*
X129147914Y-126130504D01*
X129195533Y-126178123D01*
X129243152Y-126273361D01*
X129243152Y-126463838D01*
X129290771Y-126559076D01*
X129338390Y-126606695D01*
X129433628Y-126654314D01*
X129624104Y-126654314D01*
X129719342Y-126606695D01*
X129766961Y-126559076D01*
X129814580Y-126463838D01*
X129814580Y-126273361D01*
X129766961Y-126178123D01*
X129719342Y-126130504D01*
X129624104Y-126082885D01*
X129433628Y-126082885D01*
X129338390Y-126130504D01*
X129290771Y-126178123D01*
X129243152Y-126273361D01*
%TO.C,R40*%
X92215680Y-131452857D02*
X91739490Y-131786190D01*
X92215680Y-132024285D02*
X91215680Y-132024285D01*
X91215680Y-131643333D01*
X91263300Y-131548095D01*
X91310919Y-131500476D01*
X91406157Y-131452857D01*
X91549014Y-131452857D01*
X91644252Y-131500476D01*
X91691871Y-131548095D01*
X91739490Y-131643333D01*
X91739490Y-132024285D01*
X91549014Y-130595714D02*
X92215680Y-130595714D01*
X91168061Y-130833809D02*
X91882347Y-131071904D01*
X91882347Y-130452857D01*
X91215680Y-129881428D02*
X91215680Y-129786190D01*
X91263300Y-129690952D01*
X91310919Y-129643333D01*
X91406157Y-129595714D01*
X91596633Y-129548095D01*
X91834728Y-129548095D01*
X92025204Y-129595714D01*
X92120442Y-129643333D01*
X92168061Y-129690952D01*
X92215680Y-129786190D01*
X92215680Y-129881428D01*
X92168061Y-129976666D01*
X92120442Y-130024285D01*
X92025204Y-130071904D01*
X91834728Y-130119523D01*
X91596633Y-130119523D01*
X91406157Y-130071904D01*
X91310919Y-130024285D01*
X91263300Y-129976666D01*
X91215680Y-129881428D01*
%TO.C,SW3*%
X68907366Y-67398761D02*
X69050223Y-67446380D01*
X69288319Y-67446380D01*
X69383557Y-67398761D01*
X69431176Y-67351142D01*
X69478795Y-67255904D01*
X69478795Y-67160666D01*
X69431176Y-67065428D01*
X69383557Y-67017809D01*
X69288319Y-66970190D01*
X69097842Y-66922571D01*
X69002604Y-66874952D01*
X68954985Y-66827333D01*
X68907366Y-66732095D01*
X68907366Y-66636857D01*
X68954985Y-66541619D01*
X69002604Y-66494000D01*
X69097842Y-66446380D01*
X69335938Y-66446380D01*
X69478795Y-66494000D01*
X69812128Y-66446380D02*
X70050223Y-67446380D01*
X70240700Y-66732095D01*
X70431176Y-67446380D01*
X70669271Y-66446380D01*
X70954985Y-66446380D02*
X71574033Y-66446380D01*
X71240700Y-66827333D01*
X71383557Y-66827333D01*
X71478795Y-66874952D01*
X71526414Y-66922571D01*
X71574033Y-67017809D01*
X71574033Y-67255904D01*
X71526414Y-67351142D01*
X71478795Y-67398761D01*
X71383557Y-67446380D01*
X71097842Y-67446380D01*
X71002604Y-67398761D01*
X70954985Y-67351142D01*
%TO.C,R29*%
X94810342Y-95499180D02*
X94477009Y-95022990D01*
X94238914Y-95499180D02*
X94238914Y-94499180D01*
X94619866Y-94499180D01*
X94715104Y-94546800D01*
X94762723Y-94594419D01*
X94810342Y-94689657D01*
X94810342Y-94832514D01*
X94762723Y-94927752D01*
X94715104Y-94975371D01*
X94619866Y-95022990D01*
X94238914Y-95022990D01*
X95191295Y-94594419D02*
X95238914Y-94546800D01*
X95334152Y-94499180D01*
X95572247Y-94499180D01*
X95667485Y-94546800D01*
X95715104Y-94594419D01*
X95762723Y-94689657D01*
X95762723Y-94784895D01*
X95715104Y-94927752D01*
X95143676Y-95499180D01*
X95762723Y-95499180D01*
X96238914Y-95499180D02*
X96429390Y-95499180D01*
X96524628Y-95451561D01*
X96572247Y-95403942D01*
X96667485Y-95261085D01*
X96715104Y-95070609D01*
X96715104Y-94689657D01*
X96667485Y-94594419D01*
X96619866Y-94546800D01*
X96524628Y-94499180D01*
X96334152Y-94499180D01*
X96238914Y-94546800D01*
X96191295Y-94594419D01*
X96143676Y-94689657D01*
X96143676Y-94927752D01*
X96191295Y-95022990D01*
X96238914Y-95070609D01*
X96334152Y-95118228D01*
X96524628Y-95118228D01*
X96619866Y-95070609D01*
X96667485Y-95022990D01*
X96715104Y-94927752D01*
%TO.C,D3*%
X86023246Y-145178495D02*
X85023246Y-145178495D01*
X85023246Y-144940400D01*
X85070866Y-144797542D01*
X85166104Y-144702304D01*
X85261342Y-144654685D01*
X85451818Y-144607066D01*
X85594675Y-144607066D01*
X85785151Y-144654685D01*
X85880389Y-144702304D01*
X85975627Y-144797542D01*
X86023246Y-144940400D01*
X86023246Y-145178495D01*
X85023246Y-144273733D02*
X85023246Y-143654685D01*
X85404199Y-143988019D01*
X85404199Y-143845161D01*
X85451818Y-143749923D01*
X85499437Y-143702304D01*
X85594675Y-143654685D01*
X85832770Y-143654685D01*
X85928008Y-143702304D01*
X85975627Y-143749923D01*
X86023246Y-143845161D01*
X86023246Y-144130876D01*
X85975627Y-144226114D01*
X85928008Y-144273733D01*
%TO.C,C13*%
X94759542Y-125629942D02*
X94711923Y-125677561D01*
X94569066Y-125725180D01*
X94473828Y-125725180D01*
X94330971Y-125677561D01*
X94235733Y-125582323D01*
X94188114Y-125487085D01*
X94140495Y-125296609D01*
X94140495Y-125153752D01*
X94188114Y-124963276D01*
X94235733Y-124868038D01*
X94330971Y-124772800D01*
X94473828Y-124725180D01*
X94569066Y-124725180D01*
X94711923Y-124772800D01*
X94759542Y-124820419D01*
X95711923Y-125725180D02*
X95140495Y-125725180D01*
X95426209Y-125725180D02*
X95426209Y-124725180D01*
X95330971Y-124868038D01*
X95235733Y-124963276D01*
X95140495Y-125010895D01*
X96045257Y-124725180D02*
X96664304Y-124725180D01*
X96330971Y-125106133D01*
X96473828Y-125106133D01*
X96569066Y-125153752D01*
X96616685Y-125201371D01*
X96664304Y-125296609D01*
X96664304Y-125534704D01*
X96616685Y-125629942D01*
X96569066Y-125677561D01*
X96473828Y-125725180D01*
X96188114Y-125725180D01*
X96092876Y-125677561D01*
X96045257Y-125629942D01*
%TO.C,C16*%
X136603042Y-107748342D02*
X136555423Y-107795961D01*
X136412566Y-107843580D01*
X136317328Y-107843580D01*
X136174471Y-107795961D01*
X136079233Y-107700723D01*
X136031614Y-107605485D01*
X135983995Y-107415009D01*
X135983995Y-107272152D01*
X136031614Y-107081676D01*
X136079233Y-106986438D01*
X136174471Y-106891200D01*
X136317328Y-106843580D01*
X136412566Y-106843580D01*
X136555423Y-106891200D01*
X136603042Y-106938819D01*
X137555423Y-107843580D02*
X136983995Y-107843580D01*
X137269709Y-107843580D02*
X137269709Y-106843580D01*
X137174471Y-106986438D01*
X137079233Y-107081676D01*
X136983995Y-107129295D01*
X138412566Y-106843580D02*
X138222090Y-106843580D01*
X138126852Y-106891200D01*
X138079233Y-106938819D01*
X137983995Y-107081676D01*
X137936376Y-107272152D01*
X137936376Y-107653104D01*
X137983995Y-107748342D01*
X138031614Y-107795961D01*
X138126852Y-107843580D01*
X138317328Y-107843580D01*
X138412566Y-107795961D01*
X138460185Y-107748342D01*
X138507804Y-107653104D01*
X138507804Y-107415009D01*
X138460185Y-107319771D01*
X138412566Y-107272152D01*
X138317328Y-107224533D01*
X138126852Y-107224533D01*
X138031614Y-107272152D01*
X137983995Y-107319771D01*
X137936376Y-107415009D01*
%TO.C,R10*%
X125598180Y-127968657D02*
X125121990Y-128301990D01*
X125598180Y-128540085D02*
X124598180Y-128540085D01*
X124598180Y-128159133D01*
X124645800Y-128063895D01*
X124693419Y-128016276D01*
X124788657Y-127968657D01*
X124931514Y-127968657D01*
X125026752Y-128016276D01*
X125074371Y-128063895D01*
X125121990Y-128159133D01*
X125121990Y-128540085D01*
X125598180Y-127016276D02*
X125598180Y-127587704D01*
X125598180Y-127301990D02*
X124598180Y-127301990D01*
X124741038Y-127397228D01*
X124836276Y-127492466D01*
X124883895Y-127587704D01*
X124598180Y-126397228D02*
X124598180Y-126301990D01*
X124645800Y-126206752D01*
X124693419Y-126159133D01*
X124788657Y-126111514D01*
X124979133Y-126063895D01*
X125217228Y-126063895D01*
X125407704Y-126111514D01*
X125502942Y-126159133D01*
X125550561Y-126206752D01*
X125598180Y-126301990D01*
X125598180Y-126397228D01*
X125550561Y-126492466D01*
X125502942Y-126540085D01*
X125407704Y-126587704D01*
X125217228Y-126635323D01*
X124979133Y-126635323D01*
X124788657Y-126587704D01*
X124693419Y-126540085D01*
X124645800Y-126492466D01*
X124598180Y-126397228D01*
%TO.C,R35*%
X82145442Y-75687180D02*
X81812109Y-75210990D01*
X81574014Y-75687180D02*
X81574014Y-74687180D01*
X81954966Y-74687180D01*
X82050204Y-74734800D01*
X82097823Y-74782419D01*
X82145442Y-74877657D01*
X82145442Y-75020514D01*
X82097823Y-75115752D01*
X82050204Y-75163371D01*
X81954966Y-75210990D01*
X81574014Y-75210990D01*
X82478776Y-74687180D02*
X83097823Y-74687180D01*
X82764490Y-75068133D01*
X82907347Y-75068133D01*
X83002585Y-75115752D01*
X83050204Y-75163371D01*
X83097823Y-75258609D01*
X83097823Y-75496704D01*
X83050204Y-75591942D01*
X83002585Y-75639561D01*
X82907347Y-75687180D01*
X82621633Y-75687180D01*
X82526395Y-75639561D01*
X82478776Y-75591942D01*
X84002585Y-74687180D02*
X83526395Y-74687180D01*
X83478776Y-75163371D01*
X83526395Y-75115752D01*
X83621633Y-75068133D01*
X83859728Y-75068133D01*
X83954966Y-75115752D01*
X84002585Y-75163371D01*
X84050204Y-75258609D01*
X84050204Y-75496704D01*
X84002585Y-75591942D01*
X83954966Y-75639561D01*
X83859728Y-75687180D01*
X83621633Y-75687180D01*
X83526395Y-75639561D01*
X83478776Y-75591942D01*
%TO.C,D2*%
X83037180Y-145178495D02*
X82037180Y-145178495D01*
X82037180Y-144940400D01*
X82084800Y-144797542D01*
X82180038Y-144702304D01*
X82275276Y-144654685D01*
X82465752Y-144607066D01*
X82608609Y-144607066D01*
X82799085Y-144654685D01*
X82894323Y-144702304D01*
X82989561Y-144797542D01*
X83037180Y-144940400D01*
X83037180Y-145178495D01*
X82132419Y-144226114D02*
X82084800Y-144178495D01*
X82037180Y-144083257D01*
X82037180Y-143845161D01*
X82084800Y-143749923D01*
X82132419Y-143702304D01*
X82227657Y-143654685D01*
X82322895Y-143654685D01*
X82465752Y-143702304D01*
X83037180Y-144273733D01*
X83037180Y-143654685D01*
%TO.C,R7*%
X131948180Y-127035266D02*
X131471990Y-127368600D01*
X131948180Y-127606695D02*
X130948180Y-127606695D01*
X130948180Y-127225742D01*
X130995800Y-127130504D01*
X131043419Y-127082885D01*
X131138657Y-127035266D01*
X131281514Y-127035266D01*
X131376752Y-127082885D01*
X131424371Y-127130504D01*
X131471990Y-127225742D01*
X131471990Y-127606695D01*
X130948180Y-126701933D02*
X130948180Y-126035266D01*
X131948180Y-126463838D01*
%TO.C,R14*%
X170073580Y-127744457D02*
X169597390Y-128077790D01*
X170073580Y-128315885D02*
X169073580Y-128315885D01*
X169073580Y-127934933D01*
X169121200Y-127839695D01*
X169168819Y-127792076D01*
X169264057Y-127744457D01*
X169406914Y-127744457D01*
X169502152Y-127792076D01*
X169549771Y-127839695D01*
X169597390Y-127934933D01*
X169597390Y-128315885D01*
X170073580Y-126792076D02*
X170073580Y-127363504D01*
X170073580Y-127077790D02*
X169073580Y-127077790D01*
X169216438Y-127173028D01*
X169311676Y-127268266D01*
X169359295Y-127363504D01*
X169406914Y-125934933D02*
X170073580Y-125934933D01*
X169025961Y-126173028D02*
X169740247Y-126411123D01*
X169740247Y-125792076D01*
%TO.C,R16*%
X186097942Y-121419880D02*
X185764609Y-120943690D01*
X185526514Y-121419880D02*
X185526514Y-120419880D01*
X185907466Y-120419880D01*
X186002704Y-120467500D01*
X186050323Y-120515119D01*
X186097942Y-120610357D01*
X186097942Y-120753214D01*
X186050323Y-120848452D01*
X186002704Y-120896071D01*
X185907466Y-120943690D01*
X185526514Y-120943690D01*
X187050323Y-121419880D02*
X186478895Y-121419880D01*
X186764609Y-121419880D02*
X186764609Y-120419880D01*
X186669371Y-120562738D01*
X186574133Y-120657976D01*
X186478895Y-120705595D01*
X187907466Y-120419880D02*
X187716990Y-120419880D01*
X187621752Y-120467500D01*
X187574133Y-120515119D01*
X187478895Y-120657976D01*
X187431276Y-120848452D01*
X187431276Y-121229404D01*
X187478895Y-121324642D01*
X187526514Y-121372261D01*
X187621752Y-121419880D01*
X187812228Y-121419880D01*
X187907466Y-121372261D01*
X187955085Y-121324642D01*
X188002704Y-121229404D01*
X188002704Y-120991309D01*
X187955085Y-120896071D01*
X187907466Y-120848452D01*
X187812228Y-120800833D01*
X187621752Y-120800833D01*
X187526514Y-120848452D01*
X187478895Y-120896071D01*
X187431276Y-120991309D01*
%TO.C,C12*%
X117670342Y-121575941D02*
X117622723Y-121623560D01*
X117479866Y-121671179D01*
X117384628Y-121671179D01*
X117241771Y-121623560D01*
X117146533Y-121528322D01*
X117098914Y-121433084D01*
X117051295Y-121242608D01*
X117051295Y-121099751D01*
X117098914Y-120909275D01*
X117146533Y-120814037D01*
X117241771Y-120718799D01*
X117384628Y-120671179D01*
X117479866Y-120671179D01*
X117622723Y-120718799D01*
X117670342Y-120766418D01*
X118622723Y-121671179D02*
X118051295Y-121671179D01*
X118337009Y-121671179D02*
X118337009Y-120671179D01*
X118241771Y-120814037D01*
X118146533Y-120909275D01*
X118051295Y-120956894D01*
X119003676Y-120766418D02*
X119051295Y-120718799D01*
X119146533Y-120671179D01*
X119384628Y-120671179D01*
X119479866Y-120718799D01*
X119527485Y-120766418D01*
X119575104Y-120861656D01*
X119575104Y-120956894D01*
X119527485Y-121099751D01*
X118956057Y-121671179D01*
X119575104Y-121671179D01*
%TO.C,C6*%
X127763542Y-117205466D02*
X127811161Y-117253085D01*
X127858780Y-117395942D01*
X127858780Y-117491180D01*
X127811161Y-117634038D01*
X127715923Y-117729276D01*
X127620685Y-117776895D01*
X127430209Y-117824514D01*
X127287352Y-117824514D01*
X127096876Y-117776895D01*
X127001638Y-117729276D01*
X126906400Y-117634038D01*
X126858780Y-117491180D01*
X126858780Y-117395942D01*
X126906400Y-117253085D01*
X126954019Y-117205466D01*
X126858780Y-116348323D02*
X126858780Y-116538800D01*
X126906400Y-116634038D01*
X126954019Y-116681657D01*
X127096876Y-116776895D01*
X127287352Y-116824514D01*
X127668304Y-116824514D01*
X127763542Y-116776895D01*
X127811161Y-116729276D01*
X127858780Y-116634038D01*
X127858780Y-116443561D01*
X127811161Y-116348323D01*
X127763542Y-116300704D01*
X127668304Y-116253085D01*
X127430209Y-116253085D01*
X127334971Y-116300704D01*
X127287352Y-116348323D01*
X127239733Y-116443561D01*
X127239733Y-116634038D01*
X127287352Y-116729276D01*
X127334971Y-116776895D01*
X127430209Y-116824514D01*
%TO.C,R34*%
X82094642Y-73147180D02*
X81761309Y-72670990D01*
X81523214Y-73147180D02*
X81523214Y-72147180D01*
X81904166Y-72147180D01*
X81999404Y-72194800D01*
X82047023Y-72242419D01*
X82094642Y-72337657D01*
X82094642Y-72480514D01*
X82047023Y-72575752D01*
X81999404Y-72623371D01*
X81904166Y-72670990D01*
X81523214Y-72670990D01*
X82427976Y-72147180D02*
X83047023Y-72147180D01*
X82713690Y-72528133D01*
X82856547Y-72528133D01*
X82951785Y-72575752D01*
X82999404Y-72623371D01*
X83047023Y-72718609D01*
X83047023Y-72956704D01*
X82999404Y-73051942D01*
X82951785Y-73099561D01*
X82856547Y-73147180D01*
X82570833Y-73147180D01*
X82475595Y-73099561D01*
X82427976Y-73051942D01*
X83904166Y-72480514D02*
X83904166Y-73147180D01*
X83666071Y-72099561D02*
X83427976Y-72813847D01*
X84047023Y-72813847D01*
%TO.C,R2*%
X78979733Y-125572780D02*
X78646400Y-125096590D01*
X78408304Y-125572780D02*
X78408304Y-124572780D01*
X78789257Y-124572780D01*
X78884495Y-124620400D01*
X78932114Y-124668019D01*
X78979733Y-124763257D01*
X78979733Y-124906114D01*
X78932114Y-125001352D01*
X78884495Y-125048971D01*
X78789257Y-125096590D01*
X78408304Y-125096590D01*
X79360685Y-124668019D02*
X79408304Y-124620400D01*
X79503542Y-124572780D01*
X79741638Y-124572780D01*
X79836876Y-124620400D01*
X79884495Y-124668019D01*
X79932114Y-124763257D01*
X79932114Y-124858495D01*
X79884495Y-125001352D01*
X79313066Y-125572780D01*
X79932114Y-125572780D01*
%TO.C,C4*%
X131891042Y-117205466D02*
X131938661Y-117253085D01*
X131986280Y-117395942D01*
X131986280Y-117491180D01*
X131938661Y-117634038D01*
X131843423Y-117729276D01*
X131748185Y-117776895D01*
X131557709Y-117824514D01*
X131414852Y-117824514D01*
X131224376Y-117776895D01*
X131129138Y-117729276D01*
X131033900Y-117634038D01*
X130986280Y-117491180D01*
X130986280Y-117395942D01*
X131033900Y-117253085D01*
X131081519Y-117205466D01*
X131319614Y-116348323D02*
X131986280Y-116348323D01*
X130938661Y-116586419D02*
X131652947Y-116824514D01*
X131652947Y-116205466D01*
%TO.C,R31*%
X155087580Y-127744457D02*
X154611390Y-128077790D01*
X155087580Y-128315885D02*
X154087580Y-128315885D01*
X154087580Y-127934933D01*
X154135200Y-127839695D01*
X154182819Y-127792076D01*
X154278057Y-127744457D01*
X154420914Y-127744457D01*
X154516152Y-127792076D01*
X154563771Y-127839695D01*
X154611390Y-127934933D01*
X154611390Y-128315885D01*
X154087580Y-127411123D02*
X154087580Y-126792076D01*
X154468533Y-127125409D01*
X154468533Y-126982552D01*
X154516152Y-126887314D01*
X154563771Y-126839695D01*
X154659009Y-126792076D01*
X154897104Y-126792076D01*
X154992342Y-126839695D01*
X155039961Y-126887314D01*
X155087580Y-126982552D01*
X155087580Y-127268266D01*
X155039961Y-127363504D01*
X154992342Y-127411123D01*
X155087580Y-125839695D02*
X155087580Y-126411123D01*
X155087580Y-126125409D02*
X154087580Y-126125409D01*
X154230438Y-126220647D01*
X154325676Y-126315885D01*
X154373295Y-126411123D01*
%TO.C,C3*%
X134113542Y-117205466D02*
X134161161Y-117253085D01*
X134208780Y-117395942D01*
X134208780Y-117491180D01*
X134161161Y-117634038D01*
X134065923Y-117729276D01*
X133970685Y-117776895D01*
X133780209Y-117824514D01*
X133637352Y-117824514D01*
X133446876Y-117776895D01*
X133351638Y-117729276D01*
X133256400Y-117634038D01*
X133208780Y-117491180D01*
X133208780Y-117395942D01*
X133256400Y-117253085D01*
X133304019Y-117205466D01*
X133208780Y-116872133D02*
X133208780Y-116253085D01*
X133589733Y-116586419D01*
X133589733Y-116443561D01*
X133637352Y-116348323D01*
X133684971Y-116300704D01*
X133780209Y-116253085D01*
X134018304Y-116253085D01*
X134113542Y-116300704D01*
X134161161Y-116348323D01*
X134208780Y-116443561D01*
X134208780Y-116729276D01*
X134161161Y-116824514D01*
X134113542Y-116872133D01*
%TO.C,C7*%
X125858542Y-117205466D02*
X125906161Y-117253085D01*
X125953780Y-117395942D01*
X125953780Y-117491180D01*
X125906161Y-117634038D01*
X125810923Y-117729276D01*
X125715685Y-117776895D01*
X125525209Y-117824514D01*
X125382352Y-117824514D01*
X125191876Y-117776895D01*
X125096638Y-117729276D01*
X125001400Y-117634038D01*
X124953780Y-117491180D01*
X124953780Y-117395942D01*
X125001400Y-117253085D01*
X125049019Y-117205466D01*
X124953780Y-116872133D02*
X124953780Y-116205466D01*
X125953780Y-116634038D01*
%TO.C,R25*%
X108627942Y-121445280D02*
X108294609Y-120969090D01*
X108056514Y-121445280D02*
X108056514Y-120445280D01*
X108437466Y-120445280D01*
X108532704Y-120492900D01*
X108580323Y-120540519D01*
X108627942Y-120635757D01*
X108627942Y-120778614D01*
X108580323Y-120873852D01*
X108532704Y-120921471D01*
X108437466Y-120969090D01*
X108056514Y-120969090D01*
X109008895Y-120540519D02*
X109056514Y-120492900D01*
X109151752Y-120445280D01*
X109389847Y-120445280D01*
X109485085Y-120492900D01*
X109532704Y-120540519D01*
X109580323Y-120635757D01*
X109580323Y-120730995D01*
X109532704Y-120873852D01*
X108961276Y-121445280D01*
X109580323Y-121445280D01*
X110485085Y-120445280D02*
X110008895Y-120445280D01*
X109961276Y-120921471D01*
X110008895Y-120873852D01*
X110104133Y-120826233D01*
X110342228Y-120826233D01*
X110437466Y-120873852D01*
X110485085Y-120921471D01*
X110532704Y-121016709D01*
X110532704Y-121254804D01*
X110485085Y-121350042D01*
X110437466Y-121397661D01*
X110342228Y-121445280D01*
X110104133Y-121445280D01*
X110008895Y-121397661D01*
X109961276Y-121350042D01*
%TO.C,R27*%
X108627942Y-123553480D02*
X108294609Y-123077290D01*
X108056514Y-123553480D02*
X108056514Y-122553480D01*
X108437466Y-122553480D01*
X108532704Y-122601100D01*
X108580323Y-122648719D01*
X108627942Y-122743957D01*
X108627942Y-122886814D01*
X108580323Y-122982052D01*
X108532704Y-123029671D01*
X108437466Y-123077290D01*
X108056514Y-123077290D01*
X109008895Y-122648719D02*
X109056514Y-122601100D01*
X109151752Y-122553480D01*
X109389847Y-122553480D01*
X109485085Y-122601100D01*
X109532704Y-122648719D01*
X109580323Y-122743957D01*
X109580323Y-122839195D01*
X109532704Y-122982052D01*
X108961276Y-123553480D01*
X109580323Y-123553480D01*
X109913657Y-122553480D02*
X110580323Y-122553480D01*
X110151752Y-123553480D01*
%TO.C,C1*%
X138101342Y-117205466D02*
X138148961Y-117253085D01*
X138196580Y-117395942D01*
X138196580Y-117491180D01*
X138148961Y-117634038D01*
X138053723Y-117729276D01*
X137958485Y-117776895D01*
X137768009Y-117824514D01*
X137625152Y-117824514D01*
X137434676Y-117776895D01*
X137339438Y-117729276D01*
X137244200Y-117634038D01*
X137196580Y-117491180D01*
X137196580Y-117395942D01*
X137244200Y-117253085D01*
X137291819Y-117205466D01*
X138196580Y-116253085D02*
X138196580Y-116824514D01*
X138196580Y-116538800D02*
X137196580Y-116538800D01*
X137339438Y-116634038D01*
X137434676Y-116729276D01*
X137482295Y-116824514D01*
%TO.C,SW2*%
X176644016Y-138936361D02*
X176786873Y-138983980D01*
X177024969Y-138983980D01*
X177120207Y-138936361D01*
X177167826Y-138888742D01*
X177215445Y-138793504D01*
X177215445Y-138698266D01*
X177167826Y-138603028D01*
X177120207Y-138555409D01*
X177024969Y-138507790D01*
X176834492Y-138460171D01*
X176739254Y-138412552D01*
X176691635Y-138364933D01*
X176644016Y-138269695D01*
X176644016Y-138174457D01*
X176691635Y-138079219D01*
X176739254Y-138031600D01*
X176834492Y-137983980D01*
X177072588Y-137983980D01*
X177215445Y-138031600D01*
X177548778Y-137983980D02*
X177786873Y-138983980D01*
X177977350Y-138269695D01*
X178167826Y-138983980D01*
X178405921Y-137983980D01*
X178739254Y-138079219D02*
X178786873Y-138031600D01*
X178882111Y-137983980D01*
X179120207Y-137983980D01*
X179215445Y-138031600D01*
X179263064Y-138079219D01*
X179310683Y-138174457D01*
X179310683Y-138269695D01*
X179263064Y-138412552D01*
X178691635Y-138983980D01*
X179310683Y-138983980D01*
%TO.C,J10*%
X108512077Y-132954781D02*
X108512077Y-133669067D01*
X108464458Y-133811924D01*
X108369220Y-133907162D01*
X108226362Y-133954781D01*
X108131124Y-133954781D01*
X109512077Y-133954781D02*
X108940648Y-133954781D01*
X109226362Y-133954781D02*
X109226362Y-132954781D01*
X109131124Y-133097639D01*
X109035886Y-133192877D01*
X108940648Y-133240496D01*
X110131124Y-132954781D02*
X110226362Y-132954781D01*
X110321601Y-133002401D01*
X110369220Y-133050020D01*
X110416839Y-133145258D01*
X110464458Y-133335734D01*
X110464458Y-133573829D01*
X110416839Y-133764305D01*
X110369220Y-133859543D01*
X110321601Y-133907162D01*
X110226362Y-133954781D01*
X110131124Y-133954781D01*
X110035886Y-133907162D01*
X109988267Y-133859543D01*
X109940648Y-133764305D01*
X109893029Y-133573829D01*
X109893029Y-133335734D01*
X109940648Y-133145258D01*
X109988267Y-133050020D01*
X110035886Y-133002401D01*
X110131124Y-132954781D01*
%TO.C,C19*%
X122734642Y-78999142D02*
X122687023Y-79046761D01*
X122544166Y-79094380D01*
X122448928Y-79094380D01*
X122306071Y-79046761D01*
X122210833Y-78951523D01*
X122163214Y-78856285D01*
X122115595Y-78665809D01*
X122115595Y-78522952D01*
X122163214Y-78332476D01*
X122210833Y-78237238D01*
X122306071Y-78142000D01*
X122448928Y-78094380D01*
X122544166Y-78094380D01*
X122687023Y-78142000D01*
X122734642Y-78189619D01*
X123687023Y-79094380D02*
X123115595Y-79094380D01*
X123401309Y-79094380D02*
X123401309Y-78094380D01*
X123306071Y-78237238D01*
X123210833Y-78332476D01*
X123115595Y-78380095D01*
X124163214Y-79094380D02*
X124353690Y-79094380D01*
X124448928Y-79046761D01*
X124496547Y-78999142D01*
X124591785Y-78856285D01*
X124639404Y-78665809D01*
X124639404Y-78284857D01*
X124591785Y-78189619D01*
X124544166Y-78142000D01*
X124448928Y-78094380D01*
X124258452Y-78094380D01*
X124163214Y-78142000D01*
X124115595Y-78189619D01*
X124067976Y-78284857D01*
X124067976Y-78522952D01*
X124115595Y-78618190D01*
X124163214Y-78665809D01*
X124258452Y-78713428D01*
X124448928Y-78713428D01*
X124544166Y-78665809D01*
X124591785Y-78618190D01*
X124639404Y-78522952D01*
%TO.C,C8*%
X123521742Y-117205466D02*
X123569361Y-117253085D01*
X123616980Y-117395942D01*
X123616980Y-117491180D01*
X123569361Y-117634038D01*
X123474123Y-117729276D01*
X123378885Y-117776895D01*
X123188409Y-117824514D01*
X123045552Y-117824514D01*
X122855076Y-117776895D01*
X122759838Y-117729276D01*
X122664600Y-117634038D01*
X122616980Y-117491180D01*
X122616980Y-117395942D01*
X122664600Y-117253085D01*
X122712219Y-117205466D01*
X123045552Y-116634038D02*
X122997933Y-116729276D01*
X122950314Y-116776895D01*
X122855076Y-116824514D01*
X122807457Y-116824514D01*
X122712219Y-116776895D01*
X122664600Y-116729276D01*
X122616980Y-116634038D01*
X122616980Y-116443561D01*
X122664600Y-116348323D01*
X122712219Y-116300704D01*
X122807457Y-116253085D01*
X122855076Y-116253085D01*
X122950314Y-116300704D01*
X122997933Y-116348323D01*
X123045552Y-116443561D01*
X123045552Y-116634038D01*
X123093171Y-116729276D01*
X123140790Y-116776895D01*
X123236028Y-116824514D01*
X123426504Y-116824514D01*
X123521742Y-116776895D01*
X123569361Y-116729276D01*
X123616980Y-116634038D01*
X123616980Y-116443561D01*
X123569361Y-116348323D01*
X123521742Y-116300704D01*
X123426504Y-116253085D01*
X123236028Y-116253085D01*
X123140790Y-116300704D01*
X123093171Y-116348323D01*
X123045552Y-116443561D01*
%TO.C,C23*%
X128262142Y-132381942D02*
X128214523Y-132429561D01*
X128071666Y-132477180D01*
X127976428Y-132477180D01*
X127833571Y-132429561D01*
X127738333Y-132334323D01*
X127690714Y-132239085D01*
X127643095Y-132048609D01*
X127643095Y-131905752D01*
X127690714Y-131715276D01*
X127738333Y-131620038D01*
X127833571Y-131524800D01*
X127976428Y-131477180D01*
X128071666Y-131477180D01*
X128214523Y-131524800D01*
X128262142Y-131572419D01*
X128643095Y-131572419D02*
X128690714Y-131524800D01*
X128785952Y-131477180D01*
X129024047Y-131477180D01*
X129119285Y-131524800D01*
X129166904Y-131572419D01*
X129214523Y-131667657D01*
X129214523Y-131762895D01*
X129166904Y-131905752D01*
X128595476Y-132477180D01*
X129214523Y-132477180D01*
X129547857Y-131477180D02*
X130166904Y-131477180D01*
X129833571Y-131858133D01*
X129976428Y-131858133D01*
X130071666Y-131905752D01*
X130119285Y-131953371D01*
X130166904Y-132048609D01*
X130166904Y-132286704D01*
X130119285Y-132381942D01*
X130071666Y-132429561D01*
X129976428Y-132477180D01*
X129690714Y-132477180D01*
X129595476Y-132429561D01*
X129547857Y-132381942D01*
%TO.C,Q3*%
X115576361Y-99506019D02*
X115481123Y-99458400D01*
X115385885Y-99363161D01*
X115243028Y-99220304D01*
X115147790Y-99172685D01*
X115052552Y-99172685D01*
X115100171Y-99410780D02*
X115004933Y-99363161D01*
X114909695Y-99267923D01*
X114862076Y-99077447D01*
X114862076Y-98744114D01*
X114909695Y-98553638D01*
X115004933Y-98458400D01*
X115100171Y-98410780D01*
X115290647Y-98410780D01*
X115385885Y-98458400D01*
X115481123Y-98553638D01*
X115528742Y-98744114D01*
X115528742Y-99077447D01*
X115481123Y-99267923D01*
X115385885Y-99363161D01*
X115290647Y-99410780D01*
X115100171Y-99410780D01*
X115862076Y-98410780D02*
X116481123Y-98410780D01*
X116147790Y-98791733D01*
X116290647Y-98791733D01*
X116385885Y-98839352D01*
X116433504Y-98886971D01*
X116481123Y-98982209D01*
X116481123Y-99220304D01*
X116433504Y-99315542D01*
X116385885Y-99363161D01*
X116290647Y-99410780D01*
X116004933Y-99410780D01*
X115909695Y-99363161D01*
X115862076Y-99315542D01*
%TO.C,J7*%
X128622466Y-141179980D02*
X128622466Y-141894266D01*
X128574847Y-142037123D01*
X128479609Y-142132361D01*
X128336752Y-142179980D01*
X128241514Y-142179980D01*
X129003419Y-141179980D02*
X129670085Y-141179980D01*
X129241514Y-142179980D01*
%TO.C,R20*%
X94810342Y-121407180D02*
X94477009Y-120930990D01*
X94238914Y-121407180D02*
X94238914Y-120407180D01*
X94619866Y-120407180D01*
X94715104Y-120454800D01*
X94762723Y-120502419D01*
X94810342Y-120597657D01*
X94810342Y-120740514D01*
X94762723Y-120835752D01*
X94715104Y-120883371D01*
X94619866Y-120930990D01*
X94238914Y-120930990D01*
X95191295Y-120502419D02*
X95238914Y-120454800D01*
X95334152Y-120407180D01*
X95572247Y-120407180D01*
X95667485Y-120454800D01*
X95715104Y-120502419D01*
X95762723Y-120597657D01*
X95762723Y-120692895D01*
X95715104Y-120835752D01*
X95143676Y-121407180D01*
X95762723Y-121407180D01*
X96381771Y-120407180D02*
X96477009Y-120407180D01*
X96572247Y-120454800D01*
X96619866Y-120502419D01*
X96667485Y-120597657D01*
X96715104Y-120788133D01*
X96715104Y-121026228D01*
X96667485Y-121216704D01*
X96619866Y-121311942D01*
X96572247Y-121359561D01*
X96477009Y-121407180D01*
X96381771Y-121407180D01*
X96286533Y-121359561D01*
X96238914Y-121311942D01*
X96191295Y-121216704D01*
X96143676Y-121026228D01*
X96143676Y-120788133D01*
X96191295Y-120597657D01*
X96238914Y-120502419D01*
X96286533Y-120454800D01*
X96381771Y-120407180D01*
%TO.C,J9*%
X201736666Y-117765580D02*
X201736666Y-118479866D01*
X201689047Y-118622723D01*
X201593809Y-118717961D01*
X201450952Y-118765580D01*
X201355714Y-118765580D01*
X202260476Y-118765580D02*
X202450952Y-118765580D01*
X202546190Y-118717961D01*
X202593809Y-118670342D01*
X202689047Y-118527485D01*
X202736666Y-118337009D01*
X202736666Y-117956057D01*
X202689047Y-117860819D01*
X202641428Y-117813200D01*
X202546190Y-117765580D01*
X202355714Y-117765580D01*
X202260476Y-117813200D01*
X202212857Y-117860819D01*
X202165238Y-117956057D01*
X202165238Y-118194152D01*
X202212857Y-118289390D01*
X202260476Y-118337009D01*
X202355714Y-118384628D01*
X202546190Y-118384628D01*
X202641428Y-118337009D01*
X202689047Y-118289390D01*
X202736666Y-118194152D01*
%TO.C,C9*%
X189434742Y-127623866D02*
X189482361Y-127671485D01*
X189529980Y-127814342D01*
X189529980Y-127909580D01*
X189482361Y-128052438D01*
X189387123Y-128147676D01*
X189291885Y-128195295D01*
X189101409Y-128242914D01*
X188958552Y-128242914D01*
X188768076Y-128195295D01*
X188672838Y-128147676D01*
X188577600Y-128052438D01*
X188529980Y-127909580D01*
X188529980Y-127814342D01*
X188577600Y-127671485D01*
X188625219Y-127623866D01*
X189529980Y-127147676D02*
X189529980Y-126957200D01*
X189482361Y-126861961D01*
X189434742Y-126814342D01*
X189291885Y-126719104D01*
X189101409Y-126671485D01*
X188720457Y-126671485D01*
X188625219Y-126719104D01*
X188577600Y-126766723D01*
X188529980Y-126861961D01*
X188529980Y-127052438D01*
X188577600Y-127147676D01*
X188625219Y-127195295D01*
X188720457Y-127242914D01*
X188958552Y-127242914D01*
X189053790Y-127195295D01*
X189101409Y-127147676D01*
X189149028Y-127052438D01*
X189149028Y-126861961D01*
X189101409Y-126766723D01*
X189053790Y-126719104D01*
X188958552Y-126671485D01*
%TO.C,R36*%
X82145442Y-78176380D02*
X81812109Y-77700190D01*
X81574014Y-78176380D02*
X81574014Y-77176380D01*
X81954966Y-77176380D01*
X82050204Y-77224000D01*
X82097823Y-77271619D01*
X82145442Y-77366857D01*
X82145442Y-77509714D01*
X82097823Y-77604952D01*
X82050204Y-77652571D01*
X81954966Y-77700190D01*
X81574014Y-77700190D01*
X82478776Y-77176380D02*
X83097823Y-77176380D01*
X82764490Y-77557333D01*
X82907347Y-77557333D01*
X83002585Y-77604952D01*
X83050204Y-77652571D01*
X83097823Y-77747809D01*
X83097823Y-77985904D01*
X83050204Y-78081142D01*
X83002585Y-78128761D01*
X82907347Y-78176380D01*
X82621633Y-78176380D01*
X82526395Y-78128761D01*
X82478776Y-78081142D01*
X83954966Y-77176380D02*
X83764490Y-77176380D01*
X83669252Y-77224000D01*
X83621633Y-77271619D01*
X83526395Y-77414476D01*
X83478776Y-77604952D01*
X83478776Y-77985904D01*
X83526395Y-78081142D01*
X83574014Y-78128761D01*
X83669252Y-78176380D01*
X83859728Y-78176380D01*
X83954966Y-78128761D01*
X84002585Y-78081142D01*
X84050204Y-77985904D01*
X84050204Y-77747809D01*
X84002585Y-77652571D01*
X83954966Y-77604952D01*
X83859728Y-77557333D01*
X83669252Y-77557333D01*
X83574014Y-77604952D01*
X83526395Y-77652571D01*
X83478776Y-77747809D01*
%TO.C,J8*%
X172921832Y-124979180D02*
X172921832Y-125693466D01*
X172874213Y-125836323D01*
X172778975Y-125931561D01*
X172636118Y-125979180D01*
X172540880Y-125979180D01*
X173540880Y-125407752D02*
X173445642Y-125360133D01*
X173398023Y-125312514D01*
X173350404Y-125217276D01*
X173350404Y-125169657D01*
X173398023Y-125074419D01*
X173445642Y-125026800D01*
X173540880Y-124979180D01*
X173731356Y-124979180D01*
X173826594Y-125026800D01*
X173874213Y-125074419D01*
X173921832Y-125169657D01*
X173921832Y-125217276D01*
X173874213Y-125312514D01*
X173826594Y-125360133D01*
X173731356Y-125407752D01*
X173540880Y-125407752D01*
X173445642Y-125455371D01*
X173398023Y-125502990D01*
X173350404Y-125598228D01*
X173350404Y-125788704D01*
X173398023Y-125883942D01*
X173445642Y-125931561D01*
X173540880Y-125979180D01*
X173731356Y-125979180D01*
X173826594Y-125931561D01*
X173874213Y-125883942D01*
X173921832Y-125788704D01*
X173921832Y-125598228D01*
X173874213Y-125502990D01*
X173826594Y-125455371D01*
X173731356Y-125407752D01*
%TO.C,R17*%
X186082242Y-115666780D02*
X185748909Y-115190590D01*
X185510814Y-115666780D02*
X185510814Y-114666780D01*
X185891766Y-114666780D01*
X185987004Y-114714400D01*
X186034623Y-114762019D01*
X186082242Y-114857257D01*
X186082242Y-115000114D01*
X186034623Y-115095352D01*
X185987004Y-115142971D01*
X185891766Y-115190590D01*
X185510814Y-115190590D01*
X187034623Y-115666780D02*
X186463195Y-115666780D01*
X186748909Y-115666780D02*
X186748909Y-114666780D01*
X186653671Y-114809638D01*
X186558433Y-114904876D01*
X186463195Y-114952495D01*
X187367957Y-114666780D02*
X188034623Y-114666780D01*
X187606052Y-115666780D01*
%TO.C,R26*%
X94810342Y-99664780D02*
X94477009Y-99188590D01*
X94238914Y-99664780D02*
X94238914Y-98664780D01*
X94619866Y-98664780D01*
X94715104Y-98712400D01*
X94762723Y-98760019D01*
X94810342Y-98855257D01*
X94810342Y-98998114D01*
X94762723Y-99093352D01*
X94715104Y-99140971D01*
X94619866Y-99188590D01*
X94238914Y-99188590D01*
X95191295Y-98760019D02*
X95238914Y-98712400D01*
X95334152Y-98664780D01*
X95572247Y-98664780D01*
X95667485Y-98712400D01*
X95715104Y-98760019D01*
X95762723Y-98855257D01*
X95762723Y-98950495D01*
X95715104Y-99093352D01*
X95143676Y-99664780D01*
X95762723Y-99664780D01*
X96619866Y-98664780D02*
X96429390Y-98664780D01*
X96334152Y-98712400D01*
X96286533Y-98760019D01*
X96191295Y-98902876D01*
X96143676Y-99093352D01*
X96143676Y-99474304D01*
X96191295Y-99569542D01*
X96238914Y-99617161D01*
X96334152Y-99664780D01*
X96524628Y-99664780D01*
X96619866Y-99617161D01*
X96667485Y-99569542D01*
X96715104Y-99474304D01*
X96715104Y-99236209D01*
X96667485Y-99140971D01*
X96619866Y-99093352D01*
X96524628Y-99045733D01*
X96334152Y-99045733D01*
X96238914Y-99093352D01*
X96191295Y-99140971D01*
X96143676Y-99236209D01*
%TO.C,Q4*%
X115576361Y-103824019D02*
X115481123Y-103776400D01*
X115385885Y-103681161D01*
X115243028Y-103538304D01*
X115147790Y-103490685D01*
X115052552Y-103490685D01*
X115100171Y-103728780D02*
X115004933Y-103681161D01*
X114909695Y-103585923D01*
X114862076Y-103395447D01*
X114862076Y-103062114D01*
X114909695Y-102871638D01*
X115004933Y-102776400D01*
X115100171Y-102728780D01*
X115290647Y-102728780D01*
X115385885Y-102776400D01*
X115481123Y-102871638D01*
X115528742Y-103062114D01*
X115528742Y-103395447D01*
X115481123Y-103585923D01*
X115385885Y-103681161D01*
X115290647Y-103728780D01*
X115100171Y-103728780D01*
X116385885Y-103062114D02*
X116385885Y-103728780D01*
X116147790Y-102681161D02*
X115909695Y-103395447D01*
X116528742Y-103395447D01*
%TO.C,SW1*%
X187322166Y-138885561D02*
X187465023Y-138933180D01*
X187703119Y-138933180D01*
X187798357Y-138885561D01*
X187845976Y-138837942D01*
X187893595Y-138742704D01*
X187893595Y-138647466D01*
X187845976Y-138552228D01*
X187798357Y-138504609D01*
X187703119Y-138456990D01*
X187512642Y-138409371D01*
X187417404Y-138361752D01*
X187369785Y-138314133D01*
X187322166Y-138218895D01*
X187322166Y-138123657D01*
X187369785Y-138028419D01*
X187417404Y-137980800D01*
X187512642Y-137933180D01*
X187750738Y-137933180D01*
X187893595Y-137980800D01*
X188226928Y-137933180D02*
X188465023Y-138933180D01*
X188655500Y-138218895D01*
X188845976Y-138933180D01*
X189084071Y-137933180D01*
X189988833Y-138933180D02*
X189417404Y-138933180D01*
X189703119Y-138933180D02*
X189703119Y-137933180D01*
X189607880Y-138076038D01*
X189512642Y-138171276D01*
X189417404Y-138218895D01*
%TO.C,R32*%
X152496780Y-127744457D02*
X152020590Y-128077790D01*
X152496780Y-128315885D02*
X151496780Y-128315885D01*
X151496780Y-127934933D01*
X151544400Y-127839695D01*
X151592019Y-127792076D01*
X151687257Y-127744457D01*
X151830114Y-127744457D01*
X151925352Y-127792076D01*
X151972971Y-127839695D01*
X152020590Y-127934933D01*
X152020590Y-128315885D01*
X151496780Y-127411123D02*
X151496780Y-126792076D01*
X151877733Y-127125409D01*
X151877733Y-126982552D01*
X151925352Y-126887314D01*
X151972971Y-126839695D01*
X152068209Y-126792076D01*
X152306304Y-126792076D01*
X152401542Y-126839695D01*
X152449161Y-126887314D01*
X152496780Y-126982552D01*
X152496780Y-127268266D01*
X152449161Y-127363504D01*
X152401542Y-127411123D01*
X151592019Y-126411123D02*
X151544400Y-126363504D01*
X151496780Y-126268266D01*
X151496780Y-126030171D01*
X151544400Y-125934933D01*
X151592019Y-125887314D01*
X151687257Y-125839695D01*
X151782495Y-125839695D01*
X151925352Y-125887314D01*
X152496780Y-126458742D01*
X152496780Y-125839695D01*
%TO.C,R18*%
X186133042Y-113634780D02*
X185799709Y-113158590D01*
X185561614Y-113634780D02*
X185561614Y-112634780D01*
X185942566Y-112634780D01*
X186037804Y-112682400D01*
X186085423Y-112730019D01*
X186133042Y-112825257D01*
X186133042Y-112968114D01*
X186085423Y-113063352D01*
X186037804Y-113110971D01*
X185942566Y-113158590D01*
X185561614Y-113158590D01*
X187085423Y-113634780D02*
X186513995Y-113634780D01*
X186799709Y-113634780D02*
X186799709Y-112634780D01*
X186704471Y-112777638D01*
X186609233Y-112872876D01*
X186513995Y-112920495D01*
X187656852Y-113063352D02*
X187561614Y-113015733D01*
X187513995Y-112968114D01*
X187466376Y-112872876D01*
X187466376Y-112825257D01*
X187513995Y-112730019D01*
X187561614Y-112682400D01*
X187656852Y-112634780D01*
X187847328Y-112634780D01*
X187942566Y-112682400D01*
X187990185Y-112730019D01*
X188037804Y-112825257D01*
X188037804Y-112872876D01*
X187990185Y-112968114D01*
X187942566Y-113015733D01*
X187847328Y-113063352D01*
X187656852Y-113063352D01*
X187561614Y-113110971D01*
X187513995Y-113158590D01*
X187466376Y-113253828D01*
X187466376Y-113444304D01*
X187513995Y-113539542D01*
X187561614Y-113587161D01*
X187656852Y-113634780D01*
X187847328Y-113634780D01*
X187942566Y-113587161D01*
X187990185Y-113539542D01*
X188037804Y-113444304D01*
X188037804Y-113253828D01*
X187990185Y-113158590D01*
X187942566Y-113110971D01*
X187847328Y-113063352D01*
%TO.C,R19*%
X186097942Y-123591580D02*
X185764609Y-123115390D01*
X185526514Y-123591580D02*
X185526514Y-122591580D01*
X185907466Y-122591580D01*
X186002704Y-122639200D01*
X186050323Y-122686819D01*
X186097942Y-122782057D01*
X186097942Y-122924914D01*
X186050323Y-123020152D01*
X186002704Y-123067771D01*
X185907466Y-123115390D01*
X185526514Y-123115390D01*
X187050323Y-123591580D02*
X186478895Y-123591580D01*
X186764609Y-123591580D02*
X186764609Y-122591580D01*
X186669371Y-122734438D01*
X186574133Y-122829676D01*
X186478895Y-122877295D01*
X187526514Y-123591580D02*
X187716990Y-123591580D01*
X187812228Y-123543961D01*
X187859847Y-123496342D01*
X187955085Y-123353485D01*
X188002704Y-123163009D01*
X188002704Y-122782057D01*
X187955085Y-122686819D01*
X187907466Y-122639200D01*
X187812228Y-122591580D01*
X187621752Y-122591580D01*
X187526514Y-122639200D01*
X187478895Y-122686819D01*
X187431276Y-122782057D01*
X187431276Y-123020152D01*
X187478895Y-123115390D01*
X187526514Y-123163009D01*
X187621752Y-123210628D01*
X187812228Y-123210628D01*
X187907466Y-123163009D01*
X187955085Y-123115390D01*
X188002704Y-123020152D01*
%TO.C,R1*%
X79030533Y-129839980D02*
X78697200Y-129363790D01*
X78459104Y-129839980D02*
X78459104Y-128839980D01*
X78840057Y-128839980D01*
X78935295Y-128887600D01*
X78982914Y-128935219D01*
X79030533Y-129030457D01*
X79030533Y-129173314D01*
X78982914Y-129268552D01*
X78935295Y-129316171D01*
X78840057Y-129363790D01*
X78459104Y-129363790D01*
X79982914Y-129839980D02*
X79411485Y-129839980D01*
X79697200Y-129839980D02*
X79697200Y-128839980D01*
X79601961Y-128982838D01*
X79506723Y-129078076D01*
X79411485Y-129125695D01*
%TO.C,U3*%
X149234795Y-72705980D02*
X149234795Y-73515504D01*
X149282414Y-73610742D01*
X149330033Y-73658361D01*
X149425271Y-73705980D01*
X149615747Y-73705980D01*
X149710985Y-73658361D01*
X149758604Y-73610742D01*
X149806223Y-73515504D01*
X149806223Y-72705980D01*
X150187176Y-72705980D02*
X150806223Y-72705980D01*
X150472890Y-73086933D01*
X150615747Y-73086933D01*
X150710985Y-73134552D01*
X150758604Y-73182171D01*
X150806223Y-73277409D01*
X150806223Y-73515504D01*
X150758604Y-73610742D01*
X150710985Y-73658361D01*
X150615747Y-73705980D01*
X150330033Y-73705980D01*
X150234795Y-73658361D01*
X150187176Y-73610742D01*
%TO.C,J6*%
X98269466Y-132954780D02*
X98269466Y-133669066D01*
X98221847Y-133811923D01*
X98126609Y-133907161D01*
X97983752Y-133954780D01*
X97888514Y-133954780D01*
X99174228Y-132954780D02*
X98983752Y-132954780D01*
X98888514Y-133002400D01*
X98840895Y-133050019D01*
X98745657Y-133192876D01*
X98698038Y-133383352D01*
X98698038Y-133764304D01*
X98745657Y-133859542D01*
X98793276Y-133907161D01*
X98888514Y-133954780D01*
X99078990Y-133954780D01*
X99174228Y-133907161D01*
X99221847Y-133859542D01*
X99269466Y-133764304D01*
X99269466Y-133526209D01*
X99221847Y-133430971D01*
X99174228Y-133383352D01*
X99078990Y-133335733D01*
X98888514Y-133335733D01*
X98793276Y-133383352D01*
X98745657Y-133430971D01*
X98698038Y-133526209D01*
%TO.C,D4*%
X89054312Y-145229295D02*
X88054312Y-145229295D01*
X88054312Y-144991200D01*
X88101932Y-144848342D01*
X88197170Y-144753104D01*
X88292408Y-144705485D01*
X88482884Y-144657866D01*
X88625741Y-144657866D01*
X88816217Y-144705485D01*
X88911455Y-144753104D01*
X89006693Y-144848342D01*
X89054312Y-144991200D01*
X89054312Y-145229295D01*
X88387646Y-143800723D02*
X89054312Y-143800723D01*
X88006693Y-144038819D02*
X88720979Y-144276914D01*
X88720979Y-143657866D01*
%TO.C,U4*%
X131810395Y-103084380D02*
X131810395Y-103893904D01*
X131858014Y-103989142D01*
X131905633Y-104036761D01*
X132000871Y-104084380D01*
X132191347Y-104084380D01*
X132286585Y-104036761D01*
X132334204Y-103989142D01*
X132381823Y-103893904D01*
X132381823Y-103084380D01*
X133286585Y-103417714D02*
X133286585Y-104084380D01*
X133048490Y-103036761D02*
X132810395Y-103751047D01*
X133429442Y-103751047D01*
%TO.C,U1*%
X198093995Y-90843180D02*
X198093995Y-91652704D01*
X198141614Y-91747942D01*
X198189233Y-91795561D01*
X198284471Y-91843180D01*
X198474947Y-91843180D01*
X198570185Y-91795561D01*
X198617804Y-91747942D01*
X198665423Y-91652704D01*
X198665423Y-90843180D01*
X199665423Y-91843180D02*
X199093995Y-91843180D01*
X199379709Y-91843180D02*
X199379709Y-90843180D01*
X199284471Y-90986038D01*
X199189233Y-91081276D01*
X199093995Y-91128895D01*
%TO.C,C21*%
X140463542Y-127841657D02*
X140511161Y-127889276D01*
X140558780Y-128032133D01*
X140558780Y-128127371D01*
X140511161Y-128270228D01*
X140415923Y-128365466D01*
X140320685Y-128413085D01*
X140130209Y-128460704D01*
X139987352Y-128460704D01*
X139796876Y-128413085D01*
X139701638Y-128365466D01*
X139606400Y-128270228D01*
X139558780Y-128127371D01*
X139558780Y-128032133D01*
X139606400Y-127889276D01*
X139654019Y-127841657D01*
X139654019Y-127460704D02*
X139606400Y-127413085D01*
X139558780Y-127317847D01*
X139558780Y-127079752D01*
X139606400Y-126984514D01*
X139654019Y-126936895D01*
X139749257Y-126889276D01*
X139844495Y-126889276D01*
X139987352Y-126936895D01*
X140558780Y-127508323D01*
X140558780Y-126889276D01*
X140558780Y-125936895D02*
X140558780Y-126508323D01*
X140558780Y-126222609D02*
X139558780Y-126222609D01*
X139701638Y-126317847D01*
X139796876Y-126413085D01*
X139844495Y-126508323D01*
%TO.C,R30*%
X180573480Y-127642857D02*
X180097290Y-127976190D01*
X180573480Y-128214285D02*
X179573480Y-128214285D01*
X179573480Y-127833333D01*
X179621100Y-127738095D01*
X179668719Y-127690476D01*
X179763957Y-127642857D01*
X179906814Y-127642857D01*
X180002052Y-127690476D01*
X180049671Y-127738095D01*
X180097290Y-127833333D01*
X180097290Y-128214285D01*
X179573480Y-127309523D02*
X179573480Y-126690476D01*
X179954433Y-127023809D01*
X179954433Y-126880952D01*
X180002052Y-126785714D01*
X180049671Y-126738095D01*
X180144909Y-126690476D01*
X180383004Y-126690476D01*
X180478242Y-126738095D01*
X180525861Y-126785714D01*
X180573480Y-126880952D01*
X180573480Y-127166666D01*
X180525861Y-127261904D01*
X180478242Y-127309523D01*
X179573480Y-126071428D02*
X179573480Y-125976190D01*
X179621100Y-125880952D01*
X179668719Y-125833333D01*
X179763957Y-125785714D01*
X179954433Y-125738095D01*
X180192528Y-125738095D01*
X180383004Y-125785714D01*
X180478242Y-125833333D01*
X180525861Y-125880952D01*
X180573480Y-125976190D01*
X180573480Y-126071428D01*
X180525861Y-126166666D01*
X180478242Y-126214285D01*
X180383004Y-126261904D01*
X180192528Y-126309523D01*
X179954433Y-126309523D01*
X179763957Y-126261904D01*
X179668719Y-126214285D01*
X179621100Y-126166666D01*
X179573480Y-126071428D01*
%TO.C,R13*%
X94810342Y-119222780D02*
X94477009Y-118746590D01*
X94238914Y-119222780D02*
X94238914Y-118222780D01*
X94619866Y-118222780D01*
X94715104Y-118270400D01*
X94762723Y-118318019D01*
X94810342Y-118413257D01*
X94810342Y-118556114D01*
X94762723Y-118651352D01*
X94715104Y-118698971D01*
X94619866Y-118746590D01*
X94238914Y-118746590D01*
X95762723Y-119222780D02*
X95191295Y-119222780D01*
X95477009Y-119222780D02*
X95477009Y-118222780D01*
X95381771Y-118365638D01*
X95286533Y-118460876D01*
X95191295Y-118508495D01*
X96096057Y-118222780D02*
X96715104Y-118222780D01*
X96381771Y-118603733D01*
X96524628Y-118603733D01*
X96619866Y-118651352D01*
X96667485Y-118698971D01*
X96715104Y-118794209D01*
X96715104Y-119032304D01*
X96667485Y-119127542D01*
X96619866Y-119175161D01*
X96524628Y-119222780D01*
X96238914Y-119222780D01*
X96143676Y-119175161D01*
X96096057Y-119127542D01*
%TO.C,Q5*%
X115576361Y-108243619D02*
X115481123Y-108196000D01*
X115385885Y-108100761D01*
X115243028Y-107957904D01*
X115147790Y-107910285D01*
X115052552Y-107910285D01*
X115100171Y-108148380D02*
X115004933Y-108100761D01*
X114909695Y-108005523D01*
X114862076Y-107815047D01*
X114862076Y-107481714D01*
X114909695Y-107291238D01*
X115004933Y-107196000D01*
X115100171Y-107148380D01*
X115290647Y-107148380D01*
X115385885Y-107196000D01*
X115481123Y-107291238D01*
X115528742Y-107481714D01*
X115528742Y-107815047D01*
X115481123Y-108005523D01*
X115385885Y-108100761D01*
X115290647Y-108148380D01*
X115100171Y-108148380D01*
X116433504Y-107148380D02*
X115957314Y-107148380D01*
X115909695Y-107624571D01*
X115957314Y-107576952D01*
X116052552Y-107529333D01*
X116290647Y-107529333D01*
X116385885Y-107576952D01*
X116433504Y-107624571D01*
X116481123Y-107719809D01*
X116481123Y-107957904D01*
X116433504Y-108053142D01*
X116385885Y-108100761D01*
X116290647Y-108148380D01*
X116052552Y-108148380D01*
X115957314Y-108100761D01*
X115909695Y-108053142D01*
%TO.C,C5*%
X129986042Y-117205466D02*
X130033661Y-117253085D01*
X130081280Y-117395942D01*
X130081280Y-117491180D01*
X130033661Y-117634038D01*
X129938423Y-117729276D01*
X129843185Y-117776895D01*
X129652709Y-117824514D01*
X129509852Y-117824514D01*
X129319376Y-117776895D01*
X129224138Y-117729276D01*
X129128900Y-117634038D01*
X129081280Y-117491180D01*
X129081280Y-117395942D01*
X129128900Y-117253085D01*
X129176519Y-117205466D01*
X129081280Y-116300704D02*
X129081280Y-116776895D01*
X129557471Y-116824514D01*
X129509852Y-116776895D01*
X129462233Y-116681657D01*
X129462233Y-116443561D01*
X129509852Y-116348323D01*
X129557471Y-116300704D01*
X129652709Y-116253085D01*
X129890804Y-116253085D01*
X129986042Y-116300704D01*
X130033661Y-116348323D01*
X130081280Y-116443561D01*
X130081280Y-116681657D01*
X130033661Y-116776895D01*
X129986042Y-116824514D01*
%TO.C,R12*%
X187040780Y-127744457D02*
X186564590Y-128077790D01*
X187040780Y-128315885D02*
X186040780Y-128315885D01*
X186040780Y-127934933D01*
X186088400Y-127839695D01*
X186136019Y-127792076D01*
X186231257Y-127744457D01*
X186374114Y-127744457D01*
X186469352Y-127792076D01*
X186516971Y-127839695D01*
X186564590Y-127934933D01*
X186564590Y-128315885D01*
X187040780Y-126792076D02*
X187040780Y-127363504D01*
X187040780Y-127077790D02*
X186040780Y-127077790D01*
X186183638Y-127173028D01*
X186278876Y-127268266D01*
X186326495Y-127363504D01*
X186136019Y-126411123D02*
X186088400Y-126363504D01*
X186040780Y-126268266D01*
X186040780Y-126030171D01*
X186088400Y-125934933D01*
X186136019Y-125887314D01*
X186231257Y-125839695D01*
X186326495Y-125839695D01*
X186469352Y-125887314D01*
X187040780Y-126458742D01*
X187040780Y-125839695D01*
%TO.C,R22*%
X117619542Y-126283980D02*
X117286209Y-125807790D01*
X117048114Y-126283980D02*
X117048114Y-125283980D01*
X117429066Y-125283980D01*
X117524304Y-125331600D01*
X117571923Y-125379219D01*
X117619542Y-125474457D01*
X117619542Y-125617314D01*
X117571923Y-125712552D01*
X117524304Y-125760171D01*
X117429066Y-125807790D01*
X117048114Y-125807790D01*
X118000495Y-125379219D02*
X118048114Y-125331600D01*
X118143352Y-125283980D01*
X118381447Y-125283980D01*
X118476685Y-125331600D01*
X118524304Y-125379219D01*
X118571923Y-125474457D01*
X118571923Y-125569695D01*
X118524304Y-125712552D01*
X117952876Y-126283980D01*
X118571923Y-126283980D01*
X118952876Y-125379219D02*
X119000495Y-125331600D01*
X119095733Y-125283980D01*
X119333828Y-125283980D01*
X119429066Y-125331600D01*
X119476685Y-125379219D01*
X119524304Y-125474457D01*
X119524304Y-125569695D01*
X119476685Y-125712552D01*
X118905257Y-126283980D01*
X119524304Y-126283980D01*
%TO.C,C15*%
X108607142Y-125704542D02*
X108559523Y-125752161D01*
X108416666Y-125799780D01*
X108321428Y-125799780D01*
X108178571Y-125752161D01*
X108083333Y-125656923D01*
X108035714Y-125561685D01*
X107988095Y-125371209D01*
X107988095Y-125228352D01*
X108035714Y-125037876D01*
X108083333Y-124942638D01*
X108178571Y-124847400D01*
X108321428Y-124799780D01*
X108416666Y-124799780D01*
X108559523Y-124847400D01*
X108607142Y-124895019D01*
X109559523Y-125799780D02*
X108988095Y-125799780D01*
X109273809Y-125799780D02*
X109273809Y-124799780D01*
X109178571Y-124942638D01*
X109083333Y-125037876D01*
X108988095Y-125085495D01*
X110464285Y-124799780D02*
X109988095Y-124799780D01*
X109940476Y-125275971D01*
X109988095Y-125228352D01*
X110083333Y-125180733D01*
X110321428Y-125180733D01*
X110416666Y-125228352D01*
X110464285Y-125275971D01*
X110511904Y-125371209D01*
X110511904Y-125609304D01*
X110464285Y-125704542D01*
X110416666Y-125752161D01*
X110321428Y-125799780D01*
X110083333Y-125799780D01*
X109988095Y-125752161D01*
X109940476Y-125704542D01*
%TO.C,C11*%
X150369842Y-78999142D02*
X150322223Y-79046761D01*
X150179366Y-79094380D01*
X150084128Y-79094380D01*
X149941271Y-79046761D01*
X149846033Y-78951523D01*
X149798414Y-78856285D01*
X149750795Y-78665809D01*
X149750795Y-78522952D01*
X149798414Y-78332476D01*
X149846033Y-78237238D01*
X149941271Y-78142000D01*
X150084128Y-78094380D01*
X150179366Y-78094380D01*
X150322223Y-78142000D01*
X150369842Y-78189619D01*
X151322223Y-79094380D02*
X150750795Y-79094380D01*
X151036509Y-79094380D02*
X151036509Y-78094380D01*
X150941271Y-78237238D01*
X150846033Y-78332476D01*
X150750795Y-78380095D01*
X152274604Y-79094380D02*
X151703176Y-79094380D01*
X151988890Y-79094380D02*
X151988890Y-78094380D01*
X151893652Y-78237238D01*
X151798414Y-78332476D01*
X151703176Y-78380095D01*
%TO.C,R28*%
X94759542Y-97531180D02*
X94426209Y-97054990D01*
X94188114Y-97531180D02*
X94188114Y-96531180D01*
X94569066Y-96531180D01*
X94664304Y-96578800D01*
X94711923Y-96626419D01*
X94759542Y-96721657D01*
X94759542Y-96864514D01*
X94711923Y-96959752D01*
X94664304Y-97007371D01*
X94569066Y-97054990D01*
X94188114Y-97054990D01*
X95140495Y-96626419D02*
X95188114Y-96578800D01*
X95283352Y-96531180D01*
X95521447Y-96531180D01*
X95616685Y-96578800D01*
X95664304Y-96626419D01*
X95711923Y-96721657D01*
X95711923Y-96816895D01*
X95664304Y-96959752D01*
X95092876Y-97531180D01*
X95711923Y-97531180D01*
X96283352Y-96959752D02*
X96188114Y-96912133D01*
X96140495Y-96864514D01*
X96092876Y-96769276D01*
X96092876Y-96721657D01*
X96140495Y-96626419D01*
X96188114Y-96578800D01*
X96283352Y-96531180D01*
X96473828Y-96531180D01*
X96569066Y-96578800D01*
X96616685Y-96626419D01*
X96664304Y-96721657D01*
X96664304Y-96769276D01*
X96616685Y-96864514D01*
X96569066Y-96912133D01*
X96473828Y-96959752D01*
X96283352Y-96959752D01*
X96188114Y-97007371D01*
X96140495Y-97054990D01*
X96092876Y-97150228D01*
X96092876Y-97340704D01*
X96140495Y-97435942D01*
X96188114Y-97483561D01*
X96283352Y-97531180D01*
X96473828Y-97531180D01*
X96569066Y-97483561D01*
X96616685Y-97435942D01*
X96664304Y-97340704D01*
X96664304Y-97150228D01*
X96616685Y-97054990D01*
X96569066Y-97007371D01*
X96473828Y-96959752D01*
%TO.C,RN1*%
X187828323Y-71267580D02*
X187494990Y-70791390D01*
X187256895Y-71267580D02*
X187256895Y-70267580D01*
X187637847Y-70267580D01*
X187733085Y-70315200D01*
X187780704Y-70362819D01*
X187828323Y-70458057D01*
X187828323Y-70600914D01*
X187780704Y-70696152D01*
X187733085Y-70743771D01*
X187637847Y-70791390D01*
X187256895Y-70791390D01*
X188256895Y-71267580D02*
X188256895Y-70267580D01*
X188828323Y-71267580D01*
X188828323Y-70267580D01*
X189828323Y-71267580D02*
X189256895Y-71267580D01*
X189542609Y-71267580D02*
X189542609Y-70267580D01*
X189447371Y-70410438D01*
X189352133Y-70505676D01*
X189256895Y-70553295D01*
%TO.C,C20*%
X108577142Y-128017542D02*
X108529523Y-128065161D01*
X108386666Y-128112780D01*
X108291428Y-128112780D01*
X108148571Y-128065161D01*
X108053333Y-127969923D01*
X108005714Y-127874685D01*
X107958095Y-127684209D01*
X107958095Y-127541352D01*
X108005714Y-127350876D01*
X108053333Y-127255638D01*
X108148571Y-127160400D01*
X108291428Y-127112780D01*
X108386666Y-127112780D01*
X108529523Y-127160400D01*
X108577142Y-127208019D01*
X108958095Y-127208019D02*
X109005714Y-127160400D01*
X109100952Y-127112780D01*
X109339047Y-127112780D01*
X109434285Y-127160400D01*
X109481904Y-127208019D01*
X109529523Y-127303257D01*
X109529523Y-127398495D01*
X109481904Y-127541352D01*
X108910476Y-128112780D01*
X109529523Y-128112780D01*
X110148571Y-127112780D02*
X110243809Y-127112780D01*
X110339047Y-127160400D01*
X110386666Y-127208019D01*
X110434285Y-127303257D01*
X110481904Y-127493733D01*
X110481904Y-127731828D01*
X110434285Y-127922304D01*
X110386666Y-128017542D01*
X110339047Y-128065161D01*
X110243809Y-128112780D01*
X110148571Y-128112780D01*
X110053333Y-128065161D01*
X110005714Y-128017542D01*
X109958095Y-127922304D01*
X109910476Y-127731828D01*
X109910476Y-127493733D01*
X109958095Y-127303257D01*
X110005714Y-127208019D01*
X110053333Y-127160400D01*
X110148571Y-127112780D01*
%TO.C,R4*%
X138094980Y-127035266D02*
X137618790Y-127368600D01*
X138094980Y-127606695D02*
X137094980Y-127606695D01*
X137094980Y-127225742D01*
X137142600Y-127130504D01*
X137190219Y-127082885D01*
X137285457Y-127035266D01*
X137428314Y-127035266D01*
X137523552Y-127082885D01*
X137571171Y-127130504D01*
X137618790Y-127225742D01*
X137618790Y-127606695D01*
X137428314Y-126178123D02*
X138094980Y-126178123D01*
X137047361Y-126416219D02*
X137761647Y-126654314D01*
X137761647Y-126035266D01*
%TO.C,C24*%
X201271442Y-77166742D02*
X201223823Y-77214361D01*
X201080966Y-77261980D01*
X200985728Y-77261980D01*
X200842871Y-77214361D01*
X200747633Y-77119123D01*
X200700014Y-77023885D01*
X200652395Y-76833409D01*
X200652395Y-76690552D01*
X200700014Y-76500076D01*
X200747633Y-76404838D01*
X200842871Y-76309600D01*
X200985728Y-76261980D01*
X201080966Y-76261980D01*
X201223823Y-76309600D01*
X201271442Y-76357219D01*
X201652395Y-76357219D02*
X201700014Y-76309600D01*
X201795252Y-76261980D01*
X202033347Y-76261980D01*
X202128585Y-76309600D01*
X202176204Y-76357219D01*
X202223823Y-76452457D01*
X202223823Y-76547695D01*
X202176204Y-76690552D01*
X201604776Y-77261980D01*
X202223823Y-77261980D01*
X203080966Y-76595314D02*
X203080966Y-77261980D01*
X202842871Y-76214361D02*
X202604776Y-76928647D01*
X203223823Y-76928647D01*
%TO.C,R38*%
X86079680Y-131452857D02*
X85603490Y-131786190D01*
X86079680Y-132024285D02*
X85079680Y-132024285D01*
X85079680Y-131643333D01*
X85127300Y-131548095D01*
X85174919Y-131500476D01*
X85270157Y-131452857D01*
X85413014Y-131452857D01*
X85508252Y-131500476D01*
X85555871Y-131548095D01*
X85603490Y-131643333D01*
X85603490Y-132024285D01*
X85079680Y-131119523D02*
X85079680Y-130500476D01*
X85460633Y-130833809D01*
X85460633Y-130690952D01*
X85508252Y-130595714D01*
X85555871Y-130548095D01*
X85651109Y-130500476D01*
X85889204Y-130500476D01*
X85984442Y-130548095D01*
X86032061Y-130595714D01*
X86079680Y-130690952D01*
X86079680Y-130976666D01*
X86032061Y-131071904D01*
X85984442Y-131119523D01*
X85508252Y-129929047D02*
X85460633Y-130024285D01*
X85413014Y-130071904D01*
X85317776Y-130119523D01*
X85270157Y-130119523D01*
X85174919Y-130071904D01*
X85127300Y-130024285D01*
X85079680Y-129929047D01*
X85079680Y-129738571D01*
X85127300Y-129643333D01*
X85174919Y-129595714D01*
X85270157Y-129548095D01*
X85317776Y-129548095D01*
X85413014Y-129595714D01*
X85460633Y-129643333D01*
X85508252Y-129738571D01*
X85508252Y-129929047D01*
X85555871Y-130024285D01*
X85603490Y-130071904D01*
X85698728Y-130119523D01*
X85889204Y-130119523D01*
X85984442Y-130071904D01*
X86032061Y-130024285D01*
X86079680Y-129929047D01*
X86079680Y-129738571D01*
X86032061Y-129643333D01*
X85984442Y-129595714D01*
X85889204Y-129548095D01*
X85698728Y-129548095D01*
X85603490Y-129595714D01*
X85555871Y-129643333D01*
X85508252Y-129738571D01*
%TO.C,R23*%
X94759542Y-123489980D02*
X94426209Y-123013790D01*
X94188114Y-123489980D02*
X94188114Y-122489980D01*
X94569066Y-122489980D01*
X94664304Y-122537600D01*
X94711923Y-122585219D01*
X94759542Y-122680457D01*
X94759542Y-122823314D01*
X94711923Y-122918552D01*
X94664304Y-122966171D01*
X94569066Y-123013790D01*
X94188114Y-123013790D01*
X95140495Y-122585219D02*
X95188114Y-122537600D01*
X95283352Y-122489980D01*
X95521447Y-122489980D01*
X95616685Y-122537600D01*
X95664304Y-122585219D01*
X95711923Y-122680457D01*
X95711923Y-122775695D01*
X95664304Y-122918552D01*
X95092876Y-123489980D01*
X95711923Y-123489980D01*
X96045257Y-122489980D02*
X96664304Y-122489980D01*
X96330971Y-122870933D01*
X96473828Y-122870933D01*
X96569066Y-122918552D01*
X96616685Y-122966171D01*
X96664304Y-123061409D01*
X96664304Y-123299504D01*
X96616685Y-123394742D01*
X96569066Y-123442361D01*
X96473828Y-123489980D01*
X96188114Y-123489980D01*
X96092876Y-123442361D01*
X96045257Y-123394742D01*
%TO.C,U2*%
X135467995Y-72705980D02*
X135467995Y-73515504D01*
X135515614Y-73610742D01*
X135563233Y-73658361D01*
X135658471Y-73705980D01*
X135848947Y-73705980D01*
X135944185Y-73658361D01*
X135991804Y-73610742D01*
X136039423Y-73515504D01*
X136039423Y-72705980D01*
X136467995Y-72801219D02*
X136515614Y-72753600D01*
X136610852Y-72705980D01*
X136848947Y-72705980D01*
X136944185Y-72753600D01*
X136991804Y-72801219D01*
X137039423Y-72896457D01*
X137039423Y-72991695D01*
X136991804Y-73134552D01*
X136420376Y-73705980D01*
X137039423Y-73705980D01*
%TO.C,C2*%
X136018542Y-117205466D02*
X136066161Y-117253085D01*
X136113780Y-117395942D01*
X136113780Y-117491180D01*
X136066161Y-117634038D01*
X135970923Y-117729276D01*
X135875685Y-117776895D01*
X135685209Y-117824514D01*
X135542352Y-117824514D01*
X135351876Y-117776895D01*
X135256638Y-117729276D01*
X135161400Y-117634038D01*
X135113780Y-117491180D01*
X135113780Y-117395942D01*
X135161400Y-117253085D01*
X135209019Y-117205466D01*
X135209019Y-116824514D02*
X135161400Y-116776895D01*
X135113780Y-116681657D01*
X135113780Y-116443561D01*
X135161400Y-116348323D01*
X135209019Y-116300704D01*
X135304257Y-116253085D01*
X135399495Y-116253085D01*
X135542352Y-116300704D01*
X136113780Y-116872133D01*
X136113780Y-116253085D01*
%TO.C,D1*%
X64692304Y-127706380D02*
X64692304Y-126706380D01*
X64930400Y-126706380D01*
X65073257Y-126754000D01*
X65168495Y-126849238D01*
X65216114Y-126944476D01*
X65263733Y-127134952D01*
X65263733Y-127277809D01*
X65216114Y-127468285D01*
X65168495Y-127563523D01*
X65073257Y-127658761D01*
X64930400Y-127706380D01*
X64692304Y-127706380D01*
X66216114Y-127706380D02*
X65644685Y-127706380D01*
X65930400Y-127706380D02*
X65930400Y-126706380D01*
X65835161Y-126849238D01*
X65739923Y-126944476D01*
X65644685Y-126992095D01*
%TO.C,J11*%
X149999976Y-145235080D02*
X149999976Y-145949366D01*
X149952357Y-146092223D01*
X149857119Y-146187461D01*
X149714261Y-146235080D01*
X149619023Y-146235080D01*
X150999976Y-146235080D02*
X150428547Y-146235080D01*
X150714261Y-146235080D02*
X150714261Y-145235080D01*
X150619023Y-145377938D01*
X150523785Y-145473176D01*
X150428547Y-145520795D01*
X151952357Y-146235080D02*
X151380928Y-146235080D01*
X151666642Y-146235080D02*
X151666642Y-145235080D01*
X151571404Y-145377938D01*
X151476166Y-145473176D01*
X151380928Y-145520795D01*
%TO.C,Conn1*%
X150592680Y-93746709D02*
X150592680Y-93127661D01*
X150973633Y-93460995D01*
X150973633Y-93318138D01*
X151021252Y-93222900D01*
X151068871Y-93175280D01*
X151164109Y-93127661D01*
X151402204Y-93127661D01*
X151497442Y-93175280D01*
X151545061Y-93222900D01*
X151592680Y-93318138D01*
X151592680Y-93603852D01*
X151545061Y-93699090D01*
X151497442Y-93746709D01*
X150592680Y-92794328D02*
X150592680Y-92175280D01*
X150973633Y-92508614D01*
X150973633Y-92365757D01*
X151021252Y-92270519D01*
X151068871Y-92222900D01*
X151164109Y-92175280D01*
X151402204Y-92175280D01*
X151497442Y-92222900D01*
X151545061Y-92270519D01*
X151592680Y-92365757D01*
X151592680Y-92651471D01*
X151545061Y-92746709D01*
X151497442Y-92794328D01*
X151497442Y-91746709D02*
X151545061Y-91699090D01*
X151592680Y-91746709D01*
X151545061Y-91794328D01*
X151497442Y-91746709D01*
X151592680Y-91746709D01*
X150926014Y-90841947D02*
X151592680Y-90841947D01*
X150545061Y-91080042D02*
X151259347Y-91318138D01*
X151259347Y-90699090D01*
X83792680Y-94046709D02*
X83792680Y-93427661D01*
X84173633Y-93760995D01*
X84173633Y-93618138D01*
X84221252Y-93522900D01*
X84268871Y-93475280D01*
X84364109Y-93427661D01*
X84602204Y-93427661D01*
X84697442Y-93475280D01*
X84745061Y-93522900D01*
X84792680Y-93618138D01*
X84792680Y-93903852D01*
X84745061Y-93999090D01*
X84697442Y-94046709D01*
X83792680Y-93094328D02*
X83792680Y-92475280D01*
X84173633Y-92808614D01*
X84173633Y-92665757D01*
X84221252Y-92570519D01*
X84268871Y-92522900D01*
X84364109Y-92475280D01*
X84602204Y-92475280D01*
X84697442Y-92522900D01*
X84745061Y-92570519D01*
X84792680Y-92665757D01*
X84792680Y-92951471D01*
X84745061Y-93046709D01*
X84697442Y-93094328D01*
X84697442Y-92046709D02*
X84745061Y-91999090D01*
X84792680Y-92046709D01*
X84745061Y-92094328D01*
X84697442Y-92046709D01*
X84792680Y-92046709D01*
X84126014Y-91141947D02*
X84792680Y-91141947D01*
X83745061Y-91380042D02*
X84459347Y-91618138D01*
X84459347Y-90999090D01*
%TO.C,R37*%
X83088280Y-131452857D02*
X82612090Y-131786190D01*
X83088280Y-132024285D02*
X82088280Y-132024285D01*
X82088280Y-131643333D01*
X82135900Y-131548095D01*
X82183519Y-131500476D01*
X82278757Y-131452857D01*
X82421614Y-131452857D01*
X82516852Y-131500476D01*
X82564471Y-131548095D01*
X82612090Y-131643333D01*
X82612090Y-132024285D01*
X82088280Y-131119523D02*
X82088280Y-130500476D01*
X82469233Y-130833809D01*
X82469233Y-130690952D01*
X82516852Y-130595714D01*
X82564471Y-130548095D01*
X82659709Y-130500476D01*
X82897804Y-130500476D01*
X82993042Y-130548095D01*
X83040661Y-130595714D01*
X83088280Y-130690952D01*
X83088280Y-130976666D01*
X83040661Y-131071904D01*
X82993042Y-131119523D01*
X82088280Y-130167142D02*
X82088280Y-129500476D01*
X83088280Y-129929047D01*
%TO.C,R5*%
X136062980Y-127035266D02*
X135586790Y-127368600D01*
X136062980Y-127606695D02*
X135062980Y-127606695D01*
X135062980Y-127225742D01*
X135110600Y-127130504D01*
X135158219Y-127082885D01*
X135253457Y-127035266D01*
X135396314Y-127035266D01*
X135491552Y-127082885D01*
X135539171Y-127130504D01*
X135586790Y-127225742D01*
X135586790Y-127606695D01*
X135062980Y-126130504D02*
X135062980Y-126606695D01*
X135539171Y-126654314D01*
X135491552Y-126606695D01*
X135443933Y-126511457D01*
X135443933Y-126273361D01*
X135491552Y-126178123D01*
X135539171Y-126130504D01*
X135634409Y-126082885D01*
X135872504Y-126082885D01*
X135967742Y-126130504D01*
X136015361Y-126178123D01*
X136062980Y-126273361D01*
X136062980Y-126511457D01*
X136015361Y-126606695D01*
X135967742Y-126654314D01*
%TO.C,R24*%
X108627942Y-119222780D02*
X108294609Y-118746590D01*
X108056514Y-119222780D02*
X108056514Y-118222780D01*
X108437466Y-118222780D01*
X108532704Y-118270400D01*
X108580323Y-118318019D01*
X108627942Y-118413257D01*
X108627942Y-118556114D01*
X108580323Y-118651352D01*
X108532704Y-118698971D01*
X108437466Y-118746590D01*
X108056514Y-118746590D01*
X109008895Y-118318019D02*
X109056514Y-118270400D01*
X109151752Y-118222780D01*
X109389847Y-118222780D01*
X109485085Y-118270400D01*
X109532704Y-118318019D01*
X109580323Y-118413257D01*
X109580323Y-118508495D01*
X109532704Y-118651352D01*
X108961276Y-119222780D01*
X109580323Y-119222780D01*
X110437466Y-118556114D02*
X110437466Y-119222780D01*
X110199371Y-118175161D02*
X109961276Y-118889447D01*
X110580323Y-118889447D01*
%TO.C,C17*%
X94759542Y-127966742D02*
X94711923Y-128014361D01*
X94569066Y-128061980D01*
X94473828Y-128061980D01*
X94330971Y-128014361D01*
X94235733Y-127919123D01*
X94188114Y-127823885D01*
X94140495Y-127633409D01*
X94140495Y-127490552D01*
X94188114Y-127300076D01*
X94235733Y-127204838D01*
X94330971Y-127109600D01*
X94473828Y-127061980D01*
X94569066Y-127061980D01*
X94711923Y-127109600D01*
X94759542Y-127157219D01*
X95711923Y-128061980D02*
X95140495Y-128061980D01*
X95426209Y-128061980D02*
X95426209Y-127061980D01*
X95330971Y-127204838D01*
X95235733Y-127300076D01*
X95140495Y-127347695D01*
X96045257Y-127061980D02*
X96711923Y-127061980D01*
X96283352Y-128061980D01*
%TO.C,R3*%
X79030533Y-127706380D02*
X78697200Y-127230190D01*
X78459104Y-127706380D02*
X78459104Y-126706380D01*
X78840057Y-126706380D01*
X78935295Y-126754000D01*
X78982914Y-126801619D01*
X79030533Y-126896857D01*
X79030533Y-127039714D01*
X78982914Y-127134952D01*
X78935295Y-127182571D01*
X78840057Y-127230190D01*
X78459104Y-127230190D01*
X79363866Y-126706380D02*
X79982914Y-126706380D01*
X79649580Y-127087333D01*
X79792438Y-127087333D01*
X79887676Y-127134952D01*
X79935295Y-127182571D01*
X79982914Y-127277809D01*
X79982914Y-127515904D01*
X79935295Y-127611142D01*
X79887676Y-127658761D01*
X79792438Y-127706380D01*
X79506723Y-127706380D01*
X79411485Y-127658761D01*
X79363866Y-127611142D01*
%TO.C,D5*%
X92079580Y-145229295D02*
X91079580Y-145229295D01*
X91079580Y-144991200D01*
X91127200Y-144848342D01*
X91222438Y-144753104D01*
X91317676Y-144705485D01*
X91508152Y-144657866D01*
X91651009Y-144657866D01*
X91841485Y-144705485D01*
X91936723Y-144753104D01*
X92031961Y-144848342D01*
X92079580Y-144991200D01*
X92079580Y-145229295D01*
X91079580Y-143753104D02*
X91079580Y-144229295D01*
X91555771Y-144276914D01*
X91508152Y-144229295D01*
X91460533Y-144134057D01*
X91460533Y-143895961D01*
X91508152Y-143800723D01*
X91555771Y-143753104D01*
X91651009Y-143705485D01*
X91889104Y-143705485D01*
X91984342Y-143753104D01*
X92031961Y-143800723D01*
X92079580Y-143895961D01*
X92079580Y-144134057D01*
X92031961Y-144229295D01*
X91984342Y-144276914D01*
%TO.C,R11*%
X123566180Y-127968657D02*
X123089990Y-128301990D01*
X123566180Y-128540085D02*
X122566180Y-128540085D01*
X122566180Y-128159133D01*
X122613800Y-128063895D01*
X122661419Y-128016276D01*
X122756657Y-127968657D01*
X122899514Y-127968657D01*
X122994752Y-128016276D01*
X123042371Y-128063895D01*
X123089990Y-128159133D01*
X123089990Y-128540085D01*
X123566180Y-127016276D02*
X123566180Y-127587704D01*
X123566180Y-127301990D02*
X122566180Y-127301990D01*
X122709038Y-127397228D01*
X122804276Y-127492466D01*
X122851895Y-127587704D01*
X123566180Y-126063895D02*
X123566180Y-126635323D01*
X123566180Y-126349609D02*
X122566180Y-126349609D01*
X122709038Y-126444847D01*
X122804276Y-126540085D01*
X122851895Y-126635323D01*
%TO.C,R9*%
X127731780Y-126984466D02*
X127255590Y-127317800D01*
X127731780Y-127555895D02*
X126731780Y-127555895D01*
X126731780Y-127174942D01*
X126779400Y-127079704D01*
X126827019Y-127032085D01*
X126922257Y-126984466D01*
X127065114Y-126984466D01*
X127160352Y-127032085D01*
X127207971Y-127079704D01*
X127255590Y-127174942D01*
X127255590Y-127555895D01*
X127731780Y-126508276D02*
X127731780Y-126317800D01*
X127684161Y-126222561D01*
X127636542Y-126174942D01*
X127493685Y-126079704D01*
X127303209Y-126032085D01*
X126922257Y-126032085D01*
X126827019Y-126079704D01*
X126779400Y-126127323D01*
X126731780Y-126222561D01*
X126731780Y-126413038D01*
X126779400Y-126508276D01*
X126827019Y-126555895D01*
X126922257Y-126603514D01*
X127160352Y-126603514D01*
X127255590Y-126555895D01*
X127303209Y-126508276D01*
X127350828Y-126413038D01*
X127350828Y-126222561D01*
X127303209Y-126127323D01*
X127255590Y-126079704D01*
X127160352Y-126032085D01*
%TO.C,J13*%
X160378876Y-124979180D02*
X160378876Y-125693466D01*
X160331257Y-125836323D01*
X160236019Y-125931561D01*
X160093161Y-125979180D01*
X159997923Y-125979180D01*
X161378876Y-125979180D02*
X160807447Y-125979180D01*
X161093161Y-125979180D02*
X161093161Y-124979180D01*
X160997923Y-125122038D01*
X160902685Y-125217276D01*
X160807447Y-125264895D01*
X161712209Y-124979180D02*
X162331257Y-124979180D01*
X161997923Y-125360133D01*
X162140780Y-125360133D01*
X162236019Y-125407752D01*
X162283638Y-125455371D01*
X162331257Y-125550609D01*
X162331257Y-125788704D01*
X162283638Y-125883942D01*
X162236019Y-125931561D01*
X162140780Y-125979180D01*
X161855066Y-125979180D01*
X161759828Y-125931561D01*
X161712209Y-125883942D01*
%TO.C,C18*%
X108780342Y-111710742D02*
X108732723Y-111758361D01*
X108589866Y-111805980D01*
X108494628Y-111805980D01*
X108351771Y-111758361D01*
X108256533Y-111663123D01*
X108208914Y-111567885D01*
X108161295Y-111377409D01*
X108161295Y-111234552D01*
X108208914Y-111044076D01*
X108256533Y-110948838D01*
X108351771Y-110853600D01*
X108494628Y-110805980D01*
X108589866Y-110805980D01*
X108732723Y-110853600D01*
X108780342Y-110901219D01*
X109732723Y-111805980D02*
X109161295Y-111805980D01*
X109447009Y-111805980D02*
X109447009Y-110805980D01*
X109351771Y-110948838D01*
X109256533Y-111044076D01*
X109161295Y-111091695D01*
X110304152Y-111234552D02*
X110208914Y-111186933D01*
X110161295Y-111139314D01*
X110113676Y-111044076D01*
X110113676Y-110996457D01*
X110161295Y-110901219D01*
X110208914Y-110853600D01*
X110304152Y-110805980D01*
X110494628Y-110805980D01*
X110589866Y-110853600D01*
X110637485Y-110901219D01*
X110685104Y-110996457D01*
X110685104Y-111044076D01*
X110637485Y-111139314D01*
X110589866Y-111186933D01*
X110494628Y-111234552D01*
X110304152Y-111234552D01*
X110208914Y-111282171D01*
X110161295Y-111329790D01*
X110113676Y-111425028D01*
X110113676Y-111615504D01*
X110161295Y-111710742D01*
X110208914Y-111758361D01*
X110304152Y-111805980D01*
X110494628Y-111805980D01*
X110589866Y-111758361D01*
X110637485Y-111710742D01*
X110685104Y-111615504D01*
X110685104Y-111425028D01*
X110637485Y-111329790D01*
X110589866Y-111282171D01*
X110494628Y-111234552D01*
%TO.C,U5*%
X98348895Y-104760780D02*
X98348895Y-105570304D01*
X98396514Y-105665542D01*
X98444133Y-105713161D01*
X98539371Y-105760780D01*
X98729847Y-105760780D01*
X98825085Y-105713161D01*
X98872704Y-105665542D01*
X98920323Y-105570304D01*
X98920323Y-104760780D01*
X99872704Y-104760780D02*
X99396514Y-104760780D01*
X99348895Y-105236971D01*
X99396514Y-105189352D01*
X99491752Y-105141733D01*
X99729847Y-105141733D01*
X99825085Y-105189352D01*
X99872704Y-105236971D01*
X99920323Y-105332209D01*
X99920323Y-105570304D01*
X99872704Y-105665542D01*
X99825085Y-105713161D01*
X99729847Y-105760780D01*
X99491752Y-105760780D01*
X99396514Y-105713161D01*
X99348895Y-105665542D01*
%TO.C,C10*%
X136552242Y-78999142D02*
X136504623Y-79046761D01*
X136361766Y-79094380D01*
X136266528Y-79094380D01*
X136123671Y-79046761D01*
X136028433Y-78951523D01*
X135980814Y-78856285D01*
X135933195Y-78665809D01*
X135933195Y-78522952D01*
X135980814Y-78332476D01*
X136028433Y-78237238D01*
X136123671Y-78142000D01*
X136266528Y-78094380D01*
X136361766Y-78094380D01*
X136504623Y-78142000D01*
X136552242Y-78189619D01*
X137504623Y-79094380D02*
X136933195Y-79094380D01*
X137218909Y-79094380D02*
X137218909Y-78094380D01*
X137123671Y-78237238D01*
X137028433Y-78332476D01*
X136933195Y-78380095D01*
X138123671Y-78094380D02*
X138218909Y-78094380D01*
X138314147Y-78142000D01*
X138361766Y-78189619D01*
X138409385Y-78284857D01*
X138457004Y-78475333D01*
X138457004Y-78713428D01*
X138409385Y-78903904D01*
X138361766Y-78999142D01*
X138314147Y-79046761D01*
X138218909Y-79094380D01*
X138123671Y-79094380D01*
X138028433Y-79046761D01*
X137980814Y-78999142D01*
X137933195Y-78903904D01*
X137885576Y-78713428D01*
X137885576Y-78475333D01*
X137933195Y-78284857D01*
X137980814Y-78189619D01*
X138028433Y-78142000D01*
X138123671Y-78094380D01*
%TO.C,R15*%
X186082242Y-117698780D02*
X185748909Y-117222590D01*
X185510814Y-117698780D02*
X185510814Y-116698780D01*
X185891766Y-116698780D01*
X185987004Y-116746400D01*
X186034623Y-116794019D01*
X186082242Y-116889257D01*
X186082242Y-117032114D01*
X186034623Y-117127352D01*
X185987004Y-117174971D01*
X185891766Y-117222590D01*
X185510814Y-117222590D01*
X187034623Y-117698780D02*
X186463195Y-117698780D01*
X186748909Y-117698780D02*
X186748909Y-116698780D01*
X186653671Y-116841638D01*
X186558433Y-116936876D01*
X186463195Y-116984495D01*
X187939385Y-116698780D02*
X187463195Y-116698780D01*
X187415576Y-117174971D01*
X187463195Y-117127352D01*
X187558433Y-117079733D01*
X187796528Y-117079733D01*
X187891766Y-117127352D01*
X187939385Y-117174971D01*
X187987004Y-117270209D01*
X187987004Y-117508304D01*
X187939385Y-117603542D01*
X187891766Y-117651161D01*
X187796528Y-117698780D01*
X187558433Y-117698780D01*
X187463195Y-117651161D01*
X187415576Y-117603542D01*
%TO.C,R6*%
X133980180Y-127035266D02*
X133503990Y-127368600D01*
X133980180Y-127606695D02*
X132980180Y-127606695D01*
X132980180Y-127225742D01*
X133027800Y-127130504D01*
X133075419Y-127082885D01*
X133170657Y-127035266D01*
X133313514Y-127035266D01*
X133408752Y-127082885D01*
X133456371Y-127130504D01*
X133503990Y-127225742D01*
X133503990Y-127606695D01*
X132980180Y-126178123D02*
X132980180Y-126368600D01*
X133027800Y-126463838D01*
X133075419Y-126511457D01*
X133218276Y-126606695D01*
X133408752Y-126654314D01*
X133789704Y-126654314D01*
X133884942Y-126606695D01*
X133932561Y-126559076D01*
X133980180Y-126463838D01*
X133980180Y-126273361D01*
X133932561Y-126178123D01*
X133884942Y-126130504D01*
X133789704Y-126082885D01*
X133551609Y-126082885D01*
X133456371Y-126130504D01*
X133408752Y-126178123D01*
X133361133Y-126273361D01*
X133361133Y-126463838D01*
X133408752Y-126559076D01*
X133456371Y-126606695D01*
X133551609Y-126654314D01*
%TO.C,R21*%
X117619542Y-128265180D02*
X117286209Y-127788990D01*
X117048114Y-128265180D02*
X117048114Y-127265180D01*
X117429066Y-127265180D01*
X117524304Y-127312800D01*
X117571923Y-127360419D01*
X117619542Y-127455657D01*
X117619542Y-127598514D01*
X117571923Y-127693752D01*
X117524304Y-127741371D01*
X117429066Y-127788990D01*
X117048114Y-127788990D01*
X118000495Y-127360419D02*
X118048114Y-127312800D01*
X118143352Y-127265180D01*
X118381447Y-127265180D01*
X118476685Y-127312800D01*
X118524304Y-127360419D01*
X118571923Y-127455657D01*
X118571923Y-127550895D01*
X118524304Y-127693752D01*
X117952876Y-128265180D01*
X118571923Y-128265180D01*
X119524304Y-128265180D02*
X118952876Y-128265180D01*
X119238590Y-128265180D02*
X119238590Y-127265180D01*
X119143352Y-127408038D01*
X119048114Y-127503276D01*
X118952876Y-127550895D01*
%TO.C,U6*%
X121599595Y-72705980D02*
X121599595Y-73515504D01*
X121647214Y-73610742D01*
X121694833Y-73658361D01*
X121790071Y-73705980D01*
X121980547Y-73705980D01*
X122075785Y-73658361D01*
X122123404Y-73610742D01*
X122171023Y-73515504D01*
X122171023Y-72705980D01*
X123075785Y-72705980D02*
X122885309Y-72705980D01*
X122790071Y-72753600D01*
X122742452Y-72801219D01*
X122647214Y-72944076D01*
X122599595Y-73134552D01*
X122599595Y-73515504D01*
X122647214Y-73610742D01*
X122694833Y-73658361D01*
X122790071Y-73705980D01*
X122980547Y-73705980D01*
X123075785Y-73658361D01*
X123123404Y-73610742D01*
X123171023Y-73515504D01*
X123171023Y-73277409D01*
X123123404Y-73182171D01*
X123075785Y-73134552D01*
X122980547Y-73086933D01*
X122790071Y-73086933D01*
X122694833Y-73134552D01*
X122647214Y-73182171D01*
X122599595Y-73277409D01*
%TO.C,C14*%
X117670342Y-124014341D02*
X117622723Y-124061960D01*
X117479866Y-124109579D01*
X117384628Y-124109579D01*
X117241771Y-124061960D01*
X117146533Y-123966722D01*
X117098914Y-123871484D01*
X117051295Y-123681008D01*
X117051295Y-123538151D01*
X117098914Y-123347675D01*
X117146533Y-123252437D01*
X117241771Y-123157199D01*
X117384628Y-123109579D01*
X117479866Y-123109579D01*
X117622723Y-123157199D01*
X117670342Y-123204818D01*
X118622723Y-124109579D02*
X118051295Y-124109579D01*
X118337009Y-124109579D02*
X118337009Y-123109579D01*
X118241771Y-123252437D01*
X118146533Y-123347675D01*
X118051295Y-123395294D01*
X119479866Y-123442913D02*
X119479866Y-124109579D01*
X119241771Y-123061960D02*
X119003676Y-123776246D01*
X119622723Y-123776246D01*
D12*
%TO.C,SW4*%
X170600000Y-140629200D02*
X170600000Y-136129200D01*
X166600000Y-141879200D02*
X168100000Y-141879200D01*
X168100000Y-134879200D02*
X166600000Y-134879200D01*
X164100000Y-136129200D02*
X164100000Y-140629200D01*
%TO.C,R33*%
X79662564Y-69369000D02*
X79208436Y-69369000D01*
X79662564Y-70839000D02*
X79208436Y-70839000D01*
%TO.C,R39*%
X87927232Y-133884936D02*
X87927232Y-134339064D01*
X89397232Y-133884936D02*
X89397232Y-134339064D01*
%TO.C,R8*%
X128678000Y-124250864D02*
X128678000Y-123796736D01*
X130148000Y-124250864D02*
X130148000Y-123796736D01*
%TO.C,R40*%
X92458300Y-133884936D02*
X92458300Y-134339064D01*
X90988300Y-133884936D02*
X90988300Y-134339064D01*
%TO.C,SW3*%
X68430700Y-72009000D02*
X68430700Y-73279000D01*
X68430700Y-75029000D02*
X69637367Y-75029000D01*
X68430700Y-72969000D02*
X69637367Y-72969000D01*
X69637367Y-74549000D02*
X69637367Y-75819000D01*
X66830700Y-67994000D02*
X66830700Y-69304000D01*
X68430700Y-77689000D02*
X69637367Y-77689000D01*
X68430700Y-69469000D02*
X68430700Y-70739000D01*
X68430700Y-74549000D02*
X68430700Y-75819000D01*
X73650700Y-70904000D02*
X73650700Y-71844000D01*
X68430700Y-75269000D02*
X69637367Y-75269000D01*
X68430700Y-78289000D02*
X69637367Y-78289000D01*
X68430700Y-72369000D02*
X69637367Y-72369000D01*
X68430700Y-78169000D02*
X69637367Y-78169000D01*
X73650700Y-75984000D02*
X73650700Y-76924000D01*
X66830700Y-75984000D02*
X66830700Y-76924000D01*
X68430700Y-70309000D02*
X69637367Y-70309000D01*
X68430700Y-69709000D02*
X69637367Y-69709000D01*
X66830700Y-67994000D02*
X73650700Y-67994000D01*
X69637367Y-77089000D02*
X69637367Y-78359000D01*
X68430700Y-75629000D02*
X69637367Y-75629000D01*
X68430700Y-75389000D02*
X69637367Y-75389000D01*
X66590700Y-67754000D02*
X67973700Y-67754000D01*
X66590700Y-67754000D02*
X66590700Y-69137000D01*
X72050700Y-72009000D02*
X68430700Y-72009000D01*
X68430700Y-72489000D02*
X69637367Y-72489000D01*
X68430700Y-74789000D02*
X69637367Y-74789000D01*
X68430700Y-77929000D02*
X69637367Y-77929000D01*
X68430700Y-75819000D02*
X72050700Y-75819000D01*
X66830700Y-79834000D02*
X73650700Y-79834000D01*
X68430700Y-70739000D02*
X72050700Y-70739000D01*
X69637367Y-69469000D02*
X69637367Y-70739000D01*
X68430700Y-73209000D02*
X69637367Y-73209000D01*
X72050700Y-78359000D02*
X72050700Y-77089000D01*
X72050700Y-74549000D02*
X68430700Y-74549000D01*
X68430700Y-70189000D02*
X69637367Y-70189000D01*
X66830700Y-73444000D02*
X66830700Y-74384000D01*
X68430700Y-75509000D02*
X69637367Y-75509000D01*
X72050700Y-70739000D02*
X72050700Y-69469000D01*
X68430700Y-69589000D02*
X69637367Y-69589000D01*
X72050700Y-73279000D02*
X72050700Y-72009000D01*
X68430700Y-69949000D02*
X69637367Y-69949000D01*
X68430700Y-78359000D02*
X72050700Y-78359000D01*
X68430700Y-70669000D02*
X69637367Y-70669000D01*
X68430700Y-72729000D02*
X69637367Y-72729000D01*
X68430700Y-77329000D02*
X69637367Y-77329000D01*
X73650700Y-73444000D02*
X73650700Y-74384000D01*
X72050700Y-75819000D02*
X72050700Y-74549000D01*
X68430700Y-77569000D02*
X69637367Y-77569000D01*
X68430700Y-77809000D02*
X69637367Y-77809000D01*
X68430700Y-69829000D02*
X69637367Y-69829000D01*
X68430700Y-72129000D02*
X69637367Y-72129000D01*
X73650700Y-78524000D02*
X73650700Y-79834000D01*
X68430700Y-73279000D02*
X72050700Y-73279000D01*
X68430700Y-72609000D02*
X69637367Y-72609000D01*
X68430700Y-75749000D02*
X69637367Y-75749000D01*
X68430700Y-78049000D02*
X69637367Y-78049000D01*
X68430700Y-77449000D02*
X69637367Y-77449000D01*
X68430700Y-70549000D02*
X69637367Y-70549000D01*
X68430700Y-74909000D02*
X69637367Y-74909000D01*
X66830700Y-78524000D02*
X66830700Y-79834000D01*
X68430700Y-77209000D02*
X69637367Y-77209000D01*
X68430700Y-72249000D02*
X69637367Y-72249000D01*
X68430700Y-77089000D02*
X68430700Y-78359000D01*
X66830700Y-70904000D02*
X66830700Y-71844000D01*
X69637367Y-72009000D02*
X69637367Y-73279000D01*
X72050700Y-77089000D02*
X68430700Y-77089000D01*
X68430700Y-73089000D02*
X69637367Y-73089000D01*
X73650700Y-67994000D02*
X73650700Y-69304000D01*
X68430700Y-75149000D02*
X69637367Y-75149000D01*
X72050700Y-69469000D02*
X68430700Y-69469000D01*
X68430700Y-70069000D02*
X69637367Y-70069000D01*
X68430700Y-72849000D02*
X69637367Y-72849000D01*
X68430700Y-74669000D02*
X69637367Y-74669000D01*
X68430700Y-70429000D02*
X69637367Y-70429000D01*
%TO.C,R29*%
X91771736Y-95781800D02*
X92225864Y-95781800D01*
X91771736Y-94311800D02*
X92225864Y-94311800D01*
%TO.C,D3*%
X86530866Y-143404800D02*
X86530866Y-140544800D01*
X84610866Y-140544800D02*
X84610866Y-143404800D01*
X84610866Y-143404800D02*
X86530866Y-143404800D01*
%TO.C,C13*%
X98697148Y-124537800D02*
X99219652Y-124537800D01*
X98697148Y-126007800D02*
X99219652Y-126007800D01*
%TO.C,C16*%
X134143602Y-108075400D02*
X133621098Y-108075400D01*
X134143602Y-106605400D02*
X133621098Y-106605400D01*
%TO.C,R10*%
X124512400Y-124250864D02*
X124512400Y-123796736D01*
X125982400Y-124250864D02*
X125982400Y-123796736D01*
%TO.C,R35*%
X79764164Y-75919000D02*
X79310036Y-75919000D01*
X79764164Y-74449000D02*
X79310036Y-74449000D01*
%TO.C,D2*%
X81579800Y-140544800D02*
X81579800Y-143404800D01*
X83499800Y-143404800D02*
X83499800Y-140544800D01*
X81579800Y-143404800D02*
X83499800Y-143404800D01*
%TO.C,R7*%
X130760800Y-124250864D02*
X130760800Y-123796736D01*
X132230800Y-124250864D02*
X132230800Y-123796736D01*
%TO.C,R14*%
X170305400Y-130278136D02*
X170305400Y-130732264D01*
X168835400Y-130278136D02*
X168835400Y-130732264D01*
%TO.C,R16*%
X183196036Y-121702500D02*
X183650164Y-121702500D01*
X183196036Y-120232500D02*
X183650164Y-120232500D01*
%TO.C,C12*%
X115025451Y-122077999D02*
X113602947Y-122077999D01*
X115025451Y-120257999D02*
X113602947Y-120257999D01*
%TO.C,C6*%
X126595200Y-119825548D02*
X126595200Y-120348052D01*
X128065200Y-119825548D02*
X128065200Y-120348052D01*
%TO.C,R34*%
X79713364Y-71909000D02*
X79259236Y-71909000D01*
X79713364Y-73379000D02*
X79259236Y-73379000D01*
%TO.C,R2*%
X76528664Y-125855400D02*
X76074536Y-125855400D01*
X76528664Y-124385400D02*
X76074536Y-124385400D01*
%TO.C,C4*%
X132230800Y-119825548D02*
X132230800Y-120348052D01*
X130760800Y-119825548D02*
X130760800Y-120348052D01*
%TO.C,R31*%
X153798600Y-130689464D02*
X153798600Y-130235336D01*
X155268600Y-130689464D02*
X155268600Y-130235336D01*
%TO.C,C3*%
X134313600Y-119825548D02*
X134313600Y-120348052D01*
X132843600Y-119825548D02*
X132843600Y-120348052D01*
%TO.C,C7*%
X125982400Y-119825548D02*
X125982400Y-120348052D01*
X124512400Y-119825548D02*
X124512400Y-120348052D01*
%TO.C,R25*%
X105589336Y-121624800D02*
X106043464Y-121624800D01*
X105589336Y-120154800D02*
X106043464Y-120154800D01*
%TO.C,R27*%
X106043464Y-122251800D02*
X105589336Y-122251800D01*
X106043464Y-123721800D02*
X105589336Y-123721800D01*
%TO.C,C1*%
X138479200Y-119825548D02*
X138479200Y-120348052D01*
X137009200Y-119825548D02*
X137009200Y-120348052D01*
%TO.C,SW2*%
X174727350Y-136129200D02*
X174727350Y-140629200D01*
X178727350Y-134879200D02*
X177227350Y-134879200D01*
X181227350Y-140629200D02*
X181227350Y-136129200D01*
X177227350Y-141879200D02*
X178727350Y-141879200D01*
%TO.C,J2*%
X143083700Y-51552800D02*
X194003700Y-51552800D01*
X145683700Y-56752800D02*
X194003700Y-56752800D01*
X145683700Y-54152800D02*
X143083700Y-54152800D01*
X194003700Y-56752800D02*
X194003700Y-51552800D01*
X144413700Y-56752800D02*
X143083700Y-56752800D01*
X145683700Y-56752800D02*
X145683700Y-54152800D01*
X143083700Y-56752800D02*
X143083700Y-55422800D01*
X143083700Y-54152800D02*
X143083700Y-51552800D01*
%TO.C,J10*%
X116337200Y-146760400D02*
X114437200Y-146760400D01*
X113467200Y-132520400D02*
X116337200Y-132520400D01*
X116337200Y-132520400D02*
X116337200Y-146760400D01*
X108197200Y-146760400D02*
X107897200Y-146760400D01*
X114437200Y-150760400D02*
X108197200Y-150760400D01*
X114437200Y-146760400D02*
X114437200Y-150760400D01*
X107897200Y-132520400D02*
X111217200Y-132520400D01*
X108197200Y-150760400D02*
X108197200Y-146760400D01*
X107897200Y-146760400D02*
X107897200Y-132520400D01*
%TO.C,C19*%
X123638752Y-77697000D02*
X123116248Y-77697000D01*
X123638752Y-76227000D02*
X123116248Y-76227000D01*
%TO.C,C8*%
X123899600Y-119825548D02*
X123899600Y-120348052D01*
X122429600Y-119825548D02*
X122429600Y-120348052D01*
%TO.C,C23*%
X125240148Y-131226300D02*
X125762652Y-131226300D01*
X125240148Y-132696300D02*
X125762652Y-132696300D01*
%TO.C,Q3*%
X114488400Y-98856800D02*
X114488400Y-99506800D01*
X114488400Y-98856800D02*
X114488400Y-97181800D01*
X111368400Y-98856800D02*
X111368400Y-98206800D01*
X111368400Y-98856800D02*
X111368400Y-99506800D01*
%TO.C,J7*%
X121549000Y-144568600D02*
X121549000Y-146668600D01*
X122459000Y-135518600D02*
X124259000Y-135518600D01*
X121549000Y-139068600D02*
X121549000Y-141868600D01*
X136769000Y-139068600D02*
X136769000Y-141868600D01*
X134059000Y-135518600D02*
X135859000Y-135518600D01*
X134059000Y-134768600D02*
X134059000Y-135518600D01*
X136769000Y-144568600D02*
X136769000Y-146668600D01*
%TO.C,R20*%
X99134664Y-121639000D02*
X98680536Y-121639000D01*
X99134664Y-120169000D02*
X98680536Y-120169000D01*
D10*
%TO.C,J9*%
X206270000Y-125813200D02*
X191570000Y-125813200D01*
X206270000Y-110813200D02*
X206270000Y-125813200D01*
X191570000Y-125813200D02*
X191570000Y-110813200D01*
X191570000Y-110813200D02*
X206270000Y-110813200D01*
X202070000Y-115263200D02*
G75*
G03*
X202070000Y-115263200I-500000J0D01*
G01*
X202070000Y-123243200D02*
G75*
G03*
X202070000Y-123243200I-500000J0D01*
G01*
D12*
%TO.C,C9*%
X188291800Y-130142348D02*
X188291800Y-130664852D01*
X189761800Y-130142348D02*
X189761800Y-130664852D01*
%TO.C,R36*%
X79764164Y-76989000D02*
X79310036Y-76989000D01*
X79764164Y-78459000D02*
X79310036Y-78459000D01*
%TO.C,J8*%
X171925166Y-116535199D02*
X171925166Y-124215199D01*
X173255166Y-113935199D02*
X174585166Y-113935199D01*
X171925166Y-116535199D02*
X174585166Y-116535199D01*
X174585166Y-113935199D02*
X174585166Y-115265199D01*
X174585166Y-116535199D02*
X174585166Y-124215199D01*
X171925166Y-124215199D02*
X174585166Y-124215199D01*
%TO.C,R17*%
X183196036Y-115949400D02*
X183650164Y-115949400D01*
X183196036Y-114479400D02*
X183650164Y-114479400D01*
%TO.C,R26*%
X91771736Y-98477400D02*
X92225864Y-98477400D01*
X91771736Y-99947400D02*
X92225864Y-99947400D01*
%TO.C,Q4*%
X111368400Y-103276400D02*
X111368400Y-102626400D01*
X111368400Y-103276400D02*
X111368400Y-103926400D01*
X114488400Y-103276400D02*
X114488400Y-101601400D01*
X114488400Y-103276400D02*
X114488400Y-103926400D01*
%TO.C,SW1*%
X189354700Y-134879200D02*
X187854700Y-134879200D01*
X187854700Y-141879200D02*
X189354700Y-141879200D01*
X191854700Y-140629200D02*
X191854700Y-136129200D01*
X185354700Y-136129200D02*
X185354700Y-140629200D01*
%TO.C,G1*%
G36*
X164660160Y-104891646D02*
G01*
X164751684Y-105181383D01*
X164756369Y-105296165D01*
X164711211Y-105644036D01*
X164569962Y-105761416D01*
X164561571Y-105761610D01*
X164325235Y-105649866D01*
X164180372Y-105394037D01*
X164180118Y-105113228D01*
X164231486Y-105021696D01*
X164476077Y-104832830D01*
X164660160Y-104891646D01*
G37*
G36*
X164832998Y-91866337D02*
G01*
X164605248Y-91841177D01*
X164213056Y-91657759D01*
X163857179Y-91321132D01*
X163616747Y-90921350D01*
X163559510Y-90651086D01*
X163583294Y-90538813D01*
X164167583Y-90538813D01*
X164250876Y-90780277D01*
X164489208Y-90977155D01*
X164827441Y-91097816D01*
X165210438Y-91110626D01*
X165548130Y-91003642D01*
X165779536Y-90755647D01*
X165791429Y-90438700D01*
X165660662Y-90229045D01*
X165382931Y-90103882D01*
X164980983Y-90075262D01*
X164576453Y-90138258D01*
X164294465Y-90284397D01*
X164167583Y-90538813D01*
X163583294Y-90538813D01*
X163673983Y-90110707D01*
X163979377Y-89688683D01*
X164418655Y-89407161D01*
X164934781Y-89288286D01*
X165470716Y-89354205D01*
X165969425Y-89627065D01*
X166038789Y-89688426D01*
X166270737Y-90067683D01*
X166357029Y-90563917D01*
X166290438Y-91066999D01*
X166148783Y-91364549D01*
X165826272Y-91631732D01*
X165351666Y-91810115D01*
X165210438Y-91825424D01*
X164832998Y-91866337D01*
G37*
G36*
X165488663Y-97990023D02*
G01*
X165761429Y-98207944D01*
X165820243Y-98447474D01*
X165731521Y-98726705D01*
X165660662Y-98819830D01*
X165375119Y-98959930D01*
X164990693Y-98978535D01*
X164592860Y-98895929D01*
X164267096Y-98732392D01*
X164098879Y-98508209D01*
X164091447Y-98447474D01*
X164210759Y-98205458D01*
X164514023Y-98013242D01*
X164919231Y-97918566D01*
X165005239Y-97915537D01*
X165488663Y-97990023D01*
G37*
G36*
X165823051Y-94172024D02*
G01*
X166149103Y-94502649D01*
X166323803Y-95038165D01*
X166352180Y-95443672D01*
X166307120Y-95955192D01*
X166187999Y-96349818D01*
X166145163Y-96423120D01*
X165903924Y-96628664D01*
X165601857Y-96723530D01*
X165327054Y-96702278D01*
X165167609Y-96559470D01*
X165155321Y-96484244D01*
X165265078Y-96254985D01*
X165454536Y-96118537D01*
X165690316Y-95911187D01*
X165800541Y-95602865D01*
X165797065Y-95266013D01*
X165691740Y-94973073D01*
X165496420Y-94796486D01*
X165239150Y-94802155D01*
X165074450Y-94967676D01*
X164889395Y-95300407D01*
X164790096Y-95545523D01*
X164532940Y-96143189D01*
X164248367Y-96512027D01*
X163899466Y-96689009D01*
X163618867Y-96718678D01*
X163267806Y-96670852D01*
X163024861Y-96479744D01*
X162893131Y-96286479D01*
X162662496Y-95663980D01*
X162680348Y-94990894D01*
X162843249Y-94511289D01*
X163041239Y-94194835D01*
X163282845Y-94070655D01*
X163441678Y-94058993D01*
X163719753Y-94098215D01*
X163818255Y-94262433D01*
X163825478Y-94391453D01*
X163760067Y-94655409D01*
X163575013Y-94723914D01*
X163365985Y-94838519D01*
X163247257Y-95126564D01*
X163241001Y-95504392D01*
X163303622Y-95747811D01*
X163482671Y-96022780D01*
X163698300Y-96051905D01*
X163927112Y-95848462D01*
X164145709Y-95425725D01*
X164214671Y-95230914D01*
X164499894Y-94591130D01*
X164864654Y-94202180D01*
X165313047Y-94059853D01*
X165354798Y-94058993D01*
X165823051Y-94172024D01*
G37*
G36*
X164029246Y-86528830D02*
G01*
X163744904Y-86185688D01*
X163589335Y-85651085D01*
X163610529Y-85505397D01*
X164193982Y-85505397D01*
X164235033Y-85782777D01*
X164300686Y-85871223D01*
X164550372Y-86057453D01*
X164698045Y-86003082D01*
X164754906Y-85701798D01*
X164756369Y-85614490D01*
X164711211Y-85266619D01*
X164569962Y-85149240D01*
X164561571Y-85149045D01*
X164316320Y-85256806D01*
X164193982Y-85505397D01*
X163610529Y-85505397D01*
X163660484Y-85161995D01*
X163927933Y-84771526D01*
X164361265Y-84532785D01*
X164719466Y-84484123D01*
X165155321Y-84484123D01*
X165155321Y-85282029D01*
X165173506Y-85757851D01*
X165234254Y-86010250D01*
X165338515Y-86079935D01*
X165618750Y-85965573D01*
X165771253Y-85652427D01*
X165774845Y-85185404D01*
X165771295Y-85162298D01*
X165742482Y-84793115D01*
X165818869Y-84608054D01*
X165885369Y-84569541D01*
X166099860Y-84595410D01*
X166253403Y-84815907D01*
X166340393Y-85165510D01*
X166355224Y-85578702D01*
X166292291Y-85989961D01*
X166145986Y-86333767D01*
X166046572Y-86453661D01*
X165577343Y-86740875D01*
X165034385Y-86843281D01*
X164550372Y-86777448D01*
X164493190Y-86769670D01*
X164029246Y-86528830D01*
G37*
G36*
X164030781Y-107977131D02*
G01*
X164271917Y-108248719D01*
X164357416Y-108646190D01*
X164324395Y-108843671D01*
X164176535Y-108932134D01*
X163840640Y-108953203D01*
X163817451Y-108953233D01*
X163277486Y-108953233D01*
X163318760Y-108454542D01*
X163377711Y-108112976D01*
X163514879Y-107954872D01*
X163685043Y-107909976D01*
X164030781Y-107977131D01*
G37*
G36*
X166271006Y-92117584D02*
G01*
X166344391Y-92324661D01*
X166352180Y-92520174D01*
X166293296Y-92895518D01*
X166150832Y-93177167D01*
X166143205Y-93185096D01*
X165908686Y-93312663D01*
X165495949Y-93379107D01*
X165012838Y-93394071D01*
X164514724Y-93404994D01*
X164230402Y-93445569D01*
X164108302Y-93527506D01*
X164091447Y-93603298D01*
X163995161Y-93759962D01*
X163858725Y-93761631D01*
X163678278Y-93645827D01*
X163659248Y-93552403D01*
X163572706Y-93432887D01*
X163360033Y-93394071D01*
X163122433Y-93351133D01*
X163035512Y-93168607D01*
X163027573Y-92995118D01*
X163062580Y-92710753D01*
X163215022Y-92606443D01*
X163374261Y-92596165D01*
X163621346Y-92553991D01*
X163649192Y-92409857D01*
X163644404Y-92396689D01*
X163661292Y-92242013D01*
X163891971Y-92197212D01*
X164125285Y-92244137D01*
X164139538Y-92396689D01*
X164141111Y-92505002D01*
X164281899Y-92566280D01*
X164609681Y-92592405D01*
X164941617Y-92596165D01*
X165414057Y-92588136D01*
X165679074Y-92552274D01*
X165795016Y-92470914D01*
X165820243Y-92330197D01*
X165914277Y-92107939D01*
X166086211Y-92064228D01*
X166271006Y-92117584D01*
G37*
G36*
X161564746Y-83952186D02*
G01*
X167549039Y-83952186D01*
X167549039Y-110815013D01*
X161564746Y-110815013D01*
X161564746Y-97383600D01*
X161963698Y-97383600D01*
X161965053Y-99838170D01*
X161969104Y-102041146D01*
X161975837Y-103990932D01*
X161985235Y-105685931D01*
X161997282Y-107124549D01*
X162011961Y-108305189D01*
X162029257Y-109226256D01*
X162049152Y-109886154D01*
X162071631Y-110283287D01*
X162096677Y-110416061D01*
X162096683Y-110416061D01*
X162130314Y-110283796D01*
X162159199Y-109889797D01*
X162183253Y-109238260D01*
X162183565Y-109223500D01*
X162750321Y-109223500D01*
X162783286Y-109677151D01*
X162850043Y-110008206D01*
X162950510Y-110149056D01*
X162961081Y-110150092D01*
X163137387Y-110043642D01*
X163160557Y-109950616D01*
X163281562Y-109851102D01*
X163599956Y-109781166D01*
X164048813Y-109740808D01*
X164561201Y-109730028D01*
X165070194Y-109748825D01*
X165508863Y-109797201D01*
X165810277Y-109875154D01*
X165905137Y-109950616D01*
X166072576Y-110127355D01*
X166166931Y-110150092D01*
X166276942Y-110073631D01*
X166335430Y-109816189D01*
X166352180Y-109352186D01*
X166334428Y-108878348D01*
X166274658Y-108626426D01*
X166166931Y-108554281D01*
X165961635Y-108661549D01*
X165905137Y-108753757D01*
X165711842Y-108904706D01*
X165350944Y-108953233D01*
X165039546Y-108937939D01*
X164914055Y-108839440D01*
X164904996Y-108578812D01*
X164914571Y-108457506D01*
X164958526Y-108148160D01*
X165074042Y-107986457D01*
X165338379Y-107899371D01*
X165544630Y-107861982D01*
X166007221Y-107740337D01*
X166257313Y-107542424D01*
X166346818Y-107220730D01*
X166350144Y-107124699D01*
X166264204Y-106889930D01*
X166073237Y-106823405D01*
X165886735Y-106958469D01*
X165702547Y-107063198D01*
X165494666Y-107091453D01*
X165162621Y-107174152D01*
X165048767Y-107240575D01*
X164876552Y-107341047D01*
X164651165Y-107502166D01*
X164481398Y-107504398D01*
X164237599Y-107346117D01*
X164219593Y-107332817D01*
X163783950Y-107155284D01*
X163344525Y-107216902D01*
X162979931Y-107505061D01*
X162957978Y-107535191D01*
X162854976Y-107803101D01*
X162786086Y-108218863D01*
X162751227Y-108714867D01*
X162750321Y-109223500D01*
X162183565Y-109223500D01*
X162202394Y-108333377D01*
X162216539Y-107179342D01*
X162225604Y-105780351D01*
X162226213Y-105524542D01*
X163629633Y-105524542D01*
X163732658Y-105829053D01*
X164052777Y-106220116D01*
X164517347Y-106456777D01*
X165048767Y-106531034D01*
X165569435Y-106434883D01*
X166001751Y-106160321D01*
X166080449Y-106071192D01*
X166275372Y-105656369D01*
X166356206Y-105127741D01*
X166306619Y-104618854D01*
X166271460Y-104509136D01*
X166085629Y-104328691D01*
X165951654Y-104298783D01*
X165802184Y-104339300D01*
X165755339Y-104506803D01*
X165783744Y-104829448D01*
X165777603Y-105310823D01*
X165627008Y-105636097D01*
X165352923Y-105761378D01*
X165338515Y-105761610D01*
X165229269Y-105682405D01*
X165171321Y-105417817D01*
X165155321Y-104963705D01*
X165155321Y-104165799D01*
X164714952Y-104165799D01*
X164210461Y-104279688D01*
X163891971Y-104539239D01*
X163838600Y-104582733D01*
X163633585Y-105016996D01*
X163629633Y-105524542D01*
X162226213Y-105524542D01*
X162229508Y-104140597D01*
X162229667Y-103700354D01*
X162229667Y-103101924D01*
X163027573Y-103101924D01*
X163063355Y-103387045D01*
X163215459Y-103491350D01*
X163360033Y-103500877D01*
X163627424Y-103570240D01*
X163692494Y-103700354D01*
X163798944Y-103876660D01*
X163891971Y-103899830D01*
X164068449Y-103801089D01*
X164091447Y-103715361D01*
X164176056Y-103605020D01*
X164453283Y-103530255D01*
X164958229Y-103482002D01*
X165006026Y-103479213D01*
X165636436Y-103412477D01*
X166043830Y-103280609D01*
X166268192Y-103058093D01*
X166349506Y-102719416D01*
X166352180Y-102620196D01*
X166320016Y-102306286D01*
X166195726Y-102183106D01*
X166086211Y-102171034D01*
X165863954Y-102265069D01*
X165820243Y-102437003D01*
X165793302Y-102580941D01*
X165673300Y-102661190D01*
X165401467Y-102695833D01*
X164955845Y-102702972D01*
X164470991Y-102689654D01*
X164201508Y-102642069D01*
X164097777Y-102548766D01*
X164091447Y-102503495D01*
X163984998Y-102327189D01*
X163891971Y-102304019D01*
X163715664Y-102410468D01*
X163692494Y-102503495D01*
X163576891Y-102663929D01*
X163360033Y-102702972D01*
X163122433Y-102745910D01*
X163035512Y-102928436D01*
X163027573Y-103101924D01*
X162229667Y-103101924D01*
X162229667Y-99973236D01*
X163585231Y-99973236D01*
X163585370Y-100134745D01*
X163701363Y-100413718D01*
X163722052Y-100450824D01*
X163838392Y-100709206D01*
X163833750Y-100837951D01*
X163819293Y-100841192D01*
X163739887Y-100959184D01*
X163695725Y-101253939D01*
X163692494Y-101373129D01*
X163725433Y-101743001D01*
X163834623Y-101895412D01*
X163891971Y-101905066D01*
X164068277Y-101798616D01*
X164091447Y-101705589D01*
X164149541Y-101593259D01*
X164356949Y-101531061D01*
X164763359Y-101507424D01*
X164947997Y-101506113D01*
X165401954Y-101525323D01*
X165742282Y-101575461D01*
X165886735Y-101639097D01*
X166079147Y-101761460D01*
X166160552Y-101772082D01*
X166282663Y-101692139D01*
X166341672Y-101423182D01*
X166352180Y-101107160D01*
X166329141Y-100683452D01*
X166251628Y-100478700D01*
X166160552Y-100442239D01*
X165934140Y-100523286D01*
X165886735Y-100575223D01*
X165717852Y-100649311D01*
X165371637Y-100697588D01*
X165083515Y-100708207D01*
X164960023Y-100704751D01*
X164661937Y-100696410D01*
X164432534Y-100641042D01*
X164321857Y-100512142D01*
X164280237Y-100380512D01*
X164130661Y-100122011D01*
X163889493Y-99952959D01*
X163654076Y-99930400D01*
X163585231Y-99973236D01*
X162229667Y-99973236D01*
X162229667Y-98306594D01*
X163610071Y-98306594D01*
X163645562Y-98845923D01*
X163692268Y-98978864D01*
X163986413Y-99373574D01*
X164434589Y-99626377D01*
X164960023Y-99727538D01*
X165485943Y-99667323D01*
X165935576Y-99435998D01*
X166085684Y-99282338D01*
X166294793Y-98834074D01*
X166342365Y-98303788D01*
X166223570Y-97813827D01*
X166148783Y-97684327D01*
X165817670Y-97409549D01*
X165335587Y-97236565D01*
X164808657Y-97199031D01*
X164673155Y-97216362D01*
X164159744Y-97427349D01*
X163793424Y-97812248D01*
X163610071Y-98306594D01*
X162229667Y-98306594D01*
X162229667Y-96984647D01*
X166884117Y-96984647D01*
X166884117Y-103700354D01*
X166886736Y-105398751D01*
X166894538Y-106857418D01*
X166907440Y-108072161D01*
X166925358Y-109038786D01*
X166948211Y-109753098D01*
X166975913Y-110210904D01*
X167008384Y-110408009D01*
X167017102Y-110416061D01*
X167042148Y-110283348D01*
X167064628Y-109886276D01*
X167084523Y-109226438D01*
X167101819Y-108305431D01*
X167116499Y-107124850D01*
X167128546Y-105686292D01*
X167137945Y-103991351D01*
X167144679Y-102041624D01*
X167148731Y-99838706D01*
X167150086Y-97384193D01*
X167150086Y-84351139D01*
X161963698Y-84351139D01*
X161963698Y-97383600D01*
X161564746Y-97383600D01*
X161564746Y-83952186D01*
G37*
G36*
X164094211Y-87132590D02*
G01*
X164244358Y-87409778D01*
X164345743Y-87642628D01*
X164492746Y-87761177D01*
X164766272Y-87803700D01*
X165087611Y-87808731D01*
X165558299Y-87780535D01*
X165809451Y-87688943D01*
X165868334Y-87609254D01*
X166046057Y-87432348D01*
X166148530Y-87409778D01*
X166270686Y-87471737D01*
X166333735Y-87692300D01*
X166352165Y-88123493D01*
X166352180Y-88141192D01*
X166340636Y-88563874D01*
X166290723Y-88784068D01*
X166179521Y-88864804D01*
X166086211Y-88872605D01*
X165870116Y-88816915D01*
X165820243Y-88739621D01*
X165698111Y-88670129D01*
X165374578Y-88622550D01*
X164955845Y-88606637D01*
X164475787Y-88618839D01*
X164208450Y-88663916D01*
X164101354Y-88754570D01*
X164091447Y-88815864D01*
X163991742Y-88975644D01*
X163869750Y-88982094D01*
X163705945Y-88851702D01*
X163648701Y-88518148D01*
X163648110Y-88463569D01*
X163669014Y-88110176D01*
X163720066Y-87874077D01*
X163728048Y-87858791D01*
X163735451Y-87648239D01*
X163685756Y-87536413D01*
X163567296Y-87228839D01*
X163661412Y-87046865D01*
X163832396Y-87010825D01*
X164094211Y-87132590D01*
G37*
%TO.C,R32*%
X152728600Y-130689464D02*
X152728600Y-130235336D01*
X151258600Y-130689464D02*
X151258600Y-130235336D01*
%TO.C,J5*%
X70592000Y-112141400D02*
X67992000Y-112141400D01*
X67992000Y-114741400D02*
X67992000Y-113411400D01*
X73192000Y-99381400D02*
X67992000Y-99381400D01*
X70592000Y-114741400D02*
X70592000Y-112141400D01*
X73192000Y-114741400D02*
X73192000Y-99381400D01*
X73192000Y-114741400D02*
X70592000Y-114741400D01*
X67992000Y-112141400D02*
X67992000Y-99381400D01*
X69322000Y-114741400D02*
X67992000Y-114741400D01*
%TO.C,R18*%
X183196036Y-113815800D02*
X183650164Y-113815800D01*
X183196036Y-112345800D02*
X183650164Y-112345800D01*
%TO.C,R19*%
X183211736Y-122404200D02*
X183665864Y-122404200D01*
X183211736Y-123874200D02*
X183665864Y-123874200D01*
%TO.C,R1*%
X76528664Y-128703400D02*
X76074536Y-128703400D01*
X76528664Y-130173400D02*
X76074536Y-130173400D01*
%TO.C,U3*%
X141460700Y-70493600D02*
X141735700Y-70493600D01*
X148605700Y-70493600D02*
X148605700Y-68803600D01*
X148880700Y-73253600D02*
X148880700Y-70493600D01*
X141460700Y-76013600D02*
X141735700Y-76013600D01*
X141460700Y-73253600D02*
X141460700Y-70493600D01*
X141460700Y-73253600D02*
X141460700Y-76013600D01*
X148880700Y-73253600D02*
X148880700Y-76013600D01*
X148880700Y-76013600D02*
X148605700Y-76013600D01*
X148880700Y-70493600D02*
X148605700Y-70493600D01*
%TO.C,J6*%
X97783200Y-146760400D02*
X97483200Y-146760400D01*
X105923200Y-146760400D02*
X104023200Y-146760400D01*
X105923200Y-132520400D02*
X105923200Y-146760400D01*
X104023200Y-146760400D02*
X104023200Y-150760400D01*
X104023200Y-150760400D02*
X97783200Y-150760400D01*
X103053200Y-132520400D02*
X105923200Y-132520400D01*
X97483200Y-146760400D02*
X97483200Y-132520400D01*
X97783200Y-150760400D02*
X97783200Y-146760400D01*
X97483200Y-132520400D02*
X100803200Y-132520400D01*
%TO.C,D4*%
X87641932Y-140544800D02*
X87641932Y-143404800D01*
X87641932Y-143404800D02*
X89561932Y-143404800D01*
X89561932Y-143404800D02*
X89561932Y-140544800D01*
%TO.C,U4*%
X124025550Y-103632000D02*
X124025550Y-100872000D01*
X131445550Y-103632000D02*
X131445550Y-106392000D01*
X124025550Y-100872000D02*
X124300550Y-100872000D01*
X131445550Y-106392000D02*
X131170550Y-106392000D01*
X131445550Y-100872000D02*
X131170550Y-100872000D01*
X124025550Y-106392000D02*
X124300550Y-106392000D01*
X131445550Y-103632000D02*
X131445550Y-100872000D01*
X124025550Y-103632000D02*
X124025550Y-106392000D01*
X131170550Y-100872000D02*
X131170550Y-99182000D01*
D13*
%TO.C,U1*%
X200055900Y-82490800D02*
X200055900Y-100490800D01*
D10*
X200110900Y-100507800D02*
X206079900Y-100507800D01*
D13*
X174525900Y-100490800D02*
X174525900Y-82490800D01*
D10*
X200110900Y-82473800D02*
X206079900Y-82473800D01*
X206079900Y-100507800D02*
X206079900Y-82473800D01*
D13*
X200055900Y-100490800D02*
X174525900Y-100490800D01*
X174525900Y-82490800D02*
X200055900Y-82490800D01*
D12*
%TO.C,C21*%
X140841400Y-124285052D02*
X140841400Y-123762548D01*
X139371400Y-124285052D02*
X139371400Y-123762548D01*
%TO.C,R30*%
X180906900Y-130227336D02*
X180906900Y-130681464D01*
X179436900Y-130227336D02*
X179436900Y-130681464D01*
%TO.C,R13*%
X98680536Y-118035400D02*
X99134664Y-118035400D01*
X98680536Y-119505400D02*
X99134664Y-119505400D01*
%TO.C,Q5*%
X111368400Y-107696000D02*
X111368400Y-107046000D01*
X114488400Y-107696000D02*
X114488400Y-106021000D01*
X114488400Y-107696000D02*
X114488400Y-108346000D01*
X111368400Y-107696000D02*
X111368400Y-108346000D01*
%TO.C,C5*%
X128678000Y-119825548D02*
X128678000Y-120348052D01*
X130148000Y-119825548D02*
X130148000Y-120348052D01*
%TO.C,R12*%
X185701000Y-130227336D02*
X185701000Y-130681464D01*
X187171000Y-130227336D02*
X187171000Y-130681464D01*
%TO.C,R22*%
X115101864Y-126576599D02*
X114647736Y-126576599D01*
X115101864Y-125106599D02*
X114647736Y-125106599D01*
%TO.C,C15*%
X106026852Y-124487000D02*
X105504348Y-124487000D01*
X106026852Y-125957000D02*
X105504348Y-125957000D01*
D10*
%TO.C,J12*%
X202924000Y-64780000D02*
X201124000Y-64780000D01*
X201124000Y-64780000D02*
X201124000Y-65380000D01*
X201124000Y-72380000D02*
X201124000Y-71780000D01*
X200624000Y-69580000D02*
X200624000Y-70280000D01*
X202724000Y-72380000D02*
X201124000Y-72380000D01*
X200624000Y-70280000D02*
X201124000Y-70280000D01*
D12*
%TO.C,C11*%
X151273952Y-76227000D02*
X150751448Y-76227000D01*
X151273952Y-77697000D02*
X150751448Y-77697000D01*
%TO.C,R28*%
X91771736Y-97864600D02*
X92225864Y-97864600D01*
X91771736Y-96394600D02*
X92225864Y-96394600D01*
%TO.C,RN1*%
X183758600Y-72113600D02*
X183758600Y-69313600D01*
X163268600Y-69313600D02*
X163268600Y-72113600D01*
X186468600Y-69313600D02*
X163268600Y-69313600D01*
X186468600Y-72113600D02*
X186468600Y-69313600D01*
X163268600Y-72113600D02*
X186468600Y-72113600D01*
%TO.C,C20*%
X104495548Y-128519600D02*
X105918052Y-128519600D01*
X104495548Y-126699600D02*
X105918052Y-126699600D01*
%TO.C,R4*%
X138479200Y-124250864D02*
X138479200Y-123796736D01*
X137009200Y-124250864D02*
X137009200Y-123796736D01*
%TO.C,C24*%
X198721152Y-77493800D02*
X198198648Y-77493800D01*
X198721152Y-76023800D02*
X198198648Y-76023800D01*
%TO.C,R38*%
X84866166Y-133884936D02*
X84866166Y-134339064D01*
X86336166Y-133884936D02*
X86336166Y-134339064D01*
%TO.C,R23*%
X98680536Y-123772600D02*
X99134664Y-123772600D01*
X98680536Y-122302600D02*
X99134664Y-122302600D01*
%TO.C,U2*%
X135063100Y-76013600D02*
X134788100Y-76013600D01*
X135063100Y-70493600D02*
X134788100Y-70493600D01*
X127643100Y-73253600D02*
X127643100Y-70493600D01*
X127643100Y-73253600D02*
X127643100Y-76013600D01*
X134788100Y-70493600D02*
X134788100Y-68803600D01*
X135063100Y-73253600D02*
X135063100Y-76013600D01*
X127643100Y-70493600D02*
X127918100Y-70493600D01*
X127643100Y-76013600D02*
X127918100Y-76013600D01*
X135063100Y-73253600D02*
X135063100Y-70493600D01*
%TO.C,C2*%
X136396400Y-119825548D02*
X136396400Y-120348052D01*
X134926400Y-119825548D02*
X134926400Y-120348052D01*
%TO.C,D1*%
X67998200Y-129811000D02*
X68463200Y-129811000D01*
X70623200Y-129811000D02*
X71088200Y-129811000D01*
X70623200Y-129505684D02*
G75*
G03*
X70623629Y-124996521I-1080000J2254684D01*
G01*
X68462771Y-124996521D02*
G75*
G03*
X68463200Y-129505684I1080429J-2254479D01*
G01*
X68462373Y-124463185D02*
G75*
G03*
X67998370Y-129811000I1080827J-2787815D01*
G01*
X71088030Y-129811000D02*
G75*
G03*
X70624027Y-124463185I-1544830J2560000D01*
G01*
D10*
%TO.C,J11*%
X143809500Y-134232700D02*
X143809500Y-146732700D01*
X157809500Y-144832700D02*
X143809500Y-144832700D01*
X143809500Y-146732700D02*
X157809500Y-146732700D01*
X157809500Y-146732700D02*
X157809500Y-134232700D01*
X157809500Y-134232700D02*
X143809500Y-134232700D01*
%TO.C,Conn1*%
X153340300Y-91922900D02*
X153340300Y-109422900D01*
X153240300Y-82922900D02*
X152240300Y-82922900D01*
X152240300Y-82922900D02*
X150240300Y-82922900D01*
X153340300Y-82922900D02*
X153340300Y-91922900D01*
X82340300Y-91922900D02*
X82340300Y-82922900D01*
X83340300Y-82922900D02*
X85340300Y-82922900D01*
X82340300Y-91922900D02*
X82340300Y-109422900D01*
X82340300Y-82922900D02*
X83340300Y-82922900D01*
D12*
%TO.C,R37*%
X83275100Y-133884936D02*
X83275100Y-134339064D01*
X81805100Y-133884936D02*
X81805100Y-134339064D01*
%TO.C,R5*%
X136396400Y-124250864D02*
X136396400Y-123796736D01*
X134926400Y-124250864D02*
X134926400Y-123796736D01*
%TO.C,R24*%
X106043464Y-117984600D02*
X105589336Y-117984600D01*
X106043464Y-119454600D02*
X105589336Y-119454600D01*
%TO.C,C17*%
X100279252Y-126699600D02*
X98856748Y-126699600D01*
X100279252Y-128519600D02*
X98856748Y-128519600D01*
%TO.C,R3*%
X76528664Y-127989000D02*
X76074536Y-127989000D01*
X76528664Y-126519000D02*
X76074536Y-126519000D01*
%TO.C,J1*%
X73237900Y-56752800D02*
X71907900Y-56752800D01*
X135527900Y-56752800D02*
X135527900Y-51552800D01*
X71907900Y-56752800D02*
X71907900Y-55422800D01*
X71907900Y-54152800D02*
X71907900Y-51552800D01*
X74507900Y-54152800D02*
X71907900Y-54152800D01*
X71907900Y-51552800D02*
X135527900Y-51552800D01*
X74507900Y-56752800D02*
X135527900Y-56752800D01*
X74507900Y-56752800D02*
X74507900Y-54152800D01*
%TO.C,D5*%
X92593000Y-143404800D02*
X92593000Y-140544800D01*
X90673000Y-143404800D02*
X92593000Y-143404800D01*
X90673000Y-140544800D02*
X90673000Y-143404800D01*
%TO.C,R11*%
X122429600Y-124250864D02*
X122429600Y-123796736D01*
X123899600Y-124250864D02*
X123899600Y-123796736D01*
%TO.C,R9*%
X128065200Y-124250864D02*
X128065200Y-123796736D01*
X126595200Y-124250864D02*
X126595200Y-123796736D01*
%TO.C,J13*%
X159858400Y-119094915D02*
X162518400Y-119094915D01*
X159858400Y-116494915D02*
X161188400Y-116494915D01*
X159858400Y-117824915D02*
X159858400Y-116494915D01*
X159858400Y-124234915D02*
X162518400Y-124234915D01*
X162518400Y-119094915D02*
X162518400Y-124234915D01*
X159858400Y-119094915D02*
X159858400Y-124234915D01*
%TO.C,C18*%
X106280852Y-110567800D02*
X105758348Y-110567800D01*
X106280852Y-112037800D02*
X105758348Y-112037800D01*
%TO.C,U5*%
X100328400Y-102650000D02*
X100603400Y-102650000D01*
X107748400Y-105410000D02*
X107748400Y-108170000D01*
X107748400Y-108170000D02*
X107473400Y-108170000D01*
X107748400Y-105410000D02*
X107748400Y-102650000D01*
X107748400Y-102650000D02*
X107473400Y-102650000D01*
X100328400Y-105410000D02*
X100328400Y-102650000D01*
X100328400Y-105410000D02*
X100328400Y-108170000D01*
X107473400Y-102650000D02*
X107473400Y-100960000D01*
X100328400Y-108170000D02*
X100603400Y-108170000D01*
%TO.C,C10*%
X137456352Y-76227000D02*
X136933848Y-76227000D01*
X137456352Y-77697000D02*
X136933848Y-77697000D01*
%TO.C,R15*%
X183196036Y-116613000D02*
X183650164Y-116613000D01*
X183196036Y-118083000D02*
X183650164Y-118083000D01*
%TO.C,R6*%
X132843600Y-124250864D02*
X132843600Y-123796736D01*
X134313600Y-124250864D02*
X134313600Y-123796736D01*
%TO.C,R21*%
X114647736Y-128608599D02*
X115101864Y-128608599D01*
X114647736Y-127138599D02*
X115101864Y-127138599D01*
%TO.C,U6*%
X113825500Y-73253600D02*
X113825500Y-76013600D01*
X113825500Y-73253600D02*
X113825500Y-70493600D01*
X121245500Y-73253600D02*
X121245500Y-76013600D01*
X120970500Y-70493600D02*
X120970500Y-68803600D01*
X113825500Y-76013600D02*
X114100500Y-76013600D01*
X121245500Y-73253600D02*
X121245500Y-70493600D01*
X121245500Y-70493600D02*
X120970500Y-70493600D01*
X113825500Y-70493600D02*
X114100500Y-70493600D01*
X121245500Y-76013600D02*
X120970500Y-76013600D01*
%TO.C,C14*%
X113602947Y-124516399D02*
X115025451Y-124516399D01*
X113602947Y-122696399D02*
X115025451Y-122696399D01*
%TD*%
M02*
