%TF.GenerationSoftware,KiCad,Pcbnew,7.0.10*%
%TF.CreationDate,2024-06-25T20:32:39-07:00*%
%TF.ProjectId,TRS-IO++,5452532d-494f-42b2-9b2e-6b696361645f,rev?*%
%TF.SameCoordinates,Original*%
%TF.FileFunction,Soldermask,Bot*%
%TF.FilePolarity,Negative*%
%FSLAX46Y46*%
G04 Gerber Fmt 4.6, Leading zero omitted, Abs format (unit mm)*
G04 Created by KiCad (PCBNEW 7.0.10) date 2024-06-25 20:32:39*
%MOMM*%
%LPD*%
G01*
G04 APERTURE LIST*
G04 Aperture macros list*
%AMRoundRect*
0 Rectangle with rounded corners*
0 $1 Rounding radius*
0 $2 $3 $4 $5 $6 $7 $8 $9 X,Y pos of 4 corners*
0 Add a 4 corners polygon primitive as box body*
4,1,4,$2,$3,$4,$5,$6,$7,$8,$9,$2,$3,0*
0 Add four circle primitives for the rounded corners*
1,1,$1+$1,$2,$3*
1,1,$1+$1,$4,$5*
1,1,$1+$1,$6,$7*
1,1,$1+$1,$8,$9*
0 Add four rect primitives between the rounded corners*
20,1,$1+$1,$2,$3,$4,$5,0*
20,1,$1+$1,$4,$5,$6,$7,0*
20,1,$1+$1,$6,$7,$8,$9,0*
20,1,$1+$1,$8,$9,$2,$3,0*%
%AMHorizOval*
0 Thick line with rounded ends*
0 $1 width*
0 $2 $3 position (X,Y) of the first rounded end (center of the circle)*
0 $4 $5 position (X,Y) of the second rounded end (center of the circle)*
0 Add line between two ends*
20,1,$1,$2,$3,$4,$5,0*
0 Add two circle primitives to create the rounded ends*
1,1,$1,$2,$3*
1,1,$1,$4,$5*%
G04 Aperture macros list end*
%ADD10C,2.100000*%
%ADD11C,2.700000*%
%ADD12C,0.900000*%
%ADD13C,6.100000*%
%ADD14RoundRect,0.050000X0.850000X-0.850000X0.850000X0.850000X-0.850000X0.850000X-0.850000X-0.850000X0*%
%ADD15O,1.800000X1.800000*%
%ADD16HorizOval,2.500000X-0.212132X-0.212132X0.212132X0.212132X0*%
%ADD17O,1.600000X3.400000*%
%ADD18O,1.600000X2.400000*%
%ADD19RoundRect,0.050000X-0.850000X-0.850000X0.850000X-0.850000X0.850000X0.850000X-0.850000X0.850000X0*%
%ADD20RoundRect,0.050000X0.850000X0.850000X-0.850000X0.850000X-0.850000X-0.850000X0.850000X-0.850000X0*%
%ADD21O,2.100000X1.300000*%
%ADD22O,1.400000X1.200000*%
%ADD23RoundRect,0.050000X0.800000X0.800000X-0.800000X0.800000X-0.800000X-0.800000X0.800000X-0.800000X0*%
%ADD24O,1.700000X1.700000*%
%ADD25RoundRect,0.050000X0.889000X3.810000X-0.889000X3.810000X-0.889000X-3.810000X0.889000X-3.810000X0*%
%ADD26RoundRect,0.050000X-0.889000X-3.810000X0.889000X-3.810000X0.889000X3.810000X-0.889000X3.810000X0*%
%ADD27RoundRect,0.050000X0.900000X-0.535000X0.900000X0.535000X-0.900000X0.535000X-0.900000X-0.535000X0*%
%ADD28O,1.900000X1.170000*%
%ADD29C,1.700000*%
%ADD30C,1.100000*%
%ADD31C,3.000000*%
%ADD32C,2.800000*%
%ADD33C,1.250000*%
G04 APERTURE END LIST*
D10*
%TO.C,SW4*%
X165100000Y-141629200D03*
X165100000Y-135129200D03*
X169600000Y-141629200D03*
X169600000Y-135129200D03*
%TD*%
D11*
%TO.C,H5*%
X75000000Y-135000000D03*
%TD*%
D12*
%TO.C,H3*%
X198546700Y-141478000D03*
X199205710Y-139887010D03*
X199205710Y-143068990D03*
X200796700Y-139228000D03*
D13*
X200796700Y-141478000D03*
D12*
X200796700Y-143728000D03*
X202387690Y-139887010D03*
X202387690Y-143068990D03*
X203046700Y-141478000D03*
%TD*%
%TO.C,H2*%
X198546700Y-55321200D03*
X199205710Y-53730210D03*
X199205710Y-56912190D03*
X200796700Y-53071200D03*
D13*
X200796700Y-55321200D03*
D12*
X200796700Y-57571200D03*
X202387690Y-53730210D03*
X202387690Y-56912190D03*
X203046700Y-55321200D03*
%TD*%
D10*
%TO.C,SW2*%
X175727350Y-141629200D03*
X175727350Y-135129200D03*
X180227350Y-141629200D03*
X180227350Y-135129200D03*
%TD*%
D14*
%TO.C,J2*%
X144413700Y-55422800D03*
D15*
X144413700Y-52882800D03*
X146953700Y-55422800D03*
X146953700Y-52882800D03*
X149493700Y-55422800D03*
X149493700Y-52882800D03*
X152033700Y-55422800D03*
X152033700Y-52882800D03*
X154573700Y-55422800D03*
X154573700Y-52882800D03*
X157113700Y-55422800D03*
X157113700Y-52882800D03*
X159653700Y-55422800D03*
X159653700Y-52882800D03*
X162193700Y-55422800D03*
X162193700Y-52882800D03*
X164733700Y-55422800D03*
X164733700Y-52882800D03*
X167273700Y-55422800D03*
X167273700Y-52882800D03*
X169813700Y-55422800D03*
X169813700Y-52882800D03*
X172353700Y-55422800D03*
X172353700Y-52882800D03*
X174893700Y-55422800D03*
X174893700Y-52882800D03*
X177433700Y-55422800D03*
X177433700Y-52882800D03*
X179973700Y-55422800D03*
X179973700Y-52882800D03*
X182513700Y-55422800D03*
X182513700Y-52882800D03*
X185053700Y-55422800D03*
X185053700Y-52882800D03*
X187593700Y-55422800D03*
X187593700Y-52882800D03*
X190133700Y-55422800D03*
X190133700Y-52882800D03*
X192673700Y-55422800D03*
X192673700Y-52882800D03*
%TD*%
D16*
%TO.C,J10*%
X110217200Y-137540400D03*
X112217200Y-139340400D03*
X112217200Y-145440400D03*
X110217200Y-143040400D03*
X112217200Y-133840400D03*
%TD*%
D17*
%TO.C,J7*%
X136409000Y-137228600D03*
X121909000Y-137228600D03*
D18*
X136409000Y-143188600D03*
X121909000Y-143188600D03*
%TD*%
D19*
%TO.C,J8*%
X173255166Y-115265199D03*
D15*
X173255166Y-117805199D03*
X173255166Y-120345199D03*
X173255166Y-122885199D03*
%TD*%
D10*
%TO.C,SW1*%
X186354700Y-141629200D03*
X186354700Y-135129200D03*
X190854700Y-141629200D03*
X190854700Y-135129200D03*
%TD*%
D20*
%TO.C,J5*%
X69322000Y-113411400D03*
D15*
X71862000Y-113411400D03*
X69322000Y-110871400D03*
X71862000Y-110871400D03*
X69322000Y-108331400D03*
X71862000Y-108331400D03*
X69322000Y-105791400D03*
X71862000Y-105791400D03*
X69322000Y-103251400D03*
X71862000Y-103251400D03*
X69322000Y-100711400D03*
X71862000Y-100711400D03*
%TD*%
D16*
%TO.C,J6*%
X99803200Y-137540400D03*
X101803200Y-139340400D03*
X101803200Y-145440400D03*
X99803200Y-143040400D03*
X101803200Y-133840400D03*
%TD*%
D12*
%TO.C,U1*%
X193655900Y-89090800D03*
X192655900Y-89090800D03*
X191655900Y-89090800D03*
X190655900Y-89090800D03*
X189655900Y-89090800D03*
X193655900Y-90090800D03*
X192655900Y-90090800D03*
X191655900Y-90090800D03*
X190655900Y-90090800D03*
X189655900Y-90090800D03*
X193655900Y-91090800D03*
X192655900Y-91090800D03*
X191655900Y-91090800D03*
X190655900Y-91090800D03*
X189655900Y-91090800D03*
X193655900Y-92090800D03*
X192655900Y-92090800D03*
X191655900Y-92090800D03*
X190655900Y-92090800D03*
X189655900Y-92090800D03*
X193655900Y-93090800D03*
X192655900Y-93090800D03*
X191655900Y-93090800D03*
X190655900Y-93090800D03*
X189655900Y-93090800D03*
%TD*%
%TO.C,H1*%
X63774300Y-55270400D03*
X64433310Y-53679410D03*
X64433310Y-56861390D03*
X66024300Y-53020400D03*
D13*
X66024300Y-55270400D03*
D12*
X66024300Y-57520400D03*
X67615290Y-53679410D03*
X67615290Y-56861390D03*
X68274300Y-55270400D03*
%TD*%
D21*
%TO.C,J12*%
X204124000Y-72155000D03*
D22*
X201374000Y-71005000D03*
X201374000Y-66155000D03*
D21*
X204124000Y-65005000D03*
%TD*%
D23*
%TO.C,RN1*%
X185028600Y-70713600D03*
D24*
X182488600Y-70713600D03*
X179948600Y-70713600D03*
X177408600Y-70713600D03*
X174868600Y-70713600D03*
X172328600Y-70713600D03*
X169788600Y-70713600D03*
X167248600Y-70713600D03*
X164708600Y-70713600D03*
%TD*%
D25*
%TO.C,J4*%
X144408700Y-43281600D03*
X146948700Y-43281600D03*
X149488700Y-43281600D03*
X152028700Y-43281600D03*
X154568700Y-43281600D03*
X157108700Y-43281600D03*
X159648700Y-43281600D03*
X162188700Y-43281600D03*
X164728700Y-43281600D03*
X167268700Y-43281600D03*
X169808700Y-43281600D03*
X172348700Y-43281600D03*
X174888700Y-43281600D03*
X177428700Y-43281600D03*
X179968700Y-43281600D03*
X182508700Y-43281600D03*
X185048700Y-43281600D03*
X187588700Y-43281600D03*
X190128700Y-43281600D03*
X192668700Y-43281600D03*
%TD*%
D26*
%TO.C,J3*%
X73263300Y-43281600D03*
X75803300Y-43281600D03*
X78343300Y-43281600D03*
X80883300Y-43281600D03*
X83423300Y-43281600D03*
X85963300Y-43281600D03*
X88503300Y-43281600D03*
X91043300Y-43281600D03*
X93583300Y-43281600D03*
X96123300Y-43281600D03*
X98663300Y-43281600D03*
X101203300Y-43281600D03*
X103743300Y-43281600D03*
X106283300Y-43281600D03*
X108823300Y-43281600D03*
X111363300Y-43281600D03*
X113903300Y-43281600D03*
X116443300Y-43281600D03*
X118983300Y-43281600D03*
X121523300Y-43281600D03*
X124063300Y-43281600D03*
X126603300Y-43281600D03*
X129143300Y-43281600D03*
X131683300Y-43281600D03*
X134223300Y-43281600D03*
%TD*%
D27*
%TO.C,D1*%
X69543200Y-129156000D03*
D28*
X69543200Y-127886000D03*
X69543200Y-126616000D03*
X69543200Y-125346000D03*
%TD*%
D29*
%TO.C,J11*%
X152109500Y-138232700D03*
X149509500Y-138232700D03*
X154209500Y-138232700D03*
X147409500Y-138232700D03*
X154209500Y-135732700D03*
X147409500Y-135732700D03*
D30*
X153309500Y-143332700D03*
X148309500Y-143332700D03*
X155809500Y-135732700D03*
X145809500Y-135732700D03*
D31*
X150809500Y-142032700D03*
D32*
X157809500Y-141232700D03*
X143809500Y-141232700D03*
%TD*%
D33*
%TO.C,Conn1*%
X84440300Y-87422900D03*
%TD*%
D14*
%TO.C,J1*%
X73237900Y-55422800D03*
D15*
X73237900Y-52882800D03*
X75777900Y-55422800D03*
X75777900Y-52882800D03*
X78317900Y-55422800D03*
X78317900Y-52882800D03*
X80857900Y-55422800D03*
X80857900Y-52882800D03*
X83397900Y-55422800D03*
X83397900Y-52882800D03*
X85937900Y-55422800D03*
X85937900Y-52882800D03*
X88477900Y-55422800D03*
X88477900Y-52882800D03*
X91017900Y-55422800D03*
X91017900Y-52882800D03*
X93557900Y-55422800D03*
X93557900Y-52882800D03*
X96097900Y-55422800D03*
X96097900Y-52882800D03*
X98637900Y-55422800D03*
X98637900Y-52882800D03*
X101177900Y-55422800D03*
X101177900Y-52882800D03*
X103717900Y-55422800D03*
X103717900Y-52882800D03*
X106257900Y-55422800D03*
X106257900Y-52882800D03*
X108797900Y-55422800D03*
X108797900Y-52882800D03*
X111337900Y-55422800D03*
X111337900Y-52882800D03*
X113877900Y-55422800D03*
X113877900Y-52882800D03*
X116417900Y-55422800D03*
X116417900Y-52882800D03*
X118957900Y-55422800D03*
X118957900Y-52882800D03*
X121497900Y-55422800D03*
X121497900Y-52882800D03*
X124037900Y-55422800D03*
X124037900Y-52882800D03*
X126577900Y-55422800D03*
X126577900Y-52882800D03*
X129117900Y-55422800D03*
X129117900Y-52882800D03*
X131657900Y-55422800D03*
X131657900Y-52882800D03*
X134197900Y-55422800D03*
X134197900Y-52882800D03*
%TD*%
D11*
%TO.C,H6*%
X195000000Y-63000000D03*
%TD*%
D19*
%TO.C,J13*%
X161188400Y-117824915D03*
D15*
X161188400Y-120364915D03*
X161188400Y-122904915D03*
%TD*%
D12*
%TO.C,H4*%
X63774300Y-141478000D03*
X64433310Y-139887010D03*
X64433310Y-143068990D03*
X66024300Y-139228000D03*
D13*
X66024300Y-141478000D03*
D12*
X66024300Y-143728000D03*
X67615290Y-139887010D03*
X67615290Y-143068990D03*
X68274300Y-141478000D03*
%TD*%
M02*
