%TF.GenerationSoftware,KiCad,Pcbnew,7.0.10*%
%TF.CreationDate,2024-06-25T20:32:39-07:00*%
%TF.ProjectId,TRS-IO++,5452532d-494f-42b2-9b2e-6b696361645f,rev?*%
%TF.SameCoordinates,Original*%
%TF.FileFunction,Soldermask,Top*%
%TF.FilePolarity,Negative*%
%FSLAX46Y46*%
G04 Gerber Fmt 4.6, Leading zero omitted, Abs format (unit mm)*
G04 Created by KiCad (PCBNEW 7.0.10) date 2024-06-25 20:32:39*
%MOMM*%
%LPD*%
G01*
G04 APERTURE LIST*
G04 Aperture macros list*
%AMRoundRect*
0 Rectangle with rounded corners*
0 $1 Rounding radius*
0 $2 $3 $4 $5 $6 $7 $8 $9 X,Y pos of 4 corners*
0 Add a 4 corners polygon primitive as box body*
4,1,4,$2,$3,$4,$5,$6,$7,$8,$9,$2,$3,0*
0 Add four circle primitives for the rounded corners*
1,1,$1+$1,$2,$3*
1,1,$1+$1,$4,$5*
1,1,$1+$1,$6,$7*
1,1,$1+$1,$8,$9*
0 Add four rect primitives between the rounded corners*
20,1,$1+$1,$2,$3,$4,$5,0*
20,1,$1+$1,$4,$5,$6,$7,0*
20,1,$1+$1,$6,$7,$8,$9,0*
20,1,$1+$1,$8,$9,$2,$3,0*%
%AMHorizOval*
0 Thick line with rounded ends*
0 $1 width*
0 $2 $3 position (X,Y) of the first rounded end (center of the circle)*
0 $4 $5 position (X,Y) of the second rounded end (center of the circle)*
0 Add line between two ends*
20,1,$1,$2,$3,$4,$5,0*
0 Add two circle primitives to create the rounded ends*
1,1,$1,$2,$3*
1,1,$1,$4,$5*%
G04 Aperture macros list end*
%ADD10C,2.100000*%
%ADD11RoundRect,0.270833X0.379167X0.479167X-0.379167X0.479167X-0.379167X-0.479167X0.379167X-0.479167X0*%
%ADD12RoundRect,0.270833X-0.479167X0.379167X-0.479167X-0.379167X0.479167X-0.379167X0.479167X0.379167X0*%
%ADD13RoundRect,0.270833X0.479167X-0.379167X0.479167X0.379167X-0.479167X0.379167X-0.479167X-0.379167X0*%
%ADD14RoundRect,0.050000X-1.220000X-0.560000X1.220000X-0.560000X1.220000X0.560000X-1.220000X0.560000X0*%
%ADD15RoundRect,0.270833X-0.379167X-0.479167X0.379167X-0.479167X0.379167X0.479167X-0.379167X0.479167X0*%
%ADD16RoundRect,0.271739X0.478261X-0.353261X0.478261X0.353261X-0.478261X0.353261X-0.478261X-0.353261X0*%
%ADD17RoundRect,0.271277X-0.366223X-0.503723X0.366223X-0.503723X0.366223X0.503723X-0.366223X0.503723X0*%
%ADD18RoundRect,0.271277X0.366223X0.503723X-0.366223X0.503723X-0.366223X-0.503723X0.366223X-0.503723X0*%
%ADD19C,2.700000*%
%ADD20C,0.900000*%
%ADD21C,6.100000*%
%ADD22RoundRect,0.268868X0.443632X0.681132X-0.443632X0.681132X-0.443632X-0.681132X0.443632X-0.681132X0*%
%ADD23RoundRect,0.271277X-0.503723X0.366223X-0.503723X-0.366223X0.503723X-0.366223X0.503723X0.366223X0*%
%ADD24RoundRect,0.050000X0.850000X-0.850000X0.850000X0.850000X-0.850000X0.850000X-0.850000X-0.850000X0*%
%ADD25O,1.800000X1.800000*%
%ADD26HorizOval,2.500000X-0.212132X-0.212132X0.212132X0.212132X0*%
%ADD27RoundRect,0.175000X-0.175000X0.612500X-0.175000X-0.612500X0.175000X-0.612500X0.175000X0.612500X0*%
%ADD28RoundRect,0.050000X-0.140000X1.300000X-0.140000X-1.300000X0.140000X-1.300000X0.140000X1.300000X0*%
%ADD29O,1.600000X3.400000*%
%ADD30O,1.600000X2.400000*%
%ADD31RoundRect,0.050000X0.800000X-0.350000X0.800000X0.350000X-0.800000X0.350000X-0.800000X-0.350000X0*%
%ADD32RoundRect,0.050000X0.700000X-0.800000X0.700000X0.800000X-0.700000X0.800000X-0.700000X-0.800000X0*%
%ADD33RoundRect,0.050000X1.100000X-0.600000X1.100000X0.600000X-1.100000X0.600000X-1.100000X-0.600000X0*%
%ADD34RoundRect,0.050000X0.700000X-0.600000X0.700000X0.600000X-0.700000X0.600000X-0.700000X-0.600000X0*%
%ADD35RoundRect,0.050000X-0.850000X-0.850000X0.850000X-0.850000X0.850000X0.850000X-0.850000X0.850000X0*%
%ADD36RoundRect,0.050000X0.850000X0.850000X-0.850000X0.850000X-0.850000X-0.850000X0.850000X-0.850000X0*%
%ADD37RoundRect,0.125000X-0.125000X0.875000X-0.125000X-0.875000X0.125000X-0.875000X0.125000X0.875000X0*%
%ADD38O,1.000000X3.100000*%
%ADD39RoundRect,0.050000X-2.500000X2.500000X-2.500000X-2.500000X2.500000X-2.500000X2.500000X2.500000X0*%
%ADD40RoundRect,0.271277X0.503723X-0.366223X0.503723X0.366223X-0.503723X0.366223X-0.503723X-0.366223X0*%
%ADD41O,2.100000X1.300000*%
%ADD42O,1.400000X1.200000*%
%ADD43RoundRect,0.050000X1.000000X-1.000000X1.000000X1.000000X-1.000000X1.000000X-1.000000X-1.000000X0*%
%ADD44RoundRect,0.050000X1.250000X-0.200000X1.250000X0.200000X-1.250000X0.200000X-1.250000X-0.200000X0*%
%ADD45RoundRect,0.050000X0.675000X-0.200000X0.675000X0.200000X-0.675000X0.200000X-0.675000X-0.200000X0*%
%ADD46RoundRect,0.050000X0.800000X0.800000X-0.800000X0.800000X-0.800000X-0.800000X0.800000X-0.800000X0*%
%ADD47O,1.700000X1.700000*%
%ADD48RoundRect,0.268868X-0.443632X-0.681132X0.443632X-0.681132X0.443632X0.681132X-0.443632X0.681132X0*%
%ADD49RoundRect,0.050000X0.889000X3.810000X-0.889000X3.810000X-0.889000X-3.810000X0.889000X-3.810000X0*%
%ADD50RoundRect,0.050000X-0.889000X-3.810000X0.889000X-3.810000X0.889000X3.810000X-0.889000X3.810000X0*%
%ADD51RoundRect,0.050000X0.900000X-0.535000X0.900000X0.535000X-0.900000X0.535000X-0.900000X-0.535000X0*%
%ADD52O,1.900000X1.170000*%
%ADD53C,1.700000*%
%ADD54C,1.100000*%
%ADD55C,3.000000*%
%ADD56C,2.800000*%
%ADD57C,1.250000*%
%ADD58RoundRect,0.050000X-0.175000X-1.000000X0.175000X-1.000000X0.175000X1.000000X-0.175000X1.000000X0*%
%ADD59RoundRect,0.050000X-1.750000X2.300000X-1.750000X-2.300000X1.750000X-2.300000X1.750000X2.300000X0*%
G04 APERTURE END LIST*
D10*
%TO.C,SW4*%
X165100000Y-141629200D03*
X165100000Y-135129200D03*
X169600000Y-141629200D03*
X169600000Y-135129200D03*
%TD*%
D11*
%TO.C,R33*%
X80435500Y-70104000D03*
X78435500Y-70104000D03*
%TD*%
D12*
%TO.C,R39*%
X88662232Y-133112000D03*
X88662232Y-135112000D03*
%TD*%
D13*
%TO.C,R8*%
X129413000Y-125023800D03*
X129413000Y-123023800D03*
%TD*%
D12*
%TO.C,R40*%
X91723300Y-133112000D03*
X91723300Y-135112000D03*
%TD*%
D14*
%TO.C,SW3*%
X65935700Y-70104000D03*
X65935700Y-72644000D03*
X65935700Y-75184000D03*
X65935700Y-77724000D03*
X74545700Y-77724000D03*
X74545700Y-75184000D03*
X74545700Y-72644000D03*
X74545700Y-70104000D03*
%TD*%
D15*
%TO.C,R29*%
X90998800Y-95046800D03*
X92998800Y-95046800D03*
%TD*%
D16*
%TO.C,D3*%
X85570866Y-142569800D03*
X85570866Y-140519800D03*
%TD*%
D17*
%TO.C,C13*%
X97920900Y-125272800D03*
X99995900Y-125272800D03*
%TD*%
D18*
%TO.C,C16*%
X134919850Y-107340400D03*
X132844850Y-107340400D03*
%TD*%
D13*
%TO.C,R10*%
X125247400Y-125023800D03*
X125247400Y-123023800D03*
%TD*%
D11*
%TO.C,R35*%
X80537100Y-75184000D03*
X78537100Y-75184000D03*
%TD*%
D16*
%TO.C,D2*%
X82539800Y-142569800D03*
X82539800Y-140519800D03*
%TD*%
D13*
%TO.C,R7*%
X131495800Y-125023800D03*
X131495800Y-123023800D03*
%TD*%
D12*
%TO.C,R14*%
X169570400Y-129505200D03*
X169570400Y-131505200D03*
%TD*%
D19*
%TO.C,H5*%
X75000000Y-135000000D03*
%TD*%
D20*
%TO.C,H3*%
X198546700Y-141478000D03*
X199205710Y-139887010D03*
X199205710Y-143068990D03*
X200796700Y-139228000D03*
D21*
X200796700Y-141478000D03*
D20*
X200796700Y-143728000D03*
X202387690Y-139887010D03*
X202387690Y-143068990D03*
X203046700Y-141478000D03*
%TD*%
D15*
%TO.C,R16*%
X182423100Y-120967500D03*
X184423100Y-120967500D03*
%TD*%
D22*
%TO.C,C12*%
X115876699Y-121167999D03*
X112751699Y-121167999D03*
%TD*%
D23*
%TO.C,C6*%
X127330200Y-119049300D03*
X127330200Y-121124300D03*
%TD*%
D11*
%TO.C,R34*%
X80486300Y-72644000D03*
X78486300Y-72644000D03*
%TD*%
%TO.C,R2*%
X77301600Y-125120400D03*
X75301600Y-125120400D03*
%TD*%
D23*
%TO.C,C4*%
X131495800Y-119049300D03*
X131495800Y-121124300D03*
%TD*%
D13*
%TO.C,R31*%
X154533600Y-131462400D03*
X154533600Y-129462400D03*
%TD*%
D23*
%TO.C,C3*%
X133578600Y-119049300D03*
X133578600Y-121124300D03*
%TD*%
%TO.C,C7*%
X125247400Y-119049300D03*
X125247400Y-121124300D03*
%TD*%
D20*
%TO.C,H2*%
X198546700Y-55321200D03*
X199205710Y-53730210D03*
X199205710Y-56912190D03*
X200796700Y-53071200D03*
D21*
X200796700Y-55321200D03*
D20*
X200796700Y-57571200D03*
X202387690Y-53730210D03*
X202387690Y-56912190D03*
X203046700Y-55321200D03*
%TD*%
D15*
%TO.C,R25*%
X104816400Y-120889800D03*
X106816400Y-120889800D03*
%TD*%
D11*
%TO.C,R27*%
X106816400Y-122986800D03*
X104816400Y-122986800D03*
%TD*%
D23*
%TO.C,C1*%
X137744200Y-119049300D03*
X137744200Y-121124300D03*
%TD*%
D10*
%TO.C,SW2*%
X175727350Y-141629200D03*
X175727350Y-135129200D03*
X180227350Y-141629200D03*
X180227350Y-135129200D03*
%TD*%
D24*
%TO.C,J2*%
X144413700Y-55422800D03*
D25*
X144413700Y-52882800D03*
X146953700Y-55422800D03*
X146953700Y-52882800D03*
X149493700Y-55422800D03*
X149493700Y-52882800D03*
X152033700Y-55422800D03*
X152033700Y-52882800D03*
X154573700Y-55422800D03*
X154573700Y-52882800D03*
X157113700Y-55422800D03*
X157113700Y-52882800D03*
X159653700Y-55422800D03*
X159653700Y-52882800D03*
X162193700Y-55422800D03*
X162193700Y-52882800D03*
X164733700Y-55422800D03*
X164733700Y-52882800D03*
X167273700Y-55422800D03*
X167273700Y-52882800D03*
X169813700Y-55422800D03*
X169813700Y-52882800D03*
X172353700Y-55422800D03*
X172353700Y-52882800D03*
X174893700Y-55422800D03*
X174893700Y-52882800D03*
X177433700Y-55422800D03*
X177433700Y-52882800D03*
X179973700Y-55422800D03*
X179973700Y-52882800D03*
X182513700Y-55422800D03*
X182513700Y-52882800D03*
X185053700Y-55422800D03*
X185053700Y-52882800D03*
X187593700Y-55422800D03*
X187593700Y-52882800D03*
X190133700Y-55422800D03*
X190133700Y-52882800D03*
X192673700Y-55422800D03*
X192673700Y-52882800D03*
%TD*%
D26*
%TO.C,J10*%
X110217200Y-137540400D03*
X112217200Y-139340400D03*
X112217200Y-145440400D03*
X110217200Y-143040400D03*
X112217200Y-133840400D03*
%TD*%
D18*
%TO.C,C19*%
X124415000Y-76962000D03*
X122340000Y-76962000D03*
%TD*%
D23*
%TO.C,C8*%
X123164600Y-119049300D03*
X123164600Y-121124300D03*
%TD*%
D17*
%TO.C,C23*%
X124463900Y-131961300D03*
X126538900Y-131961300D03*
%TD*%
D27*
%TO.C,Q3*%
X113878400Y-97919300D03*
X111978400Y-97919300D03*
X112928400Y-99794300D03*
%TD*%
D28*
%TO.C,J7*%
X133659000Y-136468600D03*
X133159000Y-136468600D03*
X132659000Y-136468600D03*
X132159000Y-136468600D03*
X131659000Y-136468600D03*
X131159000Y-136468600D03*
X130659000Y-136468600D03*
X130159000Y-136468600D03*
X129659000Y-136468600D03*
X129159000Y-136468600D03*
X128659000Y-136468600D03*
X128159000Y-136468600D03*
X127659000Y-136468600D03*
X127159000Y-136468600D03*
X126659000Y-136468600D03*
X126159000Y-136468600D03*
X125659000Y-136468600D03*
X125159000Y-136468600D03*
X124659000Y-136468600D03*
D29*
X136409000Y-137228600D03*
X121909000Y-137228600D03*
D30*
X136409000Y-143188600D03*
X121909000Y-143188600D03*
%TD*%
D11*
%TO.C,R20*%
X99907600Y-120904000D03*
X97907600Y-120904000D03*
%TD*%
D31*
%TO.C,J9*%
X191070000Y-116113200D03*
X191070000Y-117213200D03*
X191070000Y-118313200D03*
X191070000Y-119413200D03*
X191070000Y-120513200D03*
X191070000Y-121613200D03*
X191070000Y-122713200D03*
X191070000Y-123813200D03*
X191070000Y-124913200D03*
D32*
X191570000Y-111463200D03*
D33*
X201170000Y-110563200D03*
X201170000Y-126063200D03*
D34*
X191570000Y-126063200D03*
%TD*%
D23*
%TO.C,C9*%
X189026800Y-129366100D03*
X189026800Y-131441100D03*
%TD*%
D11*
%TO.C,R36*%
X80537100Y-77724000D03*
X78537100Y-77724000D03*
%TD*%
D35*
%TO.C,J8*%
X173255166Y-115265199D03*
D25*
X173255166Y-117805199D03*
X173255166Y-120345199D03*
X173255166Y-122885199D03*
%TD*%
D15*
%TO.C,R17*%
X182423100Y-115214400D03*
X184423100Y-115214400D03*
%TD*%
%TO.C,R26*%
X90998800Y-99212400D03*
X92998800Y-99212400D03*
%TD*%
D27*
%TO.C,Q4*%
X113878400Y-102338900D03*
X111978400Y-102338900D03*
X112928400Y-104213900D03*
%TD*%
D10*
%TO.C,SW1*%
X186354700Y-141629200D03*
X186354700Y-135129200D03*
X190854700Y-141629200D03*
X190854700Y-135129200D03*
%TD*%
D13*
%TO.C,R32*%
X151993600Y-131462400D03*
X151993600Y-129462400D03*
%TD*%
D36*
%TO.C,J5*%
X69322000Y-113411400D03*
D25*
X71862000Y-113411400D03*
X69322000Y-110871400D03*
X71862000Y-110871400D03*
X69322000Y-108331400D03*
X71862000Y-108331400D03*
X69322000Y-105791400D03*
X71862000Y-105791400D03*
X69322000Y-103251400D03*
X71862000Y-103251400D03*
X69322000Y-100711400D03*
X71862000Y-100711400D03*
%TD*%
D15*
%TO.C,R18*%
X182423100Y-113080800D03*
X184423100Y-113080800D03*
%TD*%
%TO.C,R19*%
X182438800Y-123139200D03*
X184438800Y-123139200D03*
%TD*%
D11*
%TO.C,R1*%
X77301600Y-129438400D03*
X75301600Y-129438400D03*
%TD*%
D37*
%TO.C,U3*%
X148095700Y-69753600D03*
X147445700Y-69753600D03*
X146795700Y-69753600D03*
X146145700Y-69753600D03*
X145495700Y-69753600D03*
X144845700Y-69753600D03*
X144195700Y-69753600D03*
X143545700Y-69753600D03*
X142895700Y-69753600D03*
X142245700Y-69753600D03*
X142245700Y-76753600D03*
X142895700Y-76753600D03*
X143545700Y-76753600D03*
X144195700Y-76753600D03*
X144845700Y-76753600D03*
X145495700Y-76753600D03*
X146145700Y-76753600D03*
X146795700Y-76753600D03*
X147445700Y-76753600D03*
X148095700Y-76753600D03*
%TD*%
D26*
%TO.C,J6*%
X99803200Y-137540400D03*
X101803200Y-139340400D03*
X101803200Y-145440400D03*
X99803200Y-143040400D03*
X101803200Y-133840400D03*
%TD*%
D16*
%TO.C,D4*%
X88601932Y-142569800D03*
X88601932Y-140519800D03*
%TD*%
D37*
%TO.C,U4*%
X130660550Y-100132000D03*
X130010550Y-100132000D03*
X129360550Y-100132000D03*
X128710550Y-100132000D03*
X128060550Y-100132000D03*
X127410550Y-100132000D03*
X126760550Y-100132000D03*
X126110550Y-100132000D03*
X125460550Y-100132000D03*
X124810550Y-100132000D03*
X124810550Y-107132000D03*
X125460550Y-107132000D03*
X126110550Y-107132000D03*
X126760550Y-107132000D03*
X127410550Y-107132000D03*
X128060550Y-107132000D03*
X128710550Y-107132000D03*
X129360550Y-107132000D03*
X130010550Y-107132000D03*
X130660550Y-107132000D03*
%TD*%
D38*
%TO.C,U1*%
X198565900Y-82490800D03*
X197295900Y-82490800D03*
X196025900Y-82490800D03*
X194755900Y-82490800D03*
X193485900Y-82490800D03*
X192215900Y-82490800D03*
X190945900Y-82490800D03*
X189675900Y-82490800D03*
X188405900Y-82490800D03*
X187135900Y-82490800D03*
X185865900Y-82490800D03*
X184595900Y-82490800D03*
X183325900Y-82490800D03*
X182055900Y-82490800D03*
X180755900Y-82490800D03*
X179485900Y-82490800D03*
X178215900Y-82490800D03*
X176945900Y-82490800D03*
X175675900Y-82490800D03*
X175675900Y-100490800D03*
X176945900Y-100490800D03*
X178215900Y-100490800D03*
X179485900Y-100490800D03*
X180755900Y-100490800D03*
X182055900Y-100520800D03*
X183325900Y-100520800D03*
X184595900Y-100520800D03*
X185865900Y-100520800D03*
X187135900Y-100520800D03*
X188405900Y-100520800D03*
X189675900Y-100520800D03*
X190945900Y-100520800D03*
X192215900Y-100520800D03*
X193485900Y-100520800D03*
X194755900Y-100520800D03*
X196025900Y-100520800D03*
X197295900Y-100520800D03*
X198565900Y-100520800D03*
D20*
X193655900Y-89090800D03*
X192655900Y-89090800D03*
X191655900Y-89090800D03*
X190655900Y-89090800D03*
X189655900Y-89090800D03*
X193655900Y-90090800D03*
X192655900Y-90090800D03*
X191655900Y-90090800D03*
X190655900Y-90090800D03*
X189655900Y-90090800D03*
X193655900Y-91090800D03*
X192655900Y-91090800D03*
X191655900Y-91090800D03*
D39*
X191645900Y-91090800D03*
D20*
X190655900Y-91090800D03*
X189655900Y-91090800D03*
X193655900Y-92090800D03*
X192655900Y-92090800D03*
X191655900Y-92090800D03*
X190655900Y-92090800D03*
X189655900Y-92090800D03*
X193655900Y-93090800D03*
X192655900Y-93090800D03*
X191655900Y-93090800D03*
X190655900Y-93090800D03*
X189655900Y-93090800D03*
%TD*%
D40*
%TO.C,C21*%
X140106400Y-125061300D03*
X140106400Y-122986300D03*
%TD*%
D12*
%TO.C,R30*%
X180171900Y-129454400D03*
X180171900Y-131454400D03*
%TD*%
D20*
%TO.C,H1*%
X63774300Y-55270400D03*
X64433310Y-53679410D03*
X64433310Y-56861390D03*
X66024300Y-53020400D03*
D21*
X66024300Y-55270400D03*
D20*
X66024300Y-57520400D03*
X67615290Y-53679410D03*
X67615290Y-56861390D03*
X68274300Y-55270400D03*
%TD*%
D15*
%TO.C,R13*%
X97907600Y-118770400D03*
X99907600Y-118770400D03*
%TD*%
D27*
%TO.C,Q5*%
X113878400Y-106758500D03*
X111978400Y-106758500D03*
X112928400Y-108633500D03*
%TD*%
D23*
%TO.C,C5*%
X129413000Y-119049300D03*
X129413000Y-121124300D03*
%TD*%
D12*
%TO.C,R12*%
X186436000Y-129454400D03*
X186436000Y-131454400D03*
%TD*%
D11*
%TO.C,R22*%
X115874800Y-125841599D03*
X113874800Y-125841599D03*
%TD*%
D18*
%TO.C,C15*%
X106803100Y-125222000D03*
X104728100Y-125222000D03*
%TD*%
D41*
%TO.C,J12*%
X204124000Y-72155000D03*
D42*
X201374000Y-71005000D03*
D43*
X204124000Y-68580000D03*
D42*
X201374000Y-66155000D03*
D41*
X204124000Y-65005000D03*
D44*
X200872800Y-69880000D03*
D45*
X201449000Y-69230000D03*
X201449000Y-68580000D03*
X201449000Y-67930000D03*
D44*
X200872800Y-67280000D03*
%TD*%
D18*
%TO.C,C11*%
X152050200Y-76962000D03*
X149975200Y-76962000D03*
%TD*%
D15*
%TO.C,R28*%
X90998800Y-97129600D03*
X92998800Y-97129600D03*
%TD*%
D46*
%TO.C,RN1*%
X185028600Y-70713600D03*
D47*
X182488600Y-70713600D03*
X179948600Y-70713600D03*
X177408600Y-70713600D03*
X174868600Y-70713600D03*
X172328600Y-70713600D03*
X169788600Y-70713600D03*
X167248600Y-70713600D03*
X164708600Y-70713600D03*
%TD*%
D48*
%TO.C,C20*%
X103644300Y-127609600D03*
X106769300Y-127609600D03*
%TD*%
D13*
%TO.C,R4*%
X137744200Y-125023800D03*
X137744200Y-123023800D03*
%TD*%
D18*
%TO.C,C24*%
X199497400Y-76758800D03*
X197422400Y-76758800D03*
%TD*%
D12*
%TO.C,R38*%
X85601166Y-133112000D03*
X85601166Y-135112000D03*
%TD*%
D49*
%TO.C,J4*%
X144408700Y-43281600D03*
X146948700Y-43281600D03*
X149488700Y-43281600D03*
X152028700Y-43281600D03*
X154568700Y-43281600D03*
X157108700Y-43281600D03*
X159648700Y-43281600D03*
X162188700Y-43281600D03*
X164728700Y-43281600D03*
X167268700Y-43281600D03*
X169808700Y-43281600D03*
X172348700Y-43281600D03*
X174888700Y-43281600D03*
X177428700Y-43281600D03*
X179968700Y-43281600D03*
X182508700Y-43281600D03*
X185048700Y-43281600D03*
X187588700Y-43281600D03*
X190128700Y-43281600D03*
X192668700Y-43281600D03*
%TD*%
D50*
%TO.C,J3*%
X73263300Y-43281600D03*
X75803300Y-43281600D03*
X78343300Y-43281600D03*
X80883300Y-43281600D03*
X83423300Y-43281600D03*
X85963300Y-43281600D03*
X88503300Y-43281600D03*
X91043300Y-43281600D03*
X93583300Y-43281600D03*
X96123300Y-43281600D03*
X98663300Y-43281600D03*
X101203300Y-43281600D03*
X103743300Y-43281600D03*
X106283300Y-43281600D03*
X108823300Y-43281600D03*
X111363300Y-43281600D03*
X113903300Y-43281600D03*
X116443300Y-43281600D03*
X118983300Y-43281600D03*
X121523300Y-43281600D03*
X124063300Y-43281600D03*
X126603300Y-43281600D03*
X129143300Y-43281600D03*
X131683300Y-43281600D03*
X134223300Y-43281600D03*
%TD*%
D15*
%TO.C,R23*%
X97907600Y-123037600D03*
X99907600Y-123037600D03*
%TD*%
D37*
%TO.C,U2*%
X134278100Y-69753600D03*
X133628100Y-69753600D03*
X132978100Y-69753600D03*
X132328100Y-69753600D03*
X131678100Y-69753600D03*
X131028100Y-69753600D03*
X130378100Y-69753600D03*
X129728100Y-69753600D03*
X129078100Y-69753600D03*
X128428100Y-69753600D03*
X128428100Y-76753600D03*
X129078100Y-76753600D03*
X129728100Y-76753600D03*
X130378100Y-76753600D03*
X131028100Y-76753600D03*
X131678100Y-76753600D03*
X132328100Y-76753600D03*
X132978100Y-76753600D03*
X133628100Y-76753600D03*
X134278100Y-76753600D03*
%TD*%
D23*
%TO.C,C2*%
X135661400Y-119049300D03*
X135661400Y-121124300D03*
%TD*%
D51*
%TO.C,D1*%
X69543200Y-129156000D03*
D52*
X69543200Y-127886000D03*
X69543200Y-126616000D03*
X69543200Y-125346000D03*
%TD*%
D53*
%TO.C,J11*%
X152109500Y-138232700D03*
X149509500Y-138232700D03*
X154209500Y-138232700D03*
X147409500Y-138232700D03*
X154209500Y-135732700D03*
X147409500Y-135732700D03*
D54*
X153309500Y-143332700D03*
X148309500Y-143332700D03*
X155809500Y-135732700D03*
X145809500Y-135732700D03*
D55*
X150809500Y-142032700D03*
D56*
X157809500Y-141232700D03*
X143809500Y-141232700D03*
%TD*%
D57*
%TO.C,Conn1*%
X84440300Y-87422900D03*
D58*
X149490300Y-83322900D03*
X149190300Y-91522900D03*
X148890300Y-83322900D03*
X148590300Y-91522900D03*
X148290300Y-83322900D03*
X147990300Y-91522900D03*
X147690300Y-83322900D03*
X147390300Y-91522900D03*
X147090300Y-83322900D03*
X146790300Y-91522900D03*
X146490300Y-83322900D03*
X146190300Y-91522900D03*
X145890300Y-83322900D03*
X145590300Y-91522900D03*
X145290300Y-83322900D03*
X144990300Y-91522900D03*
X144690300Y-83322900D03*
X144390300Y-91522900D03*
X144090300Y-83322900D03*
X143790300Y-91522900D03*
X143490300Y-83322900D03*
X143190300Y-91522900D03*
X142890300Y-83322900D03*
X142590300Y-91522900D03*
X142290300Y-83322900D03*
X141990300Y-91522900D03*
X141690300Y-83322900D03*
X141390300Y-91522900D03*
X141090300Y-83322900D03*
X140790300Y-91522900D03*
X140490300Y-83322900D03*
X140190300Y-91522900D03*
X139890300Y-83322900D03*
X139590300Y-91522900D03*
X139290300Y-83322900D03*
X138990300Y-91522900D03*
X138690300Y-83322900D03*
X138390300Y-91522900D03*
X138090300Y-83322900D03*
X137790300Y-91522900D03*
X137490300Y-83322900D03*
X137190300Y-91522900D03*
X136890300Y-83322900D03*
X136590300Y-91522900D03*
X136290300Y-83322900D03*
X135990300Y-91522900D03*
X135690300Y-83322900D03*
X135390300Y-91522900D03*
X135090300Y-83322900D03*
X134790300Y-91522900D03*
X134490300Y-83322900D03*
X134190300Y-91522900D03*
X133890300Y-83322900D03*
X133590300Y-91522900D03*
X133290300Y-83322900D03*
X132990300Y-91522900D03*
X132690300Y-83322900D03*
X132390300Y-91522900D03*
X132090300Y-83322900D03*
X131790300Y-91522900D03*
X131490300Y-83322900D03*
X131190300Y-91522900D03*
X130890300Y-83322900D03*
X130590300Y-91522900D03*
X130290300Y-83322900D03*
X129990300Y-91522900D03*
X129690300Y-83322900D03*
X129390300Y-91522900D03*
X129090300Y-83322900D03*
X128790300Y-91522900D03*
X128490300Y-83322900D03*
X128190300Y-91522900D03*
X125490300Y-83322900D03*
X125190300Y-91522900D03*
X124890300Y-83322900D03*
X124590300Y-91522900D03*
X124290300Y-83322900D03*
X123990300Y-91522900D03*
X123690300Y-83322900D03*
X123390300Y-91522900D03*
X123090300Y-83322900D03*
X122790300Y-91522900D03*
X122490300Y-83322900D03*
X122190300Y-91522900D03*
X121890300Y-83322900D03*
X121590300Y-91522900D03*
X121290300Y-83322900D03*
X120990300Y-91522900D03*
X120690300Y-83322900D03*
X120390300Y-91522900D03*
X120090300Y-83322900D03*
X119790300Y-91522900D03*
X119490300Y-83322900D03*
X119190300Y-91522900D03*
X118890300Y-83322900D03*
X118590300Y-91522900D03*
X118290300Y-83322900D03*
X117990300Y-91522900D03*
X117690300Y-83322900D03*
X117390300Y-91522900D03*
X117090300Y-83322900D03*
X116790300Y-91522900D03*
X116490300Y-83322900D03*
X116190300Y-91522900D03*
X115890300Y-83322900D03*
X115590300Y-91522900D03*
X115290300Y-83322900D03*
X114990300Y-91522900D03*
X114690300Y-83322900D03*
X114390300Y-91522900D03*
X114090300Y-83322900D03*
X113790300Y-91522900D03*
X113490300Y-83322900D03*
X113190300Y-91522900D03*
X112890300Y-83322900D03*
X112590300Y-91522900D03*
X112290300Y-83322900D03*
X111990300Y-91522900D03*
X111690300Y-83322900D03*
X111390300Y-91522900D03*
X111090300Y-83322900D03*
X110790300Y-91522900D03*
X110490300Y-83322900D03*
X110190300Y-91522900D03*
X109890300Y-83322900D03*
X109590300Y-91522900D03*
X109290300Y-83322900D03*
X108990300Y-91522900D03*
X108690300Y-83322900D03*
X108390300Y-91522900D03*
X108090300Y-83322900D03*
X107790300Y-91522900D03*
X107490300Y-83322900D03*
X107190300Y-91522900D03*
X106890300Y-83322900D03*
X106590300Y-91522900D03*
X106290300Y-83322900D03*
X105990300Y-91522900D03*
X105690300Y-83322900D03*
X105390300Y-91522900D03*
X105090300Y-83322900D03*
X104790300Y-91522900D03*
X104490300Y-83322900D03*
X104190300Y-91522900D03*
X103890300Y-83322900D03*
X103590300Y-91522900D03*
X103290300Y-83322900D03*
X102990300Y-91522900D03*
X102690300Y-83322900D03*
X102390300Y-91522900D03*
X102090300Y-83322900D03*
X101790300Y-91522900D03*
X101490300Y-83322900D03*
X101190300Y-91522900D03*
X100890300Y-83322900D03*
X100590300Y-91522900D03*
X100290300Y-83322900D03*
X99990300Y-91522900D03*
X99690300Y-83322900D03*
X99390300Y-91522900D03*
X99090300Y-83322900D03*
X98790300Y-91522900D03*
X98490300Y-83322900D03*
X98190300Y-91522900D03*
X97890300Y-83322900D03*
X97590300Y-91522900D03*
X97290300Y-83322900D03*
X96990300Y-91522900D03*
X96690300Y-83322900D03*
X96390300Y-91522900D03*
X96090300Y-83322900D03*
X95790300Y-91522900D03*
X95490300Y-83322900D03*
X95190300Y-91522900D03*
X94890300Y-83322900D03*
X94590300Y-91522900D03*
X94290300Y-83322900D03*
X93990300Y-91522900D03*
X93690300Y-83322900D03*
X93390300Y-91522900D03*
X93090300Y-83322900D03*
X92790300Y-91522900D03*
X92490300Y-83322900D03*
X92190300Y-91522900D03*
X91890300Y-83322900D03*
X91590300Y-91522900D03*
X91290300Y-83322900D03*
X90990300Y-91522900D03*
X90690300Y-83322900D03*
X90390300Y-91522900D03*
X90090300Y-83322900D03*
X89790300Y-91522900D03*
X89490300Y-83322900D03*
X89190300Y-91522900D03*
X88890300Y-83322900D03*
X88590300Y-91522900D03*
X88290300Y-83322900D03*
X87990300Y-91522900D03*
X87690300Y-83322900D03*
X87390300Y-91522900D03*
X87090300Y-83322900D03*
X86790300Y-91522900D03*
X86490300Y-83322900D03*
X86190300Y-91522900D03*
D59*
X150640300Y-99422900D03*
X85040300Y-99422900D03*
%TD*%
D12*
%TO.C,R37*%
X82540100Y-133112000D03*
X82540100Y-135112000D03*
%TD*%
D13*
%TO.C,R5*%
X135661400Y-125023800D03*
X135661400Y-123023800D03*
%TD*%
D11*
%TO.C,R24*%
X106816400Y-118719600D03*
X104816400Y-118719600D03*
%TD*%
D22*
%TO.C,C17*%
X101130500Y-127609600D03*
X98005500Y-127609600D03*
%TD*%
D11*
%TO.C,R3*%
X77301600Y-127254000D03*
X75301600Y-127254000D03*
%TD*%
D24*
%TO.C,J1*%
X73237900Y-55422800D03*
D25*
X73237900Y-52882800D03*
X75777900Y-55422800D03*
X75777900Y-52882800D03*
X78317900Y-55422800D03*
X78317900Y-52882800D03*
X80857900Y-55422800D03*
X80857900Y-52882800D03*
X83397900Y-55422800D03*
X83397900Y-52882800D03*
X85937900Y-55422800D03*
X85937900Y-52882800D03*
X88477900Y-55422800D03*
X88477900Y-52882800D03*
X91017900Y-55422800D03*
X91017900Y-52882800D03*
X93557900Y-55422800D03*
X93557900Y-52882800D03*
X96097900Y-55422800D03*
X96097900Y-52882800D03*
X98637900Y-55422800D03*
X98637900Y-52882800D03*
X101177900Y-55422800D03*
X101177900Y-52882800D03*
X103717900Y-55422800D03*
X103717900Y-52882800D03*
X106257900Y-55422800D03*
X106257900Y-52882800D03*
X108797900Y-55422800D03*
X108797900Y-52882800D03*
X111337900Y-55422800D03*
X111337900Y-52882800D03*
X113877900Y-55422800D03*
X113877900Y-52882800D03*
X116417900Y-55422800D03*
X116417900Y-52882800D03*
X118957900Y-55422800D03*
X118957900Y-52882800D03*
X121497900Y-55422800D03*
X121497900Y-52882800D03*
X124037900Y-55422800D03*
X124037900Y-52882800D03*
X126577900Y-55422800D03*
X126577900Y-52882800D03*
X129117900Y-55422800D03*
X129117900Y-52882800D03*
X131657900Y-55422800D03*
X131657900Y-52882800D03*
X134197900Y-55422800D03*
X134197900Y-52882800D03*
%TD*%
D19*
%TO.C,H6*%
X195000000Y-63000000D03*
%TD*%
D16*
%TO.C,D5*%
X91633000Y-142569800D03*
X91633000Y-140519800D03*
%TD*%
D13*
%TO.C,R11*%
X123164600Y-125023800D03*
X123164600Y-123023800D03*
%TD*%
%TO.C,R9*%
X127330200Y-125023800D03*
X127330200Y-123023800D03*
%TD*%
D35*
%TO.C,J13*%
X161188400Y-117824915D03*
D25*
X161188400Y-120364915D03*
X161188400Y-122904915D03*
%TD*%
D18*
%TO.C,C18*%
X107057100Y-111302800D03*
X104982100Y-111302800D03*
%TD*%
D37*
%TO.C,U5*%
X106963400Y-101910000D03*
X106313400Y-101910000D03*
X105663400Y-101910000D03*
X105013400Y-101910000D03*
X104363400Y-101910000D03*
X103713400Y-101910000D03*
X103063400Y-101910000D03*
X102413400Y-101910000D03*
X101763400Y-101910000D03*
X101113400Y-101910000D03*
X101113400Y-108910000D03*
X101763400Y-108910000D03*
X102413400Y-108910000D03*
X103063400Y-108910000D03*
X103713400Y-108910000D03*
X104363400Y-108910000D03*
X105013400Y-108910000D03*
X105663400Y-108910000D03*
X106313400Y-108910000D03*
X106963400Y-108910000D03*
%TD*%
D20*
%TO.C,H4*%
X63774300Y-141478000D03*
X64433310Y-139887010D03*
X64433310Y-143068990D03*
X66024300Y-139228000D03*
D21*
X66024300Y-141478000D03*
D20*
X66024300Y-143728000D03*
X67615290Y-139887010D03*
X67615290Y-143068990D03*
X68274300Y-141478000D03*
%TD*%
D18*
%TO.C,C10*%
X138232600Y-76962000D03*
X136157600Y-76962000D03*
%TD*%
D15*
%TO.C,R15*%
X182423100Y-117348000D03*
X184423100Y-117348000D03*
%TD*%
D13*
%TO.C,R6*%
X133578600Y-125023800D03*
X133578600Y-123023800D03*
%TD*%
D15*
%TO.C,R21*%
X113874800Y-127873599D03*
X115874800Y-127873599D03*
%TD*%
D37*
%TO.C,U6*%
X120460500Y-69753600D03*
X119810500Y-69753600D03*
X119160500Y-69753600D03*
X118510500Y-69753600D03*
X117860500Y-69753600D03*
X117210500Y-69753600D03*
X116560500Y-69753600D03*
X115910500Y-69753600D03*
X115260500Y-69753600D03*
X114610500Y-69753600D03*
X114610500Y-76753600D03*
X115260500Y-76753600D03*
X115910500Y-76753600D03*
X116560500Y-76753600D03*
X117210500Y-76753600D03*
X117860500Y-76753600D03*
X118510500Y-76753600D03*
X119160500Y-76753600D03*
X119810500Y-76753600D03*
X120460500Y-76753600D03*
%TD*%
D48*
%TO.C,C14*%
X112751699Y-123606399D03*
X115876699Y-123606399D03*
%TD*%
M02*
