%TF.GenerationSoftware,KiCad,Pcbnew,(6.0.9)*%
%TF.CreationDate,2022-12-28T10:19:49-08:00*%
%TF.ProjectId,NextTRS,4e657874-5452-4532-9e6b-696361645f70,rev?*%
%TF.SameCoordinates,Original*%
%TF.FileFunction,Soldermask,Bot*%
%TF.FilePolarity,Negative*%
%FSLAX46Y46*%
G04 Gerber Fmt 4.6, Leading zero omitted, Abs format (unit mm)*
G04 Created by KiCad (PCBNEW (6.0.9)) date 2022-12-28 10:19:49*
%MOMM*%
%LPD*%
G01*
G04 APERTURE LIST*
G04 Aperture macros list*
%AMHorizOval*
0 Thick line with rounded ends*
0 $1 width*
0 $2 $3 position (X,Y) of the first rounded end (center of the circle)*
0 $4 $5 position (X,Y) of the second rounded end (center of the circle)*
0 Add line between two ends*
20,1,$1,$2,$3,$4,$5,0*
0 Add two circle primitives to create the rounded ends*
1,1,$1,$2,$3*
1,1,$1,$4,$5*%
G04 Aperture macros list end*
%ADD10C,0.800000*%
%ADD11C,6.000000*%
%ADD12C,2.000000*%
%ADD13R,1.700000X1.700000*%
%ADD14O,1.700000X1.700000*%
%ADD15HorizOval,2.400000X-0.212132X-0.212132X0.212132X0.212132X0*%
%ADD16O,1.500000X2.300000*%
%ADD17O,1.500000X3.300000*%
%ADD18O,1.400000X1.200000*%
%ADD19O,2.100000X1.300000*%
%ADD20R,1.778000X7.620000*%
%ADD21R,1.800000X1.070000*%
%ADD22O,1.800000X1.070000*%
%ADD23C,1.600000*%
%ADD24C,1.000000*%
%ADD25C,2.900000*%
%ADD26C,2.700000*%
%ADD27C,1.150000*%
G04 APERTURE END LIST*
D10*
%TO.C,H3*%
X163033390Y-146033810D03*
X163692400Y-147624800D03*
X159851410Y-149215790D03*
D11*
X161442400Y-147624800D03*
D10*
X161442400Y-149874800D03*
X163033390Y-149215790D03*
X161442400Y-145374800D03*
X159192400Y-147624800D03*
X159851410Y-146033810D03*
%TD*%
%TO.C,H2*%
X159192400Y-61468000D03*
X163033390Y-59877010D03*
X161442400Y-63718000D03*
X159851410Y-59877010D03*
X163692400Y-61468000D03*
X159851410Y-63058990D03*
X163033390Y-63058990D03*
D11*
X161442400Y-61468000D03*
D10*
X161442400Y-59218000D03*
%TD*%
D12*
%TO.C,SW2*%
X136383200Y-141123600D03*
X136383200Y-147623600D03*
X140883200Y-147623600D03*
X140883200Y-141123600D03*
%TD*%
D13*
%TO.C,J2*%
X105059400Y-61569600D03*
D14*
X105059400Y-59029600D03*
X107599400Y-61569600D03*
X107599400Y-59029600D03*
X110139400Y-61569600D03*
X110139400Y-59029600D03*
X112679400Y-61569600D03*
X112679400Y-59029600D03*
X115219400Y-61569600D03*
X115219400Y-59029600D03*
X117759400Y-61569600D03*
X117759400Y-59029600D03*
X120299400Y-61569600D03*
X120299400Y-59029600D03*
X122839400Y-61569600D03*
X122839400Y-59029600D03*
X125379400Y-61569600D03*
X125379400Y-59029600D03*
X127919400Y-61569600D03*
X127919400Y-59029600D03*
X130459400Y-61569600D03*
X130459400Y-59029600D03*
X132999400Y-61569600D03*
X132999400Y-59029600D03*
X135539400Y-61569600D03*
X135539400Y-59029600D03*
X138079400Y-61569600D03*
X138079400Y-59029600D03*
X140619400Y-61569600D03*
X140619400Y-59029600D03*
X143159400Y-61569600D03*
X143159400Y-59029600D03*
X145699400Y-61569600D03*
X145699400Y-59029600D03*
X148239400Y-61569600D03*
X148239400Y-59029600D03*
X150779400Y-61569600D03*
X150779400Y-59029600D03*
X153319400Y-61569600D03*
X153319400Y-59029600D03*
%TD*%
D15*
%TO.C,J10*%
X65919599Y-143737999D03*
X67919599Y-145537999D03*
X67919599Y-151637999D03*
X65919599Y-149237999D03*
X67919599Y-140037999D03*
%TD*%
D16*
%TO.C,J7*%
X101077600Y-149339800D03*
X86577600Y-149339800D03*
D17*
X86577600Y-143379800D03*
X101077600Y-143379800D03*
%TD*%
D13*
%TO.C,J8*%
X133900866Y-129039400D03*
D14*
X133900866Y-126499400D03*
X133900866Y-123959400D03*
X133900866Y-121419400D03*
X133900866Y-118879400D03*
X133900866Y-116339400D03*
%TD*%
D12*
%TO.C,SW1*%
X147000400Y-141276000D03*
X147000400Y-147776000D03*
X151500400Y-147776000D03*
X151500400Y-141276000D03*
%TD*%
D13*
%TO.C,J5*%
X31705400Y-130556000D03*
D14*
X31705400Y-128016000D03*
X31705400Y-125476000D03*
X31705400Y-122936000D03*
X31705400Y-120396000D03*
X31705400Y-117856000D03*
%TD*%
D10*
%TO.C,U1*%
X150301600Y-96237600D03*
X153301600Y-96237600D03*
X153301600Y-97237600D03*
X150301600Y-97237600D03*
X154301600Y-99237600D03*
X154301600Y-95237600D03*
X150301600Y-98237600D03*
X151301600Y-97237600D03*
X152301600Y-99237600D03*
X150301600Y-99237600D03*
X150301600Y-95237600D03*
X152301600Y-98237600D03*
X152301600Y-97237600D03*
X154301600Y-97237600D03*
X153301600Y-99237600D03*
X151301600Y-99237600D03*
X151301600Y-95237600D03*
X153301600Y-98237600D03*
X154301600Y-98237600D03*
X153301600Y-95237600D03*
X151301600Y-96237600D03*
X152301600Y-96237600D03*
X154301600Y-96237600D03*
X152301600Y-95237600D03*
X151301600Y-98237600D03*
%TD*%
%TO.C,H1*%
X26670000Y-63667200D03*
X25079010Y-63008190D03*
X28920000Y-61417200D03*
D11*
X26670000Y-61417200D03*
D10*
X25079010Y-59826210D03*
X28260990Y-63008190D03*
X28260990Y-59826210D03*
X26670000Y-59167200D03*
X24420000Y-61417200D03*
%TD*%
D18*
%TO.C,J12*%
X162019700Y-72301800D03*
D19*
X164769700Y-78301800D03*
X164769700Y-71151800D03*
D18*
X162019700Y-77151800D03*
%TD*%
D20*
%TO.C,J4*%
X105054400Y-49428400D03*
X107594400Y-49428400D03*
X110134400Y-49428400D03*
X112674400Y-49428400D03*
X115214400Y-49428400D03*
X117754400Y-49428400D03*
X120294400Y-49428400D03*
X122834400Y-49428400D03*
X125374400Y-49428400D03*
X127914400Y-49428400D03*
X130454400Y-49428400D03*
X132994400Y-49428400D03*
X135534400Y-49428400D03*
X138074400Y-49428400D03*
X140614400Y-49428400D03*
X143154400Y-49428400D03*
X145694400Y-49428400D03*
X148234400Y-49428400D03*
X150774400Y-49428400D03*
X153314400Y-49428400D03*
%TD*%
%TO.C,J3*%
X33909000Y-49428400D03*
X36449000Y-49428400D03*
X38989000Y-49428400D03*
X41529000Y-49428400D03*
X44069000Y-49428400D03*
X46609000Y-49428400D03*
X49149000Y-49428400D03*
X51689000Y-49428400D03*
X54229000Y-49428400D03*
X56769000Y-49428400D03*
X59309000Y-49428400D03*
X61849000Y-49428400D03*
X64389000Y-49428400D03*
X66929000Y-49428400D03*
X69469000Y-49428400D03*
X72009000Y-49428400D03*
X74549000Y-49428400D03*
X77089000Y-49428400D03*
X79629000Y-49428400D03*
X82169000Y-49428400D03*
X84709000Y-49428400D03*
X87249000Y-49428400D03*
X89789000Y-49428400D03*
X92329000Y-49428400D03*
X94869000Y-49428400D03*
%TD*%
D21*
%TO.C,D1*%
X30224000Y-140890800D03*
D22*
X30224000Y-139620800D03*
X30224000Y-138350800D03*
X30224000Y-137080800D03*
%TD*%
D23*
%TO.C,J11*%
X123321600Y-144409600D03*
X120721600Y-144409600D03*
X125421600Y-144409600D03*
X118621600Y-144409600D03*
X125421600Y-141909600D03*
X118621600Y-141909600D03*
D24*
X124521600Y-149509600D03*
X119521600Y-149509600D03*
X127021600Y-141909600D03*
X117021600Y-141909600D03*
D25*
X122021600Y-148209600D03*
D26*
X129021600Y-147409600D03*
X115021600Y-147409600D03*
%TD*%
D27*
%TO.C,Conn1*%
X45086000Y-93569700D03*
%TD*%
D13*
%TO.C,J1*%
X33883600Y-61569600D03*
D14*
X33883600Y-59029600D03*
X36423600Y-61569600D03*
X36423600Y-59029600D03*
X38963600Y-61569600D03*
X38963600Y-59029600D03*
X41503600Y-61569600D03*
X41503600Y-59029600D03*
X44043600Y-61569600D03*
X44043600Y-59029600D03*
X46583600Y-61569600D03*
X46583600Y-59029600D03*
X49123600Y-61569600D03*
X49123600Y-59029600D03*
X51663600Y-61569600D03*
X51663600Y-59029600D03*
X54203600Y-61569600D03*
X54203600Y-59029600D03*
X56743600Y-61569600D03*
X56743600Y-59029600D03*
X59283600Y-61569600D03*
X59283600Y-59029600D03*
X61823600Y-61569600D03*
X61823600Y-59029600D03*
X64363600Y-61569600D03*
X64363600Y-59029600D03*
X66903600Y-61569600D03*
X66903600Y-59029600D03*
X69443600Y-61569600D03*
X69443600Y-59029600D03*
X71983600Y-61569600D03*
X71983600Y-59029600D03*
X74523600Y-61569600D03*
X74523600Y-59029600D03*
X77063600Y-61569600D03*
X77063600Y-59029600D03*
X79603600Y-61569600D03*
X79603600Y-59029600D03*
X82143600Y-61569600D03*
X82143600Y-59029600D03*
X84683600Y-61569600D03*
X84683600Y-59029600D03*
X87223600Y-61569600D03*
X87223600Y-59029600D03*
X89763600Y-61569600D03*
X89763600Y-59029600D03*
X92303600Y-61569600D03*
X92303600Y-59029600D03*
X94843600Y-61569600D03*
X94843600Y-59029600D03*
%TD*%
D13*
%TO.C,J6*%
X31705400Y-107899200D03*
D14*
X31705400Y-105359200D03*
X31705400Y-102819200D03*
X31705400Y-100279200D03*
X31705400Y-97739200D03*
X31705400Y-95199200D03*
%TD*%
D10*
%TO.C,H4*%
X26670000Y-149874800D03*
X28920000Y-147624800D03*
X25079010Y-146033810D03*
X26670000Y-145374800D03*
X25079010Y-149215790D03*
X28260990Y-149215790D03*
D11*
X26670000Y-147624800D03*
D10*
X24420000Y-147624800D03*
X28260990Y-146033810D03*
%TD*%
M02*
