%TF.GenerationSoftware,KiCad,Pcbnew,(6.0.9)*%
%TF.CreationDate,2022-12-28T10:19:49-08:00*%
%TF.ProjectId,NextTRS,4e657874-5452-4532-9e6b-696361645f70,rev?*%
%TF.SameCoordinates,Original*%
%TF.FileFunction,Soldermask,Top*%
%TF.FilePolarity,Negative*%
%FSLAX46Y46*%
G04 Gerber Fmt 4.6, Leading zero omitted, Abs format (unit mm)*
G04 Created by KiCad (PCBNEW (6.0.9)) date 2022-12-28 10:19:49*
%MOMM*%
%LPD*%
G01*
G04 APERTURE LIST*
G04 Aperture macros list*
%AMRoundRect*
0 Rectangle with rounded corners*
0 $1 Rounding radius*
0 $2 $3 $4 $5 $6 $7 $8 $9 X,Y pos of 4 corners*
0 Add a 4 corners polygon primitive as box body*
4,1,4,$2,$3,$4,$5,$6,$7,$8,$9,$2,$3,0*
0 Add four circle primitives for the rounded corners*
1,1,$1+$1,$2,$3*
1,1,$1+$1,$4,$5*
1,1,$1+$1,$6,$7*
1,1,$1+$1,$8,$9*
0 Add four rect primitives between the rounded corners*
20,1,$1+$1,$2,$3,$4,$5,0*
20,1,$1+$1,$4,$5,$6,$7,0*
20,1,$1+$1,$6,$7,$8,$9,0*
20,1,$1+$1,$8,$9,$2,$3,0*%
%AMHorizOval*
0 Thick line with rounded ends*
0 $1 width*
0 $2 $3 position (X,Y) of the first rounded end (center of the circle)*
0 $4 $5 position (X,Y) of the second rounded end (center of the circle)*
0 Add line between two ends*
20,1,$1,$2,$3,$4,$5,0*
0 Add two circle primitives to create the rounded ends*
1,1,$1,$2,$3*
1,1,$1,$4,$5*%
G04 Aperture macros list end*
%ADD10RoundRect,0.150000X0.587500X0.150000X-0.587500X0.150000X-0.587500X-0.150000X0.587500X-0.150000X0*%
%ADD11RoundRect,0.250000X0.350000X0.450000X-0.350000X0.450000X-0.350000X-0.450000X0.350000X-0.450000X0*%
%ADD12RoundRect,0.250000X0.475000X-0.337500X0.475000X0.337500X-0.475000X0.337500X-0.475000X-0.337500X0*%
%ADD13RoundRect,0.250000X-0.450000X0.350000X-0.450000X-0.350000X0.450000X-0.350000X0.450000X0.350000X0*%
%ADD14RoundRect,0.250000X-0.412500X-0.650000X0.412500X-0.650000X0.412500X0.650000X-0.412500X0.650000X0*%
%ADD15RoundRect,0.250000X0.450000X-0.350000X0.450000X0.350000X-0.450000X0.350000X-0.450000X-0.350000X0*%
%ADD16R,2.440000X1.120000*%
%ADD17RoundRect,0.250000X0.450000X-0.325000X0.450000X0.325000X-0.450000X0.325000X-0.450000X-0.325000X0*%
%ADD18RoundRect,0.250000X0.337500X0.475000X-0.337500X0.475000X-0.337500X-0.475000X0.337500X-0.475000X0*%
%ADD19C,0.800000*%
%ADD20C,6.000000*%
%ADD21RoundRect,0.250000X-0.350000X-0.450000X0.350000X-0.450000X0.350000X0.450000X-0.350000X0.450000X0*%
%ADD22RoundRect,0.250000X0.412500X0.650000X-0.412500X0.650000X-0.412500X-0.650000X0.412500X-0.650000X0*%
%ADD23RoundRect,0.250000X-0.475000X0.337500X-0.475000X-0.337500X0.475000X-0.337500X0.475000X0.337500X0*%
%ADD24C,2.000000*%
%ADD25R,1.700000X1.700000*%
%ADD26O,1.700000X1.700000*%
%ADD27HorizOval,2.400000X-0.212132X-0.212132X0.212132X0.212132X0*%
%ADD28RoundRect,0.250000X-0.337500X-0.475000X0.337500X-0.475000X0.337500X0.475000X-0.337500X0.475000X0*%
%ADD29RoundRect,0.150000X-0.150000X0.587500X-0.150000X-0.587500X0.150000X-0.587500X0.150000X0.587500X0*%
%ADD30R,0.300000X2.600000*%
%ADD31O,1.500000X2.300000*%
%ADD32O,1.500000X3.300000*%
%ADD33R,1.600000X0.700000*%
%ADD34R,1.400000X1.600000*%
%ADD35R,2.200000X1.200000*%
%ADD36R,1.400000X1.200000*%
%ADD37RoundRect,0.125000X-0.125000X0.825000X-0.125000X-0.825000X0.125000X-0.825000X0.125000X0.825000X0*%
%ADD38O,0.900000X3.000000*%
%ADD39R,5.000000X5.000000*%
%ADD40O,1.400000X1.200000*%
%ADD41RoundRect,0.050000X1.000000X-1.000000X1.000000X1.000000X-1.000000X1.000000X-1.000000X-1.000000X0*%
%ADD42O,2.100000X1.300000*%
%ADD43RoundRect,0.050000X1.250000X-0.200000X1.250000X0.200000X-1.250000X0.200000X-1.250000X-0.200000X0*%
%ADD44RoundRect,0.050000X0.675000X-0.200000X0.675000X0.200000X-0.675000X0.200000X-0.675000X-0.200000X0*%
%ADD45R,1.778000X7.620000*%
%ADD46R,1.800000X1.070000*%
%ADD47O,1.800000X1.070000*%
%ADD48C,1.600000*%
%ADD49C,1.000000*%
%ADD50C,2.900000*%
%ADD51C,2.700000*%
%ADD52C,1.150000*%
%ADD53R,0.350000X2.000000*%
%ADD54R,3.500000X4.600000*%
G04 APERTURE END LIST*
D10*
%TO.C,Q2*%
X123678833Y-121683200D03*
X123678833Y-119783200D03*
X121803833Y-120733200D03*
%TD*%
D11*
%TO.C,R33*%
X41081200Y-76250800D03*
X39081200Y-76250800D03*
%TD*%
D12*
%TO.C,C17*%
X113504266Y-126363500D03*
X113504266Y-124288500D03*
%TD*%
D13*
%TO.C,R39*%
X52869732Y-142764000D03*
X52869732Y-144764000D03*
%TD*%
D14*
%TO.C,C15*%
X70451999Y-133698599D03*
X73576999Y-133698599D03*
%TD*%
D15*
%TO.C,R8*%
X94081600Y-131175000D03*
X94081600Y-129175000D03*
%TD*%
D13*
%TO.C,R40*%
X55930800Y-142764000D03*
X55930800Y-144764000D03*
%TD*%
D16*
%TO.C,SW3*%
X26581400Y-76250800D03*
X26581400Y-78790800D03*
X26581400Y-81330800D03*
X26581400Y-83870800D03*
X35191400Y-83870800D03*
X35191400Y-81330800D03*
X35191400Y-78790800D03*
X35191400Y-76250800D03*
%TD*%
D11*
%TO.C,R29*%
X63026800Y-101193600D03*
X61026800Y-101193600D03*
%TD*%
D17*
%TO.C,D3*%
X49823666Y-139556600D03*
X49823666Y-137506600D03*
%TD*%
D18*
%TO.C,C16*%
X109241500Y-113487200D03*
X107166500Y-113487200D03*
%TD*%
D13*
%TO.C,R27*%
X117652800Y-124356000D03*
X117652800Y-126356000D03*
%TD*%
D15*
%TO.C,R10*%
X89916000Y-131175000D03*
X89916000Y-129175000D03*
%TD*%
D11*
%TO.C,R35*%
X41182800Y-81330800D03*
X39182800Y-81330800D03*
%TD*%
D17*
%TO.C,D2*%
X46792600Y-139556600D03*
X46792600Y-137506600D03*
%TD*%
D15*
%TO.C,R7*%
X96164400Y-131175000D03*
X96164400Y-129175000D03*
%TD*%
D19*
%TO.C,H3*%
X163033390Y-146033810D03*
X163692400Y-147624800D03*
X159851410Y-149215790D03*
D20*
X161442400Y-147624800D03*
D19*
X161442400Y-149874800D03*
X163033390Y-149215790D03*
X161442400Y-145374800D03*
X159192400Y-147624800D03*
X159851410Y-146033810D03*
%TD*%
D21*
%TO.C,R16*%
X143068800Y-125577600D03*
X145068800Y-125577600D03*
%TD*%
D22*
%TO.C,C12*%
X65787599Y-127314799D03*
X62662599Y-127314799D03*
%TD*%
D23*
%TO.C,C6*%
X91998800Y-125200500D03*
X91998800Y-127275500D03*
%TD*%
D11*
%TO.C,R34*%
X41132000Y-78790800D03*
X39132000Y-78790800D03*
%TD*%
%TO.C,R2*%
X37982400Y-136855200D03*
X35982400Y-136855200D03*
%TD*%
D23*
%TO.C,C4*%
X96164400Y-125200500D03*
X96164400Y-127275500D03*
%TD*%
D15*
%TO.C,R19*%
X127829866Y-126356000D03*
X127829866Y-124356000D03*
%TD*%
D13*
%TO.C,R31*%
X125628400Y-134432800D03*
X125628400Y-136432800D03*
%TD*%
D23*
%TO.C,C3*%
X98247200Y-125200500D03*
X98247200Y-127275500D03*
%TD*%
%TO.C,C7*%
X89916000Y-125200500D03*
X89916000Y-127275500D03*
%TD*%
D19*
%TO.C,H2*%
X159192400Y-61468000D03*
X163033390Y-59877010D03*
X161442400Y-63718000D03*
X159851410Y-59877010D03*
X163692400Y-61468000D03*
X159851410Y-63058990D03*
X163033390Y-63058990D03*
D20*
X161442400Y-61468000D03*
D19*
X161442400Y-59218000D03*
%TD*%
D23*
%TO.C,C1*%
X102412800Y-125200500D03*
X102412800Y-127275500D03*
%TD*%
D24*
%TO.C,SW2*%
X136383200Y-141123600D03*
X136383200Y-147623600D03*
X140883200Y-147623600D03*
X140883200Y-141123600D03*
%TD*%
D25*
%TO.C,J2*%
X105059400Y-61569600D03*
D26*
X105059400Y-59029600D03*
X107599400Y-61569600D03*
X107599400Y-59029600D03*
X110139400Y-61569600D03*
X110139400Y-59029600D03*
X112679400Y-61569600D03*
X112679400Y-59029600D03*
X115219400Y-61569600D03*
X115219400Y-59029600D03*
X117759400Y-61569600D03*
X117759400Y-59029600D03*
X120299400Y-61569600D03*
X120299400Y-59029600D03*
X122839400Y-61569600D03*
X122839400Y-59029600D03*
X125379400Y-61569600D03*
X125379400Y-59029600D03*
X127919400Y-61569600D03*
X127919400Y-59029600D03*
X130459400Y-61569600D03*
X130459400Y-59029600D03*
X132999400Y-61569600D03*
X132999400Y-59029600D03*
X135539400Y-61569600D03*
X135539400Y-59029600D03*
X138079400Y-61569600D03*
X138079400Y-59029600D03*
X140619400Y-61569600D03*
X140619400Y-59029600D03*
X143159400Y-61569600D03*
X143159400Y-59029600D03*
X145699400Y-61569600D03*
X145699400Y-59029600D03*
X148239400Y-61569600D03*
X148239400Y-59029600D03*
X150779400Y-61569600D03*
X150779400Y-59029600D03*
X153319400Y-61569600D03*
X153319400Y-59029600D03*
%TD*%
D27*
%TO.C,J10*%
X65919599Y-143737999D03*
X67919599Y-145537999D03*
X67919599Y-151637999D03*
X65919599Y-149237999D03*
X67919599Y-140037999D03*
%TD*%
D18*
%TO.C,C19*%
X85060700Y-83108800D03*
X82985700Y-83108800D03*
%TD*%
D23*
%TO.C,C8*%
X87833200Y-125200500D03*
X87833200Y-127275500D03*
%TD*%
D28*
%TO.C,C23*%
X89132500Y-138112500D03*
X91207500Y-138112500D03*
%TD*%
D29*
%TO.C,Q3*%
X72832000Y-104066100D03*
X70932000Y-104066100D03*
X71882000Y-105941100D03*
%TD*%
D30*
%TO.C,J7*%
X98327600Y-142619800D03*
X97827600Y-142619800D03*
X97327600Y-142619800D03*
X96827600Y-142619800D03*
X96327600Y-142619800D03*
X95827600Y-142619800D03*
X95327600Y-142619800D03*
X94827600Y-142619800D03*
X94327600Y-142619800D03*
X93827600Y-142619800D03*
X93327600Y-142619800D03*
X92827600Y-142619800D03*
X92327600Y-142619800D03*
X91827600Y-142619800D03*
X91327600Y-142619800D03*
X90827600Y-142619800D03*
X90327600Y-142619800D03*
X89827600Y-142619800D03*
X89327600Y-142619800D03*
D31*
X101077600Y-149339800D03*
X86577600Y-149339800D03*
D32*
X86577600Y-143379800D03*
X101077600Y-143379800D03*
%TD*%
D33*
%TO.C,J9*%
X151715700Y-122260000D03*
X151715700Y-123360000D03*
X151715700Y-124460000D03*
X151715700Y-125560000D03*
X151715700Y-126660000D03*
X151715700Y-127760000D03*
X151715700Y-128860000D03*
X151715700Y-129960000D03*
X151715700Y-131060000D03*
D34*
X152215700Y-117610000D03*
D35*
X161815700Y-116710000D03*
X161815700Y-132210000D03*
D36*
X152215700Y-132210000D03*
%TD*%
D11*
%TO.C,R36*%
X41182800Y-83870800D03*
X39182800Y-83870800D03*
%TD*%
D25*
%TO.C,J8*%
X133900866Y-129039400D03*
D26*
X133900866Y-126499400D03*
X133900866Y-123959400D03*
X133900866Y-121419400D03*
X133900866Y-118879400D03*
X133900866Y-116339400D03*
%TD*%
D21*
%TO.C,R17*%
X143068800Y-121361200D03*
X145068800Y-121361200D03*
%TD*%
D13*
%TO.C,R13*%
X39014400Y-122952000D03*
X39014400Y-124952000D03*
%TD*%
D11*
%TO.C,R26*%
X63026800Y-105359200D03*
X61026800Y-105359200D03*
%TD*%
D29*
%TO.C,Q4*%
X72832000Y-108485700D03*
X70932000Y-108485700D03*
X71882000Y-110360700D03*
%TD*%
D24*
%TO.C,SW1*%
X147000400Y-141276000D03*
X147000400Y-147776000D03*
X151500400Y-147776000D03*
X151500400Y-141276000D03*
%TD*%
D13*
%TO.C,R32*%
X123444000Y-134432800D03*
X123444000Y-136432800D03*
%TD*%
D25*
%TO.C,J5*%
X31705400Y-130556000D03*
D26*
X31705400Y-128016000D03*
X31705400Y-125476000D03*
X31705400Y-122936000D03*
X31705400Y-120396000D03*
X31705400Y-117856000D03*
%TD*%
D21*
%TO.C,R18*%
X143068800Y-119227600D03*
X145068800Y-119227600D03*
%TD*%
D11*
%TO.C,R1*%
X37982400Y-141173200D03*
X35982400Y-141173200D03*
%TD*%
D37*
%TO.C,U3*%
X108741400Y-75900400D03*
X108091400Y-75900400D03*
X107441400Y-75900400D03*
X106791400Y-75900400D03*
X106141400Y-75900400D03*
X105491400Y-75900400D03*
X104841400Y-75900400D03*
X104191400Y-75900400D03*
X103541400Y-75900400D03*
X102891400Y-75900400D03*
X102891400Y-82900400D03*
X103541400Y-82900400D03*
X104191400Y-82900400D03*
X104841400Y-82900400D03*
X105491400Y-82900400D03*
X106141400Y-82900400D03*
X106791400Y-82900400D03*
X107441400Y-82900400D03*
X108091400Y-82900400D03*
X108741400Y-82900400D03*
%TD*%
D10*
%TO.C,Q1*%
X123678833Y-126456000D03*
X123678833Y-124556000D03*
X121803833Y-125506000D03*
%TD*%
D17*
%TO.C,D4*%
X52854732Y-139556600D03*
X52854732Y-137506600D03*
%TD*%
D37*
%TO.C,U4*%
X104982200Y-106278800D03*
X104332200Y-106278800D03*
X103682200Y-106278800D03*
X103032200Y-106278800D03*
X102382200Y-106278800D03*
X101732200Y-106278800D03*
X101082200Y-106278800D03*
X100432200Y-106278800D03*
X99782200Y-106278800D03*
X99132200Y-106278800D03*
X99132200Y-113278800D03*
X99782200Y-113278800D03*
X100432200Y-113278800D03*
X101082200Y-113278800D03*
X101732200Y-113278800D03*
X102382200Y-113278800D03*
X103032200Y-113278800D03*
X103682200Y-113278800D03*
X104332200Y-113278800D03*
X104982200Y-113278800D03*
%TD*%
D38*
%TO.C,U1*%
X159211600Y-88637600D03*
X157941600Y-88637600D03*
X156671600Y-88637600D03*
X155401600Y-88637600D03*
X154131600Y-88637600D03*
X152861600Y-88637600D03*
X151591600Y-88637600D03*
X150321600Y-88637600D03*
X149051600Y-88637600D03*
X147781600Y-88637600D03*
X146511600Y-88637600D03*
X145241600Y-88637600D03*
X143971600Y-88637600D03*
X142701600Y-88637600D03*
X141401600Y-88637600D03*
X140131600Y-88637600D03*
X138861600Y-88637600D03*
X137591600Y-88637600D03*
X136321600Y-88637600D03*
X136321600Y-106637600D03*
X137591600Y-106637600D03*
X138861600Y-106637600D03*
X140131600Y-106637600D03*
X141401600Y-106637600D03*
X142701600Y-106667600D03*
X143971600Y-106667600D03*
X145241600Y-106667600D03*
X146511600Y-106667600D03*
X147781600Y-106667600D03*
X149051600Y-106667600D03*
X150321600Y-106667600D03*
X151591600Y-106667600D03*
X152861600Y-106667600D03*
X154131600Y-106667600D03*
X155401600Y-106667600D03*
X156671600Y-106667600D03*
X157941600Y-106667600D03*
X159211600Y-106667600D03*
D19*
X150301600Y-96237600D03*
X153301600Y-96237600D03*
X153301600Y-97237600D03*
X150301600Y-97237600D03*
X154301600Y-99237600D03*
X154301600Y-95237600D03*
X150301600Y-98237600D03*
X151301600Y-97237600D03*
X152301600Y-99237600D03*
X150301600Y-99237600D03*
X150301600Y-95237600D03*
X152301600Y-98237600D03*
X152301600Y-97237600D03*
X154301600Y-97237600D03*
D39*
X152291600Y-97237600D03*
D19*
X153301600Y-99237600D03*
X151301600Y-99237600D03*
X151301600Y-95237600D03*
X153301600Y-98237600D03*
X154301600Y-98237600D03*
X153301600Y-95237600D03*
X151301600Y-96237600D03*
X152301600Y-96237600D03*
X154301600Y-96237600D03*
X152301600Y-95237600D03*
X151301600Y-98237600D03*
%TD*%
D12*
%TO.C,C21*%
X104775000Y-131212500D03*
X104775000Y-129137500D03*
%TD*%
D15*
%TO.C,R30*%
X140817600Y-137601200D03*
X140817600Y-135601200D03*
%TD*%
D19*
%TO.C,H1*%
X26670000Y-63667200D03*
X25079010Y-63008190D03*
X28920000Y-61417200D03*
D20*
X26670000Y-61417200D03*
D19*
X25079010Y-59826210D03*
X28260990Y-63008190D03*
X28260990Y-59826210D03*
X26670000Y-59167200D03*
X24420000Y-61417200D03*
%TD*%
D11*
%TO.C,R24*%
X73674899Y-129329799D03*
X71674899Y-129329799D03*
%TD*%
D29*
%TO.C,Q5*%
X72832000Y-112905300D03*
X70932000Y-112905300D03*
X71882000Y-114780300D03*
%TD*%
D23*
%TO.C,C5*%
X94081600Y-125200500D03*
X94081600Y-127275500D03*
%TD*%
D13*
%TO.C,R12*%
X39014400Y-117855999D03*
X39014400Y-119855999D03*
%TD*%
D11*
%TO.C,R22*%
X64615499Y-131988399D03*
X62615499Y-131988399D03*
%TD*%
D40*
%TO.C,J12*%
X162019700Y-72301800D03*
D41*
X164769700Y-74726800D03*
D42*
X164769700Y-78301800D03*
X164769700Y-71151800D03*
D40*
X162019700Y-77151800D03*
D43*
X161518500Y-76026800D03*
D44*
X162094700Y-75376800D03*
X162094700Y-74726800D03*
X162094700Y-74076800D03*
D43*
X161518500Y-73426800D03*
%TD*%
D18*
%TO.C,C11*%
X112695900Y-83108800D03*
X110620900Y-83108800D03*
%TD*%
D11*
%TO.C,R28*%
X63026800Y-103276400D03*
X61026800Y-103276400D03*
%TD*%
%TO.C,R23*%
X73674899Y-127246999D03*
X71674899Y-127246999D03*
%TD*%
D15*
%TO.C,R4*%
X102412800Y-131175000D03*
X102412800Y-129175000D03*
%TD*%
D13*
%TO.C,R38*%
X49808666Y-142764000D03*
X49808666Y-144764000D03*
%TD*%
D45*
%TO.C,J4*%
X105054400Y-49428400D03*
X107594400Y-49428400D03*
X110134400Y-49428400D03*
X112674400Y-49428400D03*
X115214400Y-49428400D03*
X117754400Y-49428400D03*
X120294400Y-49428400D03*
X122834400Y-49428400D03*
X125374400Y-49428400D03*
X127914400Y-49428400D03*
X130454400Y-49428400D03*
X132994400Y-49428400D03*
X135534400Y-49428400D03*
X138074400Y-49428400D03*
X140614400Y-49428400D03*
X143154400Y-49428400D03*
X145694400Y-49428400D03*
X148234400Y-49428400D03*
X150774400Y-49428400D03*
X153314400Y-49428400D03*
%TD*%
%TO.C,J3*%
X33909000Y-49428400D03*
X36449000Y-49428400D03*
X38989000Y-49428400D03*
X41529000Y-49428400D03*
X44069000Y-49428400D03*
X46609000Y-49428400D03*
X49149000Y-49428400D03*
X51689000Y-49428400D03*
X54229000Y-49428400D03*
X56769000Y-49428400D03*
X59309000Y-49428400D03*
X61849000Y-49428400D03*
X64389000Y-49428400D03*
X66929000Y-49428400D03*
X69469000Y-49428400D03*
X72009000Y-49428400D03*
X74549000Y-49428400D03*
X77089000Y-49428400D03*
X79629000Y-49428400D03*
X82169000Y-49428400D03*
X84709000Y-49428400D03*
X87249000Y-49428400D03*
X89789000Y-49428400D03*
X92329000Y-49428400D03*
X94869000Y-49428400D03*
%TD*%
D13*
%TO.C,R20*%
X127829866Y-119583200D03*
X127829866Y-121583200D03*
%TD*%
D37*
%TO.C,U2*%
X94923800Y-75900400D03*
X94273800Y-75900400D03*
X93623800Y-75900400D03*
X92973800Y-75900400D03*
X92323800Y-75900400D03*
X91673800Y-75900400D03*
X91023800Y-75900400D03*
X90373800Y-75900400D03*
X89723800Y-75900400D03*
X89073800Y-75900400D03*
X89073800Y-82900400D03*
X89723800Y-82900400D03*
X90373800Y-82900400D03*
X91023800Y-82900400D03*
X91673800Y-82900400D03*
X92323800Y-82900400D03*
X92973800Y-82900400D03*
X93623800Y-82900400D03*
X94273800Y-82900400D03*
X94923800Y-82900400D03*
%TD*%
D23*
%TO.C,C2*%
X100330000Y-125200500D03*
X100330000Y-127275500D03*
%TD*%
D46*
%TO.C,D1*%
X30224000Y-140890800D03*
D47*
X30224000Y-139620800D03*
X30224000Y-138350800D03*
X30224000Y-137080800D03*
%TD*%
D48*
%TO.C,J11*%
X123321600Y-144409600D03*
X120721600Y-144409600D03*
X125421600Y-144409600D03*
X118621600Y-144409600D03*
X125421600Y-141909600D03*
X118621600Y-141909600D03*
D49*
X124521600Y-149509600D03*
X119521600Y-149509600D03*
X127021600Y-141909600D03*
X117021600Y-141909600D03*
D50*
X122021600Y-148209600D03*
D51*
X129021600Y-147409600D03*
X115021600Y-147409600D03*
%TD*%
D52*
%TO.C,Conn1*%
X45086000Y-93569700D03*
D53*
X110136000Y-89469700D03*
X109836000Y-97669700D03*
X109536000Y-89469700D03*
X109236000Y-97669700D03*
X108936000Y-89469700D03*
X108636000Y-97669700D03*
X108336000Y-89469700D03*
X108036000Y-97669700D03*
X107736000Y-89469700D03*
X107436000Y-97669700D03*
X107136000Y-89469700D03*
X106836000Y-97669700D03*
X106536000Y-89469700D03*
X106236000Y-97669700D03*
X105936000Y-89469700D03*
X105636000Y-97669700D03*
X105336000Y-89469700D03*
X105036000Y-97669700D03*
X104736000Y-89469700D03*
X104436000Y-97669700D03*
X104136000Y-89469700D03*
X103836000Y-97669700D03*
X103536000Y-89469700D03*
X103236000Y-97669700D03*
X102936000Y-89469700D03*
X102636000Y-97669700D03*
X102336000Y-89469700D03*
X102036000Y-97669700D03*
X101736000Y-89469700D03*
X101436000Y-97669700D03*
X101136000Y-89469700D03*
X100836000Y-97669700D03*
X100536000Y-89469700D03*
X100236000Y-97669700D03*
X99936000Y-89469700D03*
X99636000Y-97669700D03*
X99336000Y-89469700D03*
X99036000Y-97669700D03*
X98736000Y-89469700D03*
X98436000Y-97669700D03*
X98136000Y-89469700D03*
X97836000Y-97669700D03*
X97536000Y-89469700D03*
X97236000Y-97669700D03*
X96936000Y-89469700D03*
X96636000Y-97669700D03*
X96336000Y-89469700D03*
X96036000Y-97669700D03*
X95736000Y-89469700D03*
X95436000Y-97669700D03*
X95136000Y-89469700D03*
X94836000Y-97669700D03*
X94536000Y-89469700D03*
X94236000Y-97669700D03*
X93936000Y-89469700D03*
X93636000Y-97669700D03*
X93336000Y-89469700D03*
X93036000Y-97669700D03*
X92736000Y-89469700D03*
X92436000Y-97669700D03*
X92136000Y-89469700D03*
X91836000Y-97669700D03*
X91536000Y-89469700D03*
X91236000Y-97669700D03*
X90936000Y-89469700D03*
X90636000Y-97669700D03*
X90336000Y-89469700D03*
X90036000Y-97669700D03*
X89736000Y-89469700D03*
X89436000Y-97669700D03*
X89136000Y-89469700D03*
X88836000Y-97669700D03*
X86136000Y-89469700D03*
X85836000Y-97669700D03*
X85536000Y-89469700D03*
X85236000Y-97669700D03*
X84936000Y-89469700D03*
X84636000Y-97669700D03*
X84336000Y-89469700D03*
X84036000Y-97669700D03*
X83736000Y-89469700D03*
X83436000Y-97669700D03*
X83136000Y-89469700D03*
X82836000Y-97669700D03*
X82536000Y-89469700D03*
X82236000Y-97669700D03*
X81936000Y-89469700D03*
X81636000Y-97669700D03*
X81336000Y-89469700D03*
X81036000Y-97669700D03*
X80736000Y-89469700D03*
X80436000Y-97669700D03*
X80136000Y-89469700D03*
X79836000Y-97669700D03*
X79536000Y-89469700D03*
X79236000Y-97669700D03*
X78936000Y-89469700D03*
X78636000Y-97669700D03*
X78336000Y-89469700D03*
X78036000Y-97669700D03*
X77736000Y-89469700D03*
X77436000Y-97669700D03*
X77136000Y-89469700D03*
X76836000Y-97669700D03*
X76536000Y-89469700D03*
X76236000Y-97669700D03*
X75936000Y-89469700D03*
X75636000Y-97669700D03*
X75336000Y-89469700D03*
X75036000Y-97669700D03*
X74736000Y-89469700D03*
X74436000Y-97669700D03*
X74136000Y-89469700D03*
X73836000Y-97669700D03*
X73536000Y-89469700D03*
X73236000Y-97669700D03*
X72936000Y-89469700D03*
X72636000Y-97669700D03*
X72336000Y-89469700D03*
X72036000Y-97669700D03*
X71736000Y-89469700D03*
X71436000Y-97669700D03*
X71136000Y-89469700D03*
X70836000Y-97669700D03*
X70536000Y-89469700D03*
X70236000Y-97669700D03*
X69936000Y-89469700D03*
X69636000Y-97669700D03*
X69336000Y-89469700D03*
X69036000Y-97669700D03*
X68736000Y-89469700D03*
X68436000Y-97669700D03*
X68136000Y-89469700D03*
X67836000Y-97669700D03*
X67536000Y-89469700D03*
X67236000Y-97669700D03*
X66936000Y-89469700D03*
X66636000Y-97669700D03*
X66336000Y-89469700D03*
X66036000Y-97669700D03*
X65736000Y-89469700D03*
X65436000Y-97669700D03*
X65136000Y-89469700D03*
X64836000Y-97669700D03*
X64536000Y-89469700D03*
X64236000Y-97669700D03*
X63936000Y-89469700D03*
X63636000Y-97669700D03*
X63336000Y-89469700D03*
X63036000Y-97669700D03*
X62736000Y-89469700D03*
X62436000Y-97669700D03*
X62136000Y-89469700D03*
X61836000Y-97669700D03*
X61536000Y-89469700D03*
X61236000Y-97669700D03*
X60936000Y-89469700D03*
X60636000Y-97669700D03*
X60336000Y-89469700D03*
X60036000Y-97669700D03*
X59736000Y-89469700D03*
X59436000Y-97669700D03*
X59136000Y-89469700D03*
X58836000Y-97669700D03*
X58536000Y-89469700D03*
X58236000Y-97669700D03*
X57936000Y-89469700D03*
X57636000Y-97669700D03*
X57336000Y-89469700D03*
X57036000Y-97669700D03*
X56736000Y-89469700D03*
X56436000Y-97669700D03*
X56136000Y-89469700D03*
X55836000Y-97669700D03*
X55536000Y-89469700D03*
X55236000Y-97669700D03*
X54936000Y-89469700D03*
X54636000Y-97669700D03*
X54336000Y-89469700D03*
X54036000Y-97669700D03*
X53736000Y-89469700D03*
X53436000Y-97669700D03*
X53136000Y-89469700D03*
X52836000Y-97669700D03*
X52536000Y-89469700D03*
X52236000Y-97669700D03*
X51936000Y-89469700D03*
X51636000Y-97669700D03*
X51336000Y-89469700D03*
X51036000Y-97669700D03*
X50736000Y-89469700D03*
X50436000Y-97669700D03*
X50136000Y-89469700D03*
X49836000Y-97669700D03*
X49536000Y-89469700D03*
X49236000Y-97669700D03*
X48936000Y-89469700D03*
X48636000Y-97669700D03*
X48336000Y-89469700D03*
X48036000Y-97669700D03*
X47736000Y-89469700D03*
X47436000Y-97669700D03*
X47136000Y-89469700D03*
X46836000Y-97669700D03*
D54*
X111286000Y-105569700D03*
X45686000Y-105569700D03*
%TD*%
D13*
%TO.C,R37*%
X46747600Y-142764000D03*
X46747600Y-144764000D03*
%TD*%
D15*
%TO.C,R5*%
X100330000Y-131175000D03*
X100330000Y-129175000D03*
%TD*%
D11*
%TO.C,R3*%
X37982400Y-138988800D03*
X35982400Y-138988800D03*
%TD*%
D25*
%TO.C,J1*%
X33883600Y-61569600D03*
D26*
X33883600Y-59029600D03*
X36423600Y-61569600D03*
X36423600Y-59029600D03*
X38963600Y-61569600D03*
X38963600Y-59029600D03*
X41503600Y-61569600D03*
X41503600Y-59029600D03*
X44043600Y-61569600D03*
X44043600Y-59029600D03*
X46583600Y-61569600D03*
X46583600Y-59029600D03*
X49123600Y-61569600D03*
X49123600Y-59029600D03*
X51663600Y-61569600D03*
X51663600Y-59029600D03*
X54203600Y-61569600D03*
X54203600Y-59029600D03*
X56743600Y-61569600D03*
X56743600Y-59029600D03*
X59283600Y-61569600D03*
X59283600Y-59029600D03*
X61823600Y-61569600D03*
X61823600Y-59029600D03*
X64363600Y-61569600D03*
X64363600Y-59029600D03*
X66903600Y-61569600D03*
X66903600Y-59029600D03*
X69443600Y-61569600D03*
X69443600Y-59029600D03*
X71983600Y-61569600D03*
X71983600Y-59029600D03*
X74523600Y-61569600D03*
X74523600Y-59029600D03*
X77063600Y-61569600D03*
X77063600Y-59029600D03*
X79603600Y-61569600D03*
X79603600Y-59029600D03*
X82143600Y-61569600D03*
X82143600Y-59029600D03*
X84683600Y-61569600D03*
X84683600Y-59029600D03*
X87223600Y-61569600D03*
X87223600Y-59029600D03*
X89763600Y-61569600D03*
X89763600Y-59029600D03*
X92303600Y-61569600D03*
X92303600Y-59029600D03*
X94843600Y-61569600D03*
X94843600Y-59029600D03*
%TD*%
D15*
%TO.C,R25*%
X117652800Y-121583200D03*
X117652800Y-119583200D03*
%TD*%
D17*
%TO.C,D5*%
X55885800Y-139556600D03*
X55885800Y-137506600D03*
%TD*%
D15*
%TO.C,R11*%
X87833200Y-131175000D03*
X87833200Y-129175000D03*
%TD*%
%TO.C,R9*%
X91998800Y-131175000D03*
X91998800Y-129175000D03*
%TD*%
D25*
%TO.C,J6*%
X31705400Y-107899200D03*
D26*
X31705400Y-105359200D03*
X31705400Y-102819200D03*
X31705400Y-100279200D03*
X31705400Y-97739200D03*
X31705400Y-95199200D03*
%TD*%
D18*
%TO.C,C18*%
X56866700Y-114655600D03*
X54791700Y-114655600D03*
%TD*%
D13*
%TO.C,R14*%
X39014400Y-128032000D03*
X39014400Y-130032000D03*
%TD*%
D37*
%TO.C,U5*%
X57331800Y-105110400D03*
X56681800Y-105110400D03*
X56031800Y-105110400D03*
X55381800Y-105110400D03*
X54731800Y-105110400D03*
X54081800Y-105110400D03*
X53431800Y-105110400D03*
X52781800Y-105110400D03*
X52131800Y-105110400D03*
X51481800Y-105110400D03*
X51481800Y-112110400D03*
X52131800Y-112110400D03*
X52781800Y-112110400D03*
X53431800Y-112110400D03*
X54081800Y-112110400D03*
X54731800Y-112110400D03*
X55381800Y-112110400D03*
X56031800Y-112110400D03*
X56681800Y-112110400D03*
X57331800Y-112110400D03*
%TD*%
D19*
%TO.C,H4*%
X26670000Y-149874800D03*
X28920000Y-147624800D03*
X25079010Y-146033810D03*
X26670000Y-145374800D03*
X25079010Y-149215790D03*
X28260990Y-149215790D03*
D20*
X26670000Y-147624800D03*
D19*
X24420000Y-147624800D03*
X28260990Y-146033810D03*
%TD*%
D18*
%TO.C,C10*%
X98878300Y-83108800D03*
X96803300Y-83108800D03*
%TD*%
D21*
%TO.C,R15*%
X143068800Y-123494800D03*
X145068800Y-123494800D03*
%TD*%
D15*
%TO.C,R6*%
X98247200Y-131175000D03*
X98247200Y-129175000D03*
%TD*%
D21*
%TO.C,R21*%
X62615499Y-134020399D03*
X64615499Y-134020399D03*
%TD*%
D37*
%TO.C,U6*%
X81106200Y-75900400D03*
X80456200Y-75900400D03*
X79806200Y-75900400D03*
X79156200Y-75900400D03*
X78506200Y-75900400D03*
X77856200Y-75900400D03*
X77206200Y-75900400D03*
X76556200Y-75900400D03*
X75906200Y-75900400D03*
X75256200Y-75900400D03*
X75256200Y-82900400D03*
X75906200Y-82900400D03*
X76556200Y-82900400D03*
X77206200Y-82900400D03*
X77856200Y-82900400D03*
X78506200Y-82900400D03*
X79156200Y-82900400D03*
X79806200Y-82900400D03*
X80456200Y-82900400D03*
X81106200Y-82900400D03*
%TD*%
D23*
%TO.C,C9*%
X39116000Y-105439300D03*
X39116000Y-107514300D03*
%TD*%
D18*
%TO.C,C13*%
X73661599Y-131412599D03*
X71586599Y-131412599D03*
%TD*%
D14*
%TO.C,C14*%
X62662599Y-129753199D03*
X65787599Y-129753199D03*
%TD*%
M02*
