%TF.GenerationSoftware,KiCad,Pcbnew,(6.0.9)*%
%TF.CreationDate,2022-12-28T10:19:49-08:00*%
%TF.ProjectId,NextTRS,4e657874-5452-4532-9e6b-696361645f70,rev?*%
%TF.SameCoordinates,Original*%
%TF.FileFunction,Legend,Top*%
%TF.FilePolarity,Positive*%
%FSLAX46Y46*%
G04 Gerber Fmt 4.6, Leading zero omitted, Abs format (unit mm)*
G04 Created by KiCad (PCBNEW (6.0.9)) date 2022-12-28 10:19:49*
%MOMM*%
%LPD*%
G01*
G04 APERTURE LIST*
%ADD10C,0.150000*%
%ADD11C,0.300000*%
%ADD12C,0.120000*%
%ADD13C,0.050000*%
G04 APERTURE END LIST*
D10*
X110420114Y-76347580D02*
X109848685Y-76347580D01*
X110134400Y-76347580D02*
X110134400Y-75347580D01*
X110039161Y-75490438D01*
X109943923Y-75585676D01*
X109848685Y-75633295D01*
X23183885Y-78287619D02*
X23231504Y-78240000D01*
X23326742Y-78192380D01*
X23564838Y-78192380D01*
X23660076Y-78240000D01*
X23707695Y-78287619D01*
X23755314Y-78382857D01*
X23755314Y-78478095D01*
X23707695Y-78620952D01*
X23136266Y-79192380D01*
X23755314Y-79192380D01*
X146474228Y-150855371D02*
X146807561Y-150855371D01*
X146950419Y-151379180D02*
X146474228Y-151379180D01*
X146474228Y-150379180D01*
X146950419Y-150379180D01*
X147331371Y-151331561D02*
X147474228Y-151379180D01*
X147712323Y-151379180D01*
X147807561Y-151331561D01*
X147855180Y-151283942D01*
X147902800Y-151188704D01*
X147902800Y-151093466D01*
X147855180Y-150998228D01*
X147807561Y-150950609D01*
X147712323Y-150902990D01*
X147521847Y-150855371D01*
X147426609Y-150807752D01*
X147378990Y-150760133D01*
X147331371Y-150664895D01*
X147331371Y-150569657D01*
X147378990Y-150474419D01*
X147426609Y-150426800D01*
X147521847Y-150379180D01*
X147759942Y-150379180D01*
X147902800Y-150426800D01*
X148331371Y-151379180D02*
X148331371Y-150379180D01*
X148712323Y-150379180D01*
X148807561Y-150426800D01*
X148855180Y-150474419D01*
X148902800Y-150569657D01*
X148902800Y-150712514D01*
X148855180Y-150807752D01*
X148807561Y-150855371D01*
X148712323Y-150902990D01*
X148331371Y-150902990D01*
X150664704Y-151379180D02*
X150331371Y-150902990D01*
X150093276Y-151379180D02*
X150093276Y-150379180D01*
X150474228Y-150379180D01*
X150569466Y-150426800D01*
X150617085Y-150474419D01*
X150664704Y-150569657D01*
X150664704Y-150712514D01*
X150617085Y-150807752D01*
X150569466Y-150855371D01*
X150474228Y-150902990D01*
X150093276Y-150902990D01*
X151045657Y-151331561D02*
X151188514Y-151379180D01*
X151426609Y-151379180D01*
X151521847Y-151331561D01*
X151569466Y-151283942D01*
X151617085Y-151188704D01*
X151617085Y-151093466D01*
X151569466Y-150998228D01*
X151521847Y-150950609D01*
X151426609Y-150902990D01*
X151236133Y-150855371D01*
X151140895Y-150807752D01*
X151093276Y-150760133D01*
X151045657Y-150664895D01*
X151045657Y-150569657D01*
X151093276Y-150474419D01*
X151140895Y-150426800D01*
X151236133Y-150379180D01*
X151474228Y-150379180D01*
X151617085Y-150426800D01*
X151902800Y-150379180D02*
X152474228Y-150379180D01*
X152188514Y-151379180D02*
X152188514Y-150379180D01*
X136183471Y-126944380D02*
X136183471Y-125944380D01*
X136421566Y-125944380D01*
X136564423Y-125992000D01*
X136659661Y-126087238D01*
X136707281Y-126182476D01*
X136754900Y-126372952D01*
X136754900Y-126515809D01*
X136707281Y-126706285D01*
X136659661Y-126801523D01*
X136564423Y-126896761D01*
X136421566Y-126944380D01*
X136183471Y-126944380D01*
X137040614Y-125944380D02*
X137612042Y-125944380D01*
X137326328Y-126944380D02*
X137326328Y-125944380D01*
X138516804Y-126944380D02*
X138183471Y-126468190D01*
X137945376Y-126944380D02*
X137945376Y-125944380D01*
X138326328Y-125944380D01*
X138421566Y-125992000D01*
X138469185Y-126039619D01*
X138516804Y-126134857D01*
X138516804Y-126277714D01*
X138469185Y-126372952D01*
X138421566Y-126420571D01*
X138326328Y-126468190D01*
X137945376Y-126468190D01*
X23609276Y-83656514D02*
X23609276Y-84323180D01*
X23371180Y-83275561D02*
X23133085Y-83989847D01*
X23752133Y-83989847D01*
D11*
X34382971Y-128517885D02*
X35882971Y-128017885D01*
X34382971Y-127517885D01*
X35882971Y-127017885D02*
X34882971Y-127017885D01*
X34382971Y-127017885D02*
X34454400Y-127089314D01*
X34525828Y-127017885D01*
X34454400Y-126946457D01*
X34382971Y-127017885D01*
X34525828Y-127017885D01*
X35882971Y-125660742D02*
X34382971Y-125660742D01*
X35811542Y-125660742D02*
X35882971Y-125803600D01*
X35882971Y-126089314D01*
X35811542Y-126232171D01*
X35740114Y-126303600D01*
X35597257Y-126375028D01*
X35168685Y-126375028D01*
X35025828Y-126303600D01*
X34954400Y-126232171D01*
X34882971Y-126089314D01*
X34882971Y-125803600D01*
X34954400Y-125660742D01*
X35811542Y-124375028D02*
X35882971Y-124517885D01*
X35882971Y-124803600D01*
X35811542Y-124946457D01*
X35668685Y-125017885D01*
X35097257Y-125017885D01*
X34954400Y-124946457D01*
X34882971Y-124803600D01*
X34882971Y-124517885D01*
X34954400Y-124375028D01*
X35097257Y-124303600D01*
X35240114Y-124303600D01*
X35382971Y-125017885D01*
X35882971Y-123446457D02*
X35811542Y-123589314D01*
X35740114Y-123660742D01*
X35597257Y-123732171D01*
X35168685Y-123732171D01*
X35025828Y-123660742D01*
X34954400Y-123589314D01*
X34882971Y-123446457D01*
X34882971Y-123232171D01*
X34954400Y-123089314D01*
X35025828Y-123017885D01*
X35168685Y-122946457D01*
X35597257Y-122946457D01*
X35740114Y-123017885D01*
X35811542Y-123089314D01*
X35882971Y-123232171D01*
X35882971Y-123446457D01*
X35882971Y-121160742D02*
X34382971Y-121160742D01*
X34882971Y-120446457D02*
X35882971Y-120446457D01*
X35025828Y-120446457D02*
X34954400Y-120375028D01*
X34882971Y-120232171D01*
X34882971Y-120017885D01*
X34954400Y-119875028D01*
X35097257Y-119803600D01*
X35882971Y-119803600D01*
X50819942Y-79633471D02*
X50819942Y-78133471D01*
X51677085Y-79633471D01*
X51677085Y-78133471D01*
X52962800Y-79562042D02*
X52819942Y-79633471D01*
X52534228Y-79633471D01*
X52391371Y-79562042D01*
X52319942Y-79419185D01*
X52319942Y-78847757D01*
X52391371Y-78704900D01*
X52534228Y-78633471D01*
X52819942Y-78633471D01*
X52962800Y-78704900D01*
X53034228Y-78847757D01*
X53034228Y-78990614D01*
X52319942Y-79133471D01*
X53534228Y-79633471D02*
X54319942Y-78633471D01*
X53534228Y-78633471D02*
X54319942Y-79633471D01*
X54677085Y-78633471D02*
X55248514Y-78633471D01*
X54891371Y-78133471D02*
X54891371Y-79419185D01*
X54962800Y-79562042D01*
X55105657Y-79633471D01*
X55248514Y-79633471D01*
X55534228Y-78133471D02*
X56391371Y-78133471D01*
X55962800Y-79633471D02*
X55962800Y-78133471D01*
X57748514Y-79633471D02*
X57248514Y-78919185D01*
X56891371Y-79633471D02*
X56891371Y-78133471D01*
X57462800Y-78133471D01*
X57605657Y-78204900D01*
X57677085Y-78276328D01*
X57748514Y-78419185D01*
X57748514Y-78633471D01*
X57677085Y-78776328D01*
X57605657Y-78847757D01*
X57462800Y-78919185D01*
X56891371Y-78919185D01*
X58319942Y-79562042D02*
X58534228Y-79633471D01*
X58891371Y-79633471D01*
X59034228Y-79562042D01*
X59105657Y-79490614D01*
X59177085Y-79347757D01*
X59177085Y-79204900D01*
X59105657Y-79062042D01*
X59034228Y-78990614D01*
X58891371Y-78919185D01*
X58605657Y-78847757D01*
X58462800Y-78776328D01*
X58391371Y-78704900D01*
X58319942Y-78562042D01*
X58319942Y-78419185D01*
X58391371Y-78276328D01*
X58462800Y-78204900D01*
X58605657Y-78133471D01*
X58962800Y-78133471D01*
X59177085Y-78204900D01*
X60748514Y-78133471D02*
X61248514Y-79633471D01*
X61748514Y-78133471D01*
X62534228Y-78133471D02*
X62677085Y-78133471D01*
X62819942Y-78204900D01*
X62891371Y-78276328D01*
X62962800Y-78419185D01*
X63034228Y-78704900D01*
X63034228Y-79062042D01*
X62962800Y-79347757D01*
X62891371Y-79490614D01*
X62819942Y-79562042D01*
X62677085Y-79633471D01*
X62534228Y-79633471D01*
X62391371Y-79562042D01*
X62319942Y-79490614D01*
X62248514Y-79347757D01*
X62177085Y-79062042D01*
X62177085Y-78704900D01*
X62248514Y-78419185D01*
X62319942Y-78276328D01*
X62391371Y-78204900D01*
X62534228Y-78133471D01*
X63677085Y-79490614D02*
X63748514Y-79562042D01*
X63677085Y-79633471D01*
X63605657Y-79562042D01*
X63677085Y-79490614D01*
X63677085Y-79633471D01*
X65177085Y-79633471D02*
X64319942Y-79633471D01*
X64748514Y-79633471D02*
X64748514Y-78133471D01*
X64605657Y-78347757D01*
X64462800Y-78490614D01*
X64319942Y-78562042D01*
X49427085Y-82048471D02*
X49427085Y-80548471D01*
X49784228Y-80548471D01*
X49998514Y-80619900D01*
X50141371Y-80762757D01*
X50212800Y-80905614D01*
X50284228Y-81191328D01*
X50284228Y-81405614D01*
X50212800Y-81691328D01*
X50141371Y-81834185D01*
X49998514Y-81977042D01*
X49784228Y-82048471D01*
X49427085Y-82048471D01*
X51498514Y-81977042D02*
X51355657Y-82048471D01*
X51069942Y-82048471D01*
X50927085Y-81977042D01*
X50855657Y-81834185D01*
X50855657Y-81262757D01*
X50927085Y-81119900D01*
X51069942Y-81048471D01*
X51355657Y-81048471D01*
X51498514Y-81119900D01*
X51569942Y-81262757D01*
X51569942Y-81405614D01*
X50855657Y-81548471D01*
X52855657Y-81977042D02*
X52712800Y-82048471D01*
X52427085Y-82048471D01*
X52284228Y-81977042D01*
X52212800Y-81905614D01*
X52141371Y-81762757D01*
X52141371Y-81334185D01*
X52212800Y-81191328D01*
X52284228Y-81119900D01*
X52427085Y-81048471D01*
X52712800Y-81048471D01*
X52855657Y-81119900D01*
X54069942Y-81977042D02*
X53927085Y-82048471D01*
X53641371Y-82048471D01*
X53498514Y-81977042D01*
X53427085Y-81834185D01*
X53427085Y-81262757D01*
X53498514Y-81119900D01*
X53641371Y-81048471D01*
X53927085Y-81048471D01*
X54069942Y-81119900D01*
X54141371Y-81262757D01*
X54141371Y-81405614D01*
X53427085Y-81548471D01*
X54784228Y-82048471D02*
X54784228Y-81048471D01*
X54784228Y-81191328D02*
X54855657Y-81119900D01*
X54998514Y-81048471D01*
X55212800Y-81048471D01*
X55355657Y-81119900D01*
X55427085Y-81262757D01*
X55427085Y-82048471D01*
X55427085Y-81262757D02*
X55498514Y-81119900D01*
X55641371Y-81048471D01*
X55855657Y-81048471D01*
X55998514Y-81119900D01*
X56069942Y-81262757D01*
X56069942Y-82048471D01*
X56784228Y-82048471D02*
X56784228Y-80548471D01*
X56784228Y-81119900D02*
X56927085Y-81048471D01*
X57212800Y-81048471D01*
X57355657Y-81119900D01*
X57427085Y-81191328D01*
X57498514Y-81334185D01*
X57498514Y-81762757D01*
X57427085Y-81905614D01*
X57355657Y-81977042D01*
X57212800Y-82048471D01*
X56927085Y-82048471D01*
X56784228Y-81977042D01*
X58712800Y-81977042D02*
X58569942Y-82048471D01*
X58284228Y-82048471D01*
X58141371Y-81977042D01*
X58069942Y-81834185D01*
X58069942Y-81262757D01*
X58141371Y-81119900D01*
X58284228Y-81048471D01*
X58569942Y-81048471D01*
X58712800Y-81119900D01*
X58784228Y-81262757D01*
X58784228Y-81405614D01*
X58069942Y-81548471D01*
X59427085Y-82048471D02*
X59427085Y-81048471D01*
X59427085Y-81334185D02*
X59498514Y-81191328D01*
X59569942Y-81119900D01*
X59712800Y-81048471D01*
X59855657Y-81048471D01*
X61427085Y-80691328D02*
X61498514Y-80619900D01*
X61641371Y-80548471D01*
X61998514Y-80548471D01*
X62141371Y-80619900D01*
X62212800Y-80691328D01*
X62284228Y-80834185D01*
X62284228Y-80977042D01*
X62212800Y-81191328D01*
X61355657Y-82048471D01*
X62284228Y-82048471D01*
X63212800Y-80548471D02*
X63355657Y-80548471D01*
X63498514Y-80619900D01*
X63569942Y-80691328D01*
X63641371Y-80834185D01*
X63712800Y-81119900D01*
X63712800Y-81477042D01*
X63641371Y-81762757D01*
X63569942Y-81905614D01*
X63498514Y-81977042D01*
X63355657Y-82048471D01*
X63212800Y-82048471D01*
X63069942Y-81977042D01*
X62998514Y-81905614D01*
X62927085Y-81762757D01*
X62855657Y-81477042D01*
X62855657Y-81119900D01*
X62927085Y-80834185D01*
X62998514Y-80691328D01*
X63069942Y-80619900D01*
X63212800Y-80548471D01*
X64284228Y-80691328D02*
X64355657Y-80619900D01*
X64498514Y-80548471D01*
X64855657Y-80548471D01*
X64998514Y-80619900D01*
X65069942Y-80691328D01*
X65141371Y-80834185D01*
X65141371Y-80977042D01*
X65069942Y-81191328D01*
X64212800Y-82048471D01*
X65141371Y-82048471D01*
X65712800Y-80691328D02*
X65784228Y-80619900D01*
X65927085Y-80548471D01*
X66284228Y-80548471D01*
X66427085Y-80619900D01*
X66498514Y-80691328D01*
X66569942Y-80834185D01*
X66569942Y-80977042D01*
X66498514Y-81191328D01*
X65641371Y-82048471D01*
X66569942Y-82048471D01*
D10*
X136754900Y-129535180D02*
X136421566Y-129058990D01*
X136183471Y-129535180D02*
X136183471Y-128535180D01*
X136564423Y-128535180D01*
X136659662Y-128582800D01*
X136707281Y-128630419D01*
X136754900Y-128725657D01*
X136754900Y-128868514D01*
X136707281Y-128963752D01*
X136659662Y-129011371D01*
X136564423Y-129058990D01*
X136183471Y-129058990D01*
X137040614Y-128535180D02*
X137612042Y-128535180D01*
X137326328Y-129535180D02*
X137326328Y-128535180D01*
X137897757Y-129487561D02*
X138040614Y-129535180D01*
X138278709Y-129535180D01*
X138373947Y-129487561D01*
X138421566Y-129439942D01*
X138469185Y-129344704D01*
X138469185Y-129249466D01*
X138421566Y-129154228D01*
X138373947Y-129106609D01*
X138278709Y-129058990D01*
X138088233Y-129011371D01*
X137992995Y-128963752D01*
X137945376Y-128916133D01*
X137897757Y-128820895D01*
X137897757Y-128725657D01*
X137945376Y-128630419D01*
X137992995Y-128582800D01*
X138088233Y-128535180D01*
X138326328Y-128535180D01*
X138469185Y-128582800D01*
X23085466Y-80833980D02*
X23704514Y-80833980D01*
X23371180Y-81214933D01*
X23514038Y-81214933D01*
X23609276Y-81262552D01*
X23656895Y-81310171D01*
X23704514Y-81405409D01*
X23704514Y-81643504D01*
X23656895Y-81738742D01*
X23609276Y-81786361D01*
X23514038Y-81833980D01*
X23228323Y-81833980D01*
X23133085Y-81786361D01*
X23085466Y-81738742D01*
X136707280Y-115781200D02*
X136612042Y-115733580D01*
X136469185Y-115733580D01*
X136326328Y-115781200D01*
X136231090Y-115876438D01*
X136183471Y-115971676D01*
X136135852Y-116162152D01*
X136135852Y-116305009D01*
X136183471Y-116495485D01*
X136231090Y-116590723D01*
X136326328Y-116685961D01*
X136469185Y-116733580D01*
X136564423Y-116733580D01*
X136707280Y-116685961D01*
X136754899Y-116638342D01*
X136754899Y-116305009D01*
X136564423Y-116305009D01*
X137183471Y-116733580D02*
X137183471Y-115733580D01*
X137754899Y-116733580D01*
X137754899Y-115733580D01*
X138231090Y-116733580D02*
X138231090Y-115733580D01*
X138469185Y-115733580D01*
X138612042Y-115781200D01*
X138707280Y-115876438D01*
X138754899Y-115971676D01*
X138802518Y-116162152D01*
X138802518Y-116305009D01*
X138754899Y-116495485D01*
X138707280Y-116590723D01*
X138612042Y-116685961D01*
X138469185Y-116733580D01*
X138231090Y-116733580D01*
X105289314Y-55570379D02*
X105241695Y-55617999D01*
X105146457Y-55665618D01*
X104908361Y-55665618D01*
X104813123Y-55617999D01*
X104765504Y-55570379D01*
X104717885Y-55475141D01*
X104717885Y-55379903D01*
X104765504Y-55237046D01*
X105336933Y-54665618D01*
X104717885Y-54665618D01*
X82835714Y-76347580D02*
X82264285Y-76347580D01*
X82550000Y-76347580D02*
X82550000Y-75347580D01*
X82454761Y-75490438D01*
X82359523Y-75585676D01*
X82264285Y-75633295D01*
X136040614Y-118324380D02*
X136373947Y-119324380D01*
X136707280Y-118324380D01*
X137612042Y-119229142D02*
X137564423Y-119276761D01*
X137421566Y-119324380D01*
X137326328Y-119324380D01*
X137183471Y-119276761D01*
X137088233Y-119181523D01*
X137040614Y-119086285D01*
X136992995Y-118895809D01*
X136992995Y-118752952D01*
X137040614Y-118562476D01*
X137088233Y-118467238D01*
X137183471Y-118372000D01*
X137326328Y-118324380D01*
X137421566Y-118324380D01*
X137564423Y-118372000D01*
X137612042Y-118419619D01*
X138612042Y-119229142D02*
X138564423Y-119276761D01*
X138421566Y-119324380D01*
X138326328Y-119324380D01*
X138183471Y-119276761D01*
X138088233Y-119181523D01*
X138040614Y-119086285D01*
X137992995Y-118895809D01*
X137992995Y-118752952D01*
X138040614Y-118562476D01*
X138088233Y-118467238D01*
X138183471Y-118372000D01*
X138326328Y-118324380D01*
X138421566Y-118324380D01*
X138564423Y-118372000D01*
X138612042Y-118419619D01*
X139516804Y-118324380D02*
X139040614Y-118324380D01*
X138992995Y-118800571D01*
X139040614Y-118752952D01*
X139135852Y-118705333D01*
X139373947Y-118705333D01*
X139469185Y-118752952D01*
X139516804Y-118800571D01*
X139564423Y-118895809D01*
X139564423Y-119133904D01*
X139516804Y-119229142D01*
X139469185Y-119276761D01*
X139373947Y-119324380D01*
X139135852Y-119324380D01*
X139040614Y-119276761D01*
X138992995Y-119229142D01*
X136754899Y-124404380D02*
X136421566Y-123928190D01*
X136183471Y-124404380D02*
X136183471Y-123404380D01*
X136564423Y-123404380D01*
X136659661Y-123452000D01*
X136707280Y-123499619D01*
X136754899Y-123594857D01*
X136754899Y-123737714D01*
X136707280Y-123832952D01*
X136659661Y-123880571D01*
X136564423Y-123928190D01*
X136183471Y-123928190D01*
X137088233Y-123404380D02*
X137754899Y-124404380D01*
X137754899Y-123404380D02*
X137088233Y-124404380D01*
X138135852Y-124404380D02*
X138135852Y-123404380D01*
X138373947Y-123404380D01*
X138516804Y-123452000D01*
X138612042Y-123547238D01*
X138659661Y-123642476D01*
X138707280Y-123832952D01*
X138707280Y-123975809D01*
X138659661Y-124166285D01*
X138612042Y-124261523D01*
X138516804Y-124356761D01*
X138373947Y-124404380D01*
X138135852Y-124404380D01*
X96602514Y-76347580D02*
X96031085Y-76347580D01*
X96316800Y-76347580D02*
X96316800Y-75347580D01*
X96221561Y-75490438D01*
X96126323Y-75585676D01*
X96031085Y-75633295D01*
D11*
X34433771Y-106921428D02*
X35933771Y-106421428D01*
X34433771Y-105921428D01*
X35933771Y-105421428D02*
X34933771Y-105421428D01*
X34433771Y-105421428D02*
X34505200Y-105492857D01*
X34576628Y-105421428D01*
X34505200Y-105350000D01*
X34433771Y-105421428D01*
X34576628Y-105421428D01*
X35933771Y-104064285D02*
X34433771Y-104064285D01*
X35862342Y-104064285D02*
X35933771Y-104207142D01*
X35933771Y-104492857D01*
X35862342Y-104635714D01*
X35790914Y-104707142D01*
X35648057Y-104778571D01*
X35219485Y-104778571D01*
X35076628Y-104707142D01*
X35005200Y-104635714D01*
X34933771Y-104492857D01*
X34933771Y-104207142D01*
X35005200Y-104064285D01*
X35862342Y-102778571D02*
X35933771Y-102921428D01*
X35933771Y-103207142D01*
X35862342Y-103350000D01*
X35719485Y-103421428D01*
X35148057Y-103421428D01*
X35005200Y-103350000D01*
X34933771Y-103207142D01*
X34933771Y-102921428D01*
X35005200Y-102778571D01*
X35148057Y-102707142D01*
X35290914Y-102707142D01*
X35433771Y-103421428D01*
X35933771Y-101850000D02*
X35862342Y-101992857D01*
X35790914Y-102064285D01*
X35648057Y-102135714D01*
X35219485Y-102135714D01*
X35076628Y-102064285D01*
X35005200Y-101992857D01*
X34933771Y-101850000D01*
X34933771Y-101635714D01*
X35005200Y-101492857D01*
X35076628Y-101421428D01*
X35219485Y-101350000D01*
X35648057Y-101350000D01*
X35790914Y-101421428D01*
X35862342Y-101492857D01*
X35933771Y-101635714D01*
X35933771Y-101850000D01*
X34433771Y-99278571D02*
X34433771Y-98992857D01*
X34505200Y-98850000D01*
X34648057Y-98707142D01*
X34933771Y-98635714D01*
X35433771Y-98635714D01*
X35719485Y-98707142D01*
X35862342Y-98850000D01*
X35933771Y-98992857D01*
X35933771Y-99278571D01*
X35862342Y-99421428D01*
X35719485Y-99564285D01*
X35433771Y-99635714D01*
X34933771Y-99635714D01*
X34648057Y-99564285D01*
X34505200Y-99421428D01*
X34433771Y-99278571D01*
X34933771Y-97350000D02*
X35933771Y-97350000D01*
X34933771Y-97992857D02*
X35719485Y-97992857D01*
X35862342Y-97921428D01*
X35933771Y-97778571D01*
X35933771Y-97564285D01*
X35862342Y-97421428D01*
X35790914Y-97350000D01*
X34933771Y-96850000D02*
X34933771Y-96278571D01*
X34433771Y-96635714D02*
X35719485Y-96635714D01*
X35862342Y-96564285D01*
X35933771Y-96421428D01*
X35933771Y-96278571D01*
D10*
X106711714Y-106725980D02*
X106140285Y-106725980D01*
X106426000Y-106725980D02*
X106426000Y-105725980D01*
X106330761Y-105868838D01*
X106235523Y-105964076D01*
X106140285Y-106011695D01*
X135174457Y-150675780D02*
X135174457Y-149675780D01*
X135555409Y-149675780D01*
X135650647Y-149723400D01*
X135698266Y-149771019D01*
X135745885Y-149866257D01*
X135745885Y-150009114D01*
X135698266Y-150104352D01*
X135650647Y-150151971D01*
X135555409Y-150199590D01*
X135174457Y-150199590D01*
X136031600Y-149675780D02*
X136603028Y-149675780D01*
X136317314Y-150675780D02*
X136317314Y-149675780D01*
X137507790Y-150675780D02*
X137174457Y-150199590D01*
X136936361Y-150675780D02*
X136936361Y-149675780D01*
X137317314Y-149675780D01*
X137412552Y-149723400D01*
X137460171Y-149771019D01*
X137507790Y-149866257D01*
X137507790Y-150009114D01*
X137460171Y-150104352D01*
X137412552Y-150151971D01*
X137317314Y-150199590D01*
X136936361Y-150199590D01*
X137888742Y-150628161D02*
X138031600Y-150675780D01*
X138269695Y-150675780D01*
X138364933Y-150628161D01*
X138412552Y-150580542D01*
X138460171Y-150485304D01*
X138460171Y-150390066D01*
X138412552Y-150294828D01*
X138364933Y-150247209D01*
X138269695Y-150199590D01*
X138079219Y-150151971D01*
X137983980Y-150104352D01*
X137936361Y-150056733D01*
X137888742Y-149961495D01*
X137888742Y-149866257D01*
X137936361Y-149771019D01*
X137983980Y-149723400D01*
X138079219Y-149675780D01*
X138317314Y-149675780D01*
X138460171Y-149723400D01*
X140222076Y-150675780D02*
X139888742Y-150199590D01*
X139650647Y-150675780D02*
X139650647Y-149675780D01*
X140031600Y-149675780D01*
X140126838Y-149723400D01*
X140174457Y-149771019D01*
X140222076Y-149866257D01*
X140222076Y-150009114D01*
X140174457Y-150104352D01*
X140126838Y-150151971D01*
X140031600Y-150199590D01*
X139650647Y-150199590D01*
X140603028Y-150628161D02*
X140745885Y-150675780D01*
X140983980Y-150675780D01*
X141079219Y-150628161D01*
X141126838Y-150580542D01*
X141174457Y-150485304D01*
X141174457Y-150390066D01*
X141126838Y-150294828D01*
X141079219Y-150247209D01*
X140983980Y-150199590D01*
X140793504Y-150151971D01*
X140698266Y-150104352D01*
X140650647Y-150056733D01*
X140603028Y-149961495D01*
X140603028Y-149866257D01*
X140650647Y-149771019D01*
X140698266Y-149723400D01*
X140793504Y-149675780D01*
X141031600Y-149675780D01*
X141174457Y-149723400D01*
X141460171Y-149675780D02*
X142031600Y-149675780D01*
X141745885Y-150675780D02*
X141745885Y-149675780D01*
X136364933Y-152238161D02*
X136507790Y-152285780D01*
X136745885Y-152285780D01*
X136841123Y-152238161D01*
X136888742Y-152190542D01*
X136936361Y-152095304D01*
X136936361Y-152000066D01*
X136888742Y-151904828D01*
X136841123Y-151857209D01*
X136745885Y-151809590D01*
X136555409Y-151761971D01*
X136460171Y-151714352D01*
X136412552Y-151666733D01*
X136364933Y-151571495D01*
X136364933Y-151476257D01*
X136412552Y-151381019D01*
X136460171Y-151333400D01*
X136555409Y-151285780D01*
X136793504Y-151285780D01*
X136936361Y-151333400D01*
X137222076Y-151619114D02*
X137603028Y-151619114D01*
X137364933Y-151285780D02*
X137364933Y-152142923D01*
X137412552Y-152238161D01*
X137507790Y-152285780D01*
X137603028Y-152285780D01*
X138364933Y-152285780D02*
X138364933Y-151761971D01*
X138317314Y-151666733D01*
X138222076Y-151619114D01*
X138031600Y-151619114D01*
X137936361Y-151666733D01*
X138364933Y-152238161D02*
X138269695Y-152285780D01*
X138031600Y-152285780D01*
X137936361Y-152238161D01*
X137888742Y-152142923D01*
X137888742Y-152047685D01*
X137936361Y-151952447D01*
X138031600Y-151904828D01*
X138269695Y-151904828D01*
X138364933Y-151857209D01*
X138698266Y-151619114D02*
X139079219Y-151619114D01*
X138841123Y-151285780D02*
X138841123Y-152142923D01*
X138888742Y-152238161D01*
X138983980Y-152285780D01*
X139079219Y-152285780D01*
X139841123Y-151619114D02*
X139841123Y-152285780D01*
X139412552Y-151619114D02*
X139412552Y-152142923D01*
X139460171Y-152238161D01*
X139555409Y-152285780D01*
X139698266Y-152285780D01*
X139793504Y-152238161D01*
X139841123Y-152190542D01*
X140269695Y-152238161D02*
X140364933Y-152285780D01*
X140555409Y-152285780D01*
X140650647Y-152238161D01*
X140698266Y-152142923D01*
X140698266Y-152095304D01*
X140650647Y-152000066D01*
X140555409Y-151952447D01*
X140412552Y-151952447D01*
X140317314Y-151904828D01*
X140269695Y-151809590D01*
X140269695Y-151761971D01*
X140317314Y-151666733D01*
X140412552Y-151619114D01*
X140555409Y-151619114D01*
X140650647Y-151666733D01*
X136040614Y-120864380D02*
X136612042Y-120864380D01*
X136326328Y-121864380D02*
X136326328Y-120864380D01*
X136850138Y-120864380D02*
X137516804Y-121864380D01*
X137516804Y-120864380D02*
X136850138Y-121864380D01*
X137897757Y-121864380D02*
X137897757Y-120864380D01*
X138135852Y-120864380D01*
X138278709Y-120912000D01*
X138373947Y-121007238D01*
X138421566Y-121102476D01*
X138469185Y-121292952D01*
X138469185Y-121435809D01*
X138421566Y-121626285D01*
X138373947Y-121721523D01*
X138278709Y-121816761D01*
X138135852Y-121864380D01*
X137897757Y-121864380D01*
X23755314Y-76804780D02*
X23183885Y-76804780D01*
X23469600Y-76804780D02*
X23469600Y-75804780D01*
X23374361Y-75947638D01*
X23279123Y-76042876D01*
X23183885Y-76090495D01*
X33597885Y-54614819D02*
X34169314Y-54614819D01*
X33883600Y-54614819D02*
X33883600Y-55614819D01*
X33978838Y-55471961D01*
X34074076Y-55376723D01*
X34169314Y-55329104D01*
X58959714Y-105405180D02*
X58388285Y-105405180D01*
X58674000Y-105405180D02*
X58674000Y-104405180D01*
X58578761Y-104548038D01*
X58483523Y-104643276D01*
X58388285Y-104690895D01*
%TO.C,Q2*%
X123238152Y-118034438D02*
X123190533Y-118129676D01*
X123095294Y-118224914D01*
X122952437Y-118367771D01*
X122904818Y-118463009D01*
X122904818Y-118558247D01*
X123142913Y-118510628D02*
X123095294Y-118605866D01*
X123000056Y-118701104D01*
X122809580Y-118748723D01*
X122476247Y-118748723D01*
X122285771Y-118701104D01*
X122190533Y-118605866D01*
X122142913Y-118510628D01*
X122142913Y-118320152D01*
X122190533Y-118224914D01*
X122285771Y-118129676D01*
X122476247Y-118082057D01*
X122809580Y-118082057D01*
X123000056Y-118129676D01*
X123095294Y-118224914D01*
X123142913Y-118320152D01*
X123142913Y-118510628D01*
X122238152Y-117701104D02*
X122190533Y-117653485D01*
X122142913Y-117558247D01*
X122142913Y-117320152D01*
X122190533Y-117224914D01*
X122238152Y-117177295D01*
X122333390Y-117129676D01*
X122428628Y-117129676D01*
X122571485Y-117177295D01*
X123142913Y-117748723D01*
X123142913Y-117129676D01*
%TO.C,R33*%
X42689542Y-76804780D02*
X42356209Y-76328590D01*
X42118114Y-76804780D02*
X42118114Y-75804780D01*
X42499066Y-75804780D01*
X42594304Y-75852400D01*
X42641923Y-75900019D01*
X42689542Y-75995257D01*
X42689542Y-76138114D01*
X42641923Y-76233352D01*
X42594304Y-76280971D01*
X42499066Y-76328590D01*
X42118114Y-76328590D01*
X43022876Y-75804780D02*
X43641923Y-75804780D01*
X43308590Y-76185733D01*
X43451447Y-76185733D01*
X43546685Y-76233352D01*
X43594304Y-76280971D01*
X43641923Y-76376209D01*
X43641923Y-76614304D01*
X43594304Y-76709542D01*
X43546685Y-76757161D01*
X43451447Y-76804780D01*
X43165733Y-76804780D01*
X43070495Y-76757161D01*
X43022876Y-76709542D01*
X43975257Y-75804780D02*
X44594304Y-75804780D01*
X44260971Y-76185733D01*
X44403828Y-76185733D01*
X44499066Y-76233352D01*
X44546685Y-76280971D01*
X44594304Y-76376209D01*
X44594304Y-76614304D01*
X44546685Y-76709542D01*
X44499066Y-76757161D01*
X44403828Y-76804780D01*
X44118114Y-76804780D01*
X44022876Y-76757161D01*
X43975257Y-76709542D01*
%TO.C,C17*%
X113861408Y-129372457D02*
X113909027Y-129420076D01*
X113956646Y-129562933D01*
X113956646Y-129658171D01*
X113909027Y-129801028D01*
X113813789Y-129896266D01*
X113718551Y-129943885D01*
X113528075Y-129991504D01*
X113385218Y-129991504D01*
X113194742Y-129943885D01*
X113099504Y-129896266D01*
X113004266Y-129801028D01*
X112956646Y-129658171D01*
X112956646Y-129562933D01*
X113004266Y-129420076D01*
X113051885Y-129372457D01*
X113956646Y-128420076D02*
X113956646Y-128991504D01*
X113956646Y-128705790D02*
X112956646Y-128705790D01*
X113099504Y-128801028D01*
X113194742Y-128896266D01*
X113242361Y-128991504D01*
X112956646Y-128086742D02*
X112956646Y-127420076D01*
X113956646Y-127848647D01*
%TO.C,R39*%
X53271312Y-147708857D02*
X52795122Y-148042190D01*
X53271312Y-148280285D02*
X52271312Y-148280285D01*
X52271312Y-147899333D01*
X52318932Y-147804095D01*
X52366551Y-147756476D01*
X52461789Y-147708857D01*
X52604646Y-147708857D01*
X52699884Y-147756476D01*
X52747503Y-147804095D01*
X52795122Y-147899333D01*
X52795122Y-148280285D01*
X52271312Y-147375523D02*
X52271312Y-146756476D01*
X52652265Y-147089809D01*
X52652265Y-146946952D01*
X52699884Y-146851714D01*
X52747503Y-146804095D01*
X52842741Y-146756476D01*
X53080836Y-146756476D01*
X53176074Y-146804095D01*
X53223693Y-146851714D01*
X53271312Y-146946952D01*
X53271312Y-147232666D01*
X53223693Y-147327904D01*
X53176074Y-147375523D01*
X53271312Y-146280285D02*
X53271312Y-146089809D01*
X53223693Y-145994571D01*
X53176074Y-145946952D01*
X53033217Y-145851714D01*
X52842741Y-145804095D01*
X52461789Y-145804095D01*
X52366551Y-145851714D01*
X52318932Y-145899333D01*
X52271312Y-145994571D01*
X52271312Y-146185047D01*
X52318932Y-146280285D01*
X52366551Y-146327904D01*
X52461789Y-146375523D01*
X52699884Y-146375523D01*
X52795122Y-146327904D01*
X52842741Y-146280285D01*
X52890360Y-146185047D01*
X52890360Y-145994571D01*
X52842741Y-145899333D01*
X52795122Y-145851714D01*
X52699884Y-145804095D01*
%TO.C,C15*%
X75283241Y-134106541D02*
X75235622Y-134154160D01*
X75092765Y-134201779D01*
X74997527Y-134201779D01*
X74854670Y-134154160D01*
X74759432Y-134058922D01*
X74711813Y-133963684D01*
X74664194Y-133773208D01*
X74664194Y-133630351D01*
X74711813Y-133439875D01*
X74759432Y-133344637D01*
X74854670Y-133249399D01*
X74997527Y-133201779D01*
X75092765Y-133201779D01*
X75235622Y-133249399D01*
X75283241Y-133297018D01*
X76235622Y-134201779D02*
X75664194Y-134201779D01*
X75949908Y-134201779D02*
X75949908Y-133201779D01*
X75854670Y-133344637D01*
X75759432Y-133439875D01*
X75664194Y-133487494D01*
X77140384Y-133201779D02*
X76664194Y-133201779D01*
X76616575Y-133677970D01*
X76664194Y-133630351D01*
X76759432Y-133582732D01*
X76997527Y-133582732D01*
X77092765Y-133630351D01*
X77140384Y-133677970D01*
X77188003Y-133773208D01*
X77188003Y-134011303D01*
X77140384Y-134106541D01*
X77092765Y-134154160D01*
X76997527Y-134201779D01*
X76759432Y-134201779D01*
X76664194Y-134154160D01*
X76616575Y-134106541D01*
%TO.C,R8*%
X94483180Y-133186466D02*
X94006990Y-133519800D01*
X94483180Y-133757895D02*
X93483180Y-133757895D01*
X93483180Y-133376942D01*
X93530800Y-133281704D01*
X93578419Y-133234085D01*
X93673657Y-133186466D01*
X93816514Y-133186466D01*
X93911752Y-133234085D01*
X93959371Y-133281704D01*
X94006990Y-133376942D01*
X94006990Y-133757895D01*
X93911752Y-132615038D02*
X93864133Y-132710276D01*
X93816514Y-132757895D01*
X93721276Y-132805514D01*
X93673657Y-132805514D01*
X93578419Y-132757895D01*
X93530800Y-132710276D01*
X93483180Y-132615038D01*
X93483180Y-132424561D01*
X93530800Y-132329323D01*
X93578419Y-132281704D01*
X93673657Y-132234085D01*
X93721276Y-132234085D01*
X93816514Y-132281704D01*
X93864133Y-132329323D01*
X93911752Y-132424561D01*
X93911752Y-132615038D01*
X93959371Y-132710276D01*
X94006990Y-132757895D01*
X94102228Y-132805514D01*
X94292704Y-132805514D01*
X94387942Y-132757895D01*
X94435561Y-132710276D01*
X94483180Y-132615038D01*
X94483180Y-132424561D01*
X94435561Y-132329323D01*
X94387942Y-132281704D01*
X94292704Y-132234085D01*
X94102228Y-132234085D01*
X94006990Y-132281704D01*
X93959371Y-132329323D01*
X93911752Y-132424561D01*
%TO.C,R40*%
X56423180Y-147708857D02*
X55946990Y-148042190D01*
X56423180Y-148280285D02*
X55423180Y-148280285D01*
X55423180Y-147899333D01*
X55470800Y-147804095D01*
X55518419Y-147756476D01*
X55613657Y-147708857D01*
X55756514Y-147708857D01*
X55851752Y-147756476D01*
X55899371Y-147804095D01*
X55946990Y-147899333D01*
X55946990Y-148280285D01*
X55756514Y-146851714D02*
X56423180Y-146851714D01*
X55375561Y-147089809D02*
X56089847Y-147327904D01*
X56089847Y-146708857D01*
X55423180Y-146137428D02*
X55423180Y-146042190D01*
X55470800Y-145946952D01*
X55518419Y-145899333D01*
X55613657Y-145851714D01*
X55804133Y-145804095D01*
X56042228Y-145804095D01*
X56232704Y-145851714D01*
X56327942Y-145899333D01*
X56375561Y-145946952D01*
X56423180Y-146042190D01*
X56423180Y-146137428D01*
X56375561Y-146232666D01*
X56327942Y-146280285D01*
X56232704Y-146327904D01*
X56042228Y-146375523D01*
X55804133Y-146375523D01*
X55613657Y-146327904D01*
X55518419Y-146280285D01*
X55470800Y-146232666D01*
X55423180Y-146137428D01*
%TO.C,SW3*%
X29553066Y-73545561D02*
X29695923Y-73593180D01*
X29934019Y-73593180D01*
X30029257Y-73545561D01*
X30076876Y-73497942D01*
X30124495Y-73402704D01*
X30124495Y-73307466D01*
X30076876Y-73212228D01*
X30029257Y-73164609D01*
X29934019Y-73116990D01*
X29743542Y-73069371D01*
X29648304Y-73021752D01*
X29600685Y-72974133D01*
X29553066Y-72878895D01*
X29553066Y-72783657D01*
X29600685Y-72688419D01*
X29648304Y-72640800D01*
X29743542Y-72593180D01*
X29981638Y-72593180D01*
X30124495Y-72640800D01*
X30457828Y-72593180D02*
X30695923Y-73593180D01*
X30886400Y-72878895D01*
X31076876Y-73593180D01*
X31314971Y-72593180D01*
X31600685Y-72593180D02*
X32219733Y-72593180D01*
X31886400Y-72974133D01*
X32029257Y-72974133D01*
X32124495Y-73021752D01*
X32172114Y-73069371D01*
X32219733Y-73164609D01*
X32219733Y-73402704D01*
X32172114Y-73497942D01*
X32124495Y-73545561D01*
X32029257Y-73593180D01*
X31743542Y-73593180D01*
X31648304Y-73545561D01*
X31600685Y-73497942D01*
%TO.C,R29*%
X64736742Y-101645980D02*
X64403409Y-101169790D01*
X64165314Y-101645980D02*
X64165314Y-100645980D01*
X64546266Y-100645980D01*
X64641504Y-100693600D01*
X64689123Y-100741219D01*
X64736742Y-100836457D01*
X64736742Y-100979314D01*
X64689123Y-101074552D01*
X64641504Y-101122171D01*
X64546266Y-101169790D01*
X64165314Y-101169790D01*
X65117695Y-100741219D02*
X65165314Y-100693600D01*
X65260552Y-100645980D01*
X65498647Y-100645980D01*
X65593885Y-100693600D01*
X65641504Y-100741219D01*
X65689123Y-100836457D01*
X65689123Y-100931695D01*
X65641504Y-101074552D01*
X65070076Y-101645980D01*
X65689123Y-101645980D01*
X66165314Y-101645980D02*
X66355790Y-101645980D01*
X66451028Y-101598361D01*
X66498647Y-101550742D01*
X66593885Y-101407885D01*
X66641504Y-101217409D01*
X66641504Y-100836457D01*
X66593885Y-100741219D01*
X66546266Y-100693600D01*
X66451028Y-100645980D01*
X66260552Y-100645980D01*
X66165314Y-100693600D01*
X66117695Y-100741219D01*
X66070076Y-100836457D01*
X66070076Y-101074552D01*
X66117695Y-101169790D01*
X66165314Y-101217409D01*
X66260552Y-101265028D01*
X66451028Y-101265028D01*
X66546266Y-101217409D01*
X66593885Y-101169790D01*
X66641504Y-101074552D01*
%TO.C,D3*%
X50276046Y-136424895D02*
X49276046Y-136424895D01*
X49276046Y-136186800D01*
X49323666Y-136043942D01*
X49418904Y-135948704D01*
X49514142Y-135901085D01*
X49704618Y-135853466D01*
X49847475Y-135853466D01*
X50037951Y-135901085D01*
X50133189Y-135948704D01*
X50228427Y-136043942D01*
X50276046Y-136186800D01*
X50276046Y-136424895D01*
X49276046Y-135520133D02*
X49276046Y-134901085D01*
X49656999Y-135234419D01*
X49656999Y-135091561D01*
X49704618Y-134996323D01*
X49752237Y-134948704D01*
X49847475Y-134901085D01*
X50085570Y-134901085D01*
X50180808Y-134948704D01*
X50228427Y-134996323D01*
X50276046Y-135091561D01*
X50276046Y-135377276D01*
X50228427Y-135472514D01*
X50180808Y-135520133D01*
%TO.C,C16*%
X107561142Y-115524342D02*
X107513523Y-115571961D01*
X107370666Y-115619580D01*
X107275428Y-115619580D01*
X107132571Y-115571961D01*
X107037333Y-115476723D01*
X106989714Y-115381485D01*
X106942095Y-115191009D01*
X106942095Y-115048152D01*
X106989714Y-114857676D01*
X107037333Y-114762438D01*
X107132571Y-114667200D01*
X107275428Y-114619580D01*
X107370666Y-114619580D01*
X107513523Y-114667200D01*
X107561142Y-114714819D01*
X108513523Y-115619580D02*
X107942095Y-115619580D01*
X108227809Y-115619580D02*
X108227809Y-114619580D01*
X108132571Y-114762438D01*
X108037333Y-114857676D01*
X107942095Y-114905295D01*
X109370666Y-114619580D02*
X109180190Y-114619580D01*
X109084952Y-114667200D01*
X109037333Y-114714819D01*
X108942095Y-114857676D01*
X108894476Y-115048152D01*
X108894476Y-115429104D01*
X108942095Y-115524342D01*
X108989714Y-115571961D01*
X109084952Y-115619580D01*
X109275428Y-115619580D01*
X109370666Y-115571961D01*
X109418285Y-115524342D01*
X109465904Y-115429104D01*
X109465904Y-115191009D01*
X109418285Y-115095771D01*
X109370666Y-115048152D01*
X109275428Y-115000533D01*
X109084952Y-115000533D01*
X108989714Y-115048152D01*
X108942095Y-115095771D01*
X108894476Y-115191009D01*
%TO.C,R27*%
X118003580Y-129351657D02*
X117527390Y-129684990D01*
X118003580Y-129923085D02*
X117003580Y-129923085D01*
X117003580Y-129542133D01*
X117051200Y-129446895D01*
X117098819Y-129399276D01*
X117194057Y-129351657D01*
X117336914Y-129351657D01*
X117432152Y-129399276D01*
X117479771Y-129446895D01*
X117527390Y-129542133D01*
X117527390Y-129923085D01*
X117098819Y-128970704D02*
X117051200Y-128923085D01*
X117003580Y-128827847D01*
X117003580Y-128589752D01*
X117051200Y-128494514D01*
X117098819Y-128446895D01*
X117194057Y-128399276D01*
X117289295Y-128399276D01*
X117432152Y-128446895D01*
X118003580Y-129018323D01*
X118003580Y-128399276D01*
X117003580Y-128065942D02*
X117003580Y-127399276D01*
X118003580Y-127827847D01*
%TO.C,R10*%
X90266780Y-134119857D02*
X89790590Y-134453190D01*
X90266780Y-134691285D02*
X89266780Y-134691285D01*
X89266780Y-134310333D01*
X89314400Y-134215095D01*
X89362019Y-134167476D01*
X89457257Y-134119857D01*
X89600114Y-134119857D01*
X89695352Y-134167476D01*
X89742971Y-134215095D01*
X89790590Y-134310333D01*
X89790590Y-134691285D01*
X90266780Y-133167476D02*
X90266780Y-133738904D01*
X90266780Y-133453190D02*
X89266780Y-133453190D01*
X89409638Y-133548428D01*
X89504876Y-133643666D01*
X89552495Y-133738904D01*
X89266780Y-132548428D02*
X89266780Y-132453190D01*
X89314400Y-132357952D01*
X89362019Y-132310333D01*
X89457257Y-132262714D01*
X89647733Y-132215095D01*
X89885828Y-132215095D01*
X90076304Y-132262714D01*
X90171542Y-132310333D01*
X90219161Y-132357952D01*
X90266780Y-132453190D01*
X90266780Y-132548428D01*
X90219161Y-132643666D01*
X90171542Y-132691285D01*
X90076304Y-132738904D01*
X89885828Y-132786523D01*
X89647733Y-132786523D01*
X89457257Y-132738904D01*
X89362019Y-132691285D01*
X89314400Y-132643666D01*
X89266780Y-132548428D01*
%TO.C,R35*%
X42791142Y-81833980D02*
X42457809Y-81357790D01*
X42219714Y-81833980D02*
X42219714Y-80833980D01*
X42600666Y-80833980D01*
X42695904Y-80881600D01*
X42743523Y-80929219D01*
X42791142Y-81024457D01*
X42791142Y-81167314D01*
X42743523Y-81262552D01*
X42695904Y-81310171D01*
X42600666Y-81357790D01*
X42219714Y-81357790D01*
X43124476Y-80833980D02*
X43743523Y-80833980D01*
X43410190Y-81214933D01*
X43553047Y-81214933D01*
X43648285Y-81262552D01*
X43695904Y-81310171D01*
X43743523Y-81405409D01*
X43743523Y-81643504D01*
X43695904Y-81738742D01*
X43648285Y-81786361D01*
X43553047Y-81833980D01*
X43267333Y-81833980D01*
X43172095Y-81786361D01*
X43124476Y-81738742D01*
X44648285Y-80833980D02*
X44172095Y-80833980D01*
X44124476Y-81310171D01*
X44172095Y-81262552D01*
X44267333Y-81214933D01*
X44505428Y-81214933D01*
X44600666Y-81262552D01*
X44648285Y-81310171D01*
X44695904Y-81405409D01*
X44695904Y-81643504D01*
X44648285Y-81738742D01*
X44600666Y-81786361D01*
X44505428Y-81833980D01*
X44267333Y-81833980D01*
X44172095Y-81786361D01*
X44124476Y-81738742D01*
%TO.C,D2*%
X47289980Y-136424895D02*
X46289980Y-136424895D01*
X46289980Y-136186800D01*
X46337600Y-136043942D01*
X46432838Y-135948704D01*
X46528076Y-135901085D01*
X46718552Y-135853466D01*
X46861409Y-135853466D01*
X47051885Y-135901085D01*
X47147123Y-135948704D01*
X47242361Y-136043942D01*
X47289980Y-136186800D01*
X47289980Y-136424895D01*
X46385219Y-135472514D02*
X46337600Y-135424895D01*
X46289980Y-135329657D01*
X46289980Y-135091561D01*
X46337600Y-134996323D01*
X46385219Y-134948704D01*
X46480457Y-134901085D01*
X46575695Y-134901085D01*
X46718552Y-134948704D01*
X47289980Y-135520133D01*
X47289980Y-134901085D01*
%TO.C,R7*%
X96616780Y-133186466D02*
X96140590Y-133519800D01*
X96616780Y-133757895D02*
X95616780Y-133757895D01*
X95616780Y-133376942D01*
X95664400Y-133281704D01*
X95712019Y-133234085D01*
X95807257Y-133186466D01*
X95950114Y-133186466D01*
X96045352Y-133234085D01*
X96092971Y-133281704D01*
X96140590Y-133376942D01*
X96140590Y-133757895D01*
X95616780Y-132853133D02*
X95616780Y-132186466D01*
X96616780Y-132615038D01*
%TO.C,R16*%
X146880342Y-126029980D02*
X146547009Y-125553790D01*
X146308914Y-126029980D02*
X146308914Y-125029980D01*
X146689866Y-125029980D01*
X146785104Y-125077600D01*
X146832723Y-125125219D01*
X146880342Y-125220457D01*
X146880342Y-125363314D01*
X146832723Y-125458552D01*
X146785104Y-125506171D01*
X146689866Y-125553790D01*
X146308914Y-125553790D01*
X147832723Y-126029980D02*
X147261295Y-126029980D01*
X147547009Y-126029980D02*
X147547009Y-125029980D01*
X147451771Y-125172838D01*
X147356533Y-125268076D01*
X147261295Y-125315695D01*
X148689866Y-125029980D02*
X148499390Y-125029980D01*
X148404152Y-125077600D01*
X148356533Y-125125219D01*
X148261295Y-125268076D01*
X148213676Y-125458552D01*
X148213676Y-125839504D01*
X148261295Y-125934742D01*
X148308914Y-125982361D01*
X148404152Y-126029980D01*
X148594628Y-126029980D01*
X148689866Y-125982361D01*
X148737485Y-125934742D01*
X148785104Y-125839504D01*
X148785104Y-125601409D01*
X148737485Y-125506171D01*
X148689866Y-125458552D01*
X148594628Y-125410933D01*
X148404152Y-125410933D01*
X148308914Y-125458552D01*
X148261295Y-125506171D01*
X148213676Y-125601409D01*
%TO.C,C12*%
X59569041Y-127722741D02*
X59521422Y-127770360D01*
X59378565Y-127817979D01*
X59283327Y-127817979D01*
X59140470Y-127770360D01*
X59045232Y-127675122D01*
X58997613Y-127579884D01*
X58949994Y-127389408D01*
X58949994Y-127246551D01*
X58997613Y-127056075D01*
X59045232Y-126960837D01*
X59140470Y-126865599D01*
X59283327Y-126817979D01*
X59378565Y-126817979D01*
X59521422Y-126865599D01*
X59569041Y-126913218D01*
X60521422Y-127817979D02*
X59949994Y-127817979D01*
X60235708Y-127817979D02*
X60235708Y-126817979D01*
X60140470Y-126960837D01*
X60045232Y-127056075D01*
X59949994Y-127103694D01*
X60902375Y-126913218D02*
X60949994Y-126865599D01*
X61045232Y-126817979D01*
X61283327Y-126817979D01*
X61378565Y-126865599D01*
X61426184Y-126913218D01*
X61473803Y-127008456D01*
X61473803Y-127103694D01*
X61426184Y-127246551D01*
X60854756Y-127817979D01*
X61473803Y-127817979D01*
%TO.C,C6*%
X92432142Y-123356666D02*
X92479761Y-123404285D01*
X92527380Y-123547142D01*
X92527380Y-123642380D01*
X92479761Y-123785238D01*
X92384523Y-123880476D01*
X92289285Y-123928095D01*
X92098809Y-123975714D01*
X91955952Y-123975714D01*
X91765476Y-123928095D01*
X91670238Y-123880476D01*
X91575000Y-123785238D01*
X91527380Y-123642380D01*
X91527380Y-123547142D01*
X91575000Y-123404285D01*
X91622619Y-123356666D01*
X91527380Y-122499523D02*
X91527380Y-122690000D01*
X91575000Y-122785238D01*
X91622619Y-122832857D01*
X91765476Y-122928095D01*
X91955952Y-122975714D01*
X92336904Y-122975714D01*
X92432142Y-122928095D01*
X92479761Y-122880476D01*
X92527380Y-122785238D01*
X92527380Y-122594761D01*
X92479761Y-122499523D01*
X92432142Y-122451904D01*
X92336904Y-122404285D01*
X92098809Y-122404285D01*
X92003571Y-122451904D01*
X91955952Y-122499523D01*
X91908333Y-122594761D01*
X91908333Y-122785238D01*
X91955952Y-122880476D01*
X92003571Y-122928095D01*
X92098809Y-122975714D01*
%TO.C,R34*%
X42740342Y-79293980D02*
X42407009Y-78817790D01*
X42168914Y-79293980D02*
X42168914Y-78293980D01*
X42549866Y-78293980D01*
X42645104Y-78341600D01*
X42692723Y-78389219D01*
X42740342Y-78484457D01*
X42740342Y-78627314D01*
X42692723Y-78722552D01*
X42645104Y-78770171D01*
X42549866Y-78817790D01*
X42168914Y-78817790D01*
X43073676Y-78293980D02*
X43692723Y-78293980D01*
X43359390Y-78674933D01*
X43502247Y-78674933D01*
X43597485Y-78722552D01*
X43645104Y-78770171D01*
X43692723Y-78865409D01*
X43692723Y-79103504D01*
X43645104Y-79198742D01*
X43597485Y-79246361D01*
X43502247Y-79293980D01*
X43216533Y-79293980D01*
X43121295Y-79246361D01*
X43073676Y-79198742D01*
X44549866Y-78627314D02*
X44549866Y-79293980D01*
X44311771Y-78246361D02*
X44073676Y-78960647D01*
X44692723Y-78960647D01*
%TO.C,R2*%
X39660533Y-137307580D02*
X39327200Y-136831390D01*
X39089104Y-137307580D02*
X39089104Y-136307580D01*
X39470057Y-136307580D01*
X39565295Y-136355200D01*
X39612914Y-136402819D01*
X39660533Y-136498057D01*
X39660533Y-136640914D01*
X39612914Y-136736152D01*
X39565295Y-136783771D01*
X39470057Y-136831390D01*
X39089104Y-136831390D01*
X40041485Y-136402819D02*
X40089104Y-136355200D01*
X40184342Y-136307580D01*
X40422438Y-136307580D01*
X40517676Y-136355200D01*
X40565295Y-136402819D01*
X40612914Y-136498057D01*
X40612914Y-136593295D01*
X40565295Y-136736152D01*
X39993866Y-137307580D01*
X40612914Y-137307580D01*
%TO.C,C4*%
X96559642Y-123356666D02*
X96607261Y-123404285D01*
X96654880Y-123547142D01*
X96654880Y-123642380D01*
X96607261Y-123785238D01*
X96512023Y-123880476D01*
X96416785Y-123928095D01*
X96226309Y-123975714D01*
X96083452Y-123975714D01*
X95892976Y-123928095D01*
X95797738Y-123880476D01*
X95702500Y-123785238D01*
X95654880Y-123642380D01*
X95654880Y-123547142D01*
X95702500Y-123404285D01*
X95750119Y-123356666D01*
X95988214Y-122499523D02*
X96654880Y-122499523D01*
X95607261Y-122737619D02*
X96321547Y-122975714D01*
X96321547Y-122356666D01*
%TO.C,R19*%
X128180646Y-129351657D02*
X127704456Y-129684990D01*
X128180646Y-129923085D02*
X127180646Y-129923085D01*
X127180646Y-129542133D01*
X127228266Y-129446895D01*
X127275885Y-129399276D01*
X127371123Y-129351657D01*
X127513980Y-129351657D01*
X127609218Y-129399276D01*
X127656837Y-129446895D01*
X127704456Y-129542133D01*
X127704456Y-129923085D01*
X128180646Y-128399276D02*
X128180646Y-128970704D01*
X128180646Y-128684990D02*
X127180646Y-128684990D01*
X127323504Y-128780228D01*
X127418742Y-128875466D01*
X127466361Y-128970704D01*
X128180646Y-127923085D02*
X128180646Y-127732609D01*
X128133027Y-127637371D01*
X128085408Y-127589752D01*
X127942551Y-127494514D01*
X127752075Y-127446895D01*
X127371123Y-127446895D01*
X127275885Y-127494514D01*
X127228266Y-127542133D01*
X127180646Y-127637371D01*
X127180646Y-127827847D01*
X127228266Y-127923085D01*
X127275885Y-127970704D01*
X127371123Y-128018323D01*
X127609218Y-128018323D01*
X127704456Y-127970704D01*
X127752075Y-127923085D01*
X127799694Y-127827847D01*
X127799694Y-127637371D01*
X127752075Y-127542133D01*
X127704456Y-127494514D01*
X127609218Y-127446895D01*
%TO.C,R31*%
X126233180Y-132672057D02*
X125756990Y-133005390D01*
X126233180Y-133243485D02*
X125233180Y-133243485D01*
X125233180Y-132862533D01*
X125280800Y-132767295D01*
X125328419Y-132719676D01*
X125423657Y-132672057D01*
X125566514Y-132672057D01*
X125661752Y-132719676D01*
X125709371Y-132767295D01*
X125756990Y-132862533D01*
X125756990Y-133243485D01*
X125233180Y-132338723D02*
X125233180Y-131719676D01*
X125614133Y-132053009D01*
X125614133Y-131910152D01*
X125661752Y-131814914D01*
X125709371Y-131767295D01*
X125804609Y-131719676D01*
X126042704Y-131719676D01*
X126137942Y-131767295D01*
X126185561Y-131814914D01*
X126233180Y-131910152D01*
X126233180Y-132195866D01*
X126185561Y-132291104D01*
X126137942Y-132338723D01*
X126233180Y-130767295D02*
X126233180Y-131338723D01*
X126233180Y-131053009D02*
X125233180Y-131053009D01*
X125376038Y-131148247D01*
X125471276Y-131243485D01*
X125518895Y-131338723D01*
%TO.C,C3*%
X98782142Y-123356666D02*
X98829761Y-123404285D01*
X98877380Y-123547142D01*
X98877380Y-123642380D01*
X98829761Y-123785238D01*
X98734523Y-123880476D01*
X98639285Y-123928095D01*
X98448809Y-123975714D01*
X98305952Y-123975714D01*
X98115476Y-123928095D01*
X98020238Y-123880476D01*
X97925000Y-123785238D01*
X97877380Y-123642380D01*
X97877380Y-123547142D01*
X97925000Y-123404285D01*
X97972619Y-123356666D01*
X97877380Y-123023333D02*
X97877380Y-122404285D01*
X98258333Y-122737619D01*
X98258333Y-122594761D01*
X98305952Y-122499523D01*
X98353571Y-122451904D01*
X98448809Y-122404285D01*
X98686904Y-122404285D01*
X98782142Y-122451904D01*
X98829761Y-122499523D01*
X98877380Y-122594761D01*
X98877380Y-122880476D01*
X98829761Y-122975714D01*
X98782142Y-123023333D01*
%TO.C,C7*%
X90527142Y-123356666D02*
X90574761Y-123404285D01*
X90622380Y-123547142D01*
X90622380Y-123642380D01*
X90574761Y-123785238D01*
X90479523Y-123880476D01*
X90384285Y-123928095D01*
X90193809Y-123975714D01*
X90050952Y-123975714D01*
X89860476Y-123928095D01*
X89765238Y-123880476D01*
X89670000Y-123785238D01*
X89622380Y-123642380D01*
X89622380Y-123547142D01*
X89670000Y-123404285D01*
X89717619Y-123356666D01*
X89622380Y-123023333D02*
X89622380Y-122356666D01*
X90622380Y-122785238D01*
%TO.C,C1*%
X102769942Y-123356666D02*
X102817561Y-123404285D01*
X102865180Y-123547142D01*
X102865180Y-123642380D01*
X102817561Y-123785238D01*
X102722323Y-123880476D01*
X102627085Y-123928095D01*
X102436609Y-123975714D01*
X102293752Y-123975714D01*
X102103276Y-123928095D01*
X102008038Y-123880476D01*
X101912800Y-123785238D01*
X101865180Y-123642380D01*
X101865180Y-123547142D01*
X101912800Y-123404285D01*
X101960419Y-123356666D01*
X102865180Y-122404285D02*
X102865180Y-122975714D01*
X102865180Y-122690000D02*
X101865180Y-122690000D01*
X102008038Y-122785238D01*
X102103276Y-122880476D01*
X102150895Y-122975714D01*
%TO.C,SW2*%
X134912266Y-139139561D02*
X135055123Y-139187180D01*
X135293219Y-139187180D01*
X135388457Y-139139561D01*
X135436076Y-139091942D01*
X135483695Y-138996704D01*
X135483695Y-138901466D01*
X135436076Y-138806228D01*
X135388457Y-138758609D01*
X135293219Y-138710990D01*
X135102742Y-138663371D01*
X135007504Y-138615752D01*
X134959885Y-138568133D01*
X134912266Y-138472895D01*
X134912266Y-138377657D01*
X134959885Y-138282419D01*
X135007504Y-138234800D01*
X135102742Y-138187180D01*
X135340838Y-138187180D01*
X135483695Y-138234800D01*
X135817028Y-138187180D02*
X136055123Y-139187180D01*
X136245600Y-138472895D01*
X136436076Y-139187180D01*
X136674171Y-138187180D01*
X137007504Y-138282419D02*
X137055123Y-138234800D01*
X137150361Y-138187180D01*
X137388457Y-138187180D01*
X137483695Y-138234800D01*
X137531314Y-138282419D01*
X137578933Y-138377657D01*
X137578933Y-138472895D01*
X137531314Y-138615752D01*
X136959885Y-139187180D01*
X137578933Y-139187180D01*
%TO.C,J10*%
X64163676Y-137018780D02*
X64163676Y-137733066D01*
X64116057Y-137875923D01*
X64020819Y-137971161D01*
X63877961Y-138018780D01*
X63782723Y-138018780D01*
X65163676Y-138018780D02*
X64592247Y-138018780D01*
X64877961Y-138018780D02*
X64877961Y-137018780D01*
X64782723Y-137161638D01*
X64687485Y-137256876D01*
X64592247Y-137304495D01*
X65782723Y-137018780D02*
X65877961Y-137018780D01*
X65973200Y-137066400D01*
X66020819Y-137114019D01*
X66068438Y-137209257D01*
X66116057Y-137399733D01*
X66116057Y-137637828D01*
X66068438Y-137828304D01*
X66020819Y-137923542D01*
X65973200Y-137971161D01*
X65877961Y-138018780D01*
X65782723Y-138018780D01*
X65687485Y-137971161D01*
X65639866Y-137923542D01*
X65592247Y-137828304D01*
X65544628Y-137637828D01*
X65544628Y-137399733D01*
X65592247Y-137209257D01*
X65639866Y-137114019D01*
X65687485Y-137066400D01*
X65782723Y-137018780D01*
%TO.C,C19*%
X83380342Y-85145942D02*
X83332723Y-85193561D01*
X83189866Y-85241180D01*
X83094628Y-85241180D01*
X82951771Y-85193561D01*
X82856533Y-85098323D01*
X82808914Y-85003085D01*
X82761295Y-84812609D01*
X82761295Y-84669752D01*
X82808914Y-84479276D01*
X82856533Y-84384038D01*
X82951771Y-84288800D01*
X83094628Y-84241180D01*
X83189866Y-84241180D01*
X83332723Y-84288800D01*
X83380342Y-84336419D01*
X84332723Y-85241180D02*
X83761295Y-85241180D01*
X84047009Y-85241180D02*
X84047009Y-84241180D01*
X83951771Y-84384038D01*
X83856533Y-84479276D01*
X83761295Y-84526895D01*
X84808914Y-85241180D02*
X84999390Y-85241180D01*
X85094628Y-85193561D01*
X85142247Y-85145942D01*
X85237485Y-85003085D01*
X85285104Y-84812609D01*
X85285104Y-84431657D01*
X85237485Y-84336419D01*
X85189866Y-84288800D01*
X85094628Y-84241180D01*
X84904152Y-84241180D01*
X84808914Y-84288800D01*
X84761295Y-84336419D01*
X84713676Y-84431657D01*
X84713676Y-84669752D01*
X84761295Y-84764990D01*
X84808914Y-84812609D01*
X84904152Y-84860228D01*
X85094628Y-84860228D01*
X85189866Y-84812609D01*
X85237485Y-84764990D01*
X85285104Y-84669752D01*
%TO.C,C8*%
X88190342Y-123356666D02*
X88237961Y-123404285D01*
X88285580Y-123547142D01*
X88285580Y-123642380D01*
X88237961Y-123785238D01*
X88142723Y-123880476D01*
X88047485Y-123928095D01*
X87857009Y-123975714D01*
X87714152Y-123975714D01*
X87523676Y-123928095D01*
X87428438Y-123880476D01*
X87333200Y-123785238D01*
X87285580Y-123642380D01*
X87285580Y-123547142D01*
X87333200Y-123404285D01*
X87380819Y-123356666D01*
X87714152Y-122785238D02*
X87666533Y-122880476D01*
X87618914Y-122928095D01*
X87523676Y-122975714D01*
X87476057Y-122975714D01*
X87380819Y-122928095D01*
X87333200Y-122880476D01*
X87285580Y-122785238D01*
X87285580Y-122594761D01*
X87333200Y-122499523D01*
X87380819Y-122451904D01*
X87476057Y-122404285D01*
X87523676Y-122404285D01*
X87618914Y-122451904D01*
X87666533Y-122499523D01*
X87714152Y-122594761D01*
X87714152Y-122785238D01*
X87761771Y-122880476D01*
X87809390Y-122928095D01*
X87904628Y-122975714D01*
X88095104Y-122975714D01*
X88190342Y-122928095D01*
X88237961Y-122880476D01*
X88285580Y-122785238D01*
X88285580Y-122594761D01*
X88237961Y-122499523D01*
X88190342Y-122451904D01*
X88095104Y-122404285D01*
X87904628Y-122404285D01*
X87809390Y-122451904D01*
X87761771Y-122499523D01*
X87714152Y-122594761D01*
%TO.C,C23*%
X89527142Y-136789642D02*
X89479523Y-136837261D01*
X89336666Y-136884880D01*
X89241428Y-136884880D01*
X89098571Y-136837261D01*
X89003333Y-136742023D01*
X88955714Y-136646785D01*
X88908095Y-136456309D01*
X88908095Y-136313452D01*
X88955714Y-136122976D01*
X89003333Y-136027738D01*
X89098571Y-135932500D01*
X89241428Y-135884880D01*
X89336666Y-135884880D01*
X89479523Y-135932500D01*
X89527142Y-135980119D01*
X89908095Y-135980119D02*
X89955714Y-135932500D01*
X90050952Y-135884880D01*
X90289047Y-135884880D01*
X90384285Y-135932500D01*
X90431904Y-135980119D01*
X90479523Y-136075357D01*
X90479523Y-136170595D01*
X90431904Y-136313452D01*
X89860476Y-136884880D01*
X90479523Y-136884880D01*
X90812857Y-135884880D02*
X91431904Y-135884880D01*
X91098571Y-136265833D01*
X91241428Y-136265833D01*
X91336666Y-136313452D01*
X91384285Y-136361071D01*
X91431904Y-136456309D01*
X91431904Y-136694404D01*
X91384285Y-136789642D01*
X91336666Y-136837261D01*
X91241428Y-136884880D01*
X90955714Y-136884880D01*
X90860476Y-136837261D01*
X90812857Y-136789642D01*
%TO.C,Q3*%
X74529961Y-105652819D02*
X74434723Y-105605200D01*
X74339485Y-105509961D01*
X74196628Y-105367104D01*
X74101390Y-105319485D01*
X74006152Y-105319485D01*
X74053771Y-105557580D02*
X73958533Y-105509961D01*
X73863295Y-105414723D01*
X73815676Y-105224247D01*
X73815676Y-104890914D01*
X73863295Y-104700438D01*
X73958533Y-104605200D01*
X74053771Y-104557580D01*
X74244247Y-104557580D01*
X74339485Y-104605200D01*
X74434723Y-104700438D01*
X74482342Y-104890914D01*
X74482342Y-105224247D01*
X74434723Y-105414723D01*
X74339485Y-105509961D01*
X74244247Y-105557580D01*
X74053771Y-105557580D01*
X74815676Y-104557580D02*
X75434723Y-104557580D01*
X75101390Y-104938533D01*
X75244247Y-104938533D01*
X75339485Y-104986152D01*
X75387104Y-105033771D01*
X75434723Y-105129009D01*
X75434723Y-105367104D01*
X75387104Y-105462342D01*
X75339485Y-105509961D01*
X75244247Y-105557580D01*
X74958533Y-105557580D01*
X74863295Y-105509961D01*
X74815676Y-105462342D01*
%TO.C,J7*%
X101114266Y-139812780D02*
X101114266Y-140527066D01*
X101066647Y-140669923D01*
X100971409Y-140765161D01*
X100828552Y-140812780D01*
X100733314Y-140812780D01*
X101495219Y-139812780D02*
X102161885Y-139812780D01*
X101733314Y-140812780D01*
%TO.C,J9*%
X162382366Y-123912380D02*
X162382366Y-124626666D01*
X162334747Y-124769523D01*
X162239509Y-124864761D01*
X162096652Y-124912380D01*
X162001414Y-124912380D01*
X162906176Y-124912380D02*
X163096652Y-124912380D01*
X163191890Y-124864761D01*
X163239509Y-124817142D01*
X163334747Y-124674285D01*
X163382366Y-124483809D01*
X163382366Y-124102857D01*
X163334747Y-124007619D01*
X163287128Y-123960000D01*
X163191890Y-123912380D01*
X163001414Y-123912380D01*
X162906176Y-123960000D01*
X162858557Y-124007619D01*
X162810938Y-124102857D01*
X162810938Y-124340952D01*
X162858557Y-124436190D01*
X162906176Y-124483809D01*
X163001414Y-124531428D01*
X163191890Y-124531428D01*
X163287128Y-124483809D01*
X163334747Y-124436190D01*
X163382366Y-124340952D01*
%TO.C,R36*%
X42791142Y-84323180D02*
X42457809Y-83846990D01*
X42219714Y-84323180D02*
X42219714Y-83323180D01*
X42600666Y-83323180D01*
X42695904Y-83370800D01*
X42743523Y-83418419D01*
X42791142Y-83513657D01*
X42791142Y-83656514D01*
X42743523Y-83751752D01*
X42695904Y-83799371D01*
X42600666Y-83846990D01*
X42219714Y-83846990D01*
X43124476Y-83323180D02*
X43743523Y-83323180D01*
X43410190Y-83704133D01*
X43553047Y-83704133D01*
X43648285Y-83751752D01*
X43695904Y-83799371D01*
X43743523Y-83894609D01*
X43743523Y-84132704D01*
X43695904Y-84227942D01*
X43648285Y-84275561D01*
X43553047Y-84323180D01*
X43267333Y-84323180D01*
X43172095Y-84275561D01*
X43124476Y-84227942D01*
X44600666Y-83323180D02*
X44410190Y-83323180D01*
X44314952Y-83370800D01*
X44267333Y-83418419D01*
X44172095Y-83561276D01*
X44124476Y-83751752D01*
X44124476Y-84132704D01*
X44172095Y-84227942D01*
X44219714Y-84275561D01*
X44314952Y-84323180D01*
X44505428Y-84323180D01*
X44600666Y-84275561D01*
X44648285Y-84227942D01*
X44695904Y-84132704D01*
X44695904Y-83894609D01*
X44648285Y-83799371D01*
X44600666Y-83751752D01*
X44505428Y-83704133D01*
X44314952Y-83704133D01*
X44219714Y-83751752D01*
X44172095Y-83799371D01*
X44124476Y-83894609D01*
%TO.C,J8*%
X133567532Y-131261780D02*
X133567532Y-131976066D01*
X133519913Y-132118923D01*
X133424675Y-132214161D01*
X133281818Y-132261780D01*
X133186580Y-132261780D01*
X134186580Y-131690352D02*
X134091342Y-131642733D01*
X134043723Y-131595114D01*
X133996104Y-131499876D01*
X133996104Y-131452257D01*
X134043723Y-131357019D01*
X134091342Y-131309400D01*
X134186580Y-131261780D01*
X134377056Y-131261780D01*
X134472294Y-131309400D01*
X134519913Y-131357019D01*
X134567532Y-131452257D01*
X134567532Y-131499876D01*
X134519913Y-131595114D01*
X134472294Y-131642733D01*
X134377056Y-131690352D01*
X134186580Y-131690352D01*
X134091342Y-131737971D01*
X134043723Y-131785590D01*
X133996104Y-131880828D01*
X133996104Y-132071304D01*
X134043723Y-132166542D01*
X134091342Y-132214161D01*
X134186580Y-132261780D01*
X134377056Y-132261780D01*
X134472294Y-132214161D01*
X134519913Y-132166542D01*
X134567532Y-132071304D01*
X134567532Y-131880828D01*
X134519913Y-131785590D01*
X134472294Y-131737971D01*
X134377056Y-131690352D01*
%TO.C,R17*%
X146727942Y-121813580D02*
X146394609Y-121337390D01*
X146156514Y-121813580D02*
X146156514Y-120813580D01*
X146537466Y-120813580D01*
X146632704Y-120861200D01*
X146680323Y-120908819D01*
X146727942Y-121004057D01*
X146727942Y-121146914D01*
X146680323Y-121242152D01*
X146632704Y-121289771D01*
X146537466Y-121337390D01*
X146156514Y-121337390D01*
X147680323Y-121813580D02*
X147108895Y-121813580D01*
X147394609Y-121813580D02*
X147394609Y-120813580D01*
X147299371Y-120956438D01*
X147204133Y-121051676D01*
X147108895Y-121099295D01*
X148013657Y-120813580D02*
X148680323Y-120813580D01*
X148251752Y-121813580D01*
%TO.C,R13*%
X41116780Y-124594857D02*
X40640590Y-124928190D01*
X41116780Y-125166285D02*
X40116780Y-125166285D01*
X40116780Y-124785333D01*
X40164400Y-124690095D01*
X40212019Y-124642476D01*
X40307257Y-124594857D01*
X40450114Y-124594857D01*
X40545352Y-124642476D01*
X40592971Y-124690095D01*
X40640590Y-124785333D01*
X40640590Y-125166285D01*
X41116780Y-123642476D02*
X41116780Y-124213904D01*
X41116780Y-123928190D02*
X40116780Y-123928190D01*
X40259638Y-124023428D01*
X40354876Y-124118666D01*
X40402495Y-124213904D01*
X40116780Y-123309142D02*
X40116780Y-122690095D01*
X40497733Y-123023428D01*
X40497733Y-122880571D01*
X40545352Y-122785333D01*
X40592971Y-122737714D01*
X40688209Y-122690095D01*
X40926304Y-122690095D01*
X41021542Y-122737714D01*
X41069161Y-122785333D01*
X41116780Y-122880571D01*
X41116780Y-123166285D01*
X41069161Y-123261523D01*
X41021542Y-123309142D01*
%TO.C,R26*%
X64736742Y-105811580D02*
X64403409Y-105335390D01*
X64165314Y-105811580D02*
X64165314Y-104811580D01*
X64546266Y-104811580D01*
X64641504Y-104859200D01*
X64689123Y-104906819D01*
X64736742Y-105002057D01*
X64736742Y-105144914D01*
X64689123Y-105240152D01*
X64641504Y-105287771D01*
X64546266Y-105335390D01*
X64165314Y-105335390D01*
X65117695Y-104906819D02*
X65165314Y-104859200D01*
X65260552Y-104811580D01*
X65498647Y-104811580D01*
X65593885Y-104859200D01*
X65641504Y-104906819D01*
X65689123Y-105002057D01*
X65689123Y-105097295D01*
X65641504Y-105240152D01*
X65070076Y-105811580D01*
X65689123Y-105811580D01*
X66546266Y-104811580D02*
X66355790Y-104811580D01*
X66260552Y-104859200D01*
X66212933Y-104906819D01*
X66117695Y-105049676D01*
X66070076Y-105240152D01*
X66070076Y-105621104D01*
X66117695Y-105716342D01*
X66165314Y-105763961D01*
X66260552Y-105811580D01*
X66451028Y-105811580D01*
X66546266Y-105763961D01*
X66593885Y-105716342D01*
X66641504Y-105621104D01*
X66641504Y-105383009D01*
X66593885Y-105287771D01*
X66546266Y-105240152D01*
X66451028Y-105192533D01*
X66260552Y-105192533D01*
X66165314Y-105240152D01*
X66117695Y-105287771D01*
X66070076Y-105383009D01*
%TO.C,Q4*%
X74529961Y-109970819D02*
X74434723Y-109923200D01*
X74339485Y-109827961D01*
X74196628Y-109685104D01*
X74101390Y-109637485D01*
X74006152Y-109637485D01*
X74053771Y-109875580D02*
X73958533Y-109827961D01*
X73863295Y-109732723D01*
X73815676Y-109542247D01*
X73815676Y-109208914D01*
X73863295Y-109018438D01*
X73958533Y-108923200D01*
X74053771Y-108875580D01*
X74244247Y-108875580D01*
X74339485Y-108923200D01*
X74434723Y-109018438D01*
X74482342Y-109208914D01*
X74482342Y-109542247D01*
X74434723Y-109732723D01*
X74339485Y-109827961D01*
X74244247Y-109875580D01*
X74053771Y-109875580D01*
X75339485Y-109208914D02*
X75339485Y-109875580D01*
X75101390Y-108827961D02*
X74863295Y-109542247D01*
X75482342Y-109542247D01*
%TO.C,SW1*%
X145834266Y-139291961D02*
X145977123Y-139339580D01*
X146215219Y-139339580D01*
X146310457Y-139291961D01*
X146358076Y-139244342D01*
X146405695Y-139149104D01*
X146405695Y-139053866D01*
X146358076Y-138958628D01*
X146310457Y-138911009D01*
X146215219Y-138863390D01*
X146024742Y-138815771D01*
X145929504Y-138768152D01*
X145881885Y-138720533D01*
X145834266Y-138625295D01*
X145834266Y-138530057D01*
X145881885Y-138434819D01*
X145929504Y-138387200D01*
X146024742Y-138339580D01*
X146262838Y-138339580D01*
X146405695Y-138387200D01*
X146739028Y-138339580D02*
X146977123Y-139339580D01*
X147167600Y-138625295D01*
X147358076Y-139339580D01*
X147596171Y-138339580D01*
X148500933Y-139339580D02*
X147929504Y-139339580D01*
X148215219Y-139339580D02*
X148215219Y-138339580D01*
X148119980Y-138482438D01*
X148024742Y-138577676D01*
X147929504Y-138625295D01*
%TO.C,R32*%
X123947180Y-132773657D02*
X123470990Y-133106990D01*
X123947180Y-133345085D02*
X122947180Y-133345085D01*
X122947180Y-132964133D01*
X122994800Y-132868895D01*
X123042419Y-132821276D01*
X123137657Y-132773657D01*
X123280514Y-132773657D01*
X123375752Y-132821276D01*
X123423371Y-132868895D01*
X123470990Y-132964133D01*
X123470990Y-133345085D01*
X122947180Y-132440323D02*
X122947180Y-131821276D01*
X123328133Y-132154609D01*
X123328133Y-132011752D01*
X123375752Y-131916514D01*
X123423371Y-131868895D01*
X123518609Y-131821276D01*
X123756704Y-131821276D01*
X123851942Y-131868895D01*
X123899561Y-131916514D01*
X123947180Y-132011752D01*
X123947180Y-132297466D01*
X123899561Y-132392704D01*
X123851942Y-132440323D01*
X123042419Y-131440323D02*
X122994800Y-131392704D01*
X122947180Y-131297466D01*
X122947180Y-131059371D01*
X122994800Y-130964133D01*
X123042419Y-130916514D01*
X123137657Y-130868895D01*
X123232895Y-130868895D01*
X123375752Y-130916514D01*
X123947180Y-131487942D01*
X123947180Y-130868895D01*
%TO.C,J5*%
X26987066Y-132278380D02*
X26987066Y-132992666D01*
X26939447Y-133135523D01*
X26844209Y-133230761D01*
X26701352Y-133278380D01*
X26606114Y-133278380D01*
X27939447Y-132278380D02*
X27463257Y-132278380D01*
X27415638Y-132754571D01*
X27463257Y-132706952D01*
X27558495Y-132659333D01*
X27796590Y-132659333D01*
X27891828Y-132706952D01*
X27939447Y-132754571D01*
X27987066Y-132849809D01*
X27987066Y-133087904D01*
X27939447Y-133183142D01*
X27891828Y-133230761D01*
X27796590Y-133278380D01*
X27558495Y-133278380D01*
X27463257Y-133230761D01*
X27415638Y-133183142D01*
%TO.C,R18*%
X146778742Y-119781580D02*
X146445409Y-119305390D01*
X146207314Y-119781580D02*
X146207314Y-118781580D01*
X146588266Y-118781580D01*
X146683504Y-118829200D01*
X146731123Y-118876819D01*
X146778742Y-118972057D01*
X146778742Y-119114914D01*
X146731123Y-119210152D01*
X146683504Y-119257771D01*
X146588266Y-119305390D01*
X146207314Y-119305390D01*
X147731123Y-119781580D02*
X147159695Y-119781580D01*
X147445409Y-119781580D02*
X147445409Y-118781580D01*
X147350171Y-118924438D01*
X147254933Y-119019676D01*
X147159695Y-119067295D01*
X148302552Y-119210152D02*
X148207314Y-119162533D01*
X148159695Y-119114914D01*
X148112076Y-119019676D01*
X148112076Y-118972057D01*
X148159695Y-118876819D01*
X148207314Y-118829200D01*
X148302552Y-118781580D01*
X148493028Y-118781580D01*
X148588266Y-118829200D01*
X148635885Y-118876819D01*
X148683504Y-118972057D01*
X148683504Y-119019676D01*
X148635885Y-119114914D01*
X148588266Y-119162533D01*
X148493028Y-119210152D01*
X148302552Y-119210152D01*
X148207314Y-119257771D01*
X148159695Y-119305390D01*
X148112076Y-119400628D01*
X148112076Y-119591104D01*
X148159695Y-119686342D01*
X148207314Y-119733961D01*
X148302552Y-119781580D01*
X148493028Y-119781580D01*
X148588266Y-119733961D01*
X148635885Y-119686342D01*
X148683504Y-119591104D01*
X148683504Y-119400628D01*
X148635885Y-119305390D01*
X148588266Y-119257771D01*
X148493028Y-119210152D01*
%TO.C,R1*%
X39711333Y-141574780D02*
X39378000Y-141098590D01*
X39139904Y-141574780D02*
X39139904Y-140574780D01*
X39520857Y-140574780D01*
X39616095Y-140622400D01*
X39663714Y-140670019D01*
X39711333Y-140765257D01*
X39711333Y-140908114D01*
X39663714Y-141003352D01*
X39616095Y-141050971D01*
X39520857Y-141098590D01*
X39139904Y-141098590D01*
X40663714Y-141574780D02*
X40092285Y-141574780D01*
X40378000Y-141574780D02*
X40378000Y-140574780D01*
X40282761Y-140717638D01*
X40187523Y-140812876D01*
X40092285Y-140860495D01*
%TO.C,U3*%
X109931295Y-78852780D02*
X109931295Y-79662304D01*
X109978914Y-79757542D01*
X110026533Y-79805161D01*
X110121771Y-79852780D01*
X110312247Y-79852780D01*
X110407485Y-79805161D01*
X110455104Y-79757542D01*
X110502723Y-79662304D01*
X110502723Y-78852780D01*
X110883676Y-78852780D02*
X111502723Y-78852780D01*
X111169390Y-79233733D01*
X111312247Y-79233733D01*
X111407485Y-79281352D01*
X111455104Y-79328971D01*
X111502723Y-79424209D01*
X111502723Y-79662304D01*
X111455104Y-79757542D01*
X111407485Y-79805161D01*
X111312247Y-79852780D01*
X111026533Y-79852780D01*
X110931295Y-79805161D01*
X110883676Y-79757542D01*
%TO.C,Q1*%
X123288952Y-128496838D02*
X123241333Y-128592076D01*
X123146094Y-128687314D01*
X123003237Y-128830171D01*
X122955618Y-128925409D01*
X122955618Y-129020647D01*
X123193713Y-128973028D02*
X123146094Y-129068266D01*
X123050856Y-129163504D01*
X122860380Y-129211123D01*
X122527047Y-129211123D01*
X122336571Y-129163504D01*
X122241333Y-129068266D01*
X122193713Y-128973028D01*
X122193713Y-128782552D01*
X122241333Y-128687314D01*
X122336571Y-128592076D01*
X122527047Y-128544457D01*
X122860380Y-128544457D01*
X123050856Y-128592076D01*
X123146094Y-128687314D01*
X123193713Y-128782552D01*
X123193713Y-128973028D01*
X123193713Y-127592076D02*
X123193713Y-128163504D01*
X123193713Y-127877790D02*
X122193713Y-127877790D01*
X122336571Y-127973028D01*
X122431809Y-128068266D01*
X122479428Y-128163504D01*
%TO.C,D4*%
X53307112Y-136424895D02*
X52307112Y-136424895D01*
X52307112Y-136186800D01*
X52354732Y-136043942D01*
X52449970Y-135948704D01*
X52545208Y-135901085D01*
X52735684Y-135853466D01*
X52878541Y-135853466D01*
X53069017Y-135901085D01*
X53164255Y-135948704D01*
X53259493Y-136043942D01*
X53307112Y-136186800D01*
X53307112Y-136424895D01*
X52640446Y-134996323D02*
X53307112Y-134996323D01*
X52259493Y-135234419D02*
X52973779Y-135472514D01*
X52973779Y-134853466D01*
%TO.C,U4*%
X106121295Y-109231180D02*
X106121295Y-110040704D01*
X106168914Y-110135942D01*
X106216533Y-110183561D01*
X106311771Y-110231180D01*
X106502247Y-110231180D01*
X106597485Y-110183561D01*
X106645104Y-110135942D01*
X106692723Y-110040704D01*
X106692723Y-109231180D01*
X107597485Y-109564514D02*
X107597485Y-110231180D01*
X107359390Y-109183561D02*
X107121295Y-109897847D01*
X107740342Y-109897847D01*
%TO.C,U1*%
X158739695Y-96989980D02*
X158739695Y-97799504D01*
X158787314Y-97894742D01*
X158834933Y-97942361D01*
X158930171Y-97989980D01*
X159120647Y-97989980D01*
X159215885Y-97942361D01*
X159263504Y-97894742D01*
X159311123Y-97799504D01*
X159311123Y-96989980D01*
X160311123Y-97989980D02*
X159739695Y-97989980D01*
X160025409Y-97989980D02*
X160025409Y-96989980D01*
X159930171Y-97132838D01*
X159834933Y-97228076D01*
X159739695Y-97275695D01*
%TO.C,C21*%
X105132142Y-133992857D02*
X105179761Y-134040476D01*
X105227380Y-134183333D01*
X105227380Y-134278571D01*
X105179761Y-134421428D01*
X105084523Y-134516666D01*
X104989285Y-134564285D01*
X104798809Y-134611904D01*
X104655952Y-134611904D01*
X104465476Y-134564285D01*
X104370238Y-134516666D01*
X104275000Y-134421428D01*
X104227380Y-134278571D01*
X104227380Y-134183333D01*
X104275000Y-134040476D01*
X104322619Y-133992857D01*
X104322619Y-133611904D02*
X104275000Y-133564285D01*
X104227380Y-133469047D01*
X104227380Y-133230952D01*
X104275000Y-133135714D01*
X104322619Y-133088095D01*
X104417857Y-133040476D01*
X104513095Y-133040476D01*
X104655952Y-133088095D01*
X105227380Y-133659523D01*
X105227380Y-133040476D01*
X105227380Y-132088095D02*
X105227380Y-132659523D01*
X105227380Y-132373809D02*
X104227380Y-132373809D01*
X104370238Y-132469047D01*
X104465476Y-132564285D01*
X104513095Y-132659523D01*
%TO.C,R30*%
X139619980Y-137244057D02*
X139143790Y-137577390D01*
X139619980Y-137815485D02*
X138619980Y-137815485D01*
X138619980Y-137434533D01*
X138667600Y-137339295D01*
X138715219Y-137291676D01*
X138810457Y-137244057D01*
X138953314Y-137244057D01*
X139048552Y-137291676D01*
X139096171Y-137339295D01*
X139143790Y-137434533D01*
X139143790Y-137815485D01*
X138619980Y-136910723D02*
X138619980Y-136291676D01*
X139000933Y-136625009D01*
X139000933Y-136482152D01*
X139048552Y-136386914D01*
X139096171Y-136339295D01*
X139191409Y-136291676D01*
X139429504Y-136291676D01*
X139524742Y-136339295D01*
X139572361Y-136386914D01*
X139619980Y-136482152D01*
X139619980Y-136767866D01*
X139572361Y-136863104D01*
X139524742Y-136910723D01*
X138619980Y-135672628D02*
X138619980Y-135577390D01*
X138667600Y-135482152D01*
X138715219Y-135434533D01*
X138810457Y-135386914D01*
X139000933Y-135339295D01*
X139239028Y-135339295D01*
X139429504Y-135386914D01*
X139524742Y-135434533D01*
X139572361Y-135482152D01*
X139619980Y-135577390D01*
X139619980Y-135672628D01*
X139572361Y-135767866D01*
X139524742Y-135815485D01*
X139429504Y-135863104D01*
X139239028Y-135910723D01*
X139000933Y-135910723D01*
X138810457Y-135863104D01*
X138715219Y-135815485D01*
X138667600Y-135767866D01*
X138619980Y-135672628D01*
%TO.C,R24*%
X75283241Y-129883779D02*
X74949908Y-129407589D01*
X74711813Y-129883779D02*
X74711813Y-128883779D01*
X75092765Y-128883779D01*
X75188003Y-128931399D01*
X75235622Y-128979018D01*
X75283241Y-129074256D01*
X75283241Y-129217113D01*
X75235622Y-129312351D01*
X75188003Y-129359970D01*
X75092765Y-129407589D01*
X74711813Y-129407589D01*
X75664194Y-128979018D02*
X75711813Y-128931399D01*
X75807051Y-128883779D01*
X76045146Y-128883779D01*
X76140384Y-128931399D01*
X76188003Y-128979018D01*
X76235622Y-129074256D01*
X76235622Y-129169494D01*
X76188003Y-129312351D01*
X75616575Y-129883779D01*
X76235622Y-129883779D01*
X77092765Y-129217113D02*
X77092765Y-129883779D01*
X76854670Y-128836160D02*
X76616575Y-129550446D01*
X77235622Y-129550446D01*
%TO.C,Q5*%
X74529961Y-114390419D02*
X74434723Y-114342800D01*
X74339485Y-114247561D01*
X74196628Y-114104704D01*
X74101390Y-114057085D01*
X74006152Y-114057085D01*
X74053771Y-114295180D02*
X73958533Y-114247561D01*
X73863295Y-114152323D01*
X73815676Y-113961847D01*
X73815676Y-113628514D01*
X73863295Y-113438038D01*
X73958533Y-113342800D01*
X74053771Y-113295180D01*
X74244247Y-113295180D01*
X74339485Y-113342800D01*
X74434723Y-113438038D01*
X74482342Y-113628514D01*
X74482342Y-113961847D01*
X74434723Y-114152323D01*
X74339485Y-114247561D01*
X74244247Y-114295180D01*
X74053771Y-114295180D01*
X75387104Y-113295180D02*
X74910914Y-113295180D01*
X74863295Y-113771371D01*
X74910914Y-113723752D01*
X75006152Y-113676133D01*
X75244247Y-113676133D01*
X75339485Y-113723752D01*
X75387104Y-113771371D01*
X75434723Y-113866609D01*
X75434723Y-114104704D01*
X75387104Y-114199942D01*
X75339485Y-114247561D01*
X75244247Y-114295180D01*
X75006152Y-114295180D01*
X74910914Y-114247561D01*
X74863295Y-114199942D01*
%TO.C,C5*%
X94654642Y-123356666D02*
X94702261Y-123404285D01*
X94749880Y-123547142D01*
X94749880Y-123642380D01*
X94702261Y-123785238D01*
X94607023Y-123880476D01*
X94511785Y-123928095D01*
X94321309Y-123975714D01*
X94178452Y-123975714D01*
X93987976Y-123928095D01*
X93892738Y-123880476D01*
X93797500Y-123785238D01*
X93749880Y-123642380D01*
X93749880Y-123547142D01*
X93797500Y-123404285D01*
X93845119Y-123356666D01*
X93749880Y-122451904D02*
X93749880Y-122928095D01*
X94226071Y-122975714D01*
X94178452Y-122928095D01*
X94130833Y-122832857D01*
X94130833Y-122594761D01*
X94178452Y-122499523D01*
X94226071Y-122451904D01*
X94321309Y-122404285D01*
X94559404Y-122404285D01*
X94654642Y-122451904D01*
X94702261Y-122499523D01*
X94749880Y-122594761D01*
X94749880Y-122832857D01*
X94702261Y-122928095D01*
X94654642Y-122975714D01*
%TO.C,R12*%
X41116780Y-119498856D02*
X40640590Y-119832189D01*
X41116780Y-120070284D02*
X40116780Y-120070284D01*
X40116780Y-119689332D01*
X40164400Y-119594094D01*
X40212019Y-119546475D01*
X40307257Y-119498856D01*
X40450114Y-119498856D01*
X40545352Y-119546475D01*
X40592971Y-119594094D01*
X40640590Y-119689332D01*
X40640590Y-120070284D01*
X41116780Y-118546475D02*
X41116780Y-119117903D01*
X41116780Y-118832189D02*
X40116780Y-118832189D01*
X40259638Y-118927427D01*
X40354876Y-119022665D01*
X40402495Y-119117903D01*
X40212019Y-118165522D02*
X40164400Y-118117903D01*
X40116780Y-118022665D01*
X40116780Y-117784570D01*
X40164400Y-117689332D01*
X40212019Y-117641713D01*
X40307257Y-117594094D01*
X40402495Y-117594094D01*
X40545352Y-117641713D01*
X41116780Y-118213141D01*
X41116780Y-117594094D01*
%TO.C,R22*%
X59619841Y-132440779D02*
X59286508Y-131964589D01*
X59048413Y-132440779D02*
X59048413Y-131440779D01*
X59429365Y-131440779D01*
X59524603Y-131488399D01*
X59572222Y-131536018D01*
X59619841Y-131631256D01*
X59619841Y-131774113D01*
X59572222Y-131869351D01*
X59524603Y-131916970D01*
X59429365Y-131964589D01*
X59048413Y-131964589D01*
X60000794Y-131536018D02*
X60048413Y-131488399D01*
X60143651Y-131440779D01*
X60381746Y-131440779D01*
X60476984Y-131488399D01*
X60524603Y-131536018D01*
X60572222Y-131631256D01*
X60572222Y-131726494D01*
X60524603Y-131869351D01*
X59953175Y-132440779D01*
X60572222Y-132440779D01*
X60953175Y-131536018D02*
X61000794Y-131488399D01*
X61096032Y-131440779D01*
X61334127Y-131440779D01*
X61429365Y-131488399D01*
X61476984Y-131536018D01*
X61524603Y-131631256D01*
X61524603Y-131726494D01*
X61476984Y-131869351D01*
X60905556Y-132440779D01*
X61524603Y-132440779D01*
%TO.C,C11*%
X111015542Y-85145942D02*
X110967923Y-85193561D01*
X110825066Y-85241180D01*
X110729828Y-85241180D01*
X110586971Y-85193561D01*
X110491733Y-85098323D01*
X110444114Y-85003085D01*
X110396495Y-84812609D01*
X110396495Y-84669752D01*
X110444114Y-84479276D01*
X110491733Y-84384038D01*
X110586971Y-84288800D01*
X110729828Y-84241180D01*
X110825066Y-84241180D01*
X110967923Y-84288800D01*
X111015542Y-84336419D01*
X111967923Y-85241180D02*
X111396495Y-85241180D01*
X111682209Y-85241180D02*
X111682209Y-84241180D01*
X111586971Y-84384038D01*
X111491733Y-84479276D01*
X111396495Y-84526895D01*
X112920304Y-85241180D02*
X112348876Y-85241180D01*
X112634590Y-85241180D02*
X112634590Y-84241180D01*
X112539352Y-84384038D01*
X112444114Y-84479276D01*
X112348876Y-84526895D01*
%TO.C,R28*%
X64787542Y-103779580D02*
X64454209Y-103303390D01*
X64216114Y-103779580D02*
X64216114Y-102779580D01*
X64597066Y-102779580D01*
X64692304Y-102827200D01*
X64739923Y-102874819D01*
X64787542Y-102970057D01*
X64787542Y-103112914D01*
X64739923Y-103208152D01*
X64692304Y-103255771D01*
X64597066Y-103303390D01*
X64216114Y-103303390D01*
X65168495Y-102874819D02*
X65216114Y-102827200D01*
X65311352Y-102779580D01*
X65549447Y-102779580D01*
X65644685Y-102827200D01*
X65692304Y-102874819D01*
X65739923Y-102970057D01*
X65739923Y-103065295D01*
X65692304Y-103208152D01*
X65120876Y-103779580D01*
X65739923Y-103779580D01*
X66311352Y-103208152D02*
X66216114Y-103160533D01*
X66168495Y-103112914D01*
X66120876Y-103017676D01*
X66120876Y-102970057D01*
X66168495Y-102874819D01*
X66216114Y-102827200D01*
X66311352Y-102779580D01*
X66501828Y-102779580D01*
X66597066Y-102827200D01*
X66644685Y-102874819D01*
X66692304Y-102970057D01*
X66692304Y-103017676D01*
X66644685Y-103112914D01*
X66597066Y-103160533D01*
X66501828Y-103208152D01*
X66311352Y-103208152D01*
X66216114Y-103255771D01*
X66168495Y-103303390D01*
X66120876Y-103398628D01*
X66120876Y-103589104D01*
X66168495Y-103684342D01*
X66216114Y-103731961D01*
X66311352Y-103779580D01*
X66501828Y-103779580D01*
X66597066Y-103731961D01*
X66644685Y-103684342D01*
X66692304Y-103589104D01*
X66692304Y-103398628D01*
X66644685Y-103303390D01*
X66597066Y-103255771D01*
X66501828Y-103208152D01*
%TO.C,R23*%
X75283241Y-127800979D02*
X74949908Y-127324789D01*
X74711813Y-127800979D02*
X74711813Y-126800979D01*
X75092765Y-126800979D01*
X75188003Y-126848599D01*
X75235622Y-126896218D01*
X75283241Y-126991456D01*
X75283241Y-127134313D01*
X75235622Y-127229551D01*
X75188003Y-127277170D01*
X75092765Y-127324789D01*
X74711813Y-127324789D01*
X75664194Y-126896218D02*
X75711813Y-126848599D01*
X75807051Y-126800979D01*
X76045146Y-126800979D01*
X76140384Y-126848599D01*
X76188003Y-126896218D01*
X76235622Y-126991456D01*
X76235622Y-127086694D01*
X76188003Y-127229551D01*
X75616575Y-127800979D01*
X76235622Y-127800979D01*
X76568956Y-126800979D02*
X77188003Y-126800979D01*
X76854670Y-127181932D01*
X76997527Y-127181932D01*
X77092765Y-127229551D01*
X77140384Y-127277170D01*
X77188003Y-127372408D01*
X77188003Y-127610503D01*
X77140384Y-127705741D01*
X77092765Y-127753360D01*
X76997527Y-127800979D01*
X76711813Y-127800979D01*
X76616575Y-127753360D01*
X76568956Y-127705741D01*
%TO.C,R4*%
X102763580Y-133186466D02*
X102287390Y-133519800D01*
X102763580Y-133757895D02*
X101763580Y-133757895D01*
X101763580Y-133376942D01*
X101811200Y-133281704D01*
X101858819Y-133234085D01*
X101954057Y-133186466D01*
X102096914Y-133186466D01*
X102192152Y-133234085D01*
X102239771Y-133281704D01*
X102287390Y-133376942D01*
X102287390Y-133757895D01*
X102096914Y-132329323D02*
X102763580Y-132329323D01*
X101715961Y-132567419D02*
X102430247Y-132805514D01*
X102430247Y-132186466D01*
%TO.C,R38*%
X50287180Y-147708857D02*
X49810990Y-148042190D01*
X50287180Y-148280285D02*
X49287180Y-148280285D01*
X49287180Y-147899333D01*
X49334800Y-147804095D01*
X49382419Y-147756476D01*
X49477657Y-147708857D01*
X49620514Y-147708857D01*
X49715752Y-147756476D01*
X49763371Y-147804095D01*
X49810990Y-147899333D01*
X49810990Y-148280285D01*
X49287180Y-147375523D02*
X49287180Y-146756476D01*
X49668133Y-147089809D01*
X49668133Y-146946952D01*
X49715752Y-146851714D01*
X49763371Y-146804095D01*
X49858609Y-146756476D01*
X50096704Y-146756476D01*
X50191942Y-146804095D01*
X50239561Y-146851714D01*
X50287180Y-146946952D01*
X50287180Y-147232666D01*
X50239561Y-147327904D01*
X50191942Y-147375523D01*
X49715752Y-146185047D02*
X49668133Y-146280285D01*
X49620514Y-146327904D01*
X49525276Y-146375523D01*
X49477657Y-146375523D01*
X49382419Y-146327904D01*
X49334800Y-146280285D01*
X49287180Y-146185047D01*
X49287180Y-145994571D01*
X49334800Y-145899333D01*
X49382419Y-145851714D01*
X49477657Y-145804095D01*
X49525276Y-145804095D01*
X49620514Y-145851714D01*
X49668133Y-145899333D01*
X49715752Y-145994571D01*
X49715752Y-146185047D01*
X49763371Y-146280285D01*
X49810990Y-146327904D01*
X49906228Y-146375523D01*
X50096704Y-146375523D01*
X50191942Y-146327904D01*
X50239561Y-146280285D01*
X50287180Y-146185047D01*
X50287180Y-145994571D01*
X50239561Y-145899333D01*
X50191942Y-145851714D01*
X50096704Y-145804095D01*
X49906228Y-145804095D01*
X49810990Y-145851714D01*
X49763371Y-145899333D01*
X49715752Y-145994571D01*
%TO.C,R20*%
X128129846Y-117704857D02*
X127653656Y-118038190D01*
X128129846Y-118276285D02*
X127129846Y-118276285D01*
X127129846Y-117895333D01*
X127177466Y-117800095D01*
X127225085Y-117752476D01*
X127320323Y-117704857D01*
X127463180Y-117704857D01*
X127558418Y-117752476D01*
X127606037Y-117800095D01*
X127653656Y-117895333D01*
X127653656Y-118276285D01*
X127225085Y-117323904D02*
X127177466Y-117276285D01*
X127129846Y-117181047D01*
X127129846Y-116942952D01*
X127177466Y-116847714D01*
X127225085Y-116800095D01*
X127320323Y-116752476D01*
X127415561Y-116752476D01*
X127558418Y-116800095D01*
X128129846Y-117371523D01*
X128129846Y-116752476D01*
X127129846Y-116133428D02*
X127129846Y-116038190D01*
X127177466Y-115942952D01*
X127225085Y-115895333D01*
X127320323Y-115847714D01*
X127510799Y-115800095D01*
X127748894Y-115800095D01*
X127939370Y-115847714D01*
X128034608Y-115895333D01*
X128082227Y-115942952D01*
X128129846Y-116038190D01*
X128129846Y-116133428D01*
X128082227Y-116228666D01*
X128034608Y-116276285D01*
X127939370Y-116323904D01*
X127748894Y-116371523D01*
X127510799Y-116371523D01*
X127320323Y-116323904D01*
X127225085Y-116276285D01*
X127177466Y-116228666D01*
X127129846Y-116133428D01*
%TO.C,U2*%
X96113695Y-78852780D02*
X96113695Y-79662304D01*
X96161314Y-79757542D01*
X96208933Y-79805161D01*
X96304171Y-79852780D01*
X96494647Y-79852780D01*
X96589885Y-79805161D01*
X96637504Y-79757542D01*
X96685123Y-79662304D01*
X96685123Y-78852780D01*
X97113695Y-78948019D02*
X97161314Y-78900400D01*
X97256552Y-78852780D01*
X97494647Y-78852780D01*
X97589885Y-78900400D01*
X97637504Y-78948019D01*
X97685123Y-79043257D01*
X97685123Y-79138495D01*
X97637504Y-79281352D01*
X97066076Y-79852780D01*
X97685123Y-79852780D01*
%TO.C,C2*%
X100687142Y-123356666D02*
X100734761Y-123404285D01*
X100782380Y-123547142D01*
X100782380Y-123642380D01*
X100734761Y-123785238D01*
X100639523Y-123880476D01*
X100544285Y-123928095D01*
X100353809Y-123975714D01*
X100210952Y-123975714D01*
X100020476Y-123928095D01*
X99925238Y-123880476D01*
X99830000Y-123785238D01*
X99782380Y-123642380D01*
X99782380Y-123547142D01*
X99830000Y-123404285D01*
X99877619Y-123356666D01*
X99877619Y-122975714D02*
X99830000Y-122928095D01*
X99782380Y-122832857D01*
X99782380Y-122594761D01*
X99830000Y-122499523D01*
X99877619Y-122451904D01*
X99972857Y-122404285D01*
X100068095Y-122404285D01*
X100210952Y-122451904D01*
X100782380Y-123023333D01*
X100782380Y-122404285D01*
%TO.C,D1*%
X25373104Y-139441180D02*
X25373104Y-138441180D01*
X25611200Y-138441180D01*
X25754057Y-138488800D01*
X25849295Y-138584038D01*
X25896914Y-138679276D01*
X25944533Y-138869752D01*
X25944533Y-139012609D01*
X25896914Y-139203085D01*
X25849295Y-139298323D01*
X25754057Y-139393561D01*
X25611200Y-139441180D01*
X25373104Y-139441180D01*
X26896914Y-139441180D02*
X26325485Y-139441180D01*
X26611200Y-139441180D02*
X26611200Y-138441180D01*
X26515961Y-138584038D01*
X26420723Y-138679276D01*
X26325485Y-138726895D01*
%TO.C,J11*%
X121212076Y-151411980D02*
X121212076Y-152126266D01*
X121164457Y-152269123D01*
X121069219Y-152364361D01*
X120926361Y-152411980D01*
X120831123Y-152411980D01*
X122212076Y-152411980D02*
X121640647Y-152411980D01*
X121926361Y-152411980D02*
X121926361Y-151411980D01*
X121831123Y-151554838D01*
X121735885Y-151650076D01*
X121640647Y-151697695D01*
X123164457Y-152411980D02*
X122593028Y-152411980D01*
X122878742Y-152411980D02*
X122878742Y-151411980D01*
X122783504Y-151554838D01*
X122688266Y-151650076D01*
X122593028Y-151697695D01*
%TO.C,Conn1*%
X111238380Y-99893509D02*
X111238380Y-99274461D01*
X111619333Y-99607795D01*
X111619333Y-99464938D01*
X111666952Y-99369700D01*
X111714571Y-99322080D01*
X111809809Y-99274461D01*
X112047904Y-99274461D01*
X112143142Y-99322080D01*
X112190761Y-99369700D01*
X112238380Y-99464938D01*
X112238380Y-99750652D01*
X112190761Y-99845890D01*
X112143142Y-99893509D01*
X111238380Y-98941128D02*
X111238380Y-98322080D01*
X111619333Y-98655414D01*
X111619333Y-98512557D01*
X111666952Y-98417319D01*
X111714571Y-98369700D01*
X111809809Y-98322080D01*
X112047904Y-98322080D01*
X112143142Y-98369700D01*
X112190761Y-98417319D01*
X112238380Y-98512557D01*
X112238380Y-98798271D01*
X112190761Y-98893509D01*
X112143142Y-98941128D01*
X112143142Y-97893509D02*
X112190761Y-97845890D01*
X112238380Y-97893509D01*
X112190761Y-97941128D01*
X112143142Y-97893509D01*
X112238380Y-97893509D01*
X111571714Y-96988747D02*
X112238380Y-96988747D01*
X111190761Y-97226842D02*
X111905047Y-97464938D01*
X111905047Y-96845890D01*
X44438380Y-100193509D02*
X44438380Y-99574461D01*
X44819333Y-99907795D01*
X44819333Y-99764938D01*
X44866952Y-99669700D01*
X44914571Y-99622080D01*
X45009809Y-99574461D01*
X45247904Y-99574461D01*
X45343142Y-99622080D01*
X45390761Y-99669700D01*
X45438380Y-99764938D01*
X45438380Y-100050652D01*
X45390761Y-100145890D01*
X45343142Y-100193509D01*
X44438380Y-99241128D02*
X44438380Y-98622080D01*
X44819333Y-98955414D01*
X44819333Y-98812557D01*
X44866952Y-98717319D01*
X44914571Y-98669700D01*
X45009809Y-98622080D01*
X45247904Y-98622080D01*
X45343142Y-98669700D01*
X45390761Y-98717319D01*
X45438380Y-98812557D01*
X45438380Y-99098271D01*
X45390761Y-99193509D01*
X45343142Y-99241128D01*
X45343142Y-98193509D02*
X45390761Y-98145890D01*
X45438380Y-98193509D01*
X45390761Y-98241128D01*
X45343142Y-98193509D01*
X45438380Y-98193509D01*
X44771714Y-97288747D02*
X45438380Y-97288747D01*
X44390761Y-97526842D02*
X45105047Y-97764938D01*
X45105047Y-97145890D01*
%TO.C,R37*%
X47391580Y-147810457D02*
X46915390Y-148143790D01*
X47391580Y-148381885D02*
X46391580Y-148381885D01*
X46391580Y-148000933D01*
X46439200Y-147905695D01*
X46486819Y-147858076D01*
X46582057Y-147810457D01*
X46724914Y-147810457D01*
X46820152Y-147858076D01*
X46867771Y-147905695D01*
X46915390Y-148000933D01*
X46915390Y-148381885D01*
X46391580Y-147477123D02*
X46391580Y-146858076D01*
X46772533Y-147191409D01*
X46772533Y-147048552D01*
X46820152Y-146953314D01*
X46867771Y-146905695D01*
X46963009Y-146858076D01*
X47201104Y-146858076D01*
X47296342Y-146905695D01*
X47343961Y-146953314D01*
X47391580Y-147048552D01*
X47391580Y-147334266D01*
X47343961Y-147429504D01*
X47296342Y-147477123D01*
X46391580Y-146524742D02*
X46391580Y-145858076D01*
X47391580Y-146286647D01*
%TO.C,R5*%
X100731580Y-133186466D02*
X100255390Y-133519800D01*
X100731580Y-133757895D02*
X99731580Y-133757895D01*
X99731580Y-133376942D01*
X99779200Y-133281704D01*
X99826819Y-133234085D01*
X99922057Y-133186466D01*
X100064914Y-133186466D01*
X100160152Y-133234085D01*
X100207771Y-133281704D01*
X100255390Y-133376942D01*
X100255390Y-133757895D01*
X99731580Y-132281704D02*
X99731580Y-132757895D01*
X100207771Y-132805514D01*
X100160152Y-132757895D01*
X100112533Y-132662657D01*
X100112533Y-132424561D01*
X100160152Y-132329323D01*
X100207771Y-132281704D01*
X100303009Y-132234085D01*
X100541104Y-132234085D01*
X100636342Y-132281704D01*
X100683961Y-132329323D01*
X100731580Y-132424561D01*
X100731580Y-132662657D01*
X100683961Y-132757895D01*
X100636342Y-132805514D01*
%TO.C,R3*%
X39711333Y-139441180D02*
X39378000Y-138964990D01*
X39139904Y-139441180D02*
X39139904Y-138441180D01*
X39520857Y-138441180D01*
X39616095Y-138488800D01*
X39663714Y-138536419D01*
X39711333Y-138631657D01*
X39711333Y-138774514D01*
X39663714Y-138869752D01*
X39616095Y-138917371D01*
X39520857Y-138964990D01*
X39139904Y-138964990D01*
X40044666Y-138441180D02*
X40663714Y-138441180D01*
X40330380Y-138822133D01*
X40473238Y-138822133D01*
X40568476Y-138869752D01*
X40616095Y-138917371D01*
X40663714Y-139012609D01*
X40663714Y-139250704D01*
X40616095Y-139345942D01*
X40568476Y-139393561D01*
X40473238Y-139441180D01*
X40187523Y-139441180D01*
X40092285Y-139393561D01*
X40044666Y-139345942D01*
%TO.C,R25*%
X118003580Y-117771657D02*
X117527390Y-118104990D01*
X118003580Y-118343085D02*
X117003580Y-118343085D01*
X117003580Y-117962133D01*
X117051200Y-117866895D01*
X117098819Y-117819276D01*
X117194057Y-117771657D01*
X117336914Y-117771657D01*
X117432152Y-117819276D01*
X117479771Y-117866895D01*
X117527390Y-117962133D01*
X117527390Y-118343085D01*
X117098819Y-117390704D02*
X117051200Y-117343085D01*
X117003580Y-117247847D01*
X117003580Y-117009752D01*
X117051200Y-116914514D01*
X117098819Y-116866895D01*
X117194057Y-116819276D01*
X117289295Y-116819276D01*
X117432152Y-116866895D01*
X118003580Y-117438323D01*
X118003580Y-116819276D01*
X117003580Y-115914514D02*
X117003580Y-116390704D01*
X117479771Y-116438323D01*
X117432152Y-116390704D01*
X117384533Y-116295466D01*
X117384533Y-116057371D01*
X117432152Y-115962133D01*
X117479771Y-115914514D01*
X117575009Y-115866895D01*
X117813104Y-115866895D01*
X117908342Y-115914514D01*
X117955961Y-115962133D01*
X118003580Y-116057371D01*
X118003580Y-116295466D01*
X117955961Y-116390704D01*
X117908342Y-116438323D01*
%TO.C,D5*%
X56332380Y-136424895D02*
X55332380Y-136424895D01*
X55332380Y-136186800D01*
X55380000Y-136043942D01*
X55475238Y-135948704D01*
X55570476Y-135901085D01*
X55760952Y-135853466D01*
X55903809Y-135853466D01*
X56094285Y-135901085D01*
X56189523Y-135948704D01*
X56284761Y-136043942D01*
X56332380Y-136186800D01*
X56332380Y-136424895D01*
X55332380Y-134948704D02*
X55332380Y-135424895D01*
X55808571Y-135472514D01*
X55760952Y-135424895D01*
X55713333Y-135329657D01*
X55713333Y-135091561D01*
X55760952Y-134996323D01*
X55808571Y-134948704D01*
X55903809Y-134901085D01*
X56141904Y-134901085D01*
X56237142Y-134948704D01*
X56284761Y-134996323D01*
X56332380Y-135091561D01*
X56332380Y-135329657D01*
X56284761Y-135424895D01*
X56237142Y-135472514D01*
%TO.C,R11*%
X88234780Y-134119857D02*
X87758590Y-134453190D01*
X88234780Y-134691285D02*
X87234780Y-134691285D01*
X87234780Y-134310333D01*
X87282400Y-134215095D01*
X87330019Y-134167476D01*
X87425257Y-134119857D01*
X87568114Y-134119857D01*
X87663352Y-134167476D01*
X87710971Y-134215095D01*
X87758590Y-134310333D01*
X87758590Y-134691285D01*
X88234780Y-133167476D02*
X88234780Y-133738904D01*
X88234780Y-133453190D02*
X87234780Y-133453190D01*
X87377638Y-133548428D01*
X87472876Y-133643666D01*
X87520495Y-133738904D01*
X88234780Y-132215095D02*
X88234780Y-132786523D01*
X88234780Y-132500809D02*
X87234780Y-132500809D01*
X87377638Y-132596047D01*
X87472876Y-132691285D01*
X87520495Y-132786523D01*
%TO.C,R9*%
X92400380Y-133135666D02*
X91924190Y-133469000D01*
X92400380Y-133707095D02*
X91400380Y-133707095D01*
X91400380Y-133326142D01*
X91448000Y-133230904D01*
X91495619Y-133183285D01*
X91590857Y-133135666D01*
X91733714Y-133135666D01*
X91828952Y-133183285D01*
X91876571Y-133230904D01*
X91924190Y-133326142D01*
X91924190Y-133707095D01*
X92400380Y-132659476D02*
X92400380Y-132469000D01*
X92352761Y-132373761D01*
X92305142Y-132326142D01*
X92162285Y-132230904D01*
X91971809Y-132183285D01*
X91590857Y-132183285D01*
X91495619Y-132230904D01*
X91448000Y-132278523D01*
X91400380Y-132373761D01*
X91400380Y-132564238D01*
X91448000Y-132659476D01*
X91495619Y-132707095D01*
X91590857Y-132754714D01*
X91828952Y-132754714D01*
X91924190Y-132707095D01*
X91971809Y-132659476D01*
X92019428Y-132564238D01*
X92019428Y-132373761D01*
X91971809Y-132278523D01*
X91924190Y-132230904D01*
X91828952Y-132183285D01*
%TO.C,J6*%
X26987066Y-109621580D02*
X26987066Y-110335866D01*
X26939447Y-110478723D01*
X26844209Y-110573961D01*
X26701352Y-110621580D01*
X26606114Y-110621580D01*
X27891828Y-109621580D02*
X27701352Y-109621580D01*
X27606114Y-109669200D01*
X27558495Y-109716819D01*
X27463257Y-109859676D01*
X27415638Y-110050152D01*
X27415638Y-110431104D01*
X27463257Y-110526342D01*
X27510876Y-110573961D01*
X27606114Y-110621580D01*
X27796590Y-110621580D01*
X27891828Y-110573961D01*
X27939447Y-110526342D01*
X27987066Y-110431104D01*
X27987066Y-110193009D01*
X27939447Y-110097771D01*
X27891828Y-110050152D01*
X27796590Y-110002533D01*
X27606114Y-110002533D01*
X27510876Y-110050152D01*
X27463257Y-110097771D01*
X27415638Y-110193009D01*
%TO.C,C18*%
X51884342Y-115063542D02*
X51836723Y-115111161D01*
X51693866Y-115158780D01*
X51598628Y-115158780D01*
X51455771Y-115111161D01*
X51360533Y-115015923D01*
X51312914Y-114920685D01*
X51265295Y-114730209D01*
X51265295Y-114587352D01*
X51312914Y-114396876D01*
X51360533Y-114301638D01*
X51455771Y-114206400D01*
X51598628Y-114158780D01*
X51693866Y-114158780D01*
X51836723Y-114206400D01*
X51884342Y-114254019D01*
X52836723Y-115158780D02*
X52265295Y-115158780D01*
X52551009Y-115158780D02*
X52551009Y-114158780D01*
X52455771Y-114301638D01*
X52360533Y-114396876D01*
X52265295Y-114444495D01*
X53408152Y-114587352D02*
X53312914Y-114539733D01*
X53265295Y-114492114D01*
X53217676Y-114396876D01*
X53217676Y-114349257D01*
X53265295Y-114254019D01*
X53312914Y-114206400D01*
X53408152Y-114158780D01*
X53598628Y-114158780D01*
X53693866Y-114206400D01*
X53741485Y-114254019D01*
X53789104Y-114349257D01*
X53789104Y-114396876D01*
X53741485Y-114492114D01*
X53693866Y-114539733D01*
X53598628Y-114587352D01*
X53408152Y-114587352D01*
X53312914Y-114634971D01*
X53265295Y-114682590D01*
X53217676Y-114777828D01*
X53217676Y-114968304D01*
X53265295Y-115063542D01*
X53312914Y-115111161D01*
X53408152Y-115158780D01*
X53598628Y-115158780D01*
X53693866Y-115111161D01*
X53741485Y-115063542D01*
X53789104Y-114968304D01*
X53789104Y-114777828D01*
X53741485Y-114682590D01*
X53693866Y-114634971D01*
X53598628Y-114587352D01*
%TO.C,R14*%
X41116780Y-129674857D02*
X40640590Y-130008190D01*
X41116780Y-130246285D02*
X40116780Y-130246285D01*
X40116780Y-129865333D01*
X40164400Y-129770095D01*
X40212019Y-129722476D01*
X40307257Y-129674857D01*
X40450114Y-129674857D01*
X40545352Y-129722476D01*
X40592971Y-129770095D01*
X40640590Y-129865333D01*
X40640590Y-130246285D01*
X41116780Y-128722476D02*
X41116780Y-129293904D01*
X41116780Y-129008190D02*
X40116780Y-129008190D01*
X40259638Y-129103428D01*
X40354876Y-129198666D01*
X40402495Y-129293904D01*
X40450114Y-127865333D02*
X41116780Y-127865333D01*
X40069161Y-128103428D02*
X40783447Y-128341523D01*
X40783447Y-127722476D01*
%TO.C,U5*%
X48717295Y-107961180D02*
X48717295Y-108770704D01*
X48764914Y-108865942D01*
X48812533Y-108913561D01*
X48907771Y-108961180D01*
X49098247Y-108961180D01*
X49193485Y-108913561D01*
X49241104Y-108865942D01*
X49288723Y-108770704D01*
X49288723Y-107961180D01*
X50241104Y-107961180D02*
X49764914Y-107961180D01*
X49717295Y-108437371D01*
X49764914Y-108389752D01*
X49860152Y-108342133D01*
X50098247Y-108342133D01*
X50193485Y-108389752D01*
X50241104Y-108437371D01*
X50288723Y-108532609D01*
X50288723Y-108770704D01*
X50241104Y-108865942D01*
X50193485Y-108913561D01*
X50098247Y-108961180D01*
X49860152Y-108961180D01*
X49764914Y-108913561D01*
X49717295Y-108865942D01*
%TO.C,C10*%
X97197942Y-85145942D02*
X97150323Y-85193561D01*
X97007466Y-85241180D01*
X96912228Y-85241180D01*
X96769371Y-85193561D01*
X96674133Y-85098323D01*
X96626514Y-85003085D01*
X96578895Y-84812609D01*
X96578895Y-84669752D01*
X96626514Y-84479276D01*
X96674133Y-84384038D01*
X96769371Y-84288800D01*
X96912228Y-84241180D01*
X97007466Y-84241180D01*
X97150323Y-84288800D01*
X97197942Y-84336419D01*
X98150323Y-85241180D02*
X97578895Y-85241180D01*
X97864609Y-85241180D02*
X97864609Y-84241180D01*
X97769371Y-84384038D01*
X97674133Y-84479276D01*
X97578895Y-84526895D01*
X98769371Y-84241180D02*
X98864609Y-84241180D01*
X98959847Y-84288800D01*
X99007466Y-84336419D01*
X99055085Y-84431657D01*
X99102704Y-84622133D01*
X99102704Y-84860228D01*
X99055085Y-85050704D01*
X99007466Y-85145942D01*
X98959847Y-85193561D01*
X98864609Y-85241180D01*
X98769371Y-85241180D01*
X98674133Y-85193561D01*
X98626514Y-85145942D01*
X98578895Y-85050704D01*
X98531276Y-84860228D01*
X98531276Y-84622133D01*
X98578895Y-84431657D01*
X98626514Y-84336419D01*
X98674133Y-84288800D01*
X98769371Y-84241180D01*
%TO.C,R15*%
X146727942Y-123845580D02*
X146394609Y-123369390D01*
X146156514Y-123845580D02*
X146156514Y-122845580D01*
X146537466Y-122845580D01*
X146632704Y-122893200D01*
X146680323Y-122940819D01*
X146727942Y-123036057D01*
X146727942Y-123178914D01*
X146680323Y-123274152D01*
X146632704Y-123321771D01*
X146537466Y-123369390D01*
X146156514Y-123369390D01*
X147680323Y-123845580D02*
X147108895Y-123845580D01*
X147394609Y-123845580D02*
X147394609Y-122845580D01*
X147299371Y-122988438D01*
X147204133Y-123083676D01*
X147108895Y-123131295D01*
X148585085Y-122845580D02*
X148108895Y-122845580D01*
X148061276Y-123321771D01*
X148108895Y-123274152D01*
X148204133Y-123226533D01*
X148442228Y-123226533D01*
X148537466Y-123274152D01*
X148585085Y-123321771D01*
X148632704Y-123417009D01*
X148632704Y-123655104D01*
X148585085Y-123750342D01*
X148537466Y-123797961D01*
X148442228Y-123845580D01*
X148204133Y-123845580D01*
X148108895Y-123797961D01*
X148061276Y-123750342D01*
%TO.C,R6*%
X98648780Y-133186466D02*
X98172590Y-133519800D01*
X98648780Y-133757895D02*
X97648780Y-133757895D01*
X97648780Y-133376942D01*
X97696400Y-133281704D01*
X97744019Y-133234085D01*
X97839257Y-133186466D01*
X97982114Y-133186466D01*
X98077352Y-133234085D01*
X98124971Y-133281704D01*
X98172590Y-133376942D01*
X98172590Y-133757895D01*
X97648780Y-132329323D02*
X97648780Y-132519800D01*
X97696400Y-132615038D01*
X97744019Y-132662657D01*
X97886876Y-132757895D01*
X98077352Y-132805514D01*
X98458304Y-132805514D01*
X98553542Y-132757895D01*
X98601161Y-132710276D01*
X98648780Y-132615038D01*
X98648780Y-132424561D01*
X98601161Y-132329323D01*
X98553542Y-132281704D01*
X98458304Y-132234085D01*
X98220209Y-132234085D01*
X98124971Y-132281704D01*
X98077352Y-132329323D01*
X98029733Y-132424561D01*
X98029733Y-132615038D01*
X98077352Y-132710276D01*
X98124971Y-132757895D01*
X98220209Y-132805514D01*
%TO.C,R21*%
X59619841Y-134421979D02*
X59286508Y-133945789D01*
X59048413Y-134421979D02*
X59048413Y-133421979D01*
X59429365Y-133421979D01*
X59524603Y-133469599D01*
X59572222Y-133517218D01*
X59619841Y-133612456D01*
X59619841Y-133755313D01*
X59572222Y-133850551D01*
X59524603Y-133898170D01*
X59429365Y-133945789D01*
X59048413Y-133945789D01*
X60000794Y-133517218D02*
X60048413Y-133469599D01*
X60143651Y-133421979D01*
X60381746Y-133421979D01*
X60476984Y-133469599D01*
X60524603Y-133517218D01*
X60572222Y-133612456D01*
X60572222Y-133707694D01*
X60524603Y-133850551D01*
X59953175Y-134421979D01*
X60572222Y-134421979D01*
X61524603Y-134421979D02*
X60953175Y-134421979D01*
X61238889Y-134421979D02*
X61238889Y-133421979D01*
X61143651Y-133564837D01*
X61048413Y-133660075D01*
X60953175Y-133707694D01*
%TO.C,U6*%
X82245295Y-78852780D02*
X82245295Y-79662304D01*
X82292914Y-79757542D01*
X82340533Y-79805161D01*
X82435771Y-79852780D01*
X82626247Y-79852780D01*
X82721485Y-79805161D01*
X82769104Y-79757542D01*
X82816723Y-79662304D01*
X82816723Y-78852780D01*
X83721485Y-78852780D02*
X83531009Y-78852780D01*
X83435771Y-78900400D01*
X83388152Y-78948019D01*
X83292914Y-79090876D01*
X83245295Y-79281352D01*
X83245295Y-79662304D01*
X83292914Y-79757542D01*
X83340533Y-79805161D01*
X83435771Y-79852780D01*
X83626247Y-79852780D01*
X83721485Y-79805161D01*
X83769104Y-79757542D01*
X83816723Y-79662304D01*
X83816723Y-79424209D01*
X83769104Y-79328971D01*
X83721485Y-79281352D01*
X83626247Y-79233733D01*
X83435771Y-79233733D01*
X83340533Y-79281352D01*
X83292914Y-79328971D01*
X83245295Y-79424209D01*
%TO.C,C9*%
X41153142Y-106643466D02*
X41200761Y-106691085D01*
X41248380Y-106833942D01*
X41248380Y-106929180D01*
X41200761Y-107072038D01*
X41105523Y-107167276D01*
X41010285Y-107214895D01*
X40819809Y-107262514D01*
X40676952Y-107262514D01*
X40486476Y-107214895D01*
X40391238Y-107167276D01*
X40296000Y-107072038D01*
X40248380Y-106929180D01*
X40248380Y-106833942D01*
X40296000Y-106691085D01*
X40343619Y-106643466D01*
X41248380Y-106167276D02*
X41248380Y-105976800D01*
X41200761Y-105881561D01*
X41153142Y-105833942D01*
X41010285Y-105738704D01*
X40819809Y-105691085D01*
X40438857Y-105691085D01*
X40343619Y-105738704D01*
X40296000Y-105786323D01*
X40248380Y-105881561D01*
X40248380Y-106072038D01*
X40296000Y-106167276D01*
X40343619Y-106214895D01*
X40438857Y-106262514D01*
X40676952Y-106262514D01*
X40772190Y-106214895D01*
X40819809Y-106167276D01*
X40867428Y-106072038D01*
X40867428Y-105881561D01*
X40819809Y-105786323D01*
X40772190Y-105738704D01*
X40676952Y-105691085D01*
%TO.C,C13*%
X75283241Y-131769741D02*
X75235622Y-131817360D01*
X75092765Y-131864979D01*
X74997527Y-131864979D01*
X74854670Y-131817360D01*
X74759432Y-131722122D01*
X74711813Y-131626884D01*
X74664194Y-131436408D01*
X74664194Y-131293551D01*
X74711813Y-131103075D01*
X74759432Y-131007837D01*
X74854670Y-130912599D01*
X74997527Y-130864979D01*
X75092765Y-130864979D01*
X75235622Y-130912599D01*
X75283241Y-130960218D01*
X76235622Y-131864979D02*
X75664194Y-131864979D01*
X75949908Y-131864979D02*
X75949908Y-130864979D01*
X75854670Y-131007837D01*
X75759432Y-131103075D01*
X75664194Y-131150694D01*
X76568956Y-130864979D02*
X77188003Y-130864979D01*
X76854670Y-131245932D01*
X76997527Y-131245932D01*
X77092765Y-131293551D01*
X77140384Y-131341170D01*
X77188003Y-131436408D01*
X77188003Y-131674503D01*
X77140384Y-131769741D01*
X77092765Y-131817360D01*
X76997527Y-131864979D01*
X76711813Y-131864979D01*
X76616575Y-131817360D01*
X76568956Y-131769741D01*
%TO.C,C14*%
X59619841Y-130161141D02*
X59572222Y-130208760D01*
X59429365Y-130256379D01*
X59334127Y-130256379D01*
X59191270Y-130208760D01*
X59096032Y-130113522D01*
X59048413Y-130018284D01*
X59000794Y-129827808D01*
X59000794Y-129684951D01*
X59048413Y-129494475D01*
X59096032Y-129399237D01*
X59191270Y-129303999D01*
X59334127Y-129256379D01*
X59429365Y-129256379D01*
X59572222Y-129303999D01*
X59619841Y-129351618D01*
X60572222Y-130256379D02*
X60000794Y-130256379D01*
X60286508Y-130256379D02*
X60286508Y-129256379D01*
X60191270Y-129399237D01*
X60096032Y-129494475D01*
X60000794Y-129542094D01*
X61429365Y-129589713D02*
X61429365Y-130256379D01*
X61191270Y-129208760D02*
X60953175Y-129923046D01*
X61572222Y-129923046D01*
D12*
%TO.C,Q2*%
X122741333Y-122293200D02*
X122091333Y-122293200D01*
X122741333Y-122293200D02*
X124416333Y-122293200D01*
X122741333Y-119173200D02*
X122091333Y-119173200D01*
X122741333Y-119173200D02*
X123391333Y-119173200D01*
%TO.C,R33*%
X40308264Y-75515800D02*
X39854136Y-75515800D01*
X40308264Y-76985800D02*
X39854136Y-76985800D01*
%TO.C,C17*%
X114239266Y-125587252D02*
X114239266Y-125064748D01*
X112769266Y-125587252D02*
X112769266Y-125064748D01*
%TO.C,R39*%
X52134732Y-143536936D02*
X52134732Y-143991064D01*
X53604732Y-143536936D02*
X53604732Y-143991064D01*
%TO.C,C15*%
X71303247Y-132788599D02*
X72725751Y-132788599D01*
X71303247Y-134608599D02*
X72725751Y-134608599D01*
%TO.C,R8*%
X93346600Y-130402064D02*
X93346600Y-129947936D01*
X94816600Y-130402064D02*
X94816600Y-129947936D01*
%TO.C,R40*%
X56665800Y-143536936D02*
X56665800Y-143991064D01*
X55195800Y-143536936D02*
X55195800Y-143991064D01*
%TO.C,SW3*%
X29076400Y-78155800D02*
X29076400Y-79425800D01*
X29076400Y-81175800D02*
X30283067Y-81175800D01*
X29076400Y-79115800D02*
X30283067Y-79115800D01*
X30283067Y-80695800D02*
X30283067Y-81965800D01*
X27476400Y-74140800D02*
X27476400Y-75450800D01*
X29076400Y-83835800D02*
X30283067Y-83835800D01*
X29076400Y-75615800D02*
X29076400Y-76885800D01*
X29076400Y-80695800D02*
X29076400Y-81965800D01*
X34296400Y-77050800D02*
X34296400Y-77990800D01*
X29076400Y-81415800D02*
X30283067Y-81415800D01*
X29076400Y-84435800D02*
X30283067Y-84435800D01*
X29076400Y-78515800D02*
X30283067Y-78515800D01*
X29076400Y-84315800D02*
X30283067Y-84315800D01*
X34296400Y-82130800D02*
X34296400Y-83070800D01*
X27476400Y-82130800D02*
X27476400Y-83070800D01*
X29076400Y-76455800D02*
X30283067Y-76455800D01*
X29076400Y-75855800D02*
X30283067Y-75855800D01*
X27476400Y-74140800D02*
X34296400Y-74140800D01*
X30283067Y-83235800D02*
X30283067Y-84505800D01*
X29076400Y-81775800D02*
X30283067Y-81775800D01*
X29076400Y-81535800D02*
X30283067Y-81535800D01*
X27236400Y-73900800D02*
X28619400Y-73900800D01*
X27236400Y-73900800D02*
X27236400Y-75283800D01*
X32696400Y-78155800D02*
X29076400Y-78155800D01*
X29076400Y-78635800D02*
X30283067Y-78635800D01*
X29076400Y-80935800D02*
X30283067Y-80935800D01*
X29076400Y-84075800D02*
X30283067Y-84075800D01*
X29076400Y-81965800D02*
X32696400Y-81965800D01*
X27476400Y-85980800D02*
X34296400Y-85980800D01*
X29076400Y-76885800D02*
X32696400Y-76885800D01*
X30283067Y-75615800D02*
X30283067Y-76885800D01*
X29076400Y-79355800D02*
X30283067Y-79355800D01*
X32696400Y-84505800D02*
X32696400Y-83235800D01*
X32696400Y-80695800D02*
X29076400Y-80695800D01*
X29076400Y-76335800D02*
X30283067Y-76335800D01*
X27476400Y-79590800D02*
X27476400Y-80530800D01*
X29076400Y-81655800D02*
X30283067Y-81655800D01*
X32696400Y-76885800D02*
X32696400Y-75615800D01*
X29076400Y-75735800D02*
X30283067Y-75735800D01*
X32696400Y-79425800D02*
X32696400Y-78155800D01*
X29076400Y-76095800D02*
X30283067Y-76095800D01*
X29076400Y-84505800D02*
X32696400Y-84505800D01*
X29076400Y-76815800D02*
X30283067Y-76815800D01*
X29076400Y-78875800D02*
X30283067Y-78875800D01*
X29076400Y-83475800D02*
X30283067Y-83475800D01*
X34296400Y-79590800D02*
X34296400Y-80530800D01*
X32696400Y-81965800D02*
X32696400Y-80695800D01*
X29076400Y-83715800D02*
X30283067Y-83715800D01*
X29076400Y-83955800D02*
X30283067Y-83955800D01*
X29076400Y-75975800D02*
X30283067Y-75975800D01*
X29076400Y-78275800D02*
X30283067Y-78275800D01*
X34296400Y-84670800D02*
X34296400Y-85980800D01*
X29076400Y-79425800D02*
X32696400Y-79425800D01*
X29076400Y-78755800D02*
X30283067Y-78755800D01*
X29076400Y-81895800D02*
X30283067Y-81895800D01*
X29076400Y-84195800D02*
X30283067Y-84195800D01*
X29076400Y-83595800D02*
X30283067Y-83595800D01*
X29076400Y-76695800D02*
X30283067Y-76695800D01*
X29076400Y-81055800D02*
X30283067Y-81055800D01*
X27476400Y-84670800D02*
X27476400Y-85980800D01*
X29076400Y-83355800D02*
X30283067Y-83355800D01*
X29076400Y-78395800D02*
X30283067Y-78395800D01*
X29076400Y-83235800D02*
X29076400Y-84505800D01*
X27476400Y-77050800D02*
X27476400Y-77990800D01*
X30283067Y-78155800D02*
X30283067Y-79425800D01*
X32696400Y-83235800D02*
X29076400Y-83235800D01*
X29076400Y-79235800D02*
X30283067Y-79235800D01*
X34296400Y-74140800D02*
X34296400Y-75450800D01*
X29076400Y-81295800D02*
X30283067Y-81295800D01*
X32696400Y-75615800D02*
X29076400Y-75615800D01*
X29076400Y-76215800D02*
X30283067Y-76215800D01*
X29076400Y-78995800D02*
X30283067Y-78995800D01*
X29076400Y-80815800D02*
X30283067Y-80815800D01*
X29076400Y-76575800D02*
X30283067Y-76575800D01*
%TO.C,R29*%
X62253864Y-100458600D02*
X61799736Y-100458600D01*
X62253864Y-101928600D02*
X61799736Y-101928600D01*
%TO.C,D3*%
X50783666Y-140391600D02*
X50783666Y-137531600D01*
X48863666Y-137531600D02*
X48863666Y-140391600D01*
X48863666Y-140391600D02*
X50783666Y-140391600D01*
%TO.C,C16*%
X108465252Y-114222200D02*
X107942748Y-114222200D01*
X108465252Y-112752200D02*
X107942748Y-112752200D01*
%TO.C,R27*%
X118387800Y-125128936D02*
X118387800Y-125583064D01*
X116917800Y-125128936D02*
X116917800Y-125583064D01*
%TO.C,R10*%
X89181000Y-130402064D02*
X89181000Y-129947936D01*
X90651000Y-130402064D02*
X90651000Y-129947936D01*
%TO.C,R35*%
X40409864Y-82065800D02*
X39955736Y-82065800D01*
X40409864Y-80595800D02*
X39955736Y-80595800D01*
%TO.C,D2*%
X45832600Y-137531600D02*
X45832600Y-140391600D01*
X47752600Y-140391600D02*
X47752600Y-137531600D01*
X45832600Y-140391600D02*
X47752600Y-140391600D01*
%TO.C,R7*%
X95429400Y-130402064D02*
X95429400Y-129947936D01*
X96899400Y-130402064D02*
X96899400Y-129947936D01*
%TO.C,R16*%
X143841736Y-126312600D02*
X144295864Y-126312600D01*
X143841736Y-124842600D02*
X144295864Y-124842600D01*
%TO.C,C12*%
X64936351Y-128224799D02*
X63513847Y-128224799D01*
X64936351Y-126404799D02*
X63513847Y-126404799D01*
%TO.C,C6*%
X91263800Y-125976748D02*
X91263800Y-126499252D01*
X92733800Y-125976748D02*
X92733800Y-126499252D01*
%TO.C,R34*%
X40359064Y-78055800D02*
X39904936Y-78055800D01*
X40359064Y-79525800D02*
X39904936Y-79525800D01*
%TO.C,R2*%
X37209464Y-137590200D02*
X36755336Y-137590200D01*
X37209464Y-136120200D02*
X36755336Y-136120200D01*
%TO.C,C4*%
X96899400Y-125976748D02*
X96899400Y-126499252D01*
X95429400Y-125976748D02*
X95429400Y-126499252D01*
%TO.C,R19*%
X127094866Y-125583064D02*
X127094866Y-125128936D01*
X128564866Y-125583064D02*
X128564866Y-125128936D01*
%TO.C,R31*%
X126363400Y-135205736D02*
X126363400Y-135659864D01*
X124893400Y-135205736D02*
X124893400Y-135659864D01*
%TO.C,C3*%
X98982200Y-125976748D02*
X98982200Y-126499252D01*
X97512200Y-125976748D02*
X97512200Y-126499252D01*
%TO.C,C7*%
X90651000Y-125976748D02*
X90651000Y-126499252D01*
X89181000Y-125976748D02*
X89181000Y-126499252D01*
%TO.C,C1*%
X103147800Y-125976748D02*
X103147800Y-126499252D01*
X101677800Y-125976748D02*
X101677800Y-126499252D01*
%TO.C,SW2*%
X135383200Y-142123600D02*
X135383200Y-146623600D01*
X139383200Y-140873600D02*
X137883200Y-140873600D01*
X141883200Y-146623600D02*
X141883200Y-142123600D01*
X137883200Y-147873600D02*
X139383200Y-147873600D01*
%TO.C,J2*%
X103729400Y-57699600D02*
X154649400Y-57699600D01*
X106329400Y-62899600D02*
X154649400Y-62899600D01*
X106329400Y-60299600D02*
X103729400Y-60299600D01*
X154649400Y-62899600D02*
X154649400Y-57699600D01*
X105059400Y-62899600D02*
X103729400Y-62899600D01*
X106329400Y-62899600D02*
X106329400Y-60299600D01*
X103729400Y-62899600D02*
X103729400Y-61569600D01*
X103729400Y-60299600D02*
X103729400Y-57699600D01*
%TO.C,J10*%
X72039599Y-152957999D02*
X70139599Y-152957999D01*
X69169599Y-138717999D02*
X72039599Y-138717999D01*
X72039599Y-138717999D02*
X72039599Y-152957999D01*
X63899599Y-152957999D02*
X63599599Y-152957999D01*
X70139599Y-156957999D02*
X63899599Y-156957999D01*
X70139599Y-152957999D02*
X70139599Y-156957999D01*
X63599599Y-138717999D02*
X66919599Y-138717999D01*
X63899599Y-156957999D02*
X63899599Y-152957999D01*
X63599599Y-152957999D02*
X63599599Y-138717999D01*
%TO.C,C19*%
X84284452Y-83843800D02*
X83761948Y-83843800D01*
X84284452Y-82373800D02*
X83761948Y-82373800D01*
%TO.C,C8*%
X88568200Y-125976748D02*
X88568200Y-126499252D01*
X87098200Y-125976748D02*
X87098200Y-126499252D01*
%TO.C,C23*%
X89908748Y-137377500D02*
X90431252Y-137377500D01*
X89908748Y-138847500D02*
X90431252Y-138847500D01*
%TO.C,Q3*%
X73442000Y-105003600D02*
X73442000Y-105653600D01*
X73442000Y-105003600D02*
X73442000Y-103328600D01*
X70322000Y-105003600D02*
X70322000Y-104353600D01*
X70322000Y-105003600D02*
X70322000Y-105653600D01*
%TO.C,J7*%
X98727600Y-140919800D02*
X98727600Y-141669800D01*
X86217600Y-145219800D02*
X86217600Y-148019800D01*
X87127600Y-141669800D02*
X88927600Y-141669800D01*
X101437600Y-150719800D02*
X101437600Y-152819800D01*
X101437600Y-145219800D02*
X101437600Y-148019800D01*
X86217600Y-150719800D02*
X86217600Y-152819800D01*
X98727600Y-141669800D02*
X100527600Y-141669800D01*
D10*
%TO.C,J9*%
X166915700Y-131960000D02*
X152215700Y-131960000D01*
X166915700Y-116960000D02*
X166915700Y-131960000D01*
X152215700Y-131960000D02*
X152215700Y-116960000D01*
X152215700Y-116960000D02*
X166915700Y-116960000D01*
X162715700Y-121410000D02*
G75*
G03*
X162715700Y-121410000I-500000J0D01*
G01*
X162715700Y-129390000D02*
G75*
G03*
X162715700Y-129390000I-500000J0D01*
G01*
D12*
%TO.C,R36*%
X40409864Y-83135800D02*
X39955736Y-83135800D01*
X40409864Y-84605800D02*
X39955736Y-84605800D01*
%TO.C,J8*%
X135230866Y-115009400D02*
X132570866Y-115009400D01*
X135230866Y-127769400D02*
X132570866Y-127769400D01*
X135230866Y-127769400D02*
X135230866Y-115009400D01*
X132570866Y-130369400D02*
X132570866Y-129039400D01*
X132570866Y-127769400D02*
X132570866Y-115009400D01*
X133900866Y-130369400D02*
X132570866Y-130369400D01*
%TO.C,R17*%
X143841736Y-122096200D02*
X144295864Y-122096200D01*
X143841736Y-120626200D02*
X144295864Y-120626200D01*
%TO.C,R13*%
X39749400Y-123724936D02*
X39749400Y-124179064D01*
X38279400Y-123724936D02*
X38279400Y-124179064D01*
%TO.C,R26*%
X62253864Y-106094200D02*
X61799736Y-106094200D01*
X62253864Y-104624200D02*
X61799736Y-104624200D01*
%TO.C,Q4*%
X70322000Y-109423200D02*
X70322000Y-108773200D01*
X70322000Y-109423200D02*
X70322000Y-110073200D01*
X73442000Y-109423200D02*
X73442000Y-107748200D01*
X73442000Y-109423200D02*
X73442000Y-110073200D01*
%TO.C,SW1*%
X150000400Y-141026000D02*
X148500400Y-141026000D01*
X148500400Y-148026000D02*
X150000400Y-148026000D01*
X152500400Y-146776000D02*
X152500400Y-142276000D01*
X146000400Y-142276000D02*
X146000400Y-146776000D01*
%TO.C,G1*%
G36*
X128099504Y-75128286D02*
G01*
X128288370Y-75372877D01*
X128229554Y-75556960D01*
X127939817Y-75648484D01*
X127825035Y-75653169D01*
X127477164Y-75608011D01*
X127359784Y-75466762D01*
X127359590Y-75458371D01*
X127471334Y-75222035D01*
X127727163Y-75077172D01*
X128007972Y-75076918D01*
X128099504Y-75128286D01*
G37*
G36*
X141280023Y-75502048D02*
G01*
X141463441Y-75109856D01*
X141800068Y-74753979D01*
X142199850Y-74513547D01*
X142470114Y-74456310D01*
X143010493Y-74570783D01*
X143432517Y-74876177D01*
X143714039Y-75315455D01*
X143832914Y-75831581D01*
X143766995Y-76367516D01*
X143494135Y-76866225D01*
X143432774Y-76935589D01*
X143053517Y-77167537D01*
X142557283Y-77253829D01*
X142054201Y-77187238D01*
X141756651Y-77045583D01*
X141489468Y-76723072D01*
X141311085Y-76248466D01*
X141295776Y-76107238D01*
X142010574Y-76107238D01*
X142117558Y-76444930D01*
X142365553Y-76676336D01*
X142682500Y-76688229D01*
X142892155Y-76557462D01*
X143017318Y-76279731D01*
X143045938Y-75877783D01*
X142982942Y-75473253D01*
X142836803Y-75191265D01*
X142582387Y-75064383D01*
X142340923Y-75147676D01*
X142144045Y-75386008D01*
X142023384Y-75724241D01*
X142010574Y-76107238D01*
X141295776Y-76107238D01*
X141254863Y-75729798D01*
X141280023Y-75502048D01*
G37*
G36*
X134915742Y-75107559D02*
G01*
X135107958Y-75410823D01*
X135202634Y-75816031D01*
X135205663Y-75902039D01*
X135131177Y-76385463D01*
X134913256Y-76658229D01*
X134673726Y-76717043D01*
X134394495Y-76628321D01*
X134301370Y-76557462D01*
X134161270Y-76271919D01*
X134142665Y-75887493D01*
X134225271Y-75489660D01*
X134388808Y-75163896D01*
X134612991Y-74995679D01*
X134673726Y-74988247D01*
X134915742Y-75107559D01*
G37*
G36*
X138130306Y-73577148D02*
G01*
X138609911Y-73740049D01*
X138926365Y-73938039D01*
X139050545Y-74179645D01*
X139062207Y-74338478D01*
X139022985Y-74616553D01*
X138858767Y-74715055D01*
X138729747Y-74722278D01*
X138465791Y-74656867D01*
X138397286Y-74471813D01*
X138282681Y-74262785D01*
X137994636Y-74144057D01*
X137616808Y-74137801D01*
X137373389Y-74200422D01*
X137098420Y-74379471D01*
X137069295Y-74595100D01*
X137272738Y-74823912D01*
X137695475Y-75042509D01*
X137890286Y-75111471D01*
X138530070Y-75396694D01*
X138919020Y-75761454D01*
X139061347Y-76209847D01*
X139062207Y-76251598D01*
X138949176Y-76719851D01*
X138618551Y-77045903D01*
X138083035Y-77220603D01*
X137677528Y-77248980D01*
X137166008Y-77203920D01*
X136771382Y-77084799D01*
X136698080Y-77041963D01*
X136492536Y-76800724D01*
X136397670Y-76498657D01*
X136418922Y-76223854D01*
X136561730Y-76064409D01*
X136636956Y-76052121D01*
X136866215Y-76161878D01*
X137002663Y-76351336D01*
X137210013Y-76587116D01*
X137518335Y-76697341D01*
X137855187Y-76693865D01*
X138148127Y-76588540D01*
X138324714Y-76393220D01*
X138319045Y-76135950D01*
X138153524Y-75971250D01*
X137820793Y-75786195D01*
X137575677Y-75686896D01*
X136978011Y-75429740D01*
X136609173Y-75145167D01*
X136432191Y-74796266D01*
X136402522Y-74515667D01*
X136450348Y-74164606D01*
X136641456Y-73921661D01*
X136834721Y-73789931D01*
X137457220Y-73559296D01*
X138130306Y-73577148D01*
G37*
G36*
X146592370Y-74926046D02*
G01*
X146935512Y-74641704D01*
X147470115Y-74486135D01*
X147959205Y-74557284D01*
X148349674Y-74824733D01*
X148588415Y-75258065D01*
X148637077Y-75616266D01*
X148637077Y-76052121D01*
X147839171Y-76052121D01*
X147363349Y-76070306D01*
X147110950Y-76131054D01*
X147041265Y-76235315D01*
X147155627Y-76515550D01*
X147468773Y-76668053D01*
X147935796Y-76671645D01*
X147958902Y-76668095D01*
X148328085Y-76639282D01*
X148513146Y-76715669D01*
X148551659Y-76782169D01*
X148525790Y-76996660D01*
X148305293Y-77150203D01*
X147955690Y-77237193D01*
X147542498Y-77252024D01*
X147131239Y-77189091D01*
X146787433Y-77042786D01*
X146667539Y-76943372D01*
X146380325Y-76474143D01*
X146277919Y-75931185D01*
X146343752Y-75447172D01*
X147063747Y-75447172D01*
X147118118Y-75594845D01*
X147419402Y-75651706D01*
X147506710Y-75653169D01*
X147854581Y-75608011D01*
X147971960Y-75466762D01*
X147972155Y-75458371D01*
X147864394Y-75213120D01*
X147615803Y-75090782D01*
X147338423Y-75131833D01*
X147249977Y-75197486D01*
X147063747Y-75447172D01*
X146343752Y-75447172D01*
X146351530Y-75389990D01*
X146592370Y-74926046D01*
G37*
G36*
X124666658Y-74215560D02*
G01*
X125008224Y-74274511D01*
X125166328Y-74411679D01*
X125211224Y-74581843D01*
X125144069Y-74927581D01*
X124872481Y-75168717D01*
X124475010Y-75254216D01*
X124277529Y-75221195D01*
X124189066Y-75073335D01*
X124167997Y-74737440D01*
X124167967Y-74714251D01*
X124167967Y-74174286D01*
X124666658Y-74215560D01*
G37*
G36*
X140410447Y-73959380D02*
G01*
X140514757Y-74111822D01*
X140525035Y-74271061D01*
X140567209Y-74518146D01*
X140711343Y-74545992D01*
X140724511Y-74541204D01*
X140879187Y-74558092D01*
X140923988Y-74788771D01*
X140877063Y-75022085D01*
X140724511Y-75036338D01*
X140616198Y-75037911D01*
X140554920Y-75178699D01*
X140528795Y-75506481D01*
X140525035Y-75838417D01*
X140533064Y-76310857D01*
X140568926Y-76575874D01*
X140650286Y-76691816D01*
X140791003Y-76717043D01*
X141013261Y-76811077D01*
X141056972Y-76983011D01*
X141003616Y-77167806D01*
X140796539Y-77241191D01*
X140601026Y-77248980D01*
X140225682Y-77190096D01*
X139944033Y-77047632D01*
X139936104Y-77040005D01*
X139808537Y-76805486D01*
X139742093Y-76392749D01*
X139727129Y-75909638D01*
X139716206Y-75411524D01*
X139675631Y-75127202D01*
X139593694Y-75005102D01*
X139517902Y-74988247D01*
X139361238Y-74891961D01*
X139359569Y-74755525D01*
X139475373Y-74575078D01*
X139568797Y-74556048D01*
X139688313Y-74469506D01*
X139727129Y-74256833D01*
X139770067Y-74019233D01*
X139952593Y-73932312D01*
X140126082Y-73924373D01*
X140410447Y-73959380D01*
G37*
G36*
X149169014Y-72461546D02*
G01*
X149169014Y-78445839D01*
X122306187Y-78445839D01*
X122306187Y-77913902D01*
X122705139Y-77913902D01*
X122837852Y-77938948D01*
X123234924Y-77961428D01*
X123894762Y-77981323D01*
X124815769Y-77998619D01*
X125996350Y-78013299D01*
X127434908Y-78025346D01*
X129129849Y-78034745D01*
X131079576Y-78041479D01*
X133282494Y-78045531D01*
X135737007Y-78046886D01*
X148770061Y-78046886D01*
X148770061Y-72860498D01*
X135737600Y-72860498D01*
X133283030Y-72861853D01*
X131080054Y-72865904D01*
X129130268Y-72872637D01*
X127435269Y-72882035D01*
X125996651Y-72894082D01*
X124816011Y-72908761D01*
X123894944Y-72926057D01*
X123235046Y-72945952D01*
X122837913Y-72968431D01*
X122705139Y-72993477D01*
X122705139Y-72993483D01*
X122837404Y-73027114D01*
X123231403Y-73055999D01*
X123882940Y-73080053D01*
X124787823Y-73099194D01*
X125941858Y-73113339D01*
X127340849Y-73122404D01*
X128980603Y-73126308D01*
X129420846Y-73126467D01*
X136136553Y-73126467D01*
X136136553Y-77780917D01*
X129420846Y-77780917D01*
X127722449Y-77783536D01*
X126263782Y-77791338D01*
X125049039Y-77804240D01*
X124082414Y-77822158D01*
X123368102Y-77845011D01*
X122910296Y-77872713D01*
X122713191Y-77905184D01*
X122705139Y-77913902D01*
X122306187Y-77913902D01*
X122306187Y-77063731D01*
X122971108Y-77063731D01*
X123047569Y-77173742D01*
X123305011Y-77232230D01*
X123769014Y-77248980D01*
X124242852Y-77231228D01*
X124494774Y-77171458D01*
X124566919Y-77063731D01*
X124459651Y-76858435D01*
X124367443Y-76801937D01*
X124216494Y-76608642D01*
X124167967Y-76247744D01*
X124183261Y-75936346D01*
X124281760Y-75810855D01*
X124542388Y-75801796D01*
X124663694Y-75811371D01*
X124973040Y-75855326D01*
X125134743Y-75970842D01*
X125221829Y-76235179D01*
X125259218Y-76441430D01*
X125380863Y-76904021D01*
X125578776Y-77154113D01*
X125900470Y-77243618D01*
X125996501Y-77246944D01*
X126231270Y-77161004D01*
X126297795Y-76970037D01*
X126162731Y-76783535D01*
X126058002Y-76599347D01*
X126029747Y-76391466D01*
X125947048Y-76059421D01*
X125880625Y-75945567D01*
X126590166Y-75945567D01*
X126686317Y-76466235D01*
X126960879Y-76898551D01*
X127050008Y-76977249D01*
X127464831Y-77172172D01*
X127993459Y-77253006D01*
X128502346Y-77203419D01*
X128612064Y-77168260D01*
X128792509Y-76982429D01*
X128822417Y-76848454D01*
X128781900Y-76698984D01*
X128614397Y-76652139D01*
X128291752Y-76680544D01*
X127810377Y-76674403D01*
X127485103Y-76523808D01*
X127359822Y-76249723D01*
X127359590Y-76235315D01*
X127438795Y-76126069D01*
X127703383Y-76068121D01*
X128157495Y-76052121D01*
X128955401Y-76052121D01*
X128955401Y-75611752D01*
X128841512Y-75107261D01*
X128581961Y-74788771D01*
X129221370Y-74788771D01*
X129320111Y-74965249D01*
X129405839Y-74988247D01*
X129516180Y-75072856D01*
X129590945Y-75350083D01*
X129639198Y-75855029D01*
X129641987Y-75902826D01*
X129708723Y-76533236D01*
X129840591Y-76940630D01*
X130063107Y-77164992D01*
X130401784Y-77246306D01*
X130501004Y-77248980D01*
X130814914Y-77216816D01*
X130938094Y-77092526D01*
X130950166Y-76983011D01*
X130856131Y-76760754D01*
X130684197Y-76717043D01*
X130540259Y-76690102D01*
X130460010Y-76570100D01*
X130425367Y-76298267D01*
X130418228Y-75852645D01*
X130431546Y-75367791D01*
X130479131Y-75098308D01*
X130572434Y-74994577D01*
X130617705Y-74988247D01*
X130794011Y-74881798D01*
X130817181Y-74788771D01*
X131216134Y-74788771D01*
X131322584Y-74965077D01*
X131415611Y-74988247D01*
X131527941Y-75046341D01*
X131590139Y-75253749D01*
X131613776Y-75660159D01*
X131615087Y-75844797D01*
X131595877Y-76298754D01*
X131545739Y-76639082D01*
X131482103Y-76783535D01*
X131359740Y-76975947D01*
X131349118Y-77057352D01*
X131429061Y-77179463D01*
X131698018Y-77238472D01*
X132014040Y-77248980D01*
X132437748Y-77225941D01*
X132642500Y-77148428D01*
X132678961Y-77057352D01*
X132597914Y-76830940D01*
X132545977Y-76783535D01*
X132471889Y-76614652D01*
X132423612Y-76268437D01*
X132412993Y-75980315D01*
X132416449Y-75856823D01*
X133393662Y-75856823D01*
X133453877Y-76382743D01*
X133685202Y-76832376D01*
X133838862Y-76982484D01*
X134287126Y-77191593D01*
X134817412Y-77239165D01*
X135307373Y-77120370D01*
X135436873Y-77045583D01*
X135711651Y-76714470D01*
X135884635Y-76232387D01*
X135922169Y-75705457D01*
X135904838Y-75569955D01*
X135693851Y-75056544D01*
X135308952Y-74690224D01*
X134814606Y-74506871D01*
X134275277Y-74542362D01*
X134142336Y-74589068D01*
X133747626Y-74883213D01*
X133494823Y-75331389D01*
X133393662Y-75856823D01*
X132416449Y-75856823D01*
X132424790Y-75558737D01*
X132480158Y-75329334D01*
X132609058Y-75218657D01*
X132740688Y-75177037D01*
X132999189Y-75027461D01*
X133168241Y-74786293D01*
X133190800Y-74550876D01*
X133147964Y-74482031D01*
X132986455Y-74482170D01*
X132707482Y-74598163D01*
X132670376Y-74618852D01*
X132411994Y-74735192D01*
X132283249Y-74730550D01*
X132280008Y-74716093D01*
X132162016Y-74636687D01*
X131867261Y-74592525D01*
X131748071Y-74589294D01*
X131378199Y-74622233D01*
X131225788Y-74731423D01*
X131216134Y-74788771D01*
X130817181Y-74788771D01*
X130710732Y-74612464D01*
X130617705Y-74589294D01*
X130457271Y-74473691D01*
X130418228Y-74256833D01*
X130375290Y-74019233D01*
X130192764Y-73932312D01*
X130019276Y-73924373D01*
X129734155Y-73960155D01*
X129629850Y-74112259D01*
X129620323Y-74256833D01*
X129550960Y-74524224D01*
X129420846Y-74589294D01*
X129244540Y-74695744D01*
X129221370Y-74788771D01*
X128581961Y-74788771D01*
X128538467Y-74735400D01*
X128104204Y-74530385D01*
X127596658Y-74526433D01*
X127292147Y-74629458D01*
X126901084Y-74949577D01*
X126664423Y-75414147D01*
X126590166Y-75945567D01*
X125880625Y-75945567D01*
X125780153Y-75773352D01*
X125619034Y-75547965D01*
X125616802Y-75378198D01*
X125775083Y-75134399D01*
X125788383Y-75116393D01*
X125965916Y-74680750D01*
X125904298Y-74241325D01*
X125616139Y-73876731D01*
X125586009Y-73854778D01*
X125318099Y-73751776D01*
X124902337Y-73682886D01*
X124406333Y-73648027D01*
X123897700Y-73647121D01*
X123444049Y-73680086D01*
X123112994Y-73746843D01*
X122972144Y-73847310D01*
X122971108Y-73857881D01*
X123077558Y-74034187D01*
X123170584Y-74057357D01*
X123270098Y-74178362D01*
X123340034Y-74496756D01*
X123380392Y-74945613D01*
X123391172Y-75458001D01*
X123372375Y-75966994D01*
X123323999Y-76405663D01*
X123246046Y-76707077D01*
X123170584Y-76801937D01*
X122993845Y-76969376D01*
X122971108Y-77063731D01*
X122306187Y-77063731D01*
X122306187Y-72461546D01*
X149169014Y-72461546D01*
G37*
G36*
X146074335Y-74558212D02*
G01*
X146110375Y-74729196D01*
X145988610Y-74991011D01*
X145711422Y-75141158D01*
X145478572Y-75242543D01*
X145360023Y-75389546D01*
X145317500Y-75663072D01*
X145312469Y-75984411D01*
X145340665Y-76455099D01*
X145432257Y-76706251D01*
X145511946Y-76765134D01*
X145688852Y-76942857D01*
X145711422Y-77045330D01*
X145649463Y-77167486D01*
X145428900Y-77230535D01*
X144997707Y-77248965D01*
X144980008Y-77248980D01*
X144557326Y-77237436D01*
X144337132Y-77187523D01*
X144256396Y-77076321D01*
X144248595Y-76983011D01*
X144304285Y-76766916D01*
X144381579Y-76717043D01*
X144451071Y-76594911D01*
X144498650Y-76271378D01*
X144514563Y-75852645D01*
X144502361Y-75372587D01*
X144457284Y-75105250D01*
X144366630Y-74998154D01*
X144305336Y-74988247D01*
X144145556Y-74888542D01*
X144139106Y-74766550D01*
X144269498Y-74602745D01*
X144603052Y-74545501D01*
X144657631Y-74544910D01*
X145011024Y-74565814D01*
X145247123Y-74616866D01*
X145262409Y-74624848D01*
X145472961Y-74632251D01*
X145584787Y-74582556D01*
X145892361Y-74464096D01*
X146074335Y-74558212D01*
G37*
%TO.C,R32*%
X122709000Y-135205736D02*
X122709000Y-135659864D01*
X124179000Y-135205736D02*
X124179000Y-135659864D01*
%TO.C,J5*%
X21605400Y-118236000D02*
X21605400Y-117476000D01*
X27605400Y-130756000D02*
X21605400Y-130756000D01*
X27605400Y-130276000D02*
X21605400Y-130276000D01*
X30662471Y-123316000D02*
X30265400Y-123316000D01*
X21605400Y-127636000D02*
X27605400Y-127636000D01*
X27605400Y-116526000D02*
X27605400Y-131886000D01*
X21605400Y-122556000D02*
X27605400Y-122556000D01*
X30662471Y-125096000D02*
X30265400Y-125096000D01*
X30662471Y-122556000D02*
X30265400Y-122556000D01*
X21605400Y-125856000D02*
X21605400Y-125096000D01*
X30662471Y-118236000D02*
X30265400Y-118236000D01*
X27605400Y-120776000D02*
X21605400Y-120776000D01*
X27605400Y-118236000D02*
X21605400Y-118236000D01*
X21605400Y-120016000D02*
X27605400Y-120016000D01*
X21605400Y-130936000D02*
X21605400Y-130176000D01*
X30662471Y-127636000D02*
X30265400Y-127636000D01*
X27605400Y-130876000D02*
X21605400Y-130876000D01*
X30265400Y-116526000D02*
X27605400Y-116526000D01*
X30265400Y-121666000D02*
X27605400Y-121666000D01*
X21605400Y-128396000D02*
X21605400Y-127636000D01*
X27605400Y-130396000D02*
X21605400Y-130396000D01*
X21605400Y-117476000D02*
X27605400Y-117476000D01*
X30662471Y-120776000D02*
X30265400Y-120776000D01*
X21605400Y-120776000D02*
X21605400Y-120016000D01*
X30265400Y-119126000D02*
X27605400Y-119126000D01*
X32975400Y-130556000D02*
X32975400Y-131826000D01*
X30662471Y-125856000D02*
X30265400Y-125856000D01*
X30662471Y-128396000D02*
X30265400Y-128396000D01*
X30265400Y-129286000D02*
X27605400Y-129286000D01*
X27605400Y-128396000D02*
X21605400Y-128396000D01*
X21605400Y-123316000D02*
X21605400Y-122556000D01*
X21605400Y-125096000D02*
X27605400Y-125096000D01*
X27605400Y-130636000D02*
X21605400Y-130636000D01*
X30662471Y-120016000D02*
X30265400Y-120016000D01*
X30595400Y-130176000D02*
X30265400Y-130176000D01*
X27605400Y-123316000D02*
X21605400Y-123316000D01*
X30265400Y-131886000D02*
X30265400Y-116526000D01*
X30595400Y-130936000D02*
X30265400Y-130936000D01*
X30265400Y-124206000D02*
X27605400Y-124206000D01*
X32975400Y-131826000D02*
X31705400Y-131826000D01*
X27605400Y-130936000D02*
X21605400Y-130936000D01*
X21605400Y-130176000D02*
X27605400Y-130176000D01*
X30265400Y-126746000D02*
X27605400Y-126746000D01*
X27605400Y-130516000D02*
X21605400Y-130516000D01*
X30662471Y-117476000D02*
X30265400Y-117476000D01*
X27605400Y-125856000D02*
X21605400Y-125856000D01*
X27605400Y-131886000D02*
X30265400Y-131886000D01*
%TO.C,R18*%
X143841736Y-119962600D02*
X144295864Y-119962600D01*
X143841736Y-118492600D02*
X144295864Y-118492600D01*
%TO.C,R1*%
X37209464Y-140438200D02*
X36755336Y-140438200D01*
X37209464Y-141908200D02*
X36755336Y-141908200D01*
%TO.C,U3*%
X102106400Y-82160400D02*
X102381400Y-82160400D01*
X102106400Y-79400400D02*
X102106400Y-82160400D01*
X109526400Y-82160400D02*
X109251400Y-82160400D01*
X109526400Y-79400400D02*
X109526400Y-82160400D01*
X109526400Y-76640400D02*
X109251400Y-76640400D01*
X102106400Y-76640400D02*
X102381400Y-76640400D01*
X102106400Y-79400400D02*
X102106400Y-76640400D01*
X109526400Y-79400400D02*
X109526400Y-76640400D01*
X109251400Y-76640400D02*
X109251400Y-74950400D01*
%TO.C,Q1*%
X122741333Y-127066000D02*
X122091333Y-127066000D01*
X122741333Y-123946000D02*
X123391333Y-123946000D01*
X122741333Y-123946000D02*
X122091333Y-123946000D01*
X122741333Y-127066000D02*
X124416333Y-127066000D01*
%TO.C,D4*%
X51894732Y-137531600D02*
X51894732Y-140391600D01*
X51894732Y-140391600D02*
X53814732Y-140391600D01*
X53814732Y-140391600D02*
X53814732Y-137531600D01*
%TO.C,U4*%
X98347200Y-109778800D02*
X98347200Y-112538800D01*
X98347200Y-109778800D02*
X98347200Y-107018800D01*
X98347200Y-112538800D02*
X98622200Y-112538800D01*
X105767200Y-109778800D02*
X105767200Y-107018800D01*
X98347200Y-107018800D02*
X98622200Y-107018800D01*
X105767200Y-107018800D02*
X105492200Y-107018800D01*
X105492200Y-107018800D02*
X105492200Y-105328800D01*
X105767200Y-109778800D02*
X105767200Y-112538800D01*
X105767200Y-112538800D02*
X105492200Y-112538800D01*
D13*
%TO.C,U1*%
X160701600Y-88637600D02*
X160701600Y-106637600D01*
D10*
X160756600Y-106654600D02*
X166725600Y-106654600D01*
D13*
X135171600Y-106637600D02*
X135171600Y-88637600D01*
D10*
X160756600Y-88620600D02*
X166725600Y-88620600D01*
X166725600Y-106654600D02*
X166725600Y-88620600D01*
D13*
X160701600Y-106637600D02*
X135171600Y-106637600D01*
X135171600Y-88637600D02*
X160701600Y-88637600D01*
D12*
%TO.C,C21*%
X105510000Y-130436252D02*
X105510000Y-129913748D01*
X104040000Y-130436252D02*
X104040000Y-129913748D01*
%TO.C,R30*%
X140082600Y-136828264D02*
X140082600Y-136374136D01*
X141552600Y-136828264D02*
X141552600Y-136374136D01*
%TO.C,R24*%
X72901963Y-130064799D02*
X72447835Y-130064799D01*
X72901963Y-128594799D02*
X72447835Y-128594799D01*
%TO.C,Q5*%
X70322000Y-113842800D02*
X70322000Y-113192800D01*
X73442000Y-113842800D02*
X73442000Y-112167800D01*
X73442000Y-113842800D02*
X73442000Y-114492800D01*
X70322000Y-113842800D02*
X70322000Y-114492800D01*
%TO.C,C5*%
X93346600Y-125976748D02*
X93346600Y-126499252D01*
X94816600Y-125976748D02*
X94816600Y-126499252D01*
%TO.C,R12*%
X39749400Y-118628935D02*
X39749400Y-119083063D01*
X38279400Y-118628935D02*
X38279400Y-119083063D01*
%TO.C,R22*%
X63842563Y-132723399D02*
X63388435Y-132723399D01*
X63842563Y-131253399D02*
X63388435Y-131253399D01*
D10*
%TO.C,J12*%
X163569700Y-70926800D02*
X161769700Y-70926800D01*
X161769700Y-70926800D02*
X161769700Y-71526800D01*
X161769700Y-78526800D02*
X161769700Y-77926800D01*
X161269700Y-75726800D02*
X161269700Y-76426800D01*
X163369700Y-78526800D02*
X161769700Y-78526800D01*
X161269700Y-76426800D02*
X161769700Y-76426800D01*
D12*
%TO.C,C11*%
X111919652Y-82373800D02*
X111397148Y-82373800D01*
X111919652Y-83843800D02*
X111397148Y-83843800D01*
%TO.C,R28*%
X62253864Y-102541400D02*
X61799736Y-102541400D01*
X62253864Y-104011400D02*
X61799736Y-104011400D01*
%TO.C,R23*%
X72901963Y-126511999D02*
X72447835Y-126511999D01*
X72901963Y-127981999D02*
X72447835Y-127981999D01*
%TO.C,R4*%
X103147800Y-130402064D02*
X103147800Y-129947936D01*
X101677800Y-130402064D02*
X101677800Y-129947936D01*
%TO.C,R38*%
X49073666Y-143536936D02*
X49073666Y-143991064D01*
X50543666Y-143536936D02*
X50543666Y-143991064D01*
%TO.C,R20*%
X127094866Y-120356136D02*
X127094866Y-120810264D01*
X128564866Y-120356136D02*
X128564866Y-120810264D01*
%TO.C,U2*%
X88288800Y-79400400D02*
X88288800Y-82160400D01*
X88288800Y-76640400D02*
X88563800Y-76640400D01*
X95708800Y-79400400D02*
X95708800Y-82160400D01*
X95433800Y-76640400D02*
X95433800Y-74950400D01*
X95708800Y-76640400D02*
X95433800Y-76640400D01*
X95708800Y-82160400D02*
X95433800Y-82160400D01*
X95708800Y-79400400D02*
X95708800Y-76640400D01*
X88288800Y-82160400D02*
X88563800Y-82160400D01*
X88288800Y-79400400D02*
X88288800Y-76640400D01*
%TO.C,C2*%
X101065000Y-125976748D02*
X101065000Y-126499252D01*
X99595000Y-125976748D02*
X99595000Y-126499252D01*
%TO.C,D1*%
X28679000Y-141545800D02*
X29144000Y-141545800D01*
X31304000Y-141545800D02*
X31769000Y-141545800D01*
X31304000Y-141240484D02*
G75*
G03*
X31304429Y-136731321I-1080000J2254684D01*
G01*
X29143571Y-136731321D02*
G75*
G03*
X29144000Y-141240484I1080429J-2254479D01*
G01*
X29143173Y-136197985D02*
G75*
G03*
X28679170Y-141545800I1080827J-2787815D01*
G01*
X31768830Y-141545800D02*
G75*
G03*
X31304827Y-136197985I-1544830J2560000D01*
G01*
D10*
%TO.C,J11*%
X115021600Y-140409600D02*
X115021600Y-152909600D01*
X129021600Y-151009600D02*
X115021600Y-151009600D01*
X115021600Y-152909600D02*
X129021600Y-152909600D01*
X129021600Y-152909600D02*
X129021600Y-140409600D01*
X129021600Y-140409600D02*
X115021600Y-140409600D01*
%TO.C,Conn1*%
X113986000Y-98069700D02*
X113986000Y-115569700D01*
X113886000Y-89069700D02*
X112886000Y-89069700D01*
X112886000Y-89069700D02*
X110886000Y-89069700D01*
X113986000Y-89069700D02*
X113986000Y-98069700D01*
X42986000Y-98069700D02*
X42986000Y-89069700D01*
X43986000Y-89069700D02*
X45986000Y-89069700D01*
X42986000Y-98069700D02*
X42986000Y-115569700D01*
X42986000Y-89069700D02*
X43986000Y-89069700D01*
D12*
%TO.C,R37*%
X47482600Y-143536936D02*
X47482600Y-143991064D01*
X46012600Y-143536936D02*
X46012600Y-143991064D01*
%TO.C,R5*%
X101065000Y-130402064D02*
X101065000Y-129947936D01*
X99595000Y-130402064D02*
X99595000Y-129947936D01*
%TO.C,R3*%
X37209464Y-139723800D02*
X36755336Y-139723800D01*
X37209464Y-138253800D02*
X36755336Y-138253800D01*
%TO.C,J1*%
X33883600Y-62899600D02*
X32553600Y-62899600D01*
X96173600Y-62899600D02*
X96173600Y-57699600D01*
X32553600Y-62899600D02*
X32553600Y-61569600D01*
X32553600Y-60299600D02*
X32553600Y-57699600D01*
X35153600Y-60299600D02*
X32553600Y-60299600D01*
X32553600Y-57699600D02*
X96173600Y-57699600D01*
X35153600Y-62899600D02*
X96173600Y-62899600D01*
X35153600Y-62899600D02*
X35153600Y-60299600D01*
%TO.C,R25*%
X118387800Y-120810264D02*
X118387800Y-120356136D01*
X116917800Y-120810264D02*
X116917800Y-120356136D01*
%TO.C,D5*%
X56845800Y-140391600D02*
X56845800Y-137531600D01*
X54925800Y-140391600D02*
X56845800Y-140391600D01*
X54925800Y-137531600D02*
X54925800Y-140391600D01*
%TO.C,R11*%
X87098200Y-130402064D02*
X87098200Y-129947936D01*
X88568200Y-130402064D02*
X88568200Y-129947936D01*
%TO.C,R9*%
X92733800Y-130402064D02*
X92733800Y-129947936D01*
X91263800Y-130402064D02*
X91263800Y-129947936D01*
%TO.C,J6*%
X30662471Y-98119200D02*
X30265400Y-98119200D01*
X21605400Y-94819200D02*
X27605400Y-94819200D01*
X21605400Y-103199200D02*
X21605400Y-102439200D01*
X30662471Y-97359200D02*
X30265400Y-97359200D01*
X27605400Y-100659200D02*
X21605400Y-100659200D01*
X27605400Y-109229200D02*
X30265400Y-109229200D01*
X30662471Y-102439200D02*
X30265400Y-102439200D01*
X21605400Y-100659200D02*
X21605400Y-99899200D01*
X30662471Y-95579200D02*
X30265400Y-95579200D01*
X27605400Y-107739200D02*
X21605400Y-107739200D01*
X27605400Y-107979200D02*
X21605400Y-107979200D01*
X30265400Y-109229200D02*
X30265400Y-93869200D01*
X30265400Y-93869200D02*
X27605400Y-93869200D01*
X30662471Y-94819200D02*
X30265400Y-94819200D01*
X30662471Y-105739200D02*
X30265400Y-105739200D01*
X30662471Y-100659200D02*
X30265400Y-100659200D01*
X30662471Y-103199200D02*
X30265400Y-103199200D01*
X21605400Y-97359200D02*
X27605400Y-97359200D01*
X27605400Y-108279200D02*
X21605400Y-108279200D01*
X27605400Y-107619200D02*
X21605400Y-107619200D01*
X30662471Y-99899200D02*
X30265400Y-99899200D01*
X30265400Y-104089200D02*
X27605400Y-104089200D01*
X27605400Y-108219200D02*
X21605400Y-108219200D01*
X30265400Y-99009200D02*
X27605400Y-99009200D01*
X21605400Y-105739200D02*
X21605400Y-104979200D01*
X21605400Y-107519200D02*
X27605400Y-107519200D01*
X32975400Y-109169200D02*
X31705400Y-109169200D01*
X30265400Y-106629200D02*
X27605400Y-106629200D01*
X30595400Y-108279200D02*
X30265400Y-108279200D01*
X21605400Y-108279200D02*
X21605400Y-107519200D01*
X27605400Y-98119200D02*
X21605400Y-98119200D01*
X27605400Y-93869200D02*
X27605400Y-109229200D01*
X30265400Y-96469200D02*
X27605400Y-96469200D01*
X21605400Y-95579200D02*
X21605400Y-94819200D01*
X30595400Y-107519200D02*
X30265400Y-107519200D01*
X27605400Y-95579200D02*
X21605400Y-95579200D01*
X21605400Y-99899200D02*
X27605400Y-99899200D01*
X32975400Y-107899200D02*
X32975400Y-109169200D01*
X21605400Y-102439200D02*
X27605400Y-102439200D01*
X27605400Y-107859200D02*
X21605400Y-107859200D01*
X21605400Y-104979200D02*
X27605400Y-104979200D01*
X30662471Y-104979200D02*
X30265400Y-104979200D01*
X27605400Y-105739200D02*
X21605400Y-105739200D01*
X30265400Y-101549200D02*
X27605400Y-101549200D01*
X27605400Y-103199200D02*
X21605400Y-103199200D01*
X21605400Y-98119200D02*
X21605400Y-97359200D01*
X27605400Y-108099200D02*
X21605400Y-108099200D01*
%TO.C,C18*%
X56090452Y-113920600D02*
X55567948Y-113920600D01*
X56090452Y-115390600D02*
X55567948Y-115390600D01*
%TO.C,R14*%
X39749400Y-128804936D02*
X39749400Y-129259064D01*
X38279400Y-128804936D02*
X38279400Y-129259064D01*
%TO.C,U5*%
X50696800Y-108610400D02*
X50696800Y-105850400D01*
X58116800Y-108610400D02*
X58116800Y-105850400D01*
X57841800Y-105850400D02*
X57841800Y-104160400D01*
X58116800Y-105850400D02*
X57841800Y-105850400D01*
X50696800Y-108610400D02*
X50696800Y-111370400D01*
X58116800Y-108610400D02*
X58116800Y-111370400D01*
X58116800Y-111370400D02*
X57841800Y-111370400D01*
X50696800Y-111370400D02*
X50971800Y-111370400D01*
X50696800Y-105850400D02*
X50971800Y-105850400D01*
%TO.C,C10*%
X98102052Y-82373800D02*
X97579548Y-82373800D01*
X98102052Y-83843800D02*
X97579548Y-83843800D01*
%TO.C,R15*%
X143841736Y-122759800D02*
X144295864Y-122759800D01*
X143841736Y-124229800D02*
X144295864Y-124229800D01*
%TO.C,R6*%
X97512200Y-130402064D02*
X97512200Y-129947936D01*
X98982200Y-130402064D02*
X98982200Y-129947936D01*
%TO.C,R21*%
X63388435Y-134755399D02*
X63842563Y-134755399D01*
X63388435Y-133285399D02*
X63842563Y-133285399D01*
%TO.C,U6*%
X74471200Y-82160400D02*
X74746200Y-82160400D01*
X74471200Y-79400400D02*
X74471200Y-76640400D01*
X81891200Y-79400400D02*
X81891200Y-82160400D01*
X81891200Y-82160400D02*
X81616200Y-82160400D01*
X81616200Y-76640400D02*
X81616200Y-74950400D01*
X74471200Y-79400400D02*
X74471200Y-82160400D01*
X74471200Y-76640400D02*
X74746200Y-76640400D01*
X81891200Y-76640400D02*
X81616200Y-76640400D01*
X81891200Y-79400400D02*
X81891200Y-76640400D01*
%TO.C,C9*%
X38381000Y-106215548D02*
X38381000Y-106738052D01*
X39851000Y-106215548D02*
X39851000Y-106738052D01*
%TO.C,C13*%
X72885351Y-132147599D02*
X72362847Y-132147599D01*
X72885351Y-130677599D02*
X72362847Y-130677599D01*
%TO.C,C14*%
X63513847Y-130663199D02*
X64936351Y-130663199D01*
X63513847Y-128843199D02*
X64936351Y-128843199D01*
%TD*%
M02*
