M48
; DRILL file {KiCad (6.0.9)} date Wed Dec 28 10:20:01 2022
; FORMAT={-:-/ absolute / inch / decimal}
; #@! TF.CreationDate,2022-12-28T10:20:01-08:00
; #@! TF.GenerationSoftware,Kicad,Pcbnew,(6.0.9)
; #@! TF.FileFunction,Plated,1,2,PTH
FMAT,2
INCH
; #@! TA.AperFunction,Plated,PTH,ComponentDrill
T1C0.0118
; #@! TA.AperFunction,Plated,PTH,ViaDrill
T2C0.0157
; #@! TA.AperFunction,Plated,PTH,ComponentDrill
T3C0.0197
; #@! TA.AperFunction,Plated,PTH,ComponentDrill
T4C0.0236
; #@! TA.AperFunction,Plated,PTH,ComponentDrill
T5C0.0354
; #@! TA.AperFunction,Plated,PTH,ComponentDrill
T6C0.0394
; #@! TA.AperFunction,Plated,PTH,ComponentDrill
T7C0.0433
; #@! TA.AperFunction,Plated,PTH,ComponentDrill
T8C0.0787
; #@! TA.AperFunction,Plated,PTH,ComponentDrill
T9C0.0866
; #@! TA.AperFunction,Plated,PTH,ComponentDrill
T10C0.1181
%
G90
G05
T1
X5.9174Y-3.7495
X5.9174Y-3.7889
X5.9174Y-3.8283
X5.9174Y-3.8676
X5.9174Y-3.907
X5.9568Y-3.7495
X5.9568Y-3.7889
X5.9568Y-3.8283
X5.9568Y-3.8676
X5.9568Y-3.907
X5.9961Y-3.7495
X5.9961Y-3.7889
X5.9961Y-3.8283
X5.9961Y-3.8676
X5.9961Y-3.907
X6.0355Y-3.7495
X6.0355Y-3.7889
X6.0355Y-3.8283
X6.0355Y-3.8676
X6.0355Y-3.907
X6.0749Y-3.7495
X6.0749Y-3.7889
X6.0749Y-3.8283
X6.0749Y-3.8676
X6.0749Y-3.907
T2
X0.966Y-3.004
X1.136Y-2.662
X1.29Y-2.664
X1.3875Y-2.1875
X1.6105Y-4.033
X1.6395Y-5.388
X1.643Y-4.504
X1.668Y-5.47
X1.6715Y-4.54
X1.688Y-3.006
X1.688Y-3.1
X1.688Y-3.2
X1.688Y-3.302
X1.7Y-4.572
X1.704Y-5.558
X1.7375Y-3.5375
X1.7375Y-3.8375
X1.9335Y-4.033
X1.984Y-3.592
X2.0142Y-3.914
X2.0325Y-4.202
X2.142Y-3.9098
X2.156Y-4.576
X2.1812Y-3.9832
X2.1822Y-3.9096
X2.216Y-4.0115
X2.254Y-4.0415
X2.2575Y-4.2742
X2.274Y-5.698
X2.314Y-4.138
X2.4245Y-3.188
X2.428Y-3.446
X2.436Y-3.9092
X2.466Y-4.934
X2.472Y-3.446
X2.5136Y-3.4464
X2.564Y-3.448
X2.578Y-3.592
X2.5875Y-2.1875
X2.592Y-4.932
X2.668Y-3.448
X2.69Y-4.05
X2.716Y-3.764
X2.72Y-4.016
X2.764Y-5.174
X2.768Y-3.778
X2.77Y-3.592
X2.776Y-5.358
X2.794Y-4.034
X2.826Y-3.984
X2.8348Y-4.4028
X2.928Y-2.986
X2.9343Y-3.9092
X2.972Y-3.9269
X3.014Y-3.964
X3.056Y-3.676
X3.056Y-3.944
X3.09Y-4.61
X3.096Y-3.77
X3.1235Y-3.7388
X3.17Y-3.762
X3.19Y-3.188
X3.2064Y-3.7469
X3.222Y-2.264
X3.238Y-3.772
X3.2669Y-3.7453
X3.308Y-3.766
X3.317Y-2.267
X3.3355Y-3.7296
X3.348Y-3.124
X3.3631Y-3.766
X3.418Y-2.268
X3.425Y-3.6
X3.458Y-5.225
X3.465Y-4.61
X3.466Y-2.986
X3.475Y-3.75
X3.475Y-4.25
X3.5375Y-5.225
X3.556Y-5.526
X3.625Y-5.225
X3.652Y-3.742
X3.704Y-5.225
X3.738Y-3.188
X3.7625Y-5.7
X3.7875Y-5.225
X3.8025Y-4.61
X3.875Y-5.225
X3.892Y-3.128
X3.902Y-4.296
X3.95Y-4.246
X3.95Y-5.225
X4.012Y-2.988
X4.0375Y-5.225
X4.088Y-3.786
X4.106Y-4.532
X4.125Y-5.0142
X4.125Y-5.225
X4.182Y-2.8528
X4.2117Y-2.8813
X4.2375Y-2.4875
X4.2392Y-2.9098
X4.277Y-2.9256
X4.28Y-3.188
X4.2888Y-3.6308
X4.36Y-4.468
X4.3875Y-2.95
X4.398Y-4.894
X4.436Y-3.124
X4.4375Y-3.525
X4.4375Y-3.8375
X4.636Y-2.5415
X4.6933Y-2.8528
X4.7503Y-2.8528
X4.774Y-5.292
X4.8614Y-2.5
X4.8614Y-2.878
X4.92Y-3.632
X4.92Y-3.712
X4.938Y-2.7735
X4.9815Y-2.5555
X5.008Y-2.878
X5.022Y-5.292
X5.036Y-3.6785
X5.036Y-3.7515
X5.0362Y-2.726
X5.084Y-2.548
X5.1362Y-2.8135
X5.224Y-3.978
X5.238Y-2.726
X5.254Y-3.58
X5.254Y-4.392
X5.2871Y-4.0298
X5.2909Y-2.7103
X5.322Y-3.6075
X5.334Y-2.7815
X5.3909Y-2.6945
X5.41Y-3.6355
X5.41Y-5.238
X5.4213Y-3.3635
X5.4362Y-2.7522
X5.45Y-5.29
X5.452Y-3.6355
X5.46Y-3.3475
X5.486Y-2.7125
X5.496Y-4.95
X5.498Y-5.3714
X5.5315Y-3.3745
X5.5362Y-2.8075
X5.5572Y-4.1168
X5.584Y-2.65
X5.5906Y-3.408
X5.6362Y-2.7782
X5.65Y-3.3115
X5.668Y-3.608
X5.67Y-4.64
X5.7362Y-2.6473
X5.76Y-4.778
X5.764Y-4.344
X5.7815Y-2.6315
X5.8182Y-4.0742
X5.8682Y-4.1018
X5.8905Y-4.3907
X5.8905Y-4.988
X5.916Y-4.296
X5.918Y-5.074
X5.966Y-3.59
X6.025Y-2.525
X6.062Y-3.316
X6.0682Y-4.1098
X6.14Y-4.062
X6.1695Y-3.604
X6.1847Y-3.314
X6.2182Y-4.0918
X6.22Y-3.188
X6.264Y-2.89
X6.268Y-3.386
X6.462Y-4.59
X6.462Y-5.202
T3
X0.9614Y-2.418
X0.9614Y-5.812
X0.9874Y-2.3554
X0.9874Y-2.4806
X0.9874Y-5.7494
X0.9874Y-5.8746
X1.05Y-2.3294
X1.05Y-2.5066
X1.05Y-5.7234
X1.05Y-5.9006
X1.1126Y-2.3554
X1.1126Y-2.4806
X1.1126Y-5.7494
X1.1126Y-5.8746
X1.1386Y-2.418
X1.1386Y-5.812
X6.2674Y-2.42
X6.2674Y-5.812
X6.2934Y-2.3574
X6.2934Y-2.4826
X6.2934Y-5.7494
X6.2934Y-5.8746
X6.356Y-2.3314
X6.356Y-2.5086
X6.356Y-5.7234
X6.356Y-5.9006
X6.4186Y-2.3574
X6.4186Y-2.4826
X6.4186Y-5.7494
X6.4186Y-5.8746
X6.4446Y-2.42
X6.4446Y-5.812
T5
X1.1899Y-5.3969
X1.1899Y-5.4469
X1.1899Y-5.4969
X1.1899Y-5.5469
X4.6701Y-5.587
X4.6701Y-5.6854
X4.7528Y-5.6854
X4.8552Y-5.6854
X4.9379Y-5.587
X4.9379Y-5.6854
T6
X1.2482Y-3.748
X1.2482Y-3.848
X1.2482Y-3.948
X1.2482Y-4.048
X1.2482Y-4.148
X1.2482Y-4.248
X1.2482Y-4.64
X1.2482Y-4.74
X1.2482Y-4.84
X1.2482Y-4.94
X1.2482Y-5.04
X1.2482Y-5.14
X1.334Y-2.324
X1.334Y-2.424
X1.434Y-2.324
X1.434Y-2.424
X1.534Y-2.324
X1.534Y-2.424
X1.634Y-2.324
X1.634Y-2.424
X1.734Y-2.324
X1.734Y-2.424
X1.834Y-2.324
X1.834Y-2.424
X1.934Y-2.324
X1.934Y-2.424
X2.034Y-2.324
X2.034Y-2.424
X2.134Y-2.324
X2.134Y-2.424
X2.234Y-2.324
X2.234Y-2.424
X2.334Y-2.324
X2.334Y-2.424
X2.434Y-2.324
X2.434Y-2.424
X2.534Y-2.324
X2.534Y-2.424
X2.634Y-2.324
X2.634Y-2.424
X2.734Y-2.324
X2.734Y-2.424
X2.834Y-2.324
X2.834Y-2.424
X2.934Y-2.324
X2.934Y-2.424
X3.034Y-2.324
X3.034Y-2.424
X3.134Y-2.324
X3.134Y-2.424
X3.234Y-2.324
X3.234Y-2.424
X3.334Y-2.324
X3.334Y-2.424
X3.434Y-2.324
X3.434Y-2.424
X3.534Y-2.324
X3.534Y-2.424
X3.634Y-2.324
X3.634Y-2.424
X3.734Y-2.324
X3.734Y-2.424
X4.1362Y-2.324
X4.1362Y-2.424
X4.2362Y-2.324
X4.2362Y-2.424
X4.3362Y-2.324
X4.3362Y-2.424
X4.4362Y-2.324
X4.4362Y-2.424
X4.5362Y-2.324
X4.5362Y-2.424
X4.6071Y-5.587
X4.6362Y-2.324
X4.6362Y-2.424
X4.7056Y-5.8862
X4.7362Y-2.324
X4.7362Y-2.424
X4.8362Y-2.324
X4.8362Y-2.424
X4.9024Y-5.8862
X4.9362Y-2.324
X4.9362Y-2.424
X5.0009Y-5.587
X5.0362Y-2.324
X5.0362Y-2.424
X5.1362Y-2.324
X5.1362Y-2.424
X5.2362Y-2.324
X5.2362Y-2.424
X5.2717Y-4.5803
X5.2717Y-4.6803
X5.2717Y-4.7803
X5.2717Y-4.8803
X5.2717Y-4.9803
X5.2717Y-5.0803
X5.3362Y-2.324
X5.3362Y-2.424
X5.4362Y-2.324
X5.4362Y-2.424
X5.5362Y-2.324
X5.5362Y-2.424
X5.6362Y-2.324
X5.6362Y-2.424
X5.7362Y-2.324
X5.7362Y-2.424
X5.8362Y-2.324
X5.8362Y-2.424
X5.9362Y-2.324
X5.9362Y-2.424
X6.0362Y-2.324
X6.0362Y-2.424
T7
X5.3694Y-5.556
X5.3694Y-5.812
X5.5466Y-5.556
X5.5466Y-5.812
X5.7874Y-5.562
X5.7874Y-5.818
X5.9646Y-5.562
X5.9646Y-5.818
T8
X2.5953Y-5.659
X2.5953Y-5.8755
X2.674Y-5.5133
X2.674Y-5.7298
X2.674Y-5.97
X4.5284Y-5.8035
X5.0796Y-5.8035
T9
X4.804Y-5.835
T10
X1.05Y-2.418
X1.05Y-5.812
X6.356Y-2.42
X6.356Y-5.812
T3
G00X6.4732Y-2.8013
M15
G01X6.5008Y-2.8013
M16
G05
G00X6.4732Y-3.0827
M15
G01X6.5008Y-3.0827
M16
G05
T4
G00X6.3748Y-2.8465
M15
G01X6.3827Y-2.8465
M16
G05
G00X6.3748Y-3.0375
M15
G01X6.3827Y-3.0375
M16
G05
T5
G00X3.4086Y-5.6094
M15
G01X3.4086Y-5.6803
M16
G05
G00X3.4086Y-5.8638
M15
G01X3.4086Y-5.8953
M16
G05
G00X3.9794Y-5.6094
M15
G01X3.9794Y-5.6803
M16
G05
G00X3.9794Y-5.8638
M15
G01X3.9794Y-5.8953
M16
G05
T0
M30
