%TF.GenerationSoftware,KiCad,Pcbnew,(6.0.11)*%
%TF.CreationDate,2023-05-25T19:22:19-07:00*%
%TF.ProjectId,TRS-IO++,5452532d-494f-42b2-9b2e-6b696361645f,rev?*%
%TF.SameCoordinates,Original*%
%TF.FileFunction,Legend,Top*%
%TF.FilePolarity,Positive*%
%FSLAX46Y46*%
G04 Gerber Fmt 4.6, Leading zero omitted, Abs format (unit mm)*
G04 Created by KiCad (PCBNEW (6.0.11)) date 2023-05-25 19:22:19*
%MOMM*%
%LPD*%
G01*
G04 APERTURE LIST*
%ADD10C,0.150000*%
%ADD11C,0.300000*%
%ADD12C,0.120000*%
%ADD13C,0.050000*%
G04 APERTURE END LIST*
D10*
X149774414Y-70200780D02*
X149202985Y-70200780D01*
X149488700Y-70200780D02*
X149488700Y-69200780D01*
X149393461Y-69343638D01*
X149298223Y-69438876D01*
X149202985Y-69486495D01*
X62538185Y-72140819D02*
X62585804Y-72093200D01*
X62681042Y-72045580D01*
X62919138Y-72045580D01*
X63014376Y-72093200D01*
X63061995Y-72140819D01*
X63109614Y-72236057D01*
X63109614Y-72331295D01*
X63061995Y-72474152D01*
X62490566Y-73045580D01*
X63109614Y-73045580D01*
X67087714Y-113990380D02*
X66516285Y-113990380D01*
X66802000Y-113990380D02*
X66802000Y-112990380D01*
X66706761Y-113133238D01*
X66611523Y-113228476D01*
X66516285Y-113276095D01*
X185676128Y-144708571D02*
X186009461Y-144708571D01*
X186152319Y-145232380D02*
X185676128Y-145232380D01*
X185676128Y-144232380D01*
X186152319Y-144232380D01*
X186533271Y-145184761D02*
X186676128Y-145232380D01*
X186914223Y-145232380D01*
X187009461Y-145184761D01*
X187057080Y-145137142D01*
X187104700Y-145041904D01*
X187104700Y-144946666D01*
X187057080Y-144851428D01*
X187009461Y-144803809D01*
X186914223Y-144756190D01*
X186723747Y-144708571D01*
X186628509Y-144660952D01*
X186580890Y-144613333D01*
X186533271Y-144518095D01*
X186533271Y-144422857D01*
X186580890Y-144327619D01*
X186628509Y-144280000D01*
X186723747Y-144232380D01*
X186961842Y-144232380D01*
X187104700Y-144280000D01*
X187533271Y-145232380D02*
X187533271Y-144232380D01*
X187914223Y-144232380D01*
X188009461Y-144280000D01*
X188057080Y-144327619D01*
X188104700Y-144422857D01*
X188104700Y-144565714D01*
X188057080Y-144660952D01*
X188009461Y-144708571D01*
X187914223Y-144756190D01*
X187533271Y-144756190D01*
X189866604Y-145232380D02*
X189533271Y-144756190D01*
X189295176Y-145232380D02*
X189295176Y-144232380D01*
X189676128Y-144232380D01*
X189771366Y-144280000D01*
X189818985Y-144327619D01*
X189866604Y-144422857D01*
X189866604Y-144565714D01*
X189818985Y-144660952D01*
X189771366Y-144708571D01*
X189676128Y-144756190D01*
X189295176Y-144756190D01*
X190247557Y-145184761D02*
X190390414Y-145232380D01*
X190628509Y-145232380D01*
X190723747Y-145184761D01*
X190771366Y-145137142D01*
X190818985Y-145041904D01*
X190818985Y-144946666D01*
X190771366Y-144851428D01*
X190723747Y-144803809D01*
X190628509Y-144756190D01*
X190438033Y-144708571D01*
X190342795Y-144660952D01*
X190295176Y-144613333D01*
X190247557Y-144518095D01*
X190247557Y-144422857D01*
X190295176Y-144327619D01*
X190342795Y-144280000D01*
X190438033Y-144232380D01*
X190676128Y-144232380D01*
X190818985Y-144280000D01*
X191104700Y-144232380D02*
X191676128Y-144232380D01*
X191390414Y-145232380D02*
X191390414Y-144232380D01*
X62963576Y-77509714D02*
X62963576Y-78176380D01*
X62725480Y-77128761D02*
X62487385Y-77843047D01*
X63106433Y-77843047D01*
D11*
X88394071Y-63147471D02*
X89251214Y-63147471D01*
X88822642Y-64647471D02*
X88822642Y-63147471D01*
X90608357Y-64647471D02*
X90108357Y-63933185D01*
X89751214Y-64647471D02*
X89751214Y-63147471D01*
X90322642Y-63147471D01*
X90465500Y-63218900D01*
X90536928Y-63290328D01*
X90608357Y-63433185D01*
X90608357Y-63647471D01*
X90536928Y-63790328D01*
X90465500Y-63861757D01*
X90322642Y-63933185D01*
X89751214Y-63933185D01*
X91179785Y-64576042D02*
X91394071Y-64647471D01*
X91751214Y-64647471D01*
X91894071Y-64576042D01*
X91965500Y-64504614D01*
X92036928Y-64361757D01*
X92036928Y-64218900D01*
X91965500Y-64076042D01*
X91894071Y-64004614D01*
X91751214Y-63933185D01*
X91465500Y-63861757D01*
X91322642Y-63790328D01*
X91251214Y-63718900D01*
X91179785Y-63576042D01*
X91179785Y-63433185D01*
X91251214Y-63290328D01*
X91322642Y-63218900D01*
X91465500Y-63147471D01*
X91822642Y-63147471D01*
X92036928Y-63218900D01*
X92679785Y-64076042D02*
X93822642Y-64076042D01*
X94536928Y-64647471D02*
X94536928Y-63147471D01*
X95536928Y-63147471D02*
X95822642Y-63147471D01*
X95965500Y-63218900D01*
X96108357Y-63361757D01*
X96179785Y-63647471D01*
X96179785Y-64147471D01*
X96108357Y-64433185D01*
X95965500Y-64576042D01*
X95822642Y-64647471D01*
X95536928Y-64647471D01*
X95394071Y-64576042D01*
X95251214Y-64433185D01*
X95179785Y-64147471D01*
X95179785Y-63647471D01*
X95251214Y-63361757D01*
X95394071Y-63218900D01*
X95536928Y-63147471D01*
X96822642Y-64076042D02*
X97965500Y-64076042D01*
X97394071Y-64647471D02*
X97394071Y-63504614D01*
X98679785Y-64076042D02*
X99822642Y-64076042D01*
X99251214Y-64647471D02*
X99251214Y-63504614D01*
X101465500Y-63147471D02*
X101965500Y-64647471D01*
X102465500Y-63147471D01*
X103751214Y-64647471D02*
X102894071Y-64647471D01*
X103322642Y-64647471D02*
X103322642Y-63147471D01*
X103179785Y-63361757D01*
X103036928Y-63504614D01*
X102894071Y-63576042D01*
X104394071Y-64504614D02*
X104465500Y-64576042D01*
X104394071Y-64647471D01*
X104322642Y-64576042D01*
X104394071Y-64504614D01*
X104394071Y-64647471D01*
X105394071Y-63147471D02*
X105536928Y-63147471D01*
X105679785Y-63218900D01*
X105751214Y-63290328D01*
X105822642Y-63433185D01*
X105894071Y-63718900D01*
X105894071Y-64076042D01*
X105822642Y-64361757D01*
X105751214Y-64504614D01*
X105679785Y-64576042D01*
X105536928Y-64647471D01*
X105394071Y-64647471D01*
X105251214Y-64576042D01*
X105179785Y-64504614D01*
X105108357Y-64361757D01*
X105036928Y-64076042D01*
X105036928Y-63718900D01*
X105108357Y-63433185D01*
X105179785Y-63290328D01*
X105251214Y-63218900D01*
X105394071Y-63147471D01*
X92036928Y-67062471D02*
X92036928Y-65562471D01*
X92536928Y-66633900D01*
X93036928Y-65562471D01*
X93036928Y-67062471D01*
X94394071Y-67062471D02*
X94394071Y-66276757D01*
X94322642Y-66133900D01*
X94179785Y-66062471D01*
X93894071Y-66062471D01*
X93751214Y-66133900D01*
X94394071Y-66991042D02*
X94251214Y-67062471D01*
X93894071Y-67062471D01*
X93751214Y-66991042D01*
X93679785Y-66848185D01*
X93679785Y-66705328D01*
X93751214Y-66562471D01*
X93894071Y-66491042D01*
X94251214Y-66491042D01*
X94394071Y-66419614D01*
X94965500Y-66062471D02*
X95322642Y-67062471D01*
X95679785Y-66062471D02*
X95322642Y-67062471D01*
X95179785Y-67419614D01*
X95108357Y-67491042D01*
X94965500Y-67562471D01*
X97322642Y-65705328D02*
X97394071Y-65633900D01*
X97536928Y-65562471D01*
X97894071Y-65562471D01*
X98036928Y-65633900D01*
X98108357Y-65705328D01*
X98179785Y-65848185D01*
X98179785Y-65991042D01*
X98108357Y-66205328D01*
X97251214Y-67062471D01*
X98179785Y-67062471D01*
X99108357Y-65562471D02*
X99251214Y-65562471D01*
X99394071Y-65633900D01*
X99465500Y-65705328D01*
X99536928Y-65848185D01*
X99608357Y-66133900D01*
X99608357Y-66491042D01*
X99536928Y-66776757D01*
X99465500Y-66919614D01*
X99394071Y-66991042D01*
X99251214Y-67062471D01*
X99108357Y-67062471D01*
X98965500Y-66991042D01*
X98894071Y-66919614D01*
X98822642Y-66776757D01*
X98751214Y-66491042D01*
X98751214Y-66133900D01*
X98822642Y-65848185D01*
X98894071Y-65705328D01*
X98965500Y-65633900D01*
X99108357Y-65562471D01*
X100179785Y-65705328D02*
X100251214Y-65633900D01*
X100394071Y-65562471D01*
X100751214Y-65562471D01*
X100894071Y-65633900D01*
X100965500Y-65705328D01*
X101036928Y-65848185D01*
X101036928Y-65991042D01*
X100965500Y-66205328D01*
X100108357Y-67062471D01*
X101036928Y-67062471D01*
X101536928Y-65562471D02*
X102465500Y-65562471D01*
X101965500Y-66133900D01*
X102179785Y-66133900D01*
X102322642Y-66205328D01*
X102394071Y-66276757D01*
X102465500Y-66419614D01*
X102465500Y-66776757D01*
X102394071Y-66919614D01*
X102322642Y-66991042D01*
X102179785Y-67062471D01*
X101751214Y-67062471D01*
X101608357Y-66991042D01*
X101536928Y-66919614D01*
D10*
X62439766Y-74687180D02*
X63058814Y-74687180D01*
X62725480Y-75068133D01*
X62868338Y-75068133D01*
X62963576Y-75115752D01*
X63011195Y-75163371D01*
X63058814Y-75258609D01*
X63058814Y-75496704D01*
X63011195Y-75591942D01*
X62963576Y-75639561D01*
X62868338Y-75687180D01*
X62582623Y-75687180D01*
X62487385Y-75639561D01*
X62439766Y-75591942D01*
X176055123Y-114765200D02*
X175959885Y-114717580D01*
X175817028Y-114717580D01*
X175674171Y-114765200D01*
X175578933Y-114860438D01*
X175531314Y-114955676D01*
X175483695Y-115146152D01*
X175483695Y-115289009D01*
X175531314Y-115479485D01*
X175578933Y-115574723D01*
X175674171Y-115669961D01*
X175817028Y-115717580D01*
X175912266Y-115717580D01*
X176055123Y-115669961D01*
X176102742Y-115622342D01*
X176102742Y-115289009D01*
X175912266Y-115289009D01*
X176531314Y-115717580D02*
X176531314Y-114717580D01*
X177102742Y-115717580D01*
X177102742Y-114717580D01*
X177578933Y-115717580D02*
X177578933Y-114717580D01*
X177817028Y-114717580D01*
X177959885Y-114765200D01*
X178055123Y-114860438D01*
X178102742Y-114955676D01*
X178150361Y-115146152D01*
X178150361Y-115289009D01*
X178102742Y-115479485D01*
X178055123Y-115574723D01*
X177959885Y-115669961D01*
X177817028Y-115717580D01*
X177578933Y-115717580D01*
X144643614Y-49423579D02*
X144595995Y-49471199D01*
X144500757Y-49518818D01*
X144262661Y-49518818D01*
X144167423Y-49471199D01*
X144119804Y-49423579D01*
X144072185Y-49328341D01*
X144072185Y-49233103D01*
X144119804Y-49090246D01*
X144691233Y-48518818D01*
X144072185Y-48518818D01*
X165183333Y-145184761D02*
X165326190Y-145232380D01*
X165564285Y-145232380D01*
X165659523Y-145184761D01*
X165707142Y-145137142D01*
X165754761Y-145041904D01*
X165754761Y-144946666D01*
X165707142Y-144851428D01*
X165659523Y-144803809D01*
X165564285Y-144756190D01*
X165373809Y-144708571D01*
X165278571Y-144660952D01*
X165230952Y-144613333D01*
X165183333Y-144518095D01*
X165183333Y-144422857D01*
X165230952Y-144327619D01*
X165278571Y-144280000D01*
X165373809Y-144232380D01*
X165611904Y-144232380D01*
X165754761Y-144280000D01*
X166040476Y-144565714D02*
X166421428Y-144565714D01*
X166183333Y-144232380D02*
X166183333Y-145089523D01*
X166230952Y-145184761D01*
X166326190Y-145232380D01*
X166421428Y-145232380D01*
X167183333Y-145232380D02*
X167183333Y-144708571D01*
X167135714Y-144613333D01*
X167040476Y-144565714D01*
X166850000Y-144565714D01*
X166754761Y-144613333D01*
X167183333Y-145184761D02*
X167088095Y-145232380D01*
X166850000Y-145232380D01*
X166754761Y-145184761D01*
X166707142Y-145089523D01*
X166707142Y-144994285D01*
X166754761Y-144899047D01*
X166850000Y-144851428D01*
X167088095Y-144851428D01*
X167183333Y-144803809D01*
X167516666Y-144565714D02*
X167897619Y-144565714D01*
X167659523Y-144232380D02*
X167659523Y-145089523D01*
X167707142Y-145184761D01*
X167802380Y-145232380D01*
X167897619Y-145232380D01*
X168659523Y-144565714D02*
X168659523Y-145232380D01*
X168230952Y-144565714D02*
X168230952Y-145089523D01*
X168278571Y-145184761D01*
X168373809Y-145232380D01*
X168516666Y-145232380D01*
X168611904Y-145184761D01*
X168659523Y-145137142D01*
X169088095Y-145184761D02*
X169183333Y-145232380D01*
X169373809Y-145232380D01*
X169469047Y-145184761D01*
X169516666Y-145089523D01*
X169516666Y-145041904D01*
X169469047Y-144946666D01*
X169373809Y-144899047D01*
X169230952Y-144899047D01*
X169135714Y-144851428D01*
X169088095Y-144756190D01*
X169088095Y-144708571D01*
X169135714Y-144613333D01*
X169230952Y-144565714D01*
X169373809Y-144565714D01*
X169469047Y-144613333D01*
X122190014Y-70200780D02*
X121618585Y-70200780D01*
X121904300Y-70200780D02*
X121904300Y-69200780D01*
X121809061Y-69343638D01*
X121713823Y-69438876D01*
X121618585Y-69486495D01*
X175388457Y-117308380D02*
X175721790Y-118308380D01*
X176055123Y-117308380D01*
X176959885Y-118213142D02*
X176912266Y-118260761D01*
X176769409Y-118308380D01*
X176674171Y-118308380D01*
X176531314Y-118260761D01*
X176436076Y-118165523D01*
X176388457Y-118070285D01*
X176340838Y-117879809D01*
X176340838Y-117736952D01*
X176388457Y-117546476D01*
X176436076Y-117451238D01*
X176531314Y-117356000D01*
X176674171Y-117308380D01*
X176769409Y-117308380D01*
X176912266Y-117356000D01*
X176959885Y-117403619D01*
X177959885Y-118213142D02*
X177912266Y-118260761D01*
X177769409Y-118308380D01*
X177674171Y-118308380D01*
X177531314Y-118260761D01*
X177436076Y-118165523D01*
X177388457Y-118070285D01*
X177340838Y-117879809D01*
X177340838Y-117736952D01*
X177388457Y-117546476D01*
X177436076Y-117451238D01*
X177531314Y-117356000D01*
X177674171Y-117308380D01*
X177769409Y-117308380D01*
X177912266Y-117356000D01*
X177959885Y-117403619D01*
X178864647Y-117308380D02*
X178388457Y-117308380D01*
X178340838Y-117784571D01*
X178388457Y-117736952D01*
X178483695Y-117689333D01*
X178721790Y-117689333D01*
X178817028Y-117736952D01*
X178864647Y-117784571D01*
X178912266Y-117879809D01*
X178912266Y-118117904D01*
X178864647Y-118213142D01*
X178817028Y-118260761D01*
X178721790Y-118308380D01*
X178483695Y-118308380D01*
X178388457Y-118260761D01*
X178340838Y-118213142D01*
X176102742Y-123388380D02*
X175769409Y-122912190D01*
X175531314Y-123388380D02*
X175531314Y-122388380D01*
X175912266Y-122388380D01*
X176007504Y-122436000D01*
X176055123Y-122483619D01*
X176102742Y-122578857D01*
X176102742Y-122721714D01*
X176055123Y-122816952D01*
X176007504Y-122864571D01*
X175912266Y-122912190D01*
X175531314Y-122912190D01*
X176436076Y-122388380D02*
X177102742Y-123388380D01*
X177102742Y-122388380D02*
X176436076Y-123388380D01*
X177483695Y-123388380D02*
X177483695Y-122388380D01*
X177721790Y-122388380D01*
X177864647Y-122436000D01*
X177959885Y-122531238D01*
X178007504Y-122626476D01*
X178055123Y-122816952D01*
X178055123Y-122959809D01*
X178007504Y-123150285D01*
X177959885Y-123245523D01*
X177864647Y-123340761D01*
X177721790Y-123388380D01*
X177483695Y-123388380D01*
X135956814Y-70200780D02*
X135385385Y-70200780D01*
X135671100Y-70200780D02*
X135671100Y-69200780D01*
X135575861Y-69343638D01*
X135480623Y-69438876D01*
X135385385Y-69486495D01*
X132390064Y-100579180D02*
X131818635Y-100579180D01*
X132104350Y-100579180D02*
X132104350Y-99579180D01*
X132009111Y-99722038D01*
X131913873Y-99817276D01*
X131818635Y-99864895D01*
X68805657Y-97937580D02*
X68805657Y-96937580D01*
X69186609Y-96937580D01*
X69281847Y-96985200D01*
X69329466Y-97032819D01*
X69377085Y-97128057D01*
X69377085Y-97270914D01*
X69329466Y-97366152D01*
X69281847Y-97413771D01*
X69186609Y-97461390D01*
X68805657Y-97461390D01*
X69805657Y-97937580D02*
X69805657Y-96937580D01*
X70138990Y-97651866D01*
X70472323Y-96937580D01*
X70472323Y-97937580D01*
X71138990Y-96937580D02*
X71329466Y-96937580D01*
X71424704Y-96985200D01*
X71519942Y-97080438D01*
X71567561Y-97270914D01*
X71567561Y-97604247D01*
X71519942Y-97794723D01*
X71424704Y-97889961D01*
X71329466Y-97937580D01*
X71138990Y-97937580D01*
X71043752Y-97889961D01*
X70948514Y-97794723D01*
X70900895Y-97604247D01*
X70900895Y-97270914D01*
X70948514Y-97080438D01*
X71043752Y-96985200D01*
X71138990Y-96937580D01*
X71996133Y-97937580D02*
X71996133Y-96937580D01*
X72234228Y-96937580D01*
X72377085Y-96985200D01*
X72472323Y-97080438D01*
X72519942Y-97175676D01*
X72567561Y-97366152D01*
X72567561Y-97509009D01*
X72519942Y-97699485D01*
X72472323Y-97794723D01*
X72377085Y-97889961D01*
X72234228Y-97937580D01*
X71996133Y-97937580D01*
X174595257Y-145232380D02*
X174595257Y-144232380D01*
X174976209Y-144232380D01*
X175071447Y-144280000D01*
X175119066Y-144327619D01*
X175166685Y-144422857D01*
X175166685Y-144565714D01*
X175119066Y-144660952D01*
X175071447Y-144708571D01*
X174976209Y-144756190D01*
X174595257Y-144756190D01*
X175452400Y-144232380D02*
X176023828Y-144232380D01*
X175738114Y-145232380D02*
X175738114Y-144232380D01*
X176928590Y-145232380D02*
X176595257Y-144756190D01*
X176357161Y-145232380D02*
X176357161Y-144232380D01*
X176738114Y-144232380D01*
X176833352Y-144280000D01*
X176880971Y-144327619D01*
X176928590Y-144422857D01*
X176928590Y-144565714D01*
X176880971Y-144660952D01*
X176833352Y-144708571D01*
X176738114Y-144756190D01*
X176357161Y-144756190D01*
X177309542Y-145184761D02*
X177452400Y-145232380D01*
X177690495Y-145232380D01*
X177785733Y-145184761D01*
X177833352Y-145137142D01*
X177880971Y-145041904D01*
X177880971Y-144946666D01*
X177833352Y-144851428D01*
X177785733Y-144803809D01*
X177690495Y-144756190D01*
X177500019Y-144708571D01*
X177404780Y-144660952D01*
X177357161Y-144613333D01*
X177309542Y-144518095D01*
X177309542Y-144422857D01*
X177357161Y-144327619D01*
X177404780Y-144280000D01*
X177500019Y-144232380D01*
X177738114Y-144232380D01*
X177880971Y-144280000D01*
X179642876Y-145232380D02*
X179309542Y-144756190D01*
X179071447Y-145232380D02*
X179071447Y-144232380D01*
X179452400Y-144232380D01*
X179547638Y-144280000D01*
X179595257Y-144327619D01*
X179642876Y-144422857D01*
X179642876Y-144565714D01*
X179595257Y-144660952D01*
X179547638Y-144708571D01*
X179452400Y-144756190D01*
X179071447Y-144756190D01*
X180023828Y-145184761D02*
X180166685Y-145232380D01*
X180404780Y-145232380D01*
X180500019Y-145184761D01*
X180547638Y-145137142D01*
X180595257Y-145041904D01*
X180595257Y-144946666D01*
X180547638Y-144851428D01*
X180500019Y-144803809D01*
X180404780Y-144756190D01*
X180214304Y-144708571D01*
X180119066Y-144660952D01*
X180071447Y-144613333D01*
X180023828Y-144518095D01*
X180023828Y-144422857D01*
X180071447Y-144327619D01*
X180119066Y-144280000D01*
X180214304Y-144232380D01*
X180452400Y-144232380D01*
X180595257Y-144280000D01*
X180880971Y-144232380D02*
X181452400Y-144232380D01*
X181166685Y-145232380D02*
X181166685Y-144232380D01*
X175388457Y-119848380D02*
X175959885Y-119848380D01*
X175674171Y-120848380D02*
X175674171Y-119848380D01*
X176197981Y-119848380D02*
X176864647Y-120848380D01*
X176864647Y-119848380D02*
X176197981Y-120848380D01*
X177245600Y-120848380D02*
X177245600Y-119848380D01*
X177483695Y-119848380D01*
X177626552Y-119896000D01*
X177721790Y-119991238D01*
X177769409Y-120086476D01*
X177817028Y-120276952D01*
X177817028Y-120419809D01*
X177769409Y-120610285D01*
X177721790Y-120705523D01*
X177626552Y-120800761D01*
X177483695Y-120848380D01*
X177245600Y-120848380D01*
X63109614Y-70657980D02*
X62538185Y-70657980D01*
X62823900Y-70657980D02*
X62823900Y-69657980D01*
X62728661Y-69800838D01*
X62633423Y-69896076D01*
X62538185Y-69943695D01*
X72952185Y-48468019D02*
X73523614Y-48468019D01*
X73237900Y-48468019D02*
X73237900Y-49468019D01*
X73333138Y-49325161D01*
X73428376Y-49229923D01*
X73523614Y-49182304D01*
X108337314Y-102153980D02*
X107765885Y-102153980D01*
X108051600Y-102153980D02*
X108051600Y-101153980D01*
X107956361Y-101296838D01*
X107861123Y-101392076D01*
X107765885Y-101439695D01*
%TO.C,RN1*%
X187828323Y-71267580D02*
X187494990Y-70791390D01*
X187256895Y-71267580D02*
X187256895Y-70267580D01*
X187637847Y-70267580D01*
X187733085Y-70315200D01*
X187780704Y-70362819D01*
X187828323Y-70458057D01*
X187828323Y-70600914D01*
X187780704Y-70696152D01*
X187733085Y-70743771D01*
X187637847Y-70791390D01*
X187256895Y-70791390D01*
X188256895Y-71267580D02*
X188256895Y-70267580D01*
X188828323Y-71267580D01*
X188828323Y-70267580D01*
X189828323Y-71267580D02*
X189256895Y-71267580D01*
X189542609Y-71267580D02*
X189542609Y-70267580D01*
X189447371Y-70410438D01*
X189352133Y-70505676D01*
X189256895Y-70553295D01*
%TO.C,SW4*%
X166001866Y-138884361D02*
X166144723Y-138931980D01*
X166382819Y-138931980D01*
X166478057Y-138884361D01*
X166525676Y-138836742D01*
X166573295Y-138741504D01*
X166573295Y-138646266D01*
X166525676Y-138551028D01*
X166478057Y-138503409D01*
X166382819Y-138455790D01*
X166192342Y-138408171D01*
X166097104Y-138360552D01*
X166049485Y-138312933D01*
X166001866Y-138217695D01*
X166001866Y-138122457D01*
X166049485Y-138027219D01*
X166097104Y-137979600D01*
X166192342Y-137931980D01*
X166430438Y-137931980D01*
X166573295Y-137979600D01*
X166906628Y-137931980D02*
X167144723Y-138931980D01*
X167335200Y-138217695D01*
X167525676Y-138931980D01*
X167763771Y-137931980D01*
X168573295Y-138265314D02*
X168573295Y-138931980D01*
X168335200Y-137884361D02*
X168097104Y-138598647D01*
X168716152Y-138598647D01*
%TO.C,R33*%
X82043842Y-70657980D02*
X81710509Y-70181790D01*
X81472414Y-70657980D02*
X81472414Y-69657980D01*
X81853366Y-69657980D01*
X81948604Y-69705600D01*
X81996223Y-69753219D01*
X82043842Y-69848457D01*
X82043842Y-69991314D01*
X81996223Y-70086552D01*
X81948604Y-70134171D01*
X81853366Y-70181790D01*
X81472414Y-70181790D01*
X82377176Y-69657980D02*
X82996223Y-69657980D01*
X82662890Y-70038933D01*
X82805747Y-70038933D01*
X82900985Y-70086552D01*
X82948604Y-70134171D01*
X82996223Y-70229409D01*
X82996223Y-70467504D01*
X82948604Y-70562742D01*
X82900985Y-70610361D01*
X82805747Y-70657980D01*
X82520033Y-70657980D01*
X82424795Y-70610361D01*
X82377176Y-70562742D01*
X83329557Y-69657980D02*
X83948604Y-69657980D01*
X83615271Y-70038933D01*
X83758128Y-70038933D01*
X83853366Y-70086552D01*
X83900985Y-70134171D01*
X83948604Y-70229409D01*
X83948604Y-70467504D01*
X83900985Y-70562742D01*
X83853366Y-70610361D01*
X83758128Y-70657980D01*
X83472414Y-70657980D01*
X83377176Y-70610361D01*
X83329557Y-70562742D01*
%TO.C,R39*%
X92670612Y-129725657D02*
X92194422Y-130058990D01*
X92670612Y-130297085D02*
X91670612Y-130297085D01*
X91670612Y-129916133D01*
X91718232Y-129820895D01*
X91765851Y-129773276D01*
X91861089Y-129725657D01*
X92003946Y-129725657D01*
X92099184Y-129773276D01*
X92146803Y-129820895D01*
X92194422Y-129916133D01*
X92194422Y-130297085D01*
X91670612Y-129392323D02*
X91670612Y-128773276D01*
X92051565Y-129106609D01*
X92051565Y-128963752D01*
X92099184Y-128868514D01*
X92146803Y-128820895D01*
X92242041Y-128773276D01*
X92480136Y-128773276D01*
X92575374Y-128820895D01*
X92622993Y-128868514D01*
X92670612Y-128963752D01*
X92670612Y-129249466D01*
X92622993Y-129344704D01*
X92575374Y-129392323D01*
X92670612Y-128297085D02*
X92670612Y-128106609D01*
X92622993Y-128011371D01*
X92575374Y-127963752D01*
X92432517Y-127868514D01*
X92242041Y-127820895D01*
X91861089Y-127820895D01*
X91765851Y-127868514D01*
X91718232Y-127916133D01*
X91670612Y-128011371D01*
X91670612Y-128201847D01*
X91718232Y-128297085D01*
X91765851Y-128344704D01*
X91861089Y-128392323D01*
X92099184Y-128392323D01*
X92194422Y-128344704D01*
X92242041Y-128297085D01*
X92289660Y-128201847D01*
X92289660Y-128011371D01*
X92242041Y-127916133D01*
X92194422Y-127868514D01*
X92099184Y-127820895D01*
%TO.C,C15*%
X114637541Y-127959741D02*
X114589922Y-128007360D01*
X114447065Y-128054979D01*
X114351827Y-128054979D01*
X114208970Y-128007360D01*
X114113732Y-127912122D01*
X114066113Y-127816884D01*
X114018494Y-127626408D01*
X114018494Y-127483551D01*
X114066113Y-127293075D01*
X114113732Y-127197837D01*
X114208970Y-127102599D01*
X114351827Y-127054979D01*
X114447065Y-127054979D01*
X114589922Y-127102599D01*
X114637541Y-127150218D01*
X115589922Y-128054979D02*
X115018494Y-128054979D01*
X115304208Y-128054979D02*
X115304208Y-127054979D01*
X115208970Y-127197837D01*
X115113732Y-127293075D01*
X115018494Y-127340694D01*
X116494684Y-127054979D02*
X116018494Y-127054979D01*
X115970875Y-127531170D01*
X116018494Y-127483551D01*
X116113732Y-127435932D01*
X116351827Y-127435932D01*
X116447065Y-127483551D01*
X116494684Y-127531170D01*
X116542303Y-127626408D01*
X116542303Y-127864503D01*
X116494684Y-127959741D01*
X116447065Y-128007360D01*
X116351827Y-128054979D01*
X116113732Y-128054979D01*
X116018494Y-128007360D01*
X115970875Y-127959741D01*
%TO.C,R8*%
X129814580Y-127035266D02*
X129338390Y-127368600D01*
X129814580Y-127606695D02*
X128814580Y-127606695D01*
X128814580Y-127225742D01*
X128862200Y-127130504D01*
X128909819Y-127082885D01*
X129005057Y-127035266D01*
X129147914Y-127035266D01*
X129243152Y-127082885D01*
X129290771Y-127130504D01*
X129338390Y-127225742D01*
X129338390Y-127606695D01*
X129243152Y-126463838D02*
X129195533Y-126559076D01*
X129147914Y-126606695D01*
X129052676Y-126654314D01*
X129005057Y-126654314D01*
X128909819Y-126606695D01*
X128862200Y-126559076D01*
X128814580Y-126463838D01*
X128814580Y-126273361D01*
X128862200Y-126178123D01*
X128909819Y-126130504D01*
X129005057Y-126082885D01*
X129052676Y-126082885D01*
X129147914Y-126130504D01*
X129195533Y-126178123D01*
X129243152Y-126273361D01*
X129243152Y-126463838D01*
X129290771Y-126559076D01*
X129338390Y-126606695D01*
X129433628Y-126654314D01*
X129624104Y-126654314D01*
X129719342Y-126606695D01*
X129766961Y-126559076D01*
X129814580Y-126463838D01*
X129814580Y-126273361D01*
X129766961Y-126178123D01*
X129719342Y-126130504D01*
X129624104Y-126082885D01*
X129433628Y-126082885D01*
X129338390Y-126130504D01*
X129290771Y-126178123D01*
X129243152Y-126273361D01*
%TO.C,R40*%
X95822480Y-129725657D02*
X95346290Y-130058990D01*
X95822480Y-130297085D02*
X94822480Y-130297085D01*
X94822480Y-129916133D01*
X94870100Y-129820895D01*
X94917719Y-129773276D01*
X95012957Y-129725657D01*
X95155814Y-129725657D01*
X95251052Y-129773276D01*
X95298671Y-129820895D01*
X95346290Y-129916133D01*
X95346290Y-130297085D01*
X95155814Y-128868514D02*
X95822480Y-128868514D01*
X94774861Y-129106609D02*
X95489147Y-129344704D01*
X95489147Y-128725657D01*
X94822480Y-128154228D02*
X94822480Y-128058990D01*
X94870100Y-127963752D01*
X94917719Y-127916133D01*
X95012957Y-127868514D01*
X95203433Y-127820895D01*
X95441528Y-127820895D01*
X95632004Y-127868514D01*
X95727242Y-127916133D01*
X95774861Y-127963752D01*
X95822480Y-128058990D01*
X95822480Y-128154228D01*
X95774861Y-128249466D01*
X95727242Y-128297085D01*
X95632004Y-128344704D01*
X95441528Y-128392323D01*
X95203433Y-128392323D01*
X95012957Y-128344704D01*
X94917719Y-128297085D01*
X94870100Y-128249466D01*
X94822480Y-128154228D01*
%TO.C,SW3*%
X68907366Y-67398761D02*
X69050223Y-67446380D01*
X69288319Y-67446380D01*
X69383557Y-67398761D01*
X69431176Y-67351142D01*
X69478795Y-67255904D01*
X69478795Y-67160666D01*
X69431176Y-67065428D01*
X69383557Y-67017809D01*
X69288319Y-66970190D01*
X69097842Y-66922571D01*
X69002604Y-66874952D01*
X68954985Y-66827333D01*
X68907366Y-66732095D01*
X68907366Y-66636857D01*
X68954985Y-66541619D01*
X69002604Y-66494000D01*
X69097842Y-66446380D01*
X69335938Y-66446380D01*
X69478795Y-66494000D01*
X69812128Y-66446380D02*
X70050223Y-67446380D01*
X70240700Y-66732095D01*
X70431176Y-67446380D01*
X70669271Y-66446380D01*
X70954985Y-66446380D02*
X71574033Y-66446380D01*
X71240700Y-66827333D01*
X71383557Y-66827333D01*
X71478795Y-66874952D01*
X71526414Y-66922571D01*
X71574033Y-67017809D01*
X71574033Y-67255904D01*
X71526414Y-67351142D01*
X71478795Y-67398761D01*
X71383557Y-67446380D01*
X71097842Y-67446380D01*
X71002604Y-67398761D01*
X70954985Y-67351142D01*
%TO.C,R29*%
X94810342Y-95499180D02*
X94477009Y-95022990D01*
X94238914Y-95499180D02*
X94238914Y-94499180D01*
X94619866Y-94499180D01*
X94715104Y-94546800D01*
X94762723Y-94594419D01*
X94810342Y-94689657D01*
X94810342Y-94832514D01*
X94762723Y-94927752D01*
X94715104Y-94975371D01*
X94619866Y-95022990D01*
X94238914Y-95022990D01*
X95191295Y-94594419D02*
X95238914Y-94546800D01*
X95334152Y-94499180D01*
X95572247Y-94499180D01*
X95667485Y-94546800D01*
X95715104Y-94594419D01*
X95762723Y-94689657D01*
X95762723Y-94784895D01*
X95715104Y-94927752D01*
X95143676Y-95499180D01*
X95762723Y-95499180D01*
X96238914Y-95499180D02*
X96429390Y-95499180D01*
X96524628Y-95451561D01*
X96572247Y-95403942D01*
X96667485Y-95261085D01*
X96715104Y-95070609D01*
X96715104Y-94689657D01*
X96667485Y-94594419D01*
X96619866Y-94546800D01*
X96524628Y-94499180D01*
X96334152Y-94499180D01*
X96238914Y-94546800D01*
X96191295Y-94594419D01*
X96143676Y-94689657D01*
X96143676Y-94927752D01*
X96191295Y-95022990D01*
X96238914Y-95070609D01*
X96334152Y-95118228D01*
X96524628Y-95118228D01*
X96619866Y-95070609D01*
X96667485Y-95022990D01*
X96715104Y-94927752D01*
%TO.C,D3*%
X89630046Y-143451295D02*
X88630046Y-143451295D01*
X88630046Y-143213200D01*
X88677666Y-143070342D01*
X88772904Y-142975104D01*
X88868142Y-142927485D01*
X89058618Y-142879866D01*
X89201475Y-142879866D01*
X89391951Y-142927485D01*
X89487189Y-142975104D01*
X89582427Y-143070342D01*
X89630046Y-143213200D01*
X89630046Y-143451295D01*
X88630046Y-142546533D02*
X88630046Y-141927485D01*
X89010999Y-142260819D01*
X89010999Y-142117961D01*
X89058618Y-142022723D01*
X89106237Y-141975104D01*
X89201475Y-141927485D01*
X89439570Y-141927485D01*
X89534808Y-141975104D01*
X89582427Y-142022723D01*
X89630046Y-142117961D01*
X89630046Y-142403676D01*
X89582427Y-142498914D01*
X89534808Y-142546533D01*
%TO.C,C16*%
X136603042Y-107748342D02*
X136555423Y-107795961D01*
X136412566Y-107843580D01*
X136317328Y-107843580D01*
X136174471Y-107795961D01*
X136079233Y-107700723D01*
X136031614Y-107605485D01*
X135983995Y-107415009D01*
X135983995Y-107272152D01*
X136031614Y-107081676D01*
X136079233Y-106986438D01*
X136174471Y-106891200D01*
X136317328Y-106843580D01*
X136412566Y-106843580D01*
X136555423Y-106891200D01*
X136603042Y-106938819D01*
X137555423Y-107843580D02*
X136983995Y-107843580D01*
X137269709Y-107843580D02*
X137269709Y-106843580D01*
X137174471Y-106986438D01*
X137079233Y-107081676D01*
X136983995Y-107129295D01*
X138412566Y-106843580D02*
X138222090Y-106843580D01*
X138126852Y-106891200D01*
X138079233Y-106938819D01*
X137983995Y-107081676D01*
X137936376Y-107272152D01*
X137936376Y-107653104D01*
X137983995Y-107748342D01*
X138031614Y-107795961D01*
X138126852Y-107843580D01*
X138317328Y-107843580D01*
X138412566Y-107795961D01*
X138460185Y-107748342D01*
X138507804Y-107653104D01*
X138507804Y-107415009D01*
X138460185Y-107319771D01*
X138412566Y-107272152D01*
X138317328Y-107224533D01*
X138126852Y-107224533D01*
X138031614Y-107272152D01*
X137983995Y-107319771D01*
X137936376Y-107415009D01*
%TO.C,R10*%
X125598180Y-127968657D02*
X125121990Y-128301990D01*
X125598180Y-128540085D02*
X124598180Y-128540085D01*
X124598180Y-128159133D01*
X124645800Y-128063895D01*
X124693419Y-128016276D01*
X124788657Y-127968657D01*
X124931514Y-127968657D01*
X125026752Y-128016276D01*
X125074371Y-128063895D01*
X125121990Y-128159133D01*
X125121990Y-128540085D01*
X125598180Y-127016276D02*
X125598180Y-127587704D01*
X125598180Y-127301990D02*
X124598180Y-127301990D01*
X124741038Y-127397228D01*
X124836276Y-127492466D01*
X124883895Y-127587704D01*
X124598180Y-126397228D02*
X124598180Y-126301990D01*
X124645800Y-126206752D01*
X124693419Y-126159133D01*
X124788657Y-126111514D01*
X124979133Y-126063895D01*
X125217228Y-126063895D01*
X125407704Y-126111514D01*
X125502942Y-126159133D01*
X125550561Y-126206752D01*
X125598180Y-126301990D01*
X125598180Y-126397228D01*
X125550561Y-126492466D01*
X125502942Y-126540085D01*
X125407704Y-126587704D01*
X125217228Y-126635323D01*
X124979133Y-126635323D01*
X124788657Y-126587704D01*
X124693419Y-126540085D01*
X124645800Y-126492466D01*
X124598180Y-126397228D01*
%TO.C,R35*%
X82145442Y-75687180D02*
X81812109Y-75210990D01*
X81574014Y-75687180D02*
X81574014Y-74687180D01*
X81954966Y-74687180D01*
X82050204Y-74734800D01*
X82097823Y-74782419D01*
X82145442Y-74877657D01*
X82145442Y-75020514D01*
X82097823Y-75115752D01*
X82050204Y-75163371D01*
X81954966Y-75210990D01*
X81574014Y-75210990D01*
X82478776Y-74687180D02*
X83097823Y-74687180D01*
X82764490Y-75068133D01*
X82907347Y-75068133D01*
X83002585Y-75115752D01*
X83050204Y-75163371D01*
X83097823Y-75258609D01*
X83097823Y-75496704D01*
X83050204Y-75591942D01*
X83002585Y-75639561D01*
X82907347Y-75687180D01*
X82621633Y-75687180D01*
X82526395Y-75639561D01*
X82478776Y-75591942D01*
X84002585Y-74687180D02*
X83526395Y-74687180D01*
X83478776Y-75163371D01*
X83526395Y-75115752D01*
X83621633Y-75068133D01*
X83859728Y-75068133D01*
X83954966Y-75115752D01*
X84002585Y-75163371D01*
X84050204Y-75258609D01*
X84050204Y-75496704D01*
X84002585Y-75591942D01*
X83954966Y-75639561D01*
X83859728Y-75687180D01*
X83621633Y-75687180D01*
X83526395Y-75639561D01*
X83478776Y-75591942D01*
%TO.C,D2*%
X86643980Y-143451295D02*
X85643980Y-143451295D01*
X85643980Y-143213200D01*
X85691600Y-143070342D01*
X85786838Y-142975104D01*
X85882076Y-142927485D01*
X86072552Y-142879866D01*
X86215409Y-142879866D01*
X86405885Y-142927485D01*
X86501123Y-142975104D01*
X86596361Y-143070342D01*
X86643980Y-143213200D01*
X86643980Y-143451295D01*
X85739219Y-142498914D02*
X85691600Y-142451295D01*
X85643980Y-142356057D01*
X85643980Y-142117961D01*
X85691600Y-142022723D01*
X85739219Y-141975104D01*
X85834457Y-141927485D01*
X85929695Y-141927485D01*
X86072552Y-141975104D01*
X86643980Y-142546533D01*
X86643980Y-141927485D01*
%TO.C,R7*%
X131948180Y-127035266D02*
X131471990Y-127368600D01*
X131948180Y-127606695D02*
X130948180Y-127606695D01*
X130948180Y-127225742D01*
X130995800Y-127130504D01*
X131043419Y-127082885D01*
X131138657Y-127035266D01*
X131281514Y-127035266D01*
X131376752Y-127082885D01*
X131424371Y-127130504D01*
X131471990Y-127225742D01*
X131471990Y-127606695D01*
X130948180Y-126701933D02*
X130948180Y-126035266D01*
X131948180Y-126463838D01*
%TO.C,R14*%
X170073580Y-127744457D02*
X169597390Y-128077790D01*
X170073580Y-128315885D02*
X169073580Y-128315885D01*
X169073580Y-127934933D01*
X169121200Y-127839695D01*
X169168819Y-127792076D01*
X169264057Y-127744457D01*
X169406914Y-127744457D01*
X169502152Y-127792076D01*
X169549771Y-127839695D01*
X169597390Y-127934933D01*
X169597390Y-128315885D01*
X170073580Y-126792076D02*
X170073580Y-127363504D01*
X170073580Y-127077790D02*
X169073580Y-127077790D01*
X169216438Y-127173028D01*
X169311676Y-127268266D01*
X169359295Y-127363504D01*
X169406914Y-125934933D02*
X170073580Y-125934933D01*
X169025961Y-126173028D02*
X169740247Y-126411123D01*
X169740247Y-125792076D01*
%TO.C,R16*%
X186097942Y-121419880D02*
X185764609Y-120943690D01*
X185526514Y-121419880D02*
X185526514Y-120419880D01*
X185907466Y-120419880D01*
X186002704Y-120467500D01*
X186050323Y-120515119D01*
X186097942Y-120610357D01*
X186097942Y-120753214D01*
X186050323Y-120848452D01*
X186002704Y-120896071D01*
X185907466Y-120943690D01*
X185526514Y-120943690D01*
X187050323Y-121419880D02*
X186478895Y-121419880D01*
X186764609Y-121419880D02*
X186764609Y-120419880D01*
X186669371Y-120562738D01*
X186574133Y-120657976D01*
X186478895Y-120705595D01*
X187907466Y-120419880D02*
X187716990Y-120419880D01*
X187621752Y-120467500D01*
X187574133Y-120515119D01*
X187478895Y-120657976D01*
X187431276Y-120848452D01*
X187431276Y-121229404D01*
X187478895Y-121324642D01*
X187526514Y-121372261D01*
X187621752Y-121419880D01*
X187812228Y-121419880D01*
X187907466Y-121372261D01*
X187955085Y-121324642D01*
X188002704Y-121229404D01*
X188002704Y-120991309D01*
X187955085Y-120896071D01*
X187907466Y-120848452D01*
X187812228Y-120800833D01*
X187621752Y-120800833D01*
X187526514Y-120848452D01*
X187478895Y-120896071D01*
X187431276Y-120991309D01*
%TO.C,C12*%
X98923341Y-121575941D02*
X98875722Y-121623560D01*
X98732865Y-121671179D01*
X98637627Y-121671179D01*
X98494770Y-121623560D01*
X98399532Y-121528322D01*
X98351913Y-121433084D01*
X98304294Y-121242608D01*
X98304294Y-121099751D01*
X98351913Y-120909275D01*
X98399532Y-120814037D01*
X98494770Y-120718799D01*
X98637627Y-120671179D01*
X98732865Y-120671179D01*
X98875722Y-120718799D01*
X98923341Y-120766418D01*
X99875722Y-121671179D02*
X99304294Y-121671179D01*
X99590008Y-121671179D02*
X99590008Y-120671179D01*
X99494770Y-120814037D01*
X99399532Y-120909275D01*
X99304294Y-120956894D01*
X100256675Y-120766418D02*
X100304294Y-120718799D01*
X100399532Y-120671179D01*
X100637627Y-120671179D01*
X100732865Y-120718799D01*
X100780484Y-120766418D01*
X100828103Y-120861656D01*
X100828103Y-120956894D01*
X100780484Y-121099751D01*
X100209056Y-121671179D01*
X100828103Y-121671179D01*
%TO.C,C6*%
X127763542Y-117205466D02*
X127811161Y-117253085D01*
X127858780Y-117395942D01*
X127858780Y-117491180D01*
X127811161Y-117634038D01*
X127715923Y-117729276D01*
X127620685Y-117776895D01*
X127430209Y-117824514D01*
X127287352Y-117824514D01*
X127096876Y-117776895D01*
X127001638Y-117729276D01*
X126906400Y-117634038D01*
X126858780Y-117491180D01*
X126858780Y-117395942D01*
X126906400Y-117253085D01*
X126954019Y-117205466D01*
X126858780Y-116348323D02*
X126858780Y-116538800D01*
X126906400Y-116634038D01*
X126954019Y-116681657D01*
X127096876Y-116776895D01*
X127287352Y-116824514D01*
X127668304Y-116824514D01*
X127763542Y-116776895D01*
X127811161Y-116729276D01*
X127858780Y-116634038D01*
X127858780Y-116443561D01*
X127811161Y-116348323D01*
X127763542Y-116300704D01*
X127668304Y-116253085D01*
X127430209Y-116253085D01*
X127334971Y-116300704D01*
X127287352Y-116348323D01*
X127239733Y-116443561D01*
X127239733Y-116634038D01*
X127287352Y-116729276D01*
X127334971Y-116776895D01*
X127430209Y-116824514D01*
%TO.C,R34*%
X82094642Y-73147180D02*
X81761309Y-72670990D01*
X81523214Y-73147180D02*
X81523214Y-72147180D01*
X81904166Y-72147180D01*
X81999404Y-72194800D01*
X82047023Y-72242419D01*
X82094642Y-72337657D01*
X82094642Y-72480514D01*
X82047023Y-72575752D01*
X81999404Y-72623371D01*
X81904166Y-72670990D01*
X81523214Y-72670990D01*
X82427976Y-72147180D02*
X83047023Y-72147180D01*
X82713690Y-72528133D01*
X82856547Y-72528133D01*
X82951785Y-72575752D01*
X82999404Y-72623371D01*
X83047023Y-72718609D01*
X83047023Y-72956704D01*
X82999404Y-73051942D01*
X82951785Y-73099561D01*
X82856547Y-73147180D01*
X82570833Y-73147180D01*
X82475595Y-73099561D01*
X82427976Y-73051942D01*
X83904166Y-72480514D02*
X83904166Y-73147180D01*
X83666071Y-72099561D02*
X83427976Y-72813847D01*
X84047023Y-72813847D01*
%TO.C,R2*%
X78979733Y-125572780D02*
X78646400Y-125096590D01*
X78408304Y-125572780D02*
X78408304Y-124572780D01*
X78789257Y-124572780D01*
X78884495Y-124620400D01*
X78932114Y-124668019D01*
X78979733Y-124763257D01*
X78979733Y-124906114D01*
X78932114Y-125001352D01*
X78884495Y-125048971D01*
X78789257Y-125096590D01*
X78408304Y-125096590D01*
X79360685Y-124668019D02*
X79408304Y-124620400D01*
X79503542Y-124572780D01*
X79741638Y-124572780D01*
X79836876Y-124620400D01*
X79884495Y-124668019D01*
X79932114Y-124763257D01*
X79932114Y-124858495D01*
X79884495Y-125001352D01*
X79313066Y-125572780D01*
X79932114Y-125572780D01*
%TO.C,C4*%
X131891042Y-117205466D02*
X131938661Y-117253085D01*
X131986280Y-117395942D01*
X131986280Y-117491180D01*
X131938661Y-117634038D01*
X131843423Y-117729276D01*
X131748185Y-117776895D01*
X131557709Y-117824514D01*
X131414852Y-117824514D01*
X131224376Y-117776895D01*
X131129138Y-117729276D01*
X131033900Y-117634038D01*
X130986280Y-117491180D01*
X130986280Y-117395942D01*
X131033900Y-117253085D01*
X131081519Y-117205466D01*
X131319614Y-116348323D02*
X131986280Y-116348323D01*
X130938661Y-116586419D02*
X131652947Y-116824514D01*
X131652947Y-116205466D01*
%TO.C,R31*%
X155087580Y-127744457D02*
X154611390Y-128077790D01*
X155087580Y-128315885D02*
X154087580Y-128315885D01*
X154087580Y-127934933D01*
X154135200Y-127839695D01*
X154182819Y-127792076D01*
X154278057Y-127744457D01*
X154420914Y-127744457D01*
X154516152Y-127792076D01*
X154563771Y-127839695D01*
X154611390Y-127934933D01*
X154611390Y-128315885D01*
X154087580Y-127411123D02*
X154087580Y-126792076D01*
X154468533Y-127125409D01*
X154468533Y-126982552D01*
X154516152Y-126887314D01*
X154563771Y-126839695D01*
X154659009Y-126792076D01*
X154897104Y-126792076D01*
X154992342Y-126839695D01*
X155039961Y-126887314D01*
X155087580Y-126982552D01*
X155087580Y-127268266D01*
X155039961Y-127363504D01*
X154992342Y-127411123D01*
X155087580Y-125839695D02*
X155087580Y-126411123D01*
X155087580Y-126125409D02*
X154087580Y-126125409D01*
X154230438Y-126220647D01*
X154325676Y-126315885D01*
X154373295Y-126411123D01*
%TO.C,C3*%
X134113542Y-117205466D02*
X134161161Y-117253085D01*
X134208780Y-117395942D01*
X134208780Y-117491180D01*
X134161161Y-117634038D01*
X134065923Y-117729276D01*
X133970685Y-117776895D01*
X133780209Y-117824514D01*
X133637352Y-117824514D01*
X133446876Y-117776895D01*
X133351638Y-117729276D01*
X133256400Y-117634038D01*
X133208780Y-117491180D01*
X133208780Y-117395942D01*
X133256400Y-117253085D01*
X133304019Y-117205466D01*
X133208780Y-116872133D02*
X133208780Y-116253085D01*
X133589733Y-116586419D01*
X133589733Y-116443561D01*
X133637352Y-116348323D01*
X133684971Y-116300704D01*
X133780209Y-116253085D01*
X134018304Y-116253085D01*
X134113542Y-116300704D01*
X134161161Y-116348323D01*
X134208780Y-116443561D01*
X134208780Y-116729276D01*
X134161161Y-116824514D01*
X134113542Y-116872133D01*
%TO.C,C7*%
X125858542Y-117205466D02*
X125906161Y-117253085D01*
X125953780Y-117395942D01*
X125953780Y-117491180D01*
X125906161Y-117634038D01*
X125810923Y-117729276D01*
X125715685Y-117776895D01*
X125525209Y-117824514D01*
X125382352Y-117824514D01*
X125191876Y-117776895D01*
X125096638Y-117729276D01*
X125001400Y-117634038D01*
X124953780Y-117491180D01*
X124953780Y-117395942D01*
X125001400Y-117253085D01*
X125049019Y-117205466D01*
X124953780Y-116872133D02*
X124953780Y-116205466D01*
X125953780Y-116634038D01*
%TO.C,C1*%
X138101342Y-117205466D02*
X138148961Y-117253085D01*
X138196580Y-117395942D01*
X138196580Y-117491180D01*
X138148961Y-117634038D01*
X138053723Y-117729276D01*
X137958485Y-117776895D01*
X137768009Y-117824514D01*
X137625152Y-117824514D01*
X137434676Y-117776895D01*
X137339438Y-117729276D01*
X137244200Y-117634038D01*
X137196580Y-117491180D01*
X137196580Y-117395942D01*
X137244200Y-117253085D01*
X137291819Y-117205466D01*
X138196580Y-116253085D02*
X138196580Y-116824514D01*
X138196580Y-116538800D02*
X137196580Y-116538800D01*
X137339438Y-116634038D01*
X137434676Y-116729276D01*
X137482295Y-116824514D01*
%TO.C,SW2*%
X176644016Y-138936361D02*
X176786873Y-138983980D01*
X177024969Y-138983980D01*
X177120207Y-138936361D01*
X177167826Y-138888742D01*
X177215445Y-138793504D01*
X177215445Y-138698266D01*
X177167826Y-138603028D01*
X177120207Y-138555409D01*
X177024969Y-138507790D01*
X176834492Y-138460171D01*
X176739254Y-138412552D01*
X176691635Y-138364933D01*
X176644016Y-138269695D01*
X176644016Y-138174457D01*
X176691635Y-138079219D01*
X176739254Y-138031600D01*
X176834492Y-137983980D01*
X177072588Y-137983980D01*
X177215445Y-138031600D01*
X177548778Y-137983980D02*
X177786873Y-138983980D01*
X177977350Y-138269695D01*
X178167826Y-138983980D01*
X178405921Y-137983980D01*
X178739254Y-138079219D02*
X178786873Y-138031600D01*
X178882111Y-137983980D01*
X179120207Y-137983980D01*
X179215445Y-138031600D01*
X179263064Y-138079219D01*
X179310683Y-138174457D01*
X179310683Y-138269695D01*
X179263064Y-138412552D01*
X178691635Y-138983980D01*
X179310683Y-138983980D01*
%TO.C,J10*%
X103568776Y-133005580D02*
X103568776Y-133719866D01*
X103521157Y-133862723D01*
X103425919Y-133957961D01*
X103283061Y-134005580D01*
X103187823Y-134005580D01*
X104568776Y-134005580D02*
X103997347Y-134005580D01*
X104283061Y-134005580D02*
X104283061Y-133005580D01*
X104187823Y-133148438D01*
X104092585Y-133243676D01*
X103997347Y-133291295D01*
X105187823Y-133005580D02*
X105283061Y-133005580D01*
X105378300Y-133053200D01*
X105425919Y-133100819D01*
X105473538Y-133196057D01*
X105521157Y-133386533D01*
X105521157Y-133624628D01*
X105473538Y-133815104D01*
X105425919Y-133910342D01*
X105378300Y-133957961D01*
X105283061Y-134005580D01*
X105187823Y-134005580D01*
X105092585Y-133957961D01*
X105044966Y-133910342D01*
X104997347Y-133815104D01*
X104949728Y-133624628D01*
X104949728Y-133386533D01*
X104997347Y-133196057D01*
X105044966Y-133100819D01*
X105092585Y-133053200D01*
X105187823Y-133005580D01*
%TO.C,C19*%
X122734642Y-78999142D02*
X122687023Y-79046761D01*
X122544166Y-79094380D01*
X122448928Y-79094380D01*
X122306071Y-79046761D01*
X122210833Y-78951523D01*
X122163214Y-78856285D01*
X122115595Y-78665809D01*
X122115595Y-78522952D01*
X122163214Y-78332476D01*
X122210833Y-78237238D01*
X122306071Y-78142000D01*
X122448928Y-78094380D01*
X122544166Y-78094380D01*
X122687023Y-78142000D01*
X122734642Y-78189619D01*
X123687023Y-79094380D02*
X123115595Y-79094380D01*
X123401309Y-79094380D02*
X123401309Y-78094380D01*
X123306071Y-78237238D01*
X123210833Y-78332476D01*
X123115595Y-78380095D01*
X124163214Y-79094380D02*
X124353690Y-79094380D01*
X124448928Y-79046761D01*
X124496547Y-78999142D01*
X124591785Y-78856285D01*
X124639404Y-78665809D01*
X124639404Y-78284857D01*
X124591785Y-78189619D01*
X124544166Y-78142000D01*
X124448928Y-78094380D01*
X124258452Y-78094380D01*
X124163214Y-78142000D01*
X124115595Y-78189619D01*
X124067976Y-78284857D01*
X124067976Y-78522952D01*
X124115595Y-78618190D01*
X124163214Y-78665809D01*
X124258452Y-78713428D01*
X124448928Y-78713428D01*
X124544166Y-78665809D01*
X124591785Y-78618190D01*
X124639404Y-78522952D01*
%TO.C,C8*%
X123521742Y-117205466D02*
X123569361Y-117253085D01*
X123616980Y-117395942D01*
X123616980Y-117491180D01*
X123569361Y-117634038D01*
X123474123Y-117729276D01*
X123378885Y-117776895D01*
X123188409Y-117824514D01*
X123045552Y-117824514D01*
X122855076Y-117776895D01*
X122759838Y-117729276D01*
X122664600Y-117634038D01*
X122616980Y-117491180D01*
X122616980Y-117395942D01*
X122664600Y-117253085D01*
X122712219Y-117205466D01*
X123045552Y-116634038D02*
X122997933Y-116729276D01*
X122950314Y-116776895D01*
X122855076Y-116824514D01*
X122807457Y-116824514D01*
X122712219Y-116776895D01*
X122664600Y-116729276D01*
X122616980Y-116634038D01*
X122616980Y-116443561D01*
X122664600Y-116348323D01*
X122712219Y-116300704D01*
X122807457Y-116253085D01*
X122855076Y-116253085D01*
X122950314Y-116300704D01*
X122997933Y-116348323D01*
X123045552Y-116443561D01*
X123045552Y-116634038D01*
X123093171Y-116729276D01*
X123140790Y-116776895D01*
X123236028Y-116824514D01*
X123426504Y-116824514D01*
X123521742Y-116776895D01*
X123569361Y-116729276D01*
X123616980Y-116634038D01*
X123616980Y-116443561D01*
X123569361Y-116348323D01*
X123521742Y-116300704D01*
X123426504Y-116253085D01*
X123236028Y-116253085D01*
X123140790Y-116300704D01*
X123093171Y-116348323D01*
X123045552Y-116443561D01*
%TO.C,C23*%
X128262142Y-132381942D02*
X128214523Y-132429561D01*
X128071666Y-132477180D01*
X127976428Y-132477180D01*
X127833571Y-132429561D01*
X127738333Y-132334323D01*
X127690714Y-132239085D01*
X127643095Y-132048609D01*
X127643095Y-131905752D01*
X127690714Y-131715276D01*
X127738333Y-131620038D01*
X127833571Y-131524800D01*
X127976428Y-131477180D01*
X128071666Y-131477180D01*
X128214523Y-131524800D01*
X128262142Y-131572419D01*
X128643095Y-131572419D02*
X128690714Y-131524800D01*
X128785952Y-131477180D01*
X129024047Y-131477180D01*
X129119285Y-131524800D01*
X129166904Y-131572419D01*
X129214523Y-131667657D01*
X129214523Y-131762895D01*
X129166904Y-131905752D01*
X128595476Y-132477180D01*
X129214523Y-132477180D01*
X129547857Y-131477180D02*
X130166904Y-131477180D01*
X129833571Y-131858133D01*
X129976428Y-131858133D01*
X130071666Y-131905752D01*
X130119285Y-131953371D01*
X130166904Y-132048609D01*
X130166904Y-132286704D01*
X130119285Y-132381942D01*
X130071666Y-132429561D01*
X129976428Y-132477180D01*
X129690714Y-132477180D01*
X129595476Y-132429561D01*
X129547857Y-132381942D01*
%TO.C,Q3*%
X115576361Y-99506019D02*
X115481123Y-99458400D01*
X115385885Y-99363161D01*
X115243028Y-99220304D01*
X115147790Y-99172685D01*
X115052552Y-99172685D01*
X115100171Y-99410780D02*
X115004933Y-99363161D01*
X114909695Y-99267923D01*
X114862076Y-99077447D01*
X114862076Y-98744114D01*
X114909695Y-98553638D01*
X115004933Y-98458400D01*
X115100171Y-98410780D01*
X115290647Y-98410780D01*
X115385885Y-98458400D01*
X115481123Y-98553638D01*
X115528742Y-98744114D01*
X115528742Y-99077447D01*
X115481123Y-99267923D01*
X115385885Y-99363161D01*
X115290647Y-99410780D01*
X115100171Y-99410780D01*
X115862076Y-98410780D02*
X116481123Y-98410780D01*
X116147790Y-98791733D01*
X116290647Y-98791733D01*
X116385885Y-98839352D01*
X116433504Y-98886971D01*
X116481123Y-98982209D01*
X116481123Y-99220304D01*
X116433504Y-99315542D01*
X116385885Y-99363161D01*
X116290647Y-99410780D01*
X116004933Y-99410780D01*
X115909695Y-99363161D01*
X115862076Y-99315542D01*
%TO.C,J7*%
X128622466Y-141179980D02*
X128622466Y-141894266D01*
X128574847Y-142037123D01*
X128479609Y-142132361D01*
X128336752Y-142179980D01*
X128241514Y-142179980D01*
X129003419Y-141179980D02*
X129670085Y-141179980D01*
X129241514Y-142179980D01*
%TO.C,J9*%
X201736666Y-117765580D02*
X201736666Y-118479866D01*
X201689047Y-118622723D01*
X201593809Y-118717961D01*
X201450952Y-118765580D01*
X201355714Y-118765580D01*
X202260476Y-118765580D02*
X202450952Y-118765580D01*
X202546190Y-118717961D01*
X202593809Y-118670342D01*
X202689047Y-118527485D01*
X202736666Y-118337009D01*
X202736666Y-117956057D01*
X202689047Y-117860819D01*
X202641428Y-117813200D01*
X202546190Y-117765580D01*
X202355714Y-117765580D01*
X202260476Y-117813200D01*
X202212857Y-117860819D01*
X202165238Y-117956057D01*
X202165238Y-118194152D01*
X202212857Y-118289390D01*
X202260476Y-118337009D01*
X202355714Y-118384628D01*
X202546190Y-118384628D01*
X202641428Y-118337009D01*
X202689047Y-118289390D01*
X202736666Y-118194152D01*
%TO.C,C9*%
X189434742Y-127623866D02*
X189482361Y-127671485D01*
X189529980Y-127814342D01*
X189529980Y-127909580D01*
X189482361Y-128052438D01*
X189387123Y-128147676D01*
X189291885Y-128195295D01*
X189101409Y-128242914D01*
X188958552Y-128242914D01*
X188768076Y-128195295D01*
X188672838Y-128147676D01*
X188577600Y-128052438D01*
X188529980Y-127909580D01*
X188529980Y-127814342D01*
X188577600Y-127671485D01*
X188625219Y-127623866D01*
X189529980Y-127147676D02*
X189529980Y-126957200D01*
X189482361Y-126861961D01*
X189434742Y-126814342D01*
X189291885Y-126719104D01*
X189101409Y-126671485D01*
X188720457Y-126671485D01*
X188625219Y-126719104D01*
X188577600Y-126766723D01*
X188529980Y-126861961D01*
X188529980Y-127052438D01*
X188577600Y-127147676D01*
X188625219Y-127195295D01*
X188720457Y-127242914D01*
X188958552Y-127242914D01*
X189053790Y-127195295D01*
X189101409Y-127147676D01*
X189149028Y-127052438D01*
X189149028Y-126861961D01*
X189101409Y-126766723D01*
X189053790Y-126719104D01*
X188958552Y-126671485D01*
%TO.C,R36*%
X82145442Y-78176380D02*
X81812109Y-77700190D01*
X81574014Y-78176380D02*
X81574014Y-77176380D01*
X81954966Y-77176380D01*
X82050204Y-77224000D01*
X82097823Y-77271619D01*
X82145442Y-77366857D01*
X82145442Y-77509714D01*
X82097823Y-77604952D01*
X82050204Y-77652571D01*
X81954966Y-77700190D01*
X81574014Y-77700190D01*
X82478776Y-77176380D02*
X83097823Y-77176380D01*
X82764490Y-77557333D01*
X82907347Y-77557333D01*
X83002585Y-77604952D01*
X83050204Y-77652571D01*
X83097823Y-77747809D01*
X83097823Y-77985904D01*
X83050204Y-78081142D01*
X83002585Y-78128761D01*
X82907347Y-78176380D01*
X82621633Y-78176380D01*
X82526395Y-78128761D01*
X82478776Y-78081142D01*
X83954966Y-77176380D02*
X83764490Y-77176380D01*
X83669252Y-77224000D01*
X83621633Y-77271619D01*
X83526395Y-77414476D01*
X83478776Y-77604952D01*
X83478776Y-77985904D01*
X83526395Y-78081142D01*
X83574014Y-78128761D01*
X83669252Y-78176380D01*
X83859728Y-78176380D01*
X83954966Y-78128761D01*
X84002585Y-78081142D01*
X84050204Y-77985904D01*
X84050204Y-77747809D01*
X84002585Y-77652571D01*
X83954966Y-77604952D01*
X83859728Y-77557333D01*
X83669252Y-77557333D01*
X83574014Y-77604952D01*
X83526395Y-77652571D01*
X83478776Y-77747809D01*
%TO.C,J8*%
X172921832Y-125114980D02*
X172921832Y-125829266D01*
X172874213Y-125972123D01*
X172778975Y-126067361D01*
X172636118Y-126114980D01*
X172540880Y-126114980D01*
X173540880Y-125543552D02*
X173445642Y-125495933D01*
X173398023Y-125448314D01*
X173350404Y-125353076D01*
X173350404Y-125305457D01*
X173398023Y-125210219D01*
X173445642Y-125162600D01*
X173540880Y-125114980D01*
X173731356Y-125114980D01*
X173826594Y-125162600D01*
X173874213Y-125210219D01*
X173921832Y-125305457D01*
X173921832Y-125353076D01*
X173874213Y-125448314D01*
X173826594Y-125495933D01*
X173731356Y-125543552D01*
X173540880Y-125543552D01*
X173445642Y-125591171D01*
X173398023Y-125638790D01*
X173350404Y-125734028D01*
X173350404Y-125924504D01*
X173398023Y-126019742D01*
X173445642Y-126067361D01*
X173540880Y-126114980D01*
X173731356Y-126114980D01*
X173826594Y-126067361D01*
X173874213Y-126019742D01*
X173921832Y-125924504D01*
X173921832Y-125734028D01*
X173874213Y-125638790D01*
X173826594Y-125591171D01*
X173731356Y-125543552D01*
%TO.C,R17*%
X186082242Y-115666780D02*
X185748909Y-115190590D01*
X185510814Y-115666780D02*
X185510814Y-114666780D01*
X185891766Y-114666780D01*
X185987004Y-114714400D01*
X186034623Y-114762019D01*
X186082242Y-114857257D01*
X186082242Y-115000114D01*
X186034623Y-115095352D01*
X185987004Y-115142971D01*
X185891766Y-115190590D01*
X185510814Y-115190590D01*
X187034623Y-115666780D02*
X186463195Y-115666780D01*
X186748909Y-115666780D02*
X186748909Y-114666780D01*
X186653671Y-114809638D01*
X186558433Y-114904876D01*
X186463195Y-114952495D01*
X187367957Y-114666780D02*
X188034623Y-114666780D01*
X187606052Y-115666780D01*
%TO.C,R26*%
X94810342Y-99664780D02*
X94477009Y-99188590D01*
X94238914Y-99664780D02*
X94238914Y-98664780D01*
X94619866Y-98664780D01*
X94715104Y-98712400D01*
X94762723Y-98760019D01*
X94810342Y-98855257D01*
X94810342Y-98998114D01*
X94762723Y-99093352D01*
X94715104Y-99140971D01*
X94619866Y-99188590D01*
X94238914Y-99188590D01*
X95191295Y-98760019D02*
X95238914Y-98712400D01*
X95334152Y-98664780D01*
X95572247Y-98664780D01*
X95667485Y-98712400D01*
X95715104Y-98760019D01*
X95762723Y-98855257D01*
X95762723Y-98950495D01*
X95715104Y-99093352D01*
X95143676Y-99664780D01*
X95762723Y-99664780D01*
X96619866Y-98664780D02*
X96429390Y-98664780D01*
X96334152Y-98712400D01*
X96286533Y-98760019D01*
X96191295Y-98902876D01*
X96143676Y-99093352D01*
X96143676Y-99474304D01*
X96191295Y-99569542D01*
X96238914Y-99617161D01*
X96334152Y-99664780D01*
X96524628Y-99664780D01*
X96619866Y-99617161D01*
X96667485Y-99569542D01*
X96715104Y-99474304D01*
X96715104Y-99236209D01*
X96667485Y-99140971D01*
X96619866Y-99093352D01*
X96524628Y-99045733D01*
X96334152Y-99045733D01*
X96238914Y-99093352D01*
X96191295Y-99140971D01*
X96143676Y-99236209D01*
%TO.C,Q4*%
X115576361Y-103824019D02*
X115481123Y-103776400D01*
X115385885Y-103681161D01*
X115243028Y-103538304D01*
X115147790Y-103490685D01*
X115052552Y-103490685D01*
X115100171Y-103728780D02*
X115004933Y-103681161D01*
X114909695Y-103585923D01*
X114862076Y-103395447D01*
X114862076Y-103062114D01*
X114909695Y-102871638D01*
X115004933Y-102776400D01*
X115100171Y-102728780D01*
X115290647Y-102728780D01*
X115385885Y-102776400D01*
X115481123Y-102871638D01*
X115528742Y-103062114D01*
X115528742Y-103395447D01*
X115481123Y-103585923D01*
X115385885Y-103681161D01*
X115290647Y-103728780D01*
X115100171Y-103728780D01*
X116385885Y-103062114D02*
X116385885Y-103728780D01*
X116147790Y-102681161D02*
X115909695Y-103395447D01*
X116528742Y-103395447D01*
%TO.C,SW1*%
X187322166Y-138885561D02*
X187465023Y-138933180D01*
X187703119Y-138933180D01*
X187798357Y-138885561D01*
X187845976Y-138837942D01*
X187893595Y-138742704D01*
X187893595Y-138647466D01*
X187845976Y-138552228D01*
X187798357Y-138504609D01*
X187703119Y-138456990D01*
X187512642Y-138409371D01*
X187417404Y-138361752D01*
X187369785Y-138314133D01*
X187322166Y-138218895D01*
X187322166Y-138123657D01*
X187369785Y-138028419D01*
X187417404Y-137980800D01*
X187512642Y-137933180D01*
X187750738Y-137933180D01*
X187893595Y-137980800D01*
X188226928Y-137933180D02*
X188465023Y-138933180D01*
X188655500Y-138218895D01*
X188845976Y-138933180D01*
X189084071Y-137933180D01*
X189988833Y-138933180D02*
X189417404Y-138933180D01*
X189703119Y-138933180D02*
X189703119Y-137933180D01*
X189607880Y-138076038D01*
X189512642Y-138171276D01*
X189417404Y-138218895D01*
%TO.C,R32*%
X152496780Y-127744457D02*
X152020590Y-128077790D01*
X152496780Y-128315885D02*
X151496780Y-128315885D01*
X151496780Y-127934933D01*
X151544400Y-127839695D01*
X151592019Y-127792076D01*
X151687257Y-127744457D01*
X151830114Y-127744457D01*
X151925352Y-127792076D01*
X151972971Y-127839695D01*
X152020590Y-127934933D01*
X152020590Y-128315885D01*
X151496780Y-127411123D02*
X151496780Y-126792076D01*
X151877733Y-127125409D01*
X151877733Y-126982552D01*
X151925352Y-126887314D01*
X151972971Y-126839695D01*
X152068209Y-126792076D01*
X152306304Y-126792076D01*
X152401542Y-126839695D01*
X152449161Y-126887314D01*
X152496780Y-126982552D01*
X152496780Y-127268266D01*
X152449161Y-127363504D01*
X152401542Y-127411123D01*
X151592019Y-126411123D02*
X151544400Y-126363504D01*
X151496780Y-126268266D01*
X151496780Y-126030171D01*
X151544400Y-125934933D01*
X151592019Y-125887314D01*
X151687257Y-125839695D01*
X151782495Y-125839695D01*
X151925352Y-125887314D01*
X152496780Y-126458742D01*
X152496780Y-125839695D01*
%TO.C,R18*%
X186133042Y-113634780D02*
X185799709Y-113158590D01*
X185561614Y-113634780D02*
X185561614Y-112634780D01*
X185942566Y-112634780D01*
X186037804Y-112682400D01*
X186085423Y-112730019D01*
X186133042Y-112825257D01*
X186133042Y-112968114D01*
X186085423Y-113063352D01*
X186037804Y-113110971D01*
X185942566Y-113158590D01*
X185561614Y-113158590D01*
X187085423Y-113634780D02*
X186513995Y-113634780D01*
X186799709Y-113634780D02*
X186799709Y-112634780D01*
X186704471Y-112777638D01*
X186609233Y-112872876D01*
X186513995Y-112920495D01*
X187656852Y-113063352D02*
X187561614Y-113015733D01*
X187513995Y-112968114D01*
X187466376Y-112872876D01*
X187466376Y-112825257D01*
X187513995Y-112730019D01*
X187561614Y-112682400D01*
X187656852Y-112634780D01*
X187847328Y-112634780D01*
X187942566Y-112682400D01*
X187990185Y-112730019D01*
X188037804Y-112825257D01*
X188037804Y-112872876D01*
X187990185Y-112968114D01*
X187942566Y-113015733D01*
X187847328Y-113063352D01*
X187656852Y-113063352D01*
X187561614Y-113110971D01*
X187513995Y-113158590D01*
X187466376Y-113253828D01*
X187466376Y-113444304D01*
X187513995Y-113539542D01*
X187561614Y-113587161D01*
X187656852Y-113634780D01*
X187847328Y-113634780D01*
X187942566Y-113587161D01*
X187990185Y-113539542D01*
X188037804Y-113444304D01*
X188037804Y-113253828D01*
X187990185Y-113158590D01*
X187942566Y-113110971D01*
X187847328Y-113063352D01*
%TO.C,R19*%
X186097942Y-123591580D02*
X185764609Y-123115390D01*
X185526514Y-123591580D02*
X185526514Y-122591580D01*
X185907466Y-122591580D01*
X186002704Y-122639200D01*
X186050323Y-122686819D01*
X186097942Y-122782057D01*
X186097942Y-122924914D01*
X186050323Y-123020152D01*
X186002704Y-123067771D01*
X185907466Y-123115390D01*
X185526514Y-123115390D01*
X187050323Y-123591580D02*
X186478895Y-123591580D01*
X186764609Y-123591580D02*
X186764609Y-122591580D01*
X186669371Y-122734438D01*
X186574133Y-122829676D01*
X186478895Y-122877295D01*
X187526514Y-123591580D02*
X187716990Y-123591580D01*
X187812228Y-123543961D01*
X187859847Y-123496342D01*
X187955085Y-123353485D01*
X188002704Y-123163009D01*
X188002704Y-122782057D01*
X187955085Y-122686819D01*
X187907466Y-122639200D01*
X187812228Y-122591580D01*
X187621752Y-122591580D01*
X187526514Y-122639200D01*
X187478895Y-122686819D01*
X187431276Y-122782057D01*
X187431276Y-123020152D01*
X187478895Y-123115390D01*
X187526514Y-123163009D01*
X187621752Y-123210628D01*
X187812228Y-123210628D01*
X187907466Y-123163009D01*
X187955085Y-123115390D01*
X188002704Y-123020152D01*
%TO.C,R1*%
X79030533Y-129839980D02*
X78697200Y-129363790D01*
X78459104Y-129839980D02*
X78459104Y-128839980D01*
X78840057Y-128839980D01*
X78935295Y-128887600D01*
X78982914Y-128935219D01*
X79030533Y-129030457D01*
X79030533Y-129173314D01*
X78982914Y-129268552D01*
X78935295Y-129316171D01*
X78840057Y-129363790D01*
X78459104Y-129363790D01*
X79982914Y-129839980D02*
X79411485Y-129839980D01*
X79697200Y-129839980D02*
X79697200Y-128839980D01*
X79601961Y-128982838D01*
X79506723Y-129078076D01*
X79411485Y-129125695D01*
%TO.C,U3*%
X149234795Y-72705980D02*
X149234795Y-73515504D01*
X149282414Y-73610742D01*
X149330033Y-73658361D01*
X149425271Y-73705980D01*
X149615747Y-73705980D01*
X149710985Y-73658361D01*
X149758604Y-73610742D01*
X149806223Y-73515504D01*
X149806223Y-72705980D01*
X150187176Y-72705980D02*
X150806223Y-72705980D01*
X150472890Y-73086933D01*
X150615747Y-73086933D01*
X150710985Y-73134552D01*
X150758604Y-73182171D01*
X150806223Y-73277409D01*
X150806223Y-73515504D01*
X150758604Y-73610742D01*
X150710985Y-73658361D01*
X150615747Y-73705980D01*
X150330033Y-73705980D01*
X150234795Y-73658361D01*
X150187176Y-73610742D01*
%TO.C,D4*%
X92661112Y-143502095D02*
X91661112Y-143502095D01*
X91661112Y-143264000D01*
X91708732Y-143121142D01*
X91803970Y-143025904D01*
X91899208Y-142978285D01*
X92089684Y-142930666D01*
X92232541Y-142930666D01*
X92423017Y-142978285D01*
X92518255Y-143025904D01*
X92613493Y-143121142D01*
X92661112Y-143264000D01*
X92661112Y-143502095D01*
X91994446Y-142073523D02*
X92661112Y-142073523D01*
X91613493Y-142311619D02*
X92327779Y-142549714D01*
X92327779Y-141930666D01*
%TO.C,U4*%
X131810395Y-103084380D02*
X131810395Y-103893904D01*
X131858014Y-103989142D01*
X131905633Y-104036761D01*
X132000871Y-104084380D01*
X132191347Y-104084380D01*
X132286585Y-104036761D01*
X132334204Y-103989142D01*
X132381823Y-103893904D01*
X132381823Y-103084380D01*
X133286585Y-103417714D02*
X133286585Y-104084380D01*
X133048490Y-103036761D02*
X132810395Y-103751047D01*
X133429442Y-103751047D01*
%TO.C,U1*%
X198093995Y-90843180D02*
X198093995Y-91652704D01*
X198141614Y-91747942D01*
X198189233Y-91795561D01*
X198284471Y-91843180D01*
X198474947Y-91843180D01*
X198570185Y-91795561D01*
X198617804Y-91747942D01*
X198665423Y-91652704D01*
X198665423Y-90843180D01*
X199665423Y-91843180D02*
X199093995Y-91843180D01*
X199379709Y-91843180D02*
X199379709Y-90843180D01*
X199284471Y-90986038D01*
X199189233Y-91081276D01*
X199093995Y-91128895D01*
%TO.C,C21*%
X140463542Y-127841657D02*
X140511161Y-127889276D01*
X140558780Y-128032133D01*
X140558780Y-128127371D01*
X140511161Y-128270228D01*
X140415923Y-128365466D01*
X140320685Y-128413085D01*
X140130209Y-128460704D01*
X139987352Y-128460704D01*
X139796876Y-128413085D01*
X139701638Y-128365466D01*
X139606400Y-128270228D01*
X139558780Y-128127371D01*
X139558780Y-128032133D01*
X139606400Y-127889276D01*
X139654019Y-127841657D01*
X139654019Y-127460704D02*
X139606400Y-127413085D01*
X139558780Y-127317847D01*
X139558780Y-127079752D01*
X139606400Y-126984514D01*
X139654019Y-126936895D01*
X139749257Y-126889276D01*
X139844495Y-126889276D01*
X139987352Y-126936895D01*
X140558780Y-127508323D01*
X140558780Y-126889276D01*
X140558780Y-125936895D02*
X140558780Y-126508323D01*
X140558780Y-126222609D02*
X139558780Y-126222609D01*
X139701638Y-126317847D01*
X139796876Y-126413085D01*
X139844495Y-126508323D01*
%TO.C,R30*%
X180573480Y-127642857D02*
X180097290Y-127976190D01*
X180573480Y-128214285D02*
X179573480Y-128214285D01*
X179573480Y-127833333D01*
X179621100Y-127738095D01*
X179668719Y-127690476D01*
X179763957Y-127642857D01*
X179906814Y-127642857D01*
X180002052Y-127690476D01*
X180049671Y-127738095D01*
X180097290Y-127833333D01*
X180097290Y-128214285D01*
X179573480Y-127309523D02*
X179573480Y-126690476D01*
X179954433Y-127023809D01*
X179954433Y-126880952D01*
X180002052Y-126785714D01*
X180049671Y-126738095D01*
X180144909Y-126690476D01*
X180383004Y-126690476D01*
X180478242Y-126738095D01*
X180525861Y-126785714D01*
X180573480Y-126880952D01*
X180573480Y-127166666D01*
X180525861Y-127261904D01*
X180478242Y-127309523D01*
X179573480Y-126071428D02*
X179573480Y-125976190D01*
X179621100Y-125880952D01*
X179668719Y-125833333D01*
X179763957Y-125785714D01*
X179954433Y-125738095D01*
X180192528Y-125738095D01*
X180383004Y-125785714D01*
X180478242Y-125833333D01*
X180525861Y-125880952D01*
X180573480Y-125976190D01*
X180573480Y-126071428D01*
X180525861Y-126166666D01*
X180478242Y-126214285D01*
X180383004Y-126261904D01*
X180192528Y-126309523D01*
X179954433Y-126309523D01*
X179763957Y-126261904D01*
X179668719Y-126214285D01*
X179621100Y-126166666D01*
X179573480Y-126071428D01*
%TO.C,R24*%
X114637541Y-123736979D02*
X114304208Y-123260789D01*
X114066113Y-123736979D02*
X114066113Y-122736979D01*
X114447065Y-122736979D01*
X114542303Y-122784599D01*
X114589922Y-122832218D01*
X114637541Y-122927456D01*
X114637541Y-123070313D01*
X114589922Y-123165551D01*
X114542303Y-123213170D01*
X114447065Y-123260789D01*
X114066113Y-123260789D01*
X115018494Y-122832218D02*
X115066113Y-122784599D01*
X115161351Y-122736979D01*
X115399446Y-122736979D01*
X115494684Y-122784599D01*
X115542303Y-122832218D01*
X115589922Y-122927456D01*
X115589922Y-123022694D01*
X115542303Y-123165551D01*
X114970875Y-123736979D01*
X115589922Y-123736979D01*
X116447065Y-123070313D02*
X116447065Y-123736979D01*
X116208970Y-122689360D02*
X115970875Y-123403646D01*
X116589922Y-123403646D01*
%TO.C,Q5*%
X115576361Y-108243619D02*
X115481123Y-108196000D01*
X115385885Y-108100761D01*
X115243028Y-107957904D01*
X115147790Y-107910285D01*
X115052552Y-107910285D01*
X115100171Y-108148380D02*
X115004933Y-108100761D01*
X114909695Y-108005523D01*
X114862076Y-107815047D01*
X114862076Y-107481714D01*
X114909695Y-107291238D01*
X115004933Y-107196000D01*
X115100171Y-107148380D01*
X115290647Y-107148380D01*
X115385885Y-107196000D01*
X115481123Y-107291238D01*
X115528742Y-107481714D01*
X115528742Y-107815047D01*
X115481123Y-108005523D01*
X115385885Y-108100761D01*
X115290647Y-108148380D01*
X115100171Y-108148380D01*
X116433504Y-107148380D02*
X115957314Y-107148380D01*
X115909695Y-107624571D01*
X115957314Y-107576952D01*
X116052552Y-107529333D01*
X116290647Y-107529333D01*
X116385885Y-107576952D01*
X116433504Y-107624571D01*
X116481123Y-107719809D01*
X116481123Y-107957904D01*
X116433504Y-108053142D01*
X116385885Y-108100761D01*
X116290647Y-108148380D01*
X116052552Y-108148380D01*
X115957314Y-108100761D01*
X115909695Y-108053142D01*
%TO.C,C5*%
X129986042Y-117205466D02*
X130033661Y-117253085D01*
X130081280Y-117395942D01*
X130081280Y-117491180D01*
X130033661Y-117634038D01*
X129938423Y-117729276D01*
X129843185Y-117776895D01*
X129652709Y-117824514D01*
X129509852Y-117824514D01*
X129319376Y-117776895D01*
X129224138Y-117729276D01*
X129128900Y-117634038D01*
X129081280Y-117491180D01*
X129081280Y-117395942D01*
X129128900Y-117253085D01*
X129176519Y-117205466D01*
X129081280Y-116300704D02*
X129081280Y-116776895D01*
X129557471Y-116824514D01*
X129509852Y-116776895D01*
X129462233Y-116681657D01*
X129462233Y-116443561D01*
X129509852Y-116348323D01*
X129557471Y-116300704D01*
X129652709Y-116253085D01*
X129890804Y-116253085D01*
X129986042Y-116300704D01*
X130033661Y-116348323D01*
X130081280Y-116443561D01*
X130081280Y-116681657D01*
X130033661Y-116776895D01*
X129986042Y-116824514D01*
%TO.C,R12*%
X187040780Y-127744457D02*
X186564590Y-128077790D01*
X187040780Y-128315885D02*
X186040780Y-128315885D01*
X186040780Y-127934933D01*
X186088400Y-127839695D01*
X186136019Y-127792076D01*
X186231257Y-127744457D01*
X186374114Y-127744457D01*
X186469352Y-127792076D01*
X186516971Y-127839695D01*
X186564590Y-127934933D01*
X186564590Y-128315885D01*
X187040780Y-126792076D02*
X187040780Y-127363504D01*
X187040780Y-127077790D02*
X186040780Y-127077790D01*
X186183638Y-127173028D01*
X186278876Y-127268266D01*
X186326495Y-127363504D01*
X186136019Y-126411123D02*
X186088400Y-126363504D01*
X186040780Y-126268266D01*
X186040780Y-126030171D01*
X186088400Y-125934933D01*
X186136019Y-125887314D01*
X186231257Y-125839695D01*
X186326495Y-125839695D01*
X186469352Y-125887314D01*
X187040780Y-126458742D01*
X187040780Y-125839695D01*
%TO.C,R22*%
X100144342Y-126293979D02*
X99811009Y-125817789D01*
X99572914Y-126293979D02*
X99572914Y-125293979D01*
X99953866Y-125293979D01*
X100049104Y-125341599D01*
X100096723Y-125389218D01*
X100144342Y-125484456D01*
X100144342Y-125627313D01*
X100096723Y-125722551D01*
X100049104Y-125770170D01*
X99953866Y-125817789D01*
X99572914Y-125817789D01*
X100525295Y-125389218D02*
X100572914Y-125341599D01*
X100668152Y-125293979D01*
X100906247Y-125293979D01*
X101001485Y-125341599D01*
X101049104Y-125389218D01*
X101096723Y-125484456D01*
X101096723Y-125579694D01*
X101049104Y-125722551D01*
X100477676Y-126293979D01*
X101096723Y-126293979D01*
X101477676Y-125389218D02*
X101525295Y-125341599D01*
X101620533Y-125293979D01*
X101858628Y-125293979D01*
X101953866Y-125341599D01*
X102001485Y-125389218D01*
X102049104Y-125484456D01*
X102049104Y-125579694D01*
X102001485Y-125722551D01*
X101430057Y-126293979D01*
X102049104Y-126293979D01*
%TO.C,C11*%
X150369842Y-78999142D02*
X150322223Y-79046761D01*
X150179366Y-79094380D01*
X150084128Y-79094380D01*
X149941271Y-79046761D01*
X149846033Y-78951523D01*
X149798414Y-78856285D01*
X149750795Y-78665809D01*
X149750795Y-78522952D01*
X149798414Y-78332476D01*
X149846033Y-78237238D01*
X149941271Y-78142000D01*
X150084128Y-78094380D01*
X150179366Y-78094380D01*
X150322223Y-78142000D01*
X150369842Y-78189619D01*
X151322223Y-79094380D02*
X150750795Y-79094380D01*
X151036509Y-79094380D02*
X151036509Y-78094380D01*
X150941271Y-78237238D01*
X150846033Y-78332476D01*
X150750795Y-78380095D01*
X152274604Y-79094380D02*
X151703176Y-79094380D01*
X151988890Y-79094380D02*
X151988890Y-78094380D01*
X151893652Y-78237238D01*
X151798414Y-78332476D01*
X151703176Y-78380095D01*
%TO.C,R25*%
X114609642Y-121419880D02*
X114276309Y-120943690D01*
X114038214Y-121419880D02*
X114038214Y-120419880D01*
X114419166Y-120419880D01*
X114514404Y-120467500D01*
X114562023Y-120515119D01*
X114609642Y-120610357D01*
X114609642Y-120753214D01*
X114562023Y-120848452D01*
X114514404Y-120896071D01*
X114419166Y-120943690D01*
X114038214Y-120943690D01*
X114990595Y-120515119D02*
X115038214Y-120467500D01*
X115133452Y-120419880D01*
X115371547Y-120419880D01*
X115466785Y-120467500D01*
X115514404Y-120515119D01*
X115562023Y-120610357D01*
X115562023Y-120705595D01*
X115514404Y-120848452D01*
X114942976Y-121419880D01*
X115562023Y-121419880D01*
X116466785Y-120419880D02*
X115990595Y-120419880D01*
X115942976Y-120896071D01*
X115990595Y-120848452D01*
X116085833Y-120800833D01*
X116323928Y-120800833D01*
X116419166Y-120848452D01*
X116466785Y-120896071D01*
X116514404Y-120991309D01*
X116514404Y-121229404D01*
X116466785Y-121324642D01*
X116419166Y-121372261D01*
X116323928Y-121419880D01*
X116085833Y-121419880D01*
X115990595Y-121372261D01*
X115942976Y-121324642D01*
%TO.C,R28*%
X94759542Y-97531180D02*
X94426209Y-97054990D01*
X94188114Y-97531180D02*
X94188114Y-96531180D01*
X94569066Y-96531180D01*
X94664304Y-96578800D01*
X94711923Y-96626419D01*
X94759542Y-96721657D01*
X94759542Y-96864514D01*
X94711923Y-96959752D01*
X94664304Y-97007371D01*
X94569066Y-97054990D01*
X94188114Y-97054990D01*
X95140495Y-96626419D02*
X95188114Y-96578800D01*
X95283352Y-96531180D01*
X95521447Y-96531180D01*
X95616685Y-96578800D01*
X95664304Y-96626419D01*
X95711923Y-96721657D01*
X95711923Y-96816895D01*
X95664304Y-96959752D01*
X95092876Y-97531180D01*
X95711923Y-97531180D01*
X96283352Y-96959752D02*
X96188114Y-96912133D01*
X96140495Y-96864514D01*
X96092876Y-96769276D01*
X96092876Y-96721657D01*
X96140495Y-96626419D01*
X96188114Y-96578800D01*
X96283352Y-96531180D01*
X96473828Y-96531180D01*
X96569066Y-96578800D01*
X96616685Y-96626419D01*
X96664304Y-96721657D01*
X96664304Y-96769276D01*
X96616685Y-96864514D01*
X96569066Y-96912133D01*
X96473828Y-96959752D01*
X96283352Y-96959752D01*
X96188114Y-97007371D01*
X96140495Y-97054990D01*
X96092876Y-97150228D01*
X96092876Y-97340704D01*
X96140495Y-97435942D01*
X96188114Y-97483561D01*
X96283352Y-97531180D01*
X96473828Y-97531180D01*
X96569066Y-97483561D01*
X96616685Y-97435942D01*
X96664304Y-97340704D01*
X96664304Y-97150228D01*
X96616685Y-97054990D01*
X96569066Y-97007371D01*
X96473828Y-96959752D01*
%TO.C,R23*%
X114637541Y-119298980D02*
X114304208Y-118822790D01*
X114066113Y-119298980D02*
X114066113Y-118298980D01*
X114447065Y-118298980D01*
X114542303Y-118346600D01*
X114589922Y-118394219D01*
X114637541Y-118489457D01*
X114637541Y-118632314D01*
X114589922Y-118727552D01*
X114542303Y-118775171D01*
X114447065Y-118822790D01*
X114066113Y-118822790D01*
X115018494Y-118394219D02*
X115066113Y-118346600D01*
X115161351Y-118298980D01*
X115399446Y-118298980D01*
X115494684Y-118346600D01*
X115542303Y-118394219D01*
X115589922Y-118489457D01*
X115589922Y-118584695D01*
X115542303Y-118727552D01*
X114970875Y-119298980D01*
X115589922Y-119298980D01*
X115923256Y-118298980D02*
X116542303Y-118298980D01*
X116208970Y-118679933D01*
X116351827Y-118679933D01*
X116447065Y-118727552D01*
X116494684Y-118775171D01*
X116542303Y-118870409D01*
X116542303Y-119108504D01*
X116494684Y-119203742D01*
X116447065Y-119251361D01*
X116351827Y-119298980D01*
X116066113Y-119298980D01*
X115970875Y-119251361D01*
X115923256Y-119203742D01*
%TO.C,R4*%
X138094980Y-127035266D02*
X137618790Y-127368600D01*
X138094980Y-127606695D02*
X137094980Y-127606695D01*
X137094980Y-127225742D01*
X137142600Y-127130504D01*
X137190219Y-127082885D01*
X137285457Y-127035266D01*
X137428314Y-127035266D01*
X137523552Y-127082885D01*
X137571171Y-127130504D01*
X137618790Y-127225742D01*
X137618790Y-127606695D01*
X137428314Y-126178123D02*
X138094980Y-126178123D01*
X137047361Y-126416219D02*
X137761647Y-126654314D01*
X137761647Y-126035266D01*
%TO.C,C24*%
X201271442Y-77166742D02*
X201223823Y-77214361D01*
X201080966Y-77261980D01*
X200985728Y-77261980D01*
X200842871Y-77214361D01*
X200747633Y-77119123D01*
X200700014Y-77023885D01*
X200652395Y-76833409D01*
X200652395Y-76690552D01*
X200700014Y-76500076D01*
X200747633Y-76404838D01*
X200842871Y-76309600D01*
X200985728Y-76261980D01*
X201080966Y-76261980D01*
X201223823Y-76309600D01*
X201271442Y-76357219D01*
X201652395Y-76357219D02*
X201700014Y-76309600D01*
X201795252Y-76261980D01*
X202033347Y-76261980D01*
X202128585Y-76309600D01*
X202176204Y-76357219D01*
X202223823Y-76452457D01*
X202223823Y-76547695D01*
X202176204Y-76690552D01*
X201604776Y-77261980D01*
X202223823Y-77261980D01*
X203080966Y-76595314D02*
X203080966Y-77261980D01*
X202842871Y-76214361D02*
X202604776Y-76928647D01*
X203223823Y-76928647D01*
%TO.C,R38*%
X89686480Y-129725657D02*
X89210290Y-130058990D01*
X89686480Y-130297085D02*
X88686480Y-130297085D01*
X88686480Y-129916133D01*
X88734100Y-129820895D01*
X88781719Y-129773276D01*
X88876957Y-129725657D01*
X89019814Y-129725657D01*
X89115052Y-129773276D01*
X89162671Y-129820895D01*
X89210290Y-129916133D01*
X89210290Y-130297085D01*
X88686480Y-129392323D02*
X88686480Y-128773276D01*
X89067433Y-129106609D01*
X89067433Y-128963752D01*
X89115052Y-128868514D01*
X89162671Y-128820895D01*
X89257909Y-128773276D01*
X89496004Y-128773276D01*
X89591242Y-128820895D01*
X89638861Y-128868514D01*
X89686480Y-128963752D01*
X89686480Y-129249466D01*
X89638861Y-129344704D01*
X89591242Y-129392323D01*
X89115052Y-128201847D02*
X89067433Y-128297085D01*
X89019814Y-128344704D01*
X88924576Y-128392323D01*
X88876957Y-128392323D01*
X88781719Y-128344704D01*
X88734100Y-128297085D01*
X88686480Y-128201847D01*
X88686480Y-128011371D01*
X88734100Y-127916133D01*
X88781719Y-127868514D01*
X88876957Y-127820895D01*
X88924576Y-127820895D01*
X89019814Y-127868514D01*
X89067433Y-127916133D01*
X89115052Y-128011371D01*
X89115052Y-128201847D01*
X89162671Y-128297085D01*
X89210290Y-128344704D01*
X89305528Y-128392323D01*
X89496004Y-128392323D01*
X89591242Y-128344704D01*
X89638861Y-128297085D01*
X89686480Y-128201847D01*
X89686480Y-128011371D01*
X89638861Y-127916133D01*
X89591242Y-127868514D01*
X89496004Y-127820895D01*
X89305528Y-127820895D01*
X89210290Y-127868514D01*
X89162671Y-127916133D01*
X89115052Y-128011371D01*
%TO.C,U2*%
X135467995Y-72705980D02*
X135467995Y-73515504D01*
X135515614Y-73610742D01*
X135563233Y-73658361D01*
X135658471Y-73705980D01*
X135848947Y-73705980D01*
X135944185Y-73658361D01*
X135991804Y-73610742D01*
X136039423Y-73515504D01*
X136039423Y-72705980D01*
X136467995Y-72801219D02*
X136515614Y-72753600D01*
X136610852Y-72705980D01*
X136848947Y-72705980D01*
X136944185Y-72753600D01*
X136991804Y-72801219D01*
X137039423Y-72896457D01*
X137039423Y-72991695D01*
X136991804Y-73134552D01*
X136420376Y-73705980D01*
X137039423Y-73705980D01*
%TO.C,C2*%
X136018542Y-117205466D02*
X136066161Y-117253085D01*
X136113780Y-117395942D01*
X136113780Y-117491180D01*
X136066161Y-117634038D01*
X135970923Y-117729276D01*
X135875685Y-117776895D01*
X135685209Y-117824514D01*
X135542352Y-117824514D01*
X135351876Y-117776895D01*
X135256638Y-117729276D01*
X135161400Y-117634038D01*
X135113780Y-117491180D01*
X135113780Y-117395942D01*
X135161400Y-117253085D01*
X135209019Y-117205466D01*
X135209019Y-116824514D02*
X135161400Y-116776895D01*
X135113780Y-116681657D01*
X135113780Y-116443561D01*
X135161400Y-116348323D01*
X135209019Y-116300704D01*
X135304257Y-116253085D01*
X135399495Y-116253085D01*
X135542352Y-116300704D01*
X136113780Y-116872133D01*
X136113780Y-116253085D01*
%TO.C,D1*%
X64692304Y-127706380D02*
X64692304Y-126706380D01*
X64930400Y-126706380D01*
X65073257Y-126754000D01*
X65168495Y-126849238D01*
X65216114Y-126944476D01*
X65263733Y-127134952D01*
X65263733Y-127277809D01*
X65216114Y-127468285D01*
X65168495Y-127563523D01*
X65073257Y-127658761D01*
X64930400Y-127706380D01*
X64692304Y-127706380D01*
X66216114Y-127706380D02*
X65644685Y-127706380D01*
X65930400Y-127706380D02*
X65930400Y-126706380D01*
X65835161Y-126849238D01*
X65739923Y-126944476D01*
X65644685Y-126992095D01*
%TO.C,J11*%
X149999976Y-145235080D02*
X149999976Y-145949366D01*
X149952357Y-146092223D01*
X149857119Y-146187461D01*
X149714261Y-146235080D01*
X149619023Y-146235080D01*
X150999976Y-146235080D02*
X150428547Y-146235080D01*
X150714261Y-146235080D02*
X150714261Y-145235080D01*
X150619023Y-145377938D01*
X150523785Y-145473176D01*
X150428547Y-145520795D01*
X151952357Y-146235080D02*
X151380928Y-146235080D01*
X151666642Y-146235080D02*
X151666642Y-145235080D01*
X151571404Y-145377938D01*
X151476166Y-145473176D01*
X151380928Y-145520795D01*
%TO.C,Conn1*%
X150592680Y-93746709D02*
X150592680Y-93127661D01*
X150973633Y-93460995D01*
X150973633Y-93318138D01*
X151021252Y-93222900D01*
X151068871Y-93175280D01*
X151164109Y-93127661D01*
X151402204Y-93127661D01*
X151497442Y-93175280D01*
X151545061Y-93222900D01*
X151592680Y-93318138D01*
X151592680Y-93603852D01*
X151545061Y-93699090D01*
X151497442Y-93746709D01*
X150592680Y-92794328D02*
X150592680Y-92175280D01*
X150973633Y-92508614D01*
X150973633Y-92365757D01*
X151021252Y-92270519D01*
X151068871Y-92222900D01*
X151164109Y-92175280D01*
X151402204Y-92175280D01*
X151497442Y-92222900D01*
X151545061Y-92270519D01*
X151592680Y-92365757D01*
X151592680Y-92651471D01*
X151545061Y-92746709D01*
X151497442Y-92794328D01*
X151497442Y-91746709D02*
X151545061Y-91699090D01*
X151592680Y-91746709D01*
X151545061Y-91794328D01*
X151497442Y-91746709D01*
X151592680Y-91746709D01*
X150926014Y-90841947D02*
X151592680Y-90841947D01*
X150545061Y-91080042D02*
X151259347Y-91318138D01*
X151259347Y-90699090D01*
X83792680Y-94046709D02*
X83792680Y-93427661D01*
X84173633Y-93760995D01*
X84173633Y-93618138D01*
X84221252Y-93522900D01*
X84268871Y-93475280D01*
X84364109Y-93427661D01*
X84602204Y-93427661D01*
X84697442Y-93475280D01*
X84745061Y-93522900D01*
X84792680Y-93618138D01*
X84792680Y-93903852D01*
X84745061Y-93999090D01*
X84697442Y-94046709D01*
X83792680Y-93094328D02*
X83792680Y-92475280D01*
X84173633Y-92808614D01*
X84173633Y-92665757D01*
X84221252Y-92570519D01*
X84268871Y-92522900D01*
X84364109Y-92475280D01*
X84602204Y-92475280D01*
X84697442Y-92522900D01*
X84745061Y-92570519D01*
X84792680Y-92665757D01*
X84792680Y-92951471D01*
X84745061Y-93046709D01*
X84697442Y-93094328D01*
X84697442Y-92046709D02*
X84745061Y-91999090D01*
X84792680Y-92046709D01*
X84745061Y-92094328D01*
X84697442Y-92046709D01*
X84792680Y-92046709D01*
X84126014Y-91141947D02*
X84792680Y-91141947D01*
X83745061Y-91380042D02*
X84459347Y-91618138D01*
X84459347Y-90999090D01*
%TO.C,R37*%
X86695080Y-129725657D02*
X86218890Y-130058990D01*
X86695080Y-130297085D02*
X85695080Y-130297085D01*
X85695080Y-129916133D01*
X85742700Y-129820895D01*
X85790319Y-129773276D01*
X85885557Y-129725657D01*
X86028414Y-129725657D01*
X86123652Y-129773276D01*
X86171271Y-129820895D01*
X86218890Y-129916133D01*
X86218890Y-130297085D01*
X85695080Y-129392323D02*
X85695080Y-128773276D01*
X86076033Y-129106609D01*
X86076033Y-128963752D01*
X86123652Y-128868514D01*
X86171271Y-128820895D01*
X86266509Y-128773276D01*
X86504604Y-128773276D01*
X86599842Y-128820895D01*
X86647461Y-128868514D01*
X86695080Y-128963752D01*
X86695080Y-129249466D01*
X86647461Y-129344704D01*
X86599842Y-129392323D01*
X85695080Y-128439942D02*
X85695080Y-127773276D01*
X86695080Y-128201847D01*
%TO.C,R5*%
X136062980Y-127035266D02*
X135586790Y-127368600D01*
X136062980Y-127606695D02*
X135062980Y-127606695D01*
X135062980Y-127225742D01*
X135110600Y-127130504D01*
X135158219Y-127082885D01*
X135253457Y-127035266D01*
X135396314Y-127035266D01*
X135491552Y-127082885D01*
X135539171Y-127130504D01*
X135586790Y-127225742D01*
X135586790Y-127606695D01*
X135062980Y-126130504D02*
X135062980Y-126606695D01*
X135539171Y-126654314D01*
X135491552Y-126606695D01*
X135443933Y-126511457D01*
X135443933Y-126273361D01*
X135491552Y-126178123D01*
X135539171Y-126130504D01*
X135634409Y-126082885D01*
X135872504Y-126082885D01*
X135967742Y-126130504D01*
X136015361Y-126178123D01*
X136062980Y-126273361D01*
X136062980Y-126511457D01*
X136015361Y-126606695D01*
X135967742Y-126654314D01*
%TO.C,R3*%
X79030533Y-127706380D02*
X78697200Y-127230190D01*
X78459104Y-127706380D02*
X78459104Y-126706380D01*
X78840057Y-126706380D01*
X78935295Y-126754000D01*
X78982914Y-126801619D01*
X79030533Y-126896857D01*
X79030533Y-127039714D01*
X78982914Y-127134952D01*
X78935295Y-127182571D01*
X78840057Y-127230190D01*
X78459104Y-127230190D01*
X79363866Y-126706380D02*
X79982914Y-126706380D01*
X79649580Y-127087333D01*
X79792438Y-127087333D01*
X79887676Y-127134952D01*
X79935295Y-127182571D01*
X79982914Y-127277809D01*
X79982914Y-127515904D01*
X79935295Y-127611142D01*
X79887676Y-127658761D01*
X79792438Y-127706380D01*
X79506723Y-127706380D01*
X79411485Y-127658761D01*
X79363866Y-127611142D01*
%TO.C,D5*%
X95686380Y-143502095D02*
X94686380Y-143502095D01*
X94686380Y-143264000D01*
X94734000Y-143121142D01*
X94829238Y-143025904D01*
X94924476Y-142978285D01*
X95114952Y-142930666D01*
X95257809Y-142930666D01*
X95448285Y-142978285D01*
X95543523Y-143025904D01*
X95638761Y-143121142D01*
X95686380Y-143264000D01*
X95686380Y-143502095D01*
X94686380Y-142025904D02*
X94686380Y-142502095D01*
X95162571Y-142549714D01*
X95114952Y-142502095D01*
X95067333Y-142406857D01*
X95067333Y-142168761D01*
X95114952Y-142073523D01*
X95162571Y-142025904D01*
X95257809Y-141978285D01*
X95495904Y-141978285D01*
X95591142Y-142025904D01*
X95638761Y-142073523D01*
X95686380Y-142168761D01*
X95686380Y-142406857D01*
X95638761Y-142502095D01*
X95591142Y-142549714D01*
%TO.C,R11*%
X123566180Y-127968657D02*
X123089990Y-128301990D01*
X123566180Y-128540085D02*
X122566180Y-128540085D01*
X122566180Y-128159133D01*
X122613800Y-128063895D01*
X122661419Y-128016276D01*
X122756657Y-127968657D01*
X122899514Y-127968657D01*
X122994752Y-128016276D01*
X123042371Y-128063895D01*
X123089990Y-128159133D01*
X123089990Y-128540085D01*
X123566180Y-127016276D02*
X123566180Y-127587704D01*
X123566180Y-127301990D02*
X122566180Y-127301990D01*
X122709038Y-127397228D01*
X122804276Y-127492466D01*
X122851895Y-127587704D01*
X123566180Y-126063895D02*
X123566180Y-126635323D01*
X123566180Y-126349609D02*
X122566180Y-126349609D01*
X122709038Y-126444847D01*
X122804276Y-126540085D01*
X122851895Y-126635323D01*
%TO.C,R9*%
X127731780Y-126984466D02*
X127255590Y-127317800D01*
X127731780Y-127555895D02*
X126731780Y-127555895D01*
X126731780Y-127174942D01*
X126779400Y-127079704D01*
X126827019Y-127032085D01*
X126922257Y-126984466D01*
X127065114Y-126984466D01*
X127160352Y-127032085D01*
X127207971Y-127079704D01*
X127255590Y-127174942D01*
X127255590Y-127555895D01*
X127731780Y-126508276D02*
X127731780Y-126317800D01*
X127684161Y-126222561D01*
X127636542Y-126174942D01*
X127493685Y-126079704D01*
X127303209Y-126032085D01*
X126922257Y-126032085D01*
X126827019Y-126079704D01*
X126779400Y-126127323D01*
X126731780Y-126222561D01*
X126731780Y-126413038D01*
X126779400Y-126508276D01*
X126827019Y-126555895D01*
X126922257Y-126603514D01*
X127160352Y-126603514D01*
X127255590Y-126555895D01*
X127303209Y-126508276D01*
X127350828Y-126413038D01*
X127350828Y-126222561D01*
X127303209Y-126127323D01*
X127255590Y-126079704D01*
X127160352Y-126032085D01*
%TO.C,C18*%
X108780342Y-111710742D02*
X108732723Y-111758361D01*
X108589866Y-111805980D01*
X108494628Y-111805980D01*
X108351771Y-111758361D01*
X108256533Y-111663123D01*
X108208914Y-111567885D01*
X108161295Y-111377409D01*
X108161295Y-111234552D01*
X108208914Y-111044076D01*
X108256533Y-110948838D01*
X108351771Y-110853600D01*
X108494628Y-110805980D01*
X108589866Y-110805980D01*
X108732723Y-110853600D01*
X108780342Y-110901219D01*
X109732723Y-111805980D02*
X109161295Y-111805980D01*
X109447009Y-111805980D02*
X109447009Y-110805980D01*
X109351771Y-110948838D01*
X109256533Y-111044076D01*
X109161295Y-111091695D01*
X110304152Y-111234552D02*
X110208914Y-111186933D01*
X110161295Y-111139314D01*
X110113676Y-111044076D01*
X110113676Y-110996457D01*
X110161295Y-110901219D01*
X110208914Y-110853600D01*
X110304152Y-110805980D01*
X110494628Y-110805980D01*
X110589866Y-110853600D01*
X110637485Y-110901219D01*
X110685104Y-110996457D01*
X110685104Y-111044076D01*
X110637485Y-111139314D01*
X110589866Y-111186933D01*
X110494628Y-111234552D01*
X110304152Y-111234552D01*
X110208914Y-111282171D01*
X110161295Y-111329790D01*
X110113676Y-111425028D01*
X110113676Y-111615504D01*
X110161295Y-111710742D01*
X110208914Y-111758361D01*
X110304152Y-111805980D01*
X110494628Y-111805980D01*
X110589866Y-111758361D01*
X110637485Y-111710742D01*
X110685104Y-111615504D01*
X110685104Y-111425028D01*
X110637485Y-111329790D01*
X110589866Y-111282171D01*
X110494628Y-111234552D01*
%TO.C,U5*%
X98348895Y-104760780D02*
X98348895Y-105570304D01*
X98396514Y-105665542D01*
X98444133Y-105713161D01*
X98539371Y-105760780D01*
X98729847Y-105760780D01*
X98825085Y-105713161D01*
X98872704Y-105665542D01*
X98920323Y-105570304D01*
X98920323Y-104760780D01*
X99872704Y-104760780D02*
X99396514Y-104760780D01*
X99348895Y-105236971D01*
X99396514Y-105189352D01*
X99491752Y-105141733D01*
X99729847Y-105141733D01*
X99825085Y-105189352D01*
X99872704Y-105236971D01*
X99920323Y-105332209D01*
X99920323Y-105570304D01*
X99872704Y-105665542D01*
X99825085Y-105713161D01*
X99729847Y-105760780D01*
X99491752Y-105760780D01*
X99396514Y-105713161D01*
X99348895Y-105665542D01*
%TO.C,C10*%
X136552242Y-78999142D02*
X136504623Y-79046761D01*
X136361766Y-79094380D01*
X136266528Y-79094380D01*
X136123671Y-79046761D01*
X136028433Y-78951523D01*
X135980814Y-78856285D01*
X135933195Y-78665809D01*
X135933195Y-78522952D01*
X135980814Y-78332476D01*
X136028433Y-78237238D01*
X136123671Y-78142000D01*
X136266528Y-78094380D01*
X136361766Y-78094380D01*
X136504623Y-78142000D01*
X136552242Y-78189619D01*
X137504623Y-79094380D02*
X136933195Y-79094380D01*
X137218909Y-79094380D02*
X137218909Y-78094380D01*
X137123671Y-78237238D01*
X137028433Y-78332476D01*
X136933195Y-78380095D01*
X138123671Y-78094380D02*
X138218909Y-78094380D01*
X138314147Y-78142000D01*
X138361766Y-78189619D01*
X138409385Y-78284857D01*
X138457004Y-78475333D01*
X138457004Y-78713428D01*
X138409385Y-78903904D01*
X138361766Y-78999142D01*
X138314147Y-79046761D01*
X138218909Y-79094380D01*
X138123671Y-79094380D01*
X138028433Y-79046761D01*
X137980814Y-78999142D01*
X137933195Y-78903904D01*
X137885576Y-78713428D01*
X137885576Y-78475333D01*
X137933195Y-78284857D01*
X137980814Y-78189619D01*
X138028433Y-78142000D01*
X138123671Y-78094380D01*
%TO.C,R15*%
X186082242Y-117698780D02*
X185748909Y-117222590D01*
X185510814Y-117698780D02*
X185510814Y-116698780D01*
X185891766Y-116698780D01*
X185987004Y-116746400D01*
X186034623Y-116794019D01*
X186082242Y-116889257D01*
X186082242Y-117032114D01*
X186034623Y-117127352D01*
X185987004Y-117174971D01*
X185891766Y-117222590D01*
X185510814Y-117222590D01*
X187034623Y-117698780D02*
X186463195Y-117698780D01*
X186748909Y-117698780D02*
X186748909Y-116698780D01*
X186653671Y-116841638D01*
X186558433Y-116936876D01*
X186463195Y-116984495D01*
X187939385Y-116698780D02*
X187463195Y-116698780D01*
X187415576Y-117174971D01*
X187463195Y-117127352D01*
X187558433Y-117079733D01*
X187796528Y-117079733D01*
X187891766Y-117127352D01*
X187939385Y-117174971D01*
X187987004Y-117270209D01*
X187987004Y-117508304D01*
X187939385Y-117603542D01*
X187891766Y-117651161D01*
X187796528Y-117698780D01*
X187558433Y-117698780D01*
X187463195Y-117651161D01*
X187415576Y-117603542D01*
%TO.C,R6*%
X133980180Y-127035266D02*
X133503990Y-127368600D01*
X133980180Y-127606695D02*
X132980180Y-127606695D01*
X132980180Y-127225742D01*
X133027800Y-127130504D01*
X133075419Y-127082885D01*
X133170657Y-127035266D01*
X133313514Y-127035266D01*
X133408752Y-127082885D01*
X133456371Y-127130504D01*
X133503990Y-127225742D01*
X133503990Y-127606695D01*
X132980180Y-126178123D02*
X132980180Y-126368600D01*
X133027800Y-126463838D01*
X133075419Y-126511457D01*
X133218276Y-126606695D01*
X133408752Y-126654314D01*
X133789704Y-126654314D01*
X133884942Y-126606695D01*
X133932561Y-126559076D01*
X133980180Y-126463838D01*
X133980180Y-126273361D01*
X133932561Y-126178123D01*
X133884942Y-126130504D01*
X133789704Y-126082885D01*
X133551609Y-126082885D01*
X133456371Y-126130504D01*
X133408752Y-126178123D01*
X133361133Y-126273361D01*
X133361133Y-126463838D01*
X133408752Y-126559076D01*
X133456371Y-126606695D01*
X133551609Y-126654314D01*
%TO.C,R21*%
X100144342Y-128275179D02*
X99811009Y-127798989D01*
X99572914Y-128275179D02*
X99572914Y-127275179D01*
X99953866Y-127275179D01*
X100049104Y-127322799D01*
X100096723Y-127370418D01*
X100144342Y-127465656D01*
X100144342Y-127608513D01*
X100096723Y-127703751D01*
X100049104Y-127751370D01*
X99953866Y-127798989D01*
X99572914Y-127798989D01*
X100525295Y-127370418D02*
X100572914Y-127322799D01*
X100668152Y-127275179D01*
X100906247Y-127275179D01*
X101001485Y-127322799D01*
X101049104Y-127370418D01*
X101096723Y-127465656D01*
X101096723Y-127560894D01*
X101049104Y-127703751D01*
X100477676Y-128275179D01*
X101096723Y-128275179D01*
X102049104Y-128275179D02*
X101477676Y-128275179D01*
X101763390Y-128275179D02*
X101763390Y-127275179D01*
X101668152Y-127418037D01*
X101572914Y-127513275D01*
X101477676Y-127560894D01*
%TO.C,U6*%
X121599595Y-72705980D02*
X121599595Y-73515504D01*
X121647214Y-73610742D01*
X121694833Y-73658361D01*
X121790071Y-73705980D01*
X121980547Y-73705980D01*
X122075785Y-73658361D01*
X122123404Y-73610742D01*
X122171023Y-73515504D01*
X122171023Y-72705980D01*
X123075785Y-72705980D02*
X122885309Y-72705980D01*
X122790071Y-72753600D01*
X122742452Y-72801219D01*
X122647214Y-72944076D01*
X122599595Y-73134552D01*
X122599595Y-73515504D01*
X122647214Y-73610742D01*
X122694833Y-73658361D01*
X122790071Y-73705980D01*
X122980547Y-73705980D01*
X123075785Y-73658361D01*
X123123404Y-73610742D01*
X123171023Y-73515504D01*
X123171023Y-73277409D01*
X123123404Y-73182171D01*
X123075785Y-73134552D01*
X122980547Y-73086933D01*
X122790071Y-73086933D01*
X122694833Y-73134552D01*
X122647214Y-73182171D01*
X122599595Y-73277409D01*
%TO.C,C13*%
X114637541Y-125622941D02*
X114589922Y-125670560D01*
X114447065Y-125718179D01*
X114351827Y-125718179D01*
X114208970Y-125670560D01*
X114113732Y-125575322D01*
X114066113Y-125480084D01*
X114018494Y-125289608D01*
X114018494Y-125146751D01*
X114066113Y-124956275D01*
X114113732Y-124861037D01*
X114208970Y-124765799D01*
X114351827Y-124718179D01*
X114447065Y-124718179D01*
X114589922Y-124765799D01*
X114637541Y-124813418D01*
X115589922Y-125718179D02*
X115018494Y-125718179D01*
X115304208Y-125718179D02*
X115304208Y-124718179D01*
X115208970Y-124861037D01*
X115113732Y-124956275D01*
X115018494Y-125003894D01*
X115923256Y-124718179D02*
X116542303Y-124718179D01*
X116208970Y-125099132D01*
X116351827Y-125099132D01*
X116447065Y-125146751D01*
X116494684Y-125194370D01*
X116542303Y-125289608D01*
X116542303Y-125527703D01*
X116494684Y-125622941D01*
X116447065Y-125670560D01*
X116351827Y-125718179D01*
X116066113Y-125718179D01*
X115970875Y-125670560D01*
X115923256Y-125622941D01*
%TO.C,C14*%
X98974141Y-124014341D02*
X98926522Y-124061960D01*
X98783665Y-124109579D01*
X98688427Y-124109579D01*
X98545570Y-124061960D01*
X98450332Y-123966722D01*
X98402713Y-123871484D01*
X98355094Y-123681008D01*
X98355094Y-123538151D01*
X98402713Y-123347675D01*
X98450332Y-123252437D01*
X98545570Y-123157199D01*
X98688427Y-123109579D01*
X98783665Y-123109579D01*
X98926522Y-123157199D01*
X98974141Y-123204818D01*
X99926522Y-124109579D02*
X99355094Y-124109579D01*
X99640808Y-124109579D02*
X99640808Y-123109579D01*
X99545570Y-123252437D01*
X99450332Y-123347675D01*
X99355094Y-123395294D01*
X100783665Y-123442913D02*
X100783665Y-124109579D01*
X100545570Y-123061960D02*
X100307475Y-123776246D01*
X100926522Y-123776246D01*
D12*
%TO.C,RN1*%
X163268600Y-69313600D02*
X163268600Y-72113600D01*
X183758600Y-72113600D02*
X183758600Y-69313600D01*
X186468600Y-69313600D02*
X163268600Y-69313600D01*
X163268600Y-72113600D02*
X186468600Y-72113600D01*
X186468600Y-72113600D02*
X186468600Y-69313600D01*
%TO.C,SW4*%
X170600000Y-140629200D02*
X170600000Y-136129200D01*
X166600000Y-141879200D02*
X168100000Y-141879200D01*
X168100000Y-134879200D02*
X166600000Y-134879200D01*
X164100000Y-136129200D02*
X164100000Y-140629200D01*
%TO.C,R33*%
X79662564Y-69369000D02*
X79208436Y-69369000D01*
X79662564Y-70839000D02*
X79208436Y-70839000D01*
%TO.C,R39*%
X91534032Y-132157736D02*
X91534032Y-132611864D01*
X93004032Y-132157736D02*
X93004032Y-132611864D01*
%TO.C,C15*%
X110657547Y-126641799D02*
X112080051Y-126641799D01*
X110657547Y-128461799D02*
X112080051Y-128461799D01*
%TO.C,R8*%
X128678000Y-124250864D02*
X128678000Y-123796736D01*
X130148000Y-124250864D02*
X130148000Y-123796736D01*
%TO.C,R40*%
X96065100Y-132157736D02*
X96065100Y-132611864D01*
X94595100Y-132157736D02*
X94595100Y-132611864D01*
%TO.C,SW3*%
X68430700Y-72009000D02*
X68430700Y-73279000D01*
X68430700Y-75029000D02*
X69637367Y-75029000D01*
X68430700Y-72969000D02*
X69637367Y-72969000D01*
X69637367Y-74549000D02*
X69637367Y-75819000D01*
X66830700Y-67994000D02*
X66830700Y-69304000D01*
X68430700Y-77689000D02*
X69637367Y-77689000D01*
X68430700Y-69469000D02*
X68430700Y-70739000D01*
X68430700Y-74549000D02*
X68430700Y-75819000D01*
X73650700Y-70904000D02*
X73650700Y-71844000D01*
X68430700Y-75269000D02*
X69637367Y-75269000D01*
X68430700Y-78289000D02*
X69637367Y-78289000D01*
X68430700Y-72369000D02*
X69637367Y-72369000D01*
X68430700Y-78169000D02*
X69637367Y-78169000D01*
X73650700Y-75984000D02*
X73650700Y-76924000D01*
X66830700Y-75984000D02*
X66830700Y-76924000D01*
X68430700Y-70309000D02*
X69637367Y-70309000D01*
X68430700Y-69709000D02*
X69637367Y-69709000D01*
X66830700Y-67994000D02*
X73650700Y-67994000D01*
X69637367Y-77089000D02*
X69637367Y-78359000D01*
X68430700Y-75629000D02*
X69637367Y-75629000D01*
X68430700Y-75389000D02*
X69637367Y-75389000D01*
X66590700Y-67754000D02*
X67973700Y-67754000D01*
X66590700Y-67754000D02*
X66590700Y-69137000D01*
X72050700Y-72009000D02*
X68430700Y-72009000D01*
X68430700Y-72489000D02*
X69637367Y-72489000D01*
X68430700Y-74789000D02*
X69637367Y-74789000D01*
X68430700Y-77929000D02*
X69637367Y-77929000D01*
X68430700Y-75819000D02*
X72050700Y-75819000D01*
X66830700Y-79834000D02*
X73650700Y-79834000D01*
X68430700Y-70739000D02*
X72050700Y-70739000D01*
X69637367Y-69469000D02*
X69637367Y-70739000D01*
X68430700Y-73209000D02*
X69637367Y-73209000D01*
X72050700Y-78359000D02*
X72050700Y-77089000D01*
X72050700Y-74549000D02*
X68430700Y-74549000D01*
X68430700Y-70189000D02*
X69637367Y-70189000D01*
X66830700Y-73444000D02*
X66830700Y-74384000D01*
X68430700Y-75509000D02*
X69637367Y-75509000D01*
X72050700Y-70739000D02*
X72050700Y-69469000D01*
X68430700Y-69589000D02*
X69637367Y-69589000D01*
X72050700Y-73279000D02*
X72050700Y-72009000D01*
X68430700Y-69949000D02*
X69637367Y-69949000D01*
X68430700Y-78359000D02*
X72050700Y-78359000D01*
X68430700Y-70669000D02*
X69637367Y-70669000D01*
X68430700Y-72729000D02*
X69637367Y-72729000D01*
X68430700Y-77329000D02*
X69637367Y-77329000D01*
X73650700Y-73444000D02*
X73650700Y-74384000D01*
X72050700Y-75819000D02*
X72050700Y-74549000D01*
X68430700Y-77569000D02*
X69637367Y-77569000D01*
X68430700Y-77809000D02*
X69637367Y-77809000D01*
X68430700Y-69829000D02*
X69637367Y-69829000D01*
X68430700Y-72129000D02*
X69637367Y-72129000D01*
X73650700Y-78524000D02*
X73650700Y-79834000D01*
X68430700Y-73279000D02*
X72050700Y-73279000D01*
X68430700Y-72609000D02*
X69637367Y-72609000D01*
X68430700Y-75749000D02*
X69637367Y-75749000D01*
X68430700Y-78049000D02*
X69637367Y-78049000D01*
X68430700Y-77449000D02*
X69637367Y-77449000D01*
X68430700Y-70549000D02*
X69637367Y-70549000D01*
X68430700Y-74909000D02*
X69637367Y-74909000D01*
X66830700Y-78524000D02*
X66830700Y-79834000D01*
X68430700Y-77209000D02*
X69637367Y-77209000D01*
X68430700Y-72249000D02*
X69637367Y-72249000D01*
X68430700Y-77089000D02*
X68430700Y-78359000D01*
X66830700Y-70904000D02*
X66830700Y-71844000D01*
X69637367Y-72009000D02*
X69637367Y-73279000D01*
X72050700Y-77089000D02*
X68430700Y-77089000D01*
X68430700Y-73089000D02*
X69637367Y-73089000D01*
X73650700Y-67994000D02*
X73650700Y-69304000D01*
X68430700Y-75149000D02*
X69637367Y-75149000D01*
X72050700Y-69469000D02*
X68430700Y-69469000D01*
X68430700Y-70069000D02*
X69637367Y-70069000D01*
X68430700Y-72849000D02*
X69637367Y-72849000D01*
X68430700Y-74669000D02*
X69637367Y-74669000D01*
X68430700Y-70429000D02*
X69637367Y-70429000D01*
%TO.C,R29*%
X91771736Y-95781800D02*
X92225864Y-95781800D01*
X91771736Y-94311800D02*
X92225864Y-94311800D01*
%TO.C,D3*%
X90137666Y-141677600D02*
X90137666Y-138817600D01*
X88217666Y-138817600D02*
X88217666Y-141677600D01*
X88217666Y-141677600D02*
X90137666Y-141677600D01*
%TO.C,C16*%
X134143602Y-108075400D02*
X133621098Y-108075400D01*
X134143602Y-106605400D02*
X133621098Y-106605400D01*
%TO.C,R10*%
X124512400Y-124250864D02*
X124512400Y-123796736D01*
X125982400Y-124250864D02*
X125982400Y-123796736D01*
%TO.C,R35*%
X79764164Y-75919000D02*
X79310036Y-75919000D01*
X79764164Y-74449000D02*
X79310036Y-74449000D01*
%TO.C,D2*%
X85186600Y-138817600D02*
X85186600Y-141677600D01*
X87106600Y-141677600D02*
X87106600Y-138817600D01*
X85186600Y-141677600D02*
X87106600Y-141677600D01*
%TO.C,R7*%
X130760800Y-124250864D02*
X130760800Y-123796736D01*
X132230800Y-124250864D02*
X132230800Y-123796736D01*
%TO.C,R14*%
X170305400Y-130278136D02*
X170305400Y-130732264D01*
X168835400Y-130278136D02*
X168835400Y-130732264D01*
%TO.C,R16*%
X183196036Y-121702500D02*
X183650164Y-121702500D01*
X183196036Y-120232500D02*
X183650164Y-120232500D01*
%TO.C,C12*%
X104290651Y-122077999D02*
X102868147Y-122077999D01*
X104290651Y-120257999D02*
X102868147Y-120257999D01*
%TO.C,C6*%
X126595200Y-119825548D02*
X126595200Y-120348052D01*
X128065200Y-119825548D02*
X128065200Y-120348052D01*
%TO.C,R34*%
X79713364Y-71909000D02*
X79259236Y-71909000D01*
X79713364Y-73379000D02*
X79259236Y-73379000D01*
%TO.C,R2*%
X76528664Y-125855400D02*
X76074536Y-125855400D01*
X76528664Y-124385400D02*
X76074536Y-124385400D01*
%TO.C,C4*%
X132230800Y-119825548D02*
X132230800Y-120348052D01*
X130760800Y-119825548D02*
X130760800Y-120348052D01*
%TO.C,R31*%
X153798600Y-130689464D02*
X153798600Y-130235336D01*
X155268600Y-130689464D02*
X155268600Y-130235336D01*
%TO.C,C3*%
X134313600Y-119825548D02*
X134313600Y-120348052D01*
X132843600Y-119825548D02*
X132843600Y-120348052D01*
%TO.C,C7*%
X125982400Y-119825548D02*
X125982400Y-120348052D01*
X124512400Y-119825548D02*
X124512400Y-120348052D01*
%TO.C,C1*%
X138479200Y-119825548D02*
X138479200Y-120348052D01*
X137009200Y-119825548D02*
X137009200Y-120348052D01*
%TO.C,SW2*%
X174727350Y-136129200D02*
X174727350Y-140629200D01*
X178727350Y-134879200D02*
X177227350Y-134879200D01*
X181227350Y-140629200D02*
X181227350Y-136129200D01*
X177227350Y-141879200D02*
X178727350Y-141879200D01*
%TO.C,J2*%
X143083700Y-51552800D02*
X194003700Y-51552800D01*
X145683700Y-56752800D02*
X194003700Y-56752800D01*
X145683700Y-54152800D02*
X143083700Y-54152800D01*
X194003700Y-56752800D02*
X194003700Y-51552800D01*
X144413700Y-56752800D02*
X143083700Y-56752800D01*
X145683700Y-56752800D02*
X145683700Y-54152800D01*
X143083700Y-56752800D02*
X143083700Y-55422800D01*
X143083700Y-54152800D02*
X143083700Y-51552800D01*
%TO.C,J10*%
X111393899Y-146811199D02*
X109493899Y-146811199D01*
X108523899Y-132571199D02*
X111393899Y-132571199D01*
X111393899Y-132571199D02*
X111393899Y-146811199D01*
X103253899Y-146811199D02*
X102953899Y-146811199D01*
X109493899Y-150811199D02*
X103253899Y-150811199D01*
X109493899Y-146811199D02*
X109493899Y-150811199D01*
X102953899Y-132571199D02*
X106273899Y-132571199D01*
X103253899Y-150811199D02*
X103253899Y-146811199D01*
X102953899Y-146811199D02*
X102953899Y-132571199D01*
%TO.C,C19*%
X123638752Y-77697000D02*
X123116248Y-77697000D01*
X123638752Y-76227000D02*
X123116248Y-76227000D01*
%TO.C,C8*%
X123899600Y-119825548D02*
X123899600Y-120348052D01*
X122429600Y-119825548D02*
X122429600Y-120348052D01*
%TO.C,C23*%
X125240148Y-131226300D02*
X125762652Y-131226300D01*
X125240148Y-132696300D02*
X125762652Y-132696300D01*
%TO.C,Q3*%
X114488400Y-98856800D02*
X114488400Y-99506800D01*
X114488400Y-98856800D02*
X114488400Y-97181800D01*
X111368400Y-98856800D02*
X111368400Y-98206800D01*
X111368400Y-98856800D02*
X111368400Y-99506800D01*
%TO.C,J7*%
X121549000Y-144568600D02*
X121549000Y-146668600D01*
X122459000Y-135518600D02*
X124259000Y-135518600D01*
X121549000Y-139068600D02*
X121549000Y-141868600D01*
X136769000Y-139068600D02*
X136769000Y-141868600D01*
X134059000Y-135518600D02*
X135859000Y-135518600D01*
X134059000Y-134768600D02*
X134059000Y-135518600D01*
X136769000Y-144568600D02*
X136769000Y-146668600D01*
D10*
%TO.C,J9*%
X206270000Y-125813200D02*
X191570000Y-125813200D01*
X206270000Y-110813200D02*
X206270000Y-125813200D01*
X191570000Y-125813200D02*
X191570000Y-110813200D01*
X191570000Y-110813200D02*
X206270000Y-110813200D01*
X202070000Y-115263200D02*
G75*
G03*
X202070000Y-115263200I-500000J0D01*
G01*
X202070000Y-123243200D02*
G75*
G03*
X202070000Y-123243200I-500000J0D01*
G01*
D12*
%TO.C,C9*%
X188291800Y-130142348D02*
X188291800Y-130664852D01*
X189761800Y-130142348D02*
X189761800Y-130664852D01*
%TO.C,R36*%
X79764164Y-76989000D02*
X79310036Y-76989000D01*
X79764164Y-78459000D02*
X79310036Y-78459000D01*
%TO.C,J8*%
X174585166Y-121622600D02*
X174585166Y-113942600D01*
X173255166Y-124222600D02*
X171925166Y-124222600D01*
X174585166Y-121622600D02*
X171925166Y-121622600D01*
X171925166Y-124222600D02*
X171925166Y-122892600D01*
X171925166Y-121622600D02*
X171925166Y-113942600D01*
X174585166Y-113942600D02*
X171925166Y-113942600D01*
%TO.C,R17*%
X183196036Y-115949400D02*
X183650164Y-115949400D01*
X183196036Y-114479400D02*
X183650164Y-114479400D01*
%TO.C,R26*%
X91771736Y-98477400D02*
X92225864Y-98477400D01*
X91771736Y-99947400D02*
X92225864Y-99947400D01*
%TO.C,Q4*%
X111368400Y-103276400D02*
X111368400Y-102626400D01*
X111368400Y-103276400D02*
X111368400Y-103926400D01*
X114488400Y-103276400D02*
X114488400Y-101601400D01*
X114488400Y-103276400D02*
X114488400Y-103926400D01*
%TO.C,SW1*%
X189354700Y-134879200D02*
X187854700Y-134879200D01*
X187854700Y-141879200D02*
X189354700Y-141879200D01*
X191854700Y-140629200D02*
X191854700Y-136129200D01*
X185354700Y-136129200D02*
X185354700Y-140629200D01*
%TO.C,G1*%
G36*
X164152160Y-112410046D02*
G01*
X164243684Y-112699783D01*
X164248369Y-112814565D01*
X164203211Y-113162436D01*
X164061962Y-113279816D01*
X164053571Y-113280010D01*
X163817235Y-113168266D01*
X163672372Y-112912437D01*
X163672118Y-112631628D01*
X163723486Y-112540096D01*
X163968077Y-112351230D01*
X164152160Y-112410046D01*
G37*
G36*
X164324998Y-99384737D02*
G01*
X164097248Y-99359577D01*
X163705056Y-99176159D01*
X163349179Y-98839532D01*
X163108747Y-98439750D01*
X163051510Y-98169486D01*
X163075294Y-98057213D01*
X163659583Y-98057213D01*
X163742876Y-98298677D01*
X163981208Y-98495555D01*
X164319441Y-98616216D01*
X164702438Y-98629026D01*
X165040130Y-98522042D01*
X165271536Y-98274047D01*
X165283429Y-97957100D01*
X165152662Y-97747445D01*
X164874931Y-97622282D01*
X164472983Y-97593662D01*
X164068453Y-97656658D01*
X163786465Y-97802797D01*
X163659583Y-98057213D01*
X163075294Y-98057213D01*
X163165983Y-97629107D01*
X163471377Y-97207083D01*
X163910655Y-96925561D01*
X164426781Y-96806686D01*
X164962716Y-96872605D01*
X165461425Y-97145465D01*
X165530789Y-97206826D01*
X165762737Y-97586083D01*
X165849029Y-98082317D01*
X165782438Y-98585399D01*
X165640783Y-98882949D01*
X165318272Y-99150132D01*
X164843666Y-99328515D01*
X164702438Y-99343824D01*
X164324998Y-99384737D01*
G37*
G36*
X164980663Y-105508423D02*
G01*
X165253429Y-105726344D01*
X165312243Y-105965874D01*
X165223521Y-106245105D01*
X165152662Y-106338230D01*
X164867119Y-106478330D01*
X164482693Y-106496935D01*
X164084860Y-106414329D01*
X163759096Y-106250792D01*
X163590879Y-106026609D01*
X163583447Y-105965874D01*
X163702759Y-105723858D01*
X164006023Y-105531642D01*
X164411231Y-105436966D01*
X164497239Y-105433937D01*
X164980663Y-105508423D01*
G37*
G36*
X165315051Y-101690424D02*
G01*
X165641103Y-102021049D01*
X165815803Y-102556565D01*
X165844180Y-102962072D01*
X165799120Y-103473592D01*
X165679999Y-103868218D01*
X165637163Y-103941520D01*
X165395924Y-104147064D01*
X165093857Y-104241930D01*
X164819054Y-104220678D01*
X164659609Y-104077870D01*
X164647321Y-104002644D01*
X164757078Y-103773385D01*
X164946536Y-103636937D01*
X165182316Y-103429587D01*
X165292541Y-103121265D01*
X165289065Y-102784413D01*
X165183740Y-102491473D01*
X164988420Y-102314886D01*
X164731150Y-102320555D01*
X164566450Y-102486076D01*
X164381395Y-102818807D01*
X164282096Y-103063923D01*
X164024940Y-103661589D01*
X163740367Y-104030427D01*
X163391466Y-104207409D01*
X163110867Y-104237078D01*
X162759806Y-104189252D01*
X162516861Y-103998144D01*
X162385131Y-103804879D01*
X162154496Y-103182380D01*
X162172348Y-102509294D01*
X162335249Y-102029689D01*
X162533239Y-101713235D01*
X162774845Y-101589055D01*
X162933678Y-101577393D01*
X163211753Y-101616615D01*
X163310255Y-101780833D01*
X163317478Y-101909853D01*
X163252067Y-102173809D01*
X163067013Y-102242314D01*
X162857985Y-102356919D01*
X162739257Y-102644964D01*
X162733001Y-103022792D01*
X162795622Y-103266211D01*
X162974671Y-103541180D01*
X163190300Y-103570305D01*
X163419112Y-103366862D01*
X163637709Y-102944125D01*
X163706671Y-102749314D01*
X163991894Y-102109530D01*
X164356654Y-101720580D01*
X164805047Y-101578253D01*
X164846798Y-101577393D01*
X165315051Y-101690424D01*
G37*
G36*
X163521246Y-94047230D02*
G01*
X163236904Y-93704088D01*
X163081335Y-93169485D01*
X163102529Y-93023797D01*
X163685982Y-93023797D01*
X163727033Y-93301177D01*
X163792686Y-93389623D01*
X164042372Y-93575853D01*
X164190045Y-93521482D01*
X164246906Y-93220198D01*
X164248369Y-93132890D01*
X164203211Y-92785019D01*
X164061962Y-92667640D01*
X164053571Y-92667445D01*
X163808320Y-92775206D01*
X163685982Y-93023797D01*
X163102529Y-93023797D01*
X163152484Y-92680395D01*
X163419933Y-92289926D01*
X163853265Y-92051185D01*
X164211466Y-92002523D01*
X164647321Y-92002523D01*
X164647321Y-92800429D01*
X164665506Y-93276251D01*
X164726254Y-93528650D01*
X164830515Y-93598335D01*
X165110750Y-93483973D01*
X165263253Y-93170827D01*
X165266845Y-92703804D01*
X165263295Y-92680698D01*
X165234482Y-92311515D01*
X165310869Y-92126454D01*
X165377369Y-92087941D01*
X165591860Y-92113810D01*
X165745403Y-92334307D01*
X165832393Y-92683910D01*
X165847224Y-93097102D01*
X165784291Y-93508361D01*
X165637986Y-93852167D01*
X165538572Y-93972061D01*
X165069343Y-94259275D01*
X164526385Y-94361681D01*
X164042372Y-94295848D01*
X163985190Y-94288070D01*
X163521246Y-94047230D01*
G37*
G36*
X163522781Y-115495531D02*
G01*
X163763917Y-115767119D01*
X163849416Y-116164590D01*
X163816395Y-116362071D01*
X163668535Y-116450534D01*
X163332640Y-116471603D01*
X163309451Y-116471633D01*
X162769486Y-116471633D01*
X162810760Y-115972942D01*
X162869711Y-115631376D01*
X163006879Y-115473272D01*
X163177043Y-115428376D01*
X163522781Y-115495531D01*
G37*
G36*
X165763006Y-99635984D02*
G01*
X165836391Y-99843061D01*
X165844180Y-100038574D01*
X165785296Y-100413918D01*
X165642832Y-100695567D01*
X165635205Y-100703496D01*
X165400686Y-100831063D01*
X164987949Y-100897507D01*
X164504838Y-100912471D01*
X164006724Y-100923394D01*
X163722402Y-100963969D01*
X163600302Y-101045906D01*
X163583447Y-101121698D01*
X163487161Y-101278362D01*
X163350725Y-101280031D01*
X163170278Y-101164227D01*
X163151248Y-101070803D01*
X163064706Y-100951287D01*
X162852033Y-100912471D01*
X162614433Y-100869533D01*
X162527512Y-100687007D01*
X162519573Y-100513518D01*
X162554580Y-100229153D01*
X162707022Y-100124843D01*
X162866261Y-100114565D01*
X163113346Y-100072391D01*
X163141192Y-99928257D01*
X163136404Y-99915089D01*
X163153292Y-99760413D01*
X163383971Y-99715612D01*
X163617285Y-99762537D01*
X163631538Y-99915089D01*
X163633111Y-100023402D01*
X163773899Y-100084680D01*
X164101681Y-100110805D01*
X164433617Y-100114565D01*
X164906057Y-100106536D01*
X165171074Y-100070674D01*
X165287016Y-99989314D01*
X165312243Y-99848597D01*
X165406277Y-99626339D01*
X165578211Y-99582628D01*
X165763006Y-99635984D01*
G37*
G36*
X161056746Y-91470586D02*
G01*
X167041039Y-91470586D01*
X167041039Y-118333413D01*
X161056746Y-118333413D01*
X161056746Y-104902000D01*
X161455698Y-104902000D01*
X161457053Y-107356570D01*
X161461104Y-109559546D01*
X161467837Y-111509332D01*
X161477235Y-113204331D01*
X161489282Y-114642949D01*
X161503961Y-115823589D01*
X161521257Y-116744656D01*
X161541152Y-117404554D01*
X161563631Y-117801687D01*
X161588677Y-117934461D01*
X161588683Y-117934461D01*
X161622314Y-117802196D01*
X161651199Y-117408197D01*
X161675253Y-116756660D01*
X161675565Y-116741900D01*
X162242321Y-116741900D01*
X162275286Y-117195551D01*
X162342043Y-117526606D01*
X162442510Y-117667456D01*
X162453081Y-117668492D01*
X162629387Y-117562042D01*
X162652557Y-117469016D01*
X162773562Y-117369502D01*
X163091956Y-117299566D01*
X163540813Y-117259208D01*
X164053201Y-117248428D01*
X164562194Y-117267225D01*
X165000863Y-117315601D01*
X165302277Y-117393554D01*
X165397137Y-117469016D01*
X165564576Y-117645755D01*
X165658931Y-117668492D01*
X165768942Y-117592031D01*
X165827430Y-117334589D01*
X165844180Y-116870586D01*
X165826428Y-116396748D01*
X165766658Y-116144826D01*
X165658931Y-116072681D01*
X165453635Y-116179949D01*
X165397137Y-116272157D01*
X165203842Y-116423106D01*
X164842944Y-116471633D01*
X164531546Y-116456339D01*
X164406055Y-116357840D01*
X164396996Y-116097212D01*
X164406571Y-115975906D01*
X164450526Y-115666560D01*
X164566042Y-115504857D01*
X164830379Y-115417771D01*
X165036630Y-115380382D01*
X165499221Y-115258737D01*
X165749313Y-115060824D01*
X165838818Y-114739130D01*
X165842144Y-114643099D01*
X165756204Y-114408330D01*
X165565237Y-114341805D01*
X165378735Y-114476869D01*
X165194547Y-114581598D01*
X164986666Y-114609853D01*
X164654621Y-114692552D01*
X164540767Y-114758975D01*
X164368552Y-114859447D01*
X164143165Y-115020566D01*
X163973398Y-115022798D01*
X163729599Y-114864517D01*
X163711593Y-114851217D01*
X163275950Y-114673684D01*
X162836525Y-114735302D01*
X162471931Y-115023461D01*
X162449978Y-115053591D01*
X162346976Y-115321501D01*
X162278086Y-115737263D01*
X162243227Y-116233267D01*
X162242321Y-116741900D01*
X161675565Y-116741900D01*
X161694394Y-115851777D01*
X161708539Y-114697742D01*
X161717604Y-113298751D01*
X161718213Y-113042942D01*
X163121633Y-113042942D01*
X163224658Y-113347453D01*
X163544777Y-113738516D01*
X164009347Y-113975177D01*
X164540767Y-114049434D01*
X165061435Y-113953283D01*
X165493751Y-113678721D01*
X165572449Y-113589592D01*
X165767372Y-113174769D01*
X165848206Y-112646141D01*
X165798619Y-112137254D01*
X165763460Y-112027536D01*
X165577629Y-111847091D01*
X165443654Y-111817183D01*
X165294184Y-111857700D01*
X165247339Y-112025203D01*
X165275744Y-112347848D01*
X165269603Y-112829223D01*
X165119008Y-113154497D01*
X164844923Y-113279778D01*
X164830515Y-113280010D01*
X164721269Y-113200805D01*
X164663321Y-112936217D01*
X164647321Y-112482105D01*
X164647321Y-111684199D01*
X164206952Y-111684199D01*
X163702461Y-111798088D01*
X163383971Y-112057639D01*
X163330600Y-112101133D01*
X163125585Y-112535396D01*
X163121633Y-113042942D01*
X161718213Y-113042942D01*
X161721508Y-111658997D01*
X161721667Y-111218754D01*
X161721667Y-110620324D01*
X162519573Y-110620324D01*
X162555355Y-110905445D01*
X162707459Y-111009750D01*
X162852033Y-111019277D01*
X163119424Y-111088640D01*
X163184494Y-111218754D01*
X163290944Y-111395060D01*
X163383971Y-111418230D01*
X163560449Y-111319489D01*
X163583447Y-111233761D01*
X163668056Y-111123420D01*
X163945283Y-111048655D01*
X164450229Y-111000402D01*
X164498026Y-110997613D01*
X165128436Y-110930877D01*
X165535830Y-110799009D01*
X165760192Y-110576493D01*
X165841506Y-110237816D01*
X165844180Y-110138596D01*
X165812016Y-109824686D01*
X165687726Y-109701506D01*
X165578211Y-109689434D01*
X165355954Y-109783469D01*
X165312243Y-109955403D01*
X165285302Y-110099341D01*
X165165300Y-110179590D01*
X164893467Y-110214233D01*
X164447845Y-110221372D01*
X163962991Y-110208054D01*
X163693508Y-110160469D01*
X163589777Y-110067166D01*
X163583447Y-110021895D01*
X163476998Y-109845589D01*
X163383971Y-109822419D01*
X163207664Y-109928868D01*
X163184494Y-110021895D01*
X163068891Y-110182329D01*
X162852033Y-110221372D01*
X162614433Y-110264310D01*
X162527512Y-110446836D01*
X162519573Y-110620324D01*
X161721667Y-110620324D01*
X161721667Y-107491636D01*
X163077231Y-107491636D01*
X163077370Y-107653145D01*
X163193363Y-107932118D01*
X163214052Y-107969224D01*
X163330392Y-108227606D01*
X163325750Y-108356351D01*
X163311293Y-108359592D01*
X163231887Y-108477584D01*
X163187725Y-108772339D01*
X163184494Y-108891529D01*
X163217433Y-109261401D01*
X163326623Y-109413812D01*
X163383971Y-109423466D01*
X163560277Y-109317016D01*
X163583447Y-109223989D01*
X163641541Y-109111659D01*
X163848949Y-109049461D01*
X164255359Y-109025824D01*
X164439997Y-109024513D01*
X164893954Y-109043723D01*
X165234282Y-109093861D01*
X165378735Y-109157497D01*
X165571147Y-109279860D01*
X165652552Y-109290482D01*
X165774663Y-109210539D01*
X165833672Y-108941582D01*
X165844180Y-108625560D01*
X165821141Y-108201852D01*
X165743628Y-107997100D01*
X165652552Y-107960639D01*
X165426140Y-108041686D01*
X165378735Y-108093623D01*
X165209852Y-108167711D01*
X164863637Y-108215988D01*
X164575515Y-108226607D01*
X164452023Y-108223151D01*
X164153937Y-108214810D01*
X163924534Y-108159442D01*
X163813857Y-108030542D01*
X163772237Y-107898912D01*
X163622661Y-107640411D01*
X163381493Y-107471359D01*
X163146076Y-107448800D01*
X163077231Y-107491636D01*
X161721667Y-107491636D01*
X161721667Y-105824994D01*
X163102071Y-105824994D01*
X163137562Y-106364323D01*
X163184268Y-106497264D01*
X163478413Y-106891974D01*
X163926589Y-107144777D01*
X164452023Y-107245938D01*
X164977943Y-107185723D01*
X165427576Y-106954398D01*
X165577684Y-106800738D01*
X165786793Y-106352474D01*
X165834365Y-105822188D01*
X165715570Y-105332227D01*
X165640783Y-105202727D01*
X165309670Y-104927949D01*
X164827587Y-104754965D01*
X164300657Y-104717431D01*
X164165155Y-104734762D01*
X163651744Y-104945749D01*
X163285424Y-105330648D01*
X163102071Y-105824994D01*
X161721667Y-105824994D01*
X161721667Y-104503047D01*
X166376117Y-104503047D01*
X166376117Y-111218754D01*
X166378736Y-112917151D01*
X166386538Y-114375818D01*
X166399440Y-115590561D01*
X166417358Y-116557186D01*
X166440211Y-117271498D01*
X166467913Y-117729304D01*
X166500384Y-117926409D01*
X166509102Y-117934461D01*
X166534148Y-117801748D01*
X166556628Y-117404676D01*
X166576523Y-116744838D01*
X166593819Y-115823831D01*
X166608499Y-114643250D01*
X166620546Y-113204692D01*
X166629945Y-111509751D01*
X166636679Y-109560024D01*
X166640731Y-107357106D01*
X166642086Y-104902593D01*
X166642086Y-91869539D01*
X161455698Y-91869539D01*
X161455698Y-104902000D01*
X161056746Y-104902000D01*
X161056746Y-91470586D01*
G37*
G36*
X163586211Y-94650990D02*
G01*
X163736358Y-94928178D01*
X163837743Y-95161028D01*
X163984746Y-95279577D01*
X164258272Y-95322100D01*
X164579611Y-95327131D01*
X165050299Y-95298935D01*
X165301451Y-95207343D01*
X165360334Y-95127654D01*
X165538057Y-94950748D01*
X165640530Y-94928178D01*
X165762686Y-94990137D01*
X165825735Y-95210700D01*
X165844165Y-95641893D01*
X165844180Y-95659592D01*
X165832636Y-96082274D01*
X165782723Y-96302468D01*
X165671521Y-96383204D01*
X165578211Y-96391005D01*
X165362116Y-96335315D01*
X165312243Y-96258021D01*
X165190111Y-96188529D01*
X164866578Y-96140950D01*
X164447845Y-96125037D01*
X163967787Y-96137239D01*
X163700450Y-96182316D01*
X163593354Y-96272970D01*
X163583447Y-96334264D01*
X163483742Y-96494044D01*
X163361750Y-96500494D01*
X163197945Y-96370102D01*
X163140701Y-96036548D01*
X163140110Y-95981969D01*
X163161014Y-95628576D01*
X163212066Y-95392477D01*
X163220048Y-95377191D01*
X163227451Y-95166639D01*
X163177756Y-95054813D01*
X163059296Y-94747239D01*
X163153412Y-94565265D01*
X163324396Y-94529225D01*
X163586211Y-94650990D01*
G37*
%TO.C,R32*%
X152728600Y-130689464D02*
X152728600Y-130235336D01*
X151258600Y-130689464D02*
X151258600Y-130235336D01*
%TO.C,J5*%
X70592000Y-112141400D02*
X67992000Y-112141400D01*
X67992000Y-114741400D02*
X67992000Y-113411400D01*
X73192000Y-99381400D02*
X67992000Y-99381400D01*
X70592000Y-114741400D02*
X70592000Y-112141400D01*
X73192000Y-114741400D02*
X73192000Y-99381400D01*
X73192000Y-114741400D02*
X70592000Y-114741400D01*
X67992000Y-112141400D02*
X67992000Y-99381400D01*
X69322000Y-114741400D02*
X67992000Y-114741400D01*
%TO.C,R18*%
X183196036Y-113815800D02*
X183650164Y-113815800D01*
X183196036Y-112345800D02*
X183650164Y-112345800D01*
%TO.C,R19*%
X183211736Y-122404200D02*
X183665864Y-122404200D01*
X183211736Y-123874200D02*
X183665864Y-123874200D01*
%TO.C,R1*%
X76528664Y-128703400D02*
X76074536Y-128703400D01*
X76528664Y-130173400D02*
X76074536Y-130173400D01*
%TO.C,U3*%
X148880700Y-73253600D02*
X148880700Y-76013600D01*
X148880700Y-70493600D02*
X148605700Y-70493600D01*
X141460700Y-73253600D02*
X141460700Y-70493600D01*
X141460700Y-73253600D02*
X141460700Y-76013600D01*
X148605700Y-70493600D02*
X148605700Y-68803600D01*
X148880700Y-73253600D02*
X148880700Y-70493600D01*
X141460700Y-76013600D02*
X141735700Y-76013600D01*
X148880700Y-76013600D02*
X148605700Y-76013600D01*
X141460700Y-70493600D02*
X141735700Y-70493600D01*
%TO.C,D4*%
X91248732Y-138817600D02*
X91248732Y-141677600D01*
X91248732Y-141677600D02*
X93168732Y-141677600D01*
X93168732Y-141677600D02*
X93168732Y-138817600D01*
%TO.C,U4*%
X124025550Y-106392000D02*
X124300550Y-106392000D01*
X131445550Y-106392000D02*
X131170550Y-106392000D01*
X124025550Y-103632000D02*
X124025550Y-106392000D01*
X131445550Y-103632000D02*
X131445550Y-100872000D01*
X131445550Y-103632000D02*
X131445550Y-106392000D01*
X124025550Y-100872000D02*
X124300550Y-100872000D01*
X131170550Y-100872000D02*
X131170550Y-99182000D01*
X131445550Y-100872000D02*
X131170550Y-100872000D01*
X124025550Y-103632000D02*
X124025550Y-100872000D01*
D13*
%TO.C,U1*%
X200055900Y-82490800D02*
X200055900Y-100490800D01*
D10*
X200110900Y-100507800D02*
X206079900Y-100507800D01*
D13*
X174525900Y-100490800D02*
X174525900Y-82490800D01*
D10*
X200110900Y-82473800D02*
X206079900Y-82473800D01*
X206079900Y-100507800D02*
X206079900Y-82473800D01*
D13*
X200055900Y-100490800D02*
X174525900Y-100490800D01*
X174525900Y-82490800D02*
X200055900Y-82490800D01*
D12*
%TO.C,C21*%
X140841400Y-124285052D02*
X140841400Y-123762548D01*
X139371400Y-124285052D02*
X139371400Y-123762548D01*
%TO.C,R30*%
X180906900Y-130227336D02*
X180906900Y-130681464D01*
X179436900Y-130227336D02*
X179436900Y-130681464D01*
%TO.C,R24*%
X112256263Y-123917999D02*
X111802135Y-123917999D01*
X112256263Y-122447999D02*
X111802135Y-122447999D01*
%TO.C,Q5*%
X111368400Y-107696000D02*
X111368400Y-107046000D01*
X114488400Y-107696000D02*
X114488400Y-106021000D01*
X114488400Y-107696000D02*
X114488400Y-108346000D01*
X111368400Y-107696000D02*
X111368400Y-108346000D01*
%TO.C,C5*%
X128678000Y-119825548D02*
X128678000Y-120348052D01*
X130148000Y-119825548D02*
X130148000Y-120348052D01*
%TO.C,R12*%
X185701000Y-130227336D02*
X185701000Y-130681464D01*
X187171000Y-130227336D02*
X187171000Y-130681464D01*
%TO.C,R22*%
X104367064Y-126576599D02*
X103912936Y-126576599D01*
X104367064Y-125106599D02*
X103912936Y-125106599D01*
D10*
%TO.C,J12*%
X202924000Y-64780000D02*
X201124000Y-64780000D01*
X201124000Y-64780000D02*
X201124000Y-65380000D01*
X201124000Y-72380000D02*
X201124000Y-71780000D01*
X200624000Y-69580000D02*
X200624000Y-70280000D01*
X202724000Y-72380000D02*
X201124000Y-72380000D01*
X200624000Y-70280000D02*
X201124000Y-70280000D01*
D12*
%TO.C,C11*%
X151273952Y-76227000D02*
X150751448Y-76227000D01*
X151273952Y-77697000D02*
X150751448Y-77697000D01*
%TO.C,R25*%
X111850436Y-120232500D02*
X112304564Y-120232500D01*
X111850436Y-121702500D02*
X112304564Y-121702500D01*
%TO.C,R28*%
X91771736Y-97864600D02*
X92225864Y-97864600D01*
X91771736Y-96394600D02*
X92225864Y-96394600D01*
%TO.C,R23*%
X112256263Y-118010000D02*
X111802135Y-118010000D01*
X112256263Y-119480000D02*
X111802135Y-119480000D01*
%TO.C,R4*%
X138479200Y-124250864D02*
X138479200Y-123796736D01*
X137009200Y-124250864D02*
X137009200Y-123796736D01*
%TO.C,C24*%
X198721152Y-77493800D02*
X198198648Y-77493800D01*
X198721152Y-76023800D02*
X198198648Y-76023800D01*
%TO.C,R38*%
X88472966Y-132157736D02*
X88472966Y-132611864D01*
X89942966Y-132157736D02*
X89942966Y-132611864D01*
%TO.C,U2*%
X127643100Y-73253600D02*
X127643100Y-76013600D01*
X127643100Y-70493600D02*
X127918100Y-70493600D01*
X135063100Y-73253600D02*
X135063100Y-70493600D01*
X135063100Y-76013600D02*
X134788100Y-76013600D01*
X135063100Y-70493600D02*
X134788100Y-70493600D01*
X134788100Y-70493600D02*
X134788100Y-68803600D01*
X127643100Y-76013600D02*
X127918100Y-76013600D01*
X135063100Y-73253600D02*
X135063100Y-76013600D01*
X127643100Y-73253600D02*
X127643100Y-70493600D01*
%TO.C,C2*%
X136396400Y-119825548D02*
X136396400Y-120348052D01*
X134926400Y-119825548D02*
X134926400Y-120348052D01*
%TO.C,D1*%
X67998200Y-129811000D02*
X68463200Y-129811000D01*
X70623200Y-129811000D02*
X71088200Y-129811000D01*
X70623200Y-129505684D02*
G75*
G03*
X70623629Y-124996521I-1080000J2254684D01*
G01*
X68462771Y-124996521D02*
G75*
G03*
X68463200Y-129505684I1080429J-2254479D01*
G01*
X68462373Y-124463185D02*
G75*
G03*
X67998370Y-129811000I1080827J-2787815D01*
G01*
X71088030Y-129811000D02*
G75*
G03*
X70624027Y-124463185I-1544830J2560000D01*
G01*
D10*
%TO.C,J11*%
X143809500Y-134232700D02*
X143809500Y-146732700D01*
X157809500Y-144832700D02*
X143809500Y-144832700D01*
X143809500Y-146732700D02*
X157809500Y-146732700D01*
X157809500Y-146732700D02*
X157809500Y-134232700D01*
X157809500Y-134232700D02*
X143809500Y-134232700D01*
%TO.C,Conn1*%
X153340300Y-91922900D02*
X153340300Y-109422900D01*
X153240300Y-82922900D02*
X152240300Y-82922900D01*
X152240300Y-82922900D02*
X150240300Y-82922900D01*
X153340300Y-82922900D02*
X153340300Y-91922900D01*
X82340300Y-91922900D02*
X82340300Y-82922900D01*
X83340300Y-82922900D02*
X85340300Y-82922900D01*
X82340300Y-91922900D02*
X82340300Y-109422900D01*
X82340300Y-82922900D02*
X83340300Y-82922900D01*
D12*
%TO.C,R37*%
X86881900Y-132157736D02*
X86881900Y-132611864D01*
X85411900Y-132157736D02*
X85411900Y-132611864D01*
%TO.C,R5*%
X136396400Y-124250864D02*
X136396400Y-123796736D01*
X134926400Y-124250864D02*
X134926400Y-123796736D01*
%TO.C,R3*%
X76528664Y-127989000D02*
X76074536Y-127989000D01*
X76528664Y-126519000D02*
X76074536Y-126519000D01*
%TO.C,J1*%
X73237900Y-56752800D02*
X71907900Y-56752800D01*
X135527900Y-56752800D02*
X135527900Y-51552800D01*
X71907900Y-56752800D02*
X71907900Y-55422800D01*
X71907900Y-54152800D02*
X71907900Y-51552800D01*
X74507900Y-54152800D02*
X71907900Y-54152800D01*
X71907900Y-51552800D02*
X135527900Y-51552800D01*
X74507900Y-56752800D02*
X135527900Y-56752800D01*
X74507900Y-56752800D02*
X74507900Y-54152800D01*
%TO.C,D5*%
X96199800Y-141677600D02*
X96199800Y-138817600D01*
X94279800Y-141677600D02*
X96199800Y-141677600D01*
X94279800Y-138817600D02*
X94279800Y-141677600D01*
%TO.C,R11*%
X122429600Y-124250864D02*
X122429600Y-123796736D01*
X123899600Y-124250864D02*
X123899600Y-123796736D01*
%TO.C,R9*%
X128065200Y-124250864D02*
X128065200Y-123796736D01*
X126595200Y-124250864D02*
X126595200Y-123796736D01*
%TO.C,C18*%
X106280852Y-110567800D02*
X105758348Y-110567800D01*
X106280852Y-112037800D02*
X105758348Y-112037800D01*
%TO.C,U5*%
X107748400Y-105410000D02*
X107748400Y-108170000D01*
X107748400Y-108170000D02*
X107473400Y-108170000D01*
X107473400Y-102650000D02*
X107473400Y-100960000D01*
X100328400Y-108170000D02*
X100603400Y-108170000D01*
X107748400Y-105410000D02*
X107748400Y-102650000D01*
X100328400Y-105410000D02*
X100328400Y-108170000D01*
X100328400Y-105410000D02*
X100328400Y-102650000D01*
X107748400Y-102650000D02*
X107473400Y-102650000D01*
X100328400Y-102650000D02*
X100603400Y-102650000D01*
%TO.C,C10*%
X137456352Y-76227000D02*
X136933848Y-76227000D01*
X137456352Y-77697000D02*
X136933848Y-77697000D01*
%TO.C,R15*%
X183196036Y-116613000D02*
X183650164Y-116613000D01*
X183196036Y-118083000D02*
X183650164Y-118083000D01*
%TO.C,R6*%
X132843600Y-124250864D02*
X132843600Y-123796736D01*
X134313600Y-124250864D02*
X134313600Y-123796736D01*
%TO.C,R21*%
X103912936Y-128608599D02*
X104367064Y-128608599D01*
X103912936Y-127138599D02*
X104367064Y-127138599D01*
%TO.C,U6*%
X121245500Y-73253600D02*
X121245500Y-76013600D01*
X113825500Y-70493600D02*
X114100500Y-70493600D01*
X121245500Y-73253600D02*
X121245500Y-70493600D01*
X121245500Y-76013600D02*
X120970500Y-76013600D01*
X121245500Y-70493600D02*
X120970500Y-70493600D01*
X120970500Y-70493600D02*
X120970500Y-68803600D01*
X113825500Y-73253600D02*
X113825500Y-70493600D01*
X113825500Y-73253600D02*
X113825500Y-76013600D01*
X113825500Y-76013600D02*
X114100500Y-76013600D01*
%TO.C,C13*%
X112239651Y-126000799D02*
X111717147Y-126000799D01*
X112239651Y-124530799D02*
X111717147Y-124530799D01*
%TO.C,C14*%
X102868147Y-124516399D02*
X104290651Y-124516399D01*
X102868147Y-122696399D02*
X104290651Y-122696399D01*
%TD*%
M02*
