%TF.GenerationSoftware,KiCad,Pcbnew,(6.0.11)*%
%TF.CreationDate,2023-05-02T12:30:58-07:00*%
%TF.ProjectId,TRS-IO-M1,5452532d-494f-42d4-9d31-2e6b69636164,rev?*%
%TF.SameCoordinates,Original*%
%TF.FileFunction,Soldermask,Top*%
%TF.FilePolarity,Negative*%
%FSLAX46Y46*%
G04 Gerber Fmt 4.6, Leading zero omitted, Abs format (unit mm)*
G04 Created by KiCad (PCBNEW (6.0.11)) date 2023-05-02 12:30:58*
%MOMM*%
%LPD*%
G01*
G04 APERTURE LIST*
G04 Aperture macros list*
%AMRoundRect*
0 Rectangle with rounded corners*
0 $1 Rounding radius*
0 $2 $3 $4 $5 $6 $7 $8 $9 X,Y pos of 4 corners*
0 Add a 4 corners polygon primitive as box body*
4,1,4,$2,$3,$4,$5,$6,$7,$8,$9,$2,$3,0*
0 Add four circle primitives for the rounded corners*
1,1,$1+$1,$2,$3*
1,1,$1+$1,$4,$5*
1,1,$1+$1,$6,$7*
1,1,$1+$1,$8,$9*
0 Add four rect primitives between the rounded corners*
20,1,$1+$1,$2,$3,$4,$5,0*
20,1,$1+$1,$4,$5,$6,$7,0*
20,1,$1+$1,$6,$7,$8,$9,0*
20,1,$1+$1,$8,$9,$2,$3,0*%
G04 Aperture macros list end*
%ADD10RoundRect,0.051000X0.850000X0.850000X-0.850000X0.850000X-0.850000X-0.850000X0.850000X-0.850000X0*%
%ADD11O,1.802000X1.802000*%
%ADD12RoundRect,0.051000X-3.810000X0.889000X-3.810000X-0.889000X3.810000X-0.889000X3.810000X0.889000X0*%
%ADD13C,6.102000*%
%ADD14C,0.902000*%
%ADD15RoundRect,0.301000X-0.450000X0.350000X-0.450000X-0.350000X0.450000X-0.350000X0.450000X0.350000X0*%
%ADD16RoundRect,0.301000X-0.337500X-0.475000X0.337500X-0.475000X0.337500X0.475000X-0.337500X0.475000X0*%
%ADD17O,2.102000X1.302000*%
%ADD18RoundRect,0.051000X-1.000000X-0.750000X1.000000X-0.750000X1.000000X0.750000X-1.000000X0.750000X0*%
%ADD19RoundRect,0.051000X-1.000000X-1.900000X1.000000X-1.900000X1.000000X1.900000X-1.000000X1.900000X0*%
%ADD20RoundRect,0.151000X-0.637500X-0.100000X0.637500X-0.100000X0.637500X0.100000X-0.637500X0.100000X0*%
%ADD21RoundRect,0.051000X0.850000X-0.850000X0.850000X0.850000X-0.850000X0.850000X-0.850000X-0.850000X0*%
%ADD22RoundRect,0.051000X-0.800000X-0.800000X0.800000X-0.800000X0.800000X0.800000X-0.800000X0.800000X0*%
%ADD23O,1.702000X1.702000*%
%ADD24RoundRect,0.301000X0.450000X-0.350000X0.450000X0.350000X-0.450000X0.350000X-0.450000X-0.350000X0*%
%ADD25RoundRect,0.301000X0.412500X0.650000X-0.412500X0.650000X-0.412500X-0.650000X0.412500X-0.650000X0*%
%ADD26RoundRect,0.201000X0.150000X-0.587500X0.150000X0.587500X-0.150000X0.587500X-0.150000X-0.587500X0*%
%ADD27RoundRect,0.163500X-0.837500X-0.112500X0.837500X-0.112500X0.837500X0.112500X-0.837500X0.112500X0*%
%ADD28RoundRect,0.051000X0.535000X0.900000X-0.535000X0.900000X-0.535000X-0.900000X0.535000X-0.900000X0*%
%ADD29O,1.172000X1.902000*%
%ADD30C,2.102000*%
G04 APERTURE END LIST*
D10*
%TO.C,J1*%
X119278400Y-116687600D03*
D11*
X116738400Y-116687600D03*
X119278400Y-114147600D03*
X116738400Y-114147600D03*
X119278400Y-111607600D03*
X116738400Y-111607600D03*
X119278400Y-109067600D03*
X116738400Y-109067600D03*
X119278400Y-106527600D03*
X116738400Y-106527600D03*
X119278400Y-103987600D03*
X116738400Y-103987600D03*
X119278400Y-101447600D03*
X116738400Y-101447600D03*
X119278400Y-98907600D03*
X116738400Y-98907600D03*
X119278400Y-96367600D03*
X116738400Y-96367600D03*
X119278400Y-93827600D03*
X116738400Y-93827600D03*
X119278400Y-91287600D03*
X116738400Y-91287600D03*
X119278400Y-88747600D03*
X116738400Y-88747600D03*
X119278400Y-86207600D03*
X116738400Y-86207600D03*
X119278400Y-83667600D03*
X116738400Y-83667600D03*
X119278400Y-81127600D03*
X116738400Y-81127600D03*
X119278400Y-78587600D03*
X116738400Y-78587600D03*
X119278400Y-76047600D03*
X116738400Y-76047600D03*
X119278400Y-73507600D03*
X116738400Y-73507600D03*
X119278400Y-70967600D03*
X116738400Y-70967600D03*
X119278400Y-68427600D03*
X116738400Y-68427600D03*
%TD*%
D12*
%TO.C,J2*%
X106984800Y-116713000D03*
X106984800Y-114173000D03*
X106984800Y-111633000D03*
X106984800Y-109093000D03*
X106984800Y-106553000D03*
X106984800Y-104013000D03*
X106984800Y-101473000D03*
X106984800Y-98933000D03*
X106984800Y-96393000D03*
X106984800Y-93853000D03*
X106984800Y-91313000D03*
X106984800Y-88773000D03*
X106984800Y-86233000D03*
X106984800Y-83693000D03*
X106984800Y-81153000D03*
X106984800Y-78613000D03*
X106984800Y-76073000D03*
X106984800Y-73533000D03*
X106984800Y-70993000D03*
X106984800Y-68453000D03*
%TD*%
D13*
%TO.C,H1*%
X118364000Y-60960000D03*
D14*
X119954990Y-62550990D03*
X116773010Y-59369010D03*
X120614000Y-60960000D03*
X118364000Y-58710000D03*
X116114000Y-60960000D03*
X118364000Y-63210000D03*
X119954990Y-59369010D03*
X116773010Y-62550990D03*
%TD*%
%TO.C,H2*%
X220284990Y-62550990D03*
X220944000Y-60960000D03*
D13*
X218694000Y-60960000D03*
D14*
X216444000Y-60960000D03*
X217103010Y-62550990D03*
X217103010Y-59369010D03*
X220284990Y-59369010D03*
X218694000Y-63210000D03*
X218694000Y-58710000D03*
%TD*%
%TO.C,H3*%
X120614000Y-125476000D03*
X118364000Y-127726000D03*
X119954990Y-123885010D03*
X116773010Y-127066990D03*
D13*
X118364000Y-125476000D03*
D14*
X116114000Y-125476000D03*
X118364000Y-123226000D03*
X119954990Y-127066990D03*
X116773010Y-123885010D03*
%TD*%
%TO.C,H4*%
X220284990Y-123885010D03*
X216444000Y-125476000D03*
X220284990Y-127066990D03*
X218694000Y-127726000D03*
X217103010Y-123885010D03*
X220944000Y-125476000D03*
X218694000Y-123226000D03*
X217103010Y-127066990D03*
D13*
X218694000Y-125476000D03*
%TD*%
D15*
%TO.C,R1*%
X186182000Y-98568000D03*
X186182000Y-100568000D03*
%TD*%
%TO.C,R2*%
X192786000Y-98568000D03*
X192786000Y-100568000D03*
%TD*%
D16*
%TO.C,C2*%
X143234500Y-86969600D03*
X145309500Y-86969600D03*
%TD*%
D17*
%TO.C,U5*%
X153650000Y-62230000D03*
X153650000Y-64770000D03*
X153650000Y-67310000D03*
X153650000Y-69850000D03*
X153650000Y-72390000D03*
X153650000Y-74930000D03*
X153650000Y-77470000D03*
X153650000Y-80010000D03*
X153650000Y-82550000D03*
X153650000Y-85090000D03*
X153650000Y-87630000D03*
X153650000Y-90170000D03*
X153650000Y-92710000D03*
X153650000Y-95250000D03*
X153650000Y-97790000D03*
X153650000Y-100330000D03*
X153650000Y-102870000D03*
X153650000Y-105410000D03*
X153650000Y-107950000D03*
X153650000Y-110490000D03*
X153650000Y-113030000D03*
X153650000Y-115570000D03*
X153650000Y-118110000D03*
X153650000Y-120650000D03*
X176550000Y-120650000D03*
X176550000Y-118110000D03*
X176550000Y-115570000D03*
X176550000Y-113030000D03*
X176550000Y-110490000D03*
X176550000Y-107950000D03*
X176550000Y-105410000D03*
X176550000Y-102870000D03*
X176550000Y-100330000D03*
X176550000Y-97790000D03*
X176550000Y-95250000D03*
X176550000Y-92710000D03*
X176550000Y-90170000D03*
X176550000Y-87630000D03*
X176550000Y-85090000D03*
X176550000Y-82550000D03*
X176550000Y-80010000D03*
X176550000Y-77470000D03*
X176550000Y-74930000D03*
X176550000Y-72390000D03*
X176550000Y-69850000D03*
X176550000Y-67310000D03*
X176550000Y-64770000D03*
X176550000Y-62230000D03*
%TD*%
D18*
%TO.C,U8*%
X139598000Y-109764800D03*
D19*
X145898000Y-112064800D03*
D18*
X139598000Y-112064800D03*
X139598000Y-114364800D03*
%TD*%
D20*
%TO.C,U1*%
X136837500Y-77381666D03*
X136837500Y-78031666D03*
X136837500Y-78681666D03*
X136837500Y-79331666D03*
X136837500Y-79981666D03*
X136837500Y-80631666D03*
X136837500Y-81281666D03*
X136837500Y-81931666D03*
X136837500Y-82581666D03*
X136837500Y-83231666D03*
X136837500Y-83881666D03*
X136837500Y-84531666D03*
X142562500Y-84531666D03*
X142562500Y-83881666D03*
X142562500Y-83231666D03*
X142562500Y-82581666D03*
X142562500Y-81931666D03*
X142562500Y-81281666D03*
X142562500Y-80631666D03*
X142562500Y-79981666D03*
X142562500Y-79331666D03*
X142562500Y-78681666D03*
X142562500Y-78031666D03*
X142562500Y-77381666D03*
%TD*%
D16*
%TO.C,C1*%
X143234500Y-64770000D03*
X145309500Y-64770000D03*
%TD*%
D21*
%TO.C,J4*%
X214371000Y-71120000D03*
D11*
X216911000Y-71120000D03*
%TD*%
D22*
%TO.C,U6*%
X182880000Y-62645000D03*
D23*
X182880000Y-65185000D03*
X182880000Y-67725000D03*
X182880000Y-70265000D03*
X182880000Y-72805000D03*
X182880000Y-75345000D03*
X182880000Y-77885000D03*
X182880000Y-80425000D03*
X182880000Y-82965000D03*
X182880000Y-85505000D03*
X182880000Y-88045000D03*
X182880000Y-90585000D03*
X182880000Y-93125000D03*
X182880000Y-95665000D03*
X182880000Y-98205000D03*
X182880000Y-100745000D03*
X182880000Y-103285000D03*
X182880000Y-105825000D03*
X182880000Y-108365000D03*
X205740000Y-108365000D03*
X205740000Y-105825000D03*
X205740000Y-103285000D03*
X205740000Y-100745000D03*
X205740000Y-98205000D03*
X205740000Y-95665000D03*
X205740000Y-93125000D03*
X205740000Y-90585000D03*
X205740000Y-88045000D03*
X205740000Y-85505000D03*
X205740000Y-82965000D03*
X205740000Y-80425000D03*
X205740000Y-77885000D03*
X205740000Y-75345000D03*
X205740000Y-72805000D03*
X205740000Y-70265000D03*
X205740000Y-67725000D03*
X205740000Y-65185000D03*
X205740000Y-62708500D03*
%TD*%
D24*
%TO.C,R4*%
X202184000Y-100618800D03*
X202184000Y-98618800D03*
%TD*%
D21*
%TO.C,J5*%
X214376000Y-84074000D03*
D11*
X216916000Y-84074000D03*
%TD*%
D16*
%TO.C,C3*%
X143234500Y-97790000D03*
X145309500Y-97790000D03*
%TD*%
D21*
%TO.C,J3*%
X214371000Y-77470000D03*
D11*
X216911000Y-77470000D03*
%TD*%
D25*
%TO.C,C4*%
X136436500Y-110998000D03*
X133311500Y-110998000D03*
%TD*%
D26*
%TO.C,Q1*%
X131028400Y-123771900D03*
X132928400Y-123771900D03*
X131978400Y-121896900D03*
%TD*%
D15*
%TO.C,R3*%
X189484000Y-98568000D03*
X189484000Y-100568000D03*
%TD*%
D27*
%TO.C,U2*%
X136200000Y-66925000D03*
X136200000Y-67575000D03*
X136200000Y-68225000D03*
X136200000Y-68875000D03*
X136200000Y-69525000D03*
X136200000Y-70175000D03*
X136200000Y-70825000D03*
X136200000Y-71475000D03*
X136200000Y-72125000D03*
X136200000Y-72775000D03*
X143200000Y-72775000D03*
X143200000Y-72125000D03*
X143200000Y-71475000D03*
X143200000Y-70825000D03*
X143200000Y-70175000D03*
X143200000Y-69525000D03*
X143200000Y-68875000D03*
X143200000Y-68225000D03*
X143200000Y-67575000D03*
X143200000Y-66925000D03*
%TD*%
D10*
%TO.C,J6*%
X208280000Y-108370000D03*
D11*
X208280000Y-105830000D03*
X208280000Y-103290000D03*
X208280000Y-100750000D03*
X208280000Y-98210000D03*
X208280000Y-95670000D03*
X208280000Y-93130000D03*
X208280000Y-90590000D03*
X208280000Y-88050000D03*
X208280000Y-85510000D03*
X208280000Y-82970000D03*
X208280000Y-80430000D03*
X208280000Y-77890000D03*
X208280000Y-75350000D03*
X208280000Y-72810000D03*
X208280000Y-70270000D03*
X208280000Y-67730000D03*
X208280000Y-65190000D03*
X208280000Y-62650000D03*
%TD*%
D26*
%TO.C,Q2*%
X126507200Y-123771900D03*
X128407200Y-123771900D03*
X127457200Y-121896900D03*
%TD*%
D28*
%TO.C,D1*%
X142900400Y-123748800D03*
D29*
X141630400Y-123748800D03*
X140360400Y-123748800D03*
X139090400Y-123748800D03*
%TD*%
D27*
%TO.C,U3*%
X136200000Y-99945000D03*
X136200000Y-100595000D03*
X136200000Y-101245000D03*
X136200000Y-101895000D03*
X136200000Y-102545000D03*
X136200000Y-103195000D03*
X136200000Y-103845000D03*
X136200000Y-104495000D03*
X136200000Y-105145000D03*
X136200000Y-105795000D03*
X143200000Y-105795000D03*
X143200000Y-105145000D03*
X143200000Y-104495000D03*
X143200000Y-103845000D03*
X143200000Y-103195000D03*
X143200000Y-102545000D03*
X143200000Y-101895000D03*
X143200000Y-101245000D03*
X143200000Y-100595000D03*
X143200000Y-99945000D03*
%TD*%
D30*
%TO.C,SW1*%
X219405200Y-102158800D03*
X219405200Y-108658800D03*
X214905200Y-102158800D03*
X214905200Y-108658800D03*
%TD*%
D27*
%TO.C,U4*%
X136200000Y-89138332D03*
X136200000Y-89788332D03*
X136200000Y-90438332D03*
X136200000Y-91088332D03*
X136200000Y-91738332D03*
X136200000Y-92388332D03*
X136200000Y-93038332D03*
X136200000Y-93688332D03*
X136200000Y-94338332D03*
X136200000Y-94988332D03*
X143200000Y-94988332D03*
X143200000Y-94338332D03*
X143200000Y-93688332D03*
X143200000Y-93038332D03*
X143200000Y-92388332D03*
X143200000Y-91738332D03*
X143200000Y-91088332D03*
X143200000Y-90438332D03*
X143200000Y-89788332D03*
X143200000Y-89138332D03*
%TD*%
D25*
%TO.C,C5*%
X136436500Y-114808000D03*
X133311500Y-114808000D03*
%TD*%
G36*
X142315612Y-122949371D02*
G01*
X142316400Y-122950962D01*
X142316400Y-124545970D01*
X142315400Y-124547702D01*
X142313400Y-124547702D01*
X142312481Y-124546533D01*
X142292805Y-124479521D01*
X142240462Y-124434166D01*
X142171909Y-124424309D01*
X142108753Y-124453152D01*
X142088698Y-124475350D01*
X142066841Y-124506450D01*
X142066520Y-124506807D01*
X142057763Y-124514446D01*
X142055800Y-124514831D01*
X142054485Y-124513324D01*
X142054861Y-124511721D01*
X142136145Y-124405790D01*
X142194484Y-124264946D01*
X142214400Y-124113668D01*
X142214400Y-123383932D01*
X142194484Y-123232654D01*
X142136145Y-123091810D01*
X142056754Y-122988345D01*
X142056493Y-122986362D01*
X142058080Y-122985144D01*
X142059672Y-122985634D01*
X142070610Y-122995380D01*
X142070927Y-122995740D01*
X142087872Y-123020394D01*
X142141822Y-123064294D01*
X142210650Y-123072025D01*
X142272729Y-123041319D01*
X142308438Y-122981782D01*
X142312416Y-122950708D01*
X142313628Y-122949117D01*
X142315612Y-122949371D01*
G37*
G36*
X141119759Y-123101941D02*
G01*
X141119793Y-123103548D01*
X141066316Y-123232654D01*
X141046400Y-123383932D01*
X141046400Y-124113668D01*
X141066316Y-124264946D01*
X141118604Y-124391180D01*
X141118343Y-124393163D01*
X141116495Y-124393928D01*
X141115108Y-124393078D01*
X141102393Y-124374578D01*
X141101866Y-124374620D01*
X141101130Y-124374020D01*
X141068264Y-124330504D01*
X141003269Y-124306578D01*
X140935659Y-124321589D01*
X140886729Y-124370937D01*
X140880403Y-124384600D01*
X140877904Y-124391009D01*
X140877677Y-124391433D01*
X140874491Y-124395967D01*
X140872677Y-124396809D01*
X140871041Y-124395659D01*
X140871007Y-124394052D01*
X140924484Y-124264946D01*
X140944400Y-124113668D01*
X140944400Y-123383932D01*
X140924484Y-123232654D01*
X140872196Y-123106420D01*
X140872457Y-123104437D01*
X140874305Y-123103672D01*
X140875692Y-123104522D01*
X140888407Y-123123022D01*
X140888934Y-123122980D01*
X140889670Y-123123580D01*
X140922536Y-123167096D01*
X140987531Y-123191022D01*
X141055141Y-123176011D01*
X141104071Y-123126663D01*
X141110397Y-123113000D01*
X141112896Y-123106591D01*
X141113123Y-123106167D01*
X141116309Y-123101633D01*
X141118123Y-123100791D01*
X141119759Y-123101941D01*
G37*
G36*
X139849759Y-123101941D02*
G01*
X139849793Y-123103548D01*
X139796316Y-123232654D01*
X139776400Y-123383932D01*
X139776400Y-124113668D01*
X139796316Y-124264946D01*
X139848604Y-124391180D01*
X139848343Y-124393163D01*
X139846495Y-124393928D01*
X139845108Y-124393078D01*
X139832393Y-124374578D01*
X139831866Y-124374620D01*
X139831130Y-124374020D01*
X139798264Y-124330504D01*
X139733269Y-124306578D01*
X139665659Y-124321589D01*
X139616729Y-124370937D01*
X139610403Y-124384600D01*
X139607904Y-124391009D01*
X139607677Y-124391433D01*
X139604491Y-124395967D01*
X139602677Y-124396809D01*
X139601041Y-124395659D01*
X139601007Y-124394052D01*
X139654484Y-124264946D01*
X139674400Y-124113668D01*
X139674400Y-123383932D01*
X139654484Y-123232654D01*
X139602196Y-123106420D01*
X139602457Y-123104437D01*
X139604305Y-123103672D01*
X139605692Y-123104522D01*
X139618407Y-123123022D01*
X139618934Y-123122980D01*
X139619670Y-123123580D01*
X139652536Y-123167096D01*
X139717531Y-123191022D01*
X139785141Y-123176011D01*
X139834071Y-123126663D01*
X139840397Y-123113000D01*
X139842896Y-123106591D01*
X139843123Y-123106167D01*
X139846309Y-123101633D01*
X139848123Y-123100791D01*
X139849759Y-123101941D01*
G37*
G36*
X137138141Y-105384318D02*
G01*
X137137901Y-105385406D01*
X137105973Y-105443999D01*
X137110981Y-105513153D01*
X137137401Y-105554184D01*
X137137497Y-105556182D01*
X137135816Y-105557265D01*
X137134608Y-105556930D01*
X137099290Y-105533331D01*
X137037301Y-105521000D01*
X135362699Y-105521000D01*
X135300710Y-105533331D01*
X135264966Y-105557214D01*
X135262970Y-105557345D01*
X135261859Y-105555682D01*
X135262099Y-105554594D01*
X135294027Y-105496001D01*
X135289019Y-105426847D01*
X135262599Y-105385816D01*
X135262503Y-105383818D01*
X135264184Y-105382735D01*
X135265392Y-105383070D01*
X135300710Y-105406669D01*
X135362699Y-105419000D01*
X137037301Y-105419000D01*
X137099290Y-105406669D01*
X137135034Y-105382786D01*
X137137030Y-105382655D01*
X137138141Y-105384318D01*
G37*
G36*
X144138141Y-105384318D02*
G01*
X144137901Y-105385406D01*
X144105973Y-105443999D01*
X144110981Y-105513153D01*
X144137401Y-105554184D01*
X144137497Y-105556182D01*
X144135816Y-105557265D01*
X144134608Y-105556930D01*
X144099290Y-105533331D01*
X144037301Y-105521000D01*
X142362699Y-105521000D01*
X142300710Y-105533331D01*
X142264966Y-105557214D01*
X142262970Y-105557345D01*
X142261859Y-105555682D01*
X142262099Y-105554594D01*
X142294027Y-105496001D01*
X142289019Y-105426847D01*
X142262599Y-105385816D01*
X142262503Y-105383818D01*
X142264184Y-105382735D01*
X142265392Y-105383070D01*
X142300710Y-105406669D01*
X142362699Y-105419000D01*
X144037301Y-105419000D01*
X144099290Y-105406669D01*
X144135034Y-105382786D01*
X144137030Y-105382655D01*
X144138141Y-105384318D01*
G37*
G36*
X137138141Y-104734318D02*
G01*
X137137901Y-104735406D01*
X137105973Y-104793999D01*
X137110981Y-104863153D01*
X137137401Y-104904184D01*
X137137497Y-104906182D01*
X137135816Y-104907265D01*
X137134608Y-104906930D01*
X137099290Y-104883331D01*
X137037301Y-104871000D01*
X135362699Y-104871000D01*
X135300710Y-104883331D01*
X135264966Y-104907214D01*
X135262970Y-104907345D01*
X135261859Y-104905682D01*
X135262099Y-104904594D01*
X135294027Y-104846001D01*
X135289019Y-104776847D01*
X135262599Y-104735816D01*
X135262503Y-104733818D01*
X135264184Y-104732735D01*
X135265392Y-104733070D01*
X135300710Y-104756669D01*
X135362699Y-104769000D01*
X137037301Y-104769000D01*
X137099290Y-104756669D01*
X137135034Y-104732786D01*
X137137030Y-104732655D01*
X137138141Y-104734318D01*
G37*
G36*
X144138141Y-104734318D02*
G01*
X144137901Y-104735406D01*
X144105973Y-104793999D01*
X144110981Y-104863153D01*
X144137401Y-104904184D01*
X144137497Y-104906182D01*
X144135816Y-104907265D01*
X144134608Y-104906930D01*
X144099290Y-104883331D01*
X144037301Y-104871000D01*
X142362699Y-104871000D01*
X142300710Y-104883331D01*
X142264966Y-104907214D01*
X142262970Y-104907345D01*
X142261859Y-104905682D01*
X142262099Y-104904594D01*
X142294027Y-104846001D01*
X142289019Y-104776847D01*
X142262599Y-104735816D01*
X142262503Y-104733818D01*
X142264184Y-104732735D01*
X142265392Y-104733070D01*
X142300710Y-104756669D01*
X142362699Y-104769000D01*
X144037301Y-104769000D01*
X144099290Y-104756669D01*
X144135034Y-104732786D01*
X144137030Y-104732655D01*
X144138141Y-104734318D01*
G37*
G36*
X144138141Y-104084318D02*
G01*
X144137901Y-104085406D01*
X144105973Y-104143999D01*
X144110981Y-104213153D01*
X144137401Y-104254184D01*
X144137497Y-104256182D01*
X144135816Y-104257265D01*
X144134608Y-104256930D01*
X144099290Y-104233331D01*
X144037301Y-104221000D01*
X142362699Y-104221000D01*
X142300710Y-104233331D01*
X142264966Y-104257214D01*
X142262970Y-104257345D01*
X142261859Y-104255682D01*
X142262099Y-104254594D01*
X142294027Y-104196001D01*
X142289019Y-104126847D01*
X142262599Y-104085816D01*
X142262503Y-104083818D01*
X142264184Y-104082735D01*
X142265392Y-104083070D01*
X142300710Y-104106669D01*
X142362699Y-104119000D01*
X144037301Y-104119000D01*
X144099290Y-104106669D01*
X144135034Y-104082786D01*
X144137030Y-104082655D01*
X144138141Y-104084318D01*
G37*
G36*
X137138141Y-104084318D02*
G01*
X137137901Y-104085406D01*
X137105973Y-104143999D01*
X137110981Y-104213153D01*
X137137401Y-104254184D01*
X137137497Y-104256182D01*
X137135816Y-104257265D01*
X137134608Y-104256930D01*
X137099290Y-104233331D01*
X137037301Y-104221000D01*
X135362699Y-104221000D01*
X135300710Y-104233331D01*
X135264966Y-104257214D01*
X135262970Y-104257345D01*
X135261859Y-104255682D01*
X135262099Y-104254594D01*
X135294027Y-104196001D01*
X135289019Y-104126847D01*
X135262599Y-104085816D01*
X135262503Y-104083818D01*
X135264184Y-104082735D01*
X135265392Y-104083070D01*
X135300710Y-104106669D01*
X135362699Y-104119000D01*
X137037301Y-104119000D01*
X137099290Y-104106669D01*
X137135034Y-104082786D01*
X137137030Y-104082655D01*
X137138141Y-104084318D01*
G37*
G36*
X137138141Y-103434318D02*
G01*
X137137901Y-103435406D01*
X137105973Y-103493999D01*
X137110981Y-103563153D01*
X137137401Y-103604184D01*
X137137497Y-103606182D01*
X137135816Y-103607265D01*
X137134608Y-103606930D01*
X137099290Y-103583331D01*
X137037301Y-103571000D01*
X135362699Y-103571000D01*
X135300710Y-103583331D01*
X135264966Y-103607214D01*
X135262970Y-103607345D01*
X135261859Y-103605682D01*
X135262099Y-103604594D01*
X135294027Y-103546001D01*
X135289019Y-103476847D01*
X135262599Y-103435816D01*
X135262503Y-103433818D01*
X135264184Y-103432735D01*
X135265392Y-103433070D01*
X135300710Y-103456669D01*
X135362699Y-103469000D01*
X137037301Y-103469000D01*
X137099290Y-103456669D01*
X137135034Y-103432786D01*
X137137030Y-103432655D01*
X137138141Y-103434318D01*
G37*
G36*
X144138141Y-103434318D02*
G01*
X144137901Y-103435406D01*
X144105973Y-103493999D01*
X144110981Y-103563153D01*
X144137401Y-103604184D01*
X144137497Y-103606182D01*
X144135816Y-103607265D01*
X144134608Y-103606930D01*
X144099290Y-103583331D01*
X144037301Y-103571000D01*
X142362699Y-103571000D01*
X142300710Y-103583331D01*
X142264966Y-103607214D01*
X142262970Y-103607345D01*
X142261859Y-103605682D01*
X142262099Y-103604594D01*
X142294027Y-103546001D01*
X142289019Y-103476847D01*
X142262599Y-103435816D01*
X142262503Y-103433818D01*
X142264184Y-103432735D01*
X142265392Y-103433070D01*
X142300710Y-103456669D01*
X142362699Y-103469000D01*
X144037301Y-103469000D01*
X144099290Y-103456669D01*
X144135034Y-103432786D01*
X144137030Y-103432655D01*
X144138141Y-103434318D01*
G37*
G36*
X137138141Y-102784318D02*
G01*
X137137901Y-102785406D01*
X137105973Y-102843999D01*
X137110981Y-102913153D01*
X137137401Y-102954184D01*
X137137497Y-102956182D01*
X137135816Y-102957265D01*
X137134608Y-102956930D01*
X137099290Y-102933331D01*
X137037301Y-102921000D01*
X135362699Y-102921000D01*
X135300710Y-102933331D01*
X135264966Y-102957214D01*
X135262970Y-102957345D01*
X135261859Y-102955682D01*
X135262099Y-102954594D01*
X135294027Y-102896001D01*
X135289019Y-102826847D01*
X135262599Y-102785816D01*
X135262503Y-102783818D01*
X135264184Y-102782735D01*
X135265392Y-102783070D01*
X135300710Y-102806669D01*
X135362699Y-102819000D01*
X137037301Y-102819000D01*
X137099290Y-102806669D01*
X137135034Y-102782786D01*
X137137030Y-102782655D01*
X137138141Y-102784318D01*
G37*
G36*
X144138141Y-102784318D02*
G01*
X144137901Y-102785406D01*
X144105973Y-102843999D01*
X144110981Y-102913153D01*
X144137401Y-102954184D01*
X144137497Y-102956182D01*
X144135816Y-102957265D01*
X144134608Y-102956930D01*
X144099290Y-102933331D01*
X144037301Y-102921000D01*
X142362699Y-102921000D01*
X142300710Y-102933331D01*
X142264966Y-102957214D01*
X142262970Y-102957345D01*
X142261859Y-102955682D01*
X142262099Y-102954594D01*
X142294027Y-102896001D01*
X142289019Y-102826847D01*
X142262599Y-102785816D01*
X142262503Y-102783818D01*
X142264184Y-102782735D01*
X142265392Y-102783070D01*
X142300710Y-102806669D01*
X142362699Y-102819000D01*
X144037301Y-102819000D01*
X144099290Y-102806669D01*
X144135034Y-102782786D01*
X144137030Y-102782655D01*
X144138141Y-102784318D01*
G37*
G36*
X137138141Y-102134318D02*
G01*
X137137901Y-102135406D01*
X137105973Y-102193999D01*
X137110981Y-102263153D01*
X137137401Y-102304184D01*
X137137497Y-102306182D01*
X137135816Y-102307265D01*
X137134608Y-102306930D01*
X137099290Y-102283331D01*
X137037301Y-102271000D01*
X135362699Y-102271000D01*
X135300710Y-102283331D01*
X135264966Y-102307214D01*
X135262970Y-102307345D01*
X135261859Y-102305682D01*
X135262099Y-102304594D01*
X135294027Y-102246001D01*
X135289019Y-102176847D01*
X135262599Y-102135816D01*
X135262503Y-102133818D01*
X135264184Y-102132735D01*
X135265392Y-102133070D01*
X135300710Y-102156669D01*
X135362699Y-102169000D01*
X137037301Y-102169000D01*
X137099290Y-102156669D01*
X137135034Y-102132786D01*
X137137030Y-102132655D01*
X137138141Y-102134318D01*
G37*
G36*
X144138141Y-102134318D02*
G01*
X144137901Y-102135406D01*
X144105973Y-102193999D01*
X144110981Y-102263153D01*
X144137401Y-102304184D01*
X144137497Y-102306182D01*
X144135816Y-102307265D01*
X144134608Y-102306930D01*
X144099290Y-102283331D01*
X144037301Y-102271000D01*
X142362699Y-102271000D01*
X142300710Y-102283331D01*
X142264966Y-102307214D01*
X142262970Y-102307345D01*
X142261859Y-102305682D01*
X142262099Y-102304594D01*
X142294027Y-102246001D01*
X142289019Y-102176847D01*
X142262599Y-102135816D01*
X142262503Y-102133818D01*
X142264184Y-102132735D01*
X142265392Y-102133070D01*
X142300710Y-102156669D01*
X142362699Y-102169000D01*
X144037301Y-102169000D01*
X144099290Y-102156669D01*
X144135034Y-102132786D01*
X144137030Y-102132655D01*
X144138141Y-102134318D01*
G37*
G36*
X137138141Y-101484318D02*
G01*
X137137901Y-101485406D01*
X137105973Y-101543999D01*
X137110981Y-101613153D01*
X137137401Y-101654184D01*
X137137497Y-101656182D01*
X137135816Y-101657265D01*
X137134608Y-101656930D01*
X137099290Y-101633331D01*
X137037301Y-101621000D01*
X135362699Y-101621000D01*
X135300710Y-101633331D01*
X135264966Y-101657214D01*
X135262970Y-101657345D01*
X135261859Y-101655682D01*
X135262099Y-101654594D01*
X135294027Y-101596001D01*
X135289019Y-101526847D01*
X135262599Y-101485816D01*
X135262503Y-101483818D01*
X135264184Y-101482735D01*
X135265392Y-101483070D01*
X135300710Y-101506669D01*
X135362699Y-101519000D01*
X137037301Y-101519000D01*
X137099290Y-101506669D01*
X137135034Y-101482786D01*
X137137030Y-101482655D01*
X137138141Y-101484318D01*
G37*
G36*
X144138141Y-101484318D02*
G01*
X144137901Y-101485406D01*
X144105973Y-101543999D01*
X144110981Y-101613153D01*
X144137401Y-101654184D01*
X144137497Y-101656182D01*
X144135816Y-101657265D01*
X144134608Y-101656930D01*
X144099290Y-101633331D01*
X144037301Y-101621000D01*
X142362699Y-101621000D01*
X142300710Y-101633331D01*
X142264966Y-101657214D01*
X142262970Y-101657345D01*
X142261859Y-101655682D01*
X142262099Y-101654594D01*
X142294027Y-101596001D01*
X142289019Y-101526847D01*
X142262599Y-101485816D01*
X142262503Y-101483818D01*
X142264184Y-101482735D01*
X142265392Y-101483070D01*
X142300710Y-101506669D01*
X142362699Y-101519000D01*
X144037301Y-101519000D01*
X144099290Y-101506669D01*
X144135034Y-101482786D01*
X144137030Y-101482655D01*
X144138141Y-101484318D01*
G37*
G36*
X144138141Y-100834318D02*
G01*
X144137901Y-100835406D01*
X144105973Y-100893999D01*
X144110981Y-100963153D01*
X144137401Y-101004184D01*
X144137497Y-101006182D01*
X144135816Y-101007265D01*
X144134608Y-101006930D01*
X144099290Y-100983331D01*
X144037301Y-100971000D01*
X142362699Y-100971000D01*
X142300710Y-100983331D01*
X142264966Y-101007214D01*
X142262970Y-101007345D01*
X142261859Y-101005682D01*
X142262099Y-101004594D01*
X142294027Y-100946001D01*
X142289019Y-100876847D01*
X142262599Y-100835816D01*
X142262503Y-100833818D01*
X142264184Y-100832735D01*
X142265392Y-100833070D01*
X142300710Y-100856669D01*
X142362699Y-100869000D01*
X144037301Y-100869000D01*
X144099290Y-100856669D01*
X144135034Y-100832786D01*
X144137030Y-100832655D01*
X144138141Y-100834318D01*
G37*
G36*
X137138141Y-100834318D02*
G01*
X137137901Y-100835406D01*
X137105973Y-100893999D01*
X137110981Y-100963153D01*
X137137401Y-101004184D01*
X137137497Y-101006182D01*
X137135816Y-101007265D01*
X137134608Y-101006930D01*
X137099290Y-100983331D01*
X137037301Y-100971000D01*
X135362699Y-100971000D01*
X135300710Y-100983331D01*
X135264966Y-101007214D01*
X135262970Y-101007345D01*
X135261859Y-101005682D01*
X135262099Y-101004594D01*
X135294027Y-100946001D01*
X135289019Y-100876847D01*
X135262599Y-100835816D01*
X135262503Y-100833818D01*
X135264184Y-100832735D01*
X135265392Y-100833070D01*
X135300710Y-100856669D01*
X135362699Y-100869000D01*
X137037301Y-100869000D01*
X137099290Y-100856669D01*
X137135034Y-100832786D01*
X137137030Y-100832655D01*
X137138141Y-100834318D01*
G37*
G36*
X137138141Y-100184318D02*
G01*
X137137901Y-100185406D01*
X137105973Y-100243999D01*
X137110981Y-100313153D01*
X137137401Y-100354184D01*
X137137497Y-100356182D01*
X137135816Y-100357265D01*
X137134608Y-100356930D01*
X137099290Y-100333331D01*
X137037301Y-100321000D01*
X135362699Y-100321000D01*
X135300710Y-100333331D01*
X135264966Y-100357214D01*
X135262970Y-100357345D01*
X135261859Y-100355682D01*
X135262099Y-100354594D01*
X135294027Y-100296001D01*
X135289019Y-100226847D01*
X135262599Y-100185816D01*
X135262503Y-100183818D01*
X135264184Y-100182735D01*
X135265392Y-100183070D01*
X135300710Y-100206669D01*
X135362699Y-100219000D01*
X137037301Y-100219000D01*
X137099290Y-100206669D01*
X137135034Y-100182786D01*
X137137030Y-100182655D01*
X137138141Y-100184318D01*
G37*
G36*
X144138141Y-100184318D02*
G01*
X144137901Y-100185406D01*
X144105973Y-100243999D01*
X144110981Y-100313153D01*
X144137401Y-100354184D01*
X144137497Y-100356182D01*
X144135816Y-100357265D01*
X144134608Y-100356930D01*
X144099290Y-100333331D01*
X144037301Y-100321000D01*
X142362699Y-100321000D01*
X142300710Y-100333331D01*
X142264966Y-100357214D01*
X142262970Y-100357345D01*
X142261859Y-100355682D01*
X142262099Y-100354594D01*
X142294027Y-100296001D01*
X142289019Y-100226847D01*
X142262599Y-100185816D01*
X142262503Y-100183818D01*
X142264184Y-100182735D01*
X142265392Y-100183070D01*
X142300710Y-100206669D01*
X142362699Y-100219000D01*
X144037301Y-100219000D01*
X144099290Y-100206669D01*
X144135034Y-100182786D01*
X144137030Y-100182655D01*
X144138141Y-100184318D01*
G37*
G36*
X137138141Y-94577650D02*
G01*
X137137901Y-94578738D01*
X137105973Y-94637331D01*
X137110981Y-94706485D01*
X137137401Y-94747516D01*
X137137497Y-94749514D01*
X137135816Y-94750597D01*
X137134608Y-94750262D01*
X137099290Y-94726663D01*
X137037301Y-94714332D01*
X135362699Y-94714332D01*
X135300710Y-94726663D01*
X135264966Y-94750546D01*
X135262970Y-94750677D01*
X135261859Y-94749014D01*
X135262099Y-94747926D01*
X135294027Y-94689333D01*
X135289019Y-94620179D01*
X135262599Y-94579148D01*
X135262503Y-94577150D01*
X135264184Y-94576067D01*
X135265392Y-94576402D01*
X135300710Y-94600001D01*
X135362699Y-94612332D01*
X137037301Y-94612332D01*
X137099290Y-94600001D01*
X137135034Y-94576118D01*
X137137030Y-94575987D01*
X137138141Y-94577650D01*
G37*
G36*
X144138141Y-94577650D02*
G01*
X144137901Y-94578738D01*
X144105973Y-94637331D01*
X144110981Y-94706485D01*
X144137401Y-94747516D01*
X144137497Y-94749514D01*
X144135816Y-94750597D01*
X144134608Y-94750262D01*
X144099290Y-94726663D01*
X144037301Y-94714332D01*
X142362699Y-94714332D01*
X142300710Y-94726663D01*
X142264966Y-94750546D01*
X142262970Y-94750677D01*
X142261859Y-94749014D01*
X142262099Y-94747926D01*
X142294027Y-94689333D01*
X142289019Y-94620179D01*
X142262599Y-94579148D01*
X142262503Y-94577150D01*
X142264184Y-94576067D01*
X142265392Y-94576402D01*
X142300710Y-94600001D01*
X142362699Y-94612332D01*
X144037301Y-94612332D01*
X144099290Y-94600001D01*
X144135034Y-94576118D01*
X144137030Y-94575987D01*
X144138141Y-94577650D01*
G37*
G36*
X144138141Y-93927650D02*
G01*
X144137901Y-93928738D01*
X144105973Y-93987331D01*
X144110981Y-94056485D01*
X144137401Y-94097516D01*
X144137497Y-94099514D01*
X144135816Y-94100597D01*
X144134608Y-94100262D01*
X144099290Y-94076663D01*
X144037301Y-94064332D01*
X142362699Y-94064332D01*
X142300710Y-94076663D01*
X142264966Y-94100546D01*
X142262970Y-94100677D01*
X142261859Y-94099014D01*
X142262099Y-94097926D01*
X142294027Y-94039333D01*
X142289019Y-93970179D01*
X142262599Y-93929148D01*
X142262503Y-93927150D01*
X142264184Y-93926067D01*
X142265392Y-93926402D01*
X142300710Y-93950001D01*
X142362699Y-93962332D01*
X144037301Y-93962332D01*
X144099290Y-93950001D01*
X144135034Y-93926118D01*
X144137030Y-93925987D01*
X144138141Y-93927650D01*
G37*
G36*
X137138141Y-93927650D02*
G01*
X137137901Y-93928738D01*
X137105973Y-93987331D01*
X137110981Y-94056485D01*
X137137401Y-94097516D01*
X137137497Y-94099514D01*
X137135816Y-94100597D01*
X137134608Y-94100262D01*
X137099290Y-94076663D01*
X137037301Y-94064332D01*
X135362699Y-94064332D01*
X135300710Y-94076663D01*
X135264966Y-94100546D01*
X135262970Y-94100677D01*
X135261859Y-94099014D01*
X135262099Y-94097926D01*
X135294027Y-94039333D01*
X135289019Y-93970179D01*
X135262599Y-93929148D01*
X135262503Y-93927150D01*
X135264184Y-93926067D01*
X135265392Y-93926402D01*
X135300710Y-93950001D01*
X135362699Y-93962332D01*
X137037301Y-93962332D01*
X137099290Y-93950001D01*
X137135034Y-93926118D01*
X137137030Y-93925987D01*
X137138141Y-93927650D01*
G37*
G36*
X137138141Y-93277650D02*
G01*
X137137901Y-93278738D01*
X137105973Y-93337331D01*
X137110981Y-93406485D01*
X137137401Y-93447516D01*
X137137497Y-93449514D01*
X137135816Y-93450597D01*
X137134608Y-93450262D01*
X137099290Y-93426663D01*
X137037301Y-93414332D01*
X135362699Y-93414332D01*
X135300710Y-93426663D01*
X135264966Y-93450546D01*
X135262970Y-93450677D01*
X135261859Y-93449014D01*
X135262099Y-93447926D01*
X135294027Y-93389333D01*
X135289019Y-93320179D01*
X135262599Y-93279148D01*
X135262503Y-93277150D01*
X135264184Y-93276067D01*
X135265392Y-93276402D01*
X135300710Y-93300001D01*
X135362699Y-93312332D01*
X137037301Y-93312332D01*
X137099290Y-93300001D01*
X137135034Y-93276118D01*
X137137030Y-93275987D01*
X137138141Y-93277650D01*
G37*
G36*
X144138141Y-93277650D02*
G01*
X144137901Y-93278738D01*
X144105973Y-93337331D01*
X144110981Y-93406485D01*
X144137401Y-93447516D01*
X144137497Y-93449514D01*
X144135816Y-93450597D01*
X144134608Y-93450262D01*
X144099290Y-93426663D01*
X144037301Y-93414332D01*
X142362699Y-93414332D01*
X142300710Y-93426663D01*
X142264966Y-93450546D01*
X142262970Y-93450677D01*
X142261859Y-93449014D01*
X142262099Y-93447926D01*
X142294027Y-93389333D01*
X142289019Y-93320179D01*
X142262599Y-93279148D01*
X142262503Y-93277150D01*
X142264184Y-93276067D01*
X142265392Y-93276402D01*
X142300710Y-93300001D01*
X142362699Y-93312332D01*
X144037301Y-93312332D01*
X144099290Y-93300001D01*
X144135034Y-93276118D01*
X144137030Y-93275987D01*
X144138141Y-93277650D01*
G37*
G36*
X137138141Y-92627650D02*
G01*
X137137901Y-92628738D01*
X137105973Y-92687331D01*
X137110981Y-92756485D01*
X137137401Y-92797516D01*
X137137497Y-92799514D01*
X137135816Y-92800597D01*
X137134608Y-92800262D01*
X137099290Y-92776663D01*
X137037301Y-92764332D01*
X135362699Y-92764332D01*
X135300710Y-92776663D01*
X135264966Y-92800546D01*
X135262970Y-92800677D01*
X135261859Y-92799014D01*
X135262099Y-92797926D01*
X135294027Y-92739333D01*
X135289019Y-92670179D01*
X135262599Y-92629148D01*
X135262503Y-92627150D01*
X135264184Y-92626067D01*
X135265392Y-92626402D01*
X135300710Y-92650001D01*
X135362699Y-92662332D01*
X137037301Y-92662332D01*
X137099290Y-92650001D01*
X137135034Y-92626118D01*
X137137030Y-92625987D01*
X137138141Y-92627650D01*
G37*
G36*
X144138141Y-92627650D02*
G01*
X144137901Y-92628738D01*
X144105973Y-92687331D01*
X144110981Y-92756485D01*
X144137401Y-92797516D01*
X144137497Y-92799514D01*
X144135816Y-92800597D01*
X144134608Y-92800262D01*
X144099290Y-92776663D01*
X144037301Y-92764332D01*
X142362699Y-92764332D01*
X142300710Y-92776663D01*
X142264966Y-92800546D01*
X142262970Y-92800677D01*
X142261859Y-92799014D01*
X142262099Y-92797926D01*
X142294027Y-92739333D01*
X142289019Y-92670179D01*
X142262599Y-92629148D01*
X142262503Y-92627150D01*
X142264184Y-92626067D01*
X142265392Y-92626402D01*
X142300710Y-92650001D01*
X142362699Y-92662332D01*
X144037301Y-92662332D01*
X144099290Y-92650001D01*
X144135034Y-92626118D01*
X144137030Y-92625987D01*
X144138141Y-92627650D01*
G37*
G36*
X137138141Y-91977650D02*
G01*
X137137901Y-91978738D01*
X137105973Y-92037331D01*
X137110981Y-92106485D01*
X137137401Y-92147516D01*
X137137497Y-92149514D01*
X137135816Y-92150597D01*
X137134608Y-92150262D01*
X137099290Y-92126663D01*
X137037301Y-92114332D01*
X135362699Y-92114332D01*
X135300710Y-92126663D01*
X135264966Y-92150546D01*
X135262970Y-92150677D01*
X135261859Y-92149014D01*
X135262099Y-92147926D01*
X135294027Y-92089333D01*
X135289019Y-92020179D01*
X135262599Y-91979148D01*
X135262503Y-91977150D01*
X135264184Y-91976067D01*
X135265392Y-91976402D01*
X135300710Y-92000001D01*
X135362699Y-92012332D01*
X137037301Y-92012332D01*
X137099290Y-92000001D01*
X137135034Y-91976118D01*
X137137030Y-91975987D01*
X137138141Y-91977650D01*
G37*
G36*
X144138141Y-91977650D02*
G01*
X144137901Y-91978738D01*
X144105973Y-92037331D01*
X144110981Y-92106485D01*
X144137401Y-92147516D01*
X144137497Y-92149514D01*
X144135816Y-92150597D01*
X144134608Y-92150262D01*
X144099290Y-92126663D01*
X144037301Y-92114332D01*
X142362699Y-92114332D01*
X142300710Y-92126663D01*
X142264966Y-92150546D01*
X142262970Y-92150677D01*
X142261859Y-92149014D01*
X142262099Y-92147926D01*
X142294027Y-92089333D01*
X142289019Y-92020179D01*
X142262599Y-91979148D01*
X142262503Y-91977150D01*
X142264184Y-91976067D01*
X142265392Y-91976402D01*
X142300710Y-92000001D01*
X142362699Y-92012332D01*
X144037301Y-92012332D01*
X144099290Y-92000001D01*
X144135034Y-91976118D01*
X144137030Y-91975987D01*
X144138141Y-91977650D01*
G37*
G36*
X137138141Y-91327650D02*
G01*
X137137901Y-91328738D01*
X137105973Y-91387331D01*
X137110981Y-91456485D01*
X137137401Y-91497516D01*
X137137497Y-91499514D01*
X137135816Y-91500597D01*
X137134608Y-91500262D01*
X137099290Y-91476663D01*
X137037301Y-91464332D01*
X135362699Y-91464332D01*
X135300710Y-91476663D01*
X135264966Y-91500546D01*
X135262970Y-91500677D01*
X135261859Y-91499014D01*
X135262099Y-91497926D01*
X135294027Y-91439333D01*
X135289019Y-91370179D01*
X135262599Y-91329148D01*
X135262503Y-91327150D01*
X135264184Y-91326067D01*
X135265392Y-91326402D01*
X135300710Y-91350001D01*
X135362699Y-91362332D01*
X137037301Y-91362332D01*
X137099290Y-91350001D01*
X137135034Y-91326118D01*
X137137030Y-91325987D01*
X137138141Y-91327650D01*
G37*
G36*
X144138141Y-91327650D02*
G01*
X144137901Y-91328738D01*
X144105973Y-91387331D01*
X144110981Y-91456485D01*
X144137401Y-91497516D01*
X144137497Y-91499514D01*
X144135816Y-91500597D01*
X144134608Y-91500262D01*
X144099290Y-91476663D01*
X144037301Y-91464332D01*
X142362699Y-91464332D01*
X142300710Y-91476663D01*
X142264966Y-91500546D01*
X142262970Y-91500677D01*
X142261859Y-91499014D01*
X142262099Y-91497926D01*
X142294027Y-91439333D01*
X142289019Y-91370179D01*
X142262599Y-91329148D01*
X142262503Y-91327150D01*
X142264184Y-91326067D01*
X142265392Y-91326402D01*
X142300710Y-91350001D01*
X142362699Y-91362332D01*
X144037301Y-91362332D01*
X144099290Y-91350001D01*
X144135034Y-91326118D01*
X144137030Y-91325987D01*
X144138141Y-91327650D01*
G37*
G36*
X144138141Y-90677650D02*
G01*
X144137901Y-90678738D01*
X144105973Y-90737331D01*
X144110981Y-90806485D01*
X144137401Y-90847516D01*
X144137497Y-90849514D01*
X144135816Y-90850597D01*
X144134608Y-90850262D01*
X144099290Y-90826663D01*
X144037301Y-90814332D01*
X142362699Y-90814332D01*
X142300710Y-90826663D01*
X142264966Y-90850546D01*
X142262970Y-90850677D01*
X142261859Y-90849014D01*
X142262099Y-90847926D01*
X142294027Y-90789333D01*
X142289019Y-90720179D01*
X142262599Y-90679148D01*
X142262503Y-90677150D01*
X142264184Y-90676067D01*
X142265392Y-90676402D01*
X142300710Y-90700001D01*
X142362699Y-90712332D01*
X144037301Y-90712332D01*
X144099290Y-90700001D01*
X144135034Y-90676118D01*
X144137030Y-90675987D01*
X144138141Y-90677650D01*
G37*
G36*
X137138141Y-90677650D02*
G01*
X137137901Y-90678738D01*
X137105973Y-90737331D01*
X137110981Y-90806485D01*
X137137401Y-90847516D01*
X137137497Y-90849514D01*
X137135816Y-90850597D01*
X137134608Y-90850262D01*
X137099290Y-90826663D01*
X137037301Y-90814332D01*
X135362699Y-90814332D01*
X135300710Y-90826663D01*
X135264966Y-90850546D01*
X135262970Y-90850677D01*
X135261859Y-90849014D01*
X135262099Y-90847926D01*
X135294027Y-90789333D01*
X135289019Y-90720179D01*
X135262599Y-90679148D01*
X135262503Y-90677150D01*
X135264184Y-90676067D01*
X135265392Y-90676402D01*
X135300710Y-90700001D01*
X135362699Y-90712332D01*
X137037301Y-90712332D01*
X137099290Y-90700001D01*
X137135034Y-90676118D01*
X137137030Y-90675987D01*
X137138141Y-90677650D01*
G37*
G36*
X144138141Y-90027650D02*
G01*
X144137901Y-90028738D01*
X144105973Y-90087331D01*
X144110981Y-90156485D01*
X144137401Y-90197516D01*
X144137497Y-90199514D01*
X144135816Y-90200597D01*
X144134608Y-90200262D01*
X144099290Y-90176663D01*
X144037301Y-90164332D01*
X142362699Y-90164332D01*
X142300710Y-90176663D01*
X142264966Y-90200546D01*
X142262970Y-90200677D01*
X142261859Y-90199014D01*
X142262099Y-90197926D01*
X142294027Y-90139333D01*
X142289019Y-90070179D01*
X142262599Y-90029148D01*
X142262503Y-90027150D01*
X142264184Y-90026067D01*
X142265392Y-90026402D01*
X142300710Y-90050001D01*
X142362699Y-90062332D01*
X144037301Y-90062332D01*
X144099290Y-90050001D01*
X144135034Y-90026118D01*
X144137030Y-90025987D01*
X144138141Y-90027650D01*
G37*
G36*
X137138141Y-90027650D02*
G01*
X137137901Y-90028738D01*
X137105973Y-90087331D01*
X137110981Y-90156485D01*
X137137401Y-90197516D01*
X137137497Y-90199514D01*
X137135816Y-90200597D01*
X137134608Y-90200262D01*
X137099290Y-90176663D01*
X137037301Y-90164332D01*
X135362699Y-90164332D01*
X135300710Y-90176663D01*
X135264966Y-90200546D01*
X135262970Y-90200677D01*
X135261859Y-90199014D01*
X135262099Y-90197926D01*
X135294027Y-90139333D01*
X135289019Y-90070179D01*
X135262599Y-90029148D01*
X135262503Y-90027150D01*
X135264184Y-90026067D01*
X135265392Y-90026402D01*
X135300710Y-90050001D01*
X135362699Y-90062332D01*
X137037301Y-90062332D01*
X137099290Y-90050001D01*
X137135034Y-90026118D01*
X137137030Y-90025987D01*
X137138141Y-90027650D01*
G37*
G36*
X137138141Y-89377650D02*
G01*
X137137901Y-89378738D01*
X137105973Y-89437331D01*
X137110981Y-89506485D01*
X137137401Y-89547516D01*
X137137497Y-89549514D01*
X137135816Y-89550597D01*
X137134608Y-89550262D01*
X137099290Y-89526663D01*
X137037301Y-89514332D01*
X135362699Y-89514332D01*
X135300710Y-89526663D01*
X135264966Y-89550546D01*
X135262970Y-89550677D01*
X135261859Y-89549014D01*
X135262099Y-89547926D01*
X135294027Y-89489333D01*
X135289019Y-89420179D01*
X135262599Y-89379148D01*
X135262503Y-89377150D01*
X135264184Y-89376067D01*
X135265392Y-89376402D01*
X135300710Y-89400001D01*
X135362699Y-89412332D01*
X137037301Y-89412332D01*
X137099290Y-89400001D01*
X137135034Y-89376118D01*
X137137030Y-89375987D01*
X137138141Y-89377650D01*
G37*
G36*
X144138141Y-89377650D02*
G01*
X144137901Y-89378738D01*
X144105973Y-89437331D01*
X144110981Y-89506485D01*
X144137401Y-89547516D01*
X144137497Y-89549514D01*
X144135816Y-89550597D01*
X144134608Y-89550262D01*
X144099290Y-89526663D01*
X144037301Y-89514332D01*
X142362699Y-89514332D01*
X142300710Y-89526663D01*
X142264966Y-89550546D01*
X142262970Y-89550677D01*
X142261859Y-89549014D01*
X142262099Y-89547926D01*
X142294027Y-89489333D01*
X142289019Y-89420179D01*
X142262599Y-89379148D01*
X142262503Y-89377150D01*
X142264184Y-89376067D01*
X142265392Y-89376402D01*
X142300710Y-89400001D01*
X142362699Y-89412332D01*
X144037301Y-89412332D01*
X144099290Y-89400001D01*
X144135034Y-89376118D01*
X144137030Y-89375987D01*
X144138141Y-89377650D01*
G37*
G36*
X137552587Y-84109143D02*
G01*
X137552126Y-84110557D01*
X137512803Y-84157610D01*
X137504170Y-84226326D01*
X137534133Y-84288955D01*
X137542803Y-84296466D01*
X137543457Y-84298356D01*
X137542147Y-84299868D01*
X137540382Y-84299641D01*
X137532006Y-84294045D01*
X137474801Y-84282666D01*
X136200199Y-84282666D01*
X136142994Y-84294045D01*
X136125520Y-84305721D01*
X136123524Y-84305852D01*
X136122413Y-84304189D01*
X136122874Y-84302775D01*
X136162197Y-84255722D01*
X136170830Y-84187006D01*
X136140867Y-84124377D01*
X136132197Y-84116866D01*
X136131543Y-84114976D01*
X136132853Y-84113464D01*
X136134618Y-84113691D01*
X136142994Y-84119287D01*
X136200199Y-84130666D01*
X137474801Y-84130666D01*
X137532006Y-84119287D01*
X137549480Y-84107611D01*
X137551476Y-84107480D01*
X137552587Y-84109143D01*
G37*
G36*
X143277587Y-84109143D02*
G01*
X143277126Y-84110557D01*
X143237803Y-84157610D01*
X143229170Y-84226326D01*
X143259133Y-84288955D01*
X143267803Y-84296466D01*
X143268457Y-84298356D01*
X143267147Y-84299868D01*
X143265382Y-84299641D01*
X143257006Y-84294045D01*
X143199801Y-84282666D01*
X141925199Y-84282666D01*
X141867994Y-84294045D01*
X141850520Y-84305721D01*
X141848524Y-84305852D01*
X141847413Y-84304189D01*
X141847874Y-84302775D01*
X141887197Y-84255722D01*
X141895830Y-84187006D01*
X141865867Y-84124377D01*
X141857197Y-84116866D01*
X141856543Y-84114976D01*
X141857853Y-84113464D01*
X141859618Y-84113691D01*
X141867994Y-84119287D01*
X141925199Y-84130666D01*
X143199801Y-84130666D01*
X143257006Y-84119287D01*
X143274480Y-84107611D01*
X143276476Y-84107480D01*
X143277587Y-84109143D01*
G37*
G36*
X143277587Y-83459143D02*
G01*
X143277126Y-83460557D01*
X143237803Y-83507610D01*
X143229170Y-83576326D01*
X143259133Y-83638955D01*
X143267803Y-83646466D01*
X143268457Y-83648356D01*
X143267147Y-83649868D01*
X143265382Y-83649641D01*
X143257006Y-83644045D01*
X143199801Y-83632666D01*
X141925199Y-83632666D01*
X141867994Y-83644045D01*
X141850520Y-83655721D01*
X141848524Y-83655852D01*
X141847413Y-83654189D01*
X141847874Y-83652775D01*
X141887197Y-83605722D01*
X141895830Y-83537006D01*
X141865867Y-83474377D01*
X141857197Y-83466866D01*
X141856543Y-83464976D01*
X141857853Y-83463464D01*
X141859618Y-83463691D01*
X141867994Y-83469287D01*
X141925199Y-83480666D01*
X143199801Y-83480666D01*
X143257006Y-83469287D01*
X143274480Y-83457611D01*
X143276476Y-83457480D01*
X143277587Y-83459143D01*
G37*
G36*
X137552587Y-83459143D02*
G01*
X137552126Y-83460557D01*
X137512803Y-83507610D01*
X137504170Y-83576326D01*
X137534133Y-83638955D01*
X137542803Y-83646466D01*
X137543457Y-83648356D01*
X137542147Y-83649868D01*
X137540382Y-83649641D01*
X137532006Y-83644045D01*
X137474801Y-83632666D01*
X136200199Y-83632666D01*
X136142994Y-83644045D01*
X136125520Y-83655721D01*
X136123524Y-83655852D01*
X136122413Y-83654189D01*
X136122874Y-83652775D01*
X136162197Y-83605722D01*
X136170830Y-83537006D01*
X136140867Y-83474377D01*
X136132197Y-83466866D01*
X136131543Y-83464976D01*
X136132853Y-83463464D01*
X136134618Y-83463691D01*
X136142994Y-83469287D01*
X136200199Y-83480666D01*
X137474801Y-83480666D01*
X137532006Y-83469287D01*
X137549480Y-83457611D01*
X137551476Y-83457480D01*
X137552587Y-83459143D01*
G37*
G36*
X137552587Y-82809143D02*
G01*
X137552126Y-82810557D01*
X137512803Y-82857610D01*
X137504170Y-82926326D01*
X137534133Y-82988955D01*
X137542803Y-82996466D01*
X137543457Y-82998356D01*
X137542147Y-82999868D01*
X137540382Y-82999641D01*
X137532006Y-82994045D01*
X137474801Y-82982666D01*
X136200199Y-82982666D01*
X136142994Y-82994045D01*
X136125520Y-83005721D01*
X136123524Y-83005852D01*
X136122413Y-83004189D01*
X136122874Y-83002775D01*
X136162197Y-82955722D01*
X136170830Y-82887006D01*
X136140867Y-82824377D01*
X136132197Y-82816866D01*
X136131543Y-82814976D01*
X136132853Y-82813464D01*
X136134618Y-82813691D01*
X136142994Y-82819287D01*
X136200199Y-82830666D01*
X137474801Y-82830666D01*
X137532006Y-82819287D01*
X137549480Y-82807611D01*
X137551476Y-82807480D01*
X137552587Y-82809143D01*
G37*
G36*
X143277587Y-82809143D02*
G01*
X143277126Y-82810557D01*
X143237803Y-82857610D01*
X143229170Y-82926326D01*
X143259133Y-82988955D01*
X143267803Y-82996466D01*
X143268457Y-82998356D01*
X143267147Y-82999868D01*
X143265382Y-82999641D01*
X143257006Y-82994045D01*
X143199801Y-82982666D01*
X141925199Y-82982666D01*
X141867994Y-82994045D01*
X141850520Y-83005721D01*
X141848524Y-83005852D01*
X141847413Y-83004189D01*
X141847874Y-83002775D01*
X141887197Y-82955722D01*
X141895830Y-82887006D01*
X141865867Y-82824377D01*
X141857197Y-82816866D01*
X141856543Y-82814976D01*
X141857853Y-82813464D01*
X141859618Y-82813691D01*
X141867994Y-82819287D01*
X141925199Y-82830666D01*
X143199801Y-82830666D01*
X143257006Y-82819287D01*
X143274480Y-82807611D01*
X143276476Y-82807480D01*
X143277587Y-82809143D01*
G37*
G36*
X137552587Y-82159143D02*
G01*
X137552126Y-82160557D01*
X137512803Y-82207610D01*
X137504170Y-82276326D01*
X137534133Y-82338955D01*
X137542803Y-82346466D01*
X137543457Y-82348356D01*
X137542147Y-82349868D01*
X137540382Y-82349641D01*
X137532006Y-82344045D01*
X137474801Y-82332666D01*
X136200199Y-82332666D01*
X136142994Y-82344045D01*
X136125520Y-82355721D01*
X136123524Y-82355852D01*
X136122413Y-82354189D01*
X136122874Y-82352775D01*
X136162197Y-82305722D01*
X136170830Y-82237006D01*
X136140867Y-82174377D01*
X136132197Y-82166866D01*
X136131543Y-82164976D01*
X136132853Y-82163464D01*
X136134618Y-82163691D01*
X136142994Y-82169287D01*
X136200199Y-82180666D01*
X137474801Y-82180666D01*
X137532006Y-82169287D01*
X137549480Y-82157611D01*
X137551476Y-82157480D01*
X137552587Y-82159143D01*
G37*
G36*
X143277587Y-82159143D02*
G01*
X143277126Y-82160557D01*
X143237803Y-82207610D01*
X143229170Y-82276326D01*
X143259133Y-82338955D01*
X143267803Y-82346466D01*
X143268457Y-82348356D01*
X143267147Y-82349868D01*
X143265382Y-82349641D01*
X143257006Y-82344045D01*
X143199801Y-82332666D01*
X141925199Y-82332666D01*
X141867994Y-82344045D01*
X141850520Y-82355721D01*
X141848524Y-82355852D01*
X141847413Y-82354189D01*
X141847874Y-82352775D01*
X141887197Y-82305722D01*
X141895830Y-82237006D01*
X141865867Y-82174377D01*
X141857197Y-82166866D01*
X141856543Y-82164976D01*
X141857853Y-82163464D01*
X141859618Y-82163691D01*
X141867994Y-82169287D01*
X141925199Y-82180666D01*
X143199801Y-82180666D01*
X143257006Y-82169287D01*
X143274480Y-82157611D01*
X143276476Y-82157480D01*
X143277587Y-82159143D01*
G37*
G36*
X137552587Y-81509143D02*
G01*
X137552126Y-81510557D01*
X137512803Y-81557610D01*
X137504170Y-81626326D01*
X137534133Y-81688955D01*
X137542803Y-81696466D01*
X137543457Y-81698356D01*
X137542147Y-81699868D01*
X137540382Y-81699641D01*
X137532006Y-81694045D01*
X137474801Y-81682666D01*
X136200199Y-81682666D01*
X136142994Y-81694045D01*
X136125520Y-81705721D01*
X136123524Y-81705852D01*
X136122413Y-81704189D01*
X136122874Y-81702775D01*
X136162197Y-81655722D01*
X136170830Y-81587006D01*
X136140867Y-81524377D01*
X136132197Y-81516866D01*
X136131543Y-81514976D01*
X136132853Y-81513464D01*
X136134618Y-81513691D01*
X136142994Y-81519287D01*
X136200199Y-81530666D01*
X137474801Y-81530666D01*
X137532006Y-81519287D01*
X137549480Y-81507611D01*
X137551476Y-81507480D01*
X137552587Y-81509143D01*
G37*
G36*
X143277587Y-81509143D02*
G01*
X143277126Y-81510557D01*
X143237803Y-81557610D01*
X143229170Y-81626326D01*
X143259133Y-81688955D01*
X143267803Y-81696466D01*
X143268457Y-81698356D01*
X143267147Y-81699868D01*
X143265382Y-81699641D01*
X143257006Y-81694045D01*
X143199801Y-81682666D01*
X141925199Y-81682666D01*
X141867994Y-81694045D01*
X141850520Y-81705721D01*
X141848524Y-81705852D01*
X141847413Y-81704189D01*
X141847874Y-81702775D01*
X141887197Y-81655722D01*
X141895830Y-81587006D01*
X141865867Y-81524377D01*
X141857197Y-81516866D01*
X141856543Y-81514976D01*
X141857853Y-81513464D01*
X141859618Y-81513691D01*
X141867994Y-81519287D01*
X141925199Y-81530666D01*
X143199801Y-81530666D01*
X143257006Y-81519287D01*
X143274480Y-81507611D01*
X143276476Y-81507480D01*
X143277587Y-81509143D01*
G37*
G36*
X137552587Y-80859143D02*
G01*
X137552126Y-80860557D01*
X137512803Y-80907610D01*
X137504170Y-80976326D01*
X137534133Y-81038955D01*
X137542803Y-81046466D01*
X137543457Y-81048356D01*
X137542147Y-81049868D01*
X137540382Y-81049641D01*
X137532006Y-81044045D01*
X137474801Y-81032666D01*
X136200199Y-81032666D01*
X136142994Y-81044045D01*
X136125520Y-81055721D01*
X136123524Y-81055852D01*
X136122413Y-81054189D01*
X136122874Y-81052775D01*
X136162197Y-81005722D01*
X136170830Y-80937006D01*
X136140867Y-80874377D01*
X136132197Y-80866866D01*
X136131543Y-80864976D01*
X136132853Y-80863464D01*
X136134618Y-80863691D01*
X136142994Y-80869287D01*
X136200199Y-80880666D01*
X137474801Y-80880666D01*
X137532006Y-80869287D01*
X137549480Y-80857611D01*
X137551476Y-80857480D01*
X137552587Y-80859143D01*
G37*
G36*
X143277587Y-80859143D02*
G01*
X143277126Y-80860557D01*
X143237803Y-80907610D01*
X143229170Y-80976326D01*
X143259133Y-81038955D01*
X143267803Y-81046466D01*
X143268457Y-81048356D01*
X143267147Y-81049868D01*
X143265382Y-81049641D01*
X143257006Y-81044045D01*
X143199801Y-81032666D01*
X141925199Y-81032666D01*
X141867994Y-81044045D01*
X141850520Y-81055721D01*
X141848524Y-81055852D01*
X141847413Y-81054189D01*
X141847874Y-81052775D01*
X141887197Y-81005722D01*
X141895830Y-80937006D01*
X141865867Y-80874377D01*
X141857197Y-80866866D01*
X141856543Y-80864976D01*
X141857853Y-80863464D01*
X141859618Y-80863691D01*
X141867994Y-80869287D01*
X141925199Y-80880666D01*
X143199801Y-80880666D01*
X143257006Y-80869287D01*
X143274480Y-80857611D01*
X143276476Y-80857480D01*
X143277587Y-80859143D01*
G37*
G36*
X143277587Y-80209143D02*
G01*
X143277126Y-80210557D01*
X143237803Y-80257610D01*
X143229170Y-80326326D01*
X143259133Y-80388955D01*
X143267803Y-80396466D01*
X143268457Y-80398356D01*
X143267147Y-80399868D01*
X143265382Y-80399641D01*
X143257006Y-80394045D01*
X143199801Y-80382666D01*
X141925199Y-80382666D01*
X141867994Y-80394045D01*
X141850520Y-80405721D01*
X141848524Y-80405852D01*
X141847413Y-80404189D01*
X141847874Y-80402775D01*
X141887197Y-80355722D01*
X141895830Y-80287006D01*
X141865867Y-80224377D01*
X141857197Y-80216866D01*
X141856543Y-80214976D01*
X141857853Y-80213464D01*
X141859618Y-80213691D01*
X141867994Y-80219287D01*
X141925199Y-80230666D01*
X143199801Y-80230666D01*
X143257006Y-80219287D01*
X143274480Y-80207611D01*
X143276476Y-80207480D01*
X143277587Y-80209143D01*
G37*
G36*
X137552587Y-80209143D02*
G01*
X137552126Y-80210557D01*
X137512803Y-80257610D01*
X137504170Y-80326326D01*
X137534133Y-80388955D01*
X137542803Y-80396466D01*
X137543457Y-80398356D01*
X137542147Y-80399868D01*
X137540382Y-80399641D01*
X137532006Y-80394045D01*
X137474801Y-80382666D01*
X136200199Y-80382666D01*
X136142994Y-80394045D01*
X136125520Y-80405721D01*
X136123524Y-80405852D01*
X136122413Y-80404189D01*
X136122874Y-80402775D01*
X136162197Y-80355722D01*
X136170830Y-80287006D01*
X136140867Y-80224377D01*
X136132197Y-80216866D01*
X136131543Y-80214976D01*
X136132853Y-80213464D01*
X136134618Y-80213691D01*
X136142994Y-80219287D01*
X136200199Y-80230666D01*
X137474801Y-80230666D01*
X137532006Y-80219287D01*
X137549480Y-80207611D01*
X137551476Y-80207480D01*
X137552587Y-80209143D01*
G37*
G36*
X137552587Y-79559143D02*
G01*
X137552126Y-79560557D01*
X137512803Y-79607610D01*
X137504170Y-79676326D01*
X137534133Y-79738955D01*
X137542803Y-79746466D01*
X137543457Y-79748356D01*
X137542147Y-79749868D01*
X137540382Y-79749641D01*
X137532006Y-79744045D01*
X137474801Y-79732666D01*
X136200199Y-79732666D01*
X136142994Y-79744045D01*
X136125520Y-79755721D01*
X136123524Y-79755852D01*
X136122413Y-79754189D01*
X136122874Y-79752775D01*
X136162197Y-79705722D01*
X136170830Y-79637006D01*
X136140867Y-79574377D01*
X136132197Y-79566866D01*
X136131543Y-79564976D01*
X136132853Y-79563464D01*
X136134618Y-79563691D01*
X136142994Y-79569287D01*
X136200199Y-79580666D01*
X137474801Y-79580666D01*
X137532006Y-79569287D01*
X137549480Y-79557611D01*
X137551476Y-79557480D01*
X137552587Y-79559143D01*
G37*
G36*
X143277587Y-79559143D02*
G01*
X143277126Y-79560557D01*
X143237803Y-79607610D01*
X143229170Y-79676326D01*
X143259133Y-79738955D01*
X143267803Y-79746466D01*
X143268457Y-79748356D01*
X143267147Y-79749868D01*
X143265382Y-79749641D01*
X143257006Y-79744045D01*
X143199801Y-79732666D01*
X141925199Y-79732666D01*
X141867994Y-79744045D01*
X141850520Y-79755721D01*
X141848524Y-79755852D01*
X141847413Y-79754189D01*
X141847874Y-79752775D01*
X141887197Y-79705722D01*
X141895830Y-79637006D01*
X141865867Y-79574377D01*
X141857197Y-79566866D01*
X141856543Y-79564976D01*
X141857853Y-79563464D01*
X141859618Y-79563691D01*
X141867994Y-79569287D01*
X141925199Y-79580666D01*
X143199801Y-79580666D01*
X143257006Y-79569287D01*
X143274480Y-79557611D01*
X143276476Y-79557480D01*
X143277587Y-79559143D01*
G37*
G36*
X137552587Y-78909143D02*
G01*
X137552126Y-78910557D01*
X137512803Y-78957610D01*
X137504170Y-79026326D01*
X137534133Y-79088955D01*
X137542803Y-79096466D01*
X137543457Y-79098356D01*
X137542147Y-79099868D01*
X137540382Y-79099641D01*
X137532006Y-79094045D01*
X137474801Y-79082666D01*
X136200199Y-79082666D01*
X136142994Y-79094045D01*
X136125520Y-79105721D01*
X136123524Y-79105852D01*
X136122413Y-79104189D01*
X136122874Y-79102775D01*
X136162197Y-79055722D01*
X136170830Y-78987006D01*
X136140867Y-78924377D01*
X136132197Y-78916866D01*
X136131543Y-78914976D01*
X136132853Y-78913464D01*
X136134618Y-78913691D01*
X136142994Y-78919287D01*
X136200199Y-78930666D01*
X137474801Y-78930666D01*
X137532006Y-78919287D01*
X137549480Y-78907611D01*
X137551476Y-78907480D01*
X137552587Y-78909143D01*
G37*
G36*
X143277587Y-78909143D02*
G01*
X143277126Y-78910557D01*
X143237803Y-78957610D01*
X143229170Y-79026326D01*
X143259133Y-79088955D01*
X143267803Y-79096466D01*
X143268457Y-79098356D01*
X143267147Y-79099868D01*
X143265382Y-79099641D01*
X143257006Y-79094045D01*
X143199801Y-79082666D01*
X141925199Y-79082666D01*
X141867994Y-79094045D01*
X141850520Y-79105721D01*
X141848524Y-79105852D01*
X141847413Y-79104189D01*
X141847874Y-79102775D01*
X141887197Y-79055722D01*
X141895830Y-78987006D01*
X141865867Y-78924377D01*
X141857197Y-78916866D01*
X141856543Y-78914976D01*
X141857853Y-78913464D01*
X141859618Y-78913691D01*
X141867994Y-78919287D01*
X141925199Y-78930666D01*
X143199801Y-78930666D01*
X143257006Y-78919287D01*
X143274480Y-78907611D01*
X143276476Y-78907480D01*
X143277587Y-78909143D01*
G37*
G36*
X137552587Y-78259143D02*
G01*
X137552126Y-78260557D01*
X137512803Y-78307610D01*
X137504170Y-78376326D01*
X137534133Y-78438955D01*
X137542803Y-78446466D01*
X137543457Y-78448356D01*
X137542147Y-78449868D01*
X137540382Y-78449641D01*
X137532006Y-78444045D01*
X137474801Y-78432666D01*
X136200199Y-78432666D01*
X136142994Y-78444045D01*
X136125520Y-78455721D01*
X136123524Y-78455852D01*
X136122413Y-78454189D01*
X136122874Y-78452775D01*
X136162197Y-78405722D01*
X136170830Y-78337006D01*
X136140867Y-78274377D01*
X136132197Y-78266866D01*
X136131543Y-78264976D01*
X136132853Y-78263464D01*
X136134618Y-78263691D01*
X136142994Y-78269287D01*
X136200199Y-78280666D01*
X137474801Y-78280666D01*
X137532006Y-78269287D01*
X137549480Y-78257611D01*
X137551476Y-78257480D01*
X137552587Y-78259143D01*
G37*
G36*
X143277587Y-78259143D02*
G01*
X143277126Y-78260557D01*
X143237803Y-78307610D01*
X143229170Y-78376326D01*
X143259133Y-78438955D01*
X143267803Y-78446466D01*
X143268457Y-78448356D01*
X143267147Y-78449868D01*
X143265382Y-78449641D01*
X143257006Y-78444045D01*
X143199801Y-78432666D01*
X141925199Y-78432666D01*
X141867994Y-78444045D01*
X141850520Y-78455721D01*
X141848524Y-78455852D01*
X141847413Y-78454189D01*
X141847874Y-78452775D01*
X141887197Y-78405722D01*
X141895830Y-78337006D01*
X141865867Y-78274377D01*
X141857197Y-78266866D01*
X141856543Y-78264976D01*
X141857853Y-78263464D01*
X141859618Y-78263691D01*
X141867994Y-78269287D01*
X141925199Y-78280666D01*
X143199801Y-78280666D01*
X143257006Y-78269287D01*
X143274480Y-78257611D01*
X143276476Y-78257480D01*
X143277587Y-78259143D01*
G37*
G36*
X137552587Y-77609143D02*
G01*
X137552126Y-77610557D01*
X137512803Y-77657610D01*
X137504170Y-77726326D01*
X137534133Y-77788955D01*
X137542803Y-77796466D01*
X137543457Y-77798356D01*
X137542147Y-77799868D01*
X137540382Y-77799641D01*
X137532006Y-77794045D01*
X137474801Y-77782666D01*
X136200199Y-77782666D01*
X136142994Y-77794045D01*
X136125520Y-77805721D01*
X136123524Y-77805852D01*
X136122413Y-77804189D01*
X136122874Y-77802775D01*
X136162197Y-77755722D01*
X136170830Y-77687006D01*
X136140867Y-77624377D01*
X136132197Y-77616866D01*
X136131543Y-77614976D01*
X136132853Y-77613464D01*
X136134618Y-77613691D01*
X136142994Y-77619287D01*
X136200199Y-77630666D01*
X137474801Y-77630666D01*
X137532006Y-77619287D01*
X137549480Y-77607611D01*
X137551476Y-77607480D01*
X137552587Y-77609143D01*
G37*
G36*
X143277587Y-77609143D02*
G01*
X143277126Y-77610557D01*
X143237803Y-77657610D01*
X143229170Y-77726326D01*
X143259133Y-77788955D01*
X143267803Y-77796466D01*
X143268457Y-77798356D01*
X143267147Y-77799868D01*
X143265382Y-77799641D01*
X143257006Y-77794045D01*
X143199801Y-77782666D01*
X141925199Y-77782666D01*
X141867994Y-77794045D01*
X141850520Y-77805721D01*
X141848524Y-77805852D01*
X141847413Y-77804189D01*
X141847874Y-77802775D01*
X141887197Y-77755722D01*
X141895830Y-77687006D01*
X141865867Y-77624377D01*
X141857197Y-77616866D01*
X141856543Y-77614976D01*
X141857853Y-77613464D01*
X141859618Y-77613691D01*
X141867994Y-77619287D01*
X141925199Y-77630666D01*
X143199801Y-77630666D01*
X143257006Y-77619287D01*
X143274480Y-77607611D01*
X143276476Y-77607480D01*
X143277587Y-77609143D01*
G37*
G36*
X137138141Y-72364318D02*
G01*
X137137901Y-72365406D01*
X137105973Y-72423999D01*
X137110981Y-72493153D01*
X137137401Y-72534184D01*
X137137497Y-72536182D01*
X137135816Y-72537265D01*
X137134608Y-72536930D01*
X137099290Y-72513331D01*
X137037301Y-72501000D01*
X135362699Y-72501000D01*
X135300710Y-72513331D01*
X135264966Y-72537214D01*
X135262970Y-72537345D01*
X135261859Y-72535682D01*
X135262099Y-72534594D01*
X135294027Y-72476001D01*
X135289019Y-72406847D01*
X135262599Y-72365816D01*
X135262503Y-72363818D01*
X135264184Y-72362735D01*
X135265392Y-72363070D01*
X135300710Y-72386669D01*
X135362699Y-72399000D01*
X137037301Y-72399000D01*
X137099290Y-72386669D01*
X137135034Y-72362786D01*
X137137030Y-72362655D01*
X137138141Y-72364318D01*
G37*
G36*
X144138141Y-72364318D02*
G01*
X144137901Y-72365406D01*
X144105973Y-72423999D01*
X144110981Y-72493153D01*
X144137401Y-72534184D01*
X144137497Y-72536182D01*
X144135816Y-72537265D01*
X144134608Y-72536930D01*
X144099290Y-72513331D01*
X144037301Y-72501000D01*
X142362699Y-72501000D01*
X142300710Y-72513331D01*
X142264966Y-72537214D01*
X142262970Y-72537345D01*
X142261859Y-72535682D01*
X142262099Y-72534594D01*
X142294027Y-72476001D01*
X142289019Y-72406847D01*
X142262599Y-72365816D01*
X142262503Y-72363818D01*
X142264184Y-72362735D01*
X142265392Y-72363070D01*
X142300710Y-72386669D01*
X142362699Y-72399000D01*
X144037301Y-72399000D01*
X144099290Y-72386669D01*
X144135034Y-72362786D01*
X144137030Y-72362655D01*
X144138141Y-72364318D01*
G37*
G36*
X137138141Y-71714318D02*
G01*
X137137901Y-71715406D01*
X137105973Y-71773999D01*
X137110981Y-71843153D01*
X137137401Y-71884184D01*
X137137497Y-71886182D01*
X137135816Y-71887265D01*
X137134608Y-71886930D01*
X137099290Y-71863331D01*
X137037301Y-71851000D01*
X135362699Y-71851000D01*
X135300710Y-71863331D01*
X135264966Y-71887214D01*
X135262970Y-71887345D01*
X135261859Y-71885682D01*
X135262099Y-71884594D01*
X135294027Y-71826001D01*
X135289019Y-71756847D01*
X135262599Y-71715816D01*
X135262503Y-71713818D01*
X135264184Y-71712735D01*
X135265392Y-71713070D01*
X135300710Y-71736669D01*
X135362699Y-71749000D01*
X137037301Y-71749000D01*
X137099290Y-71736669D01*
X137135034Y-71712786D01*
X137137030Y-71712655D01*
X137138141Y-71714318D01*
G37*
G36*
X144138141Y-71714318D02*
G01*
X144137901Y-71715406D01*
X144105973Y-71773999D01*
X144110981Y-71843153D01*
X144137401Y-71884184D01*
X144137497Y-71886182D01*
X144135816Y-71887265D01*
X144134608Y-71886930D01*
X144099290Y-71863331D01*
X144037301Y-71851000D01*
X142362699Y-71851000D01*
X142300710Y-71863331D01*
X142264966Y-71887214D01*
X142262970Y-71887345D01*
X142261859Y-71885682D01*
X142262099Y-71884594D01*
X142294027Y-71826001D01*
X142289019Y-71756847D01*
X142262599Y-71715816D01*
X142262503Y-71713818D01*
X142264184Y-71712735D01*
X142265392Y-71713070D01*
X142300710Y-71736669D01*
X142362699Y-71749000D01*
X144037301Y-71749000D01*
X144099290Y-71736669D01*
X144135034Y-71712786D01*
X144137030Y-71712655D01*
X144138141Y-71714318D01*
G37*
G36*
X137138141Y-71064318D02*
G01*
X137137901Y-71065406D01*
X137105973Y-71123999D01*
X137110981Y-71193153D01*
X137137401Y-71234184D01*
X137137497Y-71236182D01*
X137135816Y-71237265D01*
X137134608Y-71236930D01*
X137099290Y-71213331D01*
X137037301Y-71201000D01*
X135362699Y-71201000D01*
X135300710Y-71213331D01*
X135264966Y-71237214D01*
X135262970Y-71237345D01*
X135261859Y-71235682D01*
X135262099Y-71234594D01*
X135294027Y-71176001D01*
X135289019Y-71106847D01*
X135262599Y-71065816D01*
X135262503Y-71063818D01*
X135264184Y-71062735D01*
X135265392Y-71063070D01*
X135300710Y-71086669D01*
X135362699Y-71099000D01*
X137037301Y-71099000D01*
X137099290Y-71086669D01*
X137135034Y-71062786D01*
X137137030Y-71062655D01*
X137138141Y-71064318D01*
G37*
G36*
X144138141Y-71064318D02*
G01*
X144137901Y-71065406D01*
X144105973Y-71123999D01*
X144110981Y-71193153D01*
X144137401Y-71234184D01*
X144137497Y-71236182D01*
X144135816Y-71237265D01*
X144134608Y-71236930D01*
X144099290Y-71213331D01*
X144037301Y-71201000D01*
X142362699Y-71201000D01*
X142300710Y-71213331D01*
X142264966Y-71237214D01*
X142262970Y-71237345D01*
X142261859Y-71235682D01*
X142262099Y-71234594D01*
X142294027Y-71176001D01*
X142289019Y-71106847D01*
X142262599Y-71065816D01*
X142262503Y-71063818D01*
X142264184Y-71062735D01*
X142265392Y-71063070D01*
X142300710Y-71086669D01*
X142362699Y-71099000D01*
X144037301Y-71099000D01*
X144099290Y-71086669D01*
X144135034Y-71062786D01*
X144137030Y-71062655D01*
X144138141Y-71064318D01*
G37*
G36*
X137138141Y-70414318D02*
G01*
X137137901Y-70415406D01*
X137105973Y-70473999D01*
X137110981Y-70543153D01*
X137137401Y-70584184D01*
X137137497Y-70586182D01*
X137135816Y-70587265D01*
X137134608Y-70586930D01*
X137099290Y-70563331D01*
X137037301Y-70551000D01*
X135362699Y-70551000D01*
X135300710Y-70563331D01*
X135264966Y-70587214D01*
X135262970Y-70587345D01*
X135261859Y-70585682D01*
X135262099Y-70584594D01*
X135294027Y-70526001D01*
X135289019Y-70456847D01*
X135262599Y-70415816D01*
X135262503Y-70413818D01*
X135264184Y-70412735D01*
X135265392Y-70413070D01*
X135300710Y-70436669D01*
X135362699Y-70449000D01*
X137037301Y-70449000D01*
X137099290Y-70436669D01*
X137135034Y-70412786D01*
X137137030Y-70412655D01*
X137138141Y-70414318D01*
G37*
G36*
X144138141Y-70414318D02*
G01*
X144137901Y-70415406D01*
X144105973Y-70473999D01*
X144110981Y-70543153D01*
X144137401Y-70584184D01*
X144137497Y-70586182D01*
X144135816Y-70587265D01*
X144134608Y-70586930D01*
X144099290Y-70563331D01*
X144037301Y-70551000D01*
X142362699Y-70551000D01*
X142300710Y-70563331D01*
X142264966Y-70587214D01*
X142262970Y-70587345D01*
X142261859Y-70585682D01*
X142262099Y-70584594D01*
X142294027Y-70526001D01*
X142289019Y-70456847D01*
X142262599Y-70415816D01*
X142262503Y-70413818D01*
X142264184Y-70412735D01*
X142265392Y-70413070D01*
X142300710Y-70436669D01*
X142362699Y-70449000D01*
X144037301Y-70449000D01*
X144099290Y-70436669D01*
X144135034Y-70412786D01*
X144137030Y-70412655D01*
X144138141Y-70414318D01*
G37*
G36*
X144138141Y-69764318D02*
G01*
X144137901Y-69765406D01*
X144105973Y-69823999D01*
X144110981Y-69893153D01*
X144137401Y-69934184D01*
X144137497Y-69936182D01*
X144135816Y-69937265D01*
X144134608Y-69936930D01*
X144099290Y-69913331D01*
X144037301Y-69901000D01*
X142362699Y-69901000D01*
X142300710Y-69913331D01*
X142264966Y-69937214D01*
X142262970Y-69937345D01*
X142261859Y-69935682D01*
X142262099Y-69934594D01*
X142294027Y-69876001D01*
X142289019Y-69806847D01*
X142262599Y-69765816D01*
X142262503Y-69763818D01*
X142264184Y-69762735D01*
X142265392Y-69763070D01*
X142300710Y-69786669D01*
X142362699Y-69799000D01*
X144037301Y-69799000D01*
X144099290Y-69786669D01*
X144135034Y-69762786D01*
X144137030Y-69762655D01*
X144138141Y-69764318D01*
G37*
G36*
X137138141Y-69764318D02*
G01*
X137137901Y-69765406D01*
X137105973Y-69823999D01*
X137110981Y-69893153D01*
X137137401Y-69934184D01*
X137137497Y-69936182D01*
X137135816Y-69937265D01*
X137134608Y-69936930D01*
X137099290Y-69913331D01*
X137037301Y-69901000D01*
X135362699Y-69901000D01*
X135300710Y-69913331D01*
X135264966Y-69937214D01*
X135262970Y-69937345D01*
X135261859Y-69935682D01*
X135262099Y-69934594D01*
X135294027Y-69876001D01*
X135289019Y-69806847D01*
X135262599Y-69765816D01*
X135262503Y-69763818D01*
X135264184Y-69762735D01*
X135265392Y-69763070D01*
X135300710Y-69786669D01*
X135362699Y-69799000D01*
X137037301Y-69799000D01*
X137099290Y-69786669D01*
X137135034Y-69762786D01*
X137137030Y-69762655D01*
X137138141Y-69764318D01*
G37*
G36*
X144138141Y-69114318D02*
G01*
X144137901Y-69115406D01*
X144105973Y-69173999D01*
X144110981Y-69243153D01*
X144137401Y-69284184D01*
X144137497Y-69286182D01*
X144135816Y-69287265D01*
X144134608Y-69286930D01*
X144099290Y-69263331D01*
X144037301Y-69251000D01*
X142362699Y-69251000D01*
X142300710Y-69263331D01*
X142264966Y-69287214D01*
X142262970Y-69287345D01*
X142261859Y-69285682D01*
X142262099Y-69284594D01*
X142294027Y-69226001D01*
X142289019Y-69156847D01*
X142262599Y-69115816D01*
X142262503Y-69113818D01*
X142264184Y-69112735D01*
X142265392Y-69113070D01*
X142300710Y-69136669D01*
X142362699Y-69149000D01*
X144037301Y-69149000D01*
X144099290Y-69136669D01*
X144135034Y-69112786D01*
X144137030Y-69112655D01*
X144138141Y-69114318D01*
G37*
G36*
X137138141Y-69114318D02*
G01*
X137137901Y-69115406D01*
X137105973Y-69173999D01*
X137110981Y-69243153D01*
X137137401Y-69284184D01*
X137137497Y-69286182D01*
X137135816Y-69287265D01*
X137134608Y-69286930D01*
X137099290Y-69263331D01*
X137037301Y-69251000D01*
X135362699Y-69251000D01*
X135300710Y-69263331D01*
X135264966Y-69287214D01*
X135262970Y-69287345D01*
X135261859Y-69285682D01*
X135262099Y-69284594D01*
X135294027Y-69226001D01*
X135289019Y-69156847D01*
X135262599Y-69115816D01*
X135262503Y-69113818D01*
X135264184Y-69112735D01*
X135265392Y-69113070D01*
X135300710Y-69136669D01*
X135362699Y-69149000D01*
X137037301Y-69149000D01*
X137099290Y-69136669D01*
X137135034Y-69112786D01*
X137137030Y-69112655D01*
X137138141Y-69114318D01*
G37*
G36*
X137138141Y-68464318D02*
G01*
X137137901Y-68465406D01*
X137105973Y-68523999D01*
X137110981Y-68593153D01*
X137137401Y-68634184D01*
X137137497Y-68636182D01*
X137135816Y-68637265D01*
X137134608Y-68636930D01*
X137099290Y-68613331D01*
X137037301Y-68601000D01*
X135362699Y-68601000D01*
X135300710Y-68613331D01*
X135264966Y-68637214D01*
X135262970Y-68637345D01*
X135261859Y-68635682D01*
X135262099Y-68634594D01*
X135294027Y-68576001D01*
X135289019Y-68506847D01*
X135262599Y-68465816D01*
X135262503Y-68463818D01*
X135264184Y-68462735D01*
X135265392Y-68463070D01*
X135300710Y-68486669D01*
X135362699Y-68499000D01*
X137037301Y-68499000D01*
X137099290Y-68486669D01*
X137135034Y-68462786D01*
X137137030Y-68462655D01*
X137138141Y-68464318D01*
G37*
G36*
X144138141Y-68464318D02*
G01*
X144137901Y-68465406D01*
X144105973Y-68523999D01*
X144110981Y-68593153D01*
X144137401Y-68634184D01*
X144137497Y-68636182D01*
X144135816Y-68637265D01*
X144134608Y-68636930D01*
X144099290Y-68613331D01*
X144037301Y-68601000D01*
X142362699Y-68601000D01*
X142300710Y-68613331D01*
X142264966Y-68637214D01*
X142262970Y-68637345D01*
X142261859Y-68635682D01*
X142262099Y-68634594D01*
X142294027Y-68576001D01*
X142289019Y-68506847D01*
X142262599Y-68465816D01*
X142262503Y-68463818D01*
X142264184Y-68462735D01*
X142265392Y-68463070D01*
X142300710Y-68486669D01*
X142362699Y-68499000D01*
X144037301Y-68499000D01*
X144099290Y-68486669D01*
X144135034Y-68462786D01*
X144137030Y-68462655D01*
X144138141Y-68464318D01*
G37*
G36*
X144138141Y-67814318D02*
G01*
X144137901Y-67815406D01*
X144105973Y-67873999D01*
X144110981Y-67943153D01*
X144137401Y-67984184D01*
X144137497Y-67986182D01*
X144135816Y-67987265D01*
X144134608Y-67986930D01*
X144099290Y-67963331D01*
X144037301Y-67951000D01*
X142362699Y-67951000D01*
X142300710Y-67963331D01*
X142264966Y-67987214D01*
X142262970Y-67987345D01*
X142261859Y-67985682D01*
X142262099Y-67984594D01*
X142294027Y-67926001D01*
X142289019Y-67856847D01*
X142262599Y-67815816D01*
X142262503Y-67813818D01*
X142264184Y-67812735D01*
X142265392Y-67813070D01*
X142300710Y-67836669D01*
X142362699Y-67849000D01*
X144037301Y-67849000D01*
X144099290Y-67836669D01*
X144135034Y-67812786D01*
X144137030Y-67812655D01*
X144138141Y-67814318D01*
G37*
G36*
X137138141Y-67814318D02*
G01*
X137137901Y-67815406D01*
X137105973Y-67873999D01*
X137110981Y-67943153D01*
X137137401Y-67984184D01*
X137137497Y-67986182D01*
X137135816Y-67987265D01*
X137134608Y-67986930D01*
X137099290Y-67963331D01*
X137037301Y-67951000D01*
X135362699Y-67951000D01*
X135300710Y-67963331D01*
X135264966Y-67987214D01*
X135262970Y-67987345D01*
X135261859Y-67985682D01*
X135262099Y-67984594D01*
X135294027Y-67926001D01*
X135289019Y-67856847D01*
X135262599Y-67815816D01*
X135262503Y-67813818D01*
X135264184Y-67812735D01*
X135265392Y-67813070D01*
X135300710Y-67836669D01*
X135362699Y-67849000D01*
X137037301Y-67849000D01*
X137099290Y-67836669D01*
X137135034Y-67812786D01*
X137137030Y-67812655D01*
X137138141Y-67814318D01*
G37*
G36*
X144138141Y-67164318D02*
G01*
X144137901Y-67165406D01*
X144105973Y-67223999D01*
X144110981Y-67293153D01*
X144137401Y-67334184D01*
X144137497Y-67336182D01*
X144135816Y-67337265D01*
X144134608Y-67336930D01*
X144099290Y-67313331D01*
X144037301Y-67301000D01*
X142362699Y-67301000D01*
X142300710Y-67313331D01*
X142264966Y-67337214D01*
X142262970Y-67337345D01*
X142261859Y-67335682D01*
X142262099Y-67334594D01*
X142294027Y-67276001D01*
X142289019Y-67206847D01*
X142262599Y-67165816D01*
X142262503Y-67163818D01*
X142264184Y-67162735D01*
X142265392Y-67163070D01*
X142300710Y-67186669D01*
X142362699Y-67199000D01*
X144037301Y-67199000D01*
X144099290Y-67186669D01*
X144135034Y-67162786D01*
X144137030Y-67162655D01*
X144138141Y-67164318D01*
G37*
G36*
X137138141Y-67164318D02*
G01*
X137137901Y-67165406D01*
X137105973Y-67223999D01*
X137110981Y-67293153D01*
X137137401Y-67334184D01*
X137137497Y-67336182D01*
X137135816Y-67337265D01*
X137134608Y-67336930D01*
X137099290Y-67313331D01*
X137037301Y-67301000D01*
X135362699Y-67301000D01*
X135300710Y-67313331D01*
X135264966Y-67337214D01*
X135262970Y-67337345D01*
X135261859Y-67335682D01*
X135262099Y-67334594D01*
X135294027Y-67276001D01*
X135289019Y-67206847D01*
X135262599Y-67165816D01*
X135262503Y-67163818D01*
X135264184Y-67162735D01*
X135265392Y-67163070D01*
X135300710Y-67186669D01*
X135362699Y-67199000D01*
X137037301Y-67199000D01*
X137099290Y-67186669D01*
X137135034Y-67162786D01*
X137137030Y-67162655D01*
X137138141Y-67164318D01*
G37*
M02*
