%TF.GenerationSoftware,KiCad,Pcbnew,(6.0.11)*%
%TF.CreationDate,2023-05-02T12:30:58-07:00*%
%TF.ProjectId,TRS-IO-M1,5452532d-494f-42d4-9d31-2e6b69636164,rev?*%
%TF.SameCoordinates,Original*%
%TF.FileFunction,Copper,L1,Top*%
%TF.FilePolarity,Positive*%
%FSLAX46Y46*%
G04 Gerber Fmt 4.6, Leading zero omitted, Abs format (unit mm)*
G04 Created by KiCad (PCBNEW (6.0.11)) date 2023-05-02 12:30:58*
%MOMM*%
%LPD*%
G01*
G04 APERTURE LIST*
G04 Aperture macros list*
%AMRoundRect*
0 Rectangle with rounded corners*
0 $1 Rounding radius*
0 $2 $3 $4 $5 $6 $7 $8 $9 X,Y pos of 4 corners*
0 Add a 4 corners polygon primitive as box body*
4,1,4,$2,$3,$4,$5,$6,$7,$8,$9,$2,$3,0*
0 Add four circle primitives for the rounded corners*
1,1,$1+$1,$2,$3*
1,1,$1+$1,$4,$5*
1,1,$1+$1,$6,$7*
1,1,$1+$1,$8,$9*
0 Add four rect primitives between the rounded corners*
20,1,$1+$1,$2,$3,$4,$5,0*
20,1,$1+$1,$4,$5,$6,$7,0*
20,1,$1+$1,$6,$7,$8,$9,0*
20,1,$1+$1,$8,$9,$2,$3,0*%
G04 Aperture macros list end*
%TA.AperFunction,ComponentPad*%
%ADD10R,1.700000X1.700000*%
%TD*%
%TA.AperFunction,ComponentPad*%
%ADD11O,1.700000X1.700000*%
%TD*%
%TA.AperFunction,ConnectorPad*%
%ADD12R,7.620000X1.778000*%
%TD*%
%TA.AperFunction,ComponentPad*%
%ADD13C,6.000000*%
%TD*%
%TA.AperFunction,ComponentPad*%
%ADD14C,0.800000*%
%TD*%
%TA.AperFunction,SMDPad,CuDef*%
%ADD15RoundRect,0.250000X-0.450000X0.350000X-0.450000X-0.350000X0.450000X-0.350000X0.450000X0.350000X0*%
%TD*%
%TA.AperFunction,SMDPad,CuDef*%
%ADD16RoundRect,0.250000X-0.337500X-0.475000X0.337500X-0.475000X0.337500X0.475000X-0.337500X0.475000X0*%
%TD*%
%TA.AperFunction,ComponentPad*%
%ADD17O,2.000000X1.200000*%
%TD*%
%TA.AperFunction,SMDPad,CuDef*%
%ADD18R,2.000000X1.500000*%
%TD*%
%TA.AperFunction,SMDPad,CuDef*%
%ADD19R,2.000000X3.800000*%
%TD*%
%TA.AperFunction,SMDPad,CuDef*%
%ADD20RoundRect,0.100000X-0.637500X-0.100000X0.637500X-0.100000X0.637500X0.100000X-0.637500X0.100000X0*%
%TD*%
%TA.AperFunction,ComponentPad*%
%ADD21R,1.600000X1.600000*%
%TD*%
%TA.AperFunction,ComponentPad*%
%ADD22O,1.600000X1.600000*%
%TD*%
%TA.AperFunction,SMDPad,CuDef*%
%ADD23RoundRect,0.250000X0.450000X-0.350000X0.450000X0.350000X-0.450000X0.350000X-0.450000X-0.350000X0*%
%TD*%
%TA.AperFunction,SMDPad,CuDef*%
%ADD24RoundRect,0.250000X0.412500X0.650000X-0.412500X0.650000X-0.412500X-0.650000X0.412500X-0.650000X0*%
%TD*%
%TA.AperFunction,SMDPad,CuDef*%
%ADD25RoundRect,0.150000X0.150000X-0.587500X0.150000X0.587500X-0.150000X0.587500X-0.150000X-0.587500X0*%
%TD*%
%TA.AperFunction,SMDPad,CuDef*%
%ADD26RoundRect,0.112500X-0.837500X-0.112500X0.837500X-0.112500X0.837500X0.112500X-0.837500X0.112500X0*%
%TD*%
%TA.AperFunction,ComponentPad*%
%ADD27R,1.070000X1.800000*%
%TD*%
%TA.AperFunction,ComponentPad*%
%ADD28O,1.070000X1.800000*%
%TD*%
%TA.AperFunction,ComponentPad*%
%ADD29C,2.000000*%
%TD*%
%TA.AperFunction,ViaPad*%
%ADD30C,0.800000*%
%TD*%
%TA.AperFunction,Conductor*%
%ADD31C,0.500380*%
%TD*%
%TA.AperFunction,Conductor*%
%ADD32C,0.200000*%
%TD*%
%TA.AperFunction,Conductor*%
%ADD33C,0.250000*%
%TD*%
G04 APERTURE END LIST*
D10*
%TO.P,J1,1,Pin_1*%
%TO.N,SYSRES_N*%
X119278400Y-116687600D03*
D11*
%TO.P,J1,2,Pin_2*%
%TO.N,RAS_N*%
X116738400Y-116687600D03*
%TO.P,J1,3,Pin_3*%
%TO.N,A10*%
X119278400Y-114147600D03*
%TO.P,J1,4,Pin_4*%
%TO.N,CAS_N*%
X116738400Y-114147600D03*
%TO.P,J1,5,Pin_5*%
%TO.N,A13*%
X119278400Y-111607600D03*
%TO.P,J1,6,Pin_6*%
%TO.N,A12*%
X116738400Y-111607600D03*
%TO.P,J1,7,Pin_7*%
%TO.N,GND*%
X119278400Y-109067600D03*
%TO.P,J1,8,Pin_8*%
%TO.N,A15*%
X116738400Y-109067600D03*
%TO.P,J1,9,Pin_9*%
%TO.N,A14*%
X119278400Y-106527600D03*
%TO.P,J1,10,Pin_10*%
%TO.N,A11*%
X116738400Y-106527600D03*
%TO.P,J1,11,Pin_11*%
%TO.N,OUT_N*%
X119278400Y-103987600D03*
%TO.P,J1,12,Pin_12*%
%TO.N,A8*%
X116738400Y-103987600D03*
%TO.P,J1,13,Pin_13*%
%TO.N,INTACK_N*%
X119278400Y-101447600D03*
%TO.P,J1,14,Pin_14*%
%TO.N,WR_N*%
X116738400Y-101447600D03*
%TO.P,J1,15,Pin_15*%
%TO.N,MUX*%
X119278400Y-98907600D03*
%TO.P,J1,16,Pin_16*%
%TO.N,RD_N*%
X116738400Y-98907600D03*
%TO.P,J1,17,Pin_17*%
%TO.N,D4*%
X119278400Y-96367600D03*
%TO.P,J1,18,Pin_18*%
%TO.N,A9*%
X116738400Y-96367600D03*
%TO.P,J1,19,Pin_19*%
%TO.N,D7*%
X119278400Y-93827600D03*
%TO.P,J1,20,Pin_20*%
%TO.N,IN_N*%
X116738400Y-93827600D03*
%TO.P,J1,21,Pin_21*%
%TO.N,D1*%
X119278400Y-91287600D03*
%TO.P,J1,22,Pin_22*%
%TO.N,INT_N*%
X116738400Y-91287600D03*
%TO.P,J1,23,Pin_23*%
%TO.N,D6*%
X119278400Y-88747600D03*
%TO.P,J1,24,Pin_24*%
%TO.N,TEST_N*%
X116738400Y-88747600D03*
%TO.P,J1,25,Pin_25*%
%TO.N,D3*%
X119278400Y-86207600D03*
%TO.P,J1,26,Pin_26*%
%TO.N,A0*%
X116738400Y-86207600D03*
%TO.P,J1,27,Pin_27*%
%TO.N,D5*%
X119278400Y-83667600D03*
%TO.P,J1,28,Pin_28*%
%TO.N,A1*%
X116738400Y-83667600D03*
%TO.P,J1,29,Pin_29*%
%TO.N,D0*%
X119278400Y-81127600D03*
%TO.P,J1,30,Pin_30*%
%TO.N,GND*%
X116738400Y-81127600D03*
%TO.P,J1,31,Pin_31*%
%TO.N,D2*%
X119278400Y-78587600D03*
%TO.P,J1,32,Pin_32*%
%TO.N,A4*%
X116738400Y-78587600D03*
%TO.P,J1,33,Pin_33*%
%TO.N,A3*%
X119278400Y-76047600D03*
%TO.P,J1,34,Pin_34*%
%TO.N,WAIT_N*%
X116738400Y-76047600D03*
%TO.P,J1,35,Pin_35*%
%TO.N,A7*%
X119278400Y-73507600D03*
%TO.P,J1,36,Pin_36*%
%TO.N,A5*%
X116738400Y-73507600D03*
%TO.P,J1,37,Pin_37*%
%TO.N,A6*%
X119278400Y-70967600D03*
%TO.P,J1,38,Pin_38*%
%TO.N,GND*%
X116738400Y-70967600D03*
%TO.P,J1,39,Pin_39*%
%TO.N,A2*%
X119278400Y-68427600D03*
%TO.P,J1,40,Pin_40*%
%TO.N,5V*%
X116738400Y-68427600D03*
%TD*%
D12*
%TO.P,J2,1,Pin_1*%
%TO.N,SYSRES_N*%
X106984800Y-116713000D03*
%TO.P,J2,3,Pin_3*%
%TO.N,A10*%
X106984800Y-114173000D03*
%TO.P,J2,5,Pin_5*%
%TO.N,A13*%
X106984800Y-111633000D03*
%TO.P,J2,7,Pin_7*%
%TO.N,GND*%
X106984800Y-109093000D03*
%TO.P,J2,9,Pin_9*%
%TO.N,A14*%
X106984800Y-106553000D03*
%TO.P,J2,11,Pin_11*%
%TO.N,OUT_N*%
X106984800Y-104013000D03*
%TO.P,J2,13,Pin_13*%
%TO.N,INTACK_N*%
X106984800Y-101473000D03*
%TO.P,J2,15,Pin_15*%
%TO.N,MUX*%
X106984800Y-98933000D03*
%TO.P,J2,17,Pin_17*%
%TO.N,D4*%
X106984800Y-96393000D03*
%TO.P,J2,19,Pin_19*%
%TO.N,D7*%
X106984800Y-93853000D03*
%TO.P,J2,21,Pin_21*%
%TO.N,D1*%
X106984800Y-91313000D03*
%TO.P,J2,23,Pin_23*%
%TO.N,D6*%
X106984800Y-88773000D03*
%TO.P,J2,25,Pin_25*%
%TO.N,D3*%
X106984800Y-86233000D03*
%TO.P,J2,27,Pin_27*%
%TO.N,D5*%
X106984800Y-83693000D03*
%TO.P,J2,29,Pin_29*%
%TO.N,D0*%
X106984800Y-81153000D03*
%TO.P,J2,31,Pin_31*%
%TO.N,D2*%
X106984800Y-78613000D03*
%TO.P,J2,33,Pin_33*%
%TO.N,A3*%
X106984800Y-76073000D03*
%TO.P,J2,35,Pin_35*%
%TO.N,A7*%
X106984800Y-73533000D03*
%TO.P,J2,37,Pin_37*%
%TO.N,A6*%
X106984800Y-70993000D03*
%TO.P,J2,39,Pin_39*%
%TO.N,A2*%
X106984800Y-68453000D03*
%TD*%
D13*
%TO.P,H1,1*%
%TO.N,N/C*%
X118364000Y-60960000D03*
D14*
X119954990Y-62550990D03*
X116773010Y-59369010D03*
X120614000Y-60960000D03*
X118364000Y-58710000D03*
X116114000Y-60960000D03*
X118364000Y-63210000D03*
X119954990Y-59369010D03*
X116773010Y-62550990D03*
%TD*%
%TO.P,H2,1*%
%TO.N,N/C*%
X220284990Y-62550990D03*
X220944000Y-60960000D03*
D13*
X218694000Y-60960000D03*
D14*
X216444000Y-60960000D03*
X217103010Y-62550990D03*
X217103010Y-59369010D03*
X220284990Y-59369010D03*
X218694000Y-63210000D03*
X218694000Y-58710000D03*
%TD*%
%TO.P,H3,1*%
%TO.N,N/C*%
X120614000Y-125476000D03*
X118364000Y-127726000D03*
X119954990Y-123885010D03*
X116773010Y-127066990D03*
D13*
X118364000Y-125476000D03*
D14*
X116114000Y-125476000D03*
X118364000Y-123226000D03*
X119954990Y-127066990D03*
X116773010Y-123885010D03*
%TD*%
%TO.P,H4,1*%
%TO.N,N/C*%
X220284990Y-123885010D03*
X216444000Y-125476000D03*
X220284990Y-127066990D03*
X218694000Y-127726000D03*
X217103010Y-123885010D03*
X220944000Y-125476000D03*
X218694000Y-123226000D03*
X217103010Y-127066990D03*
D13*
X218694000Y-125476000D03*
%TD*%
D15*
%TO.P,R1,1*%
%TO.N,LED_RED*%
X186182000Y-98568000D03*
%TO.P,R1,2*%
%TO.N,Net-(D1-Pad1)*%
X186182000Y-100568000D03*
%TD*%
%TO.P,R2,1*%
%TO.N,LED_GREEN*%
X192786000Y-98568000D03*
%TO.P,R2,2*%
%TO.N,Net-(D1-Pad4)*%
X192786000Y-100568000D03*
%TD*%
D16*
%TO.P,C2,1*%
%TO.N,+3V3*%
X143234500Y-86969600D03*
%TO.P,C2,2*%
%TO.N,GND*%
X145309500Y-86969600D03*
%TD*%
D17*
%TO.P,U5,1,Pad_38*%
%TO.N,CS_SD_CARD*%
X153650000Y-62230000D03*
%TO.P,U5,2,Pad_37*%
%TO.N,MOSI*%
X153650000Y-64770000D03*
%TO.P,U5,3,Pad_36*%
%TO.N,SCK*%
X153650000Y-67310000D03*
%TO.P,U5,4,Pad_39*%
%TO.N,MISO*%
X153650000Y-69850000D03*
%TO.P,U5,5,Pad_25*%
%TO.N,AA2_10*%
X153650000Y-72390000D03*
%TO.P,U5,6,Pad_26*%
%TO.N,AA6_12*%
X153650000Y-74930000D03*
%TO.P,U5,7,Pad_27*%
%TO.N,AA7_13*%
X153650000Y-77470000D03*
%TO.P,U5,8,Pad_28*%
%TO.N,AA5_15*%
X153650000Y-80010000D03*
%TO.P,U5,9,Pad_29*%
%TO.N,AA3_11*%
X153650000Y-82550000D03*
%TO.P,U5,10,Pad_30*%
%TO.N,AA4_14*%
X153650000Y-85090000D03*
%TO.P,U5,11,Pad_33*%
%TO.N,AA1_8*%
X153650000Y-87630000D03*
%TO.P,U5,12,Pad_34*%
%TO.N,AA0_9*%
X153650000Y-90170000D03*
%TO.P,U5,13,Pad_40*%
%TO.N,DBUS_SEL_N*%
X153650000Y-92710000D03*
%TO.P,U5,14,Pad_35*%
%TO.N,READ_N*%
X153650000Y-95250000D03*
%TO.P,U5,15,Pad_41*%
%TO.N,Z80_IN_N*%
X153650000Y-97790000D03*
%TO.P,U5,16,Pad_42*%
%TO.N,Z80_RD_N*%
X153650000Y-100330000D03*
%TO.P,U5,17,Pad_51*%
%TO.N,Z80_WR_N*%
X153650000Y-102870000D03*
%TO.P,U5,18,Pad_53*%
%TO.N,Z80_OUT_N*%
X153650000Y-105410000D03*
%TO.P,U5,19,Pad_54*%
%TO.N,Z80_RAS_N*%
X153650000Y-107950000D03*
%TO.P,U5,20,Pad_55*%
%TO.N,A0_MUX*%
X153650000Y-110490000D03*
%TO.P,U5,21,Pad_56*%
%TO.N,INT*%
X153650000Y-113030000D03*
%TO.P,U5,22,Pad_57*%
%TO.N,WAIT*%
X153650000Y-115570000D03*
%TO.P,U5,23,Pad_68*%
%TO.N,unconnected-(U5-Pad23)*%
X153650000Y-118110000D03*
%TO.P,U5,24,Pad_69*%
%TO.N,unconnected-(U5-Pad24)*%
X153650000Y-120650000D03*
%TO.P,U5,25,3V3*%
%TO.N,+3V3*%
X176550000Y-120650000D03*
%TO.P,U5,26,GND*%
%TO.N,GND*%
X176550000Y-118110000D03*
%TO.P,U5,27,Pad_32*%
%TO.N,CS_FPGA*%
X176550000Y-115570000D03*
%TO.P,U5,28,Pad_31*%
%TO.N,ESP_S2*%
X176550000Y-113030000D03*
%TO.P,U5,29,Pad_49*%
%TO.N,ESP_S1*%
X176550000Y-110490000D03*
%TO.P,U5,30,Pad_48*%
%TO.N,ESP_S0*%
X176550000Y-107950000D03*
%TO.P,U5,31,5V*%
%TO.N,VU*%
X176550000Y-105410000D03*
%TO.P,U5,32,Pad_70*%
%TO.N,unconnected-(U5-Pad32)*%
X176550000Y-102870000D03*
%TO.P,U5,33,Pad_71*%
%TO.N,unconnected-(U5-Pad33)*%
X176550000Y-100330000D03*
%TO.P,U5,34,Pad_72*%
%TO.N,unconnected-(U5-Pad34)*%
X176550000Y-97790000D03*
%TO.P,U5,35,Pad_73*%
%TO.N,unconnected-(U5-Pad35)*%
X176550000Y-95250000D03*
%TO.P,U5,36,Pad_74*%
%TO.N,unconnected-(U5-Pad36)*%
X176550000Y-92710000D03*
%TO.P,U5,37,Pad_75*%
%TO.N,unconnected-(U5-Pad37)*%
X176550000Y-90170000D03*
%TO.P,U5,38,Pad_76*%
%TO.N,REQ*%
X176550000Y-87630000D03*
%TO.P,U5,39,Pad_77*%
%TO.N,DONE*%
X176550000Y-85090000D03*
%TO.P,U5,40,Pad_79*%
%TO.N,DD4*%
X176550000Y-82550000D03*
%TO.P,U5,41,Pad_80*%
%TO.N,DD7*%
X176550000Y-80010000D03*
%TO.P,U5,42,Pad_81*%
%TO.N,DD1*%
X176550000Y-77470000D03*
%TO.P,U5,43,Pad_82*%
%TO.N,DD6*%
X176550000Y-74930000D03*
%TO.P,U5,44,Pad_83*%
%TO.N,DD3*%
X176550000Y-72390000D03*
%TO.P,U5,45,Pad_84*%
%TO.N,DD5*%
X176550000Y-69850000D03*
%TO.P,U5,46,Pad_85*%
%TO.N,DD0*%
X176550000Y-67310000D03*
%TO.P,U5,47,Pad_86*%
%TO.N,DD2*%
X176550000Y-64770000D03*
%TO.P,U5,48,Pad_63*%
%TO.N,A1_MUX*%
X176550000Y-62230000D03*
%TD*%
D18*
%TO.P,U8,1,GND*%
%TO.N,GND*%
X139598000Y-109764800D03*
D19*
%TO.P,U8,2,VO*%
%TO.N,+1V8*%
X145898000Y-112064800D03*
D18*
X139598000Y-112064800D03*
%TO.P,U8,3,VI*%
%TO.N,+3V3*%
X139598000Y-114364800D03*
%TD*%
D20*
%TO.P,U1,1,VCCA*%
%TO.N,+3V3*%
X136837500Y-77381666D03*
%TO.P,U1,2,DIR*%
%TO.N,READ_N*%
X136837500Y-78031666D03*
%TO.P,U1,3,A1*%
%TO.N,D2*%
X136837500Y-78681666D03*
%TO.P,U1,4,A2*%
%TO.N,D0*%
X136837500Y-79331666D03*
%TO.P,U1,5,A3*%
%TO.N,D5*%
X136837500Y-79981666D03*
%TO.P,U1,6,A4*%
%TO.N,D3*%
X136837500Y-80631666D03*
%TO.P,U1,7,A5*%
%TO.N,D6*%
X136837500Y-81281666D03*
%TO.P,U1,8,A6*%
%TO.N,D1*%
X136837500Y-81931666D03*
%TO.P,U1,9,A7*%
%TO.N,D7*%
X136837500Y-82581666D03*
%TO.P,U1,10,A8*%
%TO.N,D4*%
X136837500Y-83231666D03*
%TO.P,U1,11,GND*%
%TO.N,GND*%
X136837500Y-83881666D03*
%TO.P,U1,12,GND*%
X136837500Y-84531666D03*
%TO.P,U1,13,GND*%
X142562500Y-84531666D03*
%TO.P,U1,14,B8*%
%TO.N,DD4*%
X142562500Y-83881666D03*
%TO.P,U1,15,B7*%
%TO.N,DD7*%
X142562500Y-83231666D03*
%TO.P,U1,16,B6*%
%TO.N,DD1*%
X142562500Y-82581666D03*
%TO.P,U1,17,B5*%
%TO.N,DD6*%
X142562500Y-81931666D03*
%TO.P,U1,18,B4*%
%TO.N,DD3*%
X142562500Y-81281666D03*
%TO.P,U1,19,B3*%
%TO.N,DD5*%
X142562500Y-80631666D03*
%TO.P,U1,20,B2*%
%TO.N,DD0*%
X142562500Y-79981666D03*
%TO.P,U1,21,B1*%
%TO.N,DD2*%
X142562500Y-79331666D03*
%TO.P,U1,22,OEn*%
%TO.N,DBUS_SEL_N*%
X142562500Y-78681666D03*
%TO.P,U1,23,VCCB*%
%TO.N,+1V8*%
X142562500Y-78031666D03*
%TO.P,U1,24,VCCB*%
X142562500Y-77381666D03*
%TD*%
D16*
%TO.P,C1,1*%
%TO.N,+3V3*%
X143234500Y-64770000D03*
%TO.P,C1,2*%
%TO.N,GND*%
X145309500Y-64770000D03*
%TD*%
D10*
%TO.P,J4,1,Pin_1*%
%TO.N,+5V*%
X214371000Y-71120000D03*
D11*
%TO.P,J4,2,Pin_2*%
%TO.N,VU*%
X216911000Y-71120000D03*
%TD*%
D21*
%TO.P,U6,1,GPIO6*%
%TO.N,unconnected-(U6-Pad1)*%
X182880000Y-62645000D03*
D22*
%TO.P,U6,2,GPIO7*%
%TO.N,unconnected-(U6-Pad2)*%
X182880000Y-65185000D03*
%TO.P,U6,3,GPIO8*%
%TO.N,unconnected-(U6-Pad3)*%
X182880000Y-67725000D03*
%TO.P,U6,4,GPIO15*%
%TO.N,AA3_11*%
X182880000Y-70265000D03*
%TO.P,U6,5,GPIO2*%
%TO.N,unconnected-(U6-Pad5)*%
X182880000Y-72805000D03*
%TO.P,U6,6,GPIO0*%
%TO.N,unconnected-(U6-Pad6)*%
X182880000Y-75345000D03*
%TO.P,U6,7,GPIO4*%
%TO.N,LED_GREEN*%
X182880000Y-77885000D03*
%TO.P,U6,8,GPIO16*%
%TO.N,ESP_S0*%
X182880000Y-80425000D03*
%TO.P,U6,9,GPIO17*%
%TO.N,ESP_S1*%
X182880000Y-82965000D03*
%TO.P,U6,10,GPIO5*%
%TO.N,LED_RED*%
X182880000Y-85505000D03*
%TO.P,U6,11,GPIO18*%
%TO.N,ESP_S2*%
X182880000Y-88045000D03*
%TO.P,U6,12,GPIO19*%
%TO.N,EI*%
X182880000Y-90585000D03*
%TO.P,U6,13,GND*%
%TO.N,GND*%
X182880000Y-93125000D03*
%TO.P,U6,14,GPIO21*%
%TO.N,MOSI*%
X182880000Y-95665000D03*
%TO.P,U6,15,GPIO3*%
%TO.N,unconnected-(U6-Pad15)*%
X182880000Y-98205000D03*
%TO.P,U6,16,GPIO1*%
%TO.N,unconnected-(U6-Pad16)*%
X182880000Y-100745000D03*
%TO.P,U6,17,GPIO22*%
%TO.N,MISO*%
X182880000Y-103285000D03*
%TO.P,U6,18,GPIO23*%
%TO.N,CS_SD_CARD*%
X182880000Y-105825000D03*
%TO.P,U6,19,GND*%
%TO.N,GND*%
X182880000Y-108365000D03*
%TO.P,U6,20,3V3*%
%TO.N,unconnected-(U6-Pad20)*%
X205740000Y-108365000D03*
%TO.P,U6,21,RESET*%
%TO.N,unconnected-(U6-Pad21)*%
X205740000Y-105825000D03*
%TO.P,U6,22,GPIO36*%
%TO.N,unconnected-(U6-Pad22)*%
X205740000Y-103285000D03*
%TO.P,U6,23,GPIO39*%
%TO.N,BUTTON*%
X205740000Y-100745000D03*
%TO.P,U6,24,GPIO34*%
%TO.N,REQ*%
X205740000Y-98205000D03*
%TO.P,U6,25,GPIO35*%
%TO.N,unconnected-(U6-Pad25)*%
X205740000Y-95665000D03*
%TO.P,U6,26,GPIO32*%
%TO.N,LED_BLUE*%
X205740000Y-93125000D03*
%TO.P,U6,27,GPIO33*%
%TO.N,FULL_ADDR*%
X205740000Y-90585000D03*
%TO.P,U6,28,GPIO25*%
%TO.N,SCK*%
X205740000Y-88045000D03*
%TO.P,U6,29,GPIO26*%
%TO.N,CS_FPGA*%
X205740000Y-85505000D03*
%TO.P,U6,30,GPIO27*%
%TO.N,DONE*%
X205740000Y-82965000D03*
%TO.P,U6,31,GPIO14*%
%TO.N,AA2_10*%
X205740000Y-80425000D03*
%TO.P,U6,32,GPIO12*%
%TO.N,AA0_9*%
X205740000Y-77885000D03*
%TO.P,U6,33,GND*%
%TO.N,GND*%
X205740000Y-75345000D03*
%TO.P,U6,34,GPIO13*%
%TO.N,AA1_8*%
X205740000Y-72805000D03*
%TO.P,U6,35,GPIO9*%
%TO.N,unconnected-(U6-Pad35)*%
X205740000Y-70265000D03*
%TO.P,U6,36,GPIO10*%
%TO.N,unconnected-(U6-Pad36)*%
X205740000Y-67725000D03*
%TO.P,U6,37,GPIO11*%
%TO.N,unconnected-(U6-Pad37)*%
X205740000Y-65185000D03*
%TO.P,U6,38,5V*%
%TO.N,+5V*%
X205740000Y-62708500D03*
%TD*%
D23*
%TO.P,R4,1*%
%TO.N,+3V3*%
X202184000Y-100618800D03*
%TO.P,R4,2*%
%TO.N,BUTTON*%
X202184000Y-98618800D03*
%TD*%
D10*
%TO.P,J5,1,Pin_1*%
%TO.N,FULL_ADDR*%
X214376000Y-84074000D03*
D11*
%TO.P,J5,2,Pin_2*%
%TO.N,GND*%
X216916000Y-84074000D03*
%TD*%
D16*
%TO.P,C3,1*%
%TO.N,+3V3*%
X143234500Y-97790000D03*
%TO.P,C3,2*%
%TO.N,GND*%
X145309500Y-97790000D03*
%TD*%
D10*
%TO.P,J3,1,Pin_1*%
%TO.N,EI*%
X214371000Y-77470000D03*
D11*
%TO.P,J3,2,Pin_2*%
%TO.N,GND*%
X216911000Y-77470000D03*
%TD*%
D24*
%TO.P,C4,1*%
%TO.N,+1V8*%
X136436500Y-110998000D03*
%TO.P,C4,2*%
%TO.N,GND*%
X133311500Y-110998000D03*
%TD*%
D25*
%TO.P,Q1,1,G*%
%TO.N,WAIT*%
X131028400Y-123771900D03*
%TO.P,Q1,2,S*%
%TO.N,GND*%
X132928400Y-123771900D03*
%TO.P,Q1,3,D*%
%TO.N,WAIT_N*%
X131978400Y-121896900D03*
%TD*%
D15*
%TO.P,R3,1*%
%TO.N,LED_BLUE*%
X189484000Y-98568000D03*
%TO.P,R3,2*%
%TO.N,Net-(D1-Pad3)*%
X189484000Y-100568000D03*
%TD*%
D26*
%TO.P,U2,1,A->B*%
%TO.N,+3V3*%
X136200000Y-66925000D03*
%TO.P,U2,2,A0*%
%TO.N,A2*%
X136200000Y-67575000D03*
%TO.P,U2,3,A1*%
%TO.N,A6*%
X136200000Y-68225000D03*
%TO.P,U2,4,A2*%
%TO.N,A7*%
X136200000Y-68875000D03*
%TO.P,U2,5,A3*%
%TO.N,A5*%
X136200000Y-69525000D03*
%TO.P,U2,6,A4*%
%TO.N,A3*%
X136200000Y-70175000D03*
%TO.P,U2,7,A5*%
%TO.N,A4*%
X136200000Y-70825000D03*
%TO.P,U2,8,A6*%
%TO.N,A1*%
X136200000Y-71475000D03*
%TO.P,U2,9,A7*%
%TO.N,A0*%
X136200000Y-72125000D03*
%TO.P,U2,10,GND*%
%TO.N,GND*%
X136200000Y-72775000D03*
%TO.P,U2,11,B7*%
%TO.N,AA0_9*%
X143200000Y-72775000D03*
%TO.P,U2,12,B6*%
%TO.N,AA1_8*%
X143200000Y-72125000D03*
%TO.P,U2,13,B5*%
%TO.N,AA4_14*%
X143200000Y-71475000D03*
%TO.P,U2,14,B4*%
%TO.N,AA3_11*%
X143200000Y-70825000D03*
%TO.P,U2,15,B3*%
%TO.N,AA5_15*%
X143200000Y-70175000D03*
%TO.P,U2,16,B2*%
%TO.N,AA7_13*%
X143200000Y-69525000D03*
%TO.P,U2,17,B1*%
%TO.N,AA6_12*%
X143200000Y-68875000D03*
%TO.P,U2,18,B0*%
%TO.N,AA2_10*%
X143200000Y-68225000D03*
%TO.P,U2,19,CE*%
%TO.N,A1_MUX*%
X143200000Y-67575000D03*
%TO.P,U2,20,VCC*%
%TO.N,+3V3*%
X143200000Y-66925000D03*
%TD*%
D10*
%TO.P,J6,1,Pin_1*%
%TO.N,unconnected-(J6-Pad1)*%
X208280000Y-108370000D03*
D11*
%TO.P,J6,2,Pin_2*%
%TO.N,unconnected-(J6-Pad2)*%
X208280000Y-105830000D03*
%TO.P,J6,3,Pin_3*%
%TO.N,unconnected-(J6-Pad3)*%
X208280000Y-103290000D03*
%TO.P,J6,4,Pin_4*%
%TO.N,BUTTON*%
X208280000Y-100750000D03*
%TO.P,J6,5,Pin_5*%
%TO.N,REQ*%
X208280000Y-98210000D03*
%TO.P,J6,6,Pin_6*%
%TO.N,unconnected-(J6-Pad6)*%
X208280000Y-95670000D03*
%TO.P,J6,7,Pin_7*%
%TO.N,LED_BLUE*%
X208280000Y-93130000D03*
%TO.P,J6,8,Pin_8*%
%TO.N,FULL_ADDR*%
X208280000Y-90590000D03*
%TO.P,J6,9,Pin_9*%
%TO.N,SCK*%
X208280000Y-88050000D03*
%TO.P,J6,10,Pin_10*%
%TO.N,CS_FPGA*%
X208280000Y-85510000D03*
%TO.P,J6,11,Pin_11*%
%TO.N,DONE*%
X208280000Y-82970000D03*
%TO.P,J6,12,Pin_12*%
%TO.N,AA2_10*%
X208280000Y-80430000D03*
%TO.P,J6,13,Pin_13*%
%TO.N,AA0_9*%
X208280000Y-77890000D03*
%TO.P,J6,14,Pin_14*%
%TO.N,GND*%
X208280000Y-75350000D03*
%TO.P,J6,15,Pin_15*%
%TO.N,AA1_8*%
X208280000Y-72810000D03*
%TO.P,J6,16,Pin_16*%
%TO.N,unconnected-(J6-Pad16)*%
X208280000Y-70270000D03*
%TO.P,J6,17,Pin_17*%
%TO.N,unconnected-(J6-Pad17)*%
X208280000Y-67730000D03*
%TO.P,J6,18,Pin_18*%
%TO.N,unconnected-(J6-Pad18)*%
X208280000Y-65190000D03*
%TO.P,J6,19,Pin_19*%
%TO.N,+5V*%
X208280000Y-62650000D03*
%TD*%
D25*
%TO.P,Q2,1,G*%
%TO.N,INT*%
X126507200Y-123771900D03*
%TO.P,Q2,2,S*%
%TO.N,GND*%
X128407200Y-123771900D03*
%TO.P,Q2,3,D*%
%TO.N,INT_N*%
X127457200Y-121896900D03*
%TD*%
D27*
%TO.P,D1,1,RA*%
%TO.N,Net-(D1-Pad1)*%
X142900400Y-123748800D03*
D28*
%TO.P,D1,2,K*%
%TO.N,GND*%
X141630400Y-123748800D03*
%TO.P,D1,3,BA*%
%TO.N,Net-(D1-Pad3)*%
X140360400Y-123748800D03*
%TO.P,D1,4,GA*%
%TO.N,Net-(D1-Pad4)*%
X139090400Y-123748800D03*
%TD*%
D26*
%TO.P,U3,1,A->B*%
%TO.N,+3V3*%
X136200000Y-99945000D03*
%TO.P,U3,2,A0*%
%TO.N,A9*%
X136200000Y-100595000D03*
%TO.P,U3,3,A1*%
%TO.N,A8*%
X136200000Y-101245000D03*
%TO.P,U3,4,A2*%
%TO.N,A14*%
X136200000Y-101895000D03*
%TO.P,U3,5,A3*%
%TO.N,A11*%
X136200000Y-102545000D03*
%TO.P,U3,6,A4*%
%TO.N,A15*%
X136200000Y-103195000D03*
%TO.P,U3,7,A5*%
%TO.N,A13*%
X136200000Y-103845000D03*
%TO.P,U3,8,A6*%
%TO.N,A12*%
X136200000Y-104495000D03*
%TO.P,U3,9,A7*%
%TO.N,A10*%
X136200000Y-105145000D03*
%TO.P,U3,10,GND*%
%TO.N,GND*%
X136200000Y-105795000D03*
%TO.P,U3,11,B7*%
%TO.N,AA2_10*%
X143200000Y-105795000D03*
%TO.P,U3,12,B6*%
%TO.N,AA6_12*%
X143200000Y-105145000D03*
%TO.P,U3,13,B5*%
%TO.N,AA7_13*%
X143200000Y-104495000D03*
%TO.P,U3,14,B4*%
%TO.N,AA5_15*%
X143200000Y-103845000D03*
%TO.P,U3,15,B3*%
%TO.N,AA3_11*%
X143200000Y-103195000D03*
%TO.P,U3,16,B2*%
%TO.N,AA4_14*%
X143200000Y-102545000D03*
%TO.P,U3,17,B1*%
%TO.N,AA1_8*%
X143200000Y-101895000D03*
%TO.P,U3,18,B0*%
%TO.N,AA0_9*%
X143200000Y-101245000D03*
%TO.P,U3,19,CE*%
%TO.N,A0_MUX*%
X143200000Y-100595000D03*
%TO.P,U3,20,VCC*%
%TO.N,+3V3*%
X143200000Y-99945000D03*
%TD*%
D29*
%TO.P,SW1,1,1*%
%TO.N,GND*%
X219405200Y-102158800D03*
X219405200Y-108658800D03*
%TO.P,SW1,2,2*%
%TO.N,BUTTON*%
X214905200Y-102158800D03*
X214905200Y-108658800D03*
%TD*%
D26*
%TO.P,U4,1,A->B*%
%TO.N,+3V3*%
X136200000Y-89138332D03*
%TO.P,U4,2,A0*%
%TO.N,IN_N*%
X136200000Y-89788332D03*
%TO.P,U4,3,A1*%
%TO.N,RD_N*%
X136200000Y-90438332D03*
%TO.P,U4,4,A2*%
%TO.N,WR_N*%
X136200000Y-91088332D03*
%TO.P,U4,5,A3*%
%TO.N,OUT_N*%
X136200000Y-91738332D03*
%TO.P,U4,6,A4*%
%TO.N,RAS_N*%
X136200000Y-92388332D03*
%TO.P,U4,7,A5*%
%TO.N,GND*%
X136200000Y-93038332D03*
%TO.P,U4,8,A6*%
X136200000Y-93688332D03*
%TO.P,U4,9,A7*%
X136200000Y-94338332D03*
%TO.P,U4,10,GND*%
X136200000Y-94988332D03*
%TO.P,U4,11,B7*%
%TO.N,unconnected-(U4-Pad11)*%
X143200000Y-94988332D03*
%TO.P,U4,12,B6*%
%TO.N,unconnected-(U4-Pad12)*%
X143200000Y-94338332D03*
%TO.P,U4,13,B5*%
%TO.N,unconnected-(U4-Pad13)*%
X143200000Y-93688332D03*
%TO.P,U4,14,B4*%
%TO.N,Z80_RAS_N*%
X143200000Y-93038332D03*
%TO.P,U4,15,B3*%
%TO.N,Z80_OUT_N*%
X143200000Y-92388332D03*
%TO.P,U4,16,B2*%
%TO.N,Z80_WR_N*%
X143200000Y-91738332D03*
%TO.P,U4,17,B1*%
%TO.N,Z80_RD_N*%
X143200000Y-91088332D03*
%TO.P,U4,18,B0*%
%TO.N,Z80_IN_N*%
X143200000Y-90438332D03*
%TO.P,U4,19,CE*%
%TO.N,GND*%
X143200000Y-89788332D03*
%TO.P,U4,20,VCC*%
%TO.N,+3V3*%
X143200000Y-89138332D03*
%TD*%
D24*
%TO.P,C5,1*%
%TO.N,+3V3*%
X136436500Y-114808000D03*
%TO.P,C5,2*%
%TO.N,GND*%
X133311500Y-114808000D03*
%TD*%
D30*
%TO.N,GND*%
X136194800Y-74422000D03*
X134264400Y-123748800D03*
X146862800Y-86918800D03*
X129641600Y-123698000D03*
X145288000Y-99314000D03*
X136194800Y-97790000D03*
X135636000Y-107950000D03*
X132232400Y-84531200D03*
X133299200Y-116789200D03*
X141579600Y-109778800D03*
X145288000Y-62992000D03*
%TO.N,+3V3*%
X143256000Y-96266000D03*
X133858000Y-66875500D03*
X202184000Y-120497600D03*
X133858000Y-89154000D03*
X133858000Y-77368400D03*
X133858000Y-99895500D03*
X142224980Y-86969600D03*
X134874000Y-113030000D03*
%TO.N,RAS_N*%
X126746000Y-115468400D03*
%TO.N,A10*%
X131572000Y-114147600D03*
%TO.N,A12*%
X130847500Y-110236000D03*
%TO.N,A13*%
X129895600Y-111607600D03*
%TO.N,A15*%
X129171100Y-107696000D03*
%TO.N,A11*%
X128459900Y-105359200D03*
%TO.N,A14*%
X127609600Y-106527600D03*
%TO.N,A8*%
X131724400Y-101170500D03*
%TO.N,OUT_N*%
X126021500Y-104038400D03*
%TO.N,WR_N*%
X125222000Y-100228400D03*
%TO.N,RD_N*%
X129076200Y-97732600D03*
%TO.N,A9*%
X133008310Y-95199200D03*
%TO.N,D4*%
X125780800Y-96367600D03*
%TO.N,IN_N*%
X129082800Y-92506800D03*
%TO.N,D7*%
X125780800Y-93827600D03*
%TO.N,D1*%
X125831600Y-91287600D03*
%TO.N,D6*%
X125831600Y-88747600D03*
%TO.N,A0*%
X124307600Y-84937600D03*
%TO.N,D3*%
X125831600Y-86207600D03*
%TO.N,A1*%
X123698000Y-82448400D03*
%TO.N,D5*%
X125831600Y-83667600D03*
%TO.N,D0*%
X125069600Y-81178400D03*
%TO.N,A4*%
X122885200Y-77368400D03*
%TO.N,D2*%
X125069600Y-78943200D03*
%TO.N,WAIT*%
X131013200Y-127050800D03*
%TO.N,+1V8*%
X142544800Y-76555600D03*
X138029346Y-76606400D03*
%TO.N,AA0_9*%
X198374000Y-89154000D03*
%TO.N,AA1_8*%
X197612000Y-86614000D03*
%TO.N,SCK*%
X195580000Y-66294000D03*
X195580000Y-90424000D03*
%TO.N,MOSI*%
X161098500Y-96266000D03*
%TO.N,READ_N*%
X135178800Y-78106166D03*
%TO.N,MISO*%
X160528000Y-103632000D03*
%TO.N,DD3*%
X148215940Y-73710800D03*
%TO.N,DD4*%
X148215940Y-83921600D03*
%TO.N,DD5*%
X146202400Y-73507600D03*
%TO.N,DD6*%
X148183600Y-76098400D03*
%TO.N,DD7*%
X148215940Y-81127600D03*
%TO.N,DD2*%
X144673400Y-73474500D03*
%TO.N,DD0*%
X145397900Y-74338267D03*
%TO.N,DD1*%
X148215940Y-78790800D03*
%TO.N,A1_MUX*%
X147574000Y-63500000D03*
%TO.N,DBUS_SEL_N*%
X143948900Y-78607166D03*
%TO.N,LED_BLUE*%
X189484000Y-93116400D03*
%TO.N,CS_SD_CARD*%
X161798000Y-106426000D03*
%TO.N,INT*%
X126492000Y-125984000D03*
%TO.N,CS_FPGA*%
X211519500Y-115570000D03*
%TO.N,REQ*%
X174244000Y-96965500D03*
%TD*%
D31*
%TO.N,+5V*%
X208280000Y-62650000D02*
X213272000Y-62650000D01*
X213272000Y-62650000D02*
X214376000Y-63754000D01*
X214376000Y-63754000D02*
X214371000Y-63759000D01*
X214371000Y-63759000D02*
X214371000Y-71120000D01*
D32*
%TO.N,GND*%
X133311500Y-110274500D02*
X133311500Y-110998000D01*
X135636000Y-107950000D02*
X133311500Y-110274500D01*
D33*
X136200000Y-94988332D02*
X136200000Y-97784800D01*
X145389600Y-89357200D02*
X145389600Y-87049700D01*
X145389600Y-87049700D02*
X145309500Y-86969600D01*
X132232866Y-84531666D02*
X132232400Y-84531200D01*
D32*
X136200000Y-105795000D02*
X136200000Y-107386000D01*
D33*
X116179600Y-107848400D02*
X118059200Y-107848400D01*
D32*
X145309500Y-63013500D02*
X145288000Y-62992000D01*
D33*
X143200000Y-89788332D02*
X144958468Y-89788332D01*
D32*
X145309500Y-64770000D02*
X145309500Y-63013500D01*
X145309500Y-99292500D02*
X145288000Y-99314000D01*
D33*
X118059200Y-107848400D02*
X119278400Y-109067600D01*
X136200000Y-74416800D02*
X136194800Y-74422000D01*
X144983666Y-84531666D02*
X145338800Y-84886800D01*
D31*
X141565600Y-109764800D02*
X141579600Y-109778800D01*
D32*
X133311500Y-114808000D02*
X133311500Y-110998000D01*
D33*
X145338800Y-84886800D02*
X145338800Y-86940300D01*
D32*
X133311500Y-114808000D02*
X133311500Y-116776900D01*
D31*
X139598000Y-109764800D02*
X141565600Y-109764800D01*
D33*
X136200000Y-94338332D02*
X136200000Y-94988332D01*
X145338800Y-86940300D02*
X145309500Y-86969600D01*
X114884200Y-109093000D02*
X114909600Y-109118400D01*
X146812000Y-86969600D02*
X146862800Y-86918800D01*
X128407200Y-123771900D02*
X129567700Y-123771900D01*
X114909600Y-109118400D02*
X116179600Y-107848400D01*
X106984800Y-109093000D02*
X114884200Y-109093000D01*
X134241300Y-123771900D02*
X134264400Y-123748800D01*
X136200000Y-93038332D02*
X136200000Y-93688332D01*
X145309500Y-86969600D02*
X146812000Y-86969600D01*
X142562500Y-84531666D02*
X144983666Y-84531666D01*
D32*
X145309500Y-97790000D02*
X145309500Y-99292500D01*
D33*
X136200000Y-72775000D02*
X136200000Y-74416800D01*
D32*
X133311500Y-116776900D02*
X133299200Y-116789200D01*
D33*
X136837500Y-83881666D02*
X136837500Y-84531666D01*
X136200000Y-97784800D02*
X136194800Y-97790000D01*
D32*
X136200000Y-107386000D02*
X135636000Y-107950000D01*
D33*
X136200000Y-93688332D02*
X136200000Y-94338332D01*
X129567700Y-123771900D02*
X129641600Y-123698000D01*
X132928400Y-123771900D02*
X134241300Y-123771900D01*
X144958468Y-89788332D02*
X145389600Y-89357200D01*
X136837500Y-84531666D02*
X132232866Y-84531666D01*
D32*
%TO.N,+3V3*%
X143234500Y-97790000D02*
X143234500Y-99910500D01*
D31*
X173837600Y-120650000D02*
X176550000Y-120650000D01*
D32*
X143234500Y-66890500D02*
X143200000Y-66925000D01*
D33*
X143234500Y-89103832D02*
X143200000Y-89138332D01*
D31*
X139598000Y-114364800D02*
X139648190Y-114414990D01*
D32*
X143234500Y-96287500D02*
X143256000Y-96266000D01*
D33*
X136200000Y-89138332D02*
X133873668Y-89138332D01*
X133873668Y-89138332D02*
X133858000Y-89154000D01*
X136837500Y-77381666D02*
X133871266Y-77381666D01*
D31*
X172174590Y-114414990D02*
X173126400Y-115366800D01*
X136879700Y-114364800D02*
X136436500Y-114808000D01*
D32*
X136200000Y-66925000D02*
X143200000Y-66925000D01*
D31*
X133858000Y-66875500D02*
X133858210Y-66875290D01*
D32*
X143234500Y-97790000D02*
X143234500Y-96287500D01*
X143234500Y-64770000D02*
X143234500Y-66890500D01*
D31*
X133858000Y-99895500D02*
X133858210Y-99895290D01*
D33*
X143234500Y-86969600D02*
X142224980Y-86969600D01*
D31*
X139598000Y-114364800D02*
X136879700Y-114364800D01*
X134874000Y-113030000D02*
X134874000Y-113245500D01*
X173126400Y-119938800D02*
X173837600Y-120650000D01*
X202184000Y-120497600D02*
X202184000Y-100618800D01*
X173126400Y-115366800D02*
X173126400Y-119938800D01*
X133858210Y-99895290D02*
X135613052Y-99895290D01*
D33*
X133871266Y-77381666D02*
X133858000Y-77368400D01*
D32*
X143234500Y-99910500D02*
X143200000Y-99945000D01*
D33*
X143234500Y-86969600D02*
X143234500Y-89103832D01*
D31*
X139648190Y-114414990D02*
X172174590Y-114414990D01*
X134874000Y-113245500D02*
X136436500Y-114808000D01*
X133858210Y-66875290D02*
X135613052Y-66875290D01*
D33*
%TO.N,RAS_N*%
X136200000Y-92388332D02*
X132858868Y-92388332D01*
X127406400Y-100482400D02*
X126746000Y-101142800D01*
X132858868Y-92388332D02*
X132130800Y-93116400D01*
X132130800Y-93116400D02*
X132130800Y-99822000D01*
X132130800Y-99822000D02*
X131470400Y-100482400D01*
X126746000Y-101142800D02*
X126746000Y-115468400D01*
X131470400Y-100482400D02*
X127406400Y-100482400D01*
%TO.N,SYSRES_N*%
X114935000Y-116713000D02*
X114960400Y-116738400D01*
X116186200Y-115512600D02*
X118103400Y-115512600D01*
X114960400Y-116738400D02*
X116186200Y-115512600D01*
X118103400Y-115512600D02*
X119278400Y-116687600D01*
X106984800Y-116713000D02*
X114935000Y-116713000D01*
%TO.N,A10*%
X116084600Y-112972600D02*
X118103400Y-112972600D01*
X132167200Y-105145000D02*
X136200000Y-105145000D01*
X114884200Y-114173000D02*
X116084600Y-112972600D01*
X118103400Y-112972600D02*
X119278400Y-114147600D01*
X131572000Y-114147600D02*
X131572000Y-105740200D01*
X131572000Y-105740200D02*
X132167200Y-105145000D01*
X106984800Y-114173000D02*
X114884200Y-114173000D01*
%TO.N,A12*%
X130847500Y-110236000D02*
X130810000Y-110198500D01*
X130810000Y-110198500D02*
X130810000Y-105054400D01*
X130810000Y-105054400D02*
X131369400Y-104495000D01*
X131369400Y-104495000D02*
X136200000Y-104495000D01*
%TO.N,A13*%
X130556000Y-103835200D02*
X136190200Y-103835200D01*
X118103400Y-110432600D02*
X119278400Y-111607600D01*
X116084600Y-110432600D02*
X118103400Y-110432600D01*
X106984800Y-111633000D02*
X114884200Y-111633000D01*
X114884200Y-111633000D02*
X116084600Y-110432600D01*
X129895600Y-111607600D02*
X129895600Y-104495600D01*
X129895600Y-104495600D02*
X130556000Y-103835200D01*
X136190200Y-103835200D02*
X136200000Y-103845000D01*
%TO.N,A15*%
X129184400Y-107682700D02*
X129184400Y-103784400D01*
X129773800Y-103195000D02*
X136200000Y-103195000D01*
X129171100Y-107696000D02*
X129184400Y-107682700D01*
X129184400Y-103784400D02*
X129773800Y-103195000D01*
%TO.N,A11*%
X128473200Y-103022400D02*
X128950600Y-102545000D01*
X128473200Y-105345900D02*
X128473200Y-103022400D01*
X128950600Y-102545000D02*
X136200000Y-102545000D01*
X128459900Y-105359200D02*
X128473200Y-105345900D01*
%TO.N,A14*%
X114960400Y-106578400D02*
X116186200Y-105352600D01*
X116186200Y-105352600D02*
X118103400Y-105352600D01*
X114935000Y-106553000D02*
X114960400Y-106578400D01*
X127609600Y-102362000D02*
X128076600Y-101895000D01*
X106984800Y-106553000D02*
X114935000Y-106553000D01*
X127609600Y-106527600D02*
X127609600Y-102362000D01*
X128076600Y-101895000D02*
X136200000Y-101895000D01*
X118103400Y-105352600D02*
X119278400Y-106527600D01*
%TO.N,A8*%
X131724400Y-101170500D02*
X131798900Y-101245000D01*
X131798900Y-101245000D02*
X136200000Y-101245000D01*
%TO.N,OUT_N*%
X131680800Y-99205200D02*
X130962400Y-99923600D01*
X118103400Y-102812600D02*
X119278400Y-103987600D01*
X116084600Y-102812600D02*
X118103400Y-102812600D01*
X132391268Y-91738332D02*
X131680800Y-92448800D01*
X131680800Y-92448800D02*
X131680800Y-99205200D01*
X126021500Y-100546500D02*
X126021500Y-104038400D01*
X106984800Y-104013000D02*
X114884200Y-104013000D01*
X130962400Y-99923600D02*
X126644400Y-99923600D01*
X126644400Y-99923600D02*
X126021500Y-100546500D01*
X136200000Y-91738332D02*
X132391268Y-91738332D01*
X114884200Y-104013000D02*
X116084600Y-102812600D01*
%TO.N,WR_N*%
X131230800Y-98740800D02*
X130556000Y-99415600D01*
X130556000Y-99415600D02*
X126339600Y-99415600D01*
X136200000Y-91088332D02*
X131923668Y-91088332D01*
X126339600Y-99415600D02*
X125323600Y-100431600D01*
X131230800Y-91781200D02*
X131230800Y-98740800D01*
X131923668Y-91088332D02*
X131230800Y-91781200D01*
X125323600Y-100431600D02*
X125222000Y-100330000D01*
X125222000Y-100330000D02*
X125222000Y-100228400D01*
%TO.N,INTACK_N*%
X118103400Y-100272600D02*
X119278400Y-101447600D01*
X116135400Y-100272600D02*
X118103400Y-100272600D01*
X106984800Y-101473000D02*
X114935000Y-101473000D01*
X114935000Y-101473000D02*
X116135400Y-100272600D01*
%TO.N,RD_N*%
X129895600Y-96913200D02*
X129895600Y-90982800D01*
X129076200Y-97732600D02*
X129895600Y-96913200D01*
X130440068Y-90438332D02*
X136200000Y-90438332D01*
X129895600Y-90982800D02*
X130440068Y-90438332D01*
%TO.N,MUX*%
X114909600Y-98958400D02*
X116135400Y-97732600D01*
X116135400Y-97732600D02*
X118103400Y-97732600D01*
X118103400Y-97732600D02*
X119278400Y-98907600D01*
X114884200Y-98933000D02*
X114909600Y-98958400D01*
X106984800Y-98933000D02*
X114884200Y-98933000D01*
%TO.N,A9*%
X133437300Y-100620500D02*
X136174500Y-100620500D01*
X132994400Y-100177600D02*
X133437300Y-100620500D01*
X136174500Y-100620500D02*
X136200000Y-100595000D01*
X133008310Y-95199200D02*
X132994400Y-95213110D01*
X132994400Y-95213110D02*
X132994400Y-100177600D01*
%TO.N,D4*%
X116135400Y-95192600D02*
X118103400Y-95192600D01*
X118103400Y-95192600D02*
X119278400Y-96367600D01*
X128342800Y-84727289D02*
X128356600Y-84713489D01*
X127609600Y-96367600D02*
X128342800Y-95634400D01*
X125780800Y-96367600D02*
X127609600Y-96367600D01*
X128342800Y-95634400D02*
X128342800Y-84727289D01*
X106984800Y-96393000D02*
X114935000Y-96393000D01*
X128356600Y-83936600D02*
X129061534Y-83231666D01*
X114935000Y-96393000D02*
X116135400Y-95192600D01*
X128356600Y-84713489D02*
X128356600Y-83936600D01*
X129061534Y-83231666D02*
X136837500Y-83231666D01*
%TO.N,IN_N*%
X136109332Y-89879000D02*
X136200000Y-89788332D01*
X129082800Y-92506800D02*
X129082800Y-90728800D01*
X129082800Y-90728800D02*
X129932600Y-89879000D01*
X129932600Y-89879000D02*
X136109332Y-89879000D01*
%TO.N,D7*%
X127101600Y-93827600D02*
X127892800Y-93036400D01*
X127892800Y-84540893D02*
X127906600Y-84527093D01*
X118103400Y-92652600D02*
X119278400Y-93827600D01*
X114884200Y-93853000D02*
X116084600Y-92652600D01*
X116084600Y-92652600D02*
X118103400Y-92652600D01*
X106984800Y-93853000D02*
X114884200Y-93853000D01*
X127906600Y-83269000D02*
X128593934Y-82581666D01*
X128593934Y-82581666D02*
X136837500Y-82581666D01*
X125780800Y-93827600D02*
X127101600Y-93827600D01*
X127892800Y-93036400D02*
X127892800Y-84540893D01*
X127906600Y-84527093D02*
X127906600Y-83269000D01*
%TO.N,INT_N*%
X117374796Y-91287600D02*
X116738400Y-91287600D01*
X121920000Y-121310400D02*
X121920000Y-92811600D01*
X121920000Y-92811600D02*
X121571000Y-92462600D01*
X118549796Y-92462600D02*
X117374796Y-91287600D01*
X122506500Y-121896900D02*
X121920000Y-121310400D01*
X127457200Y-121896900D02*
X122506500Y-121896900D01*
X121571000Y-92462600D02*
X118549796Y-92462600D01*
%TO.N,D1*%
X114884200Y-91313000D02*
X114909600Y-91338400D01*
X116135400Y-90112600D02*
X118103400Y-90112600D01*
X127442800Y-90489200D02*
X127442800Y-84354497D01*
X125831600Y-91287600D02*
X126644400Y-91287600D01*
X118103400Y-90112600D02*
X119278400Y-91287600D01*
X114909600Y-91338400D02*
X116135400Y-90112600D01*
X127456600Y-82601400D02*
X128126334Y-81931666D01*
X126644400Y-91287600D02*
X127442800Y-90489200D01*
X127456600Y-84340697D02*
X127456600Y-82601400D01*
X127442800Y-84354497D02*
X127456600Y-84340697D01*
X128126334Y-81931666D02*
X136837500Y-81931666D01*
X106984800Y-91313000D02*
X114884200Y-91313000D01*
%TO.N,D6*%
X127709534Y-81281666D02*
X136837500Y-81281666D01*
X114909600Y-88798400D02*
X116135400Y-87572600D01*
X126187200Y-88747600D02*
X126992800Y-87942000D01*
X126992800Y-87942000D02*
X126992800Y-84168101D01*
X118103400Y-87572600D02*
X119278400Y-88747600D01*
X114884200Y-88773000D02*
X114909600Y-88798400D01*
X106984800Y-88773000D02*
X114884200Y-88773000D01*
X125831600Y-88747600D02*
X126187200Y-88747600D01*
X127006600Y-81984600D02*
X127709534Y-81281666D01*
X127006600Y-84154301D02*
X127006600Y-81984600D01*
X116135400Y-87572600D02*
X118103400Y-87572600D01*
X126992800Y-84168101D02*
X127006600Y-84154301D01*
%TO.N,A0*%
X124256800Y-72796400D02*
X124928200Y-72125000D01*
X124423000Y-84822200D02*
X124423000Y-82148095D01*
X124928200Y-72125000D02*
X136200000Y-72125000D01*
X124256800Y-81981895D02*
X124256800Y-72796400D01*
X124307600Y-84937600D02*
X124423000Y-84822200D01*
X124423000Y-82148095D02*
X124256800Y-81981895D01*
%TO.N,D3*%
X118103400Y-85032600D02*
X119278400Y-86207600D01*
X116135400Y-85032600D02*
X118103400Y-85032600D01*
X126542800Y-83353495D02*
X126542800Y-81229200D01*
X126556600Y-83967905D02*
X126556600Y-83367295D01*
X126542800Y-85496400D02*
X126542800Y-83981705D01*
X126556600Y-83367295D02*
X126542800Y-83353495D01*
X126542800Y-83981705D02*
X126556600Y-83967905D01*
X106984800Y-86233000D02*
X114935000Y-86233000D01*
X126542800Y-81229200D02*
X127140334Y-80631666D01*
X125831600Y-86207600D02*
X126542800Y-85496400D01*
X114935000Y-86233000D02*
X116135400Y-85032600D01*
X127140334Y-80631666D02*
X136837500Y-80631666D01*
%TO.N,A1*%
X123698000Y-82448400D02*
X123698000Y-72085200D01*
X124308200Y-71475000D02*
X136200000Y-71475000D01*
X123698000Y-72085200D02*
X124308200Y-71475000D01*
%TO.N,D5*%
X114909600Y-83718400D02*
X116135400Y-82492600D01*
X125882400Y-80568800D02*
X125831600Y-80619600D01*
X126469534Y-79981666D02*
X125882400Y-80568800D01*
X136837500Y-79981666D02*
X126469534Y-79981666D01*
X125831600Y-80619600D02*
X125831600Y-83667600D01*
X116135400Y-82492600D02*
X118103400Y-82492600D01*
X118103400Y-82492600D02*
X119278400Y-83667600D01*
X106984800Y-83693000D02*
X114884200Y-83693000D01*
X114884200Y-83693000D02*
X114909600Y-83718400D01*
%TO.N,D0*%
X114884200Y-81153000D02*
X116084600Y-79952600D01*
X136712500Y-79456666D02*
X125775334Y-79456666D01*
X136837500Y-79331666D02*
X136712500Y-79456666D01*
X125069600Y-80162400D02*
X125069600Y-81178400D01*
X118103400Y-79952600D02*
X119278400Y-81127600D01*
X106984800Y-81153000D02*
X114884200Y-81153000D01*
X116084600Y-79952600D02*
X118103400Y-79952600D01*
X125775334Y-79456666D02*
X125069600Y-80162400D01*
%TO.N,A4*%
X123393200Y-70815200D02*
X136190200Y-70815200D01*
X122885200Y-71323200D02*
X123393200Y-70815200D01*
X122885200Y-77368400D02*
X122885200Y-71323200D01*
X136190200Y-70815200D02*
X136200000Y-70825000D01*
%TO.N,D2*%
X114884200Y-78613000D02*
X116084600Y-77412600D01*
X106984800Y-78613000D02*
X114884200Y-78613000D01*
X136837500Y-78681666D02*
X135628605Y-78681666D01*
X116084600Y-77412600D02*
X118103400Y-77412600D01*
X118103400Y-77412600D02*
X119278400Y-78587600D01*
X135367071Y-78943200D02*
X125069600Y-78943200D01*
X135628605Y-78681666D02*
X135367071Y-78943200D01*
%TO.N,WAIT_N*%
X131978400Y-120853200D02*
X131572000Y-120446800D01*
X122377200Y-119938800D02*
X122377200Y-78232000D01*
X131978400Y-121896900D02*
X131978400Y-120853200D01*
X122885200Y-120446800D02*
X122377200Y-119938800D01*
X117374796Y-76047600D02*
X116738400Y-76047600D01*
X131572000Y-120446800D02*
X122885200Y-120446800D01*
X121513600Y-77368400D02*
X118695596Y-77368400D01*
X122377200Y-78232000D02*
X121513600Y-77368400D01*
X118695596Y-77368400D02*
X117374796Y-76047600D01*
%TO.N,A3*%
X121920000Y-76047600D02*
X122406400Y-75561200D01*
X116135400Y-74872600D02*
X118103400Y-74872600D01*
X122406400Y-75561200D02*
X122406400Y-70735200D01*
X114909600Y-76098400D02*
X116135400Y-74872600D01*
X122406400Y-70735200D02*
X122966600Y-70175000D01*
X114884200Y-76073000D02*
X114909600Y-76098400D01*
X106984800Y-76073000D02*
X114884200Y-76073000D01*
X122966600Y-70175000D02*
X136200000Y-70175000D01*
X119278400Y-76047600D02*
X121920000Y-76047600D01*
X118103400Y-74872600D02*
X119278400Y-76047600D01*
%TO.N,A5*%
X116738400Y-73507600D02*
X117616699Y-73507600D01*
X122448200Y-69525000D02*
X136200000Y-69525000D01*
X121956400Y-74385600D02*
X121956400Y-70016800D01*
X118937499Y-74828400D02*
X121513600Y-74828400D01*
X121956400Y-70016800D02*
X122448200Y-69525000D01*
X121513600Y-74828400D02*
X121956400Y-74385600D01*
X117616699Y-73507600D02*
X118937499Y-74828400D01*
%TO.N,A7*%
X114909600Y-73558400D02*
X116135400Y-72332600D01*
X121951600Y-68875000D02*
X136200000Y-68875000D01*
X119278400Y-73507600D02*
X121081800Y-73507600D01*
X121506400Y-69320200D02*
X121951600Y-68875000D01*
X116135400Y-72332600D02*
X118103400Y-72332600D01*
X106984800Y-73533000D02*
X114884200Y-73533000D01*
X121506400Y-73083000D02*
X121506400Y-69320200D01*
X121081800Y-73507600D02*
X121506400Y-73083000D01*
X114884200Y-73533000D02*
X114909600Y-73558400D01*
X118103400Y-72332600D02*
X119278400Y-73507600D01*
%TO.N,A6*%
X115976400Y-69951600D02*
X115976400Y-69900800D01*
X106984800Y-70993000D02*
X114935000Y-70993000D01*
X118103400Y-69792600D02*
X119278400Y-70967600D01*
X114935000Y-70993000D02*
X115976400Y-69951600D01*
X121513000Y-68225000D02*
X136200000Y-68225000D01*
X121056400Y-70510400D02*
X121056400Y-68681600D01*
X115976400Y-69900800D02*
X116084600Y-69792600D01*
X120599200Y-70967600D02*
X121056400Y-70510400D01*
X116084600Y-69792600D02*
X118103400Y-69792600D01*
X119278400Y-70967600D02*
X120599200Y-70967600D01*
X121056400Y-68681600D02*
X121513000Y-68225000D01*
%TO.N,A2*%
X119888000Y-67767200D02*
X120005200Y-67650000D01*
X119888000Y-67818000D02*
X119888000Y-67767200D01*
X106984800Y-68453000D02*
X114833400Y-68453000D01*
X116033800Y-67252600D02*
X118103400Y-67252600D01*
X114833400Y-68453000D02*
X116033800Y-67252600D01*
X120005200Y-67650000D02*
X136194800Y-67650000D01*
X119278400Y-68427600D02*
X119888000Y-67818000D01*
X118103400Y-67252600D02*
X119278400Y-68427600D01*
%TO.N,WAIT*%
X131013200Y-127050800D02*
X131013200Y-123787100D01*
X131013200Y-123787100D02*
X131028400Y-123771900D01*
D32*
%TO.N,+1V8*%
X142544800Y-77363966D02*
X142562500Y-77381666D01*
X142544800Y-76555600D02*
X142544800Y-77363966D01*
X138328400Y-86913054D02*
X138328400Y-106273600D01*
X138328400Y-106273600D02*
X136436500Y-108165500D01*
D33*
X142562500Y-78031666D02*
X142562500Y-77381666D01*
D32*
X136436500Y-108165500D02*
X136436500Y-110998000D01*
D31*
X145898000Y-112064800D02*
X139598000Y-112064800D01*
D32*
X138328400Y-76905454D02*
X138029346Y-76606400D01*
X138328400Y-86913054D02*
X138328400Y-76905454D01*
D31*
X139598000Y-112064800D02*
X137503300Y-112064800D01*
X137503300Y-112064800D02*
X136436500Y-110998000D01*
D32*
%TO.N,AA0_9*%
X199991000Y-77885000D02*
X205740000Y-77885000D01*
X143200000Y-72775000D02*
X148721000Y-72775000D01*
X141525480Y-100885481D02*
X141884999Y-101245000D01*
X148915440Y-72969440D02*
X148915440Y-89733440D01*
X148915440Y-89733440D02*
X149352000Y-90170000D01*
X198374000Y-89154000D02*
X198374000Y-79502000D01*
X143200000Y-72775000D02*
X141855000Y-72775000D01*
X198374000Y-79502000D02*
X199991000Y-77885000D01*
X149352000Y-90170000D02*
X153650000Y-90170000D01*
X141884999Y-101245000D02*
X143200000Y-101245000D01*
X148721000Y-72775000D02*
X148915440Y-72969440D01*
X141855000Y-72775000D02*
X141525480Y-73104520D01*
X141525480Y-73104520D02*
X141525480Y-100885481D01*
%TO.N,AA1_8*%
X149314960Y-86830960D02*
X150114000Y-87630000D01*
X141823800Y-101895000D02*
X143200000Y-101895000D01*
X149087000Y-72125000D02*
X149314960Y-72352960D01*
X141125961Y-72766359D02*
X141125961Y-101197161D01*
X197612000Y-86614000D02*
X197612000Y-73660000D01*
X150114000Y-87630000D02*
X153650000Y-87630000D01*
X197612000Y-73660000D02*
X198467000Y-72805000D01*
X141767320Y-72125000D02*
X141125961Y-72766359D01*
X143200000Y-72125000D02*
X149087000Y-72125000D01*
X149314960Y-72352960D02*
X149314960Y-86830960D01*
X143200000Y-72125000D02*
X141767320Y-72125000D01*
X198467000Y-72805000D02*
X205740000Y-72805000D01*
X141125961Y-101197161D02*
X141823800Y-101895000D01*
%TO.N,AA4_14*%
X141457319Y-71475000D02*
X140726442Y-72205877D01*
X149714480Y-71736480D02*
X149714480Y-84436480D01*
X149453000Y-71475000D02*
X149714480Y-71736480D01*
X150368000Y-85090000D02*
X153650000Y-85090000D01*
X140726442Y-101813642D02*
X141457800Y-102545000D01*
X140726442Y-72205877D02*
X140726442Y-101813642D01*
X141457800Y-102545000D02*
X143200000Y-102545000D01*
X143200000Y-71475000D02*
X141457319Y-71475000D01*
X143200000Y-71475000D02*
X149453000Y-71475000D01*
X149714480Y-84436480D02*
X150368000Y-85090000D01*
%TO.N,ESP_S0*%
X178562000Y-81534000D02*
X179671000Y-80425000D01*
X178562000Y-106934000D02*
X178562000Y-81534000D01*
X176550000Y-107950000D02*
X177546000Y-107950000D01*
X179671000Y-80425000D02*
X182880000Y-80425000D01*
X177546000Y-107950000D02*
X178562000Y-106934000D01*
%TO.N,ESP_S1*%
X178816000Y-110490000D02*
X179324000Y-109982000D01*
X180687000Y-82965000D02*
X182880000Y-82965000D01*
X179324000Y-109982000D02*
X179324000Y-84328000D01*
X176550000Y-110490000D02*
X178816000Y-110490000D01*
X179324000Y-84328000D02*
X180687000Y-82965000D01*
%TO.N,SCK*%
X195580000Y-66294000D02*
X195580000Y-90424000D01*
%TO.N,MOSI*%
X161290000Y-65786000D02*
X161290000Y-96074500D01*
X161290000Y-96074500D02*
X161098500Y-96266000D01*
X153650000Y-64770000D02*
X160274000Y-64770000D01*
X160274000Y-64770000D02*
X161290000Y-65786000D01*
%TO.N,AA3_11*%
X143200000Y-70825000D02*
X141147319Y-70825000D01*
X140326923Y-71645396D02*
X140326923Y-102480923D01*
X150114000Y-71120000D02*
X150114000Y-81534000D01*
X141147319Y-70825000D02*
X140326923Y-71645396D01*
X141041000Y-103195000D02*
X143200000Y-103195000D01*
X150114000Y-81534000D02*
X151130000Y-82550000D01*
X143200000Y-70825000D02*
X149819000Y-70825000D01*
X149819000Y-70825000D02*
X150114000Y-71120000D01*
X151130000Y-82550000D02*
X153650000Y-82550000D01*
X140326923Y-102480923D02*
X141041000Y-103195000D01*
%TO.N,AA5_15*%
X143200000Y-70175000D02*
X140645000Y-70175000D01*
X140624200Y-103845000D02*
X143200000Y-103845000D01*
X140645000Y-70175000D02*
X139927404Y-70892596D01*
X151130000Y-80010000D02*
X153650000Y-80010000D01*
X150185000Y-70175000D02*
X150693440Y-70683440D01*
X150693440Y-70683440D02*
X150693440Y-79573440D01*
X143200000Y-70175000D02*
X150185000Y-70175000D01*
X139927404Y-103148204D02*
X140624200Y-103845000D01*
X150693440Y-79573440D02*
X151130000Y-80010000D01*
X139927404Y-70892596D02*
X139927404Y-103148204D01*
%TO.N,AA7_13*%
X140258200Y-104495000D02*
X143200000Y-104495000D01*
X139527884Y-70022116D02*
X139527884Y-103764684D01*
X151638000Y-77470000D02*
X153650000Y-77470000D01*
X143200000Y-69525000D02*
X150551000Y-69525000D01*
X143200000Y-69525000D02*
X140025000Y-69525000D01*
X139527884Y-103764684D02*
X140258200Y-104495000D01*
X151092960Y-70066960D02*
X151092960Y-76924960D01*
X140025000Y-69525000D02*
X139527884Y-70022116D01*
X150551000Y-69525000D02*
X151092960Y-70066960D01*
X151092960Y-76924960D02*
X151638000Y-77470000D01*
%TO.N,AA6_12*%
X139760600Y-68875000D02*
X139128365Y-69507235D01*
X152146000Y-74930000D02*
X153650000Y-74930000D01*
X139128365Y-104482765D02*
X139891080Y-105245480D01*
X151492480Y-69196480D02*
X151492480Y-74276480D01*
X139128365Y-69507235D02*
X139128365Y-104482765D01*
X139891080Y-105245480D02*
X143510000Y-105245480D01*
X151171000Y-68875000D02*
X151492480Y-69196480D01*
X143200000Y-68875000D02*
X139760600Y-68875000D01*
X143200000Y-68875000D02*
X151171000Y-68875000D01*
X151492480Y-74276480D02*
X152146000Y-74930000D01*
%TO.N,AA2_10*%
X139519994Y-105795000D02*
X143200000Y-105795000D01*
X152908000Y-72390000D02*
X153650000Y-72390000D01*
X151283000Y-68225000D02*
X151892000Y-68834000D01*
X143200000Y-68225000D02*
X151283000Y-68225000D01*
X138728846Y-105003852D02*
X139519994Y-105795000D01*
X139420000Y-68225000D02*
X138728846Y-68916154D01*
X151892000Y-68834000D02*
X151892000Y-71374000D01*
X143200000Y-68225000D02*
X139420000Y-68225000D01*
X138728846Y-68916154D02*
X138728846Y-105003852D01*
X151892000Y-71374000D02*
X152908000Y-72390000D01*
D33*
%TO.N,READ_N*%
X136763000Y-78106166D02*
X136837500Y-78031666D01*
X135178800Y-78106166D02*
X136763000Y-78106166D01*
D32*
%TO.N,MISO*%
X160528000Y-70866000D02*
X160398989Y-70995011D01*
X160398989Y-103502989D02*
X160528000Y-103632000D01*
X153650000Y-69850000D02*
X159512000Y-69850000D01*
X160398989Y-70995011D02*
X160398989Y-103502989D01*
X159512000Y-69850000D02*
X160528000Y-70866000D01*
D33*
%TO.N,DD3*%
X148215940Y-73710800D02*
X147116800Y-73710800D01*
X146572400Y-80656000D02*
X145946734Y-81281666D01*
X146572400Y-74255200D02*
X146572400Y-80656000D01*
X145946734Y-81281666D02*
X142562500Y-81281666D01*
X147116800Y-73710800D02*
X146572400Y-74255200D01*
%TO.N,DD4*%
X142602434Y-83921600D02*
X142562500Y-83881666D01*
X148215940Y-83921600D02*
X142602434Y-83921600D01*
%TO.N,DD5*%
X146122400Y-80010000D02*
X145500734Y-80631666D01*
X145500734Y-80631666D02*
X142562500Y-80631666D01*
X146122400Y-73587600D02*
X146122400Y-80010000D01*
X146202400Y-73507600D02*
X146122400Y-73587600D01*
%TO.N,DD6*%
X147022400Y-76548400D02*
X147022400Y-81323600D01*
X148183600Y-76098400D02*
X147472400Y-76098400D01*
X146414334Y-81931666D02*
X142562500Y-81931666D01*
X147472400Y-76098400D02*
X147022400Y-76548400D01*
X147022400Y-81323600D02*
X146414334Y-81931666D01*
%TO.N,DD7*%
X147705134Y-83231666D02*
X142562500Y-83231666D01*
X148215940Y-82720860D02*
X147705134Y-83231666D01*
X148215940Y-81127600D02*
X148215940Y-82720860D01*
%TO.N,DD2*%
X144673400Y-73474500D02*
X144673400Y-79049800D01*
X144391534Y-79331666D02*
X142562500Y-79331666D01*
X144673400Y-79049800D02*
X144391534Y-79331666D01*
%TO.N,DD0*%
X145397900Y-79696900D02*
X145113134Y-79981666D01*
X145397900Y-74338267D02*
X145397900Y-79696900D01*
X145113134Y-79981666D02*
X142562500Y-79981666D01*
%TO.N,DD1*%
X146932734Y-82581666D02*
X142562500Y-82581666D01*
X147472400Y-82042000D02*
X146932734Y-82581666D01*
X147472400Y-79197200D02*
X147472400Y-82042000D01*
X148215940Y-78790800D02*
X147878800Y-78790800D01*
X147878800Y-78790800D02*
X147472400Y-79197200D01*
D32*
%TO.N,A1_MUX*%
X147574000Y-67056000D02*
X147055000Y-67575000D01*
X147574000Y-63500000D02*
X147574000Y-67056000D01*
X147055000Y-67575000D02*
X143200000Y-67575000D01*
%TO.N,A0_MUX*%
X153650000Y-110216000D02*
X153650000Y-110490000D01*
X146304000Y-108458000D02*
X151892000Y-108458000D01*
X145830400Y-100872400D02*
X145830400Y-107984400D01*
X151892000Y-108458000D02*
X153650000Y-110216000D01*
X145830400Y-107984400D02*
X146304000Y-108458000D01*
X145553000Y-100595000D02*
X145830400Y-100872400D01*
X143200000Y-100595000D02*
X145553000Y-100595000D01*
D33*
%TO.N,DBUS_SEL_N*%
X142637000Y-78607166D02*
X142562500Y-78681666D01*
X143948900Y-78607166D02*
X142637000Y-78607166D01*
%TO.N,BUTTON*%
X202184000Y-98618800D02*
X202200000Y-98602800D01*
X204478600Y-100745000D02*
X205740000Y-100745000D01*
X204114400Y-100380800D02*
X204478600Y-100745000D01*
X202200000Y-98602800D02*
X203809600Y-98602800D01*
X203809600Y-98602800D02*
X204114400Y-98907600D01*
X204114400Y-98907600D02*
X204114400Y-100380800D01*
D32*
%TO.N,LED_GREEN*%
X191931000Y-77885000D02*
X182880000Y-77885000D01*
X192786000Y-78740000D02*
X192786000Y-98568000D01*
X192786000Y-78740000D02*
X191931000Y-77885000D01*
%TO.N,LED_BLUE*%
X189484000Y-93116400D02*
X189484000Y-98568000D01*
%TO.N,LED_RED*%
X186182000Y-86360000D02*
X186182000Y-98568000D01*
X186182000Y-86360000D02*
X185327000Y-85505000D01*
X185327000Y-85505000D02*
X182880000Y-85505000D01*
D33*
%TO.N,Net-(D1-Pad4)*%
X192786000Y-100568000D02*
X192786000Y-126847600D01*
X139090400Y-127000000D02*
X139090400Y-123748800D01*
X139634800Y-127544400D02*
X139090400Y-127000000D01*
X192089200Y-127544400D02*
X139634800Y-127544400D01*
X192786000Y-126847600D02*
X192089200Y-127544400D01*
%TO.N,Net-(D1-Pad3)*%
X188678400Y-127094400D02*
X140962800Y-127094400D01*
X140360400Y-126492000D02*
X140360400Y-123748800D01*
X140962800Y-127094400D02*
X140360400Y-126492000D01*
X189484000Y-100568000D02*
X189484000Y-126288800D01*
X189484000Y-126288800D02*
X188678400Y-127094400D01*
%TO.N,Net-(D1-Pad1)*%
X142900400Y-126136400D02*
X142900400Y-123748800D01*
X143408400Y-126644400D02*
X142900400Y-126136400D01*
X185267600Y-126644400D02*
X143408400Y-126644400D01*
X186182000Y-100568000D02*
X186182000Y-125730000D01*
X186182000Y-125730000D02*
X185267600Y-126644400D01*
D32*
%TO.N,CS_SD_CARD*%
X161798000Y-63246000D02*
X161798000Y-106426000D01*
X153650000Y-62230000D02*
X160782000Y-62230000D01*
X161544000Y-62992000D02*
X161798000Y-63246000D01*
X160782000Y-62230000D02*
X161544000Y-62992000D01*
D31*
%TO.N,VU*%
X212852000Y-60706000D02*
X216916000Y-64770000D01*
X216916000Y-64770000D02*
X216911000Y-64775000D01*
X171958000Y-104394000D02*
X171958000Y-61976000D01*
X216911000Y-64775000D02*
X216911000Y-71120000D01*
X171958000Y-61976000D02*
X173228000Y-60706000D01*
X176550000Y-105410000D02*
X172974000Y-105410000D01*
X172974000Y-105410000D02*
X171958000Y-104394000D01*
X173228000Y-60706000D02*
X212852000Y-60706000D01*
D33*
%TO.N,INT*%
X126492000Y-123787100D02*
X126507200Y-123771900D01*
X126492000Y-125984000D02*
X126492000Y-123787100D01*
D32*
%TO.N,CS_FPGA*%
X211519500Y-115570000D02*
X211519500Y-86551500D01*
X211519500Y-86551500D02*
X210312000Y-85344000D01*
X210312000Y-85344000D02*
X210146000Y-85510000D01*
X210146000Y-85510000D02*
X208280000Y-85510000D01*
%TO.N,ESP_S2*%
X176550000Y-113030000D02*
X179324000Y-113030000D01*
X180086000Y-89408000D02*
X181449000Y-88045000D01*
X181449000Y-88045000D02*
X182880000Y-88045000D01*
X179324000Y-113030000D02*
X180086000Y-112268000D01*
X180086000Y-112268000D02*
X180086000Y-89408000D01*
%TO.N,REQ*%
X174244000Y-88392000D02*
X175006000Y-87630000D01*
X174244000Y-96965500D02*
X174244000Y-88392000D01*
X175006000Y-87630000D02*
X176550000Y-87630000D01*
%TO.N,Z80_WR_N*%
X147059532Y-91738332D02*
X147408800Y-92087600D01*
X147980400Y-102870000D02*
X153650000Y-102870000D01*
X147408800Y-102298400D02*
X147980400Y-102870000D01*
X143200000Y-91738332D02*
X147059532Y-91738332D01*
X147408800Y-92087600D02*
X147408800Y-102298400D01*
%TO.N,Z80_RD_N*%
X147476332Y-91088332D02*
X147828000Y-91440000D01*
X147828000Y-91440000D02*
X147828000Y-99872800D01*
X148285200Y-100330000D02*
X153650000Y-100330000D01*
X147828000Y-99872800D02*
X148285200Y-100330000D01*
X143200000Y-91088332D02*
X147476332Y-91088332D01*
%TO.N,Z80_RAS_N*%
X146175132Y-93038332D02*
X146608800Y-93472000D01*
X146608800Y-107594400D02*
X146964400Y-107950000D01*
X143200000Y-93038332D02*
X146175132Y-93038332D01*
X146964400Y-107950000D02*
X153650000Y-107950000D01*
X146608800Y-93472000D02*
X146608800Y-107594400D01*
%TO.N,Z80_OUT_N*%
X143200000Y-92388332D02*
X146591932Y-92388332D01*
X147008800Y-92805200D02*
X147008800Y-104946400D01*
X147008800Y-104946400D02*
X147472400Y-105410000D01*
X147472400Y-105410000D02*
X153650000Y-105410000D01*
X146591932Y-92388332D02*
X147008800Y-92805200D01*
%TO.N,Z80_IN_N*%
X143200000Y-90438332D02*
X147791532Y-90438332D01*
X148844000Y-97790000D02*
X153650000Y-97790000D01*
X147791532Y-90438332D02*
X148234400Y-90881200D01*
X148234400Y-90881200D02*
X148234400Y-97180400D01*
X148234400Y-97180400D02*
X148844000Y-97790000D01*
%TD*%
M02*
