M48
; DRILL file {KiCad (6.0.11)} date Tue May  2 12:31:03 2023
; FORMAT={-:-/ absolute / inch / decimal}
; #@! TF.CreationDate,2023-05-02T12:31:03-07:00
; #@! TF.GenerationSoftware,Kicad,Pcbnew,(6.0.11)
; #@! TF.FileFunction,Plated,1,2,PTH
FMAT,2
INCH
; #@! TA.AperFunction,Plated,PTH,ViaDrill
T1C0.0157
; #@! TA.AperFunction,Plated,PTH,ComponentDrill
T2C0.0197
; #@! TA.AperFunction,Plated,PTH,ComponentDrill
T3C0.0315
; #@! TA.AperFunction,Plated,PTH,ComponentDrill
T4C0.0354
; #@! TA.AperFunction,Plated,PTH,ComponentDrill
T5C0.0394
; #@! TA.AperFunction,Plated,PTH,ComponentDrill
T6C0.0433
; #@! TA.AperFunction,Plated,PTH,ComponentDrill
T7C0.1181
%
G90
G05
T1
X4.838Y-3.046
X4.87Y-3.246
X4.894Y-3.344
X4.924Y-3.108
X4.924Y-3.196
X4.93Y-3.946
X4.952Y-3.694
X4.952Y-3.794
X4.954Y-3.294
X4.954Y-3.394
X4.954Y-3.494
X4.954Y-3.594
X4.9615Y-4.096
X4.98Y-4.96
X4.99Y-4.546
X5.024Y-4.194
X5.0575Y-4.148
X5.0817Y-3.8477
X5.082Y-3.642
X5.0855Y-4.24
X5.104Y-4.87
X5.114Y-4.394
X5.1515Y-4.34
X5.158Y-5.002
X5.18Y-4.494
X5.186Y-3.9831
X5.206Y-3.328
X5.2365Y-3.748
X5.248Y-4.598
X5.27Y-2.6329
X5.27Y-3.046
X5.27Y-3.51
X5.27Y-3.9329
X5.286Y-4.872
X5.31Y-4.45
X5.322Y-3.075
X5.34Y-4.25
X5.362Y-2.93
X5.362Y-3.85
X5.4342Y-3.016
X5.574Y-4.322
X5.5994Y-3.424
X5.612Y-3.014
X5.64Y-3.79
X5.6673Y-3.0948
X5.6958Y-2.8927
X5.72Y-2.48
X5.72Y-3.91
X5.7243Y-2.9267
X5.756Y-2.894
X5.782Y-3.422
X5.81Y-2.5
X5.834Y-2.996
X5.8353Y-2.902
X5.8353Y-3.102
X5.8353Y-3.194
X5.8353Y-3.304
X6.32Y-4.08
X6.3425Y-3.79
X6.37Y-4.19
X6.86Y-3.8175
X7.46Y-3.666
X7.7Y-2.61
X7.7Y-3.56
X7.78Y-3.41
X7.81Y-3.51
X7.96Y-4.744
X8.3275Y-4.55
T2
X4.5714Y-2.4
X4.5714Y-4.94
X4.5974Y-2.3374
X4.5974Y-2.4626
X4.5974Y-4.8774
X4.5974Y-5.0026
X4.66Y-2.3114
X4.66Y-2.4886
X4.66Y-4.8514
X4.66Y-5.0286
X4.7226Y-2.3374
X4.7226Y-2.4626
X4.7226Y-4.8774
X4.7226Y-5.0026
X4.7486Y-2.4
X4.7486Y-4.94
X8.5214Y-2.4
X8.5214Y-4.94
X8.5474Y-2.3374
X8.5474Y-2.4626
X8.5474Y-4.8774
X8.5474Y-5.0026
X8.61Y-2.3114
X8.61Y-2.4886
X8.61Y-4.8514
X8.61Y-5.0286
X8.6726Y-2.3374
X8.6726Y-2.4626
X8.6726Y-4.8774
X8.6726Y-5.0026
X8.6986Y-2.4
X8.6986Y-4.94
T3
X6.0492Y-2.45
X6.0492Y-2.55
X6.0492Y-2.65
X6.0492Y-2.75
X6.0492Y-2.85
X6.0492Y-2.95
X6.0492Y-3.05
X6.0492Y-3.15
X6.0492Y-3.25
X6.0492Y-3.35
X6.0492Y-3.45
X6.0492Y-3.55
X6.0492Y-3.65
X6.0492Y-3.75
X6.0492Y-3.85
X6.0492Y-3.95
X6.0492Y-4.05
X6.0492Y-4.15
X6.0492Y-4.25
X6.0492Y-4.35
X6.0492Y-4.45
X6.0492Y-4.55
X6.0492Y-4.65
X6.0492Y-4.75
X6.9508Y-2.45
X6.9508Y-2.55
X6.9508Y-2.65
X6.9508Y-2.75
X6.9508Y-2.85
X6.9508Y-2.95
X6.9508Y-3.05
X6.9508Y-3.15
X6.9508Y-3.25
X6.9508Y-3.35
X6.9508Y-3.45
X6.9508Y-3.55
X6.9508Y-3.65
X6.9508Y-3.75
X6.9508Y-3.85
X6.9508Y-3.95
X6.9508Y-4.05
X6.9508Y-4.15
X6.9508Y-4.25
X6.9508Y-4.35
X6.9508Y-4.45
X6.9508Y-4.55
X6.9508Y-4.65
X6.9508Y-4.75
X7.2Y-2.4663
X7.2Y-2.5663
X7.2Y-2.6663
X7.2Y-2.7663
X7.2Y-2.8663
X7.2Y-2.9663
X7.2Y-3.0663
X7.2Y-3.1663
X7.2Y-3.2663
X7.2Y-3.3663
X7.2Y-3.4663
X7.2Y-3.5663
X7.2Y-3.6663
X7.2Y-3.7663
X7.2Y-3.8663
X7.2Y-3.9663
X7.2Y-4.0663
X7.2Y-4.1663
X7.2Y-4.2663
X8.1Y-2.4688
X8.1Y-2.5663
X8.1Y-2.6663
X8.1Y-2.7663
X8.1Y-2.8663
X8.1Y-2.9663
X8.1Y-3.0663
X8.1Y-3.1663
X8.1Y-3.2663
X8.1Y-3.3663
X8.1Y-3.4663
X8.1Y-3.5663
X8.1Y-3.6663
X8.1Y-3.7663
X8.1Y-3.8663
X8.1Y-3.9663
X8.1Y-4.0663
X8.1Y-4.1663
X8.1Y-4.2663
T4
X5.476Y-4.872
X5.526Y-4.872
X5.576Y-4.872
X5.626Y-4.872
T5
X4.596Y-2.694
X4.596Y-2.794
X4.596Y-2.894
X4.596Y-2.994
X4.596Y-3.094
X4.596Y-3.194
X4.596Y-3.294
X4.596Y-3.394
X4.596Y-3.494
X4.596Y-3.594
X4.596Y-3.694
X4.596Y-3.794
X4.596Y-3.894
X4.596Y-3.994
X4.596Y-4.094
X4.596Y-4.194
X4.596Y-4.294
X4.596Y-4.394
X4.596Y-4.494
X4.596Y-4.594
X4.696Y-2.694
X4.696Y-2.794
X4.696Y-2.894
X4.696Y-2.994
X4.696Y-3.094
X4.696Y-3.194
X4.696Y-3.294
X4.696Y-3.394
X4.696Y-3.494
X4.696Y-3.594
X4.696Y-3.694
X4.696Y-3.794
X4.696Y-3.894
X4.696Y-3.994
X4.696Y-4.094
X4.696Y-4.194
X4.696Y-4.294
X4.696Y-4.394
X4.696Y-4.494
X4.696Y-4.594
X8.2Y-2.4665
X8.2Y-2.5665
X8.2Y-2.6665
X8.2Y-2.7665
X8.2Y-2.8665
X8.2Y-2.9665
X8.2Y-3.0665
X8.2Y-3.1665
X8.2Y-3.2665
X8.2Y-3.3665
X8.2Y-3.4665
X8.2Y-3.5665
X8.2Y-3.6665
X8.2Y-3.7665
X8.2Y-3.8665
X8.2Y-3.9665
X8.2Y-4.0665
X8.2Y-4.1665
X8.2Y-4.2665
X8.4398Y-2.8
X8.4398Y-3.05
X8.44Y-3.31
X8.5398Y-2.8
X8.5398Y-3.05
X8.54Y-3.31
T6
X8.4608Y-4.022
X8.4608Y-4.2779
X8.638Y-4.022
X8.638Y-4.2779
T7
X4.66Y-2.4
X4.66Y-4.94
X8.61Y-2.4
X8.61Y-4.94
T0
M30
