%TF.GenerationSoftware,KiCad,Pcbnew,(6.0.11)*%
%TF.CreationDate,2023-05-02T12:30:58-07:00*%
%TF.ProjectId,TRS-IO-M1,5452532d-494f-42d4-9d31-2e6b69636164,rev?*%
%TF.SameCoordinates,Original*%
%TF.FileFunction,Legend,Top*%
%TF.FilePolarity,Positive*%
%FSLAX46Y46*%
G04 Gerber Fmt 4.6, Leading zero omitted, Abs format (unit mm)*
G04 Created by KiCad (PCBNEW (6.0.11)) date 2023-05-02 12:30:58*
%MOMM*%
%LPD*%
G01*
G04 APERTURE LIST*
%ADD10C,0.300000*%
%ADD11C,0.150000*%
%ADD12C,0.120000*%
G04 APERTURE END LIST*
D10*
X136144000Y-98833714D02*
X136215428Y-98905142D01*
X136144000Y-98976571D01*
X136072571Y-98905142D01*
X136144000Y-98833714D01*
X136144000Y-98976571D01*
X136906000Y-113311714D02*
X136977428Y-113383142D01*
X136906000Y-113454571D01*
X136834571Y-113383142D01*
X136906000Y-113311714D01*
X136906000Y-113454571D01*
X136144000Y-65813714D02*
X136215428Y-65885142D01*
X136144000Y-65956571D01*
X136072571Y-65885142D01*
X136144000Y-65813714D01*
X136144000Y-65956571D01*
X136194800Y-88114914D02*
X136266228Y-88186342D01*
X136194800Y-88257771D01*
X136123371Y-88186342D01*
X136194800Y-88114914D01*
X136194800Y-88257771D01*
X220357628Y-78148571D02*
X220357628Y-77648571D01*
X221143342Y-77434285D02*
X221143342Y-78148571D01*
X219643342Y-78148571D01*
X219643342Y-77434285D01*
X221143342Y-76791428D02*
X219643342Y-76791428D01*
X220722000Y-85859714D02*
X220722000Y-85145428D01*
X221150571Y-86002571D02*
X219650571Y-85502571D01*
X221150571Y-85002571D01*
X221150571Y-83716857D02*
X221150571Y-84574000D01*
X221150571Y-84145428D02*
X219650571Y-84145428D01*
X219864857Y-84288285D01*
X220007714Y-84431142D01*
X220079142Y-84574000D01*
X219650571Y-82359714D02*
X219650571Y-83074000D01*
X220364857Y-83145428D01*
X220293428Y-83074000D01*
X220222000Y-82931142D01*
X220222000Y-82574000D01*
X220293428Y-82431142D01*
X220364857Y-82359714D01*
X220507714Y-82288285D01*
X220864857Y-82288285D01*
X221007714Y-82359714D01*
X221079142Y-82431142D01*
X221150571Y-82574000D01*
X221150571Y-82931142D01*
X221079142Y-83074000D01*
X221007714Y-83145428D01*
X136906000Y-109501714D02*
X136977428Y-109573142D01*
X136906000Y-109644571D01*
X136834571Y-109573142D01*
X136906000Y-109501714D01*
X136906000Y-109644571D01*
D11*
X189622895Y-123259780D02*
X190194323Y-123259780D01*
X189908609Y-124259780D02*
X189908609Y-123259780D01*
X191099085Y-124259780D02*
X190765752Y-123783590D01*
X190527657Y-124259780D02*
X190527657Y-123259780D01*
X190908609Y-123259780D01*
X191003847Y-123307400D01*
X191051466Y-123355019D01*
X191099085Y-123450257D01*
X191099085Y-123593114D01*
X191051466Y-123688352D01*
X191003847Y-123735971D01*
X190908609Y-123783590D01*
X190527657Y-123783590D01*
X191480038Y-124212161D02*
X191622895Y-124259780D01*
X191860990Y-124259780D01*
X191956228Y-124212161D01*
X192003847Y-124164542D01*
X192051466Y-124069304D01*
X192051466Y-123974066D01*
X192003847Y-123878828D01*
X191956228Y-123831209D01*
X191860990Y-123783590D01*
X191670514Y-123735971D01*
X191575276Y-123688352D01*
X191527657Y-123640733D01*
X191480038Y-123545495D01*
X191480038Y-123450257D01*
X191527657Y-123355019D01*
X191575276Y-123307400D01*
X191670514Y-123259780D01*
X191908609Y-123259780D01*
X192051466Y-123307400D01*
X192480038Y-123878828D02*
X193241942Y-123878828D01*
X193718133Y-124259780D02*
X193718133Y-123259780D01*
X194384800Y-123259780D02*
X194575276Y-123259780D01*
X194670514Y-123307400D01*
X194765752Y-123402638D01*
X194813371Y-123593114D01*
X194813371Y-123926447D01*
X194765752Y-124116923D01*
X194670514Y-124212161D01*
X194575276Y-124259780D01*
X194384800Y-124259780D01*
X194289561Y-124212161D01*
X194194323Y-124116923D01*
X194146704Y-123926447D01*
X194146704Y-123593114D01*
X194194323Y-123402638D01*
X194289561Y-123307400D01*
X194384800Y-123259780D01*
X195241942Y-123878828D02*
X196003847Y-123878828D01*
X196480038Y-124259780D02*
X196480038Y-123259780D01*
X196813371Y-123974066D01*
X197146704Y-123259780D01*
X197146704Y-124259780D01*
X198146704Y-124259780D02*
X197575276Y-124259780D01*
X197860990Y-124259780D02*
X197860990Y-123259780D01*
X197765752Y-123402638D01*
X197670514Y-123497876D01*
X197575276Y-123545495D01*
X199241942Y-123593114D02*
X199480038Y-124259780D01*
X199718133Y-123593114D01*
X200622895Y-124259780D02*
X200051466Y-124259780D01*
X200337180Y-124259780D02*
X200337180Y-123259780D01*
X200241942Y-123402638D01*
X200146704Y-123497876D01*
X200051466Y-123545495D01*
X201051466Y-124164542D02*
X201099085Y-124212161D01*
X201051466Y-124259780D01*
X201003847Y-124212161D01*
X201051466Y-124164542D01*
X201051466Y-124259780D01*
X201956228Y-123593114D02*
X201956228Y-124259780D01*
X201718133Y-123212161D02*
X201480038Y-123926447D01*
X202099085Y-123926447D01*
X192432419Y-125869780D02*
X192432419Y-124869780D01*
X192765752Y-125584066D01*
X193099085Y-124869780D01*
X193099085Y-125869780D01*
X194003847Y-125869780D02*
X194003847Y-125345971D01*
X193956228Y-125250733D01*
X193860990Y-125203114D01*
X193670514Y-125203114D01*
X193575276Y-125250733D01*
X194003847Y-125822161D02*
X193908609Y-125869780D01*
X193670514Y-125869780D01*
X193575276Y-125822161D01*
X193527657Y-125726923D01*
X193527657Y-125631685D01*
X193575276Y-125536447D01*
X193670514Y-125488828D01*
X193908609Y-125488828D01*
X194003847Y-125441209D01*
X194384800Y-125203114D02*
X194622895Y-125869780D01*
X194860990Y-125203114D02*
X194622895Y-125869780D01*
X194527657Y-126107876D01*
X194480038Y-126155495D01*
X194384800Y-126203114D01*
X195956228Y-124965019D02*
X196003847Y-124917400D01*
X196099085Y-124869780D01*
X196337180Y-124869780D01*
X196432419Y-124917400D01*
X196480038Y-124965019D01*
X196527657Y-125060257D01*
X196527657Y-125155495D01*
X196480038Y-125298352D01*
X195908609Y-125869780D01*
X196527657Y-125869780D01*
X197146704Y-124869780D02*
X197241942Y-124869780D01*
X197337180Y-124917400D01*
X197384800Y-124965019D01*
X197432419Y-125060257D01*
X197480038Y-125250733D01*
X197480038Y-125488828D01*
X197432419Y-125679304D01*
X197384800Y-125774542D01*
X197337180Y-125822161D01*
X197241942Y-125869780D01*
X197146704Y-125869780D01*
X197051466Y-125822161D01*
X197003847Y-125774542D01*
X196956228Y-125679304D01*
X196908609Y-125488828D01*
X196908609Y-125250733D01*
X196956228Y-125060257D01*
X197003847Y-124965019D01*
X197051466Y-124917400D01*
X197146704Y-124869780D01*
X197860990Y-124965019D02*
X197908609Y-124917400D01*
X198003847Y-124869780D01*
X198241942Y-124869780D01*
X198337180Y-124917400D01*
X198384800Y-124965019D01*
X198432419Y-125060257D01*
X198432419Y-125155495D01*
X198384800Y-125298352D01*
X197813371Y-125869780D01*
X198432419Y-125869780D01*
X198765752Y-124869780D02*
X199384800Y-124869780D01*
X199051466Y-125250733D01*
X199194323Y-125250733D01*
X199289561Y-125298352D01*
X199337180Y-125345971D01*
X199384800Y-125441209D01*
X199384800Y-125679304D01*
X199337180Y-125774542D01*
X199289561Y-125822161D01*
X199194323Y-125869780D01*
X198908609Y-125869780D01*
X198813371Y-125822161D01*
X198765752Y-125774542D01*
D10*
X136753600Y-76430914D02*
X136825028Y-76502342D01*
X136753600Y-76573771D01*
X136682171Y-76502342D01*
X136753600Y-76430914D01*
X136753600Y-76573771D01*
X219629386Y-72405714D02*
X221129386Y-71905714D01*
X219629386Y-71405714D01*
X219629386Y-70905714D02*
X220843672Y-70905714D01*
X220986529Y-70834285D01*
X221057957Y-70762857D01*
X221129386Y-70620000D01*
X221129386Y-70334285D01*
X221057957Y-70191428D01*
X220986529Y-70120000D01*
X220843672Y-70048571D01*
X219629386Y-70048571D01*
D11*
%TO.C,R1*%
X188284380Y-99734666D02*
X187808190Y-100068000D01*
X188284380Y-100306095D02*
X187284380Y-100306095D01*
X187284380Y-99925142D01*
X187332000Y-99829904D01*
X187379619Y-99782285D01*
X187474857Y-99734666D01*
X187617714Y-99734666D01*
X187712952Y-99782285D01*
X187760571Y-99829904D01*
X187808190Y-99925142D01*
X187808190Y-100306095D01*
X188284380Y-98782285D02*
X188284380Y-99353714D01*
X188284380Y-99068000D02*
X187284380Y-99068000D01*
X187427238Y-99163238D01*
X187522476Y-99258476D01*
X187570095Y-99353714D01*
%TO.C,R2*%
X194888380Y-99734666D02*
X194412190Y-100068000D01*
X194888380Y-100306095D02*
X193888380Y-100306095D01*
X193888380Y-99925142D01*
X193936000Y-99829904D01*
X193983619Y-99782285D01*
X194078857Y-99734666D01*
X194221714Y-99734666D01*
X194316952Y-99782285D01*
X194364571Y-99829904D01*
X194412190Y-99925142D01*
X194412190Y-100306095D01*
X193983619Y-99353714D02*
X193936000Y-99306095D01*
X193888380Y-99210857D01*
X193888380Y-98972761D01*
X193936000Y-98877523D01*
X193983619Y-98829904D01*
X194078857Y-98782285D01*
X194174095Y-98782285D01*
X194316952Y-98829904D01*
X194888380Y-99401333D01*
X194888380Y-98782285D01*
%TO.C,C2*%
X147153333Y-87326742D02*
X147105714Y-87374361D01*
X146962857Y-87421980D01*
X146867619Y-87421980D01*
X146724761Y-87374361D01*
X146629523Y-87279123D01*
X146581904Y-87183885D01*
X146534285Y-86993409D01*
X146534285Y-86850552D01*
X146581904Y-86660076D01*
X146629523Y-86564838D01*
X146724761Y-86469600D01*
X146867619Y-86421980D01*
X146962857Y-86421980D01*
X147105714Y-86469600D01*
X147153333Y-86517219D01*
X147534285Y-86517219D02*
X147581904Y-86469600D01*
X147677142Y-86421980D01*
X147915238Y-86421980D01*
X148010476Y-86469600D01*
X148058095Y-86517219D01*
X148105714Y-86612457D01*
X148105714Y-86707695D01*
X148058095Y-86850552D01*
X147486666Y-87421980D01*
X148105714Y-87421980D01*
%TO.C,U5*%
X164338095Y-59582380D02*
X164338095Y-60391904D01*
X164385714Y-60487142D01*
X164433333Y-60534761D01*
X164528571Y-60582380D01*
X164719047Y-60582380D01*
X164814285Y-60534761D01*
X164861904Y-60487142D01*
X164909523Y-60391904D01*
X164909523Y-59582380D01*
X165861904Y-59582380D02*
X165385714Y-59582380D01*
X165338095Y-60058571D01*
X165385714Y-60010952D01*
X165480952Y-59963333D01*
X165719047Y-59963333D01*
X165814285Y-60010952D01*
X165861904Y-60058571D01*
X165909523Y-60153809D01*
X165909523Y-60391904D01*
X165861904Y-60487142D01*
X165814285Y-60534761D01*
X165719047Y-60582380D01*
X165480952Y-60582380D01*
X165385714Y-60534761D01*
X165338095Y-60487142D01*
%TO.C,U8*%
X141986095Y-107017180D02*
X141986095Y-107826704D01*
X142033714Y-107921942D01*
X142081333Y-107969561D01*
X142176571Y-108017180D01*
X142367047Y-108017180D01*
X142462285Y-107969561D01*
X142509904Y-107921942D01*
X142557523Y-107826704D01*
X142557523Y-107017180D01*
X143176571Y-107445752D02*
X143081333Y-107398133D01*
X143033714Y-107350514D01*
X142986095Y-107255276D01*
X142986095Y-107207657D01*
X143033714Y-107112419D01*
X143081333Y-107064800D01*
X143176571Y-107017180D01*
X143367047Y-107017180D01*
X143462285Y-107064800D01*
X143509904Y-107112419D01*
X143557523Y-107207657D01*
X143557523Y-107255276D01*
X143509904Y-107350514D01*
X143462285Y-107398133D01*
X143367047Y-107445752D01*
X143176571Y-107445752D01*
X143081333Y-107493371D01*
X143033714Y-107540990D01*
X142986095Y-107636228D01*
X142986095Y-107826704D01*
X143033714Y-107921942D01*
X143081333Y-107969561D01*
X143176571Y-108017180D01*
X143367047Y-108017180D01*
X143462285Y-107969561D01*
X143509904Y-107921942D01*
X143557523Y-107826704D01*
X143557523Y-107636228D01*
X143509904Y-107540990D01*
X143462285Y-107493371D01*
X143367047Y-107445752D01*
%TO.C,U1*%
X138938095Y-75559046D02*
X138938095Y-76368570D01*
X138985714Y-76463808D01*
X139033333Y-76511427D01*
X139128571Y-76559046D01*
X139319047Y-76559046D01*
X139414285Y-76511427D01*
X139461904Y-76463808D01*
X139509523Y-76368570D01*
X139509523Y-75559046D01*
X140509523Y-76559046D02*
X139938095Y-76559046D01*
X140223809Y-76559046D02*
X140223809Y-75559046D01*
X140128571Y-75701904D01*
X140033333Y-75797142D01*
X139938095Y-75844761D01*
%TO.C,C1*%
X147153333Y-65127142D02*
X147105714Y-65174761D01*
X146962857Y-65222380D01*
X146867619Y-65222380D01*
X146724761Y-65174761D01*
X146629523Y-65079523D01*
X146581904Y-64984285D01*
X146534285Y-64793809D01*
X146534285Y-64650952D01*
X146581904Y-64460476D01*
X146629523Y-64365238D01*
X146724761Y-64270000D01*
X146867619Y-64222380D01*
X146962857Y-64222380D01*
X147105714Y-64270000D01*
X147153333Y-64317619D01*
X148105714Y-65222380D02*
X147534285Y-65222380D01*
X147820000Y-65222380D02*
X147820000Y-64222380D01*
X147724761Y-64365238D01*
X147629523Y-64460476D01*
X147534285Y-64508095D01*
%TO.C,U6*%
X194818095Y-59767380D02*
X194818095Y-60576904D01*
X194865714Y-60672142D01*
X194913333Y-60719761D01*
X195008571Y-60767380D01*
X195199047Y-60767380D01*
X195294285Y-60719761D01*
X195341904Y-60672142D01*
X195389523Y-60576904D01*
X195389523Y-59767380D01*
X196294285Y-59767380D02*
X196103809Y-59767380D01*
X196008571Y-59815000D01*
X195960952Y-59862619D01*
X195865714Y-60005476D01*
X195818095Y-60195952D01*
X195818095Y-60576904D01*
X195865714Y-60672142D01*
X195913333Y-60719761D01*
X196008571Y-60767380D01*
X196199047Y-60767380D01*
X196294285Y-60719761D01*
X196341904Y-60672142D01*
X196389523Y-60576904D01*
X196389523Y-60338809D01*
X196341904Y-60243571D01*
X196294285Y-60195952D01*
X196199047Y-60148333D01*
X196008571Y-60148333D01*
X195913333Y-60195952D01*
X195865714Y-60243571D01*
X195818095Y-60338809D01*
%TO.C,R4*%
X200986380Y-99785466D02*
X200510190Y-100118800D01*
X200986380Y-100356895D02*
X199986380Y-100356895D01*
X199986380Y-99975942D01*
X200034000Y-99880704D01*
X200081619Y-99833085D01*
X200176857Y-99785466D01*
X200319714Y-99785466D01*
X200414952Y-99833085D01*
X200462571Y-99880704D01*
X200510190Y-99975942D01*
X200510190Y-100356895D01*
X200319714Y-98928323D02*
X200986380Y-98928323D01*
X199938761Y-99166419D02*
X200653047Y-99404514D01*
X200653047Y-98785466D01*
%TO.C,C3*%
X147153333Y-98147142D02*
X147105714Y-98194761D01*
X146962857Y-98242380D01*
X146867619Y-98242380D01*
X146724761Y-98194761D01*
X146629523Y-98099523D01*
X146581904Y-98004285D01*
X146534285Y-97813809D01*
X146534285Y-97670952D01*
X146581904Y-97480476D01*
X146629523Y-97385238D01*
X146724761Y-97290000D01*
X146867619Y-97242380D01*
X146962857Y-97242380D01*
X147105714Y-97290000D01*
X147153333Y-97337619D01*
X147486666Y-97242380D02*
X148105714Y-97242380D01*
X147772380Y-97623333D01*
X147915238Y-97623333D01*
X148010476Y-97670952D01*
X148058095Y-97718571D01*
X148105714Y-97813809D01*
X148105714Y-98051904D01*
X148058095Y-98147142D01*
X148010476Y-98194761D01*
X147915238Y-98242380D01*
X147629523Y-98242380D01*
X147534285Y-98194761D01*
X147486666Y-98147142D01*
%TO.C,C4*%
X131151333Y-111609142D02*
X131103714Y-111656761D01*
X130960857Y-111704380D01*
X130865619Y-111704380D01*
X130722761Y-111656761D01*
X130627523Y-111561523D01*
X130579904Y-111466285D01*
X130532285Y-111275809D01*
X130532285Y-111132952D01*
X130579904Y-110942476D01*
X130627523Y-110847238D01*
X130722761Y-110752000D01*
X130865619Y-110704380D01*
X130960857Y-110704380D01*
X131103714Y-110752000D01*
X131151333Y-110799619D01*
X132008476Y-111037714D02*
X132008476Y-111704380D01*
X131770380Y-110656761D02*
X131532285Y-111371047D01*
X132151333Y-111371047D01*
%TO.C,Q1*%
X132035561Y-120740419D02*
X131940323Y-120692800D01*
X131845085Y-120597561D01*
X131702228Y-120454704D01*
X131606990Y-120407085D01*
X131511752Y-120407085D01*
X131559371Y-120645180D02*
X131464133Y-120597561D01*
X131368895Y-120502323D01*
X131321276Y-120311847D01*
X131321276Y-119978514D01*
X131368895Y-119788038D01*
X131464133Y-119692800D01*
X131559371Y-119645180D01*
X131749847Y-119645180D01*
X131845085Y-119692800D01*
X131940323Y-119788038D01*
X131987942Y-119978514D01*
X131987942Y-120311847D01*
X131940323Y-120502323D01*
X131845085Y-120597561D01*
X131749847Y-120645180D01*
X131559371Y-120645180D01*
X132940323Y-120645180D02*
X132368895Y-120645180D01*
X132654609Y-120645180D02*
X132654609Y-119645180D01*
X132559371Y-119788038D01*
X132464133Y-119883276D01*
X132368895Y-119930895D01*
%TO.C,R3*%
X191586380Y-99734666D02*
X191110190Y-100068000D01*
X191586380Y-100306095D02*
X190586380Y-100306095D01*
X190586380Y-99925142D01*
X190634000Y-99829904D01*
X190681619Y-99782285D01*
X190776857Y-99734666D01*
X190919714Y-99734666D01*
X191014952Y-99782285D01*
X191062571Y-99829904D01*
X191110190Y-99925142D01*
X191110190Y-100306095D01*
X190586380Y-99401333D02*
X190586380Y-98782285D01*
X190967333Y-99115619D01*
X190967333Y-98972761D01*
X191014952Y-98877523D01*
X191062571Y-98829904D01*
X191157809Y-98782285D01*
X191395904Y-98782285D01*
X191491142Y-98829904D01*
X191538761Y-98877523D01*
X191586380Y-98972761D01*
X191586380Y-99258476D01*
X191538761Y-99353714D01*
X191491142Y-99401333D01*
%TO.C,U2*%
X138938095Y-64752380D02*
X138938095Y-65561904D01*
X138985714Y-65657142D01*
X139033333Y-65704761D01*
X139128571Y-65752380D01*
X139319047Y-65752380D01*
X139414285Y-65704761D01*
X139461904Y-65657142D01*
X139509523Y-65561904D01*
X139509523Y-64752380D01*
X139938095Y-64847619D02*
X139985714Y-64800000D01*
X140080952Y-64752380D01*
X140319047Y-64752380D01*
X140414285Y-64800000D01*
X140461904Y-64847619D01*
X140509523Y-64942857D01*
X140509523Y-65038095D01*
X140461904Y-65180952D01*
X139890476Y-65752380D01*
X140509523Y-65752380D01*
%TO.C,Q2*%
X127565161Y-120740419D02*
X127469923Y-120692800D01*
X127374685Y-120597561D01*
X127231828Y-120454704D01*
X127136590Y-120407085D01*
X127041352Y-120407085D01*
X127088971Y-120645180D02*
X126993733Y-120597561D01*
X126898495Y-120502323D01*
X126850876Y-120311847D01*
X126850876Y-119978514D01*
X126898495Y-119788038D01*
X126993733Y-119692800D01*
X127088971Y-119645180D01*
X127279447Y-119645180D01*
X127374685Y-119692800D01*
X127469923Y-119788038D01*
X127517542Y-119978514D01*
X127517542Y-120311847D01*
X127469923Y-120502323D01*
X127374685Y-120597561D01*
X127279447Y-120645180D01*
X127088971Y-120645180D01*
X127898495Y-119740419D02*
X127946114Y-119692800D01*
X128041352Y-119645180D01*
X128279447Y-119645180D01*
X128374685Y-119692800D01*
X128422304Y-119740419D01*
X128469923Y-119835657D01*
X128469923Y-119930895D01*
X128422304Y-120073752D01*
X127850876Y-120645180D01*
X128469923Y-120645180D01*
%TO.C,D1*%
X140181104Y-120187979D02*
X140181104Y-119187979D01*
X140419200Y-119187979D01*
X140562057Y-119235599D01*
X140657295Y-119330837D01*
X140704914Y-119426075D01*
X140752533Y-119616551D01*
X140752533Y-119759408D01*
X140704914Y-119949884D01*
X140657295Y-120045122D01*
X140562057Y-120140360D01*
X140419200Y-120187979D01*
X140181104Y-120187979D01*
X141704914Y-120187979D02*
X141133485Y-120187979D01*
X141419200Y-120187979D02*
X141419200Y-119187979D01*
X141323961Y-119330837D01*
X141228723Y-119426075D01*
X141133485Y-119473694D01*
%TO.C,U3*%
X138938095Y-97772380D02*
X138938095Y-98581904D01*
X138985714Y-98677142D01*
X139033333Y-98724761D01*
X139128571Y-98772380D01*
X139319047Y-98772380D01*
X139414285Y-98724761D01*
X139461904Y-98677142D01*
X139509523Y-98581904D01*
X139509523Y-97772380D01*
X139890476Y-97772380D02*
X140509523Y-97772380D01*
X140176190Y-98153333D01*
X140319047Y-98153333D01*
X140414285Y-98200952D01*
X140461904Y-98248571D01*
X140509523Y-98343809D01*
X140509523Y-98581904D01*
X140461904Y-98677142D01*
X140414285Y-98724761D01*
X140319047Y-98772380D01*
X140033333Y-98772380D01*
X139938095Y-98724761D01*
X139890476Y-98677142D01*
%TO.C,SW1*%
X213205961Y-106742133D02*
X213253580Y-106599276D01*
X213253580Y-106361180D01*
X213205961Y-106265942D01*
X213158342Y-106218323D01*
X213063104Y-106170704D01*
X212967866Y-106170704D01*
X212872628Y-106218323D01*
X212825009Y-106265942D01*
X212777390Y-106361180D01*
X212729771Y-106551657D01*
X212682152Y-106646895D01*
X212634533Y-106694514D01*
X212539295Y-106742133D01*
X212444057Y-106742133D01*
X212348819Y-106694514D01*
X212301200Y-106646895D01*
X212253580Y-106551657D01*
X212253580Y-106313561D01*
X212301200Y-106170704D01*
X212253580Y-105837371D02*
X213253580Y-105599276D01*
X212539295Y-105408800D01*
X213253580Y-105218323D01*
X212253580Y-104980228D01*
X213253580Y-104075466D02*
X213253580Y-104646895D01*
X213253580Y-104361180D02*
X212253580Y-104361180D01*
X212396438Y-104456419D01*
X212491676Y-104551657D01*
X212539295Y-104646895D01*
%TO.C,U4*%
X138938095Y-86965712D02*
X138938095Y-87775236D01*
X138985714Y-87870474D01*
X139033333Y-87918093D01*
X139128571Y-87965712D01*
X139319047Y-87965712D01*
X139414285Y-87918093D01*
X139461904Y-87870474D01*
X139509523Y-87775236D01*
X139509523Y-86965712D01*
X140414285Y-87299046D02*
X140414285Y-87965712D01*
X140176190Y-86918093D02*
X139938095Y-87632379D01*
X140557142Y-87632379D01*
%TO.C,C5*%
X130897333Y-115165142D02*
X130849714Y-115212761D01*
X130706857Y-115260380D01*
X130611619Y-115260380D01*
X130468761Y-115212761D01*
X130373523Y-115117523D01*
X130325904Y-115022285D01*
X130278285Y-114831809D01*
X130278285Y-114688952D01*
X130325904Y-114498476D01*
X130373523Y-114403238D01*
X130468761Y-114308000D01*
X130611619Y-114260380D01*
X130706857Y-114260380D01*
X130849714Y-114308000D01*
X130897333Y-114355619D01*
X131802095Y-114260380D02*
X131325904Y-114260380D01*
X131278285Y-114736571D01*
X131325904Y-114688952D01*
X131421142Y-114641333D01*
X131659238Y-114641333D01*
X131754476Y-114688952D01*
X131802095Y-114736571D01*
X131849714Y-114831809D01*
X131849714Y-115069904D01*
X131802095Y-115165142D01*
X131754476Y-115212761D01*
X131659238Y-115260380D01*
X131421142Y-115260380D01*
X131325904Y-115212761D01*
X131278285Y-115165142D01*
D12*
%TO.C,J1*%
X120608400Y-67097600D02*
X115408400Y-67097600D01*
X120608400Y-118017600D02*
X119278400Y-118017600D01*
X118008400Y-115417600D02*
X118008400Y-118017600D01*
X120608400Y-116687600D02*
X120608400Y-118017600D01*
X115408400Y-118017600D02*
X115408400Y-67097600D01*
X120608400Y-115417600D02*
X118008400Y-115417600D01*
X118008400Y-118017600D02*
X115408400Y-118017600D01*
X120608400Y-115417600D02*
X120608400Y-67097600D01*
%TO.C,R1*%
X185447000Y-99340936D02*
X185447000Y-99795064D01*
X186917000Y-99340936D02*
X186917000Y-99795064D01*
%TO.C,R2*%
X192051000Y-99340936D02*
X192051000Y-99795064D01*
X193521000Y-99340936D02*
X193521000Y-99795064D01*
%TO.C,C2*%
X144010748Y-87704600D02*
X144533252Y-87704600D01*
X144010748Y-86234600D02*
X144533252Y-86234600D01*
%TO.C,U5*%
X168140000Y-61490000D02*
X162060001Y-61490000D01*
X162060001Y-61130000D02*
X152150000Y-61130000D01*
X162060001Y-61490000D02*
X162060001Y-61130000D01*
X152150000Y-121750000D02*
X178050000Y-121750000D01*
X152150000Y-61130000D02*
X152150000Y-121750000D01*
X178050000Y-121750000D02*
X178050000Y-61130000D01*
X178050000Y-61130000D02*
X168140000Y-61130000D01*
X168140000Y-61130000D02*
X168140000Y-61490000D01*
%TO.C,U8*%
X144658000Y-108654800D02*
X144658000Y-109914800D01*
X138648000Y-108654800D02*
X144658000Y-108654800D01*
X140898000Y-115474800D02*
X144658000Y-115474800D01*
X144658000Y-115474800D02*
X144658000Y-114214800D01*
%TO.C,U1*%
X139700000Y-76921666D02*
X141900000Y-76921666D01*
X139700000Y-76921666D02*
X136100000Y-76921666D01*
X139700000Y-84991666D02*
X141900000Y-84991666D01*
X139700000Y-84991666D02*
X137500000Y-84991666D01*
%TO.C,C1*%
X144010748Y-64035000D02*
X144533252Y-64035000D01*
X144010748Y-65505000D02*
X144533252Y-65505000D01*
%TO.C,J4*%
X213041000Y-72450000D02*
X213041000Y-71120000D01*
X215641000Y-69790000D02*
X218241000Y-69790000D01*
X215641000Y-72450000D02*
X215641000Y-69790000D01*
X218241000Y-72450000D02*
X218241000Y-69790000D01*
X214371000Y-72450000D02*
X213041000Y-72450000D01*
X215641000Y-72450000D02*
X218241000Y-72450000D01*
%TO.C,U6*%
X184040000Y-61327500D02*
X184040000Y-108307500D01*
X204605400Y-108307500D02*
X204605400Y-61327500D01*
X193767200Y-61315000D02*
X184040000Y-61315000D01*
X204605400Y-61315000D02*
X195767200Y-61315000D01*
X184040000Y-108425000D02*
X204605400Y-108425000D01*
X193767200Y-61289600D02*
G75*
G03*
X195767200Y-61289600I1000000J0D01*
G01*
%TO.C,R4*%
X202919000Y-99845864D02*
X202919000Y-99391736D01*
X201449000Y-99845864D02*
X201449000Y-99391736D01*
%TO.C,J5*%
X218246000Y-85404000D02*
X218246000Y-82744000D01*
X214376000Y-85404000D02*
X213046000Y-85404000D01*
X215646000Y-85404000D02*
X218246000Y-85404000D01*
X215646000Y-85404000D02*
X215646000Y-82744000D01*
X215646000Y-82744000D02*
X218246000Y-82744000D01*
X213046000Y-85404000D02*
X213046000Y-84074000D01*
%TO.C,C3*%
X144010748Y-98525000D02*
X144533252Y-98525000D01*
X144010748Y-97055000D02*
X144533252Y-97055000D01*
%TO.C,J3*%
X218241000Y-78800000D02*
X218241000Y-76140000D01*
X215641000Y-76140000D02*
X218241000Y-76140000D01*
X214371000Y-78800000D02*
X213041000Y-78800000D01*
X215641000Y-78800000D02*
X218241000Y-78800000D01*
X213041000Y-78800000D02*
X213041000Y-77470000D01*
X215641000Y-78800000D02*
X215641000Y-76140000D01*
%TO.C,C4*%
X135585252Y-111908000D02*
X134162748Y-111908000D01*
X135585252Y-110088000D02*
X134162748Y-110088000D01*
%TO.C,G1*%
G36*
X127474560Y-99913246D02*
G01*
X127566084Y-100202983D01*
X127570769Y-100317765D01*
X127525611Y-100665636D01*
X127384362Y-100783016D01*
X127375971Y-100783210D01*
X127139635Y-100671466D01*
X126994772Y-100415637D01*
X126994518Y-100134828D01*
X127045886Y-100043296D01*
X127290477Y-99854430D01*
X127474560Y-99913246D01*
G37*
G36*
X127647398Y-86887937D02*
G01*
X127419648Y-86862777D01*
X127027456Y-86679359D01*
X126671579Y-86342732D01*
X126431147Y-85942950D01*
X126373910Y-85672686D01*
X126397694Y-85560413D01*
X126981983Y-85560413D01*
X127065276Y-85801877D01*
X127303608Y-85998755D01*
X127641841Y-86119416D01*
X128024838Y-86132226D01*
X128362530Y-86025242D01*
X128593936Y-85777247D01*
X128605829Y-85460300D01*
X128475062Y-85250645D01*
X128197331Y-85125482D01*
X127795383Y-85096862D01*
X127390853Y-85159858D01*
X127108865Y-85305997D01*
X126981983Y-85560413D01*
X126397694Y-85560413D01*
X126488383Y-85132307D01*
X126793777Y-84710283D01*
X127233055Y-84428761D01*
X127749181Y-84309886D01*
X128285116Y-84375805D01*
X128783825Y-84648665D01*
X128853189Y-84710026D01*
X129085137Y-85089283D01*
X129171429Y-85585517D01*
X129104838Y-86088599D01*
X128963183Y-86386149D01*
X128640672Y-86653332D01*
X128166066Y-86831715D01*
X128024838Y-86847024D01*
X127647398Y-86887937D01*
G37*
G36*
X128303063Y-93011623D02*
G01*
X128575829Y-93229544D01*
X128634643Y-93469074D01*
X128545921Y-93748305D01*
X128475062Y-93841430D01*
X128189519Y-93981530D01*
X127805093Y-94000135D01*
X127407260Y-93917529D01*
X127081496Y-93753992D01*
X126913279Y-93529809D01*
X126905847Y-93469074D01*
X127025159Y-93227058D01*
X127328423Y-93034842D01*
X127733631Y-92940166D01*
X127819639Y-92937137D01*
X128303063Y-93011623D01*
G37*
G36*
X128637451Y-89193624D02*
G01*
X128963503Y-89524249D01*
X129138203Y-90059765D01*
X129166580Y-90465272D01*
X129121520Y-90976792D01*
X129002399Y-91371418D01*
X128959563Y-91444720D01*
X128718324Y-91650264D01*
X128416257Y-91745130D01*
X128141454Y-91723878D01*
X127982009Y-91581070D01*
X127969721Y-91505844D01*
X128079478Y-91276585D01*
X128268936Y-91140137D01*
X128504716Y-90932787D01*
X128614941Y-90624465D01*
X128611465Y-90287613D01*
X128506140Y-89994673D01*
X128310820Y-89818086D01*
X128053550Y-89823755D01*
X127888850Y-89989276D01*
X127703795Y-90322007D01*
X127604496Y-90567123D01*
X127347340Y-91164789D01*
X127062767Y-91533627D01*
X126713866Y-91710609D01*
X126433267Y-91740278D01*
X126082206Y-91692452D01*
X125839261Y-91501344D01*
X125707531Y-91308079D01*
X125476896Y-90685580D01*
X125494748Y-90012494D01*
X125657649Y-89532889D01*
X125855639Y-89216435D01*
X126097245Y-89092255D01*
X126256078Y-89080593D01*
X126534153Y-89119815D01*
X126632655Y-89284033D01*
X126639878Y-89413053D01*
X126574467Y-89677009D01*
X126389413Y-89745514D01*
X126180385Y-89860119D01*
X126061657Y-90148164D01*
X126055401Y-90525992D01*
X126118022Y-90769411D01*
X126297071Y-91044380D01*
X126512700Y-91073505D01*
X126741512Y-90870062D01*
X126960109Y-90447325D01*
X127029071Y-90252514D01*
X127314294Y-89612730D01*
X127679054Y-89223780D01*
X128127447Y-89081453D01*
X128169198Y-89080593D01*
X128637451Y-89193624D01*
G37*
G36*
X126843646Y-81550430D02*
G01*
X126559304Y-81207288D01*
X126403735Y-80672685D01*
X126424929Y-80526997D01*
X127008382Y-80526997D01*
X127049433Y-80804377D01*
X127115086Y-80892823D01*
X127364772Y-81079053D01*
X127512445Y-81024682D01*
X127569306Y-80723398D01*
X127570769Y-80636090D01*
X127525611Y-80288219D01*
X127384362Y-80170840D01*
X127375971Y-80170645D01*
X127130720Y-80278406D01*
X127008382Y-80526997D01*
X126424929Y-80526997D01*
X126474884Y-80183595D01*
X126742333Y-79793126D01*
X127175665Y-79554385D01*
X127533866Y-79505723D01*
X127969721Y-79505723D01*
X127969721Y-80303629D01*
X127987906Y-80779451D01*
X128048654Y-81031850D01*
X128152915Y-81101535D01*
X128433150Y-80987173D01*
X128585653Y-80674027D01*
X128589245Y-80207004D01*
X128585695Y-80183898D01*
X128556882Y-79814715D01*
X128633269Y-79629654D01*
X128699769Y-79591141D01*
X128914260Y-79617010D01*
X129067803Y-79837507D01*
X129154793Y-80187110D01*
X129169624Y-80600302D01*
X129106691Y-81011561D01*
X128960386Y-81355367D01*
X128860972Y-81475261D01*
X128391743Y-81762475D01*
X127848785Y-81864881D01*
X127364772Y-81799048D01*
X127307590Y-81791270D01*
X126843646Y-81550430D01*
G37*
G36*
X126845181Y-102998731D02*
G01*
X127086317Y-103270319D01*
X127171816Y-103667790D01*
X127138795Y-103865271D01*
X126990935Y-103953734D01*
X126655040Y-103974803D01*
X126631851Y-103974833D01*
X126091886Y-103974833D01*
X126133160Y-103476142D01*
X126192111Y-103134576D01*
X126329279Y-102976472D01*
X126499443Y-102931576D01*
X126845181Y-102998731D01*
G37*
G36*
X129085406Y-87139184D02*
G01*
X129158791Y-87346261D01*
X129166580Y-87541774D01*
X129107696Y-87917118D01*
X128965232Y-88198767D01*
X128957605Y-88206696D01*
X128723086Y-88334263D01*
X128310349Y-88400707D01*
X127827238Y-88415671D01*
X127329124Y-88426594D01*
X127044802Y-88467169D01*
X126922702Y-88549106D01*
X126905847Y-88624898D01*
X126809561Y-88781562D01*
X126673125Y-88783231D01*
X126492678Y-88667427D01*
X126473648Y-88574003D01*
X126387106Y-88454487D01*
X126174433Y-88415671D01*
X125936833Y-88372733D01*
X125849912Y-88190207D01*
X125841973Y-88016718D01*
X125876980Y-87732353D01*
X126029422Y-87628043D01*
X126188661Y-87617765D01*
X126435746Y-87575591D01*
X126463592Y-87431457D01*
X126458804Y-87418289D01*
X126475692Y-87263613D01*
X126706371Y-87218812D01*
X126939685Y-87265737D01*
X126953938Y-87418289D01*
X126955511Y-87526602D01*
X127096299Y-87587880D01*
X127424081Y-87614005D01*
X127756017Y-87617765D01*
X128228457Y-87609736D01*
X128493474Y-87573874D01*
X128609416Y-87492514D01*
X128634643Y-87351797D01*
X128728677Y-87129539D01*
X128900611Y-87085828D01*
X129085406Y-87139184D01*
G37*
G36*
X124379146Y-78973786D02*
G01*
X130363439Y-78973786D01*
X130363439Y-105836613D01*
X124379146Y-105836613D01*
X124379146Y-92405200D01*
X124778098Y-92405200D01*
X124779453Y-94859770D01*
X124783504Y-97062746D01*
X124790237Y-99012532D01*
X124799635Y-100707531D01*
X124811682Y-102146149D01*
X124826361Y-103326789D01*
X124843657Y-104247856D01*
X124863552Y-104907754D01*
X124886031Y-105304887D01*
X124911077Y-105437661D01*
X124911083Y-105437661D01*
X124944714Y-105305396D01*
X124973599Y-104911397D01*
X124997653Y-104259860D01*
X124997965Y-104245100D01*
X125564721Y-104245100D01*
X125597686Y-104698751D01*
X125664443Y-105029806D01*
X125764910Y-105170656D01*
X125775481Y-105171692D01*
X125951787Y-105065242D01*
X125974957Y-104972216D01*
X126095962Y-104872702D01*
X126414356Y-104802766D01*
X126863213Y-104762408D01*
X127375601Y-104751628D01*
X127884594Y-104770425D01*
X128323263Y-104818801D01*
X128624677Y-104896754D01*
X128719537Y-104972216D01*
X128886976Y-105148955D01*
X128981331Y-105171692D01*
X129091342Y-105095231D01*
X129149830Y-104837789D01*
X129166580Y-104373786D01*
X129148828Y-103899948D01*
X129089058Y-103648026D01*
X128981331Y-103575881D01*
X128776035Y-103683149D01*
X128719537Y-103775357D01*
X128526242Y-103926306D01*
X128165344Y-103974833D01*
X127853946Y-103959539D01*
X127728455Y-103861040D01*
X127719396Y-103600412D01*
X127728971Y-103479106D01*
X127772926Y-103169760D01*
X127888442Y-103008057D01*
X128152779Y-102920971D01*
X128359030Y-102883582D01*
X128821621Y-102761937D01*
X129071713Y-102564024D01*
X129161218Y-102242330D01*
X129164544Y-102146299D01*
X129078604Y-101911530D01*
X128887637Y-101845005D01*
X128701135Y-101980069D01*
X128516947Y-102084798D01*
X128309066Y-102113053D01*
X127977021Y-102195752D01*
X127863167Y-102262175D01*
X127690952Y-102362647D01*
X127465565Y-102523766D01*
X127295798Y-102525998D01*
X127051999Y-102367717D01*
X127033993Y-102354417D01*
X126598350Y-102176884D01*
X126158925Y-102238502D01*
X125794331Y-102526661D01*
X125772378Y-102556791D01*
X125669376Y-102824701D01*
X125600486Y-103240463D01*
X125565627Y-103736467D01*
X125564721Y-104245100D01*
X124997965Y-104245100D01*
X125016794Y-103354977D01*
X125030939Y-102200942D01*
X125040004Y-100801951D01*
X125040613Y-100546142D01*
X126444033Y-100546142D01*
X126547058Y-100850653D01*
X126867177Y-101241716D01*
X127331747Y-101478377D01*
X127863167Y-101552634D01*
X128383835Y-101456483D01*
X128816151Y-101181921D01*
X128894849Y-101092792D01*
X129089772Y-100677969D01*
X129170606Y-100149341D01*
X129121019Y-99640454D01*
X129085860Y-99530736D01*
X128900029Y-99350291D01*
X128766054Y-99320383D01*
X128616584Y-99360900D01*
X128569739Y-99528403D01*
X128598144Y-99851048D01*
X128592003Y-100332423D01*
X128441408Y-100657697D01*
X128167323Y-100782978D01*
X128152915Y-100783210D01*
X128043669Y-100704005D01*
X127985721Y-100439417D01*
X127969721Y-99985305D01*
X127969721Y-99187399D01*
X127529352Y-99187399D01*
X127024861Y-99301288D01*
X126706371Y-99560839D01*
X126653000Y-99604333D01*
X126447985Y-100038596D01*
X126444033Y-100546142D01*
X125040613Y-100546142D01*
X125043908Y-99162197D01*
X125044067Y-98721954D01*
X125044067Y-98123524D01*
X125841973Y-98123524D01*
X125877755Y-98408645D01*
X126029859Y-98512950D01*
X126174433Y-98522477D01*
X126441824Y-98591840D01*
X126506894Y-98721954D01*
X126613344Y-98898260D01*
X126706371Y-98921430D01*
X126882849Y-98822689D01*
X126905847Y-98736961D01*
X126990456Y-98626620D01*
X127267683Y-98551855D01*
X127772629Y-98503602D01*
X127820426Y-98500813D01*
X128450836Y-98434077D01*
X128858230Y-98302209D01*
X129082592Y-98079693D01*
X129163906Y-97741016D01*
X129166580Y-97641796D01*
X129134416Y-97327886D01*
X129010126Y-97204706D01*
X128900611Y-97192634D01*
X128678354Y-97286669D01*
X128634643Y-97458603D01*
X128607702Y-97602541D01*
X128487700Y-97682790D01*
X128215867Y-97717433D01*
X127770245Y-97724572D01*
X127285391Y-97711254D01*
X127015908Y-97663669D01*
X126912177Y-97570366D01*
X126905847Y-97525095D01*
X126799398Y-97348789D01*
X126706371Y-97325619D01*
X126530064Y-97432068D01*
X126506894Y-97525095D01*
X126391291Y-97685529D01*
X126174433Y-97724572D01*
X125936833Y-97767510D01*
X125849912Y-97950036D01*
X125841973Y-98123524D01*
X125044067Y-98123524D01*
X125044067Y-94994836D01*
X126399631Y-94994836D01*
X126399770Y-95156345D01*
X126515763Y-95435318D01*
X126536452Y-95472424D01*
X126652792Y-95730806D01*
X126648150Y-95859551D01*
X126633693Y-95862792D01*
X126554287Y-95980784D01*
X126510125Y-96275539D01*
X126506894Y-96394729D01*
X126539833Y-96764601D01*
X126649023Y-96917012D01*
X126706371Y-96926666D01*
X126882677Y-96820216D01*
X126905847Y-96727189D01*
X126963941Y-96614859D01*
X127171349Y-96552661D01*
X127577759Y-96529024D01*
X127762397Y-96527713D01*
X128216354Y-96546923D01*
X128556682Y-96597061D01*
X128701135Y-96660697D01*
X128893547Y-96783060D01*
X128974952Y-96793682D01*
X129097063Y-96713739D01*
X129156072Y-96444782D01*
X129166580Y-96128760D01*
X129143541Y-95705052D01*
X129066028Y-95500300D01*
X128974952Y-95463839D01*
X128748540Y-95544886D01*
X128701135Y-95596823D01*
X128532252Y-95670911D01*
X128186037Y-95719188D01*
X127897915Y-95729807D01*
X127774423Y-95726351D01*
X127476337Y-95718010D01*
X127246934Y-95662642D01*
X127136257Y-95533742D01*
X127094637Y-95402112D01*
X126945061Y-95143611D01*
X126703893Y-94974559D01*
X126468476Y-94952000D01*
X126399631Y-94994836D01*
X125044067Y-94994836D01*
X125044067Y-93328194D01*
X126424471Y-93328194D01*
X126459962Y-93867523D01*
X126506668Y-94000464D01*
X126800813Y-94395174D01*
X127248989Y-94647977D01*
X127774423Y-94749138D01*
X128300343Y-94688923D01*
X128749976Y-94457598D01*
X128900084Y-94303938D01*
X129109193Y-93855674D01*
X129156765Y-93325388D01*
X129037970Y-92835427D01*
X128963183Y-92705927D01*
X128632070Y-92431149D01*
X128149987Y-92258165D01*
X127623057Y-92220631D01*
X127487555Y-92237962D01*
X126974144Y-92448949D01*
X126607824Y-92833848D01*
X126424471Y-93328194D01*
X125044067Y-93328194D01*
X125044067Y-92006247D01*
X129698517Y-92006247D01*
X129698517Y-98721954D01*
X129701136Y-100420351D01*
X129708938Y-101879018D01*
X129721840Y-103093761D01*
X129739758Y-104060386D01*
X129762611Y-104774698D01*
X129790313Y-105232504D01*
X129822784Y-105429609D01*
X129831502Y-105437661D01*
X129856548Y-105304948D01*
X129879028Y-104907876D01*
X129898923Y-104248038D01*
X129916219Y-103327031D01*
X129930899Y-102146450D01*
X129942946Y-100707892D01*
X129952345Y-99012951D01*
X129959079Y-97063224D01*
X129963131Y-94860306D01*
X129964486Y-92405793D01*
X129964486Y-79372739D01*
X124778098Y-79372739D01*
X124778098Y-92405200D01*
X124379146Y-92405200D01*
X124379146Y-78973786D01*
G37*
G36*
X126908611Y-82154190D02*
G01*
X127058758Y-82431378D01*
X127160143Y-82664228D01*
X127307146Y-82782777D01*
X127580672Y-82825300D01*
X127902011Y-82830331D01*
X128372699Y-82802135D01*
X128623851Y-82710543D01*
X128682734Y-82630854D01*
X128860457Y-82453948D01*
X128962930Y-82431378D01*
X129085086Y-82493337D01*
X129148135Y-82713900D01*
X129166565Y-83145093D01*
X129166580Y-83162792D01*
X129155036Y-83585474D01*
X129105123Y-83805668D01*
X128993921Y-83886404D01*
X128900611Y-83894205D01*
X128684516Y-83838515D01*
X128634643Y-83761221D01*
X128512511Y-83691729D01*
X128188978Y-83644150D01*
X127770245Y-83628237D01*
X127290187Y-83640439D01*
X127022850Y-83685516D01*
X126915754Y-83776170D01*
X126905847Y-83837464D01*
X126806142Y-83997244D01*
X126684150Y-84003694D01*
X126520345Y-83873302D01*
X126463101Y-83539748D01*
X126462510Y-83485169D01*
X126483414Y-83131776D01*
X126534466Y-82895677D01*
X126542448Y-82880391D01*
X126549851Y-82669839D01*
X126500156Y-82558013D01*
X126381696Y-82250439D01*
X126475812Y-82068465D01*
X126646796Y-82032425D01*
X126908611Y-82154190D01*
G37*
%TO.C,Q1*%
X133538400Y-122834400D02*
X133538400Y-122184400D01*
X130418400Y-122834400D02*
X130418400Y-124509400D01*
X133538400Y-122834400D02*
X133538400Y-123484400D01*
X130418400Y-122834400D02*
X130418400Y-122184400D01*
%TO.C,R3*%
X190219000Y-99340936D02*
X190219000Y-99795064D01*
X188749000Y-99340936D02*
X188749000Y-99795064D01*
%TO.C,U2*%
X139700000Y-73560000D02*
X142460000Y-73560000D01*
X136940000Y-73560000D02*
X136940000Y-73285000D01*
X136940000Y-66140000D02*
X136940000Y-66415000D01*
X136940000Y-66415000D02*
X135250000Y-66415000D01*
X139700000Y-66140000D02*
X142460000Y-66140000D01*
X139700000Y-73560000D02*
X136940000Y-73560000D01*
X139700000Y-66140000D02*
X136940000Y-66140000D01*
X142460000Y-66140000D02*
X142460000Y-66415000D01*
X142460000Y-73560000D02*
X142460000Y-73285000D01*
%TO.C,J6*%
X209610000Y-109700000D02*
X208280000Y-109700000D01*
X209610000Y-108370000D02*
X209610000Y-109700000D01*
X206950000Y-107100000D02*
X206950000Y-61320000D01*
X209610000Y-107100000D02*
X209610000Y-61320000D01*
X209610000Y-107100000D02*
X206950000Y-107100000D01*
X209610000Y-61320000D02*
X206950000Y-61320000D01*
%TO.C,Q2*%
X125897200Y-122834400D02*
X125897200Y-124509400D01*
X129017200Y-122834400D02*
X129017200Y-123484400D01*
X129017200Y-122834400D02*
X129017200Y-122184400D01*
X125897200Y-122834400D02*
X125897200Y-122184400D01*
%TO.C,D1*%
X143555400Y-122668800D02*
X143555400Y-122203800D01*
X143555400Y-125293800D02*
X143555400Y-124828800D01*
X138207585Y-124829627D02*
G75*
G03*
X143555400Y-125293630I2787815J1080827D01*
G01*
X143555400Y-122203970D02*
G75*
G03*
X138207585Y-122667973I-2560000J-1544830D01*
G01*
X138740921Y-124829229D02*
G75*
G03*
X143250084Y-124828800I2254479J1080429D01*
G01*
X143250084Y-122668800D02*
G75*
G03*
X138740921Y-122668371I-2254684J-1080000D01*
G01*
%TO.C,U3*%
X139700000Y-106580000D02*
X142460000Y-106580000D01*
X139700000Y-99160000D02*
X136940000Y-99160000D01*
X139700000Y-99160000D02*
X142460000Y-99160000D01*
X142460000Y-106580000D02*
X142460000Y-106305000D01*
X136940000Y-99160000D02*
X136940000Y-99435000D01*
X139700000Y-106580000D02*
X136940000Y-106580000D01*
X142460000Y-99160000D02*
X142460000Y-99435000D01*
X136940000Y-99435000D02*
X135250000Y-99435000D01*
X136940000Y-106580000D02*
X136940000Y-106305000D01*
%TO.C,SW1*%
X217905200Y-101908800D02*
X216405200Y-101908800D01*
X213905200Y-103158800D02*
X213905200Y-107658800D01*
X216405200Y-108908800D02*
X217905200Y-108908800D01*
X220405200Y-107658800D02*
X220405200Y-103158800D01*
%TO.C,U4*%
X136940000Y-88353332D02*
X136940000Y-88628332D01*
X139700000Y-88353332D02*
X142460000Y-88353332D01*
X136940000Y-95773332D02*
X136940000Y-95498332D01*
X136940000Y-88628332D02*
X135250000Y-88628332D01*
X142460000Y-95773332D02*
X142460000Y-95498332D01*
X139700000Y-95773332D02*
X136940000Y-95773332D01*
X139700000Y-88353332D02*
X136940000Y-88353332D01*
X142460000Y-88353332D02*
X142460000Y-88628332D01*
X139700000Y-95773332D02*
X142460000Y-95773332D01*
%TO.C,C5*%
X135585252Y-113898000D02*
X134162748Y-113898000D01*
X135585252Y-115718000D02*
X134162748Y-115718000D01*
%TD*%
M02*
