G04 MADE WITH FRITZING*
G04 WWW.FRITZING.ORG*
G04 DOUBLE SIDED*
G04 HOLES PLATED*
G04 CONTOUR ON CENTER OF CONTOUR VECTOR*
%ASAXBY*%
%FSLAX23Y23*%
%MOIN*%
%OFA0B0*%
%SFA1.0B1.0*%
%ADD10C,0.065000*%
%ADD11C,0.075000*%
%ADD12C,0.078000*%
%ADD13C,0.072000*%
%ADD14C,0.071858*%
%ADD15C,0.039370*%
%ADD16R,0.075000X0.075000*%
%ADD17R,0.000000X0.000000*%
%ADD18R,0.072000X0.072000*%
%ADD19C,0.024000*%
%LNCOPPER0*%
G90*
G70*
G54D10*
X933Y2851D03*
X933Y2772D03*
X933Y2693D03*
X933Y2614D03*
G54D11*
X282Y2602D03*
X282Y2858D03*
X459Y2602D03*
X459Y2858D03*
X2433Y993D03*
X2433Y1293D03*
X2533Y993D03*
X2533Y1293D03*
X2633Y993D03*
X2633Y1293D03*
X2733Y993D03*
X2733Y1293D03*
X2833Y993D03*
X2833Y1293D03*
X2933Y993D03*
X2933Y1293D03*
X3033Y993D03*
X3033Y1293D03*
X3133Y993D03*
X3133Y1293D03*
X3233Y993D03*
X3233Y1293D03*
X3333Y993D03*
X3333Y1293D03*
X1233Y993D03*
X1233Y1293D03*
X1333Y993D03*
X1333Y1293D03*
X1433Y993D03*
X1433Y1293D03*
X1533Y993D03*
X1533Y1293D03*
X1633Y993D03*
X1633Y1293D03*
X1733Y993D03*
X1733Y1293D03*
X1833Y993D03*
X1833Y1293D03*
X1933Y993D03*
X1933Y1293D03*
X2033Y993D03*
X2033Y1293D03*
X2133Y993D03*
X2133Y1293D03*
G54D12*
X3233Y393D03*
X3133Y393D03*
X3033Y393D03*
X2933Y393D03*
X2833Y393D03*
X2733Y393D03*
X2633Y393D03*
X2533Y393D03*
X2433Y393D03*
X2333Y393D03*
X2233Y393D03*
X2133Y393D03*
X2033Y393D03*
X1933Y393D03*
X1833Y393D03*
X1733Y393D03*
X1633Y393D03*
X1533Y393D03*
X1433Y393D03*
X1333Y393D03*
X1233Y393D03*
X1133Y393D03*
X1033Y393D03*
X933Y393D03*
X833Y393D03*
X3233Y393D03*
X3133Y393D03*
X3033Y393D03*
X2933Y393D03*
X2833Y393D03*
X2733Y393D03*
X2633Y393D03*
X2533Y393D03*
X2433Y393D03*
X2333Y393D03*
X2233Y393D03*
X2133Y393D03*
X2033Y393D03*
X1933Y393D03*
X1833Y393D03*
X1733Y393D03*
X1633Y393D03*
X1533Y393D03*
X1433Y393D03*
X1333Y393D03*
X1233Y393D03*
X1133Y393D03*
X1033Y393D03*
X933Y393D03*
X833Y393D03*
X833Y293D03*
X933Y293D03*
X1033Y293D03*
X1133Y293D03*
X1233Y293D03*
X1333Y293D03*
X1433Y293D03*
X1533Y293D03*
X1633Y293D03*
X1733Y293D03*
X1833Y293D03*
X1933Y293D03*
X2033Y293D03*
X2133Y293D03*
X2233Y293D03*
X2333Y293D03*
X2433Y293D03*
X2533Y293D03*
X2633Y293D03*
X2733Y293D03*
X2833Y293D03*
X2933Y293D03*
X3033Y293D03*
X3133Y293D03*
X3233Y293D03*
G54D13*
X833Y1492D03*
X833Y1392D03*
X833Y1292D03*
X432Y1493D03*
X432Y1393D03*
X432Y1293D03*
X432Y1093D03*
X432Y993D03*
X432Y893D03*
G54D14*
X1432Y1994D03*
X1533Y1994D03*
X1632Y1994D03*
X1732Y1994D03*
X1832Y1994D03*
X1932Y1994D03*
X2033Y1994D03*
X2132Y1994D03*
X2232Y1994D03*
X2332Y1994D03*
X2432Y1994D03*
X2533Y1994D03*
X2632Y1994D03*
X2732Y1994D03*
X2832Y1994D03*
X2932Y1994D03*
X3032Y1994D03*
X3132Y1994D03*
X3232Y1994D03*
X3232Y2893D03*
X3132Y2893D03*
X3032Y2893D03*
X2932Y2893D03*
X2832Y2893D03*
X2732Y2893D03*
X2632Y2893D03*
X2533Y2893D03*
X2432Y2893D03*
X2332Y2893D03*
X2232Y2893D03*
X2132Y2893D03*
X2033Y2893D03*
X1932Y2893D03*
X1832Y2893D03*
X1732Y2893D03*
X1632Y2893D03*
X1533Y2893D03*
X1432Y2893D03*
G54D11*
X233Y1993D03*
X233Y2293D03*
X333Y1993D03*
X333Y2293D03*
X433Y1993D03*
X433Y2293D03*
X533Y1993D03*
X533Y2293D03*
X633Y1993D03*
X633Y2293D03*
X733Y1993D03*
X733Y2293D03*
X833Y1993D03*
X833Y2293D03*
X933Y1993D03*
X933Y2293D03*
X1033Y1993D03*
X1033Y2293D03*
X1133Y1993D03*
X1133Y2293D03*
G54D15*
X2388Y570D03*
X2364Y690D03*
X924Y1290D03*
X684Y1170D03*
X1500Y2802D03*
X2820Y1434D03*
X2772Y1506D03*
X1284Y2562D03*
X1356Y2706D03*
X2244Y1674D03*
X2244Y2754D03*
X2076Y2130D03*
X2652Y1626D03*
X1284Y1794D03*
X1380Y1122D03*
X852Y1842D03*
X1308Y1626D03*
X1884Y1194D03*
X3372Y2226D03*
X3228Y2226D03*
X1068Y1698D03*
X996Y1434D03*
X348Y1818D03*
X2124Y1554D03*
X540Y954D03*
X1044Y1146D03*
X1692Y1458D03*
G54D16*
X2433Y993D03*
X1233Y993D03*
G54D17*
X832Y1490D03*
X832Y1291D03*
X833Y1391D03*
G54D18*
X833Y1391D03*
X832Y1291D03*
X832Y1490D03*
G54D17*
X832Y1490D03*
X832Y1291D03*
X833Y1391D03*
G54D18*
X833Y1391D03*
X832Y1291D03*
X832Y1490D03*
G54D17*
X430Y1490D03*
X430Y1291D03*
X432Y1391D03*
G54D18*
X432Y1391D03*
X430Y1291D03*
X430Y1490D03*
G54D17*
X430Y1490D03*
X430Y1291D03*
X432Y1391D03*
G54D18*
X432Y1391D03*
X430Y1291D03*
X430Y1490D03*
G54D17*
X430Y1090D03*
X430Y891D03*
X432Y991D03*
G54D18*
X432Y991D03*
X430Y891D03*
X430Y1090D03*
G54D17*
X430Y1090D03*
X430Y891D03*
X432Y991D03*
G54D18*
X432Y991D03*
X430Y891D03*
X430Y1090D03*
G54D16*
X233Y1993D03*
G54D19*
X1409Y1276D02*
X1164Y1098D01*
X1164Y1098D02*
X1164Y930D01*
X1164Y930D02*
X1516Y418D01*
D02*
X2955Y2873D02*
X3300Y2562D01*
X3300Y2562D02*
X3300Y1938D01*
X3300Y1938D02*
X3044Y1320D01*
D02*
X2034Y1322D02*
X2052Y1626D01*
X2052Y1626D02*
X2410Y1973D01*
D02*
X1448Y969D02*
X1816Y418D01*
D02*
X1863Y293D02*
X1902Y293D01*
D02*
X2102Y293D02*
X2063Y293D01*
D02*
X2302Y293D02*
X2263Y293D01*
D02*
X2402Y293D02*
X2363Y293D01*
D02*
X2502Y293D02*
X2463Y293D01*
D02*
X2802Y293D02*
X2763Y293D01*
D02*
X3002Y293D02*
X2963Y293D01*
D02*
X3102Y293D02*
X3063Y293D01*
D02*
X1363Y293D02*
X1402Y293D01*
D02*
X1263Y293D02*
X1302Y293D01*
D02*
X1163Y293D02*
X1202Y293D01*
D02*
X1063Y293D02*
X1102Y293D01*
D02*
X963Y293D02*
X1002Y293D01*
D02*
X863Y293D02*
X902Y293D01*
D02*
X2407Y568D02*
X3300Y474D01*
X3300Y474D02*
X3300Y330D01*
X3300Y330D02*
X3259Y308D01*
D02*
X3331Y965D02*
X3300Y474D01*
D02*
X950Y2756D02*
X1008Y2706D01*
X1008Y2706D02*
X1212Y2274D01*
X1212Y2274D02*
X1140Y2021D01*
D02*
X488Y2853D02*
X909Y2776D01*
D02*
X354Y2312D02*
X444Y2394D01*
X444Y2394D02*
X457Y2573D01*
D02*
X1404Y2881D02*
X1008Y2706D01*
D02*
X2352Y675D02*
X2151Y417D01*
D02*
X1316Y1317D02*
X1284Y1362D01*
X1284Y1362D02*
X1164Y1362D01*
X1164Y1362D02*
X1164Y1242D01*
X1164Y1242D02*
X844Y421D01*
D02*
X918Y1272D02*
X900Y1218D01*
X900Y1218D02*
X684Y1218D01*
X684Y1218D02*
X684Y1189D01*
D02*
X2613Y2869D02*
X2580Y2826D01*
X2580Y2826D02*
X1519Y2802D01*
D02*
X2822Y1415D02*
X2830Y1322D01*
D02*
X2791Y1506D02*
X2916Y1506D01*
X2916Y1506D02*
X2930Y1322D01*
D02*
X1292Y2579D02*
X1348Y2689D01*
D02*
X2258Y1660D02*
X2612Y1313D01*
D02*
X2239Y2735D02*
X2081Y2148D01*
D02*
X2656Y1607D02*
X2726Y1321D01*
D02*
X909Y2693D02*
X396Y2682D01*
X396Y2682D02*
X396Y2466D01*
X396Y2466D02*
X168Y2346D01*
X168Y2346D02*
X156Y1914D01*
X156Y1914D02*
X1356Y1914D01*
X1356Y1914D02*
X1356Y2034D01*
X1356Y2034D02*
X1380Y2058D01*
X1380Y2058D02*
X2292Y2058D01*
X2292Y2058D02*
X2718Y2866D01*
D02*
X1627Y1964D02*
X1596Y1794D01*
X1596Y1794D02*
X1303Y1794D01*
D02*
X1399Y1122D02*
X1572Y1122D01*
X1572Y1122D02*
X1539Y1265D01*
D02*
X2407Y1007D02*
X2196Y1122D01*
X2196Y1122D02*
X1572Y1122D01*
D02*
X835Y1833D02*
X804Y1818D01*
X804Y1818D02*
X804Y1554D01*
X804Y1554D02*
X1260Y1554D01*
X1260Y1554D02*
X1512Y1313D01*
D02*
X2532Y1265D02*
X2532Y1242D01*
X2532Y1242D02*
X1980Y1230D01*
X1980Y1230D02*
X1950Y1270D01*
D02*
X1321Y1612D02*
X1476Y1446D01*
X1476Y1446D02*
X1932Y1338D01*
X1932Y1338D02*
X1932Y1322D01*
D02*
X1884Y1175D02*
X1884Y1170D01*
X1884Y1170D02*
X3396Y1242D01*
X3396Y1242D02*
X3372Y2207D01*
D02*
X3228Y2207D02*
X3232Y2024D01*
D02*
X1427Y1964D02*
X1404Y1842D01*
X1404Y1842D02*
X900Y1842D01*
X900Y1842D02*
X900Y1770D01*
X900Y1770D02*
X1051Y1705D01*
D02*
X996Y1415D02*
X996Y1314D01*
X996Y1314D02*
X948Y1170D01*
X948Y1170D02*
X732Y1170D01*
X732Y1170D02*
X732Y1122D01*
X732Y1122D02*
X636Y1122D01*
X636Y1122D02*
X636Y1266D01*
X636Y1266D02*
X357Y1801D01*
D02*
X2411Y1312D02*
X2139Y1541D01*
D02*
X558Y960D02*
X1026Y1139D01*
D02*
X1705Y1471D02*
X2211Y1972D01*
G04 End of Copper0*
M02*