G04 MADE WITH FRITZING*
G04 WWW.FRITZING.ORG*
G04 DOUBLE SIDED*
G04 HOLES PLATED*
G04 CONTOUR ON CENTER OF CONTOUR VECTOR*
%ASAXBY*%
%FSLAX23Y23*%
%MOIN*%
%OFA0B0*%
%SFA1.0B1.0*%
%ADD10C,0.065000*%
%ADD11C,0.075000*%
%ADD12C,0.078000*%
%ADD13C,0.072000*%
%ADD14C,0.071858*%
%ADD15C,0.039370*%
%ADD16R,0.075000X0.075000*%
%ADD17R,0.000000X0.000000*%
%ADD18R,0.072000X0.072000*%
%ADD19C,0.024000*%
%LNCOPPER1*%
G90*
G70*
G54D10*
X933Y2851D03*
X933Y2772D03*
X933Y2693D03*
X933Y2614D03*
G54D11*
X282Y2602D03*
X282Y2858D03*
X459Y2602D03*
X459Y2858D03*
X2433Y993D03*
X2433Y1293D03*
X2533Y993D03*
X2533Y1293D03*
X2633Y993D03*
X2633Y1293D03*
X2733Y993D03*
X2733Y1293D03*
X2833Y993D03*
X2833Y1293D03*
X2933Y993D03*
X2933Y1293D03*
X3033Y993D03*
X3033Y1293D03*
X3133Y993D03*
X3133Y1293D03*
X3233Y993D03*
X3233Y1293D03*
X3333Y993D03*
X3333Y1293D03*
X1233Y993D03*
X1233Y1293D03*
X1333Y993D03*
X1333Y1293D03*
X1433Y993D03*
X1433Y1293D03*
X1533Y993D03*
X1533Y1293D03*
X1633Y993D03*
X1633Y1293D03*
X1733Y993D03*
X1733Y1293D03*
X1833Y993D03*
X1833Y1293D03*
X1933Y993D03*
X1933Y1293D03*
X2033Y993D03*
X2033Y1293D03*
X2133Y993D03*
X2133Y1293D03*
G54D12*
X3233Y393D03*
X3133Y393D03*
X3033Y393D03*
X2933Y393D03*
X2833Y393D03*
X2733Y393D03*
X2633Y393D03*
X2533Y393D03*
X2433Y393D03*
X2333Y393D03*
X2233Y393D03*
X2133Y393D03*
X2033Y393D03*
X1933Y393D03*
X1833Y393D03*
X1733Y393D03*
X1633Y393D03*
X1533Y393D03*
X1433Y393D03*
X1333Y393D03*
X1233Y393D03*
X1133Y393D03*
X1033Y393D03*
X933Y393D03*
X833Y393D03*
X3233Y393D03*
X3133Y393D03*
X3033Y393D03*
X2933Y393D03*
X2833Y393D03*
X2733Y393D03*
X2633Y393D03*
X2533Y393D03*
X2433Y393D03*
X2333Y393D03*
X2233Y393D03*
X2133Y393D03*
X2033Y393D03*
X1933Y393D03*
X1833Y393D03*
X1733Y393D03*
X1633Y393D03*
X1533Y393D03*
X1433Y393D03*
X1333Y393D03*
X1233Y393D03*
X1133Y393D03*
X1033Y393D03*
X933Y393D03*
X833Y393D03*
X833Y293D03*
X933Y293D03*
X1033Y293D03*
X1133Y293D03*
X1233Y293D03*
X1333Y293D03*
X1433Y293D03*
X1533Y293D03*
X1633Y293D03*
X1733Y293D03*
X1833Y293D03*
X1933Y293D03*
X2033Y293D03*
X2133Y293D03*
X2233Y293D03*
X2333Y293D03*
X2433Y293D03*
X2533Y293D03*
X2633Y293D03*
X2733Y293D03*
X2833Y293D03*
X2933Y293D03*
X3033Y293D03*
X3133Y293D03*
X3233Y293D03*
G54D13*
X833Y1492D03*
X833Y1392D03*
X833Y1292D03*
X432Y1493D03*
X432Y1393D03*
X432Y1293D03*
X432Y1093D03*
X432Y993D03*
X432Y893D03*
G54D14*
X1432Y1994D03*
X1533Y1994D03*
X1632Y1994D03*
X1732Y1994D03*
X1832Y1994D03*
X1932Y1994D03*
X2033Y1994D03*
X2132Y1994D03*
X2232Y1994D03*
X2332Y1994D03*
X2432Y1994D03*
X2533Y1994D03*
X2632Y1994D03*
X2732Y1994D03*
X2832Y1994D03*
X2932Y1994D03*
X3032Y1994D03*
X3132Y1994D03*
X3232Y1994D03*
X3232Y2893D03*
X3132Y2893D03*
X3032Y2893D03*
X2932Y2893D03*
X2832Y2893D03*
X2732Y2893D03*
X2632Y2893D03*
X2533Y2893D03*
X2432Y2893D03*
X2332Y2893D03*
X2232Y2893D03*
X2132Y2893D03*
X2033Y2893D03*
X1932Y2893D03*
X1832Y2893D03*
X1732Y2893D03*
X1632Y2893D03*
X1533Y2893D03*
X1432Y2893D03*
G54D11*
X233Y1993D03*
X233Y2293D03*
X333Y1993D03*
X333Y2293D03*
X433Y1993D03*
X433Y2293D03*
X533Y1993D03*
X533Y2293D03*
X633Y1993D03*
X633Y2293D03*
X733Y1993D03*
X733Y2293D03*
X833Y1993D03*
X833Y2293D03*
X933Y1993D03*
X933Y2293D03*
X1033Y1993D03*
X1033Y2293D03*
X1133Y1993D03*
X1133Y2293D03*
G54D15*
X2364Y690D03*
X2772Y1506D03*
X1356Y2706D03*
X1284Y2562D03*
X2820Y1434D03*
X1692Y1458D03*
X1308Y1626D03*
X1284Y1794D03*
X1500Y2802D03*
X1044Y1146D03*
X540Y954D03*
X684Y1170D03*
X924Y1290D03*
X2652Y1626D03*
X2076Y2130D03*
X2244Y2754D03*
X2244Y1674D03*
X852Y1842D03*
X1380Y1122D03*
X2388Y570D03*
X3228Y2226D03*
X3372Y2226D03*
X1884Y1194D03*
X2124Y1554D03*
X348Y1818D03*
X996Y1434D03*
X1068Y1698D03*
G54D16*
X2433Y993D03*
X1233Y993D03*
G54D17*
X832Y1490D03*
X832Y1291D03*
X833Y1391D03*
G54D18*
X833Y1391D03*
X832Y1291D03*
X832Y1490D03*
G54D17*
X430Y1490D03*
X430Y1291D03*
X432Y1391D03*
G54D18*
X432Y1391D03*
X430Y1291D03*
X430Y1490D03*
G54D17*
X430Y1090D03*
X430Y891D03*
X432Y991D03*
G54D18*
X432Y991D03*
X430Y891D03*
X430Y1090D03*
G54D16*
X233Y1993D03*
G54D19*
X2533Y965D02*
X2533Y423D01*
D02*
X2833Y965D02*
X2833Y423D01*
D02*
X3233Y965D02*
X3233Y423D01*
D02*
X3033Y965D02*
X3033Y423D01*
D02*
X3133Y965D02*
X3133Y423D01*
D02*
X2733Y965D02*
X2733Y423D01*
D02*
X2933Y965D02*
X2933Y423D01*
D02*
X2633Y965D02*
X2633Y423D01*
D02*
X460Y865D02*
X468Y858D01*
X468Y858D02*
X708Y834D01*
X708Y834D02*
X1112Y415D01*
D02*
X1935Y965D02*
X1956Y762D01*
X1956Y762D02*
X2311Y414D01*
D02*
X2035Y965D02*
X2052Y762D01*
X2052Y762D02*
X2411Y414D01*
D02*
X1836Y965D02*
X1860Y762D01*
X1860Y762D02*
X2211Y414D01*
D02*
X1348Y969D02*
X1716Y418D01*
D02*
X1534Y965D02*
X1548Y762D01*
X1548Y762D02*
X1911Y414D01*
D02*
X1648Y969D02*
X2016Y418D01*
D02*
X2002Y293D02*
X1963Y293D01*
D02*
X2202Y293D02*
X2163Y293D01*
D02*
X2602Y293D02*
X2563Y293D01*
D02*
X2702Y293D02*
X2663Y293D01*
D02*
X2902Y293D02*
X2863Y293D01*
D02*
X3202Y293D02*
X3163Y293D01*
D02*
X1763Y293D02*
X1802Y293D01*
D02*
X1663Y293D02*
X1702Y293D01*
D02*
X1563Y293D02*
X1602Y293D01*
D02*
X1463Y293D02*
X1502Y293D01*
D02*
X2131Y965D02*
X2124Y786D01*
X2124Y786D02*
X2373Y582D01*
D02*
X405Y1060D02*
X396Y1050D01*
X396Y1050D02*
X372Y1050D01*
X372Y1050D02*
X372Y834D01*
X372Y834D02*
X813Y316D01*
D02*
X401Y1463D02*
X396Y1458D01*
X396Y1458D02*
X348Y1458D01*
X348Y1458D02*
X372Y1218D01*
X372Y1218D02*
X420Y1122D01*
X420Y1122D02*
X418Y1128D01*
D02*
X806Y1460D02*
X804Y1458D01*
X804Y1458D02*
X468Y1458D01*
X468Y1458D02*
X460Y1464D01*
D02*
X1112Y1973D02*
X876Y1746D01*
X876Y1746D02*
X876Y1530D01*
X876Y1530D02*
X861Y1517D01*
D02*
X1743Y1020D02*
X1764Y1074D01*
X1764Y1074D02*
X2148Y1074D01*
X2148Y1074D02*
X2196Y1050D01*
X2196Y1050D02*
X2356Y707D01*
D02*
X956Y2615D02*
X1668Y2634D01*
X1668Y2634D02*
X1910Y2872D01*
D02*
X2843Y1966D02*
X3084Y1362D01*
X3084Y1362D02*
X3228Y1362D01*
X3228Y1362D02*
X3231Y1322D01*
D02*
X1613Y2917D02*
X1572Y2970D01*
X1572Y2970D02*
X396Y2946D01*
X396Y2946D02*
X305Y2875D01*
D02*
X463Y1366D02*
X468Y1362D01*
X468Y1362D02*
X756Y1218D01*
X756Y1218D02*
X1668Y1218D01*
X1668Y1218D02*
X1714Y1271D01*
D02*
X463Y1269D02*
X468Y1266D01*
X468Y1266D02*
X1116Y510D01*
X1116Y510D02*
X1211Y415D01*
D02*
X872Y1290D02*
X876Y1290D01*
X876Y1290D02*
X905Y1290D01*
D02*
X696Y1155D02*
X1313Y416D01*
D02*
X2552Y1970D02*
X3036Y1362D01*
X3036Y1362D02*
X2388Y1362D01*
X2388Y1362D02*
X2364Y1338D01*
X2364Y1338D02*
X2364Y1218D01*
X2364Y1218D02*
X3084Y1218D01*
X3084Y1218D02*
X3117Y1269D01*
D02*
X1481Y2803D02*
X956Y2849D01*
D02*
X2649Y2019D02*
X2676Y2058D01*
X2676Y2058D02*
X3300Y2058D01*
X3300Y2058D02*
X3300Y1938D01*
X3300Y1938D02*
X3132Y1794D01*
X3132Y1794D02*
X3132Y1410D01*
X3132Y1410D02*
X3276Y1410D01*
X3276Y1410D02*
X3320Y1319D01*
D02*
X2432Y2863D02*
X2436Y2106D01*
X2436Y2106D02*
X3348Y2106D01*
X3348Y2106D02*
X3348Y1770D01*
X3348Y1770D02*
X3180Y1626D01*
X3180Y1626D02*
X3180Y1458D01*
X3180Y1458D02*
X3324Y1458D01*
X3324Y1458D02*
X3372Y1362D01*
X3372Y1362D02*
X3396Y1362D01*
X3396Y1362D02*
X3396Y1218D01*
X3396Y1218D02*
X3180Y1170D01*
X3180Y1170D02*
X2316Y1170D01*
X2316Y1170D02*
X2316Y1386D01*
X2316Y1386D02*
X2340Y1410D01*
X2340Y1410D02*
X2820Y1410D01*
X2820Y1410D02*
X2820Y1415D01*
D02*
X2533Y2863D02*
X2532Y2154D01*
X2532Y2154D02*
X3396Y2154D01*
X3396Y2154D02*
X3444Y1146D01*
X3444Y1146D02*
X3420Y1122D01*
X3420Y1122D02*
X2268Y1122D01*
X2268Y1122D02*
X2268Y1434D01*
X2268Y1434D02*
X2292Y1446D01*
X2292Y1446D02*
X2753Y1503D01*
D02*
X543Y2320D02*
X564Y2370D01*
X564Y2370D02*
X1266Y2557D01*
D02*
X1375Y2708D02*
X1548Y2730D01*
X1548Y2730D02*
X1548Y2850D01*
X1548Y2850D02*
X1543Y2864D01*
D02*
X2133Y2863D02*
X2148Y2058D01*
X2148Y2058D02*
X1380Y2058D01*
X1380Y2058D02*
X1368Y2034D01*
X1368Y2034D02*
X1380Y1914D01*
X1380Y1914D02*
X2004Y1914D01*
X2004Y1914D02*
X2231Y1687D01*
D02*
X2235Y2863D02*
X2242Y2773D01*
D02*
X2057Y2129D02*
X1308Y2106D01*
X1308Y2106D02*
X1308Y1890D01*
X1308Y1890D02*
X2172Y1626D01*
X2172Y1626D02*
X2633Y1626D01*
D02*
X1271Y1807D02*
X1260Y1818D01*
X1260Y1818D02*
X1260Y2154D01*
X1260Y2154D02*
X444Y2238D01*
X444Y2238D02*
X438Y2265D01*
D02*
X1613Y416D02*
X1164Y930D01*
X1164Y930D02*
X1164Y1074D01*
X1164Y1074D02*
X1380Y1074D01*
X1380Y1074D02*
X1380Y1103D01*
D02*
X342Y1966D02*
X348Y1950D01*
X348Y1950D02*
X833Y1846D01*
D02*
X446Y2018D02*
X468Y2058D01*
X468Y2058D02*
X1212Y2058D01*
X1212Y2058D02*
X1212Y1962D01*
X1212Y1962D02*
X948Y1626D01*
X948Y1626D02*
X1289Y1626D01*
D02*
X1234Y1322D02*
X1236Y1362D01*
X1236Y1362D02*
X2196Y1362D01*
X2196Y1362D02*
X2220Y1194D01*
X2220Y1194D02*
X1903Y1194D01*
D02*
X3353Y2226D02*
X3247Y2226D01*
D02*
X233Y2265D02*
X233Y2022D01*
D02*
X1087Y1696D02*
X1356Y1674D01*
X1356Y1674D02*
X1356Y1554D01*
X1356Y1554D02*
X1014Y1440D01*
D02*
X338Y1833D02*
X248Y1969D01*
D02*
X2105Y1554D02*
X1356Y1554D01*
D02*
X469Y977D02*
X468Y978D01*
X468Y978D02*
X522Y960D01*
D02*
X1063Y1147D02*
X1332Y1170D01*
X1332Y1170D02*
X1764Y1170D01*
X1764Y1170D02*
X1819Y1268D01*
D02*
X873Y1386D02*
X876Y1386D01*
X876Y1386D02*
X1044Y1386D01*
X1044Y1386D02*
X1673Y1456D01*
G04 End of Copper1*
M02*