G04 MADE WITH FRITZING*
G04 WWW.FRITZING.ORG*
G04 DOUBLE SIDED*
G04 HOLES PLATED*
G04 CONTOUR ON CENTER OF CONTOUR VECTOR*
%ASAXBY*%
%FSLAX23Y23*%
%MOIN*%
%OFA0B0*%
%SFA1.0B1.0*%
%ADD10C,0.128110*%
%ADD11C,0.075000*%
%ADD12C,0.085000*%
%ADD13C,0.088000*%
%ADD14C,0.082000*%
%ADD15C,0.081858*%
%ADD16C,0.049370*%
%ADD17R,0.085000X0.085000*%
%ADD18R,0.010000X0.010000*%
%ADD19R,0.082000X0.082000*%
%LNMASK0*%
G90*
G70*
G54D10*
X128Y131D03*
X3415Y131D03*
X128Y3022D03*
X3415Y3022D03*
G54D11*
X933Y2851D03*
X933Y2772D03*
X933Y2693D03*
X933Y2614D03*
G54D12*
X282Y2602D03*
X282Y2858D03*
X459Y2602D03*
X459Y2858D03*
X2433Y993D03*
X2433Y1293D03*
X2533Y993D03*
X2533Y1293D03*
X2633Y993D03*
X2633Y1293D03*
X2733Y993D03*
X2733Y1293D03*
X2833Y993D03*
X2833Y1293D03*
X2933Y993D03*
X2933Y1293D03*
X3033Y993D03*
X3033Y1293D03*
X3133Y993D03*
X3133Y1293D03*
X3233Y993D03*
X3233Y1293D03*
X3333Y993D03*
X3333Y1293D03*
X1233Y993D03*
X1233Y1293D03*
X1333Y993D03*
X1333Y1293D03*
X1433Y993D03*
X1433Y1293D03*
X1533Y993D03*
X1533Y1293D03*
X1633Y993D03*
X1633Y1293D03*
X1733Y993D03*
X1733Y1293D03*
X1833Y993D03*
X1833Y1293D03*
X1933Y993D03*
X1933Y1293D03*
X2033Y993D03*
X2033Y1293D03*
X2133Y993D03*
X2133Y1293D03*
G54D13*
X3233Y393D03*
X3133Y393D03*
X3033Y393D03*
X2933Y393D03*
X2833Y393D03*
X2733Y393D03*
X2633Y393D03*
X2533Y393D03*
X2433Y393D03*
X2333Y393D03*
X2233Y393D03*
X2133Y393D03*
X2033Y393D03*
X1933Y393D03*
X1833Y393D03*
X1733Y393D03*
X1633Y393D03*
X1533Y393D03*
X1433Y393D03*
X1333Y393D03*
X1233Y393D03*
X1133Y393D03*
X1033Y393D03*
X933Y393D03*
X833Y393D03*
X3233Y393D03*
X3133Y393D03*
X3033Y393D03*
X2933Y393D03*
X2833Y393D03*
X2733Y393D03*
X2633Y393D03*
X2533Y393D03*
X2433Y393D03*
X2333Y393D03*
X2233Y393D03*
X2133Y393D03*
X2033Y393D03*
X1933Y393D03*
X1833Y393D03*
X1733Y393D03*
X1633Y393D03*
X1533Y393D03*
X1433Y393D03*
X1333Y393D03*
X1233Y393D03*
X1133Y393D03*
X1033Y393D03*
X933Y393D03*
X833Y393D03*
X833Y293D03*
X933Y293D03*
X1033Y293D03*
X1133Y293D03*
X1233Y293D03*
X1333Y293D03*
X1433Y293D03*
X1533Y293D03*
X1633Y293D03*
X1733Y293D03*
X1833Y293D03*
X1933Y293D03*
X2033Y293D03*
X2133Y293D03*
X2233Y293D03*
X2333Y293D03*
X2433Y293D03*
X2533Y293D03*
X2633Y293D03*
X2733Y293D03*
X2833Y293D03*
X2933Y293D03*
X3033Y293D03*
X3133Y293D03*
X3233Y293D03*
G54D14*
X833Y1492D03*
X833Y1392D03*
X833Y1292D03*
X432Y1493D03*
X432Y1393D03*
X432Y1293D03*
X432Y1093D03*
X432Y993D03*
X432Y893D03*
G54D15*
X1432Y1994D03*
X1533Y1994D03*
X1632Y1994D03*
X1732Y1994D03*
X1832Y1994D03*
X1932Y1994D03*
X2033Y1994D03*
X2132Y1994D03*
X2232Y1994D03*
X2332Y1994D03*
X2432Y1994D03*
X2533Y1994D03*
X2632Y1994D03*
X2732Y1994D03*
X2832Y1994D03*
X2932Y1994D03*
X3032Y1994D03*
X3132Y1994D03*
X3232Y1994D03*
X3232Y2893D03*
X3132Y2893D03*
X3032Y2893D03*
X2932Y2893D03*
X2832Y2893D03*
X2732Y2893D03*
X2632Y2893D03*
X2533Y2893D03*
X2432Y2893D03*
X2332Y2893D03*
X2232Y2893D03*
X2132Y2893D03*
X2033Y2893D03*
X1932Y2893D03*
X1832Y2893D03*
X1732Y2893D03*
X1632Y2893D03*
X1533Y2893D03*
X1432Y2893D03*
G54D12*
X233Y1993D03*
X233Y2293D03*
X333Y1993D03*
X333Y2293D03*
X433Y1993D03*
X433Y2293D03*
X533Y1993D03*
X533Y2293D03*
X633Y1993D03*
X633Y2293D03*
X733Y1993D03*
X733Y2293D03*
X833Y1993D03*
X833Y2293D03*
X933Y1993D03*
X933Y2293D03*
X1033Y1993D03*
X1033Y2293D03*
X1133Y1993D03*
X1133Y2293D03*
G54D16*
X2388Y570D03*
X2364Y690D03*
X924Y1290D03*
X684Y1170D03*
X1500Y2802D03*
X2820Y1434D03*
X2772Y1506D03*
X1284Y2562D03*
X1356Y2706D03*
X2244Y1674D03*
X2244Y2754D03*
X2076Y2130D03*
X2652Y1626D03*
X1284Y1794D03*
X1380Y1122D03*
X852Y1842D03*
X1308Y1626D03*
X1884Y1194D03*
X3372Y2226D03*
X3228Y2226D03*
X1068Y1698D03*
X996Y1434D03*
X348Y1818D03*
X2124Y1554D03*
X540Y954D03*
X1044Y1146D03*
X1692Y1458D03*
G54D17*
X2433Y993D03*
X1233Y993D03*
G54D18*
X832Y1490D03*
X832Y1291D03*
X833Y1391D03*
G54D19*
X833Y1391D03*
X832Y1291D03*
X832Y1490D03*
G54D18*
X832Y1490D03*
X832Y1291D03*
X833Y1391D03*
G54D19*
X833Y1391D03*
X832Y1291D03*
X832Y1490D03*
G54D18*
X430Y1490D03*
X430Y1291D03*
X432Y1391D03*
G54D19*
X432Y1391D03*
X430Y1291D03*
X430Y1490D03*
G54D18*
X430Y1490D03*
X430Y1291D03*
X432Y1391D03*
G54D19*
X432Y1391D03*
X430Y1291D03*
X430Y1490D03*
G54D18*
X430Y1090D03*
X430Y891D03*
X432Y991D03*
G54D19*
X432Y991D03*
X430Y891D03*
X430Y1090D03*
G54D18*
X430Y1090D03*
X430Y891D03*
X432Y991D03*
G54D19*
X432Y991D03*
X430Y891D03*
X430Y1090D03*
G54D17*
X233Y1993D03*
G04 End of Mask0*
M02*