; NON-PLATED HOLES START AT T1
; THROUGH (PLATED) HOLES START AT T100
M48
INCH
T1C0.118110
T100C0.025000
T101C0.038000
T102C0.015748
T103C0.038795
T104C0.035000
T105C0.042000
%
T1
X001280Y030215
X034153Y030215
X001280Y001312
X034153Y001312
T100
X009325Y028506
X009325Y026144
X009325Y026932
X009325Y027718
T101
X027325Y003932
X009325Y002932
X010325Y003932
X018325Y002932
X027325Y002932
X010325Y002932
X013325Y003932
X022325Y003932
X031325Y003932
X013325Y002932
X022325Y002932
X016325Y003932
X025325Y003932
X031325Y002932
X016325Y002932
X025325Y002932
X019325Y003932
X028325Y003932
X011325Y003932
X019325Y002932
X020325Y003932
X028325Y002932
X011325Y002932
X020325Y002932
X014325Y003932
X023325Y003932
X032325Y003932
X014325Y002932
X008325Y003932
X023325Y002932
X017325Y003932
X032325Y002932
X026325Y003932
X008325Y002932
X017325Y002932
X026325Y002932
X029325Y003932
X012325Y003932
X021325Y003932
X029325Y002932
X030325Y003932
X012325Y002932
X015325Y003932
X021325Y002932
X030325Y002932
X024325Y003932
X015325Y002932
X009325Y003932
X024325Y002932
X018325Y003932
T102
X013560Y027056
X013080Y016256
X005400Y009536
X032280Y022256
X018840Y011936
X010680Y016976
X021240Y015536
X010440Y011456
X028200Y014336
X009960Y014336
X009240Y012896
X023880Y005696
X015000Y028016
X012840Y025616
X026520Y016256
X008520Y018416
X022440Y027536
X003480Y018176
X023640Y006896
X013800Y011216
X022440Y016736
X006840Y011696
X012840Y017936
X020760Y021296
X027720Y015056
X016920Y014576
X033720Y022256
T103
X017323Y019938
X020325Y028932
X016319Y028932
X025325Y028932
X029321Y028932
X024321Y028932
X031319Y019938
X022323Y019938
X021319Y028932
X027323Y019938
X030315Y019938
X026319Y028932
X017323Y028932
X018317Y019938
X032323Y019938
X015325Y019938
X031319Y028932
X019321Y019938
X022323Y028932
X023317Y019938
X014321Y019938
X027323Y028932
X030315Y028932
X028317Y019938
X018317Y028932
X020325Y019938
X016319Y019938
X025325Y019938
X029321Y019938
X015325Y028932
X032323Y028932
X019321Y028932
X024321Y019938
X023317Y028932
X014321Y028932
X028317Y028932
X021319Y019938
X026319Y019938
T104
X008325Y022932
X006325Y022932
X004325Y022932
X002325Y022932
X032325Y012932
X030325Y012932
X009325Y022932
X007325Y022932
X005325Y022932
X003325Y022932
X033325Y012932
X031325Y009932
X008325Y019932
X006325Y019932
X004325Y019932
X002325Y019932
X032325Y009932
X030325Y009932
X009325Y019932
X007325Y019932
X005325Y019932
X003325Y019932
X033325Y009932
X011325Y022932
X010325Y022932
X011325Y019932
X010325Y019932
X002822Y028576
X002822Y026016
X018325Y012932
X016325Y012932
X014325Y012932
X012325Y012932
X019325Y012932
X017325Y012932
X015325Y012932
X013325Y012932
X018325Y009932
X016325Y009932
X014325Y009932
X012325Y009932
X019325Y009932
X017325Y009932
X015325Y009932
X013325Y009932
X021325Y012932
X004594Y028576
X020325Y012932
X028325Y012932
X026325Y012932
X024325Y012932
X004594Y026016
X021325Y009932
X029325Y012932
X027325Y012932
X025325Y012932
X020325Y009932
X028325Y009932
X026325Y009932
X024325Y009932
X029325Y009932
X027325Y009932
X025325Y009932
X031325Y012932
T105
X004317Y012925
X004317Y009925
X004317Y013925
X004317Y014925
X008332Y012924
X004317Y010925
X008332Y013924
X008332Y014924
X004317Y008925
T00
M30
