M48
; DRILL file {KiCad (5.1.10)-1} date 06/27/21 11:46:39
; FORMAT={-:-/ absolute / inch / decimal}
; #@! TF.CreationDate,2021-06-27T11:46:39-07:00
; #@! TF.GenerationSoftware,Kicad,Pcbnew,(5.1.10)-1
; #@! TF.FileFunction,Plated,1,2,PTH
FMAT,2
INCH
T1C0.0157
T2C0.0295
T3C0.0315
T4C0.0354
T5C0.0394
T6C0.0433
%
G90
G05
T1
X4.675Y-5.288
X4.725Y-5.188
X4.845Y-4.488
X4.865Y-4.168
X4.875Y-4.458
X4.8955Y-2.548
X4.9079Y-4.418
X4.9079Y-5.088
X4.935Y-5.538
X4.9365Y-3.628
X4.9365Y-3.7408
X4.965Y-3.408
X4.965Y-5.508
X4.9665Y-3.058
X4.995Y-2.708
X4.995Y-5.458
X5.025Y-3.508
X5.025Y-4.308
X5.025Y-5.5665
X5.0548Y-3.8878
X5.055Y-3.778
X5.115Y-4.328
X5.116Y-4.261
X5.175Y-3.208
X5.175Y-5.328
X5.2035Y-5.238
X5.205Y-3.108
X5.2321Y-5.138
X5.2606Y-4.648
X5.265Y-3.148
X5.2892Y-3.708
X5.2892Y-4.538
X5.315Y-3.328
X5.3177Y-4.408
X5.3658Y-4.3288
X5.465Y-3.058
X5.483Y-3.0
X5.507Y-4.262
X5.545Y-2.948
X5.611Y-3.149
X5.6502Y-2.848
X5.6679Y-2.748
X5.6965Y-2.638
X5.7239Y-2.278
X5.725Y-2.458
X5.7524Y-2.148
X5.755Y-2.338
X5.755Y-4.738
X5.781Y-2.2372
X5.843Y-3.254
X5.885Y-4.838
X5.9135Y-4.738
X5.9421Y-3.968
X5.965Y-2.058
X5.965Y-3.818
X5.9706Y-5.288
X5.975Y-5.388
X5.995Y-3.598
X5.9992Y-5.188
X6.005Y-2.058
X6.025Y-3.508
X6.0277Y-5.088
X6.0563Y-5.038
X6.0911Y-5.1441
X6.1635Y-5.238
X6.185Y-5.338
X6.205Y-3.388
X6.225Y-4.988
X6.2508Y-4.938
X6.265Y-4.238
X6.2794Y-5.038
X6.3079Y-5.148
X6.3235Y-3.988
X6.3365Y-5.238
X6.365Y-3.898
X6.365Y-5.338
X6.455Y-2.0637
X6.455Y-2.9752
X6.462Y-3.255
X6.565Y-2.538
X6.565Y-2.748
X6.595Y-2.588
X6.595Y-2.858
X6.648Y-3.51
X6.697Y-4.807
X6.715Y-2.348
X6.7215Y-2.488
X6.755Y-3.828
X6.7885Y-2.228
X6.822Y-3.5
X6.825Y-5.508
X6.885Y-3.4395
X6.8878Y-5.4608
X6.905Y-2.298
X6.925Y-3.418
X6.9335Y-2.388
X6.945Y-2.898
X6.975Y-3.998
X7.025Y-4.098
X7.025Y-4.748
X7.055Y-5.568
X7.065Y-2.158
X7.065Y-3.008
X7.065Y-4.398
X7.095Y-2.548
X7.095Y-3.1208
X7.095Y-3.228
X7.198Y-3.4965
X7.215Y-2.798
X7.223Y-3.8265
X7.295Y-2.448
X7.395Y-3.798
X7.425Y-3.768
X7.455Y-3.568
X7.485Y-3.3895
X7.655Y-4.298
X7.685Y-4.198
X7.705Y-3.948
X7.745Y-3.498
X7.835Y-3.648
X7.885Y-3.298
X7.885Y-3.858
X7.925Y-3.648
X8.145Y-2.948
X8.185Y-3.858
X8.255Y-3.248
X8.285Y-2.648
X8.315Y-3.698
X8.355Y-4.048
X8.395Y-4.158
X8.545Y-4.998
X8.575Y-5.118
X8.605Y-5.038
X8.635Y-4.688
T2
X6.955Y-5.088
X6.955Y-5.348
X7.005Y-5.088
X7.005Y-5.348
X7.055Y-5.088
X7.055Y-5.348
T3
X5.115Y-2.048
X5.115Y-2.148
X5.115Y-2.248
X5.115Y-2.348
X5.115Y-2.448
X5.115Y-2.548
X5.115Y-2.648
X5.115Y-2.748
X5.115Y-2.848
X5.115Y-2.948
X5.115Y-3.268
X5.115Y-3.368
X5.115Y-3.468
X5.115Y-3.568
X5.115Y-3.668
X5.115Y-3.768
X5.115Y-3.868
X5.115Y-3.968
X5.115Y-4.068
X5.115Y-4.168
X5.115Y-4.488
X5.115Y-4.588
X5.115Y-4.688
X5.115Y-4.788
X5.115Y-4.888
X5.115Y-4.988
X5.115Y-5.088
X5.115Y-5.188
X5.115Y-5.288
X5.115Y-5.388
X5.415Y-2.048
X5.415Y-2.148
X5.415Y-2.248
X5.415Y-2.348
X5.415Y-2.448
X5.415Y-2.548
X5.415Y-2.648
X5.415Y-2.748
X5.415Y-2.848
X5.415Y-2.948
X5.415Y-3.268
X5.415Y-3.368
X5.415Y-3.468
X5.415Y-3.568
X5.415Y-3.668
X5.415Y-3.768
X5.415Y-3.868
X5.415Y-3.968
X5.415Y-4.068
X5.415Y-4.168
X5.415Y-4.488
X5.415Y-4.588
X5.415Y-4.688
X5.415Y-4.788
X5.415Y-4.888
X5.415Y-4.988
X5.415Y-5.088
X5.415Y-5.188
X5.415Y-5.288
X5.415Y-5.388
X5.515Y-2.048
X5.515Y-3.278
X5.515Y-4.498
X5.6134Y-2.048
X5.6134Y-3.278
X5.6134Y-4.498
X5.833Y-4.0884
X5.833Y-4.1884
X5.833Y-4.2884
X5.833Y-4.3884
X5.833Y-4.4884
X5.833Y-4.5884
X5.833Y-4.6884
X5.833Y-4.7884
X5.833Y-4.8884
X5.833Y-4.9884
X5.833Y-5.0884
X5.833Y-5.1884
X5.833Y-5.2884
X5.833Y-5.3884
X5.835Y-2.048
X5.835Y-2.148
X5.835Y-2.248
X5.835Y-2.348
X5.835Y-2.448
X5.835Y-2.548
X5.835Y-2.648
X5.835Y-2.748
X5.835Y-2.848
X5.835Y-2.948
X5.835Y-3.048
X5.835Y-3.148
X6.135Y-2.048
X6.135Y-2.148
X6.135Y-2.248
X6.135Y-2.348
X6.135Y-2.448
X6.135Y-2.548
X6.135Y-2.648
X6.135Y-2.748
X6.135Y-2.848
X6.135Y-2.948
X6.135Y-3.048
X6.135Y-3.148
X6.235Y-2.048
X6.3334Y-2.048
X6.433Y-4.0884
X6.433Y-4.1884
X6.433Y-4.2884
X6.433Y-4.3884
X6.433Y-4.4884
X6.433Y-4.5884
X6.433Y-4.6884
X6.433Y-4.7884
X6.433Y-4.8884
X6.433Y-4.9884
X6.433Y-5.0884
X6.433Y-5.1884
X6.433Y-5.2884
X6.433Y-5.3884
X6.535Y-4.088
X6.6334Y-4.088
X6.6566Y-2.848
X6.755Y-2.848
X6.855Y-2.048
X6.855Y-2.148
X6.855Y-2.248
X6.855Y-2.348
X6.855Y-2.448
X6.855Y-2.548
X6.855Y-2.648
X6.855Y-2.748
X6.855Y-2.848
X6.855Y-2.948
X6.855Y-3.048
X6.855Y-3.148
X6.855Y-3.248
X6.855Y-3.348
X6.855Y-3.898
X6.855Y-3.998
X6.855Y-4.098
X6.855Y-4.198
X6.855Y-4.298
X6.855Y-4.398
X6.855Y-4.498
X6.855Y-4.598
X6.855Y-4.698
X6.855Y-4.798
X7.155Y-2.048
X7.155Y-2.148
X7.155Y-2.248
X7.155Y-2.348
X7.155Y-2.448
X7.155Y-2.548
X7.155Y-2.648
X7.155Y-2.748
X7.155Y-2.848
X7.155Y-2.948
X7.155Y-3.048
X7.155Y-3.148
X7.155Y-3.248
X7.155Y-3.348
X7.155Y-3.898
X7.155Y-3.998
X7.155Y-4.098
X7.155Y-4.198
X7.155Y-4.298
X7.155Y-4.398
X7.155Y-4.498
X7.155Y-4.598
X7.155Y-4.698
X7.155Y-4.798
X7.255Y-3.898
X7.3534Y-3.898
X7.585Y-2.048
X7.585Y-2.148
X7.585Y-2.248
X7.585Y-2.348
X7.585Y-2.448
X7.585Y-2.548
X7.585Y-2.648
X7.585Y-2.748
X7.585Y-2.848
X7.585Y-2.948
X7.585Y-3.048
X7.585Y-3.148
X7.585Y-3.248
X7.585Y-3.348
X7.585Y-3.448
X7.585Y-3.548
X7.585Y-3.648
X7.585Y-3.748
X7.585Y-3.848
X7.585Y-4.488
X7.585Y-4.588
X7.585Y-4.688
X7.585Y-4.788
X7.585Y-4.888
X7.585Y-4.988
X7.585Y-5.088
X7.585Y-5.188
X7.585Y-5.288
X7.585Y-5.388
X7.885Y-4.488
X7.885Y-4.588
X7.885Y-4.688
X7.885Y-4.788
X7.885Y-4.888
X7.885Y-4.988
X7.885Y-5.088
X7.885Y-5.188
X7.885Y-5.288
X7.885Y-5.388
X7.995Y-4.478
X8.0934Y-4.478
X8.155Y-4.778
X8.155Y-5.078
X8.1875Y-4.108
X8.295Y-4.778
X8.295Y-5.078
X8.435Y-4.778
X8.435Y-5.078
X8.485Y-2.0505
X8.485Y-2.148
X8.485Y-2.248
X8.485Y-2.348
X8.485Y-2.448
X8.485Y-2.548
X8.485Y-2.648
X8.485Y-2.748
X8.485Y-2.848
X8.485Y-2.948
X8.485Y-3.048
X8.485Y-3.148
X8.485Y-3.248
X8.485Y-3.348
X8.485Y-3.448
X8.485Y-3.548
X8.485Y-3.648
X8.485Y-3.748
X8.485Y-3.848
X8.4875Y-4.108
T4
X8.195Y-5.318
X8.245Y-5.318
X8.295Y-5.318
X8.345Y-5.318
T5
X4.6787Y-2.7071
X4.6787Y-2.8071
X4.6787Y-2.9071
X4.6787Y-3.0071
X4.6787Y-3.1071
X4.6787Y-3.2071
X4.6787Y-3.3071
X4.6787Y-3.4071
X4.6787Y-3.5071
X4.6787Y-3.6071
X4.6787Y-3.7071
X4.6787Y-3.8071
X4.6787Y-3.9071
X4.6787Y-4.0071
X4.6787Y-4.1071
X4.6787Y-4.2071
X4.6787Y-4.3071
X4.6787Y-4.4071
X4.6787Y-4.5071
X4.6787Y-4.6071
X4.7787Y-2.7071
X4.7787Y-2.8071
X4.7787Y-2.9071
X4.7787Y-3.0071
X4.7787Y-3.1071
X4.7787Y-3.2071
X4.7787Y-3.3071
X4.7787Y-3.4071
X4.7787Y-3.5071
X4.7787Y-3.6071
X4.7787Y-3.7071
X4.7787Y-3.8071
X4.7787Y-3.9071
X4.7787Y-4.0071
X4.7787Y-4.1071
X4.7787Y-4.2071
X4.7787Y-4.3071
X4.7787Y-4.4071
X4.7787Y-4.5071
X4.7787Y-4.6071
T6
X8.2139Y-4.328
X8.2139Y-4.5052
X8.4698Y-4.328
X8.4698Y-4.5052
T0
M30
