%TF.GenerationSoftware,KiCad,Pcbnew,(5.1.6)-1*%
%TF.CreationDate,2020-08-02T22:15:59-07:00*%
%TF.ProjectId,TRS-IO-M1,5452532d-494f-42d4-9d31-2e6b69636164,rev?*%
%TF.SameCoordinates,Original*%
%TF.FileFunction,Legend,Top*%
%TF.FilePolarity,Positive*%
%FSLAX46Y46*%
G04 Gerber Fmt 4.6, Leading zero omitted, Abs format (unit mm)*
G04 Created by KiCad (PCBNEW (5.1.6)-1) date 2020-08-02 22:15:59*
%MOMM*%
%LPD*%
G01*
G04 APERTURE LIST*
%ADD10C,0.150000*%
%ADD11C,0.120000*%
G04 APERTURE END LIST*
D10*
X116071190Y-71652380D02*
X116642619Y-71652380D01*
X116356904Y-72652380D02*
X116356904Y-71652380D01*
X117547380Y-72652380D02*
X117214047Y-72176190D01*
X116975952Y-72652380D02*
X116975952Y-71652380D01*
X117356904Y-71652380D01*
X117452142Y-71700000D01*
X117499761Y-71747619D01*
X117547380Y-71842857D01*
X117547380Y-71985714D01*
X117499761Y-72080952D01*
X117452142Y-72128571D01*
X117356904Y-72176190D01*
X116975952Y-72176190D01*
X117928333Y-72604761D02*
X118071190Y-72652380D01*
X118309285Y-72652380D01*
X118404523Y-72604761D01*
X118452142Y-72557142D01*
X118499761Y-72461904D01*
X118499761Y-72366666D01*
X118452142Y-72271428D01*
X118404523Y-72223809D01*
X118309285Y-72176190D01*
X118118809Y-72128571D01*
X118023571Y-72080952D01*
X117975952Y-72033333D01*
X117928333Y-71938095D01*
X117928333Y-71842857D01*
X117975952Y-71747619D01*
X118023571Y-71700000D01*
X118118809Y-71652380D01*
X118356904Y-71652380D01*
X118499761Y-71700000D01*
X118928333Y-72271428D02*
X119690238Y-72271428D01*
X120166428Y-72652380D02*
X120166428Y-71652380D01*
X120833095Y-71652380D02*
X121023571Y-71652380D01*
X121118809Y-71700000D01*
X121214047Y-71795238D01*
X121261666Y-71985714D01*
X121261666Y-72319047D01*
X121214047Y-72509523D01*
X121118809Y-72604761D01*
X121023571Y-72652380D01*
X120833095Y-72652380D01*
X120737857Y-72604761D01*
X120642619Y-72509523D01*
X120594999Y-72319047D01*
X120594999Y-71985714D01*
X120642619Y-71795238D01*
X120737857Y-71700000D01*
X120833095Y-71652380D01*
X122309285Y-71985714D02*
X122690238Y-71985714D01*
X122452142Y-72652380D02*
X122452142Y-71795238D01*
X122499761Y-71700000D01*
X122594999Y-71652380D01*
X122690238Y-71652380D01*
X123166428Y-72652380D02*
X123071190Y-72604761D01*
X123023571Y-72557142D01*
X122975952Y-72461904D01*
X122975952Y-72176190D01*
X123023571Y-72080952D01*
X123071190Y-72033333D01*
X123166428Y-71985714D01*
X123309285Y-71985714D01*
X123404523Y-72033333D01*
X123452142Y-72080952D01*
X123499761Y-72176190D01*
X123499761Y-72461904D01*
X123452142Y-72557142D01*
X123404523Y-72604761D01*
X123309285Y-72652380D01*
X123166428Y-72652380D01*
X123928333Y-72652380D02*
X123928333Y-71985714D01*
X123928333Y-72176190D02*
X123975952Y-72080952D01*
X124023571Y-72033333D01*
X124118809Y-71985714D01*
X124214047Y-71985714D01*
X125166428Y-71985714D02*
X125547380Y-71985714D01*
X125309285Y-71652380D02*
X125309285Y-72509523D01*
X125356904Y-72604761D01*
X125452142Y-72652380D01*
X125547380Y-72652380D01*
X125880714Y-72652380D02*
X125880714Y-71652380D01*
X126309285Y-72652380D02*
X126309285Y-72128571D01*
X126261666Y-72033333D01*
X126166428Y-71985714D01*
X126023571Y-71985714D01*
X125928333Y-72033333D01*
X125880714Y-72080952D01*
X127166428Y-72604761D02*
X127071190Y-72652380D01*
X126880714Y-72652380D01*
X126785476Y-72604761D01*
X126737857Y-72509523D01*
X126737857Y-72128571D01*
X126785476Y-72033333D01*
X126880714Y-71985714D01*
X127071190Y-71985714D01*
X127166428Y-72033333D01*
X127214047Y-72128571D01*
X127214047Y-72223809D01*
X126737857Y-72319047D01*
X128404523Y-72652380D02*
X128404523Y-71652380D01*
X128737857Y-72366666D01*
X129071190Y-71652380D01*
X129071190Y-72652380D01*
X129690238Y-72652380D02*
X129594999Y-72604761D01*
X129547380Y-72557142D01*
X129499761Y-72461904D01*
X129499761Y-72176190D01*
X129547380Y-72080952D01*
X129594999Y-72033333D01*
X129690238Y-71985714D01*
X129833095Y-71985714D01*
X129928333Y-72033333D01*
X129975952Y-72080952D01*
X130023571Y-72176190D01*
X130023571Y-72461904D01*
X129975952Y-72557142D01*
X129928333Y-72604761D01*
X129833095Y-72652380D01*
X129690238Y-72652380D01*
X130880714Y-72652380D02*
X130880714Y-71652380D01*
X130880714Y-72604761D02*
X130785476Y-72652380D01*
X130594999Y-72652380D01*
X130499761Y-72604761D01*
X130452142Y-72557142D01*
X130404523Y-72461904D01*
X130404523Y-72176190D01*
X130452142Y-72080952D01*
X130499761Y-72033333D01*
X130594999Y-71985714D01*
X130785476Y-71985714D01*
X130880714Y-72033333D01*
X131737857Y-72604761D02*
X131642619Y-72652380D01*
X131452142Y-72652380D01*
X131356904Y-72604761D01*
X131309285Y-72509523D01*
X131309285Y-72128571D01*
X131356904Y-72033333D01*
X131452142Y-71985714D01*
X131642619Y-71985714D01*
X131737857Y-72033333D01*
X131785476Y-72128571D01*
X131785476Y-72223809D01*
X131309285Y-72319047D01*
X132356904Y-72652380D02*
X132261666Y-72604761D01*
X132214047Y-72509523D01*
X132214047Y-71652380D01*
X134023571Y-72652380D02*
X133452142Y-72652380D01*
X133737857Y-72652380D02*
X133737857Y-71652380D01*
X133642619Y-71795238D01*
X133547380Y-71890476D01*
X133452142Y-71938095D01*
X120523571Y-74016666D02*
X120999761Y-74016666D01*
X120428333Y-74302380D02*
X120761666Y-73302380D01*
X121095000Y-74302380D01*
X121856904Y-73635714D02*
X121856904Y-74302380D01*
X121428333Y-73635714D02*
X121428333Y-74159523D01*
X121475952Y-74254761D01*
X121571190Y-74302380D01*
X121714047Y-74302380D01*
X121809285Y-74254761D01*
X121856904Y-74207142D01*
X122761666Y-73635714D02*
X122761666Y-74445238D01*
X122714047Y-74540476D01*
X122666428Y-74588095D01*
X122571190Y-74635714D01*
X122428333Y-74635714D01*
X122333095Y-74588095D01*
X122761666Y-74254761D02*
X122666428Y-74302380D01*
X122475952Y-74302380D01*
X122380714Y-74254761D01*
X122333095Y-74207142D01*
X122285476Y-74111904D01*
X122285476Y-73826190D01*
X122333095Y-73730952D01*
X122380714Y-73683333D01*
X122475952Y-73635714D01*
X122666428Y-73635714D01*
X122761666Y-73683333D01*
X123666428Y-73635714D02*
X123666428Y-74302380D01*
X123237857Y-73635714D02*
X123237857Y-74159523D01*
X123285476Y-74254761D01*
X123380714Y-74302380D01*
X123523571Y-74302380D01*
X123618809Y-74254761D01*
X123666428Y-74207142D01*
X124095000Y-74254761D02*
X124190238Y-74302380D01*
X124380714Y-74302380D01*
X124475952Y-74254761D01*
X124523571Y-74159523D01*
X124523571Y-74111904D01*
X124475952Y-74016666D01*
X124380714Y-73969047D01*
X124237857Y-73969047D01*
X124142619Y-73921428D01*
X124095000Y-73826190D01*
X124095000Y-73778571D01*
X124142619Y-73683333D01*
X124237857Y-73635714D01*
X124380714Y-73635714D01*
X124475952Y-73683333D01*
X124809285Y-73635714D02*
X125190238Y-73635714D01*
X124952142Y-73302380D02*
X124952142Y-74159523D01*
X124999761Y-74254761D01*
X125095000Y-74302380D01*
X125190238Y-74302380D01*
X126237857Y-73397619D02*
X126285476Y-73350000D01*
X126380714Y-73302380D01*
X126618809Y-73302380D01*
X126714047Y-73350000D01*
X126761666Y-73397619D01*
X126809285Y-73492857D01*
X126809285Y-73588095D01*
X126761666Y-73730952D01*
X126190238Y-74302380D01*
X126809285Y-74302380D01*
X127428333Y-73302380D02*
X127523571Y-73302380D01*
X127618809Y-73350000D01*
X127666428Y-73397619D01*
X127714047Y-73492857D01*
X127761666Y-73683333D01*
X127761666Y-73921428D01*
X127714047Y-74111904D01*
X127666428Y-74207142D01*
X127618809Y-74254761D01*
X127523571Y-74302380D01*
X127428333Y-74302380D01*
X127333095Y-74254761D01*
X127285476Y-74207142D01*
X127237857Y-74111904D01*
X127190238Y-73921428D01*
X127190238Y-73683333D01*
X127237857Y-73492857D01*
X127285476Y-73397619D01*
X127333095Y-73350000D01*
X127428333Y-73302380D01*
X128142619Y-73397619D02*
X128190238Y-73350000D01*
X128285476Y-73302380D01*
X128523571Y-73302380D01*
X128618809Y-73350000D01*
X128666428Y-73397619D01*
X128714047Y-73492857D01*
X128714047Y-73588095D01*
X128666428Y-73730952D01*
X128095000Y-74302380D01*
X128714047Y-74302380D01*
X129333095Y-73302380D02*
X129428333Y-73302380D01*
X129523571Y-73350000D01*
X129571190Y-73397619D01*
X129618809Y-73492857D01*
X129666428Y-73683333D01*
X129666428Y-73921428D01*
X129618809Y-74111904D01*
X129571190Y-74207142D01*
X129523571Y-74254761D01*
X129428333Y-74302380D01*
X129333095Y-74302380D01*
X129237857Y-74254761D01*
X129190238Y-74207142D01*
X129142619Y-74111904D01*
X129095000Y-73921428D01*
X129095000Y-73683333D01*
X129142619Y-73492857D01*
X129190238Y-73397619D01*
X129237857Y-73350000D01*
X129333095Y-73302380D01*
D11*
%TO.C,SW1*%
X37426000Y-60690000D02*
X37426000Y-65190000D01*
X41426000Y-59440000D02*
X39926000Y-59440000D01*
X43926000Y-65190000D02*
X43926000Y-60690000D01*
X39926000Y-66440000D02*
X41426000Y-66440000D01*
%TO.C,R4*%
X86138000Y20090000D02*
X86138000Y20420000D01*
X86138000Y20420000D02*
X92678000Y20420000D01*
X92678000Y20420000D02*
X92678000Y20090000D01*
X86138000Y18010000D02*
X86138000Y17680000D01*
X86138000Y17680000D02*
X92678000Y17680000D01*
X92678000Y17680000D02*
X92678000Y18010000D01*
%TO.C,R3*%
X92678000Y21820000D02*
X92678000Y21490000D01*
X92678000Y21490000D02*
X86138000Y21490000D01*
X86138000Y21490000D02*
X86138000Y21820000D01*
X92678000Y23900000D02*
X92678000Y24230000D01*
X92678000Y24230000D02*
X86138000Y24230000D01*
X86138000Y24230000D02*
X86138000Y23900000D01*
%TO.C,R2*%
X81756000Y18010000D02*
X81756000Y17680000D01*
X81756000Y17680000D02*
X75216000Y17680000D01*
X75216000Y17680000D02*
X75216000Y18010000D01*
X81756000Y20090000D02*
X81756000Y20420000D01*
X81756000Y20420000D02*
X75216000Y20420000D01*
X75216000Y20420000D02*
X75216000Y20090000D01*
%TO.C,R1*%
X81756000Y21820000D02*
X81756000Y21490000D01*
X81756000Y21490000D02*
X75216000Y21490000D01*
X75216000Y21490000D02*
X75216000Y21820000D01*
X81756000Y23900000D02*
X81756000Y24230000D01*
X81756000Y24230000D02*
X75216000Y24230000D01*
X75216000Y24230000D02*
X75216000Y23900000D01*
%TO.C,D1*%
X42482429Y16097479D02*
G75*
G02*
X42482000Y11588316I-1080429J-2254479D01*
G01*
X40321571Y16097479D02*
G75*
G03*
X40322000Y11588316I1080429J-2254479D01*
G01*
X42482827Y16630815D02*
G75*
G02*
X42946830Y11283000I-1080827J-2787815D01*
G01*
X40321173Y16630815D02*
G75*
G03*
X39857170Y11283000I1080827J-2787815D01*
G01*
X39857000Y11283000D02*
X40322000Y11283000D01*
X42482000Y11283000D02*
X42947000Y11283000D01*
%TO.C,U8*%
X81550000Y-39544000D02*
X79900000Y-39544000D01*
X79900000Y-39544000D02*
X79900000Y-70144000D01*
X79900000Y-70144000D02*
X85200000Y-70144000D01*
X85200000Y-70144000D02*
X85200000Y-39544000D01*
X85200000Y-39544000D02*
X83550000Y-39544000D01*
X83550000Y-39544000D02*
G75*
G02*
X81550000Y-39544000I-1000000J0D01*
G01*
%TO.C,Q2*%
X84604000Y-4754000D02*
X81004000Y-4754000D01*
X80965522Y-4765522D02*
G75*
G03*
X82804000Y-9204000I1838478J-1838478D01*
G01*
X84642478Y-4765522D02*
G75*
G02*
X82804000Y-9204000I-1838478J-1838478D01*
G01*
%TO.C,J1*%
X44002000Y-49590000D02*
X42672000Y-49590000D01*
X44002000Y-48260000D02*
X44002000Y-49590000D01*
X41402000Y-49590000D02*
X38802000Y-49590000D01*
X41402000Y-46990000D02*
X41402000Y-49590000D01*
X44002000Y-46990000D02*
X41402000Y-46990000D01*
X38802000Y-49590000D02*
X38802000Y1330000D01*
X44002000Y-46990000D02*
X44002000Y1330000D01*
X44002000Y1330000D02*
X38802000Y1330000D01*
%TO.C,C1*%
X114630000Y-46775000D02*
X114630000Y-46840000D01*
X114630000Y-44600000D02*
X114630000Y-44665000D01*
X111390000Y-46775000D02*
X111390000Y-46840000D01*
X111390000Y-44600000D02*
X111390000Y-44665000D01*
X111390000Y-46840000D02*
X114630000Y-46840000D01*
X111390000Y-44600000D02*
X114630000Y-44600000D01*
%TO.C,C2*%
X111390000Y-15136000D02*
X114630000Y-15136000D01*
X111390000Y-17376000D02*
X114630000Y-17376000D01*
X111390000Y-15136000D02*
X111390000Y-15201000D01*
X111390000Y-17311000D02*
X111390000Y-17376000D01*
X114630000Y-15136000D02*
X114630000Y-15201000D01*
X114630000Y-17311000D02*
X114630000Y-17376000D01*
%TO.C,C3*%
X91516000Y-41695000D02*
X91516000Y-41760000D01*
X91516000Y-39520000D02*
X91516000Y-39585000D01*
X88276000Y-41695000D02*
X88276000Y-41760000D01*
X88276000Y-39520000D02*
X88276000Y-39585000D01*
X88276000Y-41760000D02*
X91516000Y-41760000D01*
X88276000Y-39520000D02*
X91516000Y-39520000D01*
%TO.C,C4*%
X66432000Y23218000D02*
X69672000Y23218000D01*
X66432000Y20978000D02*
X69672000Y20978000D01*
X66432000Y23218000D02*
X66432000Y23153000D01*
X66432000Y21043000D02*
X66432000Y20978000D01*
X69672000Y23218000D02*
X69672000Y23153000D01*
X69672000Y21043000D02*
X69672000Y20978000D01*
%TO.C,C5*%
X145364000Y-46775000D02*
X145364000Y-46840000D01*
X145364000Y-44600000D02*
X145364000Y-44665000D01*
X142124000Y-46775000D02*
X142124000Y-46840000D01*
X142124000Y-44600000D02*
X142124000Y-44665000D01*
X142124000Y-46840000D02*
X145364000Y-46840000D01*
X142124000Y-44600000D02*
X145364000Y-44600000D01*
%TO.C,C6*%
X66432000Y-44600000D02*
X69672000Y-44600000D01*
X66432000Y-46840000D02*
X69672000Y-46840000D01*
X66432000Y-44600000D02*
X66432000Y-44665000D01*
X66432000Y-46775000D02*
X66432000Y-46840000D01*
X69672000Y-44600000D02*
X69672000Y-44665000D01*
X69672000Y-46775000D02*
X69672000Y-46840000D01*
%TO.C,C7*%
X148920000Y-6135000D02*
X148920000Y-6200000D01*
X148920000Y-3960000D02*
X148920000Y-4025000D01*
X145680000Y-6135000D02*
X145680000Y-6200000D01*
X145680000Y-3960000D02*
X145680000Y-4025000D01*
X145680000Y-6200000D02*
X148920000Y-6200000D01*
X145680000Y-3960000D02*
X148920000Y-3960000D01*
%TO.C,C8*%
X66432000Y-10310000D02*
X69672000Y-10310000D01*
X66432000Y-12550000D02*
X69672000Y-12550000D01*
X66432000Y-10310000D02*
X66432000Y-10375000D01*
X66432000Y-12485000D02*
X66432000Y-12550000D01*
X69672000Y-10310000D02*
X69672000Y-10375000D01*
X69672000Y-12485000D02*
X69672000Y-12550000D01*
%TO.C,Q1*%
X84604000Y-11866000D02*
X81004000Y-11866000D01*
X84642478Y-11877522D02*
G75*
G02*
X82804000Y-16316000I-1838478J-1838478D01*
G01*
X80965522Y-11877522D02*
G75*
G03*
X82804000Y-16316000I1838478J-1838478D01*
G01*
%TO.C,U1*%
X145094000Y16290800D02*
X145094000Y26018000D01*
X145081500Y26018000D02*
X98101500Y26018000D01*
X97984000Y26018000D02*
X97984000Y5452600D01*
X98101500Y5452600D02*
X145081500Y5452600D01*
X145094000Y5452600D02*
X145094000Y14290800D01*
X145119400Y14290800D02*
G75*
G02*
X145119400Y16290800I0J1000000D01*
G01*
%TO.C,U2*%
X135144000Y-4004000D02*
X129684000Y-4004000D01*
X129684000Y-4004000D02*
X129684000Y-39684000D01*
X129684000Y-39684000D02*
X142604000Y-39684000D01*
X142604000Y-39684000D02*
X142604000Y-4004000D01*
X142604000Y-4004000D02*
X137144000Y-4004000D01*
X137144000Y-4004000D02*
G75*
G02*
X135144000Y-4004000I-1000000J0D01*
G01*
%TO.C,U3*%
X106664000Y-37906000D02*
X108314000Y-37906000D01*
X108314000Y-37906000D02*
X108314000Y-2226000D01*
X108314000Y-2226000D02*
X103014000Y-2226000D01*
X103014000Y-2226000D02*
X103014000Y-37906000D01*
X103014000Y-37906000D02*
X104664000Y-37906000D01*
X104664000Y-37906000D02*
G75*
G02*
X106664000Y-37906000I1000000J0D01*
G01*
%TO.C,U4*%
X59706000Y23174000D02*
X58056000Y23174000D01*
X58056000Y23174000D02*
X58056000Y-2346000D01*
X58056000Y-2346000D02*
X63356000Y-2346000D01*
X63356000Y-2346000D02*
X63356000Y23174000D01*
X63356000Y23174000D02*
X61706000Y23174000D01*
X61706000Y23174000D02*
G75*
G02*
X59706000Y23174000I-1000000J0D01*
G01*
%TO.C,U5*%
X59706000Y-10354000D02*
X58056000Y-10354000D01*
X58056000Y-10354000D02*
X58056000Y-35874000D01*
X58056000Y-35874000D02*
X63356000Y-35874000D01*
X63356000Y-35874000D02*
X63356000Y-10354000D01*
X63356000Y-10354000D02*
X61706000Y-10354000D01*
X61706000Y-10354000D02*
G75*
G02*
X59706000Y-10354000I-1000000J0D01*
G01*
%TO.C,U6*%
X59706000Y-44644000D02*
X58056000Y-44644000D01*
X58056000Y-44644000D02*
X58056000Y-70164000D01*
X58056000Y-70164000D02*
X63356000Y-70164000D01*
X63356000Y-70164000D02*
X63356000Y-44644000D01*
X63356000Y-44644000D02*
X61706000Y-44644000D01*
X61706000Y-44644000D02*
G75*
G02*
X59706000Y-44644000I-1000000J0D01*
G01*
%TO.C,U7*%
X139048000Y-44644000D02*
X137398000Y-44644000D01*
X139048000Y-70164000D02*
X139048000Y-44644000D01*
X133748000Y-70164000D02*
X139048000Y-70164000D01*
X133748000Y-44644000D02*
X133748000Y-70164000D01*
X135398000Y-44644000D02*
X133748000Y-44644000D01*
X137398000Y-44644000D02*
G75*
G02*
X135398000Y-44644000I-1000000J0D01*
G01*
%TO.C,U9*%
X108334000Y-44644000D02*
X106684000Y-44644000D01*
X108334000Y-70164000D02*
X108334000Y-44644000D01*
X103034000Y-70164000D02*
X108334000Y-70164000D01*
X103034000Y-44644000D02*
X103034000Y-70164000D01*
X104684000Y-44644000D02*
X103034000Y-44644000D01*
X106684000Y-44644000D02*
G75*
G02*
X104684000Y-44644000I-1000000J0D01*
G01*
%TO.C,SW1*%
D10*
X39306666Y-57554761D02*
X39449523Y-57602380D01*
X39687619Y-57602380D01*
X39782857Y-57554761D01*
X39830476Y-57507142D01*
X39878095Y-57411904D01*
X39878095Y-57316666D01*
X39830476Y-57221428D01*
X39782857Y-57173809D01*
X39687619Y-57126190D01*
X39497142Y-57078571D01*
X39401904Y-57030952D01*
X39354285Y-56983333D01*
X39306666Y-56888095D01*
X39306666Y-56792857D01*
X39354285Y-56697619D01*
X39401904Y-56650000D01*
X39497142Y-56602380D01*
X39735238Y-56602380D01*
X39878095Y-56650000D01*
X40211428Y-56602380D02*
X40449523Y-57602380D01*
X40640000Y-56888095D01*
X40830476Y-57602380D01*
X41068571Y-56602380D01*
X41973333Y-57602380D02*
X41401904Y-57602380D01*
X41687619Y-57602380D02*
X41687619Y-56602380D01*
X41592380Y-56745238D01*
X41497142Y-56840476D01*
X41401904Y-56888095D01*
%TO.C,R4*%
X89241333Y18597619D02*
X88908000Y19073809D01*
X88669904Y18597619D02*
X88669904Y19597619D01*
X89050857Y19597619D01*
X89146095Y19550000D01*
X89193714Y19502380D01*
X89241333Y19407142D01*
X89241333Y19264285D01*
X89193714Y19169047D01*
X89146095Y19121428D01*
X89050857Y19073809D01*
X88669904Y19073809D01*
X90098476Y19264285D02*
X90098476Y18597619D01*
X89860380Y19645238D02*
X89622285Y18930952D01*
X90241333Y18930952D01*
%TO.C,R3*%
X89241333Y22407619D02*
X88908000Y22883809D01*
X88669904Y22407619D02*
X88669904Y23407619D01*
X89050857Y23407619D01*
X89146095Y23360000D01*
X89193714Y23312380D01*
X89241333Y23217142D01*
X89241333Y23074285D01*
X89193714Y22979047D01*
X89146095Y22931428D01*
X89050857Y22883809D01*
X88669904Y22883809D01*
X89574666Y23407619D02*
X90193714Y23407619D01*
X89860380Y23026666D01*
X90003238Y23026666D01*
X90098476Y22979047D01*
X90146095Y22931428D01*
X90193714Y22836190D01*
X90193714Y22598095D01*
X90146095Y22502857D01*
X90098476Y22455238D01*
X90003238Y22407619D01*
X89717523Y22407619D01*
X89622285Y22455238D01*
X89574666Y22502857D01*
%TO.C,R2*%
X78319333Y18597619D02*
X77986000Y19073809D01*
X77747904Y18597619D02*
X77747904Y19597619D01*
X78128857Y19597619D01*
X78224095Y19550000D01*
X78271714Y19502380D01*
X78319333Y19407142D01*
X78319333Y19264285D01*
X78271714Y19169047D01*
X78224095Y19121428D01*
X78128857Y19073809D01*
X77747904Y19073809D01*
X78700285Y19502380D02*
X78747904Y19550000D01*
X78843142Y19597619D01*
X79081238Y19597619D01*
X79176476Y19550000D01*
X79224095Y19502380D01*
X79271714Y19407142D01*
X79271714Y19311904D01*
X79224095Y19169047D01*
X78652666Y18597619D01*
X79271714Y18597619D01*
%TO.C,R1*%
X78319333Y22407619D02*
X77986000Y22883809D01*
X77747904Y22407619D02*
X77747904Y23407619D01*
X78128857Y23407619D01*
X78224095Y23360000D01*
X78271714Y23312380D01*
X78319333Y23217142D01*
X78319333Y23074285D01*
X78271714Y22979047D01*
X78224095Y22931428D01*
X78128857Y22883809D01*
X77747904Y22883809D01*
X79271714Y22407619D02*
X78700285Y22407619D01*
X78986000Y22407619D02*
X78986000Y23407619D01*
X78890761Y23264761D01*
X78795523Y23169523D01*
X78700285Y23121904D01*
%TO.C,D1*%
X40536904Y17327619D02*
X40536904Y18327619D01*
X40775000Y18327619D01*
X40917857Y18280000D01*
X41013095Y18184761D01*
X41060714Y18089523D01*
X41108333Y17899047D01*
X41108333Y17756190D01*
X41060714Y17565714D01*
X41013095Y17470476D01*
X40917857Y17375238D01*
X40775000Y17327619D01*
X40536904Y17327619D01*
X42060714Y17327619D02*
X41489285Y17327619D01*
X41775000Y17327619D02*
X41775000Y18327619D01*
X41679761Y18184761D01*
X41584523Y18089523D01*
X41489285Y18041904D01*
%TO.C,U8*%
X81788095Y-37996380D02*
X81788095Y-38805904D01*
X81835714Y-38901142D01*
X81883333Y-38948761D01*
X81978571Y-38996380D01*
X82169047Y-38996380D01*
X82264285Y-38948761D01*
X82311904Y-38901142D01*
X82359523Y-38805904D01*
X82359523Y-37996380D01*
X82978571Y-38424952D02*
X82883333Y-38377333D01*
X82835714Y-38329714D01*
X82788095Y-38234476D01*
X82788095Y-38186857D01*
X82835714Y-38091619D01*
X82883333Y-38044000D01*
X82978571Y-37996380D01*
X83169047Y-37996380D01*
X83264285Y-38044000D01*
X83311904Y-38091619D01*
X83359523Y-38186857D01*
X83359523Y-38234476D01*
X83311904Y-38329714D01*
X83264285Y-38377333D01*
X83169047Y-38424952D01*
X82978571Y-38424952D01*
X82883333Y-38472571D01*
X82835714Y-38520190D01*
X82788095Y-38615428D01*
X82788095Y-38805904D01*
X82835714Y-38901142D01*
X82883333Y-38948761D01*
X82978571Y-38996380D01*
X83169047Y-38996380D01*
X83264285Y-38948761D01*
X83311904Y-38901142D01*
X83359523Y-38805904D01*
X83359523Y-38615428D01*
X83311904Y-38520190D01*
X83264285Y-38472571D01*
X83169047Y-38424952D01*
%TO.C,Q2*%
X82708761Y-10711619D02*
X82613523Y-10664000D01*
X82518285Y-10568761D01*
X82375428Y-10425904D01*
X82280190Y-10378285D01*
X82184952Y-10378285D01*
X82232571Y-10616380D02*
X82137333Y-10568761D01*
X82042095Y-10473523D01*
X81994476Y-10283047D01*
X81994476Y-9949714D01*
X82042095Y-9759238D01*
X82137333Y-9664000D01*
X82232571Y-9616380D01*
X82423047Y-9616380D01*
X82518285Y-9664000D01*
X82613523Y-9759238D01*
X82661142Y-9949714D01*
X82661142Y-10283047D01*
X82613523Y-10473523D01*
X82518285Y-10568761D01*
X82423047Y-10616380D01*
X82232571Y-10616380D01*
X83042095Y-9711619D02*
X83089714Y-9664000D01*
X83184952Y-9616380D01*
X83423047Y-9616380D01*
X83518285Y-9664000D01*
X83565904Y-9711619D01*
X83613523Y-9806857D01*
X83613523Y-9902095D01*
X83565904Y-10044952D01*
X82994476Y-10616380D01*
X83613523Y-10616380D01*
%TO.C,J1*%
X41068666Y-50042380D02*
X41068666Y-50756666D01*
X41021047Y-50899523D01*
X40925809Y-50994761D01*
X40782952Y-51042380D01*
X40687714Y-51042380D01*
X42068666Y-51042380D02*
X41497238Y-51042380D01*
X41782952Y-51042380D02*
X41782952Y-50042380D01*
X41687714Y-50185238D01*
X41592476Y-50280476D01*
X41497238Y-50328095D01*
%TO.C,C1*%
X112843333Y-43827142D02*
X112795714Y-43874761D01*
X112652857Y-43922380D01*
X112557619Y-43922380D01*
X112414761Y-43874761D01*
X112319523Y-43779523D01*
X112271904Y-43684285D01*
X112224285Y-43493809D01*
X112224285Y-43350952D01*
X112271904Y-43160476D01*
X112319523Y-43065238D01*
X112414761Y-42970000D01*
X112557619Y-42922380D01*
X112652857Y-42922380D01*
X112795714Y-42970000D01*
X112843333Y-43017619D01*
X113795714Y-43922380D02*
X113224285Y-43922380D01*
X113510000Y-43922380D02*
X113510000Y-42922380D01*
X113414761Y-43065238D01*
X113319523Y-43160476D01*
X113224285Y-43208095D01*
%TO.C,C2*%
X112843333Y-14363142D02*
X112795714Y-14410761D01*
X112652857Y-14458380D01*
X112557619Y-14458380D01*
X112414761Y-14410761D01*
X112319523Y-14315523D01*
X112271904Y-14220285D01*
X112224285Y-14029809D01*
X112224285Y-13886952D01*
X112271904Y-13696476D01*
X112319523Y-13601238D01*
X112414761Y-13506000D01*
X112557619Y-13458380D01*
X112652857Y-13458380D01*
X112795714Y-13506000D01*
X112843333Y-13553619D01*
X113224285Y-13553619D02*
X113271904Y-13506000D01*
X113367142Y-13458380D01*
X113605238Y-13458380D01*
X113700476Y-13506000D01*
X113748095Y-13553619D01*
X113795714Y-13648857D01*
X113795714Y-13744095D01*
X113748095Y-13886952D01*
X113176666Y-14458380D01*
X113795714Y-14458380D01*
%TO.C,C3*%
X89729333Y-38747142D02*
X89681714Y-38794761D01*
X89538857Y-38842380D01*
X89443619Y-38842380D01*
X89300761Y-38794761D01*
X89205523Y-38699523D01*
X89157904Y-38604285D01*
X89110285Y-38413809D01*
X89110285Y-38270952D01*
X89157904Y-38080476D01*
X89205523Y-37985238D01*
X89300761Y-37890000D01*
X89443619Y-37842380D01*
X89538857Y-37842380D01*
X89681714Y-37890000D01*
X89729333Y-37937619D01*
X90062666Y-37842380D02*
X90681714Y-37842380D01*
X90348380Y-38223333D01*
X90491238Y-38223333D01*
X90586476Y-38270952D01*
X90634095Y-38318571D01*
X90681714Y-38413809D01*
X90681714Y-38651904D01*
X90634095Y-38747142D01*
X90586476Y-38794761D01*
X90491238Y-38842380D01*
X90205523Y-38842380D01*
X90110285Y-38794761D01*
X90062666Y-38747142D01*
%TO.C,C4*%
X67885333Y23990857D02*
X67837714Y23943238D01*
X67694857Y23895619D01*
X67599619Y23895619D01*
X67456761Y23943238D01*
X67361523Y24038476D01*
X67313904Y24133714D01*
X67266285Y24324190D01*
X67266285Y24467047D01*
X67313904Y24657523D01*
X67361523Y24752761D01*
X67456761Y24848000D01*
X67599619Y24895619D01*
X67694857Y24895619D01*
X67837714Y24848000D01*
X67885333Y24800380D01*
X68742476Y24562285D02*
X68742476Y23895619D01*
X68504380Y24943238D02*
X68266285Y24228952D01*
X68885333Y24228952D01*
%TO.C,C5*%
X143577333Y-43827142D02*
X143529714Y-43874761D01*
X143386857Y-43922380D01*
X143291619Y-43922380D01*
X143148761Y-43874761D01*
X143053523Y-43779523D01*
X143005904Y-43684285D01*
X142958285Y-43493809D01*
X142958285Y-43350952D01*
X143005904Y-43160476D01*
X143053523Y-43065238D01*
X143148761Y-42970000D01*
X143291619Y-42922380D01*
X143386857Y-42922380D01*
X143529714Y-42970000D01*
X143577333Y-43017619D01*
X144482095Y-42922380D02*
X144005904Y-42922380D01*
X143958285Y-43398571D01*
X144005904Y-43350952D01*
X144101142Y-43303333D01*
X144339238Y-43303333D01*
X144434476Y-43350952D01*
X144482095Y-43398571D01*
X144529714Y-43493809D01*
X144529714Y-43731904D01*
X144482095Y-43827142D01*
X144434476Y-43874761D01*
X144339238Y-43922380D01*
X144101142Y-43922380D01*
X144005904Y-43874761D01*
X143958285Y-43827142D01*
%TO.C,C6*%
X67885333Y-43827142D02*
X67837714Y-43874761D01*
X67694857Y-43922380D01*
X67599619Y-43922380D01*
X67456761Y-43874761D01*
X67361523Y-43779523D01*
X67313904Y-43684285D01*
X67266285Y-43493809D01*
X67266285Y-43350952D01*
X67313904Y-43160476D01*
X67361523Y-43065238D01*
X67456761Y-42970000D01*
X67599619Y-42922380D01*
X67694857Y-42922380D01*
X67837714Y-42970000D01*
X67885333Y-43017619D01*
X68742476Y-42922380D02*
X68552000Y-42922380D01*
X68456761Y-42970000D01*
X68409142Y-43017619D01*
X68313904Y-43160476D01*
X68266285Y-43350952D01*
X68266285Y-43731904D01*
X68313904Y-43827142D01*
X68361523Y-43874761D01*
X68456761Y-43922380D01*
X68647238Y-43922380D01*
X68742476Y-43874761D01*
X68790095Y-43827142D01*
X68837714Y-43731904D01*
X68837714Y-43493809D01*
X68790095Y-43398571D01*
X68742476Y-43350952D01*
X68647238Y-43303333D01*
X68456761Y-43303333D01*
X68361523Y-43350952D01*
X68313904Y-43398571D01*
X68266285Y-43493809D01*
%TO.C,C7*%
X147133333Y-3187142D02*
X147085714Y-3234761D01*
X146942857Y-3282380D01*
X146847619Y-3282380D01*
X146704761Y-3234761D01*
X146609523Y-3139523D01*
X146561904Y-3044285D01*
X146514285Y-2853809D01*
X146514285Y-2710952D01*
X146561904Y-2520476D01*
X146609523Y-2425238D01*
X146704761Y-2330000D01*
X146847619Y-2282380D01*
X146942857Y-2282380D01*
X147085714Y-2330000D01*
X147133333Y-2377619D01*
X147466666Y-2282380D02*
X148133333Y-2282380D01*
X147704761Y-3282380D01*
%TO.C,C8*%
X67885333Y-9537142D02*
X67837714Y-9584761D01*
X67694857Y-9632380D01*
X67599619Y-9632380D01*
X67456761Y-9584761D01*
X67361523Y-9489523D01*
X67313904Y-9394285D01*
X67266285Y-9203809D01*
X67266285Y-9060952D01*
X67313904Y-8870476D01*
X67361523Y-8775238D01*
X67456761Y-8680000D01*
X67599619Y-8632380D01*
X67694857Y-8632380D01*
X67837714Y-8680000D01*
X67885333Y-8727619D01*
X68456761Y-9060952D02*
X68361523Y-9013333D01*
X68313904Y-8965714D01*
X68266285Y-8870476D01*
X68266285Y-8822857D01*
X68313904Y-8727619D01*
X68361523Y-8680000D01*
X68456761Y-8632380D01*
X68647238Y-8632380D01*
X68742476Y-8680000D01*
X68790095Y-8727619D01*
X68837714Y-8822857D01*
X68837714Y-8870476D01*
X68790095Y-8965714D01*
X68742476Y-9013333D01*
X68647238Y-9060952D01*
X68456761Y-9060952D01*
X68361523Y-9108571D01*
X68313904Y-9156190D01*
X68266285Y-9251428D01*
X68266285Y-9441904D01*
X68313904Y-9537142D01*
X68361523Y-9584761D01*
X68456761Y-9632380D01*
X68647238Y-9632380D01*
X68742476Y-9584761D01*
X68790095Y-9537142D01*
X68837714Y-9441904D01*
X68837714Y-9251428D01*
X68790095Y-9156190D01*
X68742476Y-9108571D01*
X68647238Y-9060952D01*
%TO.C,Q1*%
X82708761Y-17823619D02*
X82613523Y-17776000D01*
X82518285Y-17680761D01*
X82375428Y-17537904D01*
X82280190Y-17490285D01*
X82184952Y-17490285D01*
X82232571Y-17728380D02*
X82137333Y-17680761D01*
X82042095Y-17585523D01*
X81994476Y-17395047D01*
X81994476Y-17061714D01*
X82042095Y-16871238D01*
X82137333Y-16776000D01*
X82232571Y-16728380D01*
X82423047Y-16728380D01*
X82518285Y-16776000D01*
X82613523Y-16871238D01*
X82661142Y-17061714D01*
X82661142Y-17395047D01*
X82613523Y-17585523D01*
X82518285Y-17680761D01*
X82423047Y-17728380D01*
X82232571Y-17728380D01*
X83613523Y-17728380D02*
X83042095Y-17728380D01*
X83327809Y-17728380D02*
X83327809Y-16728380D01*
X83232571Y-16871238D01*
X83137333Y-16966476D01*
X83042095Y-17014095D01*
%TO.C,U1*%
X145923095Y15787619D02*
X145923095Y14978095D01*
X145970714Y14882857D01*
X146018333Y14835238D01*
X146113571Y14787619D01*
X146304047Y14787619D01*
X146399285Y14835238D01*
X146446904Y14882857D01*
X146494523Y14978095D01*
X146494523Y15787619D01*
X147494523Y14787619D02*
X146923095Y14787619D01*
X147208809Y14787619D02*
X147208809Y15787619D01*
X147113571Y15644761D01*
X147018333Y15549523D01*
X146923095Y15501904D01*
%TO.C,U2*%
X135382095Y-2456380D02*
X135382095Y-3265904D01*
X135429714Y-3361142D01*
X135477333Y-3408761D01*
X135572571Y-3456380D01*
X135763047Y-3456380D01*
X135858285Y-3408761D01*
X135905904Y-3361142D01*
X135953523Y-3265904D01*
X135953523Y-2456380D01*
X136382095Y-2551619D02*
X136429714Y-2504000D01*
X136524952Y-2456380D01*
X136763047Y-2456380D01*
X136858285Y-2504000D01*
X136905904Y-2551619D01*
X136953523Y-2646857D01*
X136953523Y-2742095D01*
X136905904Y-2884952D01*
X136334476Y-3456380D01*
X136953523Y-3456380D01*
%TO.C,U3*%
X104902095Y-38358380D02*
X104902095Y-39167904D01*
X104949714Y-39263142D01*
X104997333Y-39310761D01*
X105092571Y-39358380D01*
X105283047Y-39358380D01*
X105378285Y-39310761D01*
X105425904Y-39263142D01*
X105473523Y-39167904D01*
X105473523Y-38358380D01*
X105854476Y-38358380D02*
X106473523Y-38358380D01*
X106140190Y-38739333D01*
X106283047Y-38739333D01*
X106378285Y-38786952D01*
X106425904Y-38834571D01*
X106473523Y-38929809D01*
X106473523Y-39167904D01*
X106425904Y-39263142D01*
X106378285Y-39310761D01*
X106283047Y-39358380D01*
X105997333Y-39358380D01*
X105902095Y-39310761D01*
X105854476Y-39263142D01*
%TO.C,U4*%
X59944095Y24721619D02*
X59944095Y23912095D01*
X59991714Y23816857D01*
X60039333Y23769238D01*
X60134571Y23721619D01*
X60325047Y23721619D01*
X60420285Y23769238D01*
X60467904Y23816857D01*
X60515523Y23912095D01*
X60515523Y24721619D01*
X61420285Y24388285D02*
X61420285Y23721619D01*
X61182190Y24769238D02*
X60944095Y24054952D01*
X61563142Y24054952D01*
%TO.C,U5*%
X59944095Y-8806380D02*
X59944095Y-9615904D01*
X59991714Y-9711142D01*
X60039333Y-9758761D01*
X60134571Y-9806380D01*
X60325047Y-9806380D01*
X60420285Y-9758761D01*
X60467904Y-9711142D01*
X60515523Y-9615904D01*
X60515523Y-8806380D01*
X61467904Y-8806380D02*
X60991714Y-8806380D01*
X60944095Y-9282571D01*
X60991714Y-9234952D01*
X61086952Y-9187333D01*
X61325047Y-9187333D01*
X61420285Y-9234952D01*
X61467904Y-9282571D01*
X61515523Y-9377809D01*
X61515523Y-9615904D01*
X61467904Y-9711142D01*
X61420285Y-9758761D01*
X61325047Y-9806380D01*
X61086952Y-9806380D01*
X60991714Y-9758761D01*
X60944095Y-9711142D01*
%TO.C,U6*%
X59944095Y-43096380D02*
X59944095Y-43905904D01*
X59991714Y-44001142D01*
X60039333Y-44048761D01*
X60134571Y-44096380D01*
X60325047Y-44096380D01*
X60420285Y-44048761D01*
X60467904Y-44001142D01*
X60515523Y-43905904D01*
X60515523Y-43096380D01*
X61420285Y-43096380D02*
X61229809Y-43096380D01*
X61134571Y-43144000D01*
X61086952Y-43191619D01*
X60991714Y-43334476D01*
X60944095Y-43524952D01*
X60944095Y-43905904D01*
X60991714Y-44001142D01*
X61039333Y-44048761D01*
X61134571Y-44096380D01*
X61325047Y-44096380D01*
X61420285Y-44048761D01*
X61467904Y-44001142D01*
X61515523Y-43905904D01*
X61515523Y-43667809D01*
X61467904Y-43572571D01*
X61420285Y-43524952D01*
X61325047Y-43477333D01*
X61134571Y-43477333D01*
X61039333Y-43524952D01*
X60991714Y-43572571D01*
X60944095Y-43667809D01*
%TO.C,U7*%
X135636095Y-43096380D02*
X135636095Y-43905904D01*
X135683714Y-44001142D01*
X135731333Y-44048761D01*
X135826571Y-44096380D01*
X136017047Y-44096380D01*
X136112285Y-44048761D01*
X136159904Y-44001142D01*
X136207523Y-43905904D01*
X136207523Y-43096380D01*
X136588476Y-43096380D02*
X137255142Y-43096380D01*
X136826571Y-44096380D01*
%TO.C,U9*%
X104922095Y-43096380D02*
X104922095Y-43905904D01*
X104969714Y-44001142D01*
X105017333Y-44048761D01*
X105112571Y-44096380D01*
X105303047Y-44096380D01*
X105398285Y-44048761D01*
X105445904Y-44001142D01*
X105493523Y-43905904D01*
X105493523Y-43096380D01*
X106017333Y-44096380D02*
X106207809Y-44096380D01*
X106303047Y-44048761D01*
X106350666Y-44001142D01*
X106445904Y-43858285D01*
X106493523Y-43667809D01*
X106493523Y-43286857D01*
X106445904Y-43191619D01*
X106398285Y-43144000D01*
X106303047Y-43096380D01*
X106112571Y-43096380D01*
X106017333Y-43144000D01*
X105969714Y-43191619D01*
X105922095Y-43286857D01*
X105922095Y-43524952D01*
X105969714Y-43620190D01*
X106017333Y-43667809D01*
X106112571Y-43715428D01*
X106303047Y-43715428D01*
X106398285Y-43667809D01*
X106445904Y-43620190D01*
X106493523Y-43524952D01*
%TD*%
M02*
