%TF.GenerationSoftware,KiCad,Pcbnew,(5.1.6)-1*%
%TF.CreationDate,2020-08-02T22:15:59-07:00*%
%TF.ProjectId,TRS-IO-M1,5452532d-494f-42d4-9d31-2e6b69636164,rev?*%
%TF.SameCoordinates,Original*%
%TF.FileFunction,Copper,L1,Top*%
%TF.FilePolarity,Positive*%
%FSLAX46Y46*%
G04 Gerber Fmt 4.6, Leading zero omitted, Abs format (unit mm)*
G04 Created by KiCad (PCBNEW (5.1.6)-1) date 2020-08-02 22:15:59*
%MOMM*%
%LPD*%
G01*
G04 APERTURE LIST*
%TA.AperFunction,ComponentPad*%
%ADD10C,2.000000*%
%TD*%
%TA.AperFunction,ComponentPad*%
%ADD11O,1.600000X1.600000*%
%TD*%
%TA.AperFunction,ComponentPad*%
%ADD12C,1.600000*%
%TD*%
%TA.AperFunction,ComponentPad*%
%ADD13O,1.800000X1.070000*%
%TD*%
%TA.AperFunction,ComponentPad*%
%ADD14R,1.800000X1.070000*%
%TD*%
%TA.AperFunction,ComponentPad*%
%ADD15R,1.600000X1.600000*%
%TD*%
%TA.AperFunction,ComponentPad*%
%ADD16R,1.050000X1.500000*%
%TD*%
%TA.AperFunction,ComponentPad*%
%ADD17O,1.050000X1.500000*%
%TD*%
%TA.AperFunction,ComponentPad*%
%ADD18O,1.700000X1.700000*%
%TD*%
%TA.AperFunction,ComponentPad*%
%ADD19R,1.700000X1.700000*%
%TD*%
%TA.AperFunction,ViaPad*%
%ADD20C,0.800000*%
%TD*%
%TA.AperFunction,Conductor*%
%ADD21C,0.200000*%
%TD*%
%TA.AperFunction,Conductor*%
%ADD22C,0.500380*%
%TD*%
%TA.AperFunction,Conductor*%
%ADD23C,0.250000*%
%TD*%
G04 APERTURE END LIST*
D10*
%TO.P,SW1,1*%
%TO.N,GND*%
X42926000Y-66190000D03*
%TO.P,SW1,2*%
%TO.N,BUTTON*%
X38426000Y-66190000D03*
%TO.P,SW1,1*%
%TO.N,GND*%
X42926000Y-59690000D03*
%TO.P,SW1,2*%
%TO.N,BUTTON*%
X38426000Y-59690000D03*
%TD*%
D11*
%TO.P,R4,2*%
%TO.N,BUTTON*%
X93218000Y19050000D03*
D12*
%TO.P,R4,1*%
%TO.N,+3V3*%
X85598000Y19050000D03*
%TD*%
D11*
%TO.P,R3,2*%
%TO.N,Net-(D1-Pad3)*%
X85598000Y22860000D03*
D12*
%TO.P,R3,1*%
%TO.N,LED_BLUE*%
X93218000Y22860000D03*
%TD*%
D11*
%TO.P,R2,2*%
%TO.N,Net-(D1-Pad4)*%
X74676000Y19050000D03*
D12*
%TO.P,R2,1*%
%TO.N,LED_GREEN*%
X82296000Y19050000D03*
%TD*%
D11*
%TO.P,R1,2*%
%TO.N,Net-(D1-Pad1)*%
X74676000Y22860000D03*
D12*
%TO.P,R1,1*%
%TO.N,LED_RED*%
X82296000Y22860000D03*
%TD*%
D13*
%TO.P,D1,4*%
%TO.N,Net-(D1-Pad4)*%
X41402000Y15748000D03*
%TO.P,D1,3*%
%TO.N,Net-(D1-Pad3)*%
X41402000Y14478000D03*
%TO.P,D1,2*%
%TO.N,GND*%
X41402000Y13208000D03*
D14*
%TO.P,D1,1*%
%TO.N,Net-(D1-Pad1)*%
X41402000Y11938000D03*
%TD*%
D15*
%TO.P,U8,1*%
%TO.N,AA0*%
X78740000Y-40874000D03*
D11*
%TO.P,U8,13*%
%TO.N,AA11*%
X86360000Y-68814000D03*
%TO.P,U8,2*%
%TO.N,AA1*%
X78740000Y-43414000D03*
%TO.P,U8,14*%
%TO.N,AA12*%
X86360000Y-66274000D03*
%TO.P,U8,3*%
%TO.N,AA2*%
X78740000Y-45954000D03*
%TO.P,U8,15*%
%TO.N,AA13*%
X86360000Y-63734000D03*
%TO.P,U8,4*%
%TO.N,AA3*%
X78740000Y-48494000D03*
%TO.P,U8,16*%
%TO.N,AA14*%
X86360000Y-61194000D03*
%TO.P,U8,5*%
%TO.N,AA4*%
X78740000Y-51034000D03*
%TO.P,U8,17*%
%TO.N,AA15*%
X86360000Y-58654000D03*
%TO.P,U8,6*%
%TO.N,AA5*%
X78740000Y-53574000D03*
%TO.P,U8,18*%
%TO.N,ADDR_TRS_IO*%
X86360000Y-56114000D03*
%TO.P,U8,7*%
%TO.N,AA6*%
X78740000Y-56114000D03*
%TO.P,U8,19*%
%TO.N,ADDR_FREHD*%
X86360000Y-53574000D03*
%TO.P,U8,8*%
%TO.N,AA7*%
X78740000Y-58654000D03*
%TO.P,U8,20*%
%TO.N,ADDR_0*%
X86360000Y-51034000D03*
%TO.P,U8,9*%
%TO.N,AA8*%
X78740000Y-61194000D03*
%TO.P,U8,21*%
%TO.N,ADDR_1*%
X86360000Y-48494000D03*
%TO.P,U8,10*%
%TO.N,AA9*%
X78740000Y-63734000D03*
%TO.P,U8,22*%
%TO.N,ADDR_2*%
X86360000Y-45954000D03*
%TO.P,U8,11*%
%TO.N,AA10*%
X78740000Y-66274000D03*
%TO.P,U8,23*%
%TO.N,Net-(U8-Pad23)*%
X86360000Y-43414000D03*
%TO.P,U8,12*%
%TO.N,GND*%
X78740000Y-68814000D03*
%TO.P,U8,24*%
%TO.N,+5V*%
X86360000Y-40874000D03*
%TD*%
D16*
%TO.P,Q2,1*%
%TO.N,GND*%
X84074000Y-6604000D03*
D17*
%TO.P,Q2,3*%
%TO.N,INT_N*%
X81534000Y-6604000D03*
%TO.P,Q2,2*%
%TO.N,ESP_INT*%
X82804000Y-6604000D03*
%TD*%
D18*
%TO.P,J1,40*%
%TO.N,5V*%
X40132000Y0D03*
%TO.P,J1,39*%
%TO.N,A2*%
X42672000Y0D03*
%TO.P,J1,38*%
%TO.N,GND*%
X40132000Y-2540000D03*
%TO.P,J1,37*%
%TO.N,A6*%
X42672000Y-2540000D03*
%TO.P,J1,36*%
%TO.N,A5*%
X40132000Y-5080000D03*
%TO.P,J1,35*%
%TO.N,A7*%
X42672000Y-5080000D03*
%TO.P,J1,34*%
%TO.N,WAIT_N*%
X40132000Y-7620000D03*
%TO.P,J1,33*%
%TO.N,A3*%
X42672000Y-7620000D03*
%TO.P,J1,32*%
%TO.N,A4*%
X40132000Y-10160000D03*
%TO.P,J1,31*%
%TO.N,D2*%
X42672000Y-10160000D03*
%TO.P,J1,30*%
%TO.N,GND*%
X40132000Y-12700000D03*
%TO.P,J1,29*%
%TO.N,D0*%
X42672000Y-12700000D03*
%TO.P,J1,28*%
%TO.N,A1*%
X40132000Y-15240000D03*
%TO.P,J1,27*%
%TO.N,D5*%
X42672000Y-15240000D03*
%TO.P,J1,26*%
%TO.N,A0*%
X40132000Y-17780000D03*
%TO.P,J1,25*%
%TO.N,D3*%
X42672000Y-17780000D03*
%TO.P,J1,24*%
%TO.N,TEST_N*%
X40132000Y-20320000D03*
%TO.P,J1,23*%
%TO.N,D6*%
X42672000Y-20320000D03*
%TO.P,J1,22*%
%TO.N,INT_N*%
X40132000Y-22860000D03*
%TO.P,J1,21*%
%TO.N,D1*%
X42672000Y-22860000D03*
%TO.P,J1,20*%
%TO.N,IN_N*%
X40132000Y-25400000D03*
%TO.P,J1,19*%
%TO.N,D7*%
X42672000Y-25400000D03*
%TO.P,J1,18*%
%TO.N,A9*%
X40132000Y-27940000D03*
%TO.P,J1,17*%
%TO.N,D4*%
X42672000Y-27940000D03*
%TO.P,J1,16*%
%TO.N,RD_N*%
X40132000Y-30480000D03*
%TO.P,J1,15*%
%TO.N,MUX*%
X42672000Y-30480000D03*
%TO.P,J1,14*%
%TO.N,WR_N*%
X40132000Y-33020000D03*
%TO.P,J1,13*%
%TO.N,INTACK_N*%
X42672000Y-33020000D03*
%TO.P,J1,12*%
%TO.N,A8*%
X40132000Y-35560000D03*
%TO.P,J1,11*%
%TO.N,OUT_N*%
X42672000Y-35560000D03*
%TO.P,J1,10*%
%TO.N,A11*%
X40132000Y-38100000D03*
%TO.P,J1,9*%
%TO.N,A14*%
X42672000Y-38100000D03*
%TO.P,J1,8*%
%TO.N,A15*%
X40132000Y-40640000D03*
%TO.P,J1,7*%
%TO.N,GND*%
X42672000Y-40640000D03*
%TO.P,J1,6*%
%TO.N,A12*%
X40132000Y-43180000D03*
%TO.P,J1,5*%
%TO.N,A13*%
X42672000Y-43180000D03*
%TO.P,J1,4*%
%TO.N,CAS_N*%
X40132000Y-45720000D03*
%TO.P,J1,3*%
%TO.N,A10*%
X42672000Y-45720000D03*
%TO.P,J1,2*%
%TO.N,RAS_N*%
X40132000Y-48260000D03*
D19*
%TO.P,J1,1*%
%TO.N,SYSRES_N*%
X42672000Y-48260000D03*
%TD*%
D12*
%TO.P,C1,2*%
%TO.N,GND*%
X114260000Y-45720000D03*
%TO.P,C1,1*%
%TO.N,+5V*%
X111760000Y-45720000D03*
%TD*%
%TO.P,C2,1*%
%TO.N,+5V*%
X111760000Y-16256000D03*
%TO.P,C2,2*%
%TO.N,GND*%
X114260000Y-16256000D03*
%TD*%
%TO.P,C3,2*%
%TO.N,GND*%
X91146000Y-40640000D03*
%TO.P,C3,1*%
%TO.N,+5V*%
X88646000Y-40640000D03*
%TD*%
%TO.P,C4,1*%
%TO.N,+3V3*%
X66802000Y22098000D03*
%TO.P,C4,2*%
%TO.N,GND*%
X69302000Y22098000D03*
%TD*%
%TO.P,C5,2*%
%TO.N,GND*%
X144994000Y-45720000D03*
%TO.P,C5,1*%
%TO.N,+3V3*%
X142494000Y-45720000D03*
%TD*%
%TO.P,C6,1*%
%TO.N,+5V*%
X66802000Y-45720000D03*
%TO.P,C6,2*%
%TO.N,GND*%
X69302000Y-45720000D03*
%TD*%
%TO.P,C7,2*%
%TO.N,GND*%
X148550000Y-5080000D03*
%TO.P,C7,1*%
%TO.N,+5V*%
X146050000Y-5080000D03*
%TD*%
%TO.P,C8,1*%
%TO.N,+5V*%
X66802000Y-11430000D03*
%TO.P,C8,2*%
%TO.N,GND*%
X69302000Y-11430000D03*
%TD*%
D17*
%TO.P,Q1,2*%
%TO.N,WAIT*%
X82804000Y-13716000D03*
%TO.P,Q1,3*%
%TO.N,WAIT_N*%
X81534000Y-13716000D03*
D16*
%TO.P,Q1,1*%
%TO.N,GND*%
X84074000Y-13716000D03*
%TD*%
D15*
%TO.P,U1,1*%
%TO.N,Net-(U1-Pad1)*%
X143764000Y27178000D03*
D11*
%TO.P,U1,2*%
%TO.N,Net-(U1-Pad2)*%
X141224000Y27178000D03*
%TO.P,U1,20*%
%TO.N,+3V3*%
X98044000Y4318000D03*
%TO.P,U1,3*%
%TO.N,Net-(U1-Pad3)*%
X138684000Y27178000D03*
%TO.P,U1,21*%
%TO.N,Net-(U1-Pad21)*%
X100584000Y4318000D03*
%TO.P,U1,4*%
%TO.N,DD3*%
X136144000Y27178000D03*
%TO.P,U1,22*%
%TO.N,ESP_READ_N*%
X103124000Y4318000D03*
%TO.P,U1,5*%
%TO.N,Net-(U1-Pad5)*%
X133604000Y27178000D03*
%TO.P,U1,23*%
%TO.N,BUTTON*%
X105664000Y4318000D03*
%TO.P,U1,6*%
%TO.N,Net-(U1-Pad6)*%
X131064000Y27178000D03*
%TO.P,U1,24*%
%TO.N,ESP_S0*%
X108204000Y4318000D03*
%TO.P,U1,7*%
%TO.N,LED_GREEN*%
X128524000Y27178000D03*
%TO.P,U1,25*%
%TO.N,ESP_S1*%
X110744000Y4318000D03*
%TO.P,U1,8*%
%TO.N,DD4*%
X125984000Y27178000D03*
%TO.P,U1,26*%
%TO.N,LED_BLUE*%
X113284000Y4318000D03*
%TO.P,U1,9*%
%TO.N,DD5*%
X123444000Y27178000D03*
%TO.P,U1,27*%
%TO.N,ESP_INT*%
X115824000Y4318000D03*
%TO.P,U1,10*%
%TO.N,LED_RED*%
X120904000Y27178000D03*
%TO.P,U1,28*%
%TO.N,SCK*%
X118364000Y4318000D03*
%TO.P,U1,11*%
%TO.N,DD6*%
X118364000Y27178000D03*
%TO.P,U1,29*%
%TO.N,CS23S17*%
X120904000Y4318000D03*
%TO.P,U1,12*%
%TO.N,DD7*%
X115824000Y27178000D03*
%TO.P,U1,30*%
%TO.N,ESP_WAIT_RELEASE_N*%
X123444000Y4318000D03*
%TO.P,U1,13*%
%TO.N,GND*%
X113284000Y27178000D03*
%TO.P,U1,31*%
%TO.N,DD2*%
X125984000Y4318000D03*
%TO.P,U1,14*%
%TO.N,MOSI*%
X110744000Y27178000D03*
%TO.P,U1,32*%
%TO.N,DD0*%
X128524000Y4318000D03*
%TO.P,U1,15*%
%TO.N,Net-(U1-Pad15)*%
X108204000Y27178000D03*
%TO.P,U1,33*%
%TO.N,GND*%
X131064000Y4318000D03*
%TO.P,U1,16*%
%TO.N,Net-(U1-Pad16)*%
X105664000Y27178000D03*
%TO.P,U1,34*%
%TO.N,DD1*%
X133604000Y4318000D03*
%TO.P,U1,17*%
%TO.N,ESP_MISO*%
X103124000Y27178000D03*
%TO.P,U1,35*%
%TO.N,Net-(U1-Pad35)*%
X136144000Y4318000D03*
%TO.P,U1,18*%
%TO.N,ESP3_SEL_N*%
X100584000Y27178000D03*
%TO.P,U1,36*%
%TO.N,Net-(U1-Pad36)*%
X138684000Y4318000D03*
%TO.P,U1,19*%
%TO.N,GND*%
X98044000Y27178000D03*
%TO.P,U1,37*%
%TO.N,Net-(U1-Pad37)*%
X141224000Y4318000D03*
%TO.P,U1,38*%
%TO.N,+5V*%
X143700500Y4318000D03*
%TD*%
D15*
%TO.P,U2,1*%
%TO.N,AA14*%
X128524000Y-5334000D03*
D11*
%TO.P,U2,15*%
%TO.N,DD3*%
X143764000Y-38354000D03*
%TO.P,U2,2*%
%TO.N,AA12*%
X128524000Y-7874000D03*
%TO.P,U2,16*%
%TO.N,DD4*%
X143764000Y-35814000D03*
%TO.P,U2,3*%
%TO.N,AA7*%
X128524000Y-10414000D03*
%TO.P,U2,17*%
%TO.N,DD5*%
X143764000Y-33274000D03*
%TO.P,U2,4*%
%TO.N,AA6*%
X128524000Y-12954000D03*
%TO.P,U2,18*%
%TO.N,DD6*%
X143764000Y-30734000D03*
%TO.P,U2,5*%
%TO.N,AA5*%
X128524000Y-15494000D03*
%TO.P,U2,19*%
%TO.N,DD7*%
X143764000Y-28194000D03*
%TO.P,U2,6*%
%TO.N,AA4*%
X128524000Y-18034000D03*
%TO.P,U2,20*%
%TO.N,GND*%
X143764000Y-25654000D03*
%TO.P,U2,7*%
%TO.N,AA3*%
X128524000Y-20574000D03*
%TO.P,U2,21*%
%TO.N,AA10*%
X143764000Y-23114000D03*
%TO.P,U2,8*%
%TO.N,AA2*%
X128524000Y-23114000D03*
%TO.P,U2,22*%
%TO.N,SRAM_OE_N*%
X143764000Y-20574000D03*
%TO.P,U2,9*%
%TO.N,AA1*%
X128524000Y-25654000D03*
%TO.P,U2,23*%
%TO.N,AA11*%
X143764000Y-18034000D03*
%TO.P,U2,10*%
%TO.N,AA0*%
X128524000Y-28194000D03*
%TO.P,U2,24*%
%TO.N,AA9*%
X143764000Y-15494000D03*
%TO.P,U2,11*%
%TO.N,DD0*%
X128524000Y-30734000D03*
%TO.P,U2,25*%
%TO.N,AA8*%
X143764000Y-12954000D03*
%TO.P,U2,12*%
%TO.N,DD1*%
X128524000Y-33274000D03*
%TO.P,U2,26*%
%TO.N,AA13*%
X143764000Y-10414000D03*
%TO.P,U2,13*%
%TO.N,DD2*%
X128524000Y-35814000D03*
%TO.P,U2,27*%
%TO.N,SRAM_WE_N*%
X143764000Y-7874000D03*
%TO.P,U2,14*%
%TO.N,GND*%
X128524000Y-38354000D03*
%TO.P,U2,28*%
%TO.N,+5V*%
X143764000Y-5334000D03*
%TD*%
D15*
%TO.P,U3,1*%
%TO.N,AA8*%
X109474000Y-36576000D03*
D11*
%TO.P,U3,15*%
%TO.N,GND*%
X101854000Y-3556000D03*
%TO.P,U3,2*%
%TO.N,AA9*%
X109474000Y-34036000D03*
%TO.P,U3,16*%
%TO.N,GND*%
X101854000Y-6096000D03*
%TO.P,U3,3*%
%TO.N,AA10*%
X109474000Y-31496000D03*
%TO.P,U3,17*%
%TO.N,GND*%
X101854000Y-8636000D03*
%TO.P,U3,4*%
%TO.N,AA11*%
X109474000Y-28956000D03*
%TO.P,U3,18*%
%TO.N,+5V*%
X101854000Y-11176000D03*
%TO.P,U3,5*%
%TO.N,AA12*%
X109474000Y-26416000D03*
%TO.P,U3,19*%
%TO.N,Net-(U3-Pad19)*%
X101854000Y-13716000D03*
%TO.P,U3,6*%
%TO.N,AA13*%
X109474000Y-23876000D03*
%TO.P,U3,20*%
%TO.N,Net-(U3-Pad20)*%
X101854000Y-16256000D03*
%TO.P,U3,7*%
%TO.N,AA14*%
X109474000Y-21336000D03*
%TO.P,U3,21*%
%TO.N,AA0*%
X101854000Y-18796000D03*
%TO.P,U3,8*%
%TO.N,AA15*%
X109474000Y-18796000D03*
%TO.P,U3,22*%
%TO.N,AA1*%
X101854000Y-21336000D03*
%TO.P,U3,9*%
%TO.N,+5V*%
X109474000Y-16256000D03*
%TO.P,U3,23*%
%TO.N,AA2*%
X101854000Y-23876000D03*
%TO.P,U3,10*%
%TO.N,GND*%
X109474000Y-13716000D03*
%TO.P,U3,24*%
%TO.N,AA3*%
X101854000Y-26416000D03*
%TO.P,U3,11*%
%TO.N,CS23S17*%
X109474000Y-11176000D03*
%TO.P,U3,25*%
%TO.N,AA4*%
X101854000Y-28956000D03*
%TO.P,U3,12*%
%TO.N,SCK*%
X109474000Y-8636000D03*
%TO.P,U3,26*%
%TO.N,AA5*%
X101854000Y-31496000D03*
%TO.P,U3,13*%
%TO.N,MOSI*%
X109474000Y-6096000D03*
%TO.P,U3,27*%
%TO.N,AA6*%
X101854000Y-34036000D03*
%TO.P,U3,14*%
%TO.N,MISO*%
X109474000Y-3556000D03*
%TO.P,U3,28*%
%TO.N,AA7*%
X101854000Y-36576000D03*
%TD*%
D15*
%TO.P,U4,1*%
%TO.N,READ_N*%
X56896000Y21844000D03*
D11*
%TO.P,U4,11*%
%TO.N,DD7*%
X64516000Y-1016000D03*
%TO.P,U4,2*%
%TO.N,D0*%
X56896000Y19304000D03*
%TO.P,U4,12*%
%TO.N,DD6*%
X64516000Y1524000D03*
%TO.P,U4,3*%
%TO.N,D1*%
X56896000Y16764000D03*
%TO.P,U4,13*%
%TO.N,DD5*%
X64516000Y4064000D03*
%TO.P,U4,4*%
%TO.N,D2*%
X56896000Y14224000D03*
%TO.P,U4,14*%
%TO.N,DD4*%
X64516000Y6604000D03*
%TO.P,U4,5*%
%TO.N,D3*%
X56896000Y11684000D03*
%TO.P,U4,15*%
%TO.N,DD3*%
X64516000Y9144000D03*
%TO.P,U4,6*%
%TO.N,D4*%
X56896000Y9144000D03*
%TO.P,U4,16*%
%TO.N,DD2*%
X64516000Y11684000D03*
%TO.P,U4,7*%
%TO.N,D5*%
X56896000Y6604000D03*
%TO.P,U4,17*%
%TO.N,DD1*%
X64516000Y14224000D03*
%TO.P,U4,8*%
%TO.N,D6*%
X56896000Y4064000D03*
%TO.P,U4,18*%
%TO.N,DD0*%
X64516000Y16764000D03*
%TO.P,U4,9*%
%TO.N,D7*%
X56896000Y1524000D03*
%TO.P,U4,19*%
%TO.N,DBUS_SEL_N*%
X64516000Y19304000D03*
%TO.P,U4,10*%
%TO.N,GND*%
X56896000Y-1016000D03*
%TO.P,U4,20*%
%TO.N,+3V3*%
X64516000Y21844000D03*
%TD*%
D15*
%TO.P,U5,1*%
%TO.N,+5V*%
X56896000Y-11684000D03*
D11*
%TO.P,U5,11*%
%TO.N,AA7*%
X64516000Y-34544000D03*
%TO.P,U5,2*%
%TO.N,A0*%
X56896000Y-14224000D03*
%TO.P,U5,12*%
%TO.N,AA6*%
X64516000Y-32004000D03*
%TO.P,U5,3*%
%TO.N,A1*%
X56896000Y-16764000D03*
%TO.P,U5,13*%
%TO.N,AA5*%
X64516000Y-29464000D03*
%TO.P,U5,4*%
%TO.N,A2*%
X56896000Y-19304000D03*
%TO.P,U5,14*%
%TO.N,AA4*%
X64516000Y-26924000D03*
%TO.P,U5,5*%
%TO.N,A3*%
X56896000Y-21844000D03*
%TO.P,U5,15*%
%TO.N,AA3*%
X64516000Y-24384000D03*
%TO.P,U5,6*%
%TO.N,A4*%
X56896000Y-24384000D03*
%TO.P,U5,16*%
%TO.N,AA2*%
X64516000Y-21844000D03*
%TO.P,U5,7*%
%TO.N,A5*%
X56896000Y-26924000D03*
%TO.P,U5,17*%
%TO.N,AA1*%
X64516000Y-19304000D03*
%TO.P,U5,8*%
%TO.N,A6*%
X56896000Y-29464000D03*
%TO.P,U5,18*%
%TO.N,AA0*%
X64516000Y-16764000D03*
%TO.P,U5,9*%
%TO.N,A7*%
X56896000Y-32004000D03*
%TO.P,U5,19*%
%TO.N,GND*%
X64516000Y-14224000D03*
%TO.P,U5,10*%
X56896000Y-34544000D03*
%TO.P,U5,20*%
%TO.N,+5V*%
X64516000Y-11684000D03*
%TD*%
D15*
%TO.P,U6,1*%
%TO.N,+5V*%
X56896000Y-45974000D03*
D11*
%TO.P,U6,11*%
%TO.N,AA15*%
X64516000Y-68834000D03*
%TO.P,U6,2*%
%TO.N,A8*%
X56896000Y-48514000D03*
%TO.P,U6,12*%
%TO.N,AA14*%
X64516000Y-66294000D03*
%TO.P,U6,3*%
%TO.N,A9*%
X56896000Y-51054000D03*
%TO.P,U6,13*%
%TO.N,AA13*%
X64516000Y-63754000D03*
%TO.P,U6,4*%
%TO.N,A10*%
X56896000Y-53594000D03*
%TO.P,U6,14*%
%TO.N,AA12*%
X64516000Y-61214000D03*
%TO.P,U6,5*%
%TO.N,A11*%
X56896000Y-56134000D03*
%TO.P,U6,15*%
%TO.N,AA11*%
X64516000Y-58674000D03*
%TO.P,U6,6*%
%TO.N,A12*%
X56896000Y-58674000D03*
%TO.P,U6,16*%
%TO.N,AA10*%
X64516000Y-56134000D03*
%TO.P,U6,7*%
%TO.N,A13*%
X56896000Y-61214000D03*
%TO.P,U6,17*%
%TO.N,AA9*%
X64516000Y-53594000D03*
%TO.P,U6,8*%
%TO.N,A14*%
X56896000Y-63754000D03*
%TO.P,U6,18*%
%TO.N,AA8*%
X64516000Y-51054000D03*
%TO.P,U6,9*%
%TO.N,A15*%
X56896000Y-66294000D03*
%TO.P,U6,19*%
%TO.N,GND*%
X64516000Y-48514000D03*
%TO.P,U6,10*%
X56896000Y-68834000D03*
%TO.P,U6,20*%
%TO.N,+5V*%
X64516000Y-45974000D03*
%TD*%
%TO.P,U7,20*%
%TO.N,+3V3*%
X140208000Y-45974000D03*
%TO.P,U7,10*%
%TO.N,GND*%
X132588000Y-68834000D03*
%TO.P,U7,19*%
X140208000Y-48514000D03*
%TO.P,U7,9*%
%TO.N,Net-(U7-Pad9)*%
X132588000Y-66294000D03*
%TO.P,U7,18*%
%TO.N,ESP3_SEL_N*%
X140208000Y-51054000D03*
%TO.P,U7,8*%
%TO.N,Net-(U7-Pad8)*%
X132588000Y-63754000D03*
%TO.P,U7,17*%
%TO.N,ESP_READ_N*%
X140208000Y-53594000D03*
%TO.P,U7,7*%
%TO.N,Net-(U7-Pad7)*%
X132588000Y-61214000D03*
%TO.P,U7,16*%
%TO.N,ESP_MISO*%
X140208000Y-56134000D03*
%TO.P,U7,6*%
%TO.N,S1*%
X132588000Y-58674000D03*
%TO.P,U7,15*%
%TO.N,ESP_S0*%
X140208000Y-58674000D03*
%TO.P,U7,5*%
%TO.N,S0*%
X132588000Y-56134000D03*
%TO.P,U7,14*%
%TO.N,ESP_S1*%
X140208000Y-61214000D03*
%TO.P,U7,4*%
%TO.N,MISO*%
X132588000Y-53594000D03*
%TO.P,U7,13*%
%TO.N,Net-(U7-Pad13)*%
X140208000Y-63754000D03*
%TO.P,U7,3*%
%TO.N,READ_N*%
X132588000Y-51054000D03*
%TO.P,U7,12*%
%TO.N,Net-(U7-Pad12)*%
X140208000Y-66294000D03*
%TO.P,U7,2*%
%TO.N,ESP_SEL_N*%
X132588000Y-48514000D03*
%TO.P,U7,11*%
%TO.N,Net-(U7-Pad11)*%
X140208000Y-68834000D03*
D15*
%TO.P,U7,1*%
%TO.N,+3V3*%
X132588000Y-45974000D03*
%TD*%
D11*
%TO.P,U9,20*%
%TO.N,+5V*%
X109494000Y-45974000D03*
%TO.P,U9,10*%
%TO.N,GND*%
X101874000Y-68834000D03*
%TO.P,U9,19*%
%TO.N,SRAM_WE_N*%
X109494000Y-48514000D03*
%TO.P,U9,9*%
%TO.N,OUT_N*%
X101874000Y-66294000D03*
%TO.P,U9,18*%
%TO.N,SRAM_OE_N*%
X109494000Y-51054000D03*
%TO.P,U9,8*%
%TO.N,IN_N*%
X101874000Y-63754000D03*
%TO.P,U9,17*%
%TO.N,S1*%
X109494000Y-53594000D03*
%TO.P,U9,7*%
%TO.N,WR_N*%
X101874000Y-61214000D03*
%TO.P,U9,16*%
%TO.N,S0*%
X109494000Y-56134000D03*
%TO.P,U9,6*%
%TO.N,RD_N*%
X101874000Y-58674000D03*
%TO.P,U9,15*%
%TO.N,DBUS_SEL_N*%
X109494000Y-58674000D03*
%TO.P,U9,5*%
%TO.N,ADDR_2*%
X101874000Y-56134000D03*
%TO.P,U9,14*%
%TO.N,ESP_SEL_N*%
X109494000Y-61214000D03*
%TO.P,U9,4*%
%TO.N,ADDR_1*%
X101874000Y-53594000D03*
%TO.P,U9,13*%
%TO.N,READ_N*%
X109494000Y-63754000D03*
%TO.P,U9,3*%
%TO.N,ADDR_0*%
X101874000Y-51054000D03*
%TO.P,U9,12*%
%TO.N,WAIT*%
X109494000Y-66294000D03*
%TO.P,U9,2*%
%TO.N,ADDR_FREHD*%
X101874000Y-48514000D03*
%TO.P,U9,11*%
%TO.N,ESP_WAIT_RELEASE_N*%
X109494000Y-68834000D03*
D15*
%TO.P,U9,1*%
%TO.N,ADDR_TRS_IO*%
X101874000Y-45974000D03*
%TD*%
D20*
%TO.N,GND*%
X114046000Y-7366000D03*
%TO.N,+5V*%
X111760000Y-2032000D03*
X143700500Y-1841500D03*
X111760000Y-41910000D03*
X64516000Y-38608000D03*
%TO.N,GND*%
X52578000Y-40640000D03*
X113792000Y-13716000D03*
X66040000Y-37757810D03*
X37084000Y-12700000D03*
X37084000Y-2540000D03*
X53848000Y20828000D03*
X131064000Y18034000D03*
X139700000Y18034000D03*
%TO.N,+3V3*%
X151130000Y6604000D03*
X151130000Y-41656000D03*
X96520000Y24892000D03*
%TO.N,A10*%
X54102000Y-45720000D03*
X54356000Y-53594000D03*
%TO.N,A12*%
X53340000Y-44450000D03*
X53340000Y-58674000D03*
%TO.N,A13*%
X52516000Y-43180000D03*
X52578000Y-61214000D03*
%TO.N,A15*%
X51500000Y-41910000D03*
X51816000Y-66294000D03*
%TO.N,A11*%
X50800000Y-39370000D03*
X51054000Y-56134000D03*
%TO.N,A14*%
X49976000Y-38100000D03*
X50038000Y-63754000D03*
%TO.N,A8*%
X49276000Y-36830000D03*
X49276000Y-48514000D03*
%TO.N,OUT_N*%
X47244000Y-35560000D03*
X47498000Y-73914000D03*
X100076000Y-74168000D03*
%TO.N,WR_N*%
X46503999Y-34290000D03*
X104648000Y-73152000D03*
X104586000Y-61468000D03*
X46736000Y-73152000D03*
%TO.N,RD_N*%
X45404000Y-31750000D03*
X45720000Y-71882000D03*
X103886000Y-72136000D03*
%TO.N,A9*%
X48514000Y-29210000D03*
X48514000Y-51054000D03*
%TO.N,D4*%
X47504000Y9144000D03*
X47498000Y-27940000D03*
%TO.N,IN_N*%
X44704000Y-26416000D03*
X44958000Y-70866000D03*
X103124000Y-70866000D03*
%TO.N,D7*%
X49604000Y1270000D03*
X50038000Y-25400000D03*
%TO.N,INT_N*%
X50800000Y-4318000D03*
X50800000Y-23622000D03*
%TO.N,D1*%
X45404000Y16510000D03*
X45466000Y-22860000D03*
%TO.N,D6*%
X48904000Y4064000D03*
X49022000Y-20320000D03*
%TO.N,A0*%
X52256000Y-19050000D03*
X52070000Y-14224000D03*
%TO.N,D3*%
X46804000Y11430000D03*
X46736000Y-17780000D03*
%TO.N,D5*%
X48204000Y6604000D03*
X48204000Y-15240000D03*
%TO.N,D0*%
X44704000Y-12700000D03*
X44704000Y19304000D03*
%TO.N,A4*%
X52956000Y-11430000D03*
X52832000Y-24384000D03*
%TO.N,D2*%
X46104000Y14224000D03*
X46104000Y-10160000D03*
%TO.N,WAIT_N*%
X78486000Y-8890000D03*
%TO.N,A3*%
X58420000Y-7620000D03*
X58420000Y-21844000D03*
%TO.N,A5*%
X59182000Y-6350000D03*
X59182000Y-26924000D03*
%TO.N,A7*%
X53656000Y-5080000D03*
X53594000Y-32004000D03*
%TO.N,A6*%
X54356000Y-2540000D03*
X54356000Y-29464000D03*
%TO.N,A2*%
X55118000Y0D03*
X55118000Y-19304000D03*
%TO.N,WAIT*%
X90678000Y-67564000D03*
%TO.N,ESP_INT*%
X82804000Y2032000D03*
%TO.N,ESP_READ_N*%
X103124000Y0D03*
X150279810Y-508000D03*
X150368000Y-53594000D03*
%TO.N,ESP_S0*%
X118618000Y-57404000D03*
X118872000Y762000D03*
X108204000Y508000D03*
%TO.N,ESP_S1*%
X117856000Y-59944000D03*
X117602000Y1270000D03*
X110744000Y1270000D03*
%TO.N,SCK*%
X112610190Y-8382000D03*
X112268000Y5334000D03*
%TO.N,CS23S17*%
X115824000Y-11176000D03*
X115570000Y2032000D03*
%TO.N,ESP_WAIT_RELEASE_N*%
X123444000Y-68834000D03*
%TO.N,ESP_MISO*%
X119380000Y-54864000D03*
X119634000Y24892000D03*
%TO.N,ESP3_SEL_N*%
X120396000Y-52070000D03*
X121920000Y24130000D03*
%TO.N,READ_N*%
X94742000Y-65024000D03*
X94488000Y-4318000D03*
X60960000Y-4318000D03*
X125984000Y-63754000D03*
X125730000Y-51054000D03*
%TO.N,ESP_SEL_N*%
X126746000Y-61214000D03*
X127000000Y-48514000D03*
%TO.N,MISO*%
X116586000Y-53594000D03*
X116586000Y-3556000D03*
%TO.N,S1*%
X115570000Y-53594000D03*
X115570000Y-58674000D03*
%TO.N,DD3*%
X136144000Y9398000D03*
X142240000Y9144000D03*
%TO.N,DD4*%
X72898000Y15240000D03*
X125984000Y15240000D03*
X137160000Y15240000D03*
X137414000Y-35814000D03*
%TO.N,DD5*%
X73406000Y12954000D03*
X123444000Y12954000D03*
X131064000Y-32534001D03*
X131826000Y12954000D03*
%TO.N,DD6*%
X73152000Y10160000D03*
X118364000Y10160000D03*
X141224000Y10160000D03*
X140208000Y-30480000D03*
%TO.N,DD7*%
X73152000Y7874000D03*
X115824000Y7620000D03*
X129286000Y7874000D03*
X130048000Y-28194000D03*
%TO.N,DD2*%
X125984000Y11684000D03*
X131318000Y2286000D03*
%TO.N,DD0*%
X128016000Y16510000D03*
%TO.N,DD1*%
X133604000Y14224000D03*
X133604000Y-33274000D03*
%TO.N,AA14*%
X69918000Y-65278000D03*
X70218003Y-62738000D03*
X83820000Y-24892000D03*
X120650000Y-21336000D03*
X120650000Y-5588000D03*
%TO.N,AA12*%
X69218000Y-62738000D03*
X69218000Y-67564000D03*
X82042000Y-29972000D03*
X124968000Y-26416000D03*
X124968000Y-7874000D03*
%TO.N,AA7*%
X70866000Y-58674000D03*
X66802000Y-36830000D03*
X107696000Y-10160000D03*
%TO.N,AA6*%
X71566000Y-56134000D03*
X66548000Y-34036000D03*
X106996000Y-12446000D03*
%TO.N,AA5*%
X72266000Y-53594000D03*
X66294000Y-31242000D03*
X106296000Y-14986000D03*
%TO.N,AA4*%
X72966000Y-51054000D03*
X66294000Y-28702000D03*
X105596000Y-17780000D03*
%TO.N,AA3*%
X73666000Y-48514000D03*
X66421000Y-26289000D03*
X100584000Y-40070000D03*
X112610190Y-40132000D03*
X112610190Y-20574000D03*
%TO.N,AA10*%
X66294000Y-56134000D03*
X66294000Y-66294000D03*
X91948000Y-65024000D03*
X92202000Y-35306000D03*
X136714000Y-31750000D03*
X136652000Y-23114000D03*
%TO.N,AA2*%
X74366000Y-45974000D03*
X66294000Y-23622000D03*
X99568000Y-40894000D03*
X113284000Y-40894000D03*
X113310190Y-23114000D03*
%TO.N,SRAM_OE_N*%
X115570000Y-51054000D03*
X115570000Y-19558000D03*
%TO.N,AA1*%
X75184000Y-43434000D03*
X66675000Y-21463000D03*
X98806000Y-42926000D03*
X114046000Y-42926000D03*
X114010190Y-25654000D03*
%TO.N,AA11*%
X68518000Y-58674000D03*
X68326000Y-69850000D03*
X81026000Y-32766000D03*
X135890000Y-29210000D03*
X135890000Y-18034000D03*
%TO.N,AA0*%
X75946000Y-40894000D03*
X66548000Y-18796000D03*
X98044000Y-43942000D03*
X114808000Y-43942000D03*
X114808000Y-28194000D03*
%TO.N,AA9*%
X67056000Y-53594000D03*
X67056000Y-63754000D03*
X93047999Y-62484000D03*
X93047999Y-38100000D03*
X138684000Y-34036000D03*
X138684000Y-15494000D03*
%TO.N,AA8*%
X67818000Y-51054000D03*
X67818000Y-61214000D03*
X93980000Y-59944000D03*
X93980000Y-39370000D03*
X141478000Y-36830000D03*
X141624001Y-12954000D03*
%TO.N,AA13*%
X82804000Y-27686000D03*
X134874000Y-24130000D03*
X134874000Y-10414000D03*
%TO.N,SRAM_WE_N*%
X125984000Y-48768000D03*
X125984000Y-6858000D03*
%TO.N,AA15*%
X71374000Y-68834000D03*
X71374000Y-60198000D03*
X84836000Y-22352000D03*
%TO.N,DBUS_SEL_N*%
X95504000Y-58166000D03*
X95504000Y-2794000D03*
X61660000Y-3048000D03*
%TO.N,ADDR_TRS_IO*%
X89408000Y-55118000D03*
X89154000Y-45974000D03*
%TO.N,ADDR_FREHD*%
X90170000Y-53340000D03*
X90170000Y-48514000D03*
%TO.N,ADDR_1*%
X87630000Y-52070000D03*
%TO.N,ADDR_2*%
X88646000Y-56134000D03*
%TO.N,BUTTON*%
X105156000Y19050000D03*
%TO.N,LED_GREEN*%
X128524000Y18288000D03*
%TO.N,LED_BLUE*%
X113538000Y22860000D03*
%TO.N,LED_RED*%
X120904000Y21844000D03*
%TO.N,Net-(D1-Pad3)*%
X46990000Y25400000D03*
%TD*%
D21*
%TO.N,GND*%
X107188000Y-7366000D02*
X107188000Y-7366000D01*
D22*
%TO.N,+5V*%
X111760000Y-2032000D02*
X143510000Y-2032000D01*
X143510000Y-2032000D02*
X143700500Y-1841500D01*
X88412000Y-40874000D02*
X88646000Y-40640000D01*
X86360000Y-40874000D02*
X88412000Y-40874000D01*
X66548000Y-45974000D02*
X66802000Y-45720000D01*
X64516000Y-45974000D02*
X66548000Y-45974000D01*
X89896191Y-41890191D02*
X111740191Y-41890191D01*
X88646000Y-40640000D02*
X89896191Y-41890191D01*
X111740191Y-41890191D02*
X111760000Y-41910000D01*
X84094000Y-38608000D02*
X86360000Y-40874000D01*
X64516000Y-38608000D02*
X84094000Y-38608000D01*
X66548000Y-11684000D02*
X66802000Y-11430000D01*
X64516000Y-11684000D02*
X66548000Y-11684000D01*
D21*
X101854000Y-11580002D02*
X101854000Y-11176000D01*
X106529998Y-16256000D02*
X101854000Y-11580002D01*
X109474000Y-16256000D02*
X106529998Y-16256000D01*
X64516000Y-11684000D02*
X56896000Y-11684000D01*
X64516000Y-45974000D02*
X56896000Y-45974000D01*
D23*
%TO.N,GND*%
X42672000Y-40640000D02*
X52578000Y-40640000D01*
D21*
X103124000Y-7366000D02*
X101854000Y-6096000D01*
X114046000Y-7366000D02*
X103124000Y-7366000D01*
X109474000Y-13716000D02*
X113792000Y-13716000D01*
D23*
X91146000Y-40640000D02*
X88263810Y-37757810D01*
X88263810Y-37757810D02*
X66040000Y-37757810D01*
X40132000Y-12700000D02*
X37084000Y-12700000D01*
X40132000Y-2540000D02*
X37084000Y-2540000D01*
X67922999Y20718999D02*
X59291001Y20718999D01*
X69302000Y22098000D02*
X67922999Y20718999D01*
X59291001Y1379001D02*
X56896000Y-1016000D01*
X59291001Y20718999D02*
X59291001Y1379001D01*
X59291001Y20718999D02*
X53957001Y20718999D01*
X53957001Y20718999D02*
X53848000Y20828000D01*
X131064000Y18034000D02*
X139700000Y18034000D01*
D22*
%TO.N,+3V3*%
X98044000Y4318000D02*
X100330000Y6604000D01*
X100330000Y6604000D02*
X151130000Y6604000D01*
X140462000Y-45720000D02*
X140208000Y-45974000D01*
X142494000Y-45720000D02*
X140462000Y-45720000D01*
X142494000Y-45720000D02*
X146558000Y-41656000D01*
X146558000Y-41656000D02*
X151130000Y-41656000D01*
X69596000Y24892000D02*
X66802000Y22098000D01*
X66548000Y21844000D02*
X66802000Y22098000D01*
X64516000Y21844000D02*
X66548000Y21844000D01*
D21*
X140208000Y-45974000D02*
X132588000Y-45974000D01*
D23*
X83961002Y19050000D02*
X78119002Y24892000D01*
X78119002Y24892000D02*
X77724000Y24892000D01*
X85598000Y19050000D02*
X83961002Y19050000D01*
D22*
X96520000Y24892000D02*
X77724000Y24892000D01*
X77724000Y24892000D02*
X69596000Y24892000D01*
D21*
%TO.N,A10*%
X42672000Y-45720000D02*
X54102000Y-45720000D01*
X54356000Y-53594000D02*
X56896000Y-53594000D01*
%TO.N,A12*%
X53220001Y-44330001D02*
X53340000Y-44450000D01*
X40132000Y-43180000D02*
X41282001Y-44330001D01*
X41282001Y-44330001D02*
X53220001Y-44330001D01*
X53340000Y-58674000D02*
X56896000Y-58674000D01*
%TO.N,A13*%
X42672000Y-43180000D02*
X52516000Y-43180000D01*
X52578000Y-61214000D02*
X56896000Y-61214000D01*
%TO.N,A15*%
X40132000Y-40640000D02*
X41282001Y-41790001D01*
X51380001Y-41790001D02*
X51500000Y-41910000D01*
X41282001Y-41790001D02*
X51380001Y-41790001D01*
X51816000Y-66294000D02*
X56896000Y-66294000D01*
%TO.N,A11*%
X50680001Y-39250001D02*
X50800000Y-39370000D01*
X40132000Y-38100000D02*
X41282001Y-39250001D01*
X41282001Y-39250001D02*
X50680001Y-39250001D01*
X51054000Y-56134000D02*
X56896000Y-56134000D01*
%TO.N,A14*%
X42672000Y-38100000D02*
X49976000Y-38100000D01*
X50038000Y-63754000D02*
X56896000Y-63754000D01*
%TO.N,A8*%
X40132000Y-35560000D02*
X41402000Y-36830000D01*
X41402000Y-36830000D02*
X49276000Y-36830000D01*
X49276000Y-48514000D02*
X56896000Y-48514000D01*
%TO.N,OUT_N*%
X42672000Y-35560000D02*
X47244000Y-35560000D01*
X47498000Y-73914000D02*
X99822000Y-73914000D01*
X99822000Y-73914000D02*
X100076000Y-74168000D01*
%TO.N,WR_N*%
X46384000Y-34170001D02*
X46503999Y-34290000D01*
X40132000Y-33020000D02*
X41282001Y-34170001D01*
X41282001Y-34170001D02*
X46384000Y-34170001D01*
X102128000Y-61468000D02*
X101874000Y-61214000D01*
X104586000Y-61468000D02*
X102128000Y-61468000D01*
X46736000Y-73152000D02*
X104648000Y-73152000D01*
%TO.N,RD_N*%
X40132000Y-30480000D02*
X41402000Y-31750000D01*
X41402000Y-31750000D02*
X45404000Y-31750000D01*
X45720000Y-71882000D02*
X103632000Y-71882000D01*
X103632000Y-71882000D02*
X103886000Y-72136000D01*
%TO.N,A9*%
X40132000Y-27940000D02*
X41402000Y-29210000D01*
X41402000Y-29210000D02*
X48514000Y-29210000D01*
X48514000Y-51054000D02*
X56896000Y-51054000D01*
%TO.N,D4*%
X56896000Y9144000D02*
X47504000Y9144000D01*
X47498000Y-27940000D02*
X42672000Y-27940000D01*
%TO.N,IN_N*%
X44569999Y-26550001D02*
X44704000Y-26416000D01*
X40132000Y-25400000D02*
X41282001Y-26550001D01*
X41282001Y-26550001D02*
X44569999Y-26550001D01*
X44958000Y-70866000D02*
X103124000Y-70866000D01*
%TO.N,D7*%
X56896000Y1524000D02*
X49858000Y1524000D01*
X49858000Y1524000D02*
X49604000Y1270000D01*
X50038000Y-25400000D02*
X42672000Y-25400000D01*
%TO.N,INT_N*%
X40132000Y-22860000D02*
X40969998Y-22860000D01*
X81534000Y-6604000D02*
X81534000Y-6350000D01*
X81534000Y-6350000D02*
X80772000Y-5588000D01*
X59923998Y-4318000D02*
X50800000Y-4318000D01*
X80772000Y-5588000D02*
X61193998Y-5588000D01*
X61193998Y-5588000D02*
X59923998Y-4318000D01*
X41282001Y-24010001D02*
X40132000Y-22860000D01*
X50411999Y-24010001D02*
X41282001Y-24010001D01*
X50800000Y-23622000D02*
X50411999Y-24010001D01*
%TO.N,D1*%
X56896000Y16764000D02*
X45658000Y16764000D01*
X45658000Y16764000D02*
X45404000Y16510000D01*
X45466000Y-22860000D02*
X42672000Y-22860000D01*
%TO.N,D6*%
X56896000Y4064000D02*
X48904000Y4064000D01*
X49022000Y-20320000D02*
X42672000Y-20320000D01*
%TO.N,A0*%
X40132000Y-17780000D02*
X41402000Y-19050000D01*
X41402000Y-19050000D02*
X52256000Y-19050000D01*
X52070000Y-14224000D02*
X56896000Y-14224000D01*
%TO.N,D3*%
X56896000Y11684000D02*
X47058000Y11684000D01*
X47058000Y11684000D02*
X46804000Y11430000D01*
X46736000Y-17780000D02*
X42672000Y-17780000D01*
%TO.N,A1*%
X56761999Y-16629999D02*
X56896000Y-16764000D01*
X41521999Y-16629999D02*
X56761999Y-16629999D01*
X40132000Y-15240000D02*
X41521999Y-16629999D01*
%TO.N,D5*%
X56896000Y6604000D02*
X48204000Y6604000D01*
X48204000Y-15240000D02*
X42672000Y-15240000D01*
%TO.N,D0*%
X42672000Y-12700000D02*
X44704000Y-12700000D01*
X44704000Y19304000D02*
X56896000Y19304000D01*
%TO.N,A4*%
X52836001Y-11310001D02*
X52956000Y-11430000D01*
X40132000Y-10160000D02*
X41282001Y-11310001D01*
X41282001Y-11310001D02*
X52836001Y-11310001D01*
X52832000Y-24384000D02*
X56896000Y-24384000D01*
%TO.N,D2*%
X56896000Y14224000D02*
X46104000Y14224000D01*
X46104000Y-10160000D02*
X42672000Y-10160000D01*
%TO.N,WAIT_N*%
X78366001Y-8770001D02*
X78486000Y-8890000D01*
X40132000Y-7620000D02*
X41282001Y-8770001D01*
X41282001Y-8770001D02*
X78366001Y-8770001D01*
X78486000Y-10668000D02*
X81534000Y-13716000D01*
X78486000Y-8890000D02*
X78486000Y-10668000D01*
%TO.N,A3*%
X42672000Y-7620000D02*
X58420000Y-7620000D01*
X58420000Y-21844000D02*
X56896000Y-21844000D01*
%TO.N,A5*%
X59062001Y-6230001D02*
X59182000Y-6350000D01*
X40132000Y-5080000D02*
X41282001Y-6230001D01*
X41282001Y-6230001D02*
X59062001Y-6230001D01*
X59182000Y-26924000D02*
X56896000Y-26924000D01*
%TO.N,A7*%
X42672000Y-5080000D02*
X53656000Y-5080000D01*
X53594000Y-32004000D02*
X56896000Y-32004000D01*
%TO.N,A6*%
X42672000Y-2540000D02*
X54356000Y-2540000D01*
X54356000Y-29464000D02*
X56896000Y-29464000D01*
%TO.N,A2*%
X42672000Y0D02*
X55118000Y0D01*
X55118000Y-19304000D02*
X56896000Y-19304000D01*
%TO.N,WAIT*%
X109494000Y-66294000D02*
X108224000Y-67564000D01*
X108224000Y-67564000D02*
X90678000Y-67564000D01*
%TO.N,ESP_INT*%
X113538000Y2032000D02*
X115824000Y4318000D01*
X82804000Y2032000D02*
X113538000Y2032000D01*
%TO.N,ESP_READ_N*%
X103124000Y0D02*
X103632000Y-508000D01*
X103632000Y-508000D02*
X150279810Y-508000D01*
X150368000Y-53594000D02*
X140208000Y-53594000D01*
%TO.N,ESP_S0*%
X140208000Y-58674000D02*
X138938000Y-57404000D01*
X138938000Y-57404000D02*
X118618000Y-57404000D01*
X118872000Y762000D02*
X118618000Y508000D01*
X118618000Y508000D02*
X108204000Y508000D01*
%TO.N,ESP_S1*%
X140208000Y-61214000D02*
X138938000Y-59944000D01*
X138938000Y-59944000D02*
X117856000Y-59944000D01*
X117602000Y1270000D02*
X110744000Y1270000D01*
%TO.N,SCK*%
X109474000Y-8636000D02*
X112356190Y-8636000D01*
X112356190Y-8636000D02*
X112610190Y-8382000D01*
X116948001Y5733999D02*
X118364000Y4318000D01*
X112667999Y5733999D02*
X116948001Y5733999D01*
X112268000Y5334000D02*
X112667999Y5733999D01*
%TO.N,CS23S17*%
X109474000Y-11176000D02*
X115824000Y-11176000D01*
X118618000Y2032000D02*
X120904000Y4318000D01*
X115570000Y2032000D02*
X118618000Y2032000D01*
%TO.N,ESP_WAIT_RELEASE_N*%
X109494000Y-68834000D02*
X123444000Y-68834000D01*
%TO.N,ESP_MISO*%
X140208000Y-56134000D02*
X138938000Y-54864000D01*
X138938000Y-54864000D02*
X119380000Y-54864000D01*
X103124000Y24892000D02*
X103124000Y27178000D01*
X119634000Y24892000D02*
X103124000Y24892000D01*
%TO.N,ESP3_SEL_N*%
X120480001Y-52154001D02*
X120396000Y-52070000D01*
X140208000Y-51054000D02*
X139107999Y-52154001D01*
X139107999Y-52154001D02*
X120480001Y-52154001D01*
X121920000Y24130000D02*
X101346000Y24130000D01*
X100584000Y24892000D02*
X100584000Y27178000D01*
X101346000Y24130000D02*
X100584000Y24892000D01*
%TO.N,READ_N*%
X109494000Y-63754000D02*
X108224000Y-65024000D01*
X108224000Y-65024000D02*
X94742000Y-65024000D01*
X94488000Y-4318000D02*
X60960000Y-4318000D01*
X109494000Y-63754000D02*
X125984000Y-63754000D01*
X125730000Y-51054000D02*
X132588000Y-51054000D01*
%TO.N,ESP_SEL_N*%
X109494000Y-61214000D02*
X126746000Y-61214000D01*
X127000000Y-48514000D02*
X132588000Y-48514000D01*
%TO.N,MISO*%
X132588000Y-53594000D02*
X116586000Y-53594000D01*
X116586000Y-3556000D02*
X109474000Y-3556000D01*
%TO.N,S0*%
X109494000Y-56134000D02*
X132588000Y-56134000D01*
%TO.N,S1*%
X109494000Y-53594000D02*
X115570000Y-53594000D01*
X115570000Y-58674000D02*
X132588000Y-58674000D01*
%TO.N,DD3*%
X64516000Y9144000D02*
X135890000Y9144000D01*
X135890000Y9144000D02*
X136144000Y9398000D01*
X136144000Y9398000D02*
X141986000Y9398000D01*
X141986000Y9398000D02*
X142240000Y9144000D01*
%TO.N,DD4*%
X72898000Y15240000D02*
X125984000Y15240000D01*
X125984000Y15240000D02*
X137160000Y15240000D01*
X137414000Y-35814000D02*
X143764000Y-35814000D01*
%TO.N,DD5*%
X73406000Y12954000D02*
X123444000Y12954000D01*
X143764000Y-33274000D02*
X143024001Y-32534001D01*
X143024001Y-32534001D02*
X131064000Y-32534001D01*
X131826000Y12954000D02*
X123444000Y12954000D01*
%TO.N,DD6*%
X73152000Y10160000D02*
X118364000Y10160000D01*
X118364000Y10160000D02*
X141224000Y10160000D01*
X143510000Y-30480000D02*
X143764000Y-30734000D01*
X140208000Y-30480000D02*
X143510000Y-30480000D01*
%TO.N,DD7*%
X73152000Y7874000D02*
X115570000Y7874000D01*
X115570000Y7874000D02*
X115824000Y7620000D01*
X115824000Y7620000D02*
X129032000Y7620000D01*
X129032000Y7620000D02*
X129286000Y7874000D01*
X130048000Y-28194000D02*
X143764000Y-28194000D01*
%TO.N,DD2*%
X64516000Y11684000D02*
X125984000Y11684000D01*
X125984000Y4318000D02*
X125984000Y2286000D01*
X125984000Y2286000D02*
X131318000Y2286000D01*
%TO.N,DD0*%
X64516000Y16764000D02*
X127762000Y16764000D01*
X127762000Y16764000D02*
X128016000Y16510000D01*
%TO.N,DD1*%
X64516000Y14224000D02*
X133604000Y14224000D01*
X133604000Y-33274000D02*
X128524000Y-33274000D01*
%TO.N,AA14*%
X86340000Y-61214000D02*
X86360000Y-61194000D01*
X64516000Y-66294000D02*
X65532000Y-65278000D01*
X65532000Y-65278000D02*
X69918000Y-65278000D01*
X85259999Y-62294001D02*
X86360000Y-61194000D01*
X70662002Y-62294001D02*
X85259999Y-62294001D01*
X70218003Y-62738000D02*
X70662002Y-62294001D01*
X83904001Y-24976001D02*
X83820000Y-24892000D01*
X109474000Y-21336000D02*
X105833999Y-24976001D01*
X105833999Y-24976001D02*
X83904001Y-24976001D01*
X109474000Y-21336000D02*
X120650000Y-21336000D01*
X128270000Y-5588000D02*
X128524000Y-5334000D01*
X120650000Y-5588000D02*
X128270000Y-5588000D01*
%TO.N,AA12*%
X64516000Y-61214000D02*
X66040000Y-62738000D01*
X66040000Y-62738000D02*
X69218000Y-62738000D01*
X85070000Y-67564000D02*
X86360000Y-66274000D01*
X69218000Y-67564000D02*
X85070000Y-67564000D01*
X82126001Y-30056001D02*
X82042000Y-29972000D01*
X109474000Y-26416000D02*
X105833999Y-30056001D01*
X105833999Y-30056001D02*
X82126001Y-30056001D01*
X109474000Y-26416000D02*
X124968000Y-26416000D01*
X124968000Y-7874000D02*
X128524000Y-7874000D01*
%TO.N,AA7*%
X78720000Y-58674000D02*
X78740000Y-58654000D01*
X70866000Y-58674000D02*
X78720000Y-58674000D01*
X67056000Y-36576000D02*
X66802000Y-36830000D01*
X101854000Y-36576000D02*
X67056000Y-36576000D01*
X127870001Y-9760001D02*
X128524000Y-10414000D01*
X108095999Y-9760001D02*
X127870001Y-9760001D01*
X107696000Y-10160000D02*
X108095999Y-9760001D01*
%TO.N,AA6*%
X78720000Y-56134000D02*
X78740000Y-56114000D01*
X71566000Y-56134000D02*
X78720000Y-56134000D01*
X101854000Y-34036000D02*
X66548000Y-34036000D01*
X128016000Y-12446000D02*
X128524000Y-12954000D01*
X106996000Y-12446000D02*
X128016000Y-12446000D01*
%TO.N,AA5*%
X78720000Y-53594000D02*
X78740000Y-53574000D01*
X72266000Y-53594000D02*
X78720000Y-53594000D01*
X101854000Y-31496000D02*
X66548000Y-31496000D01*
X66548000Y-31496000D02*
X66294000Y-31242000D01*
X128016000Y-14986000D02*
X128524000Y-15494000D01*
X106296000Y-14986000D02*
X128016000Y-14986000D01*
%TO.N,AA4*%
X78720000Y-51054000D02*
X78740000Y-51034000D01*
X72966000Y-51054000D02*
X78720000Y-51054000D01*
X66548000Y-28956000D02*
X66294000Y-28702000D01*
X101854000Y-28956000D02*
X66548000Y-28956000D01*
X127870001Y-17380001D02*
X128524000Y-18034000D01*
X105995999Y-17380001D02*
X127870001Y-17380001D01*
X105596000Y-17780000D02*
X105995999Y-17380001D01*
%TO.N,AA3*%
X78720000Y-48514000D02*
X78740000Y-48494000D01*
X73666000Y-48514000D02*
X78720000Y-48514000D01*
X66548000Y-26416000D02*
X66421000Y-26289000D01*
X101854000Y-26416000D02*
X66548000Y-26416000D01*
X100584000Y-40070000D02*
X112548190Y-40070000D01*
X112548190Y-40070000D02*
X112610190Y-40132000D01*
X112610190Y-20574000D02*
X128524000Y-20574000D01*
%TO.N,AA10*%
X64516000Y-56134000D02*
X66294000Y-56134000D01*
X78720000Y-66294000D02*
X78740000Y-66274000D01*
X66294000Y-66294000D02*
X78720000Y-66294000D01*
X85981998Y-65024000D02*
X91948000Y-65024000D01*
X78740000Y-66274000D02*
X84731998Y-66274000D01*
X84731998Y-66274000D02*
X85981998Y-65024000D01*
X105664000Y-35306000D02*
X109474000Y-31496000D01*
X92202000Y-35306000D02*
X105664000Y-35306000D01*
X136629999Y-31834001D02*
X136714000Y-31750000D01*
X109474000Y-31496000D02*
X109812001Y-31834001D01*
X109812001Y-31834001D02*
X136629999Y-31834001D01*
X136652000Y-23114000D02*
X143764000Y-23114000D01*
%TO.N,AA2*%
X78720000Y-45974000D02*
X78740000Y-45954000D01*
X74366000Y-45974000D02*
X78720000Y-45974000D01*
X66548000Y-23876000D02*
X66294000Y-23622000D01*
X101854000Y-23876000D02*
X66548000Y-23876000D01*
X99568000Y-40894000D02*
X113284000Y-40894000D01*
X113310190Y-23114000D02*
X128524000Y-23114000D01*
%TO.N,SRAM_OE_N*%
X109494000Y-51054000D02*
X115570000Y-51054000D01*
X142348001Y-19158001D02*
X143764000Y-20574000D01*
X115969999Y-19158001D02*
X142348001Y-19158001D01*
X115570000Y-19558000D02*
X115969999Y-19158001D01*
%TO.N,AA1*%
X78720000Y-43434000D02*
X78740000Y-43414000D01*
X75184000Y-43434000D02*
X78720000Y-43434000D01*
X66802000Y-21336000D02*
X66675000Y-21463000D01*
X101854000Y-21336000D02*
X66802000Y-21336000D01*
X98806000Y-42926000D02*
X114046000Y-42926000D01*
X114010190Y-25654000D02*
X128524000Y-25654000D01*
%TO.N,AA11*%
X64516000Y-58674000D02*
X68518000Y-58674000D01*
X84924001Y-70249999D02*
X86360000Y-68814000D01*
X68725999Y-70249999D02*
X84924001Y-70249999D01*
X68326000Y-69850000D02*
X68725999Y-70249999D01*
X109474000Y-28956000D02*
X105664000Y-32766000D01*
X105664000Y-32766000D02*
X81026000Y-32766000D01*
X135805999Y-29294001D02*
X135890000Y-29210000D01*
X109474000Y-28956000D02*
X109812001Y-29294001D01*
X109812001Y-29294001D02*
X135805999Y-29294001D01*
X135890000Y-18034000D02*
X143764000Y-18034000D01*
%TO.N,AA0*%
X78720000Y-40894000D02*
X78740000Y-40874000D01*
X75946000Y-40894000D02*
X78720000Y-40894000D01*
X101854000Y-18796000D02*
X66548000Y-18796000D01*
X98044000Y-43942000D02*
X114808000Y-43942000D01*
X114808000Y-28194000D02*
X128524000Y-28194000D01*
%TO.N,AA9*%
X64516000Y-53594000D02*
X67056000Y-53594000D01*
X78720000Y-63754000D02*
X78740000Y-63734000D01*
X67056000Y-63754000D02*
X78720000Y-63754000D01*
X85981998Y-62484000D02*
X93047999Y-62484000D01*
X78740000Y-63734000D02*
X84731998Y-63734000D01*
X84731998Y-63734000D02*
X85981998Y-62484000D01*
X105410000Y-38100000D02*
X109474000Y-34036000D01*
X93047999Y-38100000D02*
X105410000Y-38100000D01*
X138345999Y-34374001D02*
X138684000Y-34036000D01*
X109474000Y-34036000D02*
X109812001Y-34374001D01*
X109812001Y-34374001D02*
X138345999Y-34374001D01*
X138684000Y-15494000D02*
X143764000Y-15494000D01*
%TO.N,AA8*%
X64516000Y-51054000D02*
X67818000Y-51054000D01*
X78720000Y-61214000D02*
X78740000Y-61194000D01*
X67818000Y-61214000D02*
X78720000Y-61214000D01*
X85981998Y-59944000D02*
X93980000Y-59944000D01*
X78740000Y-61194000D02*
X84731998Y-61194000D01*
X84731998Y-61194000D02*
X85981998Y-59944000D01*
X106680000Y-39370000D02*
X109474000Y-36576000D01*
X93980000Y-39370000D02*
X106680000Y-39370000D01*
X141393999Y-36914001D02*
X141478000Y-36830000D01*
X109474000Y-36576000D02*
X109812001Y-36914001D01*
X109812001Y-36914001D02*
X141393999Y-36914001D01*
X141624001Y-12954000D02*
X143764000Y-12954000D01*
%TO.N,AA13*%
X85259999Y-64834001D02*
X86360000Y-63734000D01*
X77955997Y-64577999D02*
X78211999Y-64834001D01*
X78211999Y-64834001D02*
X85259999Y-64834001D01*
X65339999Y-64577999D02*
X77955997Y-64577999D01*
X64516000Y-63754000D02*
X65339999Y-64577999D01*
X109474000Y-23876000D02*
X105664000Y-27686000D01*
X105664000Y-27686000D02*
X82804000Y-27686000D01*
X134789999Y-24214001D02*
X134874000Y-24130000D01*
X109474000Y-23876000D02*
X109812001Y-24214001D01*
X109812001Y-24214001D02*
X134789999Y-24214001D01*
X134874000Y-10414000D02*
X143764000Y-10414000D01*
%TO.N,SRAM_WE_N*%
X109494000Y-48514000D02*
X125730000Y-48514000D01*
X125730000Y-48514000D02*
X125984000Y-48768000D01*
X142348001Y-6458001D02*
X143764000Y-7874000D01*
X126383999Y-6458001D02*
X142348001Y-6458001D01*
X125984000Y-6858000D02*
X126383999Y-6458001D01*
%TO.N,AA15*%
X86340000Y-58674000D02*
X86360000Y-58654000D01*
X64516000Y-68834000D02*
X71374000Y-68834000D01*
X85215999Y-59798001D02*
X86360000Y-58654000D01*
X71773999Y-59798001D02*
X85215999Y-59798001D01*
X71374000Y-60198000D02*
X71773999Y-59798001D01*
X84920001Y-22436001D02*
X84836000Y-22352000D01*
X109474000Y-18796000D02*
X105833999Y-22436001D01*
X105833999Y-22436001D02*
X84920001Y-22436001D01*
%TO.N,DBUS_SEL_N*%
X96096001Y-57573999D02*
X95504000Y-58166000D01*
X109494000Y-58674000D02*
X108393999Y-57573999D01*
X108393999Y-57573999D02*
X96096001Y-57573999D01*
X95504000Y-2794000D02*
X61914000Y-2794000D01*
X61914000Y-2794000D02*
X61660000Y-3048000D01*
%TO.N,ADDR_TRS_IO*%
X86360000Y-56114000D02*
X87356000Y-55118000D01*
X87356000Y-55118000D02*
X89408000Y-55118000D01*
X89154000Y-45974000D02*
X101874000Y-45974000D01*
%TO.N,ADDR_FREHD*%
X86360000Y-53574000D02*
X89936000Y-53574000D01*
X89936000Y-53574000D02*
X90170000Y-53340000D01*
X90170000Y-48514000D02*
X101874000Y-48514000D01*
%TO.N,ADDR_0*%
X101854000Y-51034000D02*
X101874000Y-51054000D01*
X86360000Y-51034000D02*
X101854000Y-51034000D01*
%TO.N,ADDR_1*%
X100350000Y-52070000D02*
X101874000Y-53594000D01*
X87630000Y-52070000D02*
X100350000Y-52070000D01*
%TO.N,ADDR_2*%
X88646000Y-56134000D02*
X101874000Y-56134000D01*
D23*
%TO.N,BUTTON*%
X105156000Y19050000D02*
X93218000Y19050000D01*
%TO.N,LED_GREEN*%
X128160999Y17924999D02*
X128524000Y18288000D01*
X82296000Y19050000D02*
X83421001Y17924999D01*
X83421001Y17924999D02*
X128160999Y17924999D01*
%TO.N,LED_BLUE*%
X113538000Y22860000D02*
X93218000Y22860000D01*
%TO.N,LED_RED*%
X120794999Y21734999D02*
X120904000Y21844000D01*
X82296000Y22860000D02*
X83421001Y21734999D01*
X83421001Y21734999D02*
X120794999Y21734999D01*
%TO.N,Net-(D1-Pad3)*%
X42552000Y14478000D02*
X43180000Y15106000D01*
X41402000Y14478000D02*
X42552000Y14478000D01*
X43180000Y15106000D02*
X43180000Y21590000D01*
X43180000Y21590000D02*
X46990000Y25400000D01*
%TD*%
M02*
