M48
; DRILL file {KiCad (5.1.6)-1} date 08/02/20 22:16:12
; FORMAT={-:-/ absolute / inch / decimal}
; #@! TF.CreationDate,2020-08-02T22:16:12-07:00
; #@! TF.GenerationSoftware,Kicad,Pcbnew,(5.1.6)-1
; #@! TF.FileFunction,Plated,1,2,PTH
FMAT,2
INCH
T1C0.0157
T2C0.0295
T3C0.0315
T4C0.0354
T5C0.0394
T6C0.0433
%
G90
G05
T1
X1.46Y-0.1
X1.46Y-0.5
X1.76Y0.76
X1.76Y-0.5
X1.76Y-1.04
X1.77Y-2.79
X1.7876Y0.65
X1.7876Y-1.25
X1.79Y-0.9
X1.8Y-2.83
X1.8151Y0.56
X1.8151Y-0.4
X1.8309Y-1.35
X1.84Y-0.7
X1.84Y-2.88
X1.8427Y0.45
X1.85Y1.0
X1.86Y-1.4
X1.87Y-1.1
X1.87Y-2.91
X1.8702Y0.36
X1.8978Y0.26
X1.8978Y-0.6
X1.91Y-1.15
X1.91Y-2.01
X1.9254Y0.16
X1.93Y-0.8
X1.94Y-1.45
X1.94Y-1.91
X1.9529Y0.05
X1.9676Y-1.5
X1.97Y-1.0
X1.97Y-2.51
X2.0Y-0.17
X2.0Y-0.93
X2.0Y-1.55
X2.01Y-2.21
X2.0276Y-1.65
X2.04Y-2.61
X2.05Y-0.56
X2.0573Y-0.75
X2.0676Y-1.7
X2.07Y-1.6
X2.07Y-2.41
X2.08Y-0.96
X2.0849Y-0.45
X2.1Y-1.75
X2.1Y-2.31
X2.11Y-1.26
X2.1124Y-0.2
X2.12Y0.82
X2.13Y-1.8
X2.14Y-0.1
X2.14Y-1.16
X2.14Y-2.11
X2.17Y0.0
X2.17Y-0.76
X2.3Y-0.3
X2.3Y-0.86
X2.33Y-0.25
X2.33Y-1.06
X2.4Y-0.17
X2.4276Y-0.12
X2.54Y-1.52
X2.6Y-1.4865
X2.61Y-0.93
X2.61Y-1.13
X2.61Y-1.23
X2.61Y-2.21
X2.61Y-2.61
X2.615Y-1.035
X2.62Y-0.74
X2.62Y-1.34
X2.625Y-0.845
X2.63Y-1.45
X2.64Y-2.11
X2.64Y-2.51
X2.67Y-2.01
X2.67Y-2.41
X2.69Y-2.75
X2.6976Y-2.31
X2.7251Y-2.47
X2.7251Y-2.66
X2.7527Y-2.57
X2.7645Y-2.47
X2.79Y-2.31
X2.81Y-2.37
X2.81Y-2.71
X2.8176Y-2.21
X2.8451Y-2.11
X2.87Y0.6
X2.8727Y-2.01
X2.88Y0.4
X2.88Y0.31
X2.89Y0.51
X2.9002Y-1.91
X2.9278Y-1.81
X2.96Y-1.71
X2.99Y-1.61
X3.09Y-0.35
X3.19Y-1.29
X3.23Y-1.18
X3.26Y0.08
X3.26Y-1.09
X3.3Y-0.98
X3.34Y-0.88
X3.45Y-2.05
X3.49Y-2.21
X3.51Y-1.81
X3.52Y-2.17
X3.55Y-1.91
X3.55Y-2.1
X3.57Y-2.66
X3.62Y-2.56
X3.63Y-1.39
X3.6633Y-1.5
X3.6633Y-2.46
X3.7Y-1.55
X3.7Y-2.36
X3.72Y-0.17
X3.73Y-2.56
X3.76Y-0.11
X3.76Y-2.29
X3.8Y0.98
X3.86Y-1.73
X3.89Y-1.69
X3.92Y-1.61
X3.94Y-2.92
X3.96Y-1.5776
X4.06Y0.0
X4.06Y-2.79
X4.09Y-2.84
X4.1176Y-2.42
X4.12Y-2.88
X4.14Y0.75
X4.1573Y-0.7
X4.1849Y-0.59
X4.2124Y-0.49
X4.24Y-0.4
X4.26Y0.02
X4.36Y0.05
X4.4Y-0.08
X4.4Y-1.65
X4.42Y0.21
X4.4335Y-0.33
X4.4335Y-0.81
X4.4335Y-1.58
X4.46Y-1.61
X4.461Y-0.91
X4.47Y0.9
X4.48Y-0.54
X4.4886Y-1.01
X4.49Y-0.29
X4.49Y-1.69
X4.52Y-1.11
X4.52Y-1.73
X4.55Y0.08
X4.55Y-0.77
X4.55Y-2.01
X4.55Y-2.11
X4.55Y-2.31
X4.56Y0.3
X4.56Y-0.44
X4.59Y-0.14
X4.59Y-2.11
X4.63Y0.05
X4.64Y-2.36
X4.66Y0.4
X4.67Y-2.26
X4.68Y0.03
X4.7Y-2.16
X4.71Y0.98
X4.74Y-2.05
X4.75Y-0.22
X4.75Y-0.84
X4.76Y0.86
X4.8Y0.95
X4.86Y0.51
X4.86Y-2.71
X4.92Y-0.31
X4.92Y-1.04
X4.95Y-2.01
X4.96Y0.6
X4.96Y0.46
X4.96Y-0.27
X4.96Y-1.92
X4.96Y-2.51
X4.99Y-2.41
X5.0Y-1.91
X5.04Y0.65
X5.06Y0.72
X5.09Y0.31
X5.12Y-1.11
X5.16Y0.71
X5.16Y-1.2809
X5.17Y0.09
X5.19Y0.51
X5.26Y0.56
X5.26Y-1.31
X5.31Y-0.41
X5.31Y-0.95
X5.35Y-0.71
X5.35Y-1.15
X5.36Y0.37
X5.38Y-0.91
X5.3824Y-1.25
X5.4Y0.6
X5.41Y-1.41
X5.46Y-0.61
X5.46Y-1.34
X5.5Y0.71
X5.52Y-1.2
X5.56Y0.4
X5.57Y-1.45
X5.5757Y-0.51
X5.6Y0.36
X5.6575Y-0.0725
X5.9165Y-0.02
X5.92Y-2.11
X5.95Y0.26
X5.95Y-1.64
T2
X3.21Y-0.26
X3.26Y-0.26
X3.31Y-0.26
X3.21Y-0.54
X3.26Y-0.54
X3.31Y-0.54
T3
X2.63Y-1.8
X2.7284Y-1.8
X5.75Y-0.2
X5.8484Y-0.2
X2.24Y-0.46
X2.24Y-0.56
X2.24Y-0.66
X2.24Y-0.76
X2.24Y-0.86
X2.24Y-0.96
X2.24Y-1.06
X2.24Y-1.16
X2.24Y-1.26
X2.24Y-1.36
X2.54Y-0.46
X2.54Y-0.56
X2.54Y-0.66
X2.54Y-0.76
X2.54Y-0.86
X2.54Y-0.96
X2.54Y-1.06
X2.54Y-1.16
X2.54Y-1.26
X2.54Y-1.36
X5.61Y-1.8
X5.7084Y-1.8
X2.24Y0.86
X2.24Y0.76
X2.24Y0.66
X2.24Y0.56
X2.24Y0.46
X2.24Y0.36
X2.24Y0.26
X2.24Y0.16
X2.24Y0.06
X2.24Y-0.04
X2.54Y0.86
X2.54Y0.76
X2.54Y0.66
X2.54Y0.56
X2.54Y0.46
X2.54Y0.36
X2.54Y0.26
X2.54Y0.16
X2.54Y0.06
X2.54Y-0.04
X3.86Y1.07
X3.86Y0.17
X3.96Y1.07
X3.96Y0.17
X4.06Y1.07
X4.06Y0.17
X4.16Y1.07
X4.16Y0.17
X4.26Y1.07
X4.26Y0.17
X4.36Y1.07
X4.36Y0.17
X4.46Y1.07
X4.46Y0.17
X4.56Y1.07
X4.56Y0.17
X4.66Y1.07
X4.66Y0.17
X4.76Y1.07
X4.76Y0.17
X4.86Y1.07
X4.86Y0.17
X4.96Y1.07
X4.96Y0.17
X5.06Y1.07
X5.06Y0.17
X5.16Y1.07
X5.16Y0.17
X5.26Y1.07
X5.26Y0.17
X5.36Y1.07
X5.36Y0.17
X5.46Y1.07
X5.46Y0.17
X5.56Y1.07
X5.56Y0.17
X5.6575Y0.17
X5.66Y1.07
X4.4Y-0.64
X4.4984Y-0.64
X3.37Y0.75
X3.67Y0.75
X2.24Y-1.81
X2.24Y-1.91
X2.24Y-2.01
X2.24Y-2.11
X2.24Y-2.21
X2.24Y-2.31
X2.24Y-2.41
X2.24Y-2.51
X2.24Y-2.61
X2.24Y-2.71
X2.54Y-1.81
X2.54Y-1.91
X2.54Y-2.01
X2.54Y-2.11
X2.54Y-2.21
X2.54Y-2.31
X2.54Y-2.41
X2.54Y-2.51
X2.54Y-2.61
X2.54Y-2.71
X3.1Y-1.6092
X3.1Y-1.7092
X3.1Y-1.8092
X3.1Y-1.9092
X3.1Y-2.0092
X3.1Y-2.1092
X3.1Y-2.2092
X3.1Y-2.3092
X3.1Y-2.4092
X3.1Y-2.5092
X3.1Y-2.6092
X3.1Y-2.7092
X3.4Y-1.6092
X3.4Y-1.7092
X3.4Y-1.8092
X3.4Y-1.9092
X3.4Y-2.0092
X3.4Y-2.1092
X3.4Y-2.2092
X3.4Y-2.3092
X3.4Y-2.4092
X3.4Y-2.5092
X3.4Y-2.6092
X3.4Y-2.7092
X2.63Y0.87
X2.7284Y0.87
X4.4Y-1.8
X4.4984Y-1.8
X5.22Y-1.81
X5.22Y-1.91
X5.22Y-2.01
X5.22Y-2.11
X5.22Y-2.21
X5.22Y-2.31
X5.22Y-2.41
X5.22Y-2.51
X5.22Y-2.61
X5.22Y-2.71
X5.52Y-1.81
X5.52Y-1.91
X5.52Y-2.01
X5.52Y-2.11
X5.52Y-2.21
X5.52Y-2.31
X5.52Y-2.41
X5.52Y-2.51
X5.52Y-2.61
X5.52Y-2.71
X4.0108Y-1.81
X4.0108Y-1.91
X4.0108Y-2.01
X4.0108Y-2.11
X4.0108Y-2.21
X4.0108Y-2.31
X4.0108Y-2.41
X4.0108Y-2.51
X4.0108Y-2.61
X4.0108Y-2.71
X4.3108Y-1.81
X4.3108Y-1.91
X4.3108Y-2.01
X4.3108Y-2.11
X4.3108Y-2.21
X4.3108Y-2.31
X4.3108Y-2.41
X4.3108Y-2.51
X4.3108Y-2.61
X4.3108Y-2.71
X4.01Y-0.14
X4.01Y-0.24
X4.01Y-0.34
X4.01Y-0.44
X4.01Y-0.54
X4.01Y-0.64
X4.01Y-0.74
X4.01Y-0.84
X4.01Y-0.94
X4.01Y-1.04
X4.01Y-1.14
X4.01Y-1.24
X4.01Y-1.34
X4.01Y-1.44
X4.31Y-0.14
X4.31Y-0.24
X4.31Y-0.34
X4.31Y-0.44
X4.31Y-0.54
X4.31Y-0.64
X4.31Y-0.74
X4.31Y-0.84
X4.31Y-0.94
X4.31Y-1.04
X4.31Y-1.14
X4.31Y-1.24
X4.31Y-1.34
X4.31Y-1.44
X3.37Y0.9
X3.67Y0.9
X2.94Y0.9
X3.24Y0.9
X2.94Y0.75
X3.24Y0.75
X3.49Y-1.6
X3.5884Y-1.6
X5.06Y-0.21
X5.06Y-0.31
X5.06Y-0.41
X5.06Y-0.51
X5.06Y-0.61
X5.06Y-0.71
X5.06Y-0.81
X5.06Y-0.91
X5.06Y-1.01
X5.06Y-1.11
X5.06Y-1.21
X5.06Y-1.31
X5.06Y-1.41
X5.06Y-1.51
X5.66Y-0.21
X5.66Y-0.31
X5.66Y-0.41
X5.66Y-0.51
X5.66Y-0.61
X5.66Y-0.71
X5.66Y-0.81
X5.66Y-0.91
X5.66Y-1.01
X5.66Y-1.11
X5.66Y-1.21
X5.66Y-1.31
X5.66Y-1.41
X5.66Y-1.51
X2.63Y-0.45
X2.7284Y-0.45
T4
X1.63Y0.62
X1.63Y0.57
X1.63Y0.52
X1.63Y0.47
T5
X1.58Y0.0
X1.58Y-0.1
X1.58Y-0.2
X1.58Y-0.3
X1.58Y-0.4
X1.58Y-0.5
X1.58Y-0.6
X1.58Y-0.7
X1.58Y-0.8
X1.58Y-0.9
X1.58Y-1.0
X1.58Y-1.1
X1.58Y-1.2
X1.58Y-1.3
X1.58Y-1.4
X1.58Y-1.5
X1.58Y-1.6
X1.58Y-1.7
X1.58Y-1.8
X1.58Y-1.9
X1.68Y0.0
X1.68Y-0.1
X1.68Y-0.2
X1.68Y-0.3
X1.68Y-0.4
X1.68Y-0.5
X1.68Y-0.6
X1.68Y-0.7
X1.68Y-0.8
X1.68Y-0.9
X1.68Y-1.0
X1.68Y-1.1
X1.68Y-1.2
X1.68Y-1.3
X1.68Y-1.4
X1.68Y-1.5
X1.68Y-1.6
X1.68Y-1.7
X1.68Y-1.8
X1.68Y-1.9
T6
X1.5128Y-2.35
X1.5128Y-2.6059
X1.69Y-2.35
X1.69Y-2.6059
T0
M30
