G04 #@! TF.FileFunction,Soldermask,Top*
%FSLAX46Y46*%
G04 Gerber Fmt 4.6, Leading zero omitted, Abs format (unit mm)*
G04 Created by KiCad (PCBNEW 4.0.7) date 07/07/19 07:38:13*
%MOMM*%
%LPD*%
G01*
G04 APERTURE LIST*
%ADD10C,0.100000*%
%ADD11C,2.000000*%
%ADD12R,2.200000X1.470000*%
%ADD13O,2.200000X1.470000*%
%ADD14C,1.400000*%
%ADD15R,1.400000X1.400000*%
%ADD16O,2.000000X2.000000*%
%ADD17C,2.400000*%
%ADD18R,2.000000X2.000000*%
%ADD19R,2.100000X2.100000*%
%ADD20O,2.100000X2.100000*%
%ADD21C,3.600000*%
%ADD22C,2.500000*%
%ADD23C,2.150000*%
G04 APERTURE END LIST*
D10*
D11*
X130810000Y-116840000D03*
X128310000Y-116840000D03*
X161290000Y-116840000D03*
X158790000Y-116840000D03*
X191770000Y-116840000D03*
X189270000Y-116840000D03*
X142875000Y-101600000D03*
X142875000Y-99100000D03*
D12*
X210820000Y-96520000D03*
D13*
X210820000Y-97790000D03*
X210820000Y-99060000D03*
X210820000Y-100330000D03*
D14*
X172085000Y-106172000D03*
X173355000Y-107442000D03*
D15*
X170815000Y-107442000D03*
D14*
X172085000Y-115570000D03*
X170815000Y-114300000D03*
D15*
X173355000Y-114300000D03*
D14*
X178435000Y-115570000D03*
X177165000Y-114300000D03*
D15*
X179705000Y-114300000D03*
D11*
X174625000Y-83693000D03*
D16*
X182245000Y-83693000D03*
D11*
X174625000Y-87503000D03*
D16*
X182245000Y-87503000D03*
D11*
X174625000Y-91440000D03*
D16*
X182245000Y-91440000D03*
D17*
X132461000Y-99877000D03*
X132461000Y-95377000D03*
X138961000Y-99877000D03*
X138961000Y-95377000D03*
D18*
X191770000Y-127000000D03*
D16*
X214630000Y-119380000D03*
X194310000Y-127000000D03*
X212090000Y-119380000D03*
X196850000Y-127000000D03*
X209550000Y-119380000D03*
X199390000Y-127000000D03*
X207010000Y-119380000D03*
X201930000Y-127000000D03*
X204470000Y-119380000D03*
X204470000Y-127000000D03*
X201930000Y-119380000D03*
X207010000Y-127000000D03*
X199390000Y-119380000D03*
X209550000Y-127000000D03*
X196850000Y-119380000D03*
X212090000Y-127000000D03*
X194310000Y-119380000D03*
X214630000Y-127000000D03*
X191770000Y-119380000D03*
D18*
X161290000Y-127000000D03*
D16*
X184150000Y-119380000D03*
X163830000Y-127000000D03*
X181610000Y-119380000D03*
X166370000Y-127000000D03*
X179070000Y-119380000D03*
X168910000Y-127000000D03*
X176530000Y-119380000D03*
X171450000Y-127000000D03*
X173990000Y-119380000D03*
X173990000Y-127000000D03*
X171450000Y-119380000D03*
X176530000Y-127000000D03*
X168910000Y-119380000D03*
X179070000Y-127000000D03*
X166370000Y-119380000D03*
X181610000Y-127000000D03*
X163830000Y-119380000D03*
X184150000Y-127000000D03*
X161290000Y-119380000D03*
D18*
X130810000Y-127000000D03*
D16*
X153670000Y-119380000D03*
X133350000Y-127000000D03*
X151130000Y-119380000D03*
X135890000Y-127000000D03*
X148590000Y-119380000D03*
X138430000Y-127000000D03*
X146050000Y-119380000D03*
X140970000Y-127000000D03*
X143510000Y-119380000D03*
X143510000Y-127000000D03*
X140970000Y-119380000D03*
X146050000Y-127000000D03*
X138430000Y-119380000D03*
X148590000Y-127000000D03*
X135890000Y-119380000D03*
X151130000Y-127000000D03*
X133350000Y-119380000D03*
X153670000Y-127000000D03*
X130810000Y-119380000D03*
D19*
X140970000Y-137160000D03*
D20*
X140970000Y-134620000D03*
X143510000Y-137160000D03*
X143510000Y-134620000D03*
X146050000Y-137160000D03*
X146050000Y-134620000D03*
X148590000Y-137160000D03*
X148590000Y-134620000D03*
X151130000Y-137160000D03*
X151130000Y-134620000D03*
X153670000Y-137160000D03*
X153670000Y-134620000D03*
X156210000Y-137160000D03*
X156210000Y-134620000D03*
X158750000Y-137160000D03*
X158750000Y-134620000D03*
X161290000Y-137160000D03*
X161290000Y-134620000D03*
X163830000Y-137160000D03*
X163830000Y-134620000D03*
X166370000Y-137160000D03*
X166370000Y-134620000D03*
X168910000Y-137160000D03*
X168910000Y-134620000D03*
X171450000Y-137160000D03*
X171450000Y-134620000D03*
X173990000Y-137160000D03*
X173990000Y-134620000D03*
X176530000Y-137160000D03*
X176530000Y-134620000D03*
X179070000Y-137160000D03*
X179070000Y-134620000D03*
X181610000Y-137160000D03*
X181610000Y-134620000D03*
X184150000Y-137160000D03*
X184150000Y-134620000D03*
X186690000Y-137160000D03*
X186690000Y-134620000D03*
X189230000Y-137160000D03*
X189230000Y-134620000D03*
X191770000Y-137160000D03*
X191770000Y-134620000D03*
X194310000Y-137160000D03*
X194310000Y-134620000D03*
X196850000Y-137160000D03*
X196850000Y-134620000D03*
X199390000Y-137160000D03*
X199390000Y-134620000D03*
X201930000Y-137160000D03*
X201930000Y-134620000D03*
D18*
X189865000Y-71374000D03*
D16*
X187325000Y-71374000D03*
X184785000Y-71374000D03*
X182245000Y-71374000D03*
X179705000Y-71374000D03*
X177165000Y-71374000D03*
X154305000Y-96774000D03*
X174625000Y-71374000D03*
X156845000Y-96774000D03*
X172085000Y-71374000D03*
X159385000Y-96774000D03*
X169545000Y-71374000D03*
X161925000Y-96774000D03*
X167005000Y-71374000D03*
X164465000Y-96774000D03*
X164465000Y-71374000D03*
X167005000Y-96774000D03*
X161925000Y-71374000D03*
X169545000Y-96774000D03*
X159385000Y-71374000D03*
X172085000Y-96774000D03*
X156845000Y-71374000D03*
X174625000Y-96774000D03*
X154305000Y-71374000D03*
X177165000Y-96774000D03*
X179705000Y-96774000D03*
X182245000Y-96774000D03*
X184785000Y-96774000D03*
X187325000Y-96774000D03*
X189865000Y-96774000D03*
D18*
X151765000Y-100838000D03*
D16*
X154305000Y-100838000D03*
X197485000Y-77978000D03*
X156845000Y-100838000D03*
X194945000Y-77978000D03*
X159385000Y-100838000D03*
X192405000Y-77978000D03*
X161925000Y-100838000D03*
X189865000Y-77978000D03*
X164465000Y-100838000D03*
X187325000Y-77978000D03*
X167005000Y-100838000D03*
X184785000Y-77978000D03*
X169545000Y-100838000D03*
X182245000Y-77978000D03*
X172085000Y-100838000D03*
X179705000Y-77978000D03*
X174625000Y-100838000D03*
X177165000Y-77978000D03*
X177165000Y-100838000D03*
X174625000Y-77978000D03*
X179705000Y-100838000D03*
X172085000Y-77978000D03*
X182245000Y-100838000D03*
X169545000Y-77978000D03*
X184785000Y-100838000D03*
X167005000Y-77978000D03*
X187325000Y-100838000D03*
X164465000Y-77978000D03*
X189865000Y-100838000D03*
X161925000Y-77978000D03*
X192405000Y-100838000D03*
X159385000Y-77978000D03*
X194945000Y-100838000D03*
X156845000Y-77978000D03*
X197485000Y-100838000D03*
X154305000Y-77978000D03*
X151828500Y-77978000D03*
D19*
X206883000Y-137160000D03*
D20*
X206883000Y-134620000D03*
D19*
X148209000Y-72009000D03*
D20*
X150749000Y-72009000D03*
D19*
X199644000Y-72009000D03*
D20*
X202184000Y-72009000D03*
X204724000Y-72009000D03*
X207264000Y-72009000D03*
D21*
X214630000Y-73660000D03*
X214630000Y-135890000D03*
X130810000Y-135890000D03*
X130810000Y-73660000D03*
D22*
X142666000Y-74245000D03*
D23*
X141406000Y-71755000D03*
X136906000Y-71755000D03*
D22*
X135656000Y-74245000D03*
M02*
