M48
; DRILL file {KiCad (5.1.10-1-10_14)} date Wednesday, November 10, 2021 at 07:30:57 PM
; FORMAT={-:-/ absolute / inch / decimal}
; #@! TF.CreationDate,2021-11-10T19:30:57-08:00
; #@! TF.GenerationSoftware,Kicad,Pcbnew,(5.1.10-1-10_14)
; #@! TF.FileFunction,Plated,1,2,PTH
FMAT,2
INCH
T1C0.0157
T2C0.0197
T3C0.0295
T4C0.0315
T5C0.0354
T6C0.0394
T7C0.0433
T8C0.0984
%
G90
G05
T1
X4.7244Y-2.6063
X4.846Y-3.908
X4.849Y-2.243
X4.877Y-4.002
X4.8775Y-2.348
X4.902Y-4.201
X4.9061Y-2.443
X4.933Y-4.306
X4.9346Y-2.544
X4.965Y-2.645
X4.968Y-4.404
X5.0Y-4.437
X5.007Y-2.741
X5.035Y-4.542
X5.0355Y-2.842
X5.063Y-4.645
X5.0641Y-2.947
X5.092Y-4.795
X5.106Y-2.709
X5.141Y-3.407
X5.141Y-4.697
X5.1725Y-4.602
X5.173Y-3.309
X5.201Y-5.242
X5.2105Y-4.253
X5.2125Y-3.507
X5.213Y-4.095
X5.236Y-5.141
X5.239Y-4.155
X5.241Y-3.992
X5.2444Y-3.208
X5.2685Y-4.05
X5.269Y-5.039
X5.272Y-3.894
X5.273Y-3.156
X5.297Y-3.959
X5.297Y-4.938
X5.3015Y-3.107
X5.304Y-3.792
X5.328Y-3.694
X5.328Y-4.836
X5.3301Y-3.0111
X5.3301Y-3.857
X5.356Y-3.593
X5.356Y-4.735
X5.3586Y-2.981
X5.3586Y-3.759
X5.3872Y-2.904
X5.3872Y-3.654
X5.416Y-2.803
X5.419Y-3.55
X5.515Y-3.637
X5.515Y-4.997
X5.543Y-3.245
X5.5435Y-4.892
X5.5721Y-3.743
X5.5721Y-4.351
X5.6299Y-4.1909
X6.1144Y-4.641
X6.1429Y-4.737
X6.1715Y-4.843
X6.2Y-4.939
X6.262Y-5.467
X6.337Y-3.209
X6.3385Y-5.03
X6.367Y-3.31
X6.367Y-5.151
X6.488Y-3.617
X6.488Y-5.252
X6.523Y-3.713
X6.533Y-5.348
X6.5598Y-4.213
X6.5884Y-4.112
X6.6169Y-4.011
X6.6455Y-3.864
X6.6455Y-3.915
X6.674Y-3.814
X6.7272Y-3.962
X6.7557Y-4.065
X6.7843Y-4.16
X6.8352Y-4.5506
X6.939Y-4.388
X7.0315Y-4.313
X7.0315Y-4.4902
X7.267Y-4.215
X7.3354Y-2.0957
X7.3605Y-2.3895
X7.396Y-3.733
X7.445Y-3.835
X7.463Y-2.418
X7.509Y-2.592
X7.5185Y-2.6468
X7.539Y-3.034
X7.637Y-2.525
X7.672Y-3.334
X7.7Y-3.237
X7.767Y-2.5535
X7.822Y-2.596
X7.826Y-3.635
X7.865Y-2.741
X7.893Y-1.952
X7.9Y-3.035
X7.908Y-3.691
X7.939Y-1.987
X7.945Y-2.889
X7.995Y-4.127
X7.995Y-4.543
X8.051Y-2.295
X8.053Y-3.584
T2
X4.5876Y-2.1043
X4.6073Y-5.3858
X4.6092Y-2.0521
X4.6092Y-2.1565
X4.6289Y-5.3336
X4.6289Y-5.438
X4.6614Y-2.0305
X4.6614Y-2.1781
X4.6811Y-5.312
X4.6811Y-5.4596
X4.7136Y-2.0521
X4.7136Y-2.1565
X4.7333Y-5.3336
X4.7333Y-5.438
X4.7352Y-2.1043
X4.7549Y-5.3858
X8.188Y-2.0866
X8.1919Y-5.3819
X8.2096Y-2.0344
X8.2096Y-2.1388
X8.2136Y-5.3297
X8.2136Y-5.4341
X8.2618Y-2.0128
X8.2618Y-2.1604
X8.2657Y-5.3081
X8.2657Y-5.4557
X8.314Y-2.0344
X8.314Y-2.1388
X8.3179Y-5.3297
X8.3179Y-5.4341
X8.3356Y-2.0866
X8.3396Y-5.3819
T3
X7.216Y-4.131
X7.216Y-4.387
X7.266Y-4.131
X7.266Y-4.387
X7.316Y-4.131
X7.316Y-4.387
T4
X5.46Y-2.143
X5.46Y-2.243
X5.46Y-2.343
X5.46Y-2.443
X5.46Y-2.543
X5.46Y-2.643
X5.46Y-2.743
X5.46Y-2.843
X5.46Y-2.943
X5.46Y-3.043
X5.46Y-3.292
X5.46Y-3.392
X5.46Y-3.492
X5.46Y-3.592
X5.46Y-3.692
X5.46Y-3.792
X5.46Y-3.892
X5.46Y-3.992
X5.46Y-4.092
X5.46Y-4.192
X5.46Y-4.441
X5.46Y-4.541
X5.46Y-4.641
X5.46Y-4.741
X5.46Y-4.841
X5.46Y-4.941
X5.46Y-5.041
X5.46Y-5.141
X5.46Y-5.241
X5.46Y-5.341
X5.76Y-2.143
X5.76Y-2.243
X5.76Y-2.343
X5.76Y-2.443
X5.76Y-2.543
X5.76Y-2.643
X5.76Y-2.743
X5.76Y-2.843
X5.76Y-2.943
X5.76Y-3.043
X5.76Y-3.292
X5.76Y-3.392
X5.76Y-3.492
X5.76Y-3.592
X5.76Y-3.692
X5.76Y-3.792
X5.76Y-3.892
X5.76Y-3.992
X5.76Y-4.092
X5.76Y-4.192
X5.76Y-4.441
X5.76Y-4.541
X5.76Y-4.641
X5.76Y-4.741
X5.76Y-4.841
X5.76Y-4.941
X5.76Y-5.041
X5.76Y-5.141
X5.76Y-5.241
X5.76Y-5.341
X5.851Y-3.28
X5.851Y-4.43
X5.853Y-2.131
X5.9494Y-3.28
X5.9494Y-4.43
X5.9514Y-2.131
X6.265Y-2.013
X6.265Y-2.113
X6.265Y-2.213
X6.265Y-2.313
X6.265Y-2.413
X6.265Y-2.513
X6.265Y-2.613
X6.265Y-2.713
X6.265Y-2.813
X6.265Y-2.913
X6.265Y-3.013
X6.265Y-3.113
X6.265Y-3.213
X6.265Y-3.313
X6.265Y-3.413
X6.265Y-3.513
X6.265Y-3.613
X6.265Y-3.713
X6.265Y-3.813
X6.265Y-3.913
X6.265Y-4.013
X6.265Y-4.113
X6.265Y-4.213
X6.265Y-4.313
X6.426Y-4.503
X6.426Y-4.603
X6.426Y-4.703
X6.426Y-4.803
X6.426Y-4.903
X6.426Y-5.003
X6.426Y-5.103
X6.426Y-5.203
X6.426Y-5.303
X6.426Y-5.403
X6.726Y-4.503
X6.726Y-4.603
X6.726Y-4.703
X6.726Y-4.803
X6.726Y-4.903
X6.726Y-5.003
X6.726Y-5.103
X6.726Y-5.203
X6.726Y-5.303
X6.726Y-5.403
X6.816Y-4.491
X6.865Y-2.013
X6.865Y-2.113
X6.865Y-2.213
X6.865Y-2.313
X6.865Y-2.413
X6.865Y-2.513
X6.865Y-2.613
X6.865Y-2.713
X6.865Y-2.813
X6.865Y-2.913
X6.865Y-3.013
X6.865Y-3.113
X6.865Y-3.213
X6.865Y-3.313
X6.865Y-3.413
X6.865Y-3.513
X6.865Y-3.613
X6.865Y-3.713
X6.865Y-3.813
X6.865Y-3.913
X6.865Y-4.013
X6.865Y-4.113
X6.865Y-4.213
X6.865Y-4.313
X6.9144Y-4.491
X7.103Y-2.035
X7.103Y-2.135
X7.103Y-2.235
X7.103Y-2.335
X7.103Y-2.435
X7.103Y-2.535
X7.103Y-2.635
X7.103Y-2.735
X7.103Y-2.835
X7.103Y-2.935
X7.103Y-3.035
X7.103Y-3.135
X7.103Y-3.235
X7.103Y-3.335
X7.103Y-3.435
X7.103Y-3.535
X7.103Y-3.635
X7.103Y-3.735
X7.103Y-3.835
X7.209Y-2.587
X7.3074Y-2.587
X7.444Y-2.697
X7.444Y-2.832
X7.444Y-2.967
X7.444Y-3.102
X7.561Y-4.757
X7.561Y-5.057
X7.5935Y-4.087
X7.701Y-4.757
X7.701Y-5.057
X7.744Y-2.697
X7.744Y-2.832
X7.744Y-2.967
X7.744Y-3.102
X7.841Y-4.757
X7.841Y-5.057
X7.8935Y-4.087
X8.003Y-2.0375
X8.003Y-2.135
X8.003Y-2.235
X8.003Y-2.335
X8.003Y-2.435
X8.003Y-2.535
X8.003Y-2.635
X8.003Y-2.735
X8.003Y-2.835
X8.003Y-2.935
X8.003Y-3.035
X8.003Y-3.135
X8.003Y-3.235
X8.003Y-3.335
X8.003Y-3.435
X8.003Y-3.535
X8.003Y-3.635
X8.003Y-3.735
X8.003Y-3.835
T5
X7.601Y-5.297
X7.651Y-5.297
X7.701Y-5.297
X7.751Y-5.297
T6
X4.6787Y-2.7071
X4.6787Y-2.8071
X4.6787Y-2.9071
X4.6787Y-3.0071
X4.6787Y-3.1071
X4.6787Y-3.2071
X4.6787Y-3.3071
X4.6787Y-3.4071
X4.6787Y-3.5071
X4.6787Y-3.6071
X4.6787Y-3.7071
X4.6787Y-3.8071
X4.6787Y-3.9071
X4.6787Y-4.0071
X4.6787Y-4.1071
X4.6787Y-4.2071
X4.6787Y-4.3071
X4.6787Y-4.4071
X4.6787Y-4.5071
X4.6787Y-4.6071
X4.7787Y-2.7071
X4.7787Y-2.8071
X4.7787Y-2.9071
X4.7787Y-3.0071
X4.7787Y-3.1071
X4.7787Y-3.2071
X4.7787Y-3.3071
X4.7787Y-3.4071
X4.7787Y-3.5071
X4.7787Y-3.6071
X4.7787Y-3.7071
X4.7787Y-3.8071
X4.7787Y-3.9071
X4.7787Y-4.0071
X4.7787Y-4.1071
X4.7787Y-4.2071
X4.7787Y-4.3071
X4.7787Y-4.4071
X4.7787Y-4.5071
X4.7787Y-4.6071
X7.064Y-5.242
X7.064Y-5.342
X7.298Y-5.242
X7.298Y-5.342
T7
X7.6199Y-4.307
X7.6199Y-4.4842
X7.8758Y-4.307
X7.8758Y-4.4842
T8
X4.6614Y-2.1043
X4.6811Y-5.3858
X8.2618Y-2.0866
X8.2657Y-5.3819
T0
M30
