%TF.GenerationSoftware,KiCad,Pcbnew,(6.0.0-0)*%
%TF.CreationDate,2022-01-11T18:58:16-08:00*%
%TF.ProjectId,TRS-IO-M1,5452532d-494f-42d4-9d31-2e6b69636164,rev?*%
%TF.SameCoordinates,Original*%
%TF.FileFunction,Legend,Top*%
%TF.FilePolarity,Positive*%
%FSLAX46Y46*%
G04 Gerber Fmt 4.6, Leading zero omitted, Abs format (unit mm)*
G04 Created by KiCad (PCBNEW (6.0.0-0)) date 2022-01-11 18:58:16*
%MOMM*%
%LPD*%
G01*
G04 APERTURE LIST*
%ADD10C,0.150000*%
%ADD11C,0.304800*%
%ADD12C,0.120000*%
%ADD13C,0.381000*%
G04 APERTURE END LIST*
D10*
X115193819Y-69043514D02*
X115193819Y-68472085D01*
X115193819Y-68757800D02*
X116193819Y-68757800D01*
X116050961Y-68662561D01*
X115955723Y-68567323D01*
X115908104Y-68472085D01*
X118510085Y-119521314D02*
X118510085Y-120187980D01*
X118271990Y-119140361D02*
X118033895Y-119854647D01*
X118652942Y-119854647D01*
X119224371Y-119187980D02*
X119319609Y-119187980D01*
X119414847Y-119235600D01*
X119462466Y-119283219D01*
X119510085Y-119378457D01*
X119557704Y-119568933D01*
X119557704Y-119807028D01*
X119510085Y-119997504D01*
X119462466Y-120092742D01*
X119414847Y-120140361D01*
X119319609Y-120187980D01*
X119224371Y-120187980D01*
X119129133Y-120140361D01*
X119081514Y-120092742D01*
X119033895Y-119997504D01*
X118986276Y-119807028D01*
X118986276Y-119568933D01*
X119033895Y-119378457D01*
X119081514Y-119283219D01*
X119129133Y-119235600D01*
X119224371Y-119187980D01*
X116143019Y-116233676D02*
X116143019Y-116852723D01*
X115762066Y-116519390D01*
X115762066Y-116662247D01*
X115714447Y-116757485D01*
X115666828Y-116805104D01*
X115571590Y-116852723D01*
X115333495Y-116852723D01*
X115238257Y-116805104D01*
X115190638Y-116757485D01*
X115143019Y-116662247D01*
X115143019Y-116376533D01*
X115190638Y-116281295D01*
X115238257Y-116233676D01*
X115143019Y-117328914D02*
X115143019Y-117519390D01*
X115190638Y-117614628D01*
X115238257Y-117662247D01*
X115381114Y-117757485D01*
X115571590Y-117805104D01*
X115952542Y-117805104D01*
X116047780Y-117757485D01*
X116095400Y-117709866D01*
X116143019Y-117614628D01*
X116143019Y-117424152D01*
X116095400Y-117328914D01*
X116047780Y-117281295D01*
X115952542Y-117233676D01*
X115714447Y-117233676D01*
X115619209Y-117281295D01*
X115571590Y-117328914D01*
X115523971Y-117424152D01*
X115523971Y-117614628D01*
X115571590Y-117709866D01*
X115619209Y-117757485D01*
X115714447Y-117805104D01*
X210309523Y-61716666D02*
X210785714Y-61716666D01*
X210214285Y-62002380D02*
X210547619Y-61002380D01*
X210880952Y-62002380D01*
X211738095Y-62002380D02*
X211166666Y-62002380D01*
X211452380Y-62002380D02*
X211452380Y-61002380D01*
X211357142Y-61145238D01*
X211261904Y-61240476D01*
X211166666Y-61288095D01*
X212642857Y-61002380D02*
X212166666Y-61002380D01*
X212119047Y-61478571D01*
X212166666Y-61430952D01*
X212261904Y-61383333D01*
X212500000Y-61383333D01*
X212595238Y-61430952D01*
X212642857Y-61478571D01*
X212690476Y-61573809D01*
X212690476Y-61811904D01*
X212642857Y-61907142D01*
X212595238Y-61954761D01*
X212500000Y-62002380D01*
X212261904Y-62002380D01*
X212166666Y-61954761D01*
X212119047Y-61907142D01*
X206392857Y-61002380D02*
X206726190Y-62002380D01*
X207059523Y-61002380D01*
X207392857Y-61002380D02*
X207392857Y-61811904D01*
X207440476Y-61907142D01*
X207488095Y-61954761D01*
X207583333Y-62002380D01*
X207773809Y-62002380D01*
X207869047Y-61954761D01*
X207916666Y-61907142D01*
X207964285Y-61811904D01*
X207964285Y-61002380D01*
X208297380Y-93942857D02*
X208297380Y-93371428D01*
X209297380Y-93657142D02*
X208297380Y-93657142D01*
X209297380Y-92466666D02*
X208821190Y-92800000D01*
X209297380Y-93038095D02*
X208297380Y-93038095D01*
X208297380Y-92657142D01*
X208345000Y-92561904D01*
X208392619Y-92514285D01*
X208487857Y-92466666D01*
X208630714Y-92466666D01*
X208725952Y-92514285D01*
X208773571Y-92561904D01*
X208821190Y-92657142D01*
X208821190Y-93038095D01*
X209249761Y-92085714D02*
X209297380Y-91942857D01*
X209297380Y-91704761D01*
X209249761Y-91609523D01*
X209202142Y-91561904D01*
X209106904Y-91514285D01*
X209011666Y-91514285D01*
X208916428Y-91561904D01*
X208868809Y-91609523D01*
X208821190Y-91704761D01*
X208773571Y-91895238D01*
X208725952Y-91990476D01*
X208678333Y-92038095D01*
X208583095Y-92085714D01*
X208487857Y-92085714D01*
X208392619Y-92038095D01*
X208345000Y-91990476D01*
X208297380Y-91895238D01*
X208297380Y-91657142D01*
X208345000Y-91514285D01*
X208916428Y-91085714D02*
X208916428Y-90323809D01*
X209297380Y-89847619D02*
X208297380Y-89847619D01*
X208297380Y-89180952D02*
X208297380Y-88990476D01*
X208345000Y-88895238D01*
X208440238Y-88800000D01*
X208630714Y-88752380D01*
X208964047Y-88752380D01*
X209154523Y-88800000D01*
X209249761Y-88895238D01*
X209297380Y-88990476D01*
X209297380Y-89180952D01*
X209249761Y-89276190D01*
X209154523Y-89371428D01*
X208964047Y-89419047D01*
X208630714Y-89419047D01*
X208440238Y-89371428D01*
X208345000Y-89276190D01*
X208297380Y-89180952D01*
X208916428Y-88323809D02*
X208916428Y-87561904D01*
X209297380Y-87085714D02*
X208297380Y-87085714D01*
X209011666Y-86752380D01*
X208297380Y-86419047D01*
X209297380Y-86419047D01*
X209297380Y-85419047D02*
X209297380Y-85990476D01*
X209297380Y-85704761D02*
X208297380Y-85704761D01*
X208440238Y-85800000D01*
X208535476Y-85895238D01*
X208583095Y-85990476D01*
X208630714Y-84323809D02*
X209297380Y-84085714D01*
X208630714Y-83847619D01*
X209297380Y-82942857D02*
X209297380Y-83514285D01*
X209297380Y-83228571D02*
X208297380Y-83228571D01*
X208440238Y-83323809D01*
X208535476Y-83419047D01*
X208583095Y-83514285D01*
X209202142Y-82514285D02*
X209249761Y-82466666D01*
X209297380Y-82514285D01*
X209249761Y-82561904D01*
X209202142Y-82514285D01*
X209297380Y-82514285D01*
X208392619Y-82085714D02*
X208345000Y-82038095D01*
X208297380Y-81942857D01*
X208297380Y-81704761D01*
X208345000Y-81609523D01*
X208392619Y-81561904D01*
X208487857Y-81514285D01*
X208583095Y-81514285D01*
X208725952Y-81561904D01*
X209297380Y-82133333D01*
X209297380Y-81514285D01*
X209678333Y-80038095D02*
X209630714Y-80085714D01*
X209487857Y-80180952D01*
X209392619Y-80228571D01*
X209249761Y-80276190D01*
X209011666Y-80323809D01*
X208821190Y-80323809D01*
X208583095Y-80276190D01*
X208440238Y-80228571D01*
X208345000Y-80180952D01*
X208202142Y-80085714D01*
X208154523Y-80038095D01*
X208297380Y-79752380D02*
X209297380Y-79085714D01*
X208297380Y-79085714D02*
X209297380Y-79752380D01*
X209297380Y-78133333D02*
X208821190Y-78466666D01*
X209297380Y-78704761D02*
X208297380Y-78704761D01*
X208297380Y-78323809D01*
X208345000Y-78228571D01*
X208392619Y-78180952D01*
X208487857Y-78133333D01*
X208630714Y-78133333D01*
X208725952Y-78180952D01*
X208773571Y-78228571D01*
X208821190Y-78323809D01*
X208821190Y-78704761D01*
X209011666Y-77752380D02*
X209011666Y-77276190D01*
X209297380Y-77847619D02*
X208297380Y-77514285D01*
X209297380Y-77180952D01*
X208821190Y-76657142D02*
X209297380Y-76657142D01*
X208297380Y-76990476D02*
X208821190Y-76657142D01*
X208297380Y-76323809D01*
X209678333Y-76085714D02*
X209630714Y-76038095D01*
X209487857Y-75942857D01*
X209392619Y-75895238D01*
X209249761Y-75847619D01*
X209011666Y-75800000D01*
X208821190Y-75800000D01*
X208583095Y-75847619D01*
X208440238Y-75895238D01*
X208345000Y-75942857D01*
X208202142Y-76038095D01*
X208154523Y-76085714D01*
X209907380Y-89442857D02*
X210621666Y-89442857D01*
X210764523Y-89490476D01*
X210859761Y-89585714D01*
X210907380Y-89728571D01*
X210907380Y-89823809D01*
X210907380Y-88538095D02*
X210383571Y-88538095D01*
X210288333Y-88585714D01*
X210240714Y-88680952D01*
X210240714Y-88871428D01*
X210288333Y-88966666D01*
X210859761Y-88538095D02*
X210907380Y-88633333D01*
X210907380Y-88871428D01*
X210859761Y-88966666D01*
X210764523Y-89014285D01*
X210669285Y-89014285D01*
X210574047Y-88966666D01*
X210526428Y-88871428D01*
X210526428Y-88633333D01*
X210478809Y-88538095D01*
X210240714Y-88061904D02*
X210907380Y-88061904D01*
X210335952Y-88061904D02*
X210288333Y-88014285D01*
X210240714Y-87919047D01*
X210240714Y-87776190D01*
X210288333Y-87680952D01*
X210383571Y-87633333D01*
X210907380Y-87633333D01*
X210240714Y-86728571D02*
X210907380Y-86728571D01*
X210240714Y-87157142D02*
X210764523Y-87157142D01*
X210859761Y-87109523D01*
X210907380Y-87014285D01*
X210907380Y-86871428D01*
X210859761Y-86776190D01*
X210812142Y-86728571D01*
X210907380Y-85823809D02*
X210383571Y-85823809D01*
X210288333Y-85871428D01*
X210240714Y-85966666D01*
X210240714Y-86157142D01*
X210288333Y-86252380D01*
X210859761Y-85823809D02*
X210907380Y-85919047D01*
X210907380Y-86157142D01*
X210859761Y-86252380D01*
X210764523Y-86300000D01*
X210669285Y-86300000D01*
X210574047Y-86252380D01*
X210526428Y-86157142D01*
X210526428Y-85919047D01*
X210478809Y-85823809D01*
X210907380Y-85347619D02*
X210240714Y-85347619D01*
X210431190Y-85347619D02*
X210335952Y-85300000D01*
X210288333Y-85252380D01*
X210240714Y-85157142D01*
X210240714Y-85061904D01*
X210240714Y-84823809D02*
X210907380Y-84585714D01*
X210240714Y-84347619D02*
X210907380Y-84585714D01*
X211145476Y-84680952D01*
X211193095Y-84728571D01*
X211240714Y-84823809D01*
X210002619Y-83252380D02*
X209955000Y-83204761D01*
X209907380Y-83109523D01*
X209907380Y-82871428D01*
X209955000Y-82776190D01*
X210002619Y-82728571D01*
X210097857Y-82680952D01*
X210193095Y-82680952D01*
X210335952Y-82728571D01*
X210907380Y-83300000D01*
X210907380Y-82680952D01*
X209907380Y-82061904D02*
X209907380Y-81966666D01*
X209955000Y-81871428D01*
X210002619Y-81823809D01*
X210097857Y-81776190D01*
X210288333Y-81728571D01*
X210526428Y-81728571D01*
X210716904Y-81776190D01*
X210812142Y-81823809D01*
X210859761Y-81871428D01*
X210907380Y-81966666D01*
X210907380Y-82061904D01*
X210859761Y-82157142D01*
X210812142Y-82204761D01*
X210716904Y-82252380D01*
X210526428Y-82300000D01*
X210288333Y-82300000D01*
X210097857Y-82252380D01*
X210002619Y-82204761D01*
X209955000Y-82157142D01*
X209907380Y-82061904D01*
X210002619Y-81347619D02*
X209955000Y-81300000D01*
X209907380Y-81204761D01*
X209907380Y-80966666D01*
X209955000Y-80871428D01*
X210002619Y-80823809D01*
X210097857Y-80776190D01*
X210193095Y-80776190D01*
X210335952Y-80823809D01*
X210907380Y-81395238D01*
X210907380Y-80776190D01*
X210002619Y-80395238D02*
X209955000Y-80347619D01*
X209907380Y-80252380D01*
X209907380Y-80014285D01*
X209955000Y-79919047D01*
X210002619Y-79871428D01*
X210097857Y-79823809D01*
X210193095Y-79823809D01*
X210335952Y-79871428D01*
X210907380Y-80442857D01*
X210907380Y-79823809D01*
X121799314Y-66416180D02*
X121227885Y-66416180D01*
X121513600Y-66416180D02*
X121513600Y-65416180D01*
X121418361Y-65559038D01*
X121323123Y-65654276D01*
X121227885Y-65701895D01*
%TO.C,J1*%
X123974266Y-67498980D02*
X123974266Y-68213266D01*
X123926647Y-68356123D01*
X123831409Y-68451361D01*
X123688552Y-68498980D01*
X123593314Y-68498980D01*
X124974266Y-68498980D02*
X124402838Y-68498980D01*
X124688552Y-68498980D02*
X124688552Y-67498980D01*
X124593314Y-67641838D01*
X124498076Y-67737076D01*
X124402838Y-67784695D01*
%TO.C,U3*%
X141732095Y-51554580D02*
X141732095Y-52364104D01*
X141779714Y-52459342D01*
X141827333Y-52506961D01*
X141922571Y-52554580D01*
X142113047Y-52554580D01*
X142208285Y-52506961D01*
X142255904Y-52459342D01*
X142303523Y-52364104D01*
X142303523Y-51554580D01*
X142684476Y-51554580D02*
X143303523Y-51554580D01*
X142970190Y-51935533D01*
X143113047Y-51935533D01*
X143208285Y-51983152D01*
X143255904Y-52030771D01*
X143303523Y-52126009D01*
X143303523Y-52364104D01*
X143255904Y-52459342D01*
X143208285Y-52506961D01*
X143113047Y-52554580D01*
X142827333Y-52554580D01*
X142732095Y-52506961D01*
X142684476Y-52459342D01*
%TO.C,U6*%
X166268495Y-139202380D02*
X166268495Y-140011904D01*
X166316114Y-140107142D01*
X166363733Y-140154761D01*
X166458971Y-140202380D01*
X166649447Y-140202380D01*
X166744685Y-140154761D01*
X166792304Y-140107142D01*
X166839923Y-140011904D01*
X166839923Y-139202380D01*
X167744685Y-139202380D02*
X167554209Y-139202380D01*
X167458971Y-139250000D01*
X167411352Y-139297619D01*
X167316114Y-139440476D01*
X167268495Y-139630952D01*
X167268495Y-140011904D01*
X167316114Y-140107142D01*
X167363733Y-140154761D01*
X167458971Y-140202380D01*
X167649447Y-140202380D01*
X167744685Y-140154761D01*
X167792304Y-140107142D01*
X167839923Y-140011904D01*
X167839923Y-139773809D01*
X167792304Y-139678571D01*
X167744685Y-139630952D01*
X167649447Y-139583333D01*
X167458971Y-139583333D01*
X167363733Y-139630952D01*
X167316114Y-139678571D01*
X167268495Y-139773809D01*
%TO.C,U5*%
X141732095Y-109923780D02*
X141732095Y-110733304D01*
X141779714Y-110828542D01*
X141827333Y-110876161D01*
X141922571Y-110923780D01*
X142113047Y-110923780D01*
X142208285Y-110876161D01*
X142255904Y-110828542D01*
X142303523Y-110733304D01*
X142303523Y-109923780D01*
X143255904Y-109923780D02*
X142779714Y-109923780D01*
X142732095Y-110399971D01*
X142779714Y-110352352D01*
X142874952Y-110304733D01*
X143113047Y-110304733D01*
X143208285Y-110352352D01*
X143255904Y-110399971D01*
X143303523Y-110495209D01*
X143303523Y-110733304D01*
X143255904Y-110828542D01*
X143208285Y-110876161D01*
X143113047Y-110923780D01*
X142874952Y-110923780D01*
X142779714Y-110876161D01*
X142732095Y-110828542D01*
%TO.C,R8*%
X191492533Y-81065380D02*
X191159200Y-80589190D01*
X190921104Y-81065380D02*
X190921104Y-80065380D01*
X191302057Y-80065380D01*
X191397295Y-80113000D01*
X191444914Y-80160619D01*
X191492533Y-80255857D01*
X191492533Y-80398714D01*
X191444914Y-80493952D01*
X191397295Y-80541571D01*
X191302057Y-80589190D01*
X190921104Y-80589190D01*
X192063961Y-80493952D02*
X191968723Y-80446333D01*
X191921104Y-80398714D01*
X191873485Y-80303476D01*
X191873485Y-80255857D01*
X191921104Y-80160619D01*
X191968723Y-80113000D01*
X192063961Y-80065380D01*
X192254438Y-80065380D01*
X192349676Y-80113000D01*
X192397295Y-80160619D01*
X192444914Y-80255857D01*
X192444914Y-80303476D01*
X192397295Y-80398714D01*
X192349676Y-80446333D01*
X192254438Y-80493952D01*
X192063961Y-80493952D01*
X191968723Y-80541571D01*
X191921104Y-80589190D01*
X191873485Y-80684428D01*
X191873485Y-80874904D01*
X191921104Y-80970142D01*
X191968723Y-81017761D01*
X192063961Y-81065380D01*
X192254438Y-81065380D01*
X192349676Y-81017761D01*
X192397295Y-80970142D01*
X192444914Y-80874904D01*
X192444914Y-80684428D01*
X192397295Y-80589190D01*
X192349676Y-80541571D01*
X192254438Y-80493952D01*
%TO.C,R7*%
X191543333Y-84468980D02*
X191210000Y-83992790D01*
X190971904Y-84468980D02*
X190971904Y-83468980D01*
X191352857Y-83468980D01*
X191448095Y-83516600D01*
X191495714Y-83564219D01*
X191543333Y-83659457D01*
X191543333Y-83802314D01*
X191495714Y-83897552D01*
X191448095Y-83945171D01*
X191352857Y-83992790D01*
X190971904Y-83992790D01*
X191876666Y-83468980D02*
X192543333Y-83468980D01*
X192114761Y-84468980D01*
%TO.C,R6*%
X191543333Y-87999580D02*
X191210000Y-87523390D01*
X190971904Y-87999580D02*
X190971904Y-86999580D01*
X191352857Y-86999580D01*
X191448095Y-87047200D01*
X191495714Y-87094819D01*
X191543333Y-87190057D01*
X191543333Y-87332914D01*
X191495714Y-87428152D01*
X191448095Y-87475771D01*
X191352857Y-87523390D01*
X190971904Y-87523390D01*
X192400476Y-86999580D02*
X192210000Y-86999580D01*
X192114761Y-87047200D01*
X192067142Y-87094819D01*
X191971904Y-87237676D01*
X191924285Y-87428152D01*
X191924285Y-87809104D01*
X191971904Y-87904342D01*
X192019523Y-87951961D01*
X192114761Y-87999580D01*
X192305238Y-87999580D01*
X192400476Y-87951961D01*
X192448095Y-87904342D01*
X192495714Y-87809104D01*
X192495714Y-87571009D01*
X192448095Y-87475771D01*
X192400476Y-87428152D01*
X192305238Y-87380533D01*
X192114761Y-87380533D01*
X192019523Y-87428152D01*
X191971904Y-87475771D01*
X191924285Y-87571009D01*
%TO.C,U2*%
X165989095Y-111102580D02*
X165989095Y-111912104D01*
X166036714Y-112007342D01*
X166084333Y-112054961D01*
X166179571Y-112102580D01*
X166370047Y-112102580D01*
X166465285Y-112054961D01*
X166512904Y-112007342D01*
X166560523Y-111912104D01*
X166560523Y-111102580D01*
X166989095Y-111197819D02*
X167036714Y-111150200D01*
X167131952Y-111102580D01*
X167370047Y-111102580D01*
X167465285Y-111150200D01*
X167512904Y-111197819D01*
X167560523Y-111293057D01*
X167560523Y-111388295D01*
X167512904Y-111531152D01*
X166941476Y-112102580D01*
X167560523Y-112102580D01*
%TO.C,Q2*%
X184461161Y-108417419D02*
X184365923Y-108369800D01*
X184270685Y-108274561D01*
X184127828Y-108131704D01*
X184032590Y-108084085D01*
X183937352Y-108084085D01*
X183984971Y-108322180D02*
X183889733Y-108274561D01*
X183794495Y-108179323D01*
X183746876Y-107988847D01*
X183746876Y-107655514D01*
X183794495Y-107465038D01*
X183889733Y-107369800D01*
X183984971Y-107322180D01*
X184175447Y-107322180D01*
X184270685Y-107369800D01*
X184365923Y-107465038D01*
X184413542Y-107655514D01*
X184413542Y-107988847D01*
X184365923Y-108179323D01*
X184270685Y-108274561D01*
X184175447Y-108322180D01*
X183984971Y-108322180D01*
X184794495Y-107417419D02*
X184842114Y-107369800D01*
X184937352Y-107322180D01*
X185175447Y-107322180D01*
X185270685Y-107369800D01*
X185318304Y-107417419D01*
X185365923Y-107512657D01*
X185365923Y-107607895D01*
X185318304Y-107750752D01*
X184746876Y-108322180D01*
X185365923Y-108322180D01*
%TO.C,Q1*%
X184461161Y-101915019D02*
X184365923Y-101867400D01*
X184270685Y-101772161D01*
X184127828Y-101629304D01*
X184032590Y-101581685D01*
X183937352Y-101581685D01*
X183984971Y-101819780D02*
X183889733Y-101772161D01*
X183794495Y-101676923D01*
X183746876Y-101486447D01*
X183746876Y-101153114D01*
X183794495Y-100962638D01*
X183889733Y-100867400D01*
X183984971Y-100819780D01*
X184175447Y-100819780D01*
X184270685Y-100867400D01*
X184365923Y-100962638D01*
X184413542Y-101153114D01*
X184413542Y-101486447D01*
X184365923Y-101676923D01*
X184270685Y-101772161D01*
X184175447Y-101819780D01*
X183984971Y-101819780D01*
X185365923Y-101819780D02*
X184794495Y-101819780D01*
X185080209Y-101819780D02*
X185080209Y-100819780D01*
X184984971Y-100962638D01*
X184889733Y-101057876D01*
X184794495Y-101105495D01*
%TO.C,C2*%
X149698733Y-81419142D02*
X149651114Y-81466761D01*
X149508257Y-81514380D01*
X149413019Y-81514380D01*
X149270161Y-81466761D01*
X149174923Y-81371523D01*
X149127304Y-81276285D01*
X149079685Y-81085809D01*
X149079685Y-80942952D01*
X149127304Y-80752476D01*
X149174923Y-80657238D01*
X149270161Y-80562000D01*
X149413019Y-80514380D01*
X149508257Y-80514380D01*
X149651114Y-80562000D01*
X149698733Y-80609619D01*
X150079685Y-80609619D02*
X150127304Y-80562000D01*
X150222542Y-80514380D01*
X150460638Y-80514380D01*
X150555876Y-80562000D01*
X150603495Y-80609619D01*
X150651114Y-80704857D01*
X150651114Y-80800095D01*
X150603495Y-80942952D01*
X150032066Y-81514380D01*
X150651114Y-81514380D01*
%TO.C,C1*%
X149749533Y-52234542D02*
X149701914Y-52282161D01*
X149559057Y-52329780D01*
X149463819Y-52329780D01*
X149320961Y-52282161D01*
X149225723Y-52186923D01*
X149178104Y-52091685D01*
X149130485Y-51901209D01*
X149130485Y-51758352D01*
X149178104Y-51567876D01*
X149225723Y-51472638D01*
X149320961Y-51377400D01*
X149463819Y-51329780D01*
X149559057Y-51329780D01*
X149701914Y-51377400D01*
X149749533Y-51425019D01*
X150701914Y-52329780D02*
X150130485Y-52329780D01*
X150416200Y-52329780D02*
X150416200Y-51329780D01*
X150320961Y-51472638D01*
X150225723Y-51567876D01*
X150130485Y-51615495D01*
%TO.C,J5*%
X211166666Y-68532380D02*
X211166666Y-69246666D01*
X211119047Y-69389523D01*
X211023809Y-69484761D01*
X210880952Y-69532380D01*
X210785714Y-69532380D01*
X212119047Y-68532380D02*
X211642857Y-68532380D01*
X211595238Y-69008571D01*
X211642857Y-68960952D01*
X211738095Y-68913333D01*
X211976190Y-68913333D01*
X212071428Y-68960952D01*
X212119047Y-69008571D01*
X212166666Y-69103809D01*
X212166666Y-69341904D01*
X212119047Y-69437142D01*
X212071428Y-69484761D01*
X211976190Y-69532380D01*
X211738095Y-69532380D01*
X211642857Y-69484761D01*
X211595238Y-69437142D01*
%TO.C,J4*%
X206873066Y-68532380D02*
X206873066Y-69246666D01*
X206825447Y-69389523D01*
X206730209Y-69484761D01*
X206587352Y-69532380D01*
X206492114Y-69532380D01*
X207777828Y-68865714D02*
X207777828Y-69532380D01*
X207539733Y-68484761D02*
X207301638Y-69199047D01*
X207920685Y-69199047D01*
%TO.C,C5*%
X185783333Y-68157142D02*
X185735714Y-68204761D01*
X185592857Y-68252380D01*
X185497619Y-68252380D01*
X185354761Y-68204761D01*
X185259523Y-68109523D01*
X185211904Y-68014285D01*
X185164285Y-67823809D01*
X185164285Y-67680952D01*
X185211904Y-67490476D01*
X185259523Y-67395238D01*
X185354761Y-67300000D01*
X185497619Y-67252380D01*
X185592857Y-67252380D01*
X185735714Y-67300000D01*
X185783333Y-67347619D01*
X186688095Y-67252380D02*
X186211904Y-67252380D01*
X186164285Y-67728571D01*
X186211904Y-67680952D01*
X186307142Y-67633333D01*
X186545238Y-67633333D01*
X186640476Y-67680952D01*
X186688095Y-67728571D01*
X186735714Y-67823809D01*
X186735714Y-68061904D01*
X186688095Y-68157142D01*
X186640476Y-68204761D01*
X186545238Y-68252380D01*
X186307142Y-68252380D01*
X186211904Y-68204761D01*
X186164285Y-68157142D01*
%TO.C,C4*%
X174209733Y-112178542D02*
X174162114Y-112226161D01*
X174019257Y-112273780D01*
X173924019Y-112273780D01*
X173781161Y-112226161D01*
X173685923Y-112130923D01*
X173638304Y-112035685D01*
X173590685Y-111845209D01*
X173590685Y-111702352D01*
X173638304Y-111511876D01*
X173685923Y-111416638D01*
X173781161Y-111321400D01*
X173924019Y-111273780D01*
X174019257Y-111273780D01*
X174162114Y-111321400D01*
X174209733Y-111369019D01*
X175066876Y-111607114D02*
X175066876Y-112273780D01*
X174828780Y-111226161D02*
X174590685Y-111940447D01*
X175209733Y-111940447D01*
%TO.C,C3*%
X149698733Y-110629142D02*
X149651114Y-110676761D01*
X149508257Y-110724380D01*
X149413019Y-110724380D01*
X149270161Y-110676761D01*
X149174923Y-110581523D01*
X149127304Y-110486285D01*
X149079685Y-110295809D01*
X149079685Y-110152952D01*
X149127304Y-109962476D01*
X149174923Y-109867238D01*
X149270161Y-109772000D01*
X149413019Y-109724380D01*
X149508257Y-109724380D01*
X149651114Y-109772000D01*
X149698733Y-109819619D01*
X150032066Y-109724380D02*
X150651114Y-109724380D01*
X150317780Y-110105333D01*
X150460638Y-110105333D01*
X150555876Y-110152952D01*
X150603495Y-110200571D01*
X150651114Y-110295809D01*
X150651114Y-110533904D01*
X150603495Y-110629142D01*
X150555876Y-110676761D01*
X150460638Y-110724380D01*
X150174923Y-110724380D01*
X150079685Y-110676761D01*
X150032066Y-110629142D01*
%TO.C,R5*%
X191568733Y-91377780D02*
X191235400Y-90901590D01*
X190997304Y-91377780D02*
X190997304Y-90377780D01*
X191378257Y-90377780D01*
X191473495Y-90425400D01*
X191521114Y-90473019D01*
X191568733Y-90568257D01*
X191568733Y-90711114D01*
X191521114Y-90806352D01*
X191473495Y-90853971D01*
X191378257Y-90901590D01*
X190997304Y-90901590D01*
X192473495Y-90377780D02*
X191997304Y-90377780D01*
X191949685Y-90853971D01*
X191997304Y-90806352D01*
X192092542Y-90758733D01*
X192330638Y-90758733D01*
X192425876Y-90806352D01*
X192473495Y-90853971D01*
X192521114Y-90949209D01*
X192521114Y-91187304D01*
X192473495Y-91282542D01*
X192425876Y-91330161D01*
X192330638Y-91377780D01*
X192092542Y-91377780D01*
X191997304Y-91330161D01*
X191949685Y-91282542D01*
%TO.C,J3*%
X191843066Y-48093380D02*
X191843066Y-48807666D01*
X191795447Y-48950523D01*
X191700209Y-49045761D01*
X191557352Y-49093380D01*
X191462114Y-49093380D01*
X192224019Y-48093380D02*
X192843066Y-48093380D01*
X192509733Y-48474333D01*
X192652590Y-48474333D01*
X192747828Y-48521952D01*
X192795447Y-48569571D01*
X192843066Y-48664809D01*
X192843066Y-48902904D01*
X192795447Y-48998142D01*
X192747828Y-49045761D01*
X192652590Y-49093380D01*
X192366876Y-49093380D01*
X192271638Y-49045761D01*
X192224019Y-48998142D01*
%TO.C,D1*%
X194232304Y-131036180D02*
X194232304Y-130036180D01*
X194470400Y-130036180D01*
X194613257Y-130083800D01*
X194708495Y-130179038D01*
X194756114Y-130274276D01*
X194803733Y-130464752D01*
X194803733Y-130607609D01*
X194756114Y-130798085D01*
X194708495Y-130893323D01*
X194613257Y-130988561D01*
X194470400Y-131036180D01*
X194232304Y-131036180D01*
X195756114Y-131036180D02*
X195184685Y-131036180D01*
X195470400Y-131036180D02*
X195470400Y-130036180D01*
X195375161Y-130179038D01*
X195279923Y-130274276D01*
X195184685Y-130321895D01*
%TO.C,U4*%
X141732095Y-80739180D02*
X141732095Y-81548704D01*
X141779714Y-81643942D01*
X141827333Y-81691561D01*
X141922571Y-81739180D01*
X142113047Y-81739180D01*
X142208285Y-81691561D01*
X142255904Y-81643942D01*
X142303523Y-81548704D01*
X142303523Y-80739180D01*
X143208285Y-81072514D02*
X143208285Y-81739180D01*
X142970190Y-80691561D02*
X142732095Y-81405847D01*
X143351142Y-81405847D01*
%TO.C,R3*%
X195981580Y-124829866D02*
X195505390Y-125163200D01*
X195981580Y-125401295D02*
X194981580Y-125401295D01*
X194981580Y-125020342D01*
X195029200Y-124925104D01*
X195076819Y-124877485D01*
X195172057Y-124829866D01*
X195314914Y-124829866D01*
X195410152Y-124877485D01*
X195457771Y-124925104D01*
X195505390Y-125020342D01*
X195505390Y-125401295D01*
X194981580Y-124496533D02*
X194981580Y-123877485D01*
X195362533Y-124210819D01*
X195362533Y-124067961D01*
X195410152Y-123972723D01*
X195457771Y-123925104D01*
X195553009Y-123877485D01*
X195791104Y-123877485D01*
X195886342Y-123925104D01*
X195933961Y-123972723D01*
X195981580Y-124067961D01*
X195981580Y-124353676D01*
X195933961Y-124448914D01*
X195886342Y-124496533D01*
%TO.C,R2*%
X199613780Y-124829866D02*
X199137590Y-125163200D01*
X199613780Y-125401295D02*
X198613780Y-125401295D01*
X198613780Y-125020342D01*
X198661400Y-124925104D01*
X198709019Y-124877485D01*
X198804257Y-124829866D01*
X198947114Y-124829866D01*
X199042352Y-124877485D01*
X199089971Y-124925104D01*
X199137590Y-125020342D01*
X199137590Y-125401295D01*
X198709019Y-124448914D02*
X198661400Y-124401295D01*
X198613780Y-124306057D01*
X198613780Y-124067961D01*
X198661400Y-123972723D01*
X198709019Y-123925104D01*
X198804257Y-123877485D01*
X198899495Y-123877485D01*
X199042352Y-123925104D01*
X199613780Y-124496533D01*
X199613780Y-123877485D01*
%TO.C,U1*%
X179324095Y-48753780D02*
X179324095Y-49563304D01*
X179371714Y-49658542D01*
X179419333Y-49706161D01*
X179514571Y-49753780D01*
X179705047Y-49753780D01*
X179800285Y-49706161D01*
X179847904Y-49658542D01*
X179895523Y-49563304D01*
X179895523Y-48753780D01*
X180895523Y-49753780D02*
X180324095Y-49753780D01*
X180609809Y-49753780D02*
X180609809Y-48753780D01*
X180514571Y-48896638D01*
X180419333Y-48991876D01*
X180324095Y-49039495D01*
%TO.C,R4*%
X196581733Y-104236780D02*
X196248400Y-103760590D01*
X196010304Y-104236780D02*
X196010304Y-103236780D01*
X196391257Y-103236780D01*
X196486495Y-103284400D01*
X196534114Y-103332019D01*
X196581733Y-103427257D01*
X196581733Y-103570114D01*
X196534114Y-103665352D01*
X196486495Y-103712971D01*
X196391257Y-103760590D01*
X196010304Y-103760590D01*
X197438876Y-103570114D02*
X197438876Y-104236780D01*
X197200780Y-103189161D02*
X196962685Y-103903447D01*
X197581733Y-103903447D01*
%TO.C,SW1*%
X179862366Y-134744961D02*
X180005223Y-134792580D01*
X180243319Y-134792580D01*
X180338557Y-134744961D01*
X180386176Y-134697342D01*
X180433795Y-134602104D01*
X180433795Y-134506866D01*
X180386176Y-134411628D01*
X180338557Y-134364009D01*
X180243319Y-134316390D01*
X180052842Y-134268771D01*
X179957604Y-134221152D01*
X179909985Y-134173533D01*
X179862366Y-134078295D01*
X179862366Y-133983057D01*
X179909985Y-133887819D01*
X179957604Y-133840200D01*
X180052842Y-133792580D01*
X180290938Y-133792580D01*
X180433795Y-133840200D01*
X180767128Y-133792580D02*
X181005223Y-134792580D01*
X181195700Y-134078295D01*
X181386176Y-134792580D01*
X181624271Y-133792580D01*
X182529033Y-134792580D02*
X181957604Y-134792580D01*
X182243319Y-134792580D02*
X182243319Y-133792580D01*
X182148080Y-133935438D01*
X182052842Y-134030676D01*
X181957604Y-134078295D01*
%TO.C,R1*%
X192476380Y-124855266D02*
X192000190Y-125188600D01*
X192476380Y-125426695D02*
X191476380Y-125426695D01*
X191476380Y-125045742D01*
X191524000Y-124950504D01*
X191571619Y-124902885D01*
X191666857Y-124855266D01*
X191809714Y-124855266D01*
X191904952Y-124902885D01*
X191952571Y-124950504D01*
X192000190Y-125045742D01*
X192000190Y-125426695D01*
X192476380Y-123902885D02*
X192476380Y-124474314D01*
X192476380Y-124188600D02*
X191476380Y-124188600D01*
X191619238Y-124283838D01*
X191714476Y-124379076D01*
X191762095Y-124474314D01*
D11*
%TO.C,J6*%
X209342000Y-131215428D02*
X209342000Y-132304000D01*
X209269428Y-132521714D01*
X209124285Y-132666857D01*
X208906571Y-132739428D01*
X208761428Y-132739428D01*
X210720857Y-131215428D02*
X210430571Y-131215428D01*
X210285428Y-131288000D01*
X210212857Y-131360571D01*
X210067714Y-131578285D01*
X209995142Y-131868571D01*
X209995142Y-132449142D01*
X210067714Y-132594285D01*
X210140285Y-132666857D01*
X210285428Y-132739428D01*
X210575714Y-132739428D01*
X210720857Y-132666857D01*
X210793428Y-132594285D01*
X210866000Y-132449142D01*
X210866000Y-132086285D01*
X210793428Y-131941142D01*
X210720857Y-131868571D01*
X210575714Y-131796000D01*
X210285428Y-131796000D01*
X210140285Y-131868571D01*
X210067714Y-131941142D01*
X209995142Y-132086285D01*
D10*
%TO.C,U7*%
X195552380Y-72861904D02*
X196361904Y-72861904D01*
X196457142Y-72814285D01*
X196504761Y-72766666D01*
X196552380Y-72671428D01*
X196552380Y-72480952D01*
X196504761Y-72385714D01*
X196457142Y-72338095D01*
X196361904Y-72290476D01*
X195552380Y-72290476D01*
X195552380Y-71909523D02*
X195552380Y-71242857D01*
X196552380Y-71671428D01*
D12*
%TO.C,J1*%
X117509000Y-118349200D02*
X122709000Y-118349200D01*
X117509000Y-67429200D02*
X118839000Y-67429200D01*
X120109000Y-70029200D02*
X120109000Y-67429200D01*
X117509000Y-68759200D02*
X117509000Y-67429200D01*
X122709000Y-67429200D02*
X122709000Y-118349200D01*
X117509000Y-70029200D02*
X120109000Y-70029200D01*
X120109000Y-67429200D02*
X122709000Y-67429200D01*
X117509000Y-70029200D02*
X117509000Y-118349200D01*
%TO.C,U3*%
X141494000Y-53102200D02*
X139844000Y-53102200D01*
X145144000Y-78622200D02*
X145144000Y-53102200D01*
X139844000Y-78622200D02*
X145144000Y-78622200D01*
X139844000Y-53102200D02*
X139844000Y-78622200D01*
X145144000Y-53102200D02*
X143494000Y-53102200D01*
X141494000Y-53102200D02*
G75*
G03*
X143494000Y-53102200I1000000J0D01*
G01*
%TO.C,U6*%
X164380400Y-113046200D02*
X164380400Y-138566200D01*
X169680400Y-113046200D02*
X168030400Y-113046200D01*
X166030400Y-113046200D02*
X164380400Y-113046200D01*
X164380400Y-138566200D02*
X169680400Y-138566200D01*
X169680400Y-138566200D02*
X169680400Y-113046200D01*
X166030400Y-113046200D02*
G75*
G03*
X168030400Y-113046200I1000000J0D01*
G01*
%TO.C,U5*%
X139844000Y-136991400D02*
X145144000Y-136991400D01*
X145144000Y-136991400D02*
X145144000Y-111471400D01*
X139844000Y-111471400D02*
X139844000Y-136991400D01*
X145144000Y-111471400D02*
X143494000Y-111471400D01*
X141494000Y-111471400D02*
X139844000Y-111471400D01*
X141494000Y-111471400D02*
G75*
G03*
X143494000Y-111471400I1000000J0D01*
G01*
%TO.C,R8*%
X188440000Y-81983000D02*
X194980000Y-81983000D01*
X188440000Y-79573000D02*
X188440000Y-79243000D01*
X188440000Y-79243000D02*
X194980000Y-79243000D01*
X194980000Y-81983000D02*
X194980000Y-81653000D01*
X194980000Y-79243000D02*
X194980000Y-79573000D01*
X188440000Y-81653000D02*
X188440000Y-81983000D01*
%TO.C,R7*%
X194980000Y-82672000D02*
X194980000Y-83002000D01*
X188440000Y-82672000D02*
X194980000Y-82672000D01*
X188440000Y-83002000D02*
X188440000Y-82672000D01*
X188440000Y-85082000D02*
X188440000Y-85412000D01*
X188440000Y-85412000D02*
X194980000Y-85412000D01*
X194980000Y-85412000D02*
X194980000Y-85082000D01*
%TO.C,R6*%
X188440000Y-86431000D02*
X188440000Y-86101000D01*
X188440000Y-86101000D02*
X194980000Y-86101000D01*
X188440000Y-88511000D02*
X188440000Y-88841000D01*
X194980000Y-86101000D02*
X194980000Y-86431000D01*
X194980000Y-88841000D02*
X194980000Y-88511000D01*
X188440000Y-88841000D02*
X194980000Y-88841000D01*
%TO.C,U2*%
X163711000Y-110290200D02*
X169790999Y-110290200D01*
X169790999Y-110290200D02*
X169790999Y-110650200D01*
X175871000Y-50030200D02*
X157631001Y-50030200D01*
X175870999Y-110650200D02*
X175871000Y-50030200D01*
X163711000Y-110650200D02*
X163711000Y-110290200D01*
X169790999Y-110650200D02*
X175870999Y-110650200D01*
X157631001Y-50030200D02*
X157631000Y-110650200D01*
X157631000Y-110650200D02*
X163711000Y-110650200D01*
%TO.C,Q2*%
X182756400Y-113279800D02*
X186356400Y-113279800D01*
X184556400Y-108829799D02*
G75*
G03*
X182717922Y-113268278I0J-2600001D01*
G01*
X186394878Y-113268278D02*
G75*
G03*
X184556400Y-108829800I-1838478J1838478D01*
G01*
%TO.C,Q1*%
X182756400Y-106777400D02*
X186356400Y-106777400D01*
X186394878Y-106765878D02*
G75*
G03*
X184556400Y-102327400I-1838478J1838478D01*
G01*
X184556400Y-102327399D02*
G75*
G03*
X182717922Y-106765878I0J-2600001D01*
G01*
%TO.C,C2*%
X148245400Y-82192000D02*
X148245400Y-82257000D01*
X148245400Y-84367000D02*
X148245400Y-84432000D01*
X148245400Y-84432000D02*
X151485400Y-84432000D01*
X151485400Y-84367000D02*
X151485400Y-84432000D01*
X151485400Y-82192000D02*
X151485400Y-82257000D01*
X148245400Y-82192000D02*
X151485400Y-82192000D01*
%TO.C,C1*%
X151536200Y-55182400D02*
X151536200Y-55247400D01*
X148296200Y-53007400D02*
X151536200Y-53007400D01*
X148296200Y-53007400D02*
X148296200Y-53072400D01*
X148296200Y-55182400D02*
X148296200Y-55247400D01*
X148296200Y-55247400D02*
X151536200Y-55247400D01*
X151536200Y-53007400D02*
X151536200Y-53072400D01*
%TO.C,J5*%
X212830000Y-65480000D02*
X212830000Y-62880000D01*
X212830000Y-68080000D02*
X211500000Y-68080000D01*
X210170000Y-65480000D02*
X210170000Y-62880000D01*
X212830000Y-62880000D02*
X210170000Y-62880000D01*
X212830000Y-66750000D02*
X212830000Y-68080000D01*
X212830000Y-65480000D02*
X210170000Y-65480000D01*
%TO.C,J4*%
X208536400Y-66750000D02*
X208536400Y-68080000D01*
X208536400Y-62880000D02*
X205876400Y-62880000D01*
X208536400Y-65480000D02*
X208536400Y-62880000D01*
X205876400Y-65480000D02*
X205876400Y-62880000D01*
X208536400Y-68080000D02*
X207206400Y-68080000D01*
X208536400Y-65480000D02*
X205876400Y-65480000D01*
%TO.C,C5*%
X184330000Y-64495000D02*
X184330000Y-64430000D01*
X184330000Y-66670000D02*
X184330000Y-66605000D01*
X187570000Y-66670000D02*
X184330000Y-66670000D01*
X187570000Y-64495000D02*
X187570000Y-64430000D01*
X187570000Y-66670000D02*
X187570000Y-66605000D01*
X187570000Y-64430000D02*
X184330000Y-64430000D01*
%TO.C,C4*%
X175996400Y-112951400D02*
X175996400Y-113016400D01*
X172756400Y-112951400D02*
X175996400Y-112951400D01*
X172756400Y-115126400D02*
X172756400Y-115191400D01*
X175996400Y-115126400D02*
X175996400Y-115191400D01*
X172756400Y-112951400D02*
X172756400Y-113016400D01*
X172756400Y-115191400D02*
X175996400Y-115191400D01*
%TO.C,C3*%
X151485400Y-113577000D02*
X151485400Y-113642000D01*
X148245400Y-111402000D02*
X148245400Y-111467000D01*
X148245400Y-113642000D02*
X151485400Y-113642000D01*
X148245400Y-111402000D02*
X151485400Y-111402000D01*
X151485400Y-111402000D02*
X151485400Y-111467000D01*
X148245400Y-113577000D02*
X148245400Y-113642000D01*
%TO.C,R5*%
X188440000Y-92270000D02*
X194980000Y-92270000D01*
X188440000Y-91940000D02*
X188440000Y-92270000D01*
X188440000Y-89530000D02*
X194980000Y-89530000D01*
X194980000Y-92270000D02*
X194980000Y-91940000D01*
X188440000Y-89860000D02*
X188440000Y-89530000D01*
X194980000Y-89530000D02*
X194980000Y-89860000D01*
D10*
%TO.C,J3*%
X199295400Y-62374800D02*
X184295400Y-62374800D01*
X184295400Y-47674800D02*
X199295400Y-47674800D01*
X184295400Y-62374800D02*
X184295400Y-47674800D01*
X199295400Y-47674800D02*
X199295400Y-62374800D01*
X189245400Y-52374800D02*
G75*
G03*
X189245400Y-52374800I-500000J0D01*
G01*
X197225400Y-52374800D02*
G75*
G03*
X197225400Y-52374800I-500000J0D01*
G01*
D12*
%TO.C,D1*%
X192410400Y-135623800D02*
X192410400Y-136088800D01*
X192410400Y-132998800D02*
X192410400Y-133463800D01*
X197758214Y-133462973D02*
G75*
G03*
X192410400Y-132998970I-2787814J-1080826D01*
G01*
X192410400Y-136088630D02*
G75*
G03*
X197758215Y-135624627I2560000J1544831D01*
G01*
X192715716Y-135623800D02*
G75*
G03*
X197224879Y-135624229I2254684J1080000D01*
G01*
X197224879Y-133463371D02*
G75*
G03*
X192715716Y-133463800I-2254479J-1080429D01*
G01*
%TO.C,U4*%
X145144000Y-107806800D02*
X145144000Y-82286800D01*
X145144000Y-82286800D02*
X143494000Y-82286800D01*
X139844000Y-82286800D02*
X139844000Y-107806800D01*
X141494000Y-82286800D02*
X139844000Y-82286800D01*
X139844000Y-107806800D02*
X145144000Y-107806800D01*
X141494000Y-82286800D02*
G75*
G03*
X143494000Y-82286800I1000000J0D01*
G01*
%TO.C,R3*%
X194235400Y-121367800D02*
X194235400Y-127907800D01*
X194565400Y-121367800D02*
X194235400Y-121367800D01*
X196645400Y-121367800D02*
X196975400Y-121367800D01*
X196975400Y-121367800D02*
X196975400Y-127907800D01*
X196975400Y-127907800D02*
X196645400Y-127907800D01*
X194235400Y-127907800D02*
X194565400Y-127907800D01*
%TO.C,R2*%
X200201400Y-121367800D02*
X200531400Y-121367800D01*
X200531400Y-127907800D02*
X200201400Y-127907800D01*
X197791400Y-127907800D02*
X198121400Y-127907800D01*
X198121400Y-121367800D02*
X197791400Y-121367800D01*
X200531400Y-121367800D02*
X200531400Y-127907800D01*
X197791400Y-121367800D02*
X197791400Y-127907800D01*
%TO.C,U1*%
X181576200Y-50371500D02*
X181576200Y-97351500D01*
X202141600Y-50359000D02*
X193303400Y-50359000D01*
X202141600Y-97351500D02*
X202141600Y-50371500D01*
X181576200Y-97469000D02*
X202141600Y-97469000D01*
X191303400Y-50359000D02*
X181576200Y-50359000D01*
X191303400Y-50333600D02*
G75*
G03*
X193303400Y-50333600I1000000J0D01*
G01*
%TO.C,R4*%
X193414900Y-102769800D02*
X193414900Y-102439800D01*
X199954900Y-105179800D02*
X199954900Y-104849800D01*
X193414900Y-102439800D02*
X199954900Y-102439800D01*
X199954900Y-102439800D02*
X199954900Y-102769800D01*
X193414900Y-104849800D02*
X193414900Y-105179800D01*
X193414900Y-105179800D02*
X199954900Y-105179800D01*
%TO.C,SW1*%
X184700000Y-135050000D02*
X184700000Y-133550000D01*
X183450000Y-131050000D02*
X178950000Y-131050000D01*
X178950000Y-137550000D02*
X183450000Y-137550000D01*
X177700000Y-133550000D02*
X177700000Y-135050000D01*
%TO.C,R1*%
X190679400Y-121367800D02*
X190679400Y-127907800D01*
X190679400Y-127907800D02*
X191009400Y-127907800D01*
X193419400Y-127907800D02*
X193089400Y-127907800D01*
X193089400Y-121367800D02*
X193419400Y-121367800D01*
X191009400Y-121367800D02*
X190679400Y-121367800D01*
X193419400Y-121367800D02*
X193419400Y-127907800D01*
D13*
%TO.C,J6*%
X212638000Y-125310000D02*
X212384000Y-125310000D01*
X220512000Y-105117000D02*
X220512000Y-100037000D01*
X206288000Y-99656000D02*
X214670000Y-99656000D01*
X220512000Y-107022000D02*
X214670000Y-107022000D01*
X220512000Y-123278000D02*
X220512000Y-107022000D01*
X214670000Y-130263000D02*
X220512000Y-130263000D01*
X214670000Y-101053000D02*
X220512000Y-101053000D01*
X220512000Y-130263000D02*
X220512000Y-125183000D01*
X214670000Y-130644000D02*
X206288000Y-130644000D01*
X206288000Y-99656000D02*
X206288000Y-130644000D01*
X214670000Y-105117000D02*
X220512000Y-105117000D01*
X214670000Y-104101000D02*
X220512000Y-104101000D01*
X210987000Y-129247000D02*
X210987000Y-126072000D01*
X220512000Y-100037000D02*
X214797000Y-100037000D01*
X212638000Y-130136000D02*
X212638000Y-125310000D01*
X210225000Y-126580000D02*
X212765000Y-126580000D01*
X212384000Y-130136000D02*
X212638000Y-130136000D01*
X210987000Y-126072000D02*
X212384000Y-125310000D01*
X214670000Y-129247000D02*
X220512000Y-129247000D01*
X212765000Y-128866000D02*
X210225000Y-128866000D01*
X210987000Y-104228000D02*
X210987000Y-101053000D01*
X206288000Y-124167000D02*
X214644600Y-124167000D01*
X214670000Y-123278000D02*
X220512000Y-123278000D01*
X212638000Y-104863000D02*
X212638000Y-100291000D01*
X214670000Y-130644000D02*
X214670000Y-99656000D01*
X210987000Y-104228000D02*
X212384000Y-104863000D01*
X212384000Y-104863000D02*
X212638000Y-104863000D01*
X214670000Y-125183000D02*
X220512000Y-125183000D01*
X214644600Y-106133000D02*
X206288000Y-106133000D01*
X212384000Y-125310000D02*
X212384000Y-130136000D01*
X212384000Y-100291000D02*
X212384000Y-104863000D01*
X210225000Y-103720000D02*
X210225000Y-101434000D01*
X212638000Y-100291000D02*
X212384000Y-100291000D01*
X214670000Y-126199000D02*
X220512000Y-126199000D01*
X210987000Y-101053000D02*
X212384000Y-100291000D01*
X210225000Y-101434000D02*
X212765000Y-101434000D01*
X212765000Y-103720000D02*
X210225000Y-103720000D01*
X210987000Y-129247000D02*
X212384000Y-130136000D01*
X210225000Y-128866000D02*
X210225000Y-126580000D01*
D12*
%TO.C,U7*%
X188515000Y-72100000D02*
X188515000Y-74300000D01*
X195285000Y-72100000D02*
X195285000Y-68500000D01*
X188515000Y-72100000D02*
X188515000Y-69900000D01*
X195285000Y-72100000D02*
X195285000Y-74300000D01*
%TD*%
M02*
