M48
; DRILL file {KiCad (6.0.0-0)} date Thursday, January 06, 2022 at 04:40:43 PM
; FORMAT={-:-/ absolute / inch / decimal}
; #@! TF.CreationDate,2022-01-06T16:40:43-08:00
; #@! TF.GenerationSoftware,Kicad,Pcbnew,(6.0.0-0)
; #@! TF.FileFunction,Plated,1,2,PTH
FMAT,2
INCH
; #@! TA.AperFunction,Plated,PTH,ViaDrill
T1C0.0157
; #@! TA.AperFunction,Plated,PTH,ComponentDrill
T2C0.0197
; #@! TA.AperFunction,Plated,PTH,ComponentDrill
T3C0.0256
; #@! TA.AperFunction,Plated,PTH,ComponentDrill
T4C0.0276
; #@! TA.AperFunction,Plated,PTH,ComponentDrill
T5C0.0295
; #@! TA.AperFunction,Plated,PTH,ComponentDrill
T6C0.0315
; #@! TA.AperFunction,Plated,PTH,ComponentDrill
T7C0.0354
; #@! TA.AperFunction,Plated,PTH,ComponentDrill
T8C0.0394
; #@! TA.AperFunction,Plated,PTH,ComponentDrill
T9C0.0433
; #@! TA.AperFunction,Plated,PTH,ComponentDrill
T10C0.0984
; #@! TA.AperFunction,Plated,PTH,ComponentDrill
T11C0.1260
%
G90
G05
T1
X4.846Y-3.908
X4.849Y-2.243
X4.877Y-4.002
X4.8775Y-2.348
X4.902Y-4.201
X4.9061Y-2.443
X4.933Y-4.306
X4.9346Y-2.544
X4.965Y-2.645
X4.968Y-4.404
X5.0Y-4.437
X5.007Y-2.741
X5.035Y-4.542
X5.0355Y-2.842
X5.063Y-4.645
X5.0641Y-2.947
X5.092Y-4.795
X5.106Y-2.709
X5.141Y-3.407
X5.141Y-4.697
X5.1725Y-4.602
X5.173Y-3.309
X5.201Y-5.242
X5.2105Y-4.253
X5.2125Y-3.507
X5.213Y-4.095
X5.236Y-5.141
X5.239Y-4.155
X5.241Y-3.992
X5.2444Y-3.208
X5.2685Y-4.05
X5.269Y-5.039
X5.272Y-3.894
X5.273Y-3.156
X5.297Y-3.959
X5.297Y-4.938
X5.3015Y-3.107
X5.304Y-3.792
X5.328Y-3.694
X5.328Y-4.836
X5.3301Y-3.0111
X5.3301Y-3.857
X5.356Y-3.593
X5.356Y-4.735
X5.3586Y-2.981
X5.3586Y-3.759
X5.3872Y-2.904
X5.3872Y-3.654
X5.416Y-2.803
X5.419Y-3.55
X5.4587Y-4.248
X5.515Y-3.637
X5.515Y-4.997
X5.543Y-3.245
X5.5435Y-4.892
X5.5721Y-3.743
X5.5721Y-4.351
X5.6299Y-4.1909
X6.065Y-4.6417
X6.0965Y-4.7421
X6.1299Y-4.8406
X6.1594Y-4.9409
X6.1929Y-5.0413
X6.2657Y-4.5413
X6.3189Y-5.3425
X6.3504Y-5.2402
X6.3602Y-2.2972
X6.4705Y-3.4134
X6.4744Y-5.1437
X6.5029Y-4.0157
X6.5354Y-3.9114
X6.5689Y-3.813
X6.5984Y-3.7126
X6.7176Y-3.8602
X6.7461Y-3.9587
X6.7746Y-4.0591
X6.8031Y-4.1654
X7.1575Y-3.502
X7.3354Y-2.0957
X7.3386Y-2.9508
X7.3386Y-3.0709
X7.3386Y-3.5709
X7.3605Y-2.3895
X7.3976Y-3.8327
X7.4094Y-2.7264
X7.4094Y-2.9508
X7.4173Y-4.1575
X7.4173Y-4.3661
X7.4626Y-4.2677
X7.4665Y-2.565
X7.4843Y-3.3091
X7.4921Y-2.6811
X7.4921Y-2.8996
X7.4961Y-4.2343
X7.5079Y-2.418
X7.539Y-3.034
X7.5433Y-2.7786
X7.5689Y-3.502
X7.5929Y-3.835
X7.5945Y-2.418
X7.5945Y-4.626
X7.5965Y-2.7786
X7.5984Y-3.124
X7.6516Y-2.6575
X7.6535Y-2.6063
X7.6656Y-2.5304
X7.7362Y-3.0197
X7.7396Y-2.6088
X7.748Y-3.7343
X7.7618Y-3.0542
X7.7638Y-3.2106
X7.7894Y-2.9508
X7.7913Y-3.1112
X7.7913Y-3.2421
X7.822Y-2.596
X7.822Y-2.8769
X7.826Y-3.635
X7.8681Y-2.8268
X7.8829Y-2.6063
X7.8957Y-2.3563
X7.8957Y-5.1988
X7.9035Y-4.0059
X7.9252Y-2.1791
X8.0512Y-2.2874
X8.0591Y-3.9134
X8.1329Y-2.9783
X8.1614Y-2.7894
X8.1909Y-3.0827
T2
X4.5876Y-2.1043
X4.6073Y-5.3858
X4.6092Y-2.0521
X4.6092Y-2.1565
X4.6289Y-5.3336
X4.6289Y-5.438
X4.6614Y-2.0305
X4.6614Y-2.1781
X4.6811Y-5.312
X4.6811Y-5.4596
X4.7136Y-2.0521
X4.7136Y-2.1565
X4.7333Y-5.3336
X4.7333Y-5.438
X4.7352Y-2.1043
X4.7549Y-5.3858
X8.188Y-2.0866
X8.1919Y-5.3819
X8.2096Y-2.0344
X8.2096Y-2.1388
X8.2136Y-5.3297
X8.2136Y-5.4341
X8.2618Y-2.0128
X8.2618Y-2.1604
X8.2657Y-5.3081
X8.2657Y-5.4557
X8.314Y-2.0344
X8.314Y-2.1388
X8.3179Y-5.3297
X8.3179Y-5.4341
X8.3356Y-2.0866
X8.3396Y-5.3819
T3
X8.2366Y-4.3638
T4
X8.2366Y-4.454
X8.2366Y-4.544
X8.2366Y-4.6343
X8.2366Y-4.7244
X8.3061Y-4.3187
X8.3061Y-4.409
X8.3061Y-4.4995
X8.3061Y-4.59
X8.3061Y-4.6795
X8.3766Y-4.3638
X8.3766Y-4.454
X8.3766Y-4.5441
X8.3766Y-4.6343
X8.3766Y-4.7245
T5
X7.216Y-4.131
X7.216Y-4.387
X7.266Y-4.131
X7.266Y-4.387
X7.316Y-4.131
X7.316Y-4.387
T6
X5.46Y-2.143
X5.46Y-2.243
X5.46Y-2.343
X5.46Y-2.443
X5.46Y-2.543
X5.46Y-2.643
X5.46Y-2.743
X5.46Y-2.843
X5.46Y-2.943
X5.46Y-3.043
X5.46Y-3.292
X5.46Y-3.392
X5.46Y-3.492
X5.46Y-3.592
X5.46Y-3.692
X5.46Y-3.792
X5.46Y-3.892
X5.46Y-3.992
X5.46Y-4.092
X5.46Y-4.192
X5.46Y-4.441
X5.46Y-4.541
X5.46Y-4.641
X5.46Y-4.741
X5.46Y-4.841
X5.46Y-4.941
X5.46Y-5.041
X5.46Y-5.141
X5.46Y-5.241
X5.46Y-5.341
X5.76Y-2.143
X5.76Y-2.243
X5.76Y-2.343
X5.76Y-2.443
X5.76Y-2.543
X5.76Y-2.643
X5.76Y-2.743
X5.76Y-2.843
X5.76Y-2.943
X5.76Y-3.043
X5.76Y-3.292
X5.76Y-3.392
X5.76Y-3.492
X5.76Y-3.592
X5.76Y-3.692
X5.76Y-3.792
X5.76Y-3.892
X5.76Y-3.992
X5.76Y-4.092
X5.76Y-4.192
X5.76Y-4.441
X5.76Y-4.541
X5.76Y-4.641
X5.76Y-4.741
X5.76Y-4.841
X5.76Y-4.941
X5.76Y-5.041
X5.76Y-5.141
X5.76Y-5.241
X5.76Y-5.341
X5.851Y-3.28
X5.851Y-4.43
X5.853Y-2.131
X5.9494Y-3.28
X5.9494Y-4.43
X5.9514Y-2.131
X6.265Y-2.013
X6.265Y-2.113
X6.265Y-2.213
X6.265Y-2.313
X6.265Y-2.413
X6.265Y-2.513
X6.265Y-2.613
X6.265Y-2.713
X6.265Y-2.813
X6.265Y-2.913
X6.265Y-3.013
X6.265Y-3.113
X6.265Y-3.213
X6.265Y-3.313
X6.265Y-3.413
X6.265Y-3.513
X6.265Y-3.613
X6.265Y-3.713
X6.265Y-3.813
X6.265Y-3.913
X6.265Y-4.013
X6.265Y-4.113
X6.265Y-4.213
X6.265Y-4.313
X6.426Y-4.503
X6.426Y-4.603
X6.426Y-4.703
X6.426Y-4.803
X6.426Y-4.903
X6.426Y-5.003
X6.426Y-5.103
X6.426Y-5.203
X6.426Y-5.303
X6.426Y-5.403
X6.726Y-4.503
X6.726Y-4.603
X6.726Y-4.703
X6.726Y-4.803
X6.726Y-4.903
X6.726Y-5.003
X6.726Y-5.103
X6.726Y-5.203
X6.726Y-5.303
X6.726Y-5.403
X6.816Y-4.491
X6.865Y-2.013
X6.865Y-2.113
X6.865Y-2.213
X6.865Y-2.313
X6.865Y-2.413
X6.865Y-2.513
X6.865Y-2.613
X6.865Y-2.713
X6.865Y-2.813
X6.865Y-2.913
X6.865Y-3.013
X6.865Y-3.113
X6.865Y-3.213
X6.865Y-3.313
X6.865Y-3.413
X6.865Y-3.513
X6.865Y-3.613
X6.865Y-3.713
X6.865Y-3.813
X6.865Y-3.913
X6.865Y-4.013
X6.865Y-4.113
X6.865Y-4.213
X6.865Y-4.313
X6.9144Y-4.491
X7.103Y-2.035
X7.103Y-2.135
X7.103Y-2.235
X7.103Y-2.335
X7.103Y-2.435
X7.103Y-2.535
X7.103Y-2.635
X7.103Y-2.735
X7.103Y-2.835
X7.103Y-2.935
X7.103Y-3.035
X7.103Y-3.135
X7.103Y-3.235
X7.103Y-3.335
X7.103Y-3.435
X7.103Y-3.535
X7.103Y-3.635
X7.103Y-3.735
X7.103Y-3.835
X7.2717Y-2.5807
X7.3701Y-2.5807
X7.3976Y-3.1737
X7.3976Y-3.3087
X7.3976Y-3.4437
X7.3976Y-3.5787
X7.561Y-4.757
X7.561Y-5.057
X7.5935Y-4.087
X7.6976Y-3.1737
X7.6976Y-3.3087
X7.6976Y-3.4437
X7.6976Y-3.5787
X7.701Y-4.757
X7.701Y-5.057
X7.841Y-4.757
X7.841Y-5.057
X7.8935Y-4.087
X8.003Y-2.0375
X8.003Y-2.135
X8.003Y-2.235
X8.003Y-2.335
X8.003Y-2.435
X8.003Y-2.535
X8.003Y-2.635
X8.003Y-2.735
X8.003Y-2.835
X8.003Y-2.935
X8.003Y-3.035
X8.003Y-3.135
X8.003Y-3.235
X8.003Y-3.335
X8.003Y-3.435
X8.003Y-3.535
X8.003Y-3.635
X8.003Y-3.735
X8.003Y-3.835
T7
X7.601Y-5.297
X7.651Y-5.297
X7.701Y-5.297
X7.751Y-5.297
T8
X4.6787Y-2.7071
X4.6787Y-2.8071
X4.6787Y-2.9071
X4.6787Y-3.0071
X4.6787Y-3.1071
X4.6787Y-3.2071
X4.6787Y-3.3071
X4.6787Y-3.4071
X4.6787Y-3.5071
X4.6787Y-3.6071
X4.6787Y-3.7071
X4.6787Y-3.8071
X4.6787Y-3.9071
X4.6787Y-4.0071
X4.6787Y-4.1071
X4.6787Y-4.2071
X4.6787Y-4.3071
X4.6787Y-4.4071
X4.6787Y-4.5071
X4.6787Y-4.6071
X4.7787Y-2.7071
X4.7787Y-2.8071
X4.7787Y-2.9071
X4.7787Y-3.0071
X4.7787Y-3.1071
X4.7787Y-3.2071
X4.7787Y-3.3071
X4.7787Y-3.4071
X4.7787Y-3.5071
X4.7787Y-3.6071
X4.7787Y-3.7071
X4.7787Y-3.8071
X4.7787Y-3.9071
X4.7787Y-4.0071
X4.7787Y-4.1071
X4.7787Y-4.2071
X4.7787Y-4.3071
X4.7787Y-4.4071
X4.7787Y-4.5071
X4.7787Y-4.6071
X8.1577Y-2.528
X8.1577Y-2.628
X8.3268Y-2.528
X8.3268Y-2.628
T9
X7.0059Y-5.1988
X7.0059Y-5.376
X7.2618Y-5.1988
X7.2618Y-5.376
T10
X4.6614Y-2.1043
X4.6811Y-5.3858
X8.2618Y-2.0866
X8.2657Y-5.3819
T11
X8.3043Y-4.0416
X8.3043Y-5.0254
T0
M30
