%TF.GenerationSoftware,KiCad,Pcbnew,(6.0.0-0)*%
%TF.CreationDate,2022-01-11T18:58:16-08:00*%
%TF.ProjectId,TRS-IO-M1,5452532d-494f-42d4-9d31-2e6b69636164,rev?*%
%TF.SameCoordinates,Original*%
%TF.FileFunction,Soldermask,Top*%
%TF.FilePolarity,Negative*%
%FSLAX46Y46*%
G04 Gerber Fmt 4.6, Leading zero omitted, Abs format (unit mm)*
G04 Created by KiCad (PCBNEW (6.0.0-0)) date 2022-01-11 18:58:16*
%MOMM*%
%LPD*%
G01*
G04 APERTURE LIST*
G04 Aperture macros list*
%AMRoundRect*
0 Rectangle with rounded corners*
0 $1 Rounding radius*
0 $2 $3 $4 $5 $6 $7 $8 $9 X,Y pos of 4 corners*
0 Add a 4 corners polygon primitive as box body*
4,1,4,$2,$3,$4,$5,$6,$7,$8,$9,$2,$3,0*
0 Add four circle primitives for the rounded corners*
1,1,$1+$1,$2,$3*
1,1,$1+$1,$4,$5*
1,1,$1+$1,$6,$7*
1,1,$1+$1,$8,$9*
0 Add four rect primitives between the rounded corners*
20,1,$1+$1,$2,$3,$4,$5,0*
20,1,$1+$1,$4,$5,$6,$7,0*
20,1,$1+$1,$6,$7,$8,$9,0*
20,1,$1+$1,$8,$9,$2,$3,0*%
G04 Aperture macros list end*
%ADD10RoundRect,0.051000X-0.850000X-0.850000X0.850000X-0.850000X0.850000X0.850000X-0.850000X0.850000X0*%
%ADD11O,1.802000X1.802000*%
%ADD12RoundRect,0.051000X3.810000X-0.889000X3.810000X0.889000X-3.810000X0.889000X-3.810000X-0.889000X0*%
%ADD13RoundRect,0.051000X-0.800000X-0.800000X0.800000X-0.800000X0.800000X0.800000X-0.800000X0.800000X0*%
%ADD14O,1.702000X1.702000*%
%ADD15C,1.702000*%
%ADD16O,2.102000X1.302000*%
%ADD17RoundRect,0.051000X-0.525000X-0.750000X0.525000X-0.750000X0.525000X0.750000X-0.525000X0.750000X0*%
%ADD18O,1.152000X1.602000*%
%ADD19RoundRect,0.051000X0.850000X0.850000X-0.850000X0.850000X-0.850000X-0.850000X0.850000X-0.850000X0*%
%ADD20RoundRect,0.051000X0.350000X0.800000X-0.350000X0.800000X-0.350000X-0.800000X0.350000X-0.800000X0*%
%ADD21RoundRect,0.051000X0.800000X0.700000X-0.800000X0.700000X-0.800000X-0.700000X0.800000X-0.700000X0*%
%ADD22RoundRect,0.051000X0.600000X1.100000X-0.600000X1.100000X-0.600000X-1.100000X0.600000X-1.100000X0*%
%ADD23RoundRect,0.051000X0.600000X0.700000X-0.600000X0.700000X-0.600000X-0.700000X0.600000X-0.700000X0*%
%ADD24RoundRect,0.051000X-0.535000X-0.900000X0.535000X-0.900000X0.535000X0.900000X-0.535000X0.900000X0*%
%ADD25O,1.172000X1.902000*%
%ADD26C,2.102000*%
%ADD27C,0.902000*%
%ADD28C,5.102000*%
%ADD29C,5.103260*%
%ADD30C,1.300880*%
%ADD31RoundRect,0.151000X-0.100000X0.637500X-0.100000X-0.637500X0.100000X-0.637500X0.100000X0.637500X0*%
G04 APERTURE END LIST*
D10*
%TO.C,J1*%
X118839000Y-68759200D03*
D11*
X121379000Y-68759200D03*
X118839000Y-71299200D03*
X121379000Y-71299200D03*
X118839000Y-73839200D03*
X121379000Y-73839200D03*
X118839000Y-76379200D03*
X121379000Y-76379200D03*
X118839000Y-78919200D03*
X121379000Y-78919200D03*
X118839000Y-81459200D03*
X121379000Y-81459200D03*
X118839000Y-83999200D03*
X121379000Y-83999200D03*
X118839000Y-86539200D03*
X121379000Y-86539200D03*
X118839000Y-89079200D03*
X121379000Y-89079200D03*
X118839000Y-91619200D03*
X121379000Y-91619200D03*
X118839000Y-94159200D03*
X121379000Y-94159200D03*
X118839000Y-96699200D03*
X121379000Y-96699200D03*
X118839000Y-99239200D03*
X121379000Y-99239200D03*
X118839000Y-101779200D03*
X121379000Y-101779200D03*
X118839000Y-104319200D03*
X121379000Y-104319200D03*
X118839000Y-106859200D03*
X121379000Y-106859200D03*
X118839000Y-109399200D03*
X121379000Y-109399200D03*
X118839000Y-111939200D03*
X121379000Y-111939200D03*
X118839000Y-114479200D03*
X121379000Y-114479200D03*
X118839000Y-117019200D03*
X121379000Y-117019200D03*
%TD*%
D12*
%TO.C,J2*%
X107061000Y-68783200D03*
X107061000Y-71323200D03*
X107061000Y-73863200D03*
X107061000Y-76403200D03*
X107061000Y-78943200D03*
X107061000Y-81483200D03*
X107061000Y-84023200D03*
X107061000Y-86563200D03*
X107061000Y-89103200D03*
X107061000Y-91643200D03*
X107061000Y-94183200D03*
X107061000Y-96723200D03*
X107061000Y-99263200D03*
X107061000Y-101803200D03*
X107061000Y-104343200D03*
X107061000Y-106883200D03*
X107061000Y-109423200D03*
X107061000Y-111963200D03*
X107061000Y-114503200D03*
X107061000Y-117043200D03*
%TD*%
D13*
%TO.C,U3*%
X138684000Y-54432200D03*
D14*
X138684000Y-56972200D03*
X138684000Y-59512200D03*
X138684000Y-62052200D03*
X138684000Y-64592200D03*
X138684000Y-67132200D03*
X138684000Y-69672200D03*
X138684000Y-72212200D03*
X138684000Y-74752200D03*
X138684000Y-77292200D03*
X146304000Y-77292200D03*
X146304000Y-74752200D03*
X146304000Y-72212200D03*
X146304000Y-69672200D03*
X146304000Y-67132200D03*
X146304000Y-64592200D03*
X146304000Y-62052200D03*
X146304000Y-59512200D03*
X146304000Y-56972200D03*
X146304000Y-54432200D03*
%TD*%
D13*
%TO.C,U6*%
X163220400Y-114376200D03*
D14*
X163220400Y-116916200D03*
X163220400Y-119456200D03*
X163220400Y-121996200D03*
X163220400Y-124536200D03*
X163220400Y-127076200D03*
X163220400Y-129616200D03*
X163220400Y-132156200D03*
X163220400Y-134696200D03*
X163220400Y-137236200D03*
X170840400Y-137236200D03*
X170840400Y-134696200D03*
X170840400Y-132156200D03*
X170840400Y-129616200D03*
X170840400Y-127076200D03*
X170840400Y-124536200D03*
X170840400Y-121996200D03*
X170840400Y-119456200D03*
X170840400Y-116916200D03*
X170840400Y-114376200D03*
%TD*%
D13*
%TO.C,U5*%
X138684000Y-112801400D03*
D14*
X138684000Y-115341400D03*
X138684000Y-117881400D03*
X138684000Y-120421400D03*
X138684000Y-122961400D03*
X138684000Y-125501400D03*
X138684000Y-128041400D03*
X138684000Y-130581400D03*
X138684000Y-133121400D03*
X138684000Y-135661400D03*
X146304000Y-135661400D03*
X146304000Y-133121400D03*
X146304000Y-130581400D03*
X146304000Y-128041400D03*
X146304000Y-125501400D03*
X146304000Y-122961400D03*
X146304000Y-120421400D03*
X146304000Y-117881400D03*
X146304000Y-115341400D03*
X146304000Y-112801400D03*
%TD*%
D15*
%TO.C,R8*%
X187900000Y-80613000D03*
D14*
X195520000Y-80613000D03*
%TD*%
D15*
%TO.C,R7*%
X187900000Y-84042000D03*
D14*
X195520000Y-84042000D03*
%TD*%
D15*
%TO.C,R6*%
X187900000Y-87471000D03*
D14*
X195520000Y-87471000D03*
%TD*%
D16*
%TO.C,U2*%
X174371000Y-109550200D03*
X174371000Y-107010200D03*
X174371000Y-104470200D03*
X174371000Y-101930200D03*
X174371000Y-99390200D03*
X174371000Y-96850200D03*
X174371000Y-94310200D03*
X174371000Y-91770200D03*
X174371000Y-89230200D03*
X174371000Y-86690200D03*
X174371000Y-84150200D03*
X174371000Y-81610200D03*
X174371000Y-79070200D03*
X174371000Y-76530200D03*
X174371000Y-73990200D03*
X174371000Y-71450200D03*
X174371000Y-68910200D03*
X174371000Y-66370200D03*
X174371000Y-63830200D03*
X174371000Y-61290200D03*
X174371000Y-58750200D03*
X174371000Y-56210200D03*
X174371000Y-53670200D03*
X174371000Y-51130200D03*
X159131000Y-51130200D03*
X159131000Y-53670200D03*
X159131000Y-56210200D03*
X159131000Y-58750200D03*
X159131000Y-61290200D03*
X159131000Y-63830200D03*
X159131000Y-66370200D03*
X159131000Y-68910200D03*
X159131000Y-71450200D03*
X159131000Y-73990200D03*
X159131000Y-76530200D03*
X159131000Y-79070200D03*
X159131000Y-81610200D03*
X159131000Y-84150200D03*
X159131000Y-86690200D03*
X159131000Y-89230200D03*
X159131000Y-91770200D03*
X159131000Y-94310200D03*
X159131000Y-96850200D03*
X159131000Y-99390200D03*
X159131000Y-101930200D03*
X159131000Y-104470200D03*
X159131000Y-107010200D03*
X159131000Y-109550200D03*
%TD*%
D17*
%TO.C,Q2*%
X183286400Y-111429800D03*
D18*
X184556400Y-111429800D03*
X185826400Y-111429800D03*
%TD*%
D17*
%TO.C,Q1*%
X183286400Y-104927400D03*
D18*
X184556400Y-104927400D03*
X185826400Y-104927400D03*
%TD*%
D15*
%TO.C,C2*%
X148615400Y-83312000D03*
X151115400Y-83312000D03*
%TD*%
%TO.C,C1*%
X148666200Y-54127400D03*
X151166200Y-54127400D03*
%TD*%
D19*
%TO.C,J5*%
X211500000Y-66750000D03*
D11*
X211500000Y-64210000D03*
%TD*%
D19*
%TO.C,J4*%
X207206400Y-66750000D03*
D11*
X207206400Y-64210000D03*
%TD*%
D15*
%TO.C,C5*%
X187200000Y-65550000D03*
X184700000Y-65550000D03*
%TD*%
%TO.C,C4*%
X173126400Y-114071400D03*
X175626400Y-114071400D03*
%TD*%
%TO.C,C3*%
X148615400Y-112522000D03*
X151115400Y-112522000D03*
%TD*%
%TO.C,R5*%
X187900000Y-90900000D03*
D14*
X195520000Y-90900000D03*
%TD*%
D20*
%TO.C,J3*%
X189595400Y-62874800D03*
X190695400Y-62874800D03*
X191795400Y-62874800D03*
X192895400Y-62874800D03*
X193995400Y-62874800D03*
X195095400Y-62874800D03*
X196195400Y-62874800D03*
X197295400Y-62874800D03*
X198395400Y-62874800D03*
D21*
X184945400Y-62374800D03*
D22*
X184045400Y-52774800D03*
X199545400Y-52774800D03*
D23*
X199545400Y-62374800D03*
%TD*%
D24*
%TO.C,D1*%
X193065400Y-134543800D03*
D25*
X194335400Y-134543800D03*
X195605400Y-134543800D03*
X196875400Y-134543800D03*
%TD*%
D13*
%TO.C,U4*%
X138684000Y-83616800D03*
D14*
X138684000Y-86156800D03*
X138684000Y-88696800D03*
X138684000Y-91236800D03*
X138684000Y-93776800D03*
X138684000Y-96316800D03*
X138684000Y-98856800D03*
X138684000Y-101396800D03*
X138684000Y-103936800D03*
X138684000Y-106476800D03*
X146304000Y-106476800D03*
X146304000Y-103936800D03*
X146304000Y-101396800D03*
X146304000Y-98856800D03*
X146304000Y-96316800D03*
X146304000Y-93776800D03*
X146304000Y-91236800D03*
X146304000Y-88696800D03*
X146304000Y-86156800D03*
X146304000Y-83616800D03*
%TD*%
D15*
%TO.C,R3*%
X195605400Y-120827800D03*
D14*
X195605400Y-128447800D03*
%TD*%
D15*
%TO.C,R2*%
X199161400Y-120827800D03*
D14*
X199161400Y-128447800D03*
%TD*%
D13*
%TO.C,U1*%
X180416200Y-51689000D03*
D14*
X180416200Y-54229000D03*
X180416200Y-56769000D03*
X180416200Y-59309000D03*
X180416200Y-61849000D03*
X180416200Y-64389000D03*
X180416200Y-66929000D03*
X180416200Y-69469000D03*
X180416200Y-72009000D03*
X180416200Y-74549000D03*
X180416200Y-77089000D03*
X180416200Y-79629000D03*
X180416200Y-82169000D03*
X180416200Y-84709000D03*
X180416200Y-87249000D03*
X180416200Y-89789000D03*
X180416200Y-92329000D03*
X180416200Y-94869000D03*
X180416200Y-97409000D03*
X203276200Y-97409000D03*
X203276200Y-94869000D03*
X203276200Y-92329000D03*
X203276200Y-89789000D03*
X203276200Y-87249000D03*
X203276200Y-84709000D03*
X203276200Y-82169000D03*
X203276200Y-79629000D03*
X203276200Y-77089000D03*
X203276200Y-74549000D03*
X203276200Y-72009000D03*
X203276200Y-69469000D03*
X203276200Y-66929000D03*
X203276200Y-64389000D03*
X203276200Y-61849000D03*
X203276200Y-59309000D03*
X203276200Y-56769000D03*
X203276200Y-54229000D03*
X203276200Y-51752500D03*
%TD*%
D15*
%TO.C,R4*%
X192874900Y-103809800D03*
D14*
X200494900Y-103809800D03*
%TD*%
D26*
%TO.C,SW1*%
X177950000Y-136550000D03*
X184450000Y-136550000D03*
X184450000Y-132050000D03*
X177950000Y-132050000D03*
%TD*%
D15*
%TO.C,R1*%
X192049400Y-120827800D03*
D14*
X192049400Y-128447800D03*
%TD*%
D27*
%TO.C,H1*%
X118400000Y-51575000D03*
X117074175Y-52124175D03*
D28*
X118400000Y-53450000D03*
D27*
X118400000Y-55325000D03*
X119725825Y-52124175D03*
X117074175Y-54775825D03*
X116525000Y-53450000D03*
X119725825Y-54775825D03*
X120275000Y-53450000D03*
%TD*%
%TO.C,H2*%
X207975000Y-53000000D03*
X209850000Y-54875000D03*
X209850000Y-51125000D03*
X211725000Y-53000000D03*
X208524175Y-54325825D03*
X211175825Y-51674175D03*
X208524175Y-51674175D03*
X211175825Y-54325825D03*
D28*
X209850000Y-53000000D03*
%TD*%
%TO.C,H3*%
X118900000Y-136800000D03*
D27*
X117574175Y-138125825D03*
X118900000Y-138675000D03*
X120775000Y-136800000D03*
X117025000Y-136800000D03*
X120225825Y-138125825D03*
X117574175Y-135474175D03*
X118900000Y-134925000D03*
X120225825Y-135474175D03*
%TD*%
%TO.C,H4*%
X211275825Y-138025825D03*
D28*
X209950000Y-136700000D03*
D27*
X211825000Y-136700000D03*
X208624175Y-135374175D03*
X208624175Y-138025825D03*
X208075000Y-136700000D03*
X211275825Y-135374175D03*
X209950000Y-138575000D03*
X209950000Y-134825000D03*
%TD*%
D29*
%TO.C,J6*%
X210928580Y-102655740D03*
X210928580Y-127644260D03*
D30*
X209209600Y-110839620D03*
X209209600Y-113130700D03*
X209209600Y-115416700D03*
X209209600Y-117710320D03*
X209209600Y-119998860D03*
X210974300Y-109694080D03*
X210974300Y-111987700D03*
X210974300Y-114286400D03*
X210974300Y-116585100D03*
X210974300Y-118858400D03*
X212765600Y-110839620D03*
X212765600Y-113130700D03*
X212765600Y-115419240D03*
X212765600Y-117710320D03*
X212765600Y-120001400D03*
%TD*%
D31*
%TO.C,U7*%
X194825000Y-69237500D03*
X194175000Y-69237500D03*
X193525000Y-69237500D03*
X192875000Y-69237500D03*
X192225000Y-69237500D03*
X191575000Y-69237500D03*
X190925000Y-69237500D03*
X190275000Y-69237500D03*
X189625000Y-69237500D03*
X188975000Y-69237500D03*
X188975000Y-74962500D03*
X189625000Y-74962500D03*
X190275000Y-74962500D03*
X190925000Y-74962500D03*
X191575000Y-74962500D03*
X192225000Y-74962500D03*
X192875000Y-74962500D03*
X193525000Y-74962500D03*
X194175000Y-74962500D03*
X194825000Y-74962500D03*
%TD*%
G36*
X193653319Y-133746067D02*
G01*
X193672995Y-133813079D01*
X193725338Y-133858434D01*
X193793891Y-133868291D01*
X193857047Y-133839448D01*
X193877102Y-133817250D01*
X193898959Y-133786150D01*
X193899280Y-133785793D01*
X193908037Y-133778154D01*
X193910000Y-133777769D01*
X193911315Y-133779276D01*
X193910939Y-133780879D01*
X193829655Y-133886810D01*
X193771316Y-134027654D01*
X193751400Y-134178932D01*
X193751400Y-134908668D01*
X193771316Y-135059946D01*
X193829655Y-135200790D01*
X193909046Y-135304255D01*
X193909307Y-135306238D01*
X193907720Y-135307456D01*
X193906128Y-135306966D01*
X193895190Y-135297220D01*
X193894873Y-135296860D01*
X193877928Y-135272206D01*
X193823978Y-135228306D01*
X193755150Y-135220575D01*
X193693071Y-135251281D01*
X193657362Y-135310818D01*
X193653384Y-135341892D01*
X193652172Y-135343483D01*
X193650188Y-135343229D01*
X193649400Y-135341638D01*
X193649400Y-133746630D01*
X193650400Y-133744898D01*
X193652400Y-133744898D01*
X193653319Y-133746067D01*
G37*
G36*
X196364759Y-133896941D02*
G01*
X196364793Y-133898548D01*
X196311316Y-134027654D01*
X196291400Y-134178932D01*
X196291400Y-134908668D01*
X196311316Y-135059946D01*
X196363604Y-135186180D01*
X196363343Y-135188163D01*
X196361495Y-135188928D01*
X196360108Y-135188078D01*
X196347393Y-135169578D01*
X196346866Y-135169620D01*
X196346130Y-135169020D01*
X196313264Y-135125504D01*
X196248269Y-135101578D01*
X196180659Y-135116589D01*
X196131729Y-135165937D01*
X196125403Y-135179600D01*
X196122904Y-135186009D01*
X196122677Y-135186433D01*
X196119491Y-135190967D01*
X196117677Y-135191809D01*
X196116041Y-135190659D01*
X196116007Y-135189052D01*
X196169484Y-135059946D01*
X196189400Y-134908668D01*
X196189400Y-134178932D01*
X196169484Y-134027654D01*
X196117196Y-133901420D01*
X196117457Y-133899437D01*
X196119305Y-133898672D01*
X196120692Y-133899522D01*
X196133407Y-133918022D01*
X196133934Y-133917980D01*
X196134670Y-133918580D01*
X196167536Y-133962096D01*
X196232531Y-133986022D01*
X196300141Y-133971011D01*
X196349071Y-133921663D01*
X196355397Y-133908000D01*
X196357896Y-133901591D01*
X196358123Y-133901167D01*
X196361309Y-133896633D01*
X196363123Y-133895791D01*
X196364759Y-133896941D01*
G37*
G36*
X195094759Y-133896941D02*
G01*
X195094793Y-133898548D01*
X195041316Y-134027654D01*
X195021400Y-134178932D01*
X195021400Y-134908668D01*
X195041316Y-135059946D01*
X195093604Y-135186180D01*
X195093343Y-135188163D01*
X195091495Y-135188928D01*
X195090108Y-135188078D01*
X195077393Y-135169578D01*
X195076866Y-135169620D01*
X195076130Y-135169020D01*
X195043264Y-135125504D01*
X194978269Y-135101578D01*
X194910659Y-135116589D01*
X194861729Y-135165937D01*
X194855403Y-135179600D01*
X194852904Y-135186009D01*
X194852677Y-135186433D01*
X194849491Y-135190967D01*
X194847677Y-135191809D01*
X194846041Y-135190659D01*
X194846007Y-135189052D01*
X194899484Y-135059946D01*
X194919400Y-134908668D01*
X194919400Y-134178932D01*
X194899484Y-134027654D01*
X194847196Y-133901420D01*
X194847457Y-133899437D01*
X194849305Y-133898672D01*
X194850692Y-133899522D01*
X194863407Y-133918022D01*
X194863934Y-133917980D01*
X194864670Y-133918580D01*
X194897536Y-133962096D01*
X194962531Y-133986022D01*
X195030141Y-133971011D01*
X195079071Y-133921663D01*
X195085397Y-133908000D01*
X195087896Y-133901591D01*
X195088123Y-133901167D01*
X195091309Y-133896633D01*
X195093123Y-133895791D01*
X195094759Y-133896941D01*
G37*
G36*
X183864319Y-110803559D02*
G01*
X183883995Y-110870571D01*
X183936338Y-110915926D01*
X184004891Y-110925783D01*
X184068048Y-110896940D01*
X184082963Y-110880430D01*
X184084866Y-110879815D01*
X184086350Y-110881156D01*
X184086034Y-110882989D01*
X184059315Y-110917810D01*
X184001976Y-111056242D01*
X183982400Y-111204932D01*
X183982400Y-111654668D01*
X184001976Y-111803358D01*
X184059315Y-111941790D01*
X184090275Y-111982138D01*
X184090536Y-111984121D01*
X184088949Y-111985339D01*
X184087426Y-111984907D01*
X184034979Y-111942228D01*
X183966151Y-111934497D01*
X183904072Y-111965202D01*
X183868362Y-112024739D01*
X183864384Y-112055814D01*
X183863172Y-112057405D01*
X183861188Y-112057151D01*
X183860400Y-112055560D01*
X183860400Y-110804122D01*
X183861400Y-110802390D01*
X183863400Y-110802390D01*
X183864319Y-110803559D01*
G37*
G36*
X185324476Y-110927804D02*
G01*
X185324510Y-110929411D01*
X185271976Y-111056242D01*
X185252400Y-111204932D01*
X185252400Y-111654668D01*
X185271976Y-111803358D01*
X185323341Y-111927365D01*
X185323080Y-111929348D01*
X185321232Y-111930113D01*
X185319845Y-111929263D01*
X185315107Y-111922370D01*
X185314884Y-111921944D01*
X185306330Y-111899306D01*
X185264408Y-111843802D01*
X185199413Y-111819875D01*
X185131803Y-111834887D01*
X185082874Y-111884236D01*
X185076549Y-111897894D01*
X185065089Y-111927287D01*
X185064862Y-111927710D01*
X185061774Y-111932104D01*
X185059960Y-111932946D01*
X185058324Y-111931796D01*
X185058290Y-111930189D01*
X185110824Y-111803358D01*
X185130400Y-111654668D01*
X185130400Y-111204932D01*
X185110824Y-111056242D01*
X185059459Y-110932235D01*
X185059720Y-110930252D01*
X185061568Y-110929487D01*
X185062955Y-110930337D01*
X185067693Y-110937230D01*
X185067916Y-110937656D01*
X185076470Y-110960294D01*
X185118392Y-111015798D01*
X185183387Y-111039725D01*
X185250997Y-111024713D01*
X185299926Y-110975364D01*
X185306251Y-110961706D01*
X185317711Y-110932313D01*
X185317938Y-110931890D01*
X185321026Y-110927496D01*
X185322840Y-110926654D01*
X185324476Y-110927804D01*
G37*
G36*
X183864319Y-104301159D02*
G01*
X183883995Y-104368171D01*
X183936338Y-104413526D01*
X184004891Y-104423383D01*
X184068048Y-104394540D01*
X184082963Y-104378030D01*
X184084866Y-104377415D01*
X184086350Y-104378756D01*
X184086034Y-104380589D01*
X184059315Y-104415410D01*
X184001976Y-104553842D01*
X183982400Y-104702532D01*
X183982400Y-105152268D01*
X184001976Y-105300958D01*
X184059315Y-105439390D01*
X184090275Y-105479738D01*
X184090536Y-105481721D01*
X184088949Y-105482939D01*
X184087426Y-105482507D01*
X184034979Y-105439828D01*
X183966151Y-105432097D01*
X183904072Y-105462802D01*
X183868362Y-105522339D01*
X183864384Y-105553414D01*
X183863172Y-105555005D01*
X183861188Y-105554751D01*
X183860400Y-105553160D01*
X183860400Y-104301722D01*
X183861400Y-104299990D01*
X183863400Y-104299990D01*
X183864319Y-104301159D01*
G37*
G36*
X185324476Y-104425404D02*
G01*
X185324510Y-104427011D01*
X185271976Y-104553842D01*
X185252400Y-104702532D01*
X185252400Y-105152268D01*
X185271976Y-105300958D01*
X185323341Y-105424965D01*
X185323080Y-105426948D01*
X185321232Y-105427713D01*
X185319845Y-105426863D01*
X185315107Y-105419970D01*
X185314884Y-105419544D01*
X185306330Y-105396906D01*
X185264408Y-105341402D01*
X185199413Y-105317475D01*
X185131803Y-105332487D01*
X185082874Y-105381836D01*
X185076549Y-105395494D01*
X185065089Y-105424887D01*
X185064862Y-105425310D01*
X185061774Y-105429704D01*
X185059960Y-105430546D01*
X185058324Y-105429396D01*
X185058290Y-105427789D01*
X185110824Y-105300958D01*
X185130400Y-105152268D01*
X185130400Y-104702532D01*
X185110824Y-104553842D01*
X185059459Y-104429835D01*
X185059720Y-104427852D01*
X185061568Y-104427087D01*
X185062955Y-104427937D01*
X185067693Y-104434830D01*
X185067916Y-104435256D01*
X185076470Y-104457894D01*
X185118392Y-104513398D01*
X185183387Y-104537325D01*
X185250997Y-104522313D01*
X185299926Y-104472964D01*
X185306251Y-104459306D01*
X185317711Y-104429913D01*
X185317938Y-104429490D01*
X185321026Y-104425096D01*
X185322840Y-104424254D01*
X185324476Y-104425404D01*
G37*
G36*
X189203891Y-74247874D02*
G01*
X189250944Y-74287197D01*
X189319660Y-74295830D01*
X189382289Y-74265867D01*
X189389800Y-74257197D01*
X189391690Y-74256543D01*
X189393202Y-74257853D01*
X189392975Y-74259618D01*
X189387379Y-74267994D01*
X189376000Y-74325199D01*
X189376000Y-75599801D01*
X189387379Y-75657006D01*
X189399055Y-75674480D01*
X189399186Y-75676476D01*
X189397523Y-75677587D01*
X189396109Y-75677126D01*
X189349056Y-75637803D01*
X189280340Y-75629170D01*
X189217711Y-75659133D01*
X189210200Y-75667803D01*
X189208310Y-75668457D01*
X189206798Y-75667147D01*
X189207025Y-75665382D01*
X189212621Y-75657006D01*
X189224000Y-75599801D01*
X189224000Y-74325199D01*
X189212621Y-74267994D01*
X189200945Y-74250520D01*
X189200814Y-74248524D01*
X189202477Y-74247413D01*
X189203891Y-74247874D01*
G37*
G36*
X189853891Y-74247874D02*
G01*
X189900944Y-74287197D01*
X189969660Y-74295830D01*
X190032289Y-74265867D01*
X190039800Y-74257197D01*
X190041690Y-74256543D01*
X190043202Y-74257853D01*
X190042975Y-74259618D01*
X190037379Y-74267994D01*
X190026000Y-74325199D01*
X190026000Y-75599801D01*
X190037379Y-75657006D01*
X190049055Y-75674480D01*
X190049186Y-75676476D01*
X190047523Y-75677587D01*
X190046109Y-75677126D01*
X189999056Y-75637803D01*
X189930340Y-75629170D01*
X189867711Y-75659133D01*
X189860200Y-75667803D01*
X189858310Y-75668457D01*
X189856798Y-75667147D01*
X189857025Y-75665382D01*
X189862621Y-75657006D01*
X189874000Y-75599801D01*
X189874000Y-74325199D01*
X189862621Y-74267994D01*
X189850945Y-74250520D01*
X189850814Y-74248524D01*
X189852477Y-74247413D01*
X189853891Y-74247874D01*
G37*
G36*
X194403891Y-74247874D02*
G01*
X194450944Y-74287197D01*
X194519660Y-74295830D01*
X194582289Y-74265867D01*
X194589800Y-74257197D01*
X194591690Y-74256543D01*
X194593202Y-74257853D01*
X194592975Y-74259618D01*
X194587379Y-74267994D01*
X194576000Y-74325199D01*
X194576000Y-75599801D01*
X194587379Y-75657006D01*
X194599055Y-75674480D01*
X194599186Y-75676476D01*
X194597523Y-75677587D01*
X194596109Y-75677126D01*
X194549056Y-75637803D01*
X194480340Y-75629170D01*
X194417711Y-75659133D01*
X194410200Y-75667803D01*
X194408310Y-75668457D01*
X194406798Y-75667147D01*
X194407025Y-75665382D01*
X194412621Y-75657006D01*
X194424000Y-75599801D01*
X194424000Y-74325199D01*
X194412621Y-74267994D01*
X194400945Y-74250520D01*
X194400814Y-74248524D01*
X194402477Y-74247413D01*
X194403891Y-74247874D01*
G37*
G36*
X193753891Y-74247874D02*
G01*
X193800944Y-74287197D01*
X193869660Y-74295830D01*
X193932289Y-74265867D01*
X193939800Y-74257197D01*
X193941690Y-74256543D01*
X193943202Y-74257853D01*
X193942975Y-74259618D01*
X193937379Y-74267994D01*
X193926000Y-74325199D01*
X193926000Y-75599801D01*
X193937379Y-75657006D01*
X193949055Y-75674480D01*
X193949186Y-75676476D01*
X193947523Y-75677587D01*
X193946109Y-75677126D01*
X193899056Y-75637803D01*
X193830340Y-75629170D01*
X193767711Y-75659133D01*
X193760200Y-75667803D01*
X193758310Y-75668457D01*
X193756798Y-75667147D01*
X193757025Y-75665382D01*
X193762621Y-75657006D01*
X193774000Y-75599801D01*
X193774000Y-74325199D01*
X193762621Y-74267994D01*
X193750945Y-74250520D01*
X193750814Y-74248524D01*
X193752477Y-74247413D01*
X193753891Y-74247874D01*
G37*
G36*
X191803891Y-74247874D02*
G01*
X191850944Y-74287197D01*
X191919660Y-74295830D01*
X191982289Y-74265867D01*
X191989800Y-74257197D01*
X191991690Y-74256543D01*
X191993202Y-74257853D01*
X191992975Y-74259618D01*
X191987379Y-74267994D01*
X191976000Y-74325199D01*
X191976000Y-75599801D01*
X191987379Y-75657006D01*
X191999055Y-75674480D01*
X191999186Y-75676476D01*
X191997523Y-75677587D01*
X191996109Y-75677126D01*
X191949056Y-75637803D01*
X191880340Y-75629170D01*
X191817711Y-75659133D01*
X191810200Y-75667803D01*
X191808310Y-75668457D01*
X191806798Y-75667147D01*
X191807025Y-75665382D01*
X191812621Y-75657006D01*
X191824000Y-75599801D01*
X191824000Y-74325199D01*
X191812621Y-74267994D01*
X191800945Y-74250520D01*
X191800814Y-74248524D01*
X191802477Y-74247413D01*
X191803891Y-74247874D01*
G37*
G36*
X191153891Y-74247874D02*
G01*
X191200944Y-74287197D01*
X191269660Y-74295830D01*
X191332289Y-74265867D01*
X191339800Y-74257197D01*
X191341690Y-74256543D01*
X191343202Y-74257853D01*
X191342975Y-74259618D01*
X191337379Y-74267994D01*
X191326000Y-74325199D01*
X191326000Y-75599801D01*
X191337379Y-75657006D01*
X191349055Y-75674480D01*
X191349186Y-75676476D01*
X191347523Y-75677587D01*
X191346109Y-75677126D01*
X191299056Y-75637803D01*
X191230340Y-75629170D01*
X191167711Y-75659133D01*
X191160200Y-75667803D01*
X191158310Y-75668457D01*
X191156798Y-75667147D01*
X191157025Y-75665382D01*
X191162621Y-75657006D01*
X191174000Y-75599801D01*
X191174000Y-74325199D01*
X191162621Y-74267994D01*
X191150945Y-74250520D01*
X191150814Y-74248524D01*
X191152477Y-74247413D01*
X191153891Y-74247874D01*
G37*
G36*
X192453891Y-74247874D02*
G01*
X192500944Y-74287197D01*
X192569660Y-74295830D01*
X192632289Y-74265867D01*
X192639800Y-74257197D01*
X192641690Y-74256543D01*
X192643202Y-74257853D01*
X192642975Y-74259618D01*
X192637379Y-74267994D01*
X192626000Y-74325199D01*
X192626000Y-75599801D01*
X192637379Y-75657006D01*
X192649055Y-75674480D01*
X192649186Y-75676476D01*
X192647523Y-75677587D01*
X192646109Y-75677126D01*
X192599056Y-75637803D01*
X192530340Y-75629170D01*
X192467711Y-75659133D01*
X192460200Y-75667803D01*
X192458310Y-75668457D01*
X192456798Y-75667147D01*
X192457025Y-75665382D01*
X192462621Y-75657006D01*
X192474000Y-75599801D01*
X192474000Y-74325199D01*
X192462621Y-74267994D01*
X192450945Y-74250520D01*
X192450814Y-74248524D01*
X192452477Y-74247413D01*
X192453891Y-74247874D01*
G37*
G36*
X190503891Y-74247874D02*
G01*
X190550944Y-74287197D01*
X190619660Y-74295830D01*
X190682289Y-74265867D01*
X190689800Y-74257197D01*
X190691690Y-74256543D01*
X190693202Y-74257853D01*
X190692975Y-74259618D01*
X190687379Y-74267994D01*
X190676000Y-74325199D01*
X190676000Y-75599801D01*
X190687379Y-75657006D01*
X190699055Y-75674480D01*
X190699186Y-75676476D01*
X190697523Y-75677587D01*
X190696109Y-75677126D01*
X190649056Y-75637803D01*
X190580340Y-75629170D01*
X190517711Y-75659133D01*
X190510200Y-75667803D01*
X190508310Y-75668457D01*
X190506798Y-75667147D01*
X190507025Y-75665382D01*
X190512621Y-75657006D01*
X190524000Y-75599801D01*
X190524000Y-74325199D01*
X190512621Y-74267994D01*
X190500945Y-74250520D01*
X190500814Y-74248524D01*
X190502477Y-74247413D01*
X190503891Y-74247874D01*
G37*
G36*
X193103891Y-74247874D02*
G01*
X193150944Y-74287197D01*
X193219660Y-74295830D01*
X193282289Y-74265867D01*
X193289800Y-74257197D01*
X193291690Y-74256543D01*
X193293202Y-74257853D01*
X193292975Y-74259618D01*
X193287379Y-74267994D01*
X193276000Y-74325199D01*
X193276000Y-75599801D01*
X193287379Y-75657006D01*
X193299055Y-75674480D01*
X193299186Y-75676476D01*
X193297523Y-75677587D01*
X193296109Y-75677126D01*
X193249056Y-75637803D01*
X193180340Y-75629170D01*
X193117711Y-75659133D01*
X193110200Y-75667803D01*
X193108310Y-75668457D01*
X193106798Y-75667147D01*
X193107025Y-75665382D01*
X193112621Y-75657006D01*
X193124000Y-75599801D01*
X193124000Y-74325199D01*
X193112621Y-74267994D01*
X193100945Y-74250520D01*
X193100814Y-74248524D01*
X193102477Y-74247413D01*
X193103891Y-74247874D01*
G37*
G36*
X189203891Y-68522874D02*
G01*
X189250944Y-68562197D01*
X189319660Y-68570830D01*
X189382289Y-68540867D01*
X189389800Y-68532197D01*
X189391690Y-68531543D01*
X189393202Y-68532853D01*
X189392975Y-68534618D01*
X189387379Y-68542994D01*
X189376000Y-68600199D01*
X189376000Y-69874801D01*
X189387379Y-69932006D01*
X189399055Y-69949480D01*
X189399186Y-69951476D01*
X189397523Y-69952587D01*
X189396109Y-69952126D01*
X189349056Y-69912803D01*
X189280340Y-69904170D01*
X189217711Y-69934133D01*
X189210200Y-69942803D01*
X189208310Y-69943457D01*
X189206798Y-69942147D01*
X189207025Y-69940382D01*
X189212621Y-69932006D01*
X189224000Y-69874801D01*
X189224000Y-68600199D01*
X189212621Y-68542994D01*
X189200945Y-68525520D01*
X189200814Y-68523524D01*
X189202477Y-68522413D01*
X189203891Y-68522874D01*
G37*
G36*
X189853891Y-68522874D02*
G01*
X189900944Y-68562197D01*
X189969660Y-68570830D01*
X190032289Y-68540867D01*
X190039800Y-68532197D01*
X190041690Y-68531543D01*
X190043202Y-68532853D01*
X190042975Y-68534618D01*
X190037379Y-68542994D01*
X190026000Y-68600199D01*
X190026000Y-69874801D01*
X190037379Y-69932006D01*
X190049055Y-69949480D01*
X190049186Y-69951476D01*
X190047523Y-69952587D01*
X190046109Y-69952126D01*
X189999056Y-69912803D01*
X189930340Y-69904170D01*
X189867711Y-69934133D01*
X189860200Y-69942803D01*
X189858310Y-69943457D01*
X189856798Y-69942147D01*
X189857025Y-69940382D01*
X189862621Y-69932006D01*
X189874000Y-69874801D01*
X189874000Y-68600199D01*
X189862621Y-68542994D01*
X189850945Y-68525520D01*
X189850814Y-68523524D01*
X189852477Y-68522413D01*
X189853891Y-68522874D01*
G37*
G36*
X192453891Y-68522874D02*
G01*
X192500944Y-68562197D01*
X192569660Y-68570830D01*
X192632289Y-68540867D01*
X192639800Y-68532197D01*
X192641690Y-68531543D01*
X192643202Y-68532853D01*
X192642975Y-68534618D01*
X192637379Y-68542994D01*
X192626000Y-68600199D01*
X192626000Y-69874801D01*
X192637379Y-69932006D01*
X192649055Y-69949480D01*
X192649186Y-69951476D01*
X192647523Y-69952587D01*
X192646109Y-69952126D01*
X192599056Y-69912803D01*
X192530340Y-69904170D01*
X192467711Y-69934133D01*
X192460200Y-69942803D01*
X192458310Y-69943457D01*
X192456798Y-69942147D01*
X192457025Y-69940382D01*
X192462621Y-69932006D01*
X192474000Y-69874801D01*
X192474000Y-68600199D01*
X192462621Y-68542994D01*
X192450945Y-68525520D01*
X192450814Y-68523524D01*
X192452477Y-68522413D01*
X192453891Y-68522874D01*
G37*
G36*
X191803891Y-68522874D02*
G01*
X191850944Y-68562197D01*
X191919660Y-68570830D01*
X191982289Y-68540867D01*
X191989800Y-68532197D01*
X191991690Y-68531543D01*
X191993202Y-68532853D01*
X191992975Y-68534618D01*
X191987379Y-68542994D01*
X191976000Y-68600199D01*
X191976000Y-69874801D01*
X191987379Y-69932006D01*
X191999055Y-69949480D01*
X191999186Y-69951476D01*
X191997523Y-69952587D01*
X191996109Y-69952126D01*
X191949056Y-69912803D01*
X191880340Y-69904170D01*
X191817711Y-69934133D01*
X191810200Y-69942803D01*
X191808310Y-69943457D01*
X191806798Y-69942147D01*
X191807025Y-69940382D01*
X191812621Y-69932006D01*
X191824000Y-69874801D01*
X191824000Y-68600199D01*
X191812621Y-68542994D01*
X191800945Y-68525520D01*
X191800814Y-68523524D01*
X191802477Y-68522413D01*
X191803891Y-68522874D01*
G37*
G36*
X194403891Y-68522874D02*
G01*
X194450944Y-68562197D01*
X194519660Y-68570830D01*
X194582289Y-68540867D01*
X194589800Y-68532197D01*
X194591690Y-68531543D01*
X194593202Y-68532853D01*
X194592975Y-68534618D01*
X194587379Y-68542994D01*
X194576000Y-68600199D01*
X194576000Y-69874801D01*
X194587379Y-69932006D01*
X194599055Y-69949480D01*
X194599186Y-69951476D01*
X194597523Y-69952587D01*
X194596109Y-69952126D01*
X194549056Y-69912803D01*
X194480340Y-69904170D01*
X194417711Y-69934133D01*
X194410200Y-69942803D01*
X194408310Y-69943457D01*
X194406798Y-69942147D01*
X194407025Y-69940382D01*
X194412621Y-69932006D01*
X194424000Y-69874801D01*
X194424000Y-68600199D01*
X194412621Y-68542994D01*
X194400945Y-68525520D01*
X194400814Y-68523524D01*
X194402477Y-68522413D01*
X194403891Y-68522874D01*
G37*
G36*
X191153891Y-68522874D02*
G01*
X191200944Y-68562197D01*
X191269660Y-68570830D01*
X191332289Y-68540867D01*
X191339800Y-68532197D01*
X191341690Y-68531543D01*
X191343202Y-68532853D01*
X191342975Y-68534618D01*
X191337379Y-68542994D01*
X191326000Y-68600199D01*
X191326000Y-69874801D01*
X191337379Y-69932006D01*
X191349055Y-69949480D01*
X191349186Y-69951476D01*
X191347523Y-69952587D01*
X191346109Y-69952126D01*
X191299056Y-69912803D01*
X191230340Y-69904170D01*
X191167711Y-69934133D01*
X191160200Y-69942803D01*
X191158310Y-69943457D01*
X191156798Y-69942147D01*
X191157025Y-69940382D01*
X191162621Y-69932006D01*
X191174000Y-69874801D01*
X191174000Y-68600199D01*
X191162621Y-68542994D01*
X191150945Y-68525520D01*
X191150814Y-68523524D01*
X191152477Y-68522413D01*
X191153891Y-68522874D01*
G37*
G36*
X190503891Y-68522874D02*
G01*
X190550944Y-68562197D01*
X190619660Y-68570830D01*
X190682289Y-68540867D01*
X190689800Y-68532197D01*
X190691690Y-68531543D01*
X190693202Y-68532853D01*
X190692975Y-68534618D01*
X190687379Y-68542994D01*
X190676000Y-68600199D01*
X190676000Y-69874801D01*
X190687379Y-69932006D01*
X190699055Y-69949480D01*
X190699186Y-69951476D01*
X190697523Y-69952587D01*
X190696109Y-69952126D01*
X190649056Y-69912803D01*
X190580340Y-69904170D01*
X190517711Y-69934133D01*
X190510200Y-69942803D01*
X190508310Y-69943457D01*
X190506798Y-69942147D01*
X190507025Y-69940382D01*
X190512621Y-69932006D01*
X190524000Y-69874801D01*
X190524000Y-68600199D01*
X190512621Y-68542994D01*
X190500945Y-68525520D01*
X190500814Y-68523524D01*
X190502477Y-68522413D01*
X190503891Y-68522874D01*
G37*
G36*
X193103891Y-68522874D02*
G01*
X193150944Y-68562197D01*
X193219660Y-68570830D01*
X193282289Y-68540867D01*
X193289800Y-68532197D01*
X193291690Y-68531543D01*
X193293202Y-68532853D01*
X193292975Y-68534618D01*
X193287379Y-68542994D01*
X193276000Y-68600199D01*
X193276000Y-69874801D01*
X193287379Y-69932006D01*
X193299055Y-69949480D01*
X193299186Y-69951476D01*
X193297523Y-69952587D01*
X193296109Y-69952126D01*
X193249056Y-69912803D01*
X193180340Y-69904170D01*
X193117711Y-69934133D01*
X193110200Y-69942803D01*
X193108310Y-69943457D01*
X193106798Y-69942147D01*
X193107025Y-69940382D01*
X193112621Y-69932006D01*
X193124000Y-69874801D01*
X193124000Y-68600199D01*
X193112621Y-68542994D01*
X193100945Y-68525520D01*
X193100814Y-68523524D01*
X193102477Y-68522413D01*
X193103891Y-68522874D01*
G37*
G36*
X193753891Y-68522874D02*
G01*
X193800944Y-68562197D01*
X193869660Y-68570830D01*
X193932289Y-68540867D01*
X193939800Y-68532197D01*
X193941690Y-68531543D01*
X193943202Y-68532853D01*
X193942975Y-68534618D01*
X193937379Y-68542994D01*
X193926000Y-68600199D01*
X193926000Y-69874801D01*
X193937379Y-69932006D01*
X193949055Y-69949480D01*
X193949186Y-69951476D01*
X193947523Y-69952587D01*
X193946109Y-69952126D01*
X193899056Y-69912803D01*
X193830340Y-69904170D01*
X193767711Y-69934133D01*
X193760200Y-69942803D01*
X193758310Y-69943457D01*
X193756798Y-69942147D01*
X193757025Y-69940382D01*
X193762621Y-69932006D01*
X193774000Y-69874801D01*
X193774000Y-68600199D01*
X193762621Y-68542994D01*
X193750945Y-68525520D01*
X193750814Y-68523524D01*
X193752477Y-68522413D01*
X193753891Y-68522874D01*
G37*
G36*
X198895884Y-61902234D02*
G01*
X198896400Y-61903575D01*
X198896400Y-63074601D01*
X198900167Y-63093538D01*
X198910780Y-63109420D01*
X198926662Y-63120033D01*
X198937685Y-63122226D01*
X198939189Y-63123545D01*
X198938799Y-63125507D01*
X198937473Y-63126180D01*
X198876395Y-63131646D01*
X198821725Y-63174115D01*
X198798303Y-63246640D01*
X198796819Y-63247981D01*
X198794916Y-63247366D01*
X198794400Y-63246025D01*
X198794400Y-62074999D01*
X198790633Y-62056062D01*
X198780020Y-62040180D01*
X198764138Y-62029567D01*
X198753115Y-62027374D01*
X198751611Y-62026055D01*
X198752001Y-62024093D01*
X198753327Y-62023420D01*
X198814405Y-62017954D01*
X198869075Y-61975485D01*
X198892497Y-61902960D01*
X198893981Y-61901619D01*
X198895884Y-61902234D01*
G37*
M02*
