%TF.GenerationSoftware,KiCad,Pcbnew,(6.0.0-0)*%
%TF.CreationDate,2022-01-11T18:58:15-08:00*%
%TF.ProjectId,TRS-IO-M1,5452532d-494f-42d4-9d31-2e6b69636164,rev?*%
%TF.SameCoordinates,Original*%
%TF.FileFunction,Copper,L1,Top*%
%TF.FilePolarity,Positive*%
%FSLAX46Y46*%
G04 Gerber Fmt 4.6, Leading zero omitted, Abs format (unit mm)*
G04 Created by KiCad (PCBNEW (6.0.0-0)) date 2022-01-11 18:58:15*
%MOMM*%
%LPD*%
G01*
G04 APERTURE LIST*
G04 Aperture macros list*
%AMRoundRect*
0 Rectangle with rounded corners*
0 $1 Rounding radius*
0 $2 $3 $4 $5 $6 $7 $8 $9 X,Y pos of 4 corners*
0 Add a 4 corners polygon primitive as box body*
4,1,4,$2,$3,$4,$5,$6,$7,$8,$9,$2,$3,0*
0 Add four circle primitives for the rounded corners*
1,1,$1+$1,$2,$3*
1,1,$1+$1,$4,$5*
1,1,$1+$1,$6,$7*
1,1,$1+$1,$8,$9*
0 Add four rect primitives between the rounded corners*
20,1,$1+$1,$2,$3,$4,$5,0*
20,1,$1+$1,$4,$5,$6,$7,0*
20,1,$1+$1,$6,$7,$8,$9,0*
20,1,$1+$1,$8,$9,$2,$3,0*%
G04 Aperture macros list end*
%TA.AperFunction,ComponentPad*%
%ADD10R,1.700000X1.700000*%
%TD*%
%TA.AperFunction,ComponentPad*%
%ADD11O,1.700000X1.700000*%
%TD*%
%TA.AperFunction,ConnectorPad*%
%ADD12R,7.620000X1.778000*%
%TD*%
%TA.AperFunction,ComponentPad*%
%ADD13R,1.600000X1.600000*%
%TD*%
%TA.AperFunction,ComponentPad*%
%ADD14O,1.600000X1.600000*%
%TD*%
%TA.AperFunction,ComponentPad*%
%ADD15C,1.600000*%
%TD*%
%TA.AperFunction,ComponentPad*%
%ADD16O,2.000000X1.200000*%
%TD*%
%TA.AperFunction,ComponentPad*%
%ADD17R,1.050000X1.500000*%
%TD*%
%TA.AperFunction,ComponentPad*%
%ADD18O,1.050000X1.500000*%
%TD*%
%TA.AperFunction,SMDPad,CuDef*%
%ADD19R,0.700000X1.600000*%
%TD*%
%TA.AperFunction,SMDPad,CuDef*%
%ADD20R,1.600000X1.400000*%
%TD*%
%TA.AperFunction,SMDPad,CuDef*%
%ADD21R,1.200000X2.200000*%
%TD*%
%TA.AperFunction,SMDPad,CuDef*%
%ADD22R,1.200000X1.400000*%
%TD*%
%TA.AperFunction,ComponentPad*%
%ADD23R,1.070000X1.800000*%
%TD*%
%TA.AperFunction,ComponentPad*%
%ADD24O,1.070000X1.800000*%
%TD*%
%TA.AperFunction,ComponentPad*%
%ADD25C,2.000000*%
%TD*%
%TA.AperFunction,ComponentPad*%
%ADD26C,0.800000*%
%TD*%
%TA.AperFunction,ComponentPad*%
%ADD27C,5.000000*%
%TD*%
%TA.AperFunction,ComponentPad*%
%ADD28C,5.001260*%
%TD*%
%TA.AperFunction,ComponentPad*%
%ADD29C,1.198880*%
%TD*%
%TA.AperFunction,SMDPad,CuDef*%
%ADD30RoundRect,0.100000X-0.100000X0.637500X-0.100000X-0.637500X0.100000X-0.637500X0.100000X0.637500X0*%
%TD*%
%TA.AperFunction,ViaPad*%
%ADD31C,0.800000*%
%TD*%
%TA.AperFunction,Conductor*%
%ADD32C,0.250000*%
%TD*%
G04 APERTURE END LIST*
D10*
%TO.P,J1,1,Pin_1*%
%TO.N,SYSRES_N*%
X118839000Y-68759200D03*
D11*
%TO.P,J1,2,Pin_2*%
%TO.N,RAS_N*%
X121379000Y-68759200D03*
%TO.P,J1,3,Pin_3*%
%TO.N,A10*%
X118839000Y-71299200D03*
%TO.P,J1,4,Pin_4*%
%TO.N,CAS_N*%
X121379000Y-71299200D03*
%TO.P,J1,5,Pin_5*%
%TO.N,A13*%
X118839000Y-73839200D03*
%TO.P,J1,6,Pin_6*%
%TO.N,A12*%
X121379000Y-73839200D03*
%TO.P,J1,7,Pin_7*%
%TO.N,GND*%
X118839000Y-76379200D03*
%TO.P,J1,8,Pin_8*%
%TO.N,A15*%
X121379000Y-76379200D03*
%TO.P,J1,9,Pin_9*%
%TO.N,A14*%
X118839000Y-78919200D03*
%TO.P,J1,10,Pin_10*%
%TO.N,A11*%
X121379000Y-78919200D03*
%TO.P,J1,11,Pin_11*%
%TO.N,OUT_N*%
X118839000Y-81459200D03*
%TO.P,J1,12,Pin_12*%
%TO.N,A8*%
X121379000Y-81459200D03*
%TO.P,J1,13,Pin_13*%
%TO.N,INTACK_N*%
X118839000Y-83999200D03*
%TO.P,J1,14,Pin_14*%
%TO.N,WR_N*%
X121379000Y-83999200D03*
%TO.P,J1,15,Pin_15*%
%TO.N,MUX*%
X118839000Y-86539200D03*
%TO.P,J1,16,Pin_16*%
%TO.N,RD_N*%
X121379000Y-86539200D03*
%TO.P,J1,17,Pin_17*%
%TO.N,D4*%
X118839000Y-89079200D03*
%TO.P,J1,18,Pin_18*%
%TO.N,A9*%
X121379000Y-89079200D03*
%TO.P,J1,19,Pin_19*%
%TO.N,D7*%
X118839000Y-91619200D03*
%TO.P,J1,20,Pin_20*%
%TO.N,IN_N*%
X121379000Y-91619200D03*
%TO.P,J1,21,Pin_21*%
%TO.N,D1*%
X118839000Y-94159200D03*
%TO.P,J1,22,Pin_22*%
%TO.N,INT_N*%
X121379000Y-94159200D03*
%TO.P,J1,23,Pin_23*%
%TO.N,D6*%
X118839000Y-96699200D03*
%TO.P,J1,24,Pin_24*%
%TO.N,TEST_N*%
X121379000Y-96699200D03*
%TO.P,J1,25,Pin_25*%
%TO.N,D3*%
X118839000Y-99239200D03*
%TO.P,J1,26,Pin_26*%
%TO.N,A0*%
X121379000Y-99239200D03*
%TO.P,J1,27,Pin_27*%
%TO.N,D5*%
X118839000Y-101779200D03*
%TO.P,J1,28,Pin_28*%
%TO.N,A1*%
X121379000Y-101779200D03*
%TO.P,J1,29,Pin_29*%
%TO.N,D0*%
X118839000Y-104319200D03*
%TO.P,J1,30,Pin_30*%
%TO.N,GND*%
X121379000Y-104319200D03*
%TO.P,J1,31,Pin_31*%
%TO.N,D2*%
X118839000Y-106859200D03*
%TO.P,J1,32,Pin_32*%
%TO.N,A4*%
X121379000Y-106859200D03*
%TO.P,J1,33,Pin_33*%
%TO.N,A3*%
X118839000Y-109399200D03*
%TO.P,J1,34,Pin_34*%
%TO.N,WAIT_N*%
X121379000Y-109399200D03*
%TO.P,J1,35,Pin_35*%
%TO.N,A7*%
X118839000Y-111939200D03*
%TO.P,J1,36,Pin_36*%
%TO.N,A5*%
X121379000Y-111939200D03*
%TO.P,J1,37,Pin_37*%
%TO.N,A6*%
X118839000Y-114479200D03*
%TO.P,J1,38,Pin_38*%
%TO.N,GND*%
X121379000Y-114479200D03*
%TO.P,J1,39,Pin_39*%
%TO.N,A2*%
X118839000Y-117019200D03*
%TO.P,J1,40,Pin_40*%
%TO.N,5V*%
X121379000Y-117019200D03*
%TD*%
D12*
%TO.P,J2,2,Pin_2*%
%TO.N,RAS_N*%
X107061000Y-68783200D03*
%TO.P,J2,4,Pin_4*%
%TO.N,CAS_N*%
X107061000Y-71323200D03*
%TO.P,J2,6,Pin_6*%
%TO.N,A12*%
X107061000Y-73863200D03*
%TO.P,J2,8,Pin_8*%
%TO.N,A15*%
X107061000Y-76403200D03*
%TO.P,J2,10,Pin_10*%
%TO.N,A11*%
X107061000Y-78943200D03*
%TO.P,J2,12,Pin_12*%
%TO.N,A8*%
X107061000Y-81483200D03*
%TO.P,J2,14,Pin_14*%
%TO.N,WR_N*%
X107061000Y-84023200D03*
%TO.P,J2,16,Pin_16*%
%TO.N,RD_N*%
X107061000Y-86563200D03*
%TO.P,J2,18,Pin_18*%
%TO.N,A9*%
X107061000Y-89103200D03*
%TO.P,J2,20,Pin_20*%
%TO.N,IN_N*%
X107061000Y-91643200D03*
%TO.P,J2,22,Pin_22*%
%TO.N,INT_N*%
X107061000Y-94183200D03*
%TO.P,J2,24,Pin_24*%
%TO.N,TEST_N*%
X107061000Y-96723200D03*
%TO.P,J2,26,Pin_26*%
%TO.N,A0*%
X107061000Y-99263200D03*
%TO.P,J2,28,Pin_28*%
%TO.N,A1*%
X107061000Y-101803200D03*
%TO.P,J2,30,Pin_30*%
%TO.N,GND*%
X107061000Y-104343200D03*
%TO.P,J2,32,Pin_32*%
%TO.N,A4*%
X107061000Y-106883200D03*
%TO.P,J2,34,Pin_34*%
%TO.N,WAIT_N*%
X107061000Y-109423200D03*
%TO.P,J2,36,Pin_36*%
%TO.N,A5*%
X107061000Y-111963200D03*
%TO.P,J2,38,Pin_38*%
%TO.N,GND*%
X107061000Y-114503200D03*
%TO.P,J2,40,Pin_40*%
%TO.N,5V*%
X107061000Y-117043200D03*
%TD*%
D13*
%TO.P,U3,1,A->B*%
%TO.N,+3V3*%
X138684000Y-54432200D03*
D14*
%TO.P,U3,2,A0*%
%TO.N,A0*%
X138684000Y-56972200D03*
%TO.P,U3,3,A1*%
%TO.N,A1*%
X138684000Y-59512200D03*
%TO.P,U3,4,A2*%
%TO.N,A4*%
X138684000Y-62052200D03*
%TO.P,U3,5,A3*%
%TO.N,A3*%
X138684000Y-64592200D03*
%TO.P,U3,6,A4*%
%TO.N,A5*%
X138684000Y-67132200D03*
%TO.P,U3,7,A5*%
%TO.N,A7*%
X138684000Y-69672200D03*
%TO.P,U3,8,A6*%
%TO.N,A6*%
X138684000Y-72212200D03*
%TO.P,U3,9,A7*%
%TO.N,A2*%
X138684000Y-74752200D03*
%TO.P,U3,10,GND*%
%TO.N,GND*%
X138684000Y-77292200D03*
%TO.P,U3,11,B7*%
%TO.N,AA2*%
X146304000Y-77292200D03*
%TO.P,U3,12,B6*%
%TO.N,AA6*%
X146304000Y-74752200D03*
%TO.P,U3,13,B5*%
%TO.N,AA7*%
X146304000Y-72212200D03*
%TO.P,U3,14,B4*%
%TO.N,AA5*%
X146304000Y-69672200D03*
%TO.P,U3,15,B3*%
%TO.N,AA3*%
X146304000Y-67132200D03*
%TO.P,U3,16,B2*%
%TO.N,AA4*%
X146304000Y-64592200D03*
%TO.P,U3,17,B1*%
%TO.N,AA1*%
X146304000Y-62052200D03*
%TO.P,U3,18,B0*%
%TO.N,AA0*%
X146304000Y-59512200D03*
%TO.P,U3,19,CE*%
%TO.N,GND*%
X146304000Y-56972200D03*
%TO.P,U3,20,VCC*%
%TO.N,+3V3*%
X146304000Y-54432200D03*
%TD*%
D13*
%TO.P,U6,1,A->B*%
%TO.N,+3V3*%
X163220400Y-114376200D03*
D14*
%TO.P,U6,2,A0*%
%TO.N,WR_N*%
X163220400Y-116916200D03*
%TO.P,U6,3,A1*%
%TO.N,RD_N*%
X163220400Y-119456200D03*
%TO.P,U6,4,A2*%
%TO.N,RAS_N*%
X163220400Y-121996200D03*
%TO.P,U6,5,A3*%
%TO.N,OUT_N*%
X163220400Y-124536200D03*
%TO.P,U6,6,A4*%
%TO.N,IN_N*%
X163220400Y-127076200D03*
%TO.P,U6,7,A5*%
%TO.N,unconnected-(U6-Pad7)*%
X163220400Y-129616200D03*
%TO.P,U6,8,A6*%
%TO.N,unconnected-(U6-Pad8)*%
X163220400Y-132156200D03*
%TO.P,U6,9,A7*%
%TO.N,unconnected-(U6-Pad9)*%
X163220400Y-134696200D03*
%TO.P,U6,10,GND*%
%TO.N,GND*%
X163220400Y-137236200D03*
%TO.P,U6,11,B7*%
%TO.N,unconnected-(U6-Pad11)*%
X170840400Y-137236200D03*
%TO.P,U6,12,B6*%
%TO.N,unconnected-(U6-Pad12)*%
X170840400Y-134696200D03*
%TO.P,U6,13,B5*%
%TO.N,unconnected-(U6-Pad13)*%
X170840400Y-132156200D03*
%TO.P,U6,14,B4*%
%TO.N,Z80_IN_N*%
X170840400Y-129616200D03*
%TO.P,U6,15,B3*%
%TO.N,Z80_OUT_N*%
X170840400Y-127076200D03*
%TO.P,U6,16,B2*%
%TO.N,Z80_RAS_N*%
X170840400Y-124536200D03*
%TO.P,U6,17,B1*%
%TO.N,Z80_RD_N*%
X170840400Y-121996200D03*
%TO.P,U6,18,B0*%
%TO.N,Z80_WR_N*%
X170840400Y-119456200D03*
%TO.P,U6,19,CE*%
%TO.N,GND*%
X170840400Y-116916200D03*
%TO.P,U6,20,VCC*%
%TO.N,+3V3*%
X170840400Y-114376200D03*
%TD*%
D13*
%TO.P,U5,1,A->B*%
%TO.N,READ_N*%
X138684000Y-112801400D03*
D14*
%TO.P,U5,2,A0*%
%TO.N,D4*%
X138684000Y-115341400D03*
%TO.P,U5,3,A1*%
%TO.N,D7*%
X138684000Y-117881400D03*
%TO.P,U5,4,A2*%
%TO.N,D1*%
X138684000Y-120421400D03*
%TO.P,U5,5,A3*%
%TO.N,D6*%
X138684000Y-122961400D03*
%TO.P,U5,6,A4*%
%TO.N,D3*%
X138684000Y-125501400D03*
%TO.P,U5,7,A5*%
%TO.N,D5*%
X138684000Y-128041400D03*
%TO.P,U5,8,A6*%
%TO.N,D0*%
X138684000Y-130581400D03*
%TO.P,U5,9,A7*%
%TO.N,D2*%
X138684000Y-133121400D03*
%TO.P,U5,10,GND*%
%TO.N,GND*%
X138684000Y-135661400D03*
%TO.P,U5,11,B7*%
%TO.N,DD2*%
X146304000Y-135661400D03*
%TO.P,U5,12,B6*%
%TO.N,DD0*%
X146304000Y-133121400D03*
%TO.P,U5,13,B5*%
%TO.N,DD5*%
X146304000Y-130581400D03*
%TO.P,U5,14,B4*%
%TO.N,DD3*%
X146304000Y-128041400D03*
%TO.P,U5,15,B3*%
%TO.N,DD6*%
X146304000Y-125501400D03*
%TO.P,U5,16,B2*%
%TO.N,DD1*%
X146304000Y-122961400D03*
%TO.P,U5,17,B1*%
%TO.N,DD7*%
X146304000Y-120421400D03*
%TO.P,U5,18,B0*%
%TO.N,DD4*%
X146304000Y-117881400D03*
%TO.P,U5,19,CE*%
%TO.N,DBUS_SEL_N*%
X146304000Y-115341400D03*
%TO.P,U5,20,VCC*%
%TO.N,+3V3*%
X146304000Y-112801400D03*
%TD*%
D15*
%TO.P,R8,1*%
%TO.N,+3V3*%
X187900000Y-80613000D03*
D14*
%TO.P,R8,2*%
%TO.N,Net-(J3-Pad1)*%
X195520000Y-80613000D03*
%TD*%
D15*
%TO.P,R7,1*%
%TO.N,+3V3*%
X187900000Y-84042000D03*
D14*
%TO.P,R7,2*%
%TO.N,CS_SD_CARD*%
X195520000Y-84042000D03*
%TD*%
D15*
%TO.P,R6,1*%
%TO.N,+3V3*%
X187900000Y-87471000D03*
D14*
%TO.P,R6,2*%
%TO.N,MOSI*%
X195520000Y-87471000D03*
%TD*%
D16*
%TO.P,U2,1,pio1*%
%TO.N,INT*%
X174371000Y-109550200D03*
%TO.P,U2,2,pio2*%
%TO.N,VGA_VSYNC*%
X174371000Y-107010200D03*
%TO.P,U2,3,pio3*%
%TO.N,VGA_HSYNC*%
X174371000Y-104470200D03*
%TO.P,U2,4,pio4*%
%TO.N,SCK*%
X174371000Y-101930200D03*
%TO.P,U2,5,pio5*%
%TO.N,CS_FPGA*%
X174371000Y-99390200D03*
%TO.P,U2,6,pio6*%
%TO.N,MISO*%
X174371000Y-96850200D03*
%TO.P,U2,7,pio7*%
%TO.N,MOSI*%
X174371000Y-94310200D03*
%TO.P,U2,8,pio8*%
%TO.N,VGA_RGB*%
X174371000Y-91770200D03*
%TO.P,U2,9,pio9*%
%TO.N,ESP_S2*%
X174371000Y-89230200D03*
%TO.P,U2,10,pio10*%
%TO.N,ESP_S1*%
X174371000Y-86690200D03*
%TO.P,U2,11,pio11*%
%TO.N,ESP_S0*%
X174371000Y-84150200D03*
%TO.P,U2,12,pio12*%
%TO.N,REQ*%
X174371000Y-81610200D03*
%TO.P,U2,13,pio13*%
%TO.N,DONE*%
X174371000Y-79070200D03*
%TO.P,U2,14,pio14*%
%TO.N,AA9*%
X174371000Y-76530200D03*
%TO.P,U2,15,xa15*%
%TO.N,unconnected-(U2-Pad15)*%
X174371000Y-73990200D03*
%TO.P,U2,16,xa16*%
%TO.N,unconnected-(U2-Pad16)*%
X174371000Y-71450200D03*
%TO.P,U2,17,pio17*%
%TO.N,AA8*%
X174371000Y-68910200D03*
%TO.P,U2,18,pio18*%
%TO.N,AA14*%
X174371000Y-66370200D03*
%TO.P,U2,19,pio19*%
%TO.N,AA11*%
X174371000Y-63830200D03*
%TO.P,U2,20,pio20*%
%TO.N,AA2*%
X174371000Y-61290200D03*
%TO.P,U2,21,pio21*%
%TO.N,AA7*%
X174371000Y-58750200D03*
%TO.P,U2,22,pio22*%
%TO.N,AA3*%
X174371000Y-56210200D03*
%TO.P,U2,23,pio23*%
%TO.N,AA1*%
X174371000Y-53670200D03*
%TO.P,U2,24,VU*%
%TO.N,VU*%
X174371000Y-51130200D03*
%TO.P,U2,25,GND*%
%TO.N,GND*%
X159131000Y-51130200D03*
%TO.P,U2,26,pio26*%
%TO.N,AA0*%
X159131000Y-53670200D03*
%TO.P,U2,27,pio27*%
%TO.N,AA4*%
X159131000Y-56210200D03*
%TO.P,U2,28,pio28*%
%TO.N,AA5*%
X159131000Y-58750200D03*
%TO.P,U2,29,pio29*%
%TO.N,AA6*%
X159131000Y-61290200D03*
%TO.P,U2,30,pio30*%
%TO.N,AA10*%
X159131000Y-63830200D03*
%TO.P,U2,31,pio31*%
%TO.N,AA12*%
X159131000Y-66370200D03*
%TO.P,U2,32,pio32*%
%TO.N,AA13*%
X159131000Y-68910200D03*
%TO.P,U2,33,pio33*%
%TO.N,AA15*%
X159131000Y-71450200D03*
%TO.P,U2,34,pio34*%
%TO.N,DD4*%
X159131000Y-73990200D03*
%TO.P,U2,35,pio35*%
%TO.N,DD7*%
X159131000Y-76530200D03*
%TO.P,U2,36,pio36*%
%TO.N,DD1*%
X159131000Y-79070200D03*
%TO.P,U2,37,pio37*%
%TO.N,DD6*%
X159131000Y-81610200D03*
%TO.P,U2,38,pio38*%
%TO.N,DD3*%
X159131000Y-84150200D03*
%TO.P,U2,39,pio39*%
%TO.N,DD5*%
X159131000Y-86690200D03*
%TO.P,U2,40,pio40*%
%TO.N,DD0*%
X159131000Y-89230200D03*
%TO.P,U2,41,pio41*%
%TO.N,DD2*%
X159131000Y-91770200D03*
%TO.P,U2,42,pio42*%
%TO.N,Z80_WR_N*%
X159131000Y-94310200D03*
%TO.P,U2,43,pio43*%
%TO.N,Z80_RD_N*%
X159131000Y-96850200D03*
%TO.P,U2,44,pio44*%
%TO.N,Z80_OUT_N*%
X159131000Y-99390200D03*
%TO.P,U2,45,pio45*%
%TO.N,Z80_IN_N*%
X159131000Y-101930200D03*
%TO.P,U2,46,pio46*%
%TO.N,WAIT*%
X159131000Y-104470200D03*
%TO.P,U2,47,pio47*%
%TO.N,READ_N*%
X159131000Y-107010200D03*
%TO.P,U2,48,pio48*%
%TO.N,DBUS_SEL_N*%
X159131000Y-109550200D03*
%TD*%
D17*
%TO.P,Q2,1,S*%
%TO.N,GND*%
X183286400Y-111429800D03*
D18*
%TO.P,Q2,2,G*%
%TO.N,INT*%
X184556400Y-111429800D03*
%TO.P,Q2,3,D*%
%TO.N,INT_N*%
X185826400Y-111429800D03*
%TD*%
D17*
%TO.P,Q1,1,S*%
%TO.N,GND*%
X183286400Y-104927400D03*
D18*
%TO.P,Q1,2,G*%
%TO.N,WAIT*%
X184556400Y-104927400D03*
%TO.P,Q1,3,D*%
%TO.N,WAIT_N*%
X185826400Y-104927400D03*
%TD*%
D15*
%TO.P,C2,1*%
%TO.N,+3V3*%
X148615400Y-83312000D03*
%TO.P,C2,2*%
%TO.N,GND*%
X151115400Y-83312000D03*
%TD*%
%TO.P,C1,1*%
%TO.N,+3V3*%
X148666200Y-54127400D03*
%TO.P,C1,2*%
%TO.N,GND*%
X151166200Y-54127400D03*
%TD*%
D10*
%TO.P,J5,1,Pin_1*%
%TO.N,FULL_ADDR*%
X211500000Y-66750000D03*
D11*
%TO.P,J5,2,Pin_2*%
%TO.N,GND*%
X211500000Y-64210000D03*
%TD*%
D10*
%TO.P,J4,1,Pin_1*%
%TO.N,+5V*%
X207206400Y-66750000D03*
D11*
%TO.P,J4,2,Pin_2*%
%TO.N,VU*%
X207206400Y-64210000D03*
%TD*%
D15*
%TO.P,C5,1*%
%TO.N,+3V3*%
X187200000Y-65550000D03*
%TO.P,C5,2*%
%TO.N,GND*%
X184700000Y-65550000D03*
%TD*%
%TO.P,C4,1*%
%TO.N,+3V3*%
X173126400Y-114071400D03*
%TO.P,C4,2*%
%TO.N,GND*%
X175626400Y-114071400D03*
%TD*%
%TO.P,C3,1*%
%TO.N,+3V3*%
X148615400Y-112522000D03*
%TO.P,C3,2*%
%TO.N,GND*%
X151115400Y-112522000D03*
%TD*%
%TO.P,R5,1*%
%TO.N,+3V3*%
X187900000Y-90900000D03*
D14*
%TO.P,R5,2*%
%TO.N,Net-(J3-Pad8)*%
X195520000Y-90900000D03*
%TD*%
D19*
%TO.P,J3,1,DAT2*%
%TO.N,Net-(J3-Pad1)*%
X189595400Y-62874800D03*
%TO.P,J3,2,CD/DAT3*%
%TO.N,CS_SD_CARD*%
X190695400Y-62874800D03*
%TO.P,J3,3,CMD*%
%TO.N,MOSI*%
X191795400Y-62874800D03*
%TO.P,J3,4,VDD*%
%TO.N,+3V3*%
X192895400Y-62874800D03*
%TO.P,J3,5,CLK*%
%TO.N,SCK*%
X193995400Y-62874800D03*
%TO.P,J3,6,VSS*%
%TO.N,GND*%
X195095400Y-62874800D03*
%TO.P,J3,7,DAT0*%
%TO.N,MISO*%
X196195400Y-62874800D03*
%TO.P,J3,8,DAT1*%
%TO.N,Net-(J3-Pad8)*%
X197295400Y-62874800D03*
%TO.P,J3,9,Cd*%
%TO.N,unconnected-(J3-Pad9)*%
X198395400Y-62874800D03*
D20*
%TO.P,J3,10,GND*%
%TO.N,GND*%
X184945400Y-62374800D03*
D21*
%TO.P,J3,11,GND*%
X184045400Y-52774800D03*
%TO.P,J3,12,GND*%
X199545400Y-52774800D03*
D22*
%TO.P,J3,13,GND*%
X199545400Y-62374800D03*
%TD*%
D23*
%TO.P,D1,1,RA*%
%TO.N,Net-(D1-Pad1)*%
X193065400Y-134543800D03*
D24*
%TO.P,D1,2,K*%
%TO.N,GND*%
X194335400Y-134543800D03*
%TO.P,D1,3,BA*%
%TO.N,Net-(D1-Pad3)*%
X195605400Y-134543800D03*
%TO.P,D1,4,GA*%
%TO.N,Net-(D1-Pad4)*%
X196875400Y-134543800D03*
%TD*%
D13*
%TO.P,U4,1,A->B*%
%TO.N,+3V3*%
X138684000Y-83616800D03*
D14*
%TO.P,U4,2,A0*%
%TO.N,A10*%
X138684000Y-86156800D03*
%TO.P,U4,3,A1*%
%TO.N,A12*%
X138684000Y-88696800D03*
%TO.P,U4,4,A2*%
%TO.N,A13*%
X138684000Y-91236800D03*
%TO.P,U4,5,A3*%
%TO.N,A15*%
X138684000Y-93776800D03*
%TO.P,U4,6,A4*%
%TO.N,A11*%
X138684000Y-96316800D03*
%TO.P,U4,7,A5*%
%TO.N,A14*%
X138684000Y-98856800D03*
%TO.P,U4,8,A6*%
%TO.N,A8*%
X138684000Y-101396800D03*
%TO.P,U4,9,A7*%
%TO.N,A9*%
X138684000Y-103936800D03*
%TO.P,U4,10,GND*%
%TO.N,GND*%
X138684000Y-106476800D03*
%TO.P,U4,11,B7*%
%TO.N,AA9*%
X146304000Y-106476800D03*
%TO.P,U4,12,B6*%
%TO.N,AA8*%
X146304000Y-103936800D03*
%TO.P,U4,13,B5*%
%TO.N,AA14*%
X146304000Y-101396800D03*
%TO.P,U4,14,B4*%
%TO.N,AA11*%
X146304000Y-98856800D03*
%TO.P,U4,15,B3*%
%TO.N,AA15*%
X146304000Y-96316800D03*
%TO.P,U4,16,B2*%
%TO.N,AA13*%
X146304000Y-93776800D03*
%TO.P,U4,17,B1*%
%TO.N,AA12*%
X146304000Y-91236800D03*
%TO.P,U4,18,B0*%
%TO.N,AA10*%
X146304000Y-88696800D03*
%TO.P,U4,19,CE*%
%TO.N,GND*%
X146304000Y-86156800D03*
%TO.P,U4,20,VCC*%
%TO.N,+3V3*%
X146304000Y-83616800D03*
%TD*%
D15*
%TO.P,R3,1*%
%TO.N,LED_BLUE*%
X195605400Y-120827800D03*
D14*
%TO.P,R3,2*%
%TO.N,Net-(D1-Pad3)*%
X195605400Y-128447800D03*
%TD*%
D15*
%TO.P,R2,1*%
%TO.N,LED_GREEN*%
X199161400Y-120827800D03*
D14*
%TO.P,R2,2*%
%TO.N,Net-(D1-Pad4)*%
X199161400Y-128447800D03*
%TD*%
D13*
%TO.P,U1,1,GPIO6*%
%TO.N,unconnected-(U1-Pad1)*%
X180416200Y-51689000D03*
D14*
%TO.P,U1,2,GPIO7*%
%TO.N,unconnected-(U1-Pad2)*%
X180416200Y-54229000D03*
%TO.P,U1,3,GPIO8*%
%TO.N,unconnected-(U1-Pad3)*%
X180416200Y-56769000D03*
%TO.P,U1,4,GPIO15*%
%TO.N,AA3*%
X180416200Y-59309000D03*
%TO.P,U1,5,GPIO2*%
%TO.N,unconnected-(U1-Pad5)*%
X180416200Y-61849000D03*
%TO.P,U1,6,GPIO0*%
%TO.N,unconnected-(U1-Pad6)*%
X180416200Y-64389000D03*
%TO.P,U1,7,GPIO4*%
%TO.N,LED_GREEN*%
X180416200Y-66929000D03*
%TO.P,U1,8,GPIO16*%
%TO.N,ESP_S0*%
X180416200Y-69469000D03*
%TO.P,U1,9,GPIO17*%
%TO.N,ESP_S1*%
X180416200Y-72009000D03*
%TO.P,U1,10,GPIO5*%
%TO.N,LED_RED*%
X180416200Y-74549000D03*
%TO.P,U1,11,GPIO18*%
%TO.N,ESP_S2*%
X180416200Y-77089000D03*
%TO.P,U1,12,GPIO19*%
%TO.N,CS_MCP43x1*%
X180416200Y-79629000D03*
%TO.P,U1,13,GND*%
%TO.N,GND*%
X180416200Y-82169000D03*
%TO.P,U1,14,GPIO21*%
%TO.N,MOSI*%
X180416200Y-84709000D03*
%TO.P,U1,15,GPIO3*%
%TO.N,unconnected-(U1-Pad15)*%
X180416200Y-87249000D03*
%TO.P,U1,16,GPIO1*%
%TO.N,unconnected-(U1-Pad16)*%
X180416200Y-89789000D03*
%TO.P,U1,17,GPIO22*%
%TO.N,MISO*%
X180416200Y-92329000D03*
%TO.P,U1,18,GPIO23*%
%TO.N,CS_SD_CARD*%
X180416200Y-94869000D03*
%TO.P,U1,19,GND*%
%TO.N,GND*%
X180416200Y-97409000D03*
%TO.P,U1,20,3V3*%
%TO.N,+3V3*%
X203276200Y-97409000D03*
%TO.P,U1,21,RESET*%
%TO.N,unconnected-(U1-Pad21)*%
X203276200Y-94869000D03*
%TO.P,U1,22,GPIO36*%
%TO.N,unconnected-(U1-Pad22)*%
X203276200Y-92329000D03*
%TO.P,U1,23,GPIO39*%
%TO.N,BUTTON*%
X203276200Y-89789000D03*
%TO.P,U1,24,GPIO34*%
%TO.N,REQ*%
X203276200Y-87249000D03*
%TO.P,U1,25,GPIO35*%
%TO.N,unconnected-(U1-Pad25)*%
X203276200Y-84709000D03*
%TO.P,U1,26,GPIO32*%
%TO.N,LED_BLUE*%
X203276200Y-82169000D03*
%TO.P,U1,27,GPIO33*%
%TO.N,FULL_ADDR*%
X203276200Y-79629000D03*
%TO.P,U1,28,GPIO25*%
%TO.N,SCK*%
X203276200Y-77089000D03*
%TO.P,U1,29,GPIO26*%
%TO.N,CS_FPGA*%
X203276200Y-74549000D03*
%TO.P,U1,30,GPIO27*%
%TO.N,DONE*%
X203276200Y-72009000D03*
%TO.P,U1,31,GPIO14*%
%TO.N,AA2*%
X203276200Y-69469000D03*
%TO.P,U1,32,GPIO12*%
%TO.N,AA0*%
X203276200Y-66929000D03*
%TO.P,U1,33,GND*%
%TO.N,GND*%
X203276200Y-64389000D03*
%TO.P,U1,34,GPIO13*%
%TO.N,AA1*%
X203276200Y-61849000D03*
%TO.P,U1,35,GPIO9*%
%TO.N,unconnected-(U1-Pad35)*%
X203276200Y-59309000D03*
%TO.P,U1,36,GPIO10*%
%TO.N,unconnected-(U1-Pad36)*%
X203276200Y-56769000D03*
%TO.P,U1,37,GPIO11*%
%TO.N,unconnected-(U1-Pad37)*%
X203276200Y-54229000D03*
%TO.P,U1,38,5V*%
%TO.N,+5V*%
X203276200Y-51752500D03*
%TD*%
D15*
%TO.P,R4,1*%
%TO.N,+3V3*%
X192874900Y-103809800D03*
D14*
%TO.P,R4,2*%
%TO.N,BUTTON*%
X200494900Y-103809800D03*
%TD*%
D25*
%TO.P,SW1,1,1*%
%TO.N,GND*%
X177950000Y-136550000D03*
X184450000Y-136550000D03*
%TO.P,SW1,2,2*%
%TO.N,BUTTON*%
X184450000Y-132050000D03*
X177950000Y-132050000D03*
%TD*%
D15*
%TO.P,R1,1*%
%TO.N,LED_RED*%
X192049400Y-120827800D03*
D14*
%TO.P,R1,2*%
%TO.N,Net-(D1-Pad1)*%
X192049400Y-128447800D03*
%TD*%
D26*
%TO.P,H1,1*%
%TO.N,N/C*%
X118400000Y-51575000D03*
X117074175Y-52124175D03*
D27*
X118400000Y-53450000D03*
D26*
X118400000Y-55325000D03*
X119725825Y-52124175D03*
X117074175Y-54775825D03*
X116525000Y-53450000D03*
X119725825Y-54775825D03*
X120275000Y-53450000D03*
%TD*%
%TO.P,H2,1*%
%TO.N,N/C*%
X207975000Y-53000000D03*
X209850000Y-54875000D03*
X209850000Y-51125000D03*
X211725000Y-53000000D03*
X208524175Y-54325825D03*
X211175825Y-51674175D03*
X208524175Y-51674175D03*
X211175825Y-54325825D03*
D27*
X209850000Y-53000000D03*
%TD*%
%TO.P,H3,1*%
%TO.N,N/C*%
X118900000Y-136800000D03*
D26*
X117574175Y-138125825D03*
X118900000Y-138675000D03*
X120775000Y-136800000D03*
X117025000Y-136800000D03*
X120225825Y-138125825D03*
X117574175Y-135474175D03*
X118900000Y-134925000D03*
X120225825Y-135474175D03*
%TD*%
%TO.P,H4,1*%
%TO.N,N/C*%
X211275825Y-138025825D03*
D27*
X209950000Y-136700000D03*
D26*
X211825000Y-136700000D03*
X208624175Y-135374175D03*
X208624175Y-138025825D03*
X208075000Y-136700000D03*
X211275825Y-135374175D03*
X209950000Y-138575000D03*
X209950000Y-134825000D03*
%TD*%
D28*
%TO.P,J6,*%
%TO.N,*%
X210928580Y-102655740D03*
X210928580Y-127644260D03*
D29*
%TO.P,J6,1*%
%TO.N,POT_VGA_RED*%
X209209600Y-110839620D03*
%TO.P,J6,2*%
%TO.N,POT_VGA_GREEN*%
X209209600Y-113130700D03*
%TO.P,J6,3*%
%TO.N,POT_VGA_BLUE*%
X209209600Y-115416700D03*
%TO.P,J6,4*%
%TO.N,unconnected-(J6-Pad4)*%
X209209600Y-117710320D03*
%TO.P,J6,5*%
%TO.N,GND*%
X209209600Y-119998860D03*
%TO.P,J6,6*%
X210974300Y-109694080D03*
%TO.P,J6,7*%
X210974300Y-111987700D03*
%TO.P,J6,8*%
X210974300Y-114286400D03*
%TO.P,J6,9*%
%TO.N,unconnected-(J6-Pad9)*%
X210974300Y-116585100D03*
%TO.P,J6,10*%
%TO.N,GND*%
X210974300Y-118858400D03*
%TO.P,J6,11*%
%TO.N,unconnected-(J6-Pad11)*%
X212765600Y-110839620D03*
%TO.P,J6,12*%
%TO.N,unconnected-(J6-Pad12)*%
X212765600Y-113130700D03*
%TO.P,J6,13*%
%TO.N,VGA_HSYNC*%
X212765600Y-115419240D03*
%TO.P,J6,14*%
%TO.N,VGA_VSYNC*%
X212765600Y-117710320D03*
%TO.P,J6,15*%
%TO.N,unconnected-(J6-Pad15)*%
X212765600Y-120001400D03*
%TD*%
D30*
%TO.P,U7,1,P3A*%
%TO.N,unconnected-(U7-Pad1)*%
X194825000Y-69237500D03*
%TO.P,U7,2,P3W*%
%TO.N,unconnected-(U7-Pad2)*%
X194175000Y-69237500D03*
%TO.P,U7,3,P3B*%
%TO.N,unconnected-(U7-Pad3)*%
X193525000Y-69237500D03*
%TO.P,U7,4,~{CS}*%
%TO.N,CS_MCP43x1*%
X192875000Y-69237500D03*
%TO.P,U7,5,SCK*%
%TO.N,SCK*%
X192225000Y-69237500D03*
%TO.P,U7,6,SDI*%
%TO.N,MOSI*%
X191575000Y-69237500D03*
%TO.P,U7,7,VSS*%
%TO.N,GND*%
X190925000Y-69237500D03*
%TO.P,U7,8,P1B*%
X190275000Y-69237500D03*
%TO.P,U7,9,P1W*%
%TO.N,POT_VGA_GREEN*%
X189625000Y-69237500D03*
%TO.P,U7,10,P1A*%
%TO.N,VGA_RGB*%
X188975000Y-69237500D03*
%TO.P,U7,11,P0A*%
X188975000Y-74962500D03*
%TO.P,U7,12,P0W*%
%TO.N,POT_VGA_RED*%
X189625000Y-74962500D03*
%TO.P,U7,13,P0B*%
%TO.N,GND*%
X190275000Y-74962500D03*
%TO.P,U7,14,~{WP}*%
%TO.N,unconnected-(U7-Pad14)*%
X190925000Y-74962500D03*
%TO.P,U7,15,~{RESET}*%
%TO.N,unconnected-(U7-Pad15)*%
X191575000Y-74962500D03*
%TO.P,U7,16,SDO*%
%TO.N,MISO*%
X192225000Y-74962500D03*
%TO.P,U7,17,VDD*%
%TO.N,+3V3*%
X192875000Y-74962500D03*
%TO.P,U7,18,P2B*%
%TO.N,GND*%
X193525000Y-74962500D03*
%TO.P,U7,19,P2W*%
%TO.N,POT_VGA_BLUE*%
X194175000Y-74962500D03*
%TO.P,U7,20,P2A*%
%TO.N,VGA_RGB*%
X194825000Y-74962500D03*
%TD*%
D31*
%TO.N,GND*%
X188400000Y-110900000D03*
X186318811Y-53231189D03*
X196587100Y-66262900D03*
X143000000Y-106450000D03*
X188400000Y-105600000D03*
X194400000Y-66200000D03*
X200224500Y-66200000D03*
X186957801Y-60692199D03*
X190300000Y-73650000D03*
X196500000Y-76700000D03*
X190300000Y-68100000D03*
%TO.N,+3V3*%
X197200000Y-81550000D03*
X192900000Y-117500000D03*
X192900000Y-61416699D03*
X187900000Y-97350000D03*
X197150000Y-77575500D03*
X192859000Y-97409000D03*
%TO.N,RAS_N*%
X129692400Y-68808600D03*
X129336800Y-121793000D03*
%TO.N,A10*%
X137566400Y-71196200D03*
%TO.N,A12*%
X136833999Y-73761600D03*
%TO.N,A13*%
X136042400Y-91262200D03*
X136108999Y-75717400D03*
%TO.N,A15*%
X135331200Y-93827600D03*
X135383999Y-76481733D03*
%TO.N,A11*%
X134658999Y-78917800D03*
X134721600Y-96316800D03*
%TO.N,A14*%
X133933999Y-80162400D03*
X133908800Y-98907600D03*
%TO.N,A8*%
X133121400Y-101396800D03*
X133208999Y-81483200D03*
%TO.N,OUT_N*%
X140792200Y-82423000D03*
X140806000Y-124256800D03*
%TO.N,WR_N*%
X131380400Y-116890800D03*
X131394200Y-84048600D03*
%TO.N,RD_N*%
X130581400Y-119303800D03*
X130581400Y-86537800D03*
%TO.N,A9*%
X132410200Y-104013000D03*
X132396400Y-89077800D03*
%TO.N,D4*%
X137642600Y-90170000D03*
%TO.N,IN_N*%
X140081000Y-92379800D03*
X140081000Y-126923800D03*
%TO.N,D7*%
X136833999Y-92811600D03*
%TO.N,INT_N*%
X141531000Y-95072200D03*
X141531000Y-110515400D03*
%TO.N,D1*%
X136042400Y-120269000D03*
X136108999Y-95478600D03*
%TO.N,D6*%
X135331200Y-122834400D03*
X135383999Y-97967800D03*
%TO.N,A0*%
X123164600Y-56972200D03*
X123088400Y-99263200D03*
%TO.N,D3*%
X134543800Y-125425200D03*
X134543800Y-100558600D03*
%TO.N,A1*%
X123875800Y-101650800D03*
X123889600Y-59639200D03*
%TO.N,D5*%
X133832600Y-127990600D03*
X133818800Y-102870000D03*
%TO.N,D0*%
X132994400Y-130581400D03*
X133070600Y-105537000D03*
%TO.N,A4*%
X124510800Y-106705400D03*
X124614600Y-62052200D03*
%TO.N,D2*%
X132345600Y-108026200D03*
X132105400Y-133146800D03*
%TO.N,A3*%
X125339600Y-64617600D03*
X125298200Y-109372400D03*
%TO.N,A5*%
X126187200Y-111861600D03*
X126111000Y-67183000D03*
%TO.N,A7*%
X127000000Y-112699800D03*
X127177800Y-69621400D03*
%TO.N,A6*%
X127889000Y-115366800D03*
X127902800Y-72186800D03*
%TO.N,A2*%
X128600200Y-117983000D03*
X128627800Y-74853800D03*
%TO.N,POT_VGA_BLUE*%
X206575500Y-75650000D03*
%TO.N,POT_VGA_GREEN*%
X207300000Y-70850000D03*
%TO.N,POT_VGA_RED*%
X208050000Y-78300000D03*
%TO.N,SCK*%
X194705294Y-64272958D03*
X200750000Y-101750000D03*
%TO.N,MOSI*%
X181800000Y-88950000D03*
X192250000Y-88950000D03*
X191600000Y-70575500D03*
%TO.N,VGA_HSYNC*%
X190400000Y-107550000D03*
%TO.N,VGA_VSYNC*%
X189550000Y-108400000D03*
%TO.N,READ_N*%
X138650000Y-107900000D03*
%TO.N,MISO*%
X198678800Y-65938400D03*
X198780400Y-92329000D03*
X198678800Y-73074500D03*
%TO.N,DD3*%
X157300000Y-128050000D03*
%TO.N,DD4*%
X154050000Y-117900000D03*
%TO.N,DD5*%
X164450000Y-130650000D03*
X164350000Y-86700000D03*
%TO.N,DD6*%
X156450000Y-125500000D03*
%TO.N,DD7*%
X154850000Y-120450000D03*
%TO.N,DD2*%
X160500000Y-135700000D03*
%TO.N,DD0*%
X161300000Y-133100000D03*
%TO.N,DD1*%
X155700000Y-122950000D03*
%TO.N,AA14*%
X171351000Y-100550000D03*
%TO.N,AA2*%
X200550000Y-59850000D03*
%TO.N,AA1*%
X201300000Y-55350000D03*
%TO.N,AA11*%
X170626500Y-98050000D03*
%TO.N,AA0*%
X204500000Y-58100000D03*
X161550000Y-58350000D03*
%TO.N,AA9*%
X172800000Y-105800000D03*
%TO.N,AA8*%
X172075500Y-103100000D03*
%TO.N,DBUS_SEL_N*%
X159150000Y-115350000D03*
%TO.N,BUTTON*%
X200550000Y-132050000D03*
%TO.N,LED_GREEN*%
X199850000Y-71800000D03*
%TO.N,LED_BLUE*%
X197900000Y-82350000D03*
%TO.N,LED_RED*%
X191490600Y-77063600D03*
%TO.N,Net-(J3-Pad1)*%
X189650000Y-65150000D03*
%TO.N,CS_SD_CARD*%
X190100000Y-84050000D03*
X196800000Y-94850000D03*
X190700000Y-61416699D03*
%TO.N,Net-(J3-Pad8)*%
X194350000Y-67500000D03*
%TO.N,VGA_RGB*%
X197850000Y-74950000D03*
X188200000Y-69250000D03*
X186400000Y-74950000D03*
X186400000Y-78000000D03*
X186400000Y-90700000D03*
X197900000Y-79024500D03*
X188200000Y-74950000D03*
%TO.N,CS_FPGA*%
X204700000Y-99400000D03*
%TO.N,CS_MCP43x1*%
X192950000Y-70575500D03*
X193000000Y-79350000D03*
%TO.N,Z80_WR_N*%
X167600000Y-94300000D03*
%TO.N,Z80_RD_N*%
X166850000Y-96850000D03*
%TO.N,Z80_OUT_N*%
X166000000Y-99350000D03*
%TO.N,Z80_IN_N*%
X165174500Y-102000000D03*
%TD*%
D32*
%TO.N,GND*%
X186318811Y-53231189D02*
X199089011Y-53231189D01*
X186957801Y-60692199D02*
X193962799Y-60692199D01*
X200224500Y-66200000D02*
X200224500Y-63053900D01*
X190275000Y-68125000D02*
X190300000Y-68100000D01*
X184945400Y-62374800D02*
X186628001Y-60692199D01*
X203276200Y-64389000D02*
X202035500Y-64389000D01*
X194400000Y-66200000D02*
X196524200Y-66200000D01*
X188400000Y-105600000D02*
X188400000Y-110900000D01*
X120203999Y-113304199D02*
X121379000Y-114479200D01*
X193850000Y-76700000D02*
X196500000Y-76700000D01*
X199545400Y-62289798D02*
X199005401Y-61749799D01*
X199545400Y-62374800D02*
X199545400Y-62289798D01*
X142973200Y-106476800D02*
X143000000Y-106450000D01*
X195095400Y-61824800D02*
X195095400Y-62874800D01*
X186628001Y-60692199D02*
X186957801Y-60692199D01*
X200224500Y-63053900D02*
X199545400Y-62374800D01*
X196524200Y-66200000D02*
X196587100Y-66262900D01*
X195170401Y-61749799D02*
X195095400Y-61824800D01*
X202035500Y-64389000D02*
X200224500Y-66200000D01*
X190275000Y-69237500D02*
X190925000Y-69237500D01*
X116967000Y-114503200D02*
X118166001Y-113304199D01*
X184501789Y-53231189D02*
X186318811Y-53231189D01*
X193962799Y-60692199D02*
X195095400Y-61824800D01*
X116992400Y-104343200D02*
X118191401Y-103144199D01*
X190275000Y-73675000D02*
X190300000Y-73650000D01*
X107061000Y-104343200D02*
X116992400Y-104343200D01*
X120203999Y-103144199D02*
X121379000Y-104319200D01*
X199089011Y-53231189D02*
X199545400Y-52774800D01*
X193525000Y-76375000D02*
X193850000Y-76700000D01*
X190275000Y-74962500D02*
X190275000Y-73675000D01*
X199005401Y-61749799D02*
X195170401Y-61749799D01*
X107061000Y-114503200D02*
X116967000Y-114503200D01*
X193525000Y-74962500D02*
X193525000Y-76375000D01*
X118191401Y-103144199D02*
X120203999Y-103144199D01*
X190275000Y-69237500D02*
X190275000Y-68125000D01*
X138684000Y-106476800D02*
X142973200Y-106476800D01*
X118166001Y-113304199D02*
X120203999Y-113304199D01*
X184045400Y-52774800D02*
X184501789Y-53231189D01*
%TO.N,+3V3*%
X192900000Y-62870200D02*
X192895400Y-62874800D01*
X170840400Y-114376200D02*
X172821600Y-114376200D01*
X197124500Y-77550000D02*
X193650000Y-77550000D01*
X146608800Y-83312000D02*
X146304000Y-83616800D01*
X192859000Y-97409000D02*
X187959000Y-97409000D01*
X197200000Y-81550000D02*
X197012489Y-81737511D01*
X173700000Y-117500000D02*
X173126400Y-116926400D01*
X148666200Y-54127400D02*
X146608800Y-54127400D01*
X197150000Y-77575500D02*
X197124500Y-77550000D01*
X197012489Y-81737511D02*
X189024511Y-81737511D01*
X170840400Y-114376200D02*
X163220400Y-114376200D01*
X203276200Y-97409000D02*
X192859000Y-97409000D01*
X187959000Y-97409000D02*
X187900000Y-97350000D01*
X146608800Y-54127400D02*
X146304000Y-54432200D01*
X192900000Y-117500000D02*
X173700000Y-117500000D01*
X146304000Y-54432200D02*
X138684000Y-54432200D01*
X173126400Y-116926400D02*
X173126400Y-114071400D01*
X148615400Y-112522000D02*
X146583400Y-112522000D01*
X189024511Y-81737511D02*
X187900000Y-80613000D01*
X163220400Y-114376200D02*
X150469600Y-114376200D01*
X193650000Y-77550000D02*
X192875000Y-76775000D01*
X192875000Y-76775000D02*
X192875000Y-74962500D01*
X146583400Y-112522000D02*
X146304000Y-112801400D01*
X148615400Y-83312000D02*
X146608800Y-83312000D01*
X192900000Y-61416699D02*
X192900000Y-62870200D01*
X172821600Y-114376200D02*
X173126400Y-114071400D01*
X150469600Y-114376200D02*
X148615400Y-112522000D01*
X146304000Y-83616800D02*
X138684000Y-83616800D01*
%TO.N,RAS_N*%
X129692400Y-68808600D02*
X121428400Y-68808600D01*
X163060599Y-121836399D02*
X129380199Y-121836399D01*
X129380199Y-121836399D02*
X129336800Y-121793000D01*
X120203999Y-67584199D02*
X121379000Y-68759200D01*
X117728999Y-67584199D02*
X120203999Y-67584199D01*
X121428400Y-68808600D02*
X121379000Y-68759200D01*
X117043200Y-68783200D02*
X117043200Y-68269998D01*
X163220400Y-121996200D02*
X163060599Y-121836399D01*
X117043200Y-68269998D02*
X117728999Y-67584199D01*
X107061000Y-68783200D02*
X117043200Y-68783200D01*
%TO.N,CAS_N*%
X107061000Y-71323200D02*
X117043200Y-71323200D01*
X118242201Y-70124199D02*
X120203999Y-70124199D01*
X120203999Y-70124199D02*
X121379000Y-71299200D01*
X117043200Y-71323200D02*
X118242201Y-70124199D01*
%TO.N,A10*%
X121943001Y-72474201D02*
X120814999Y-72474201D01*
X119639998Y-71299200D02*
X118839000Y-71299200D01*
X123221002Y-71196200D02*
X121943001Y-72474201D01*
X120814999Y-72474201D02*
X119639998Y-71299200D01*
X137566400Y-71196200D02*
X123221002Y-71196200D01*
%TO.N,A12*%
X117043200Y-73863200D02*
X118242201Y-72664199D01*
X136833999Y-73761600D02*
X121456600Y-73761600D01*
X121456600Y-73761600D02*
X121379000Y-73839200D01*
X118242201Y-72664199D02*
X120203999Y-72664199D01*
X107061000Y-73863200D02*
X117043200Y-73863200D01*
X120203999Y-72664199D02*
X121379000Y-73839200D01*
%TO.N,A13*%
X138658600Y-91262200D02*
X138684000Y-91236800D01*
X121943001Y-75014201D02*
X120650411Y-75014201D01*
X136108999Y-75717400D02*
X122646200Y-75717400D01*
X136042400Y-91262200D02*
X138658600Y-91262200D01*
X122646200Y-75717400D02*
X121943001Y-75014201D01*
X119475410Y-73839200D02*
X118839000Y-73839200D01*
X120650411Y-75014201D02*
X119475410Y-73839200D01*
%TO.N,A15*%
X116992400Y-76403200D02*
X118191401Y-75204199D01*
X120203999Y-75204199D02*
X121379000Y-76379200D01*
X121481533Y-76481733D02*
X121379000Y-76379200D01*
X107061000Y-76403200D02*
X116992400Y-76403200D01*
X135331200Y-93827600D02*
X138633200Y-93827600D01*
X118191401Y-75204199D02*
X120203999Y-75204199D01*
X138633200Y-93827600D02*
X138684000Y-93776800D01*
X135383999Y-76481733D02*
X121481533Y-76481733D01*
%TO.N,A11*%
X116941600Y-78943200D02*
X118140601Y-77744199D01*
X121380400Y-78917800D02*
X121379000Y-78919200D01*
X107061000Y-78943200D02*
X116941600Y-78943200D01*
X134658999Y-78917800D02*
X121380400Y-78917800D01*
X118140601Y-77744199D02*
X120203999Y-77744199D01*
X134721600Y-96316800D02*
X138684000Y-96316800D01*
X120203999Y-77744199D02*
X121379000Y-78919200D01*
%TO.N,A14*%
X119475410Y-78919200D02*
X118839000Y-78919200D01*
X133933999Y-80162400D02*
X120718610Y-80162400D01*
X133908800Y-98907600D02*
X138633200Y-98907600D01*
X138633200Y-98907600D02*
X138684000Y-98856800D01*
X120718610Y-80162400D02*
X119475410Y-78919200D01*
%TO.N,A8*%
X133121400Y-101396800D02*
X138684000Y-101396800D01*
X107061000Y-81483200D02*
X116941600Y-81483200D01*
X133184999Y-81459200D02*
X133208999Y-81483200D01*
X121379000Y-81459200D02*
X133184999Y-81459200D01*
X118140601Y-80284199D02*
X120203999Y-80284199D01*
X120203999Y-80284199D02*
X121379000Y-81459200D01*
X116941600Y-81483200D02*
X118140601Y-80284199D01*
%TO.N,OUT_N*%
X140925599Y-124376399D02*
X140806000Y-124256800D01*
X163220400Y-124536200D02*
X163060599Y-124376399D01*
X119475410Y-81459200D02*
X118839000Y-81459200D01*
X122154202Y-82423000D02*
X121943001Y-82634201D01*
X121943001Y-82634201D02*
X120650411Y-82634201D01*
X120650411Y-82634201D02*
X119475410Y-81459200D01*
X140792200Y-82423000D02*
X122154202Y-82423000D01*
X163060599Y-124376399D02*
X140925599Y-124376399D01*
%TO.N,WR_N*%
X131514801Y-116756399D02*
X131380400Y-116890800D01*
X118191401Y-82824199D02*
X120203999Y-82824199D01*
X163220400Y-116916200D02*
X163060599Y-116756399D01*
X163060599Y-116756399D02*
X131514801Y-116756399D01*
X121428400Y-84048600D02*
X121379000Y-83999200D01*
X107061000Y-84023200D02*
X116992400Y-84023200D01*
X131394200Y-84048600D02*
X121428400Y-84048600D01*
X120203999Y-82824199D02*
X121379000Y-83999200D01*
X116992400Y-84023200D02*
X118191401Y-82824199D01*
%TO.N,RD_N*%
X130588801Y-119296399D02*
X130581400Y-119303800D01*
X118089801Y-85364199D02*
X120203999Y-85364199D01*
X120203999Y-85364199D02*
X121379000Y-86539200D01*
X130581400Y-86537800D02*
X121380400Y-86537800D01*
X116890800Y-86563200D02*
X118089801Y-85364199D01*
X107061000Y-86563200D02*
X116890800Y-86563200D01*
X163220400Y-119456200D02*
X163060599Y-119296399D01*
X163060599Y-119296399D02*
X130588801Y-119296399D01*
X121380400Y-86537800D02*
X121379000Y-86539200D01*
%TO.N,A9*%
X132395000Y-89079200D02*
X132396400Y-89077800D01*
X107061000Y-89103200D02*
X116992400Y-89103200D01*
X138607800Y-104013000D02*
X138684000Y-103936800D01*
X118191401Y-87904199D02*
X120203999Y-87904199D01*
X120203999Y-87904199D02*
X121379000Y-89079200D01*
X116992400Y-89103200D02*
X118191401Y-87904199D01*
X132410200Y-104013000D02*
X138607800Y-104013000D01*
X121379000Y-89079200D02*
X132395000Y-89079200D01*
%TO.N,D4*%
X119475410Y-89079200D02*
X118839000Y-89079200D01*
X137642600Y-90170000D02*
X137558399Y-90254201D01*
X137558399Y-90254201D02*
X120650411Y-90254201D01*
X120650411Y-90254201D02*
X119475410Y-89079200D01*
%TO.N,IN_N*%
X137475201Y-92379800D02*
X137082602Y-91987201D01*
X120203999Y-90444199D02*
X121379000Y-91619200D01*
X107061000Y-91643200D02*
X116967000Y-91643200D01*
X116967000Y-91643200D02*
X118166001Y-90444199D01*
X140088401Y-126916399D02*
X140081000Y-126923800D01*
X118166001Y-90444199D02*
X120203999Y-90444199D01*
X140081000Y-92379800D02*
X137475201Y-92379800D01*
X121747001Y-91987201D02*
X121379000Y-91619200D01*
X137082602Y-91987201D02*
X121747001Y-91987201D01*
X163060599Y-126916399D02*
X140088401Y-126916399D01*
X163220400Y-127076200D02*
X163060599Y-126916399D01*
%TO.N,D7*%
X119639998Y-91619200D02*
X118839000Y-91619200D01*
X136833999Y-92811600D02*
X120832398Y-92811600D01*
X120832398Y-92811600D02*
X119639998Y-91619200D01*
%TO.N,INT_N*%
X141531000Y-95072200D02*
X136775601Y-95072200D01*
X118115201Y-92984199D02*
X120203999Y-92984199D01*
X136775601Y-95072200D02*
X136256002Y-94552601D01*
X176278008Y-110354790D02*
X176117398Y-110515400D01*
X136256002Y-94552601D02*
X121772401Y-94552601D01*
X185826400Y-111429800D02*
X185826400Y-110429800D01*
X120203999Y-92984199D02*
X121379000Y-94159200D01*
X121772401Y-94552601D02*
X121379000Y-94159200D01*
X176117398Y-110515400D02*
X141531000Y-110515400D01*
X116916200Y-94183200D02*
X118115201Y-92984199D01*
X185751390Y-110354790D02*
X176278008Y-110354790D01*
X185826400Y-110429800D02*
X185751390Y-110354790D01*
X107061000Y-94183200D02*
X116916200Y-94183200D01*
%TO.N,D1*%
X120959398Y-95478600D02*
X136108999Y-95478600D01*
X119639998Y-94159200D02*
X120959398Y-95478600D01*
X138531600Y-120269000D02*
X138684000Y-120421400D01*
X136042400Y-120269000D02*
X138531600Y-120269000D01*
X118839000Y-94159200D02*
X119639998Y-94159200D01*
%TO.N,TEST_N*%
X120203999Y-95524199D02*
X121379000Y-96699200D01*
X118267601Y-95524199D02*
X120203999Y-95524199D01*
X117068600Y-96723200D02*
X118267601Y-95524199D01*
X107061000Y-96723200D02*
X117068600Y-96723200D01*
%TO.N,D6*%
X119639998Y-96699200D02*
X120908598Y-97967800D01*
X135331200Y-122834400D02*
X138557000Y-122834400D01*
X120908598Y-97967800D02*
X135383999Y-97967800D01*
X118839000Y-96699200D02*
X119639998Y-96699200D01*
X138557000Y-122834400D02*
X138684000Y-122961400D01*
%TO.N,A0*%
X121403000Y-99263200D02*
X121379000Y-99239200D01*
X118216801Y-98064199D02*
X120203999Y-98064199D01*
X117017800Y-99263200D02*
X118216801Y-98064199D01*
X123088400Y-99263200D02*
X121403000Y-99263200D01*
X120203999Y-98064199D02*
X121379000Y-99239200D01*
X138684000Y-56972200D02*
X123164600Y-56972200D01*
X107061000Y-99263200D02*
X117017800Y-99263200D01*
%TO.N,D3*%
X138607800Y-125425200D02*
X138684000Y-125501400D01*
X134543800Y-125425200D02*
X138607800Y-125425200D01*
X118839000Y-99239200D02*
X119639998Y-99239200D01*
X119639998Y-99239200D02*
X120959398Y-100558600D01*
X120959398Y-100558600D02*
X134543800Y-100558600D01*
%TO.N,A1*%
X118274999Y-100604199D02*
X120203999Y-100604199D01*
X138684000Y-59512200D02*
X124016600Y-59512200D01*
X123875800Y-101650800D02*
X121507400Y-101650800D01*
X124016600Y-59512200D02*
X123889600Y-59639200D01*
X120203999Y-100604199D02*
X121379000Y-101779200D01*
X121507400Y-101650800D02*
X121379000Y-101779200D01*
X107061000Y-101803200D02*
X117075998Y-101803200D01*
X117075998Y-101803200D02*
X118274999Y-100604199D01*
%TO.N,D5*%
X138633200Y-127990600D02*
X138684000Y-128041400D01*
X133832600Y-127990600D02*
X138633200Y-127990600D01*
X133734599Y-102954201D02*
X133818800Y-102870000D01*
X119639998Y-101779200D02*
X120814999Y-102954201D01*
X118839000Y-101779200D02*
X119639998Y-101779200D01*
X120814999Y-102954201D02*
X133734599Y-102954201D01*
%TO.N,D0*%
X119639998Y-104319200D02*
X120857798Y-105537000D01*
X132994400Y-130581400D02*
X138684000Y-130581400D01*
X120857798Y-105537000D02*
X133070600Y-105537000D01*
X118839000Y-104319200D02*
X119639998Y-104319200D01*
%TO.N,A4*%
X120203999Y-105684199D02*
X121379000Y-106859200D01*
X138684000Y-62052200D02*
X124614600Y-62052200D01*
X121532800Y-106705400D02*
X121379000Y-106859200D01*
X117043200Y-106883200D02*
X118242201Y-105684199D01*
X118242201Y-105684199D02*
X120203999Y-105684199D01*
X124510800Y-106705400D02*
X121532800Y-106705400D01*
X107061000Y-106883200D02*
X117043200Y-106883200D01*
%TO.N,D2*%
X132105400Y-133146800D02*
X138658600Y-133146800D01*
X119639998Y-106859200D02*
X120814999Y-108034201D01*
X132337599Y-108034201D02*
X132345600Y-108026200D01*
X138658600Y-133146800D02*
X138684000Y-133121400D01*
X120814999Y-108034201D02*
X132337599Y-108034201D01*
X118839000Y-106859200D02*
X119639998Y-106859200D01*
%TO.N,WAIT_N*%
X132693601Y-108751201D02*
X126429601Y-108751201D01*
X184090612Y-108625190D02*
X132819612Y-108625190D01*
X116992400Y-109423200D02*
X118191401Y-108224199D01*
X107061000Y-109423200D02*
X116992400Y-109423200D01*
X185826400Y-104927400D02*
X185826400Y-106889402D01*
X185826400Y-106889402D02*
X184090612Y-108625190D01*
X118191401Y-108224199D02*
X120203999Y-108224199D01*
X120203999Y-108224199D02*
X121379000Y-109399200D01*
X126429601Y-108751201D02*
X126325799Y-108647399D01*
X122130801Y-108647399D02*
X121379000Y-109399200D01*
X132819612Y-108625190D02*
X132693601Y-108751201D01*
X126325799Y-108647399D02*
X122130801Y-108647399D01*
%TO.N,A3*%
X125298200Y-109372400D02*
X124096399Y-110574201D01*
X138684000Y-64592200D02*
X125365000Y-64592200D01*
X119639998Y-109399200D02*
X118839000Y-109399200D01*
X124096399Y-110574201D02*
X120814999Y-110574201D01*
X125365000Y-64592200D02*
X125339600Y-64617600D01*
X120814999Y-110574201D02*
X119639998Y-109399200D01*
%TO.N,A5*%
X116916200Y-111963200D02*
X118115201Y-110764199D01*
X121456600Y-111861600D02*
X121379000Y-111939200D01*
X118115201Y-110764199D02*
X120203999Y-110764199D01*
X138684000Y-67132200D02*
X126161800Y-67132200D01*
X120203999Y-110764199D02*
X121379000Y-111939200D01*
X126187200Y-111861600D02*
X121456600Y-111861600D01*
X107061000Y-111963200D02*
X116916200Y-111963200D01*
X126161800Y-67132200D02*
X126111000Y-67183000D01*
%TO.N,A7*%
X119475410Y-111939200D02*
X118839000Y-111939200D01*
X127228600Y-69672200D02*
X127177800Y-69621400D01*
X120650411Y-113114201D02*
X119475410Y-111939200D01*
X138684000Y-69672200D02*
X127228600Y-69672200D01*
X127000000Y-112699800D02*
X126585599Y-113114201D01*
X126585599Y-113114201D02*
X120650411Y-113114201D01*
%TO.N,A6*%
X127928200Y-72212200D02*
X127902800Y-72186800D01*
X120763009Y-115766799D02*
X119475410Y-114479200D01*
X119475410Y-114479200D02*
X118839000Y-114479200D01*
X138684000Y-72212200D02*
X127928200Y-72212200D01*
X127889000Y-115366800D02*
X127489001Y-115766799D01*
X127489001Y-115766799D02*
X120763009Y-115766799D01*
%TO.N,5V*%
X107061000Y-117043200D02*
X116992400Y-117043200D01*
X118191401Y-115844199D02*
X120203999Y-115844199D01*
X120203999Y-115844199D02*
X121379000Y-117019200D01*
X116992400Y-117043200D02*
X118191401Y-115844199D01*
%TO.N,A2*%
X128200201Y-118382999D02*
X120202799Y-118382999D01*
X128600200Y-117983000D02*
X128200201Y-118382999D01*
X128729400Y-74752200D02*
X128627800Y-74853800D01*
X138684000Y-74752200D02*
X128729400Y-74752200D01*
X120202799Y-118382999D02*
X118839000Y-117019200D01*
%TO.N,WAIT*%
X171729914Y-104470200D02*
X159131000Y-104470200D01*
X184174680Y-103545680D02*
X172654434Y-103545680D01*
X184556400Y-103927400D02*
X184174680Y-103545680D01*
X184556400Y-104927400D02*
X184556400Y-103927400D01*
X172654434Y-103545680D02*
X171729914Y-104470200D01*
%TO.N,POT_VGA_BLUE*%
X195100841Y-76024520D02*
X194274520Y-76024520D01*
X206300989Y-75924511D02*
X195200850Y-75924511D01*
X194150000Y-74987500D02*
X194175000Y-74962500D01*
X194150000Y-75900000D02*
X194150000Y-74987500D01*
X194274520Y-76024520D02*
X194150000Y-75900000D01*
X195200850Y-75924511D02*
X195100841Y-76024520D01*
X206575500Y-75650000D02*
X206300989Y-75924511D01*
%TO.N,POT_VGA_GREEN*%
X207300000Y-70850000D02*
X198100000Y-70850000D01*
X197650000Y-71300000D02*
X190999639Y-71300000D01*
X198100000Y-70850000D02*
X197650000Y-71300000D01*
X189625000Y-69925361D02*
X189625000Y-69237500D01*
X190999639Y-71300000D02*
X189625000Y-69925361D01*
%TO.N,POT_VGA_RED*%
X191476134Y-76024520D02*
X189774520Y-76024520D01*
X193751614Y-78300000D02*
X191476134Y-76024520D01*
X189625000Y-75875000D02*
X189625000Y-74962500D01*
X208050000Y-78300000D02*
X193751614Y-78300000D01*
X189774520Y-76024520D02*
X189625000Y-75875000D01*
%TO.N,SCK*%
X174371000Y-101930200D02*
X200569800Y-101930200D01*
X192225000Y-66775000D02*
X192225000Y-69237500D01*
X193995400Y-62874800D02*
X193995400Y-65004600D01*
X193995400Y-63563064D02*
X193995400Y-62874800D01*
X193995400Y-65004600D02*
X192225000Y-66775000D01*
X200569800Y-101930200D02*
X200750000Y-101750000D01*
X194705294Y-64272958D02*
X193995400Y-63563064D01*
%TO.N,MOSI*%
X194041000Y-88950000D02*
X195520000Y-87471000D01*
X192250000Y-88950000D02*
X194041000Y-88950000D01*
X181800000Y-88950000D02*
X192250000Y-88950000D01*
X191795400Y-62874800D02*
X191575000Y-63095200D01*
X191575000Y-63095200D02*
X191575000Y-69237500D01*
X191600000Y-70575500D02*
X191600000Y-69262500D01*
X191600000Y-69262500D02*
X191575000Y-69237500D01*
%TO.N,VGA_HSYNC*%
X212765600Y-115419240D02*
X210518805Y-115419240D01*
X210518805Y-115419240D02*
X209499565Y-114400000D01*
X209499565Y-114400000D02*
X191150000Y-114400000D01*
X191150000Y-114400000D02*
X190400000Y-113650000D01*
X190400000Y-113650000D02*
X190400000Y-107550000D01*
%TO.N,VGA_VSYNC*%
X210516265Y-117710320D02*
X209155945Y-116350000D01*
X190400000Y-116350000D02*
X189550000Y-115500000D01*
X212765600Y-117710320D02*
X210516265Y-117710320D01*
X189550000Y-115500000D02*
X189550000Y-108400000D01*
X209155945Y-116350000D02*
X190400000Y-116350000D01*
%TO.N,READ_N*%
X158241200Y-107900000D02*
X138650000Y-107900000D01*
X159131000Y-107010200D02*
X158241200Y-107900000D01*
%TO.N,MISO*%
X192225000Y-73375000D02*
X192525500Y-73074500D01*
X198678800Y-65938400D02*
X197287198Y-65938400D01*
X197287198Y-65938400D02*
X196195400Y-64846602D01*
X196195400Y-64846602D02*
X196195400Y-62874800D01*
X192225000Y-74962500D02*
X192225000Y-73375000D01*
X180416200Y-92329000D02*
X198780400Y-92329000D01*
X192525500Y-73074500D02*
X198678800Y-73074500D01*
%TO.N,DD3*%
X157300000Y-128050000D02*
X157291400Y-128041400D01*
X157291400Y-128041400D02*
X146304000Y-128041400D01*
%TO.N,DD4*%
X154031400Y-117881400D02*
X146304000Y-117881400D01*
X154050000Y-117900000D02*
X154031400Y-117881400D01*
%TO.N,DD5*%
X164350000Y-86700000D02*
X164340200Y-86690200D01*
X146304000Y-130581400D02*
X146463311Y-130740711D01*
X164359289Y-130740711D02*
X164450000Y-130650000D01*
X164340200Y-86690200D02*
X159131000Y-86690200D01*
X146463311Y-130740711D02*
X164359289Y-130740711D01*
%TO.N,DD6*%
X156448600Y-125501400D02*
X146304000Y-125501400D01*
X156450000Y-125500000D02*
X156448600Y-125501400D01*
%TO.N,DD7*%
X154850000Y-120450000D02*
X154821400Y-120421400D01*
X154821400Y-120421400D02*
X146304000Y-120421400D01*
%TO.N,DD2*%
X160500000Y-135700000D02*
X160461400Y-135661400D01*
X160461400Y-135661400D02*
X146304000Y-135661400D01*
%TO.N,DD0*%
X161278600Y-133121400D02*
X146304000Y-133121400D01*
X161300000Y-133100000D02*
X161278600Y-133121400D01*
%TO.N,DD1*%
X155700000Y-122950000D02*
X155688600Y-122961400D01*
X155688600Y-122961400D02*
X146304000Y-122961400D01*
%TO.N,AA14*%
X146304000Y-101396800D02*
X147103999Y-100596801D01*
X171304199Y-100596801D02*
X171351000Y-100550000D01*
X147103999Y-100596801D02*
X171304199Y-100596801D01*
%TO.N,AA7*%
X146304000Y-72212200D02*
X154037800Y-72212200D01*
X174371000Y-58779000D02*
X174371000Y-58750200D01*
X155247600Y-59900000D02*
X173250000Y-59900000D01*
X154597600Y-60550000D02*
X155247600Y-59900000D01*
X173250000Y-59900000D02*
X174371000Y-58779000D01*
X154597600Y-71652400D02*
X154597600Y-60550000D01*
X154037800Y-72212200D02*
X154597600Y-71652400D01*
%TO.N,AA6*%
X155659800Y-61290200D02*
X159131000Y-61290200D01*
X146304000Y-74752200D02*
X154297800Y-74752200D01*
X155047120Y-74002880D02*
X155047120Y-61902880D01*
X155047120Y-61902880D02*
X155659800Y-61290200D01*
X154297800Y-74752200D02*
X155047120Y-74002880D01*
%TO.N,AA5*%
X153477800Y-69672200D02*
X154148080Y-69001920D01*
X146304000Y-69672200D02*
X153477800Y-69672200D01*
X154148080Y-69001920D02*
X154148080Y-59401920D01*
X154799800Y-58750200D02*
X159131000Y-58750200D01*
X154148080Y-59401920D02*
X154799800Y-58750200D01*
%TO.N,AA4*%
X146304000Y-64592200D02*
X152557800Y-64592200D01*
X153839800Y-56210200D02*
X159131000Y-56210200D01*
X152557800Y-64592200D02*
X153249040Y-63900960D01*
X153249040Y-56800960D02*
X153839800Y-56210200D01*
X153249040Y-63900960D02*
X153249040Y-56800960D01*
%TO.N,AA3*%
X152967800Y-67132200D02*
X153698560Y-66401440D01*
X146304000Y-67132200D02*
X152967800Y-67132200D01*
X173181200Y-57400000D02*
X174371000Y-56210200D01*
X154350000Y-57400000D02*
X173181200Y-57400000D01*
X153698560Y-66401440D02*
X153698560Y-58051440D01*
X153698560Y-58051440D02*
X154350000Y-57400000D01*
%TO.N,AA2*%
X180591011Y-60724489D02*
X174936711Y-60724489D01*
X181465500Y-59850000D02*
X180591011Y-60724489D01*
X173211200Y-62450000D02*
X174371000Y-61290200D01*
X155496640Y-76603360D02*
X155496640Y-63153360D01*
X146304000Y-77292200D02*
X154807800Y-77292200D01*
X200550000Y-59850000D02*
X181465500Y-59850000D01*
X154807800Y-77292200D02*
X155496640Y-76603360D01*
X156200000Y-62450000D02*
X173211200Y-62450000D01*
X155496640Y-63153360D02*
X156200000Y-62450000D01*
X174936711Y-60724489D02*
X174371000Y-61290200D01*
%TO.N,AA1*%
X146304000Y-62052200D02*
X152097800Y-62052200D01*
X173191200Y-54850000D02*
X174371000Y-53670200D01*
X152799520Y-55400480D02*
X153350000Y-54850000D01*
X176054311Y-55353511D02*
X174371000Y-53670200D01*
X201300000Y-55350000D02*
X201296489Y-55353511D01*
X201296489Y-55353511D02*
X176054311Y-55353511D01*
X152097800Y-62052200D02*
X152799520Y-61350480D01*
X153350000Y-54850000D02*
X173191200Y-54850000D01*
X152799520Y-61350480D02*
X152799520Y-55400480D01*
%TO.N,AA11*%
X146304000Y-98856800D02*
X147103999Y-98056801D01*
X170619699Y-98056801D02*
X170626500Y-98050000D01*
X147103999Y-98056801D02*
X170619699Y-98056801D01*
%TO.N,AA0*%
X173374320Y-57825680D02*
X172850000Y-58350000D01*
X152350000Y-58850000D02*
X152350000Y-54300000D01*
X152350000Y-54300000D02*
X152979800Y-53670200D01*
X152979800Y-53670200D02*
X159131000Y-53670200D01*
X204500000Y-58100000D02*
X175428268Y-58100000D01*
X172850000Y-58350000D02*
X161550000Y-58350000D01*
X151687800Y-59512200D02*
X152350000Y-58850000D01*
X175153948Y-57825680D02*
X173374320Y-57825680D01*
X146304000Y-59512200D02*
X151687800Y-59512200D01*
X175428268Y-58100000D02*
X175153948Y-57825680D01*
%TO.N,AA9*%
X147103999Y-105676801D02*
X172676801Y-105676801D01*
X146304000Y-106476800D02*
X147103999Y-105676801D01*
X172676801Y-105676801D02*
X172800000Y-105800000D01*
%TO.N,AA8*%
X147103999Y-103136801D02*
X172038699Y-103136801D01*
X146304000Y-103936800D02*
X147103999Y-103136801D01*
X172038699Y-103136801D02*
X172075500Y-103100000D01*
%TO.N,DBUS_SEL_N*%
X159141400Y-115341400D02*
X159150000Y-115350000D01*
X146304000Y-115341400D02*
X159141400Y-115341400D01*
%TO.N,BUTTON*%
X184450000Y-132050000D02*
X200550000Y-132050000D01*
X177950000Y-132050000D02*
X184450000Y-132050000D01*
%TO.N,LED_GREEN*%
X199850000Y-71800000D02*
X185287200Y-71800000D01*
X185287200Y-71800000D02*
X180416200Y-66929000D01*
%TO.N,LED_BLUE*%
X198030200Y-82219800D02*
X203225400Y-82219800D01*
X197900000Y-82350000D02*
X198030200Y-82219800D01*
X203225400Y-82219800D02*
X203276200Y-82169000D01*
%TO.N,LED_RED*%
X191490600Y-77063600D02*
X182930800Y-77063600D01*
X182930800Y-77063600D02*
X180416200Y-74549000D01*
%TO.N,Net-(J3-Pad1)*%
X189650000Y-62929400D02*
X189595400Y-62874800D01*
X189650000Y-65150000D02*
X189650000Y-62929400D01*
%TO.N,CS_SD_CARD*%
X196781000Y-94869000D02*
X196800000Y-94850000D01*
X190700000Y-62870200D02*
X190695400Y-62874800D01*
X190700000Y-61416699D02*
X190700000Y-62870200D01*
X195520000Y-84042000D02*
X190108000Y-84042000D01*
X190108000Y-84042000D02*
X190100000Y-84050000D01*
X180416200Y-94869000D02*
X196781000Y-94869000D01*
%TO.N,Net-(J3-Pad8)*%
X199500000Y-65550000D02*
X197949311Y-63999311D01*
X194350000Y-67500000D02*
X198400000Y-67500000D01*
X197949311Y-63999311D02*
X197720889Y-63999311D01*
X197720889Y-63999311D02*
X197295400Y-63573822D01*
X199500000Y-66400000D02*
X199500000Y-65550000D01*
X197295400Y-63573822D02*
X197295400Y-62874800D01*
X198400000Y-67500000D02*
X199500000Y-66400000D01*
%TO.N,FULL_ADDR*%
X211500000Y-79000000D02*
X210871000Y-79629000D01*
X210871000Y-79629000D02*
X203276200Y-79629000D01*
X211500000Y-66750000D02*
X211500000Y-79000000D01*
%TO.N,DONE*%
X199375386Y-72350000D02*
X181665500Y-72350000D01*
X177250000Y-73300000D02*
X176600000Y-73950000D01*
X199549897Y-72524511D02*
X199375386Y-72350000D01*
X176600000Y-73950000D02*
X176600000Y-78450000D01*
X176600000Y-78450000D02*
X175979800Y-79070200D01*
X202760689Y-72524511D02*
X199549897Y-72524511D01*
X180715500Y-73300000D02*
X177250000Y-73300000D01*
X181665500Y-72350000D02*
X180715500Y-73300000D01*
X203276200Y-72009000D02*
X202760689Y-72524511D01*
X175979800Y-79070200D02*
X174371000Y-79070200D01*
%TO.N,VGA_RGB*%
X193699114Y-79024500D02*
X197900000Y-79024500D01*
X194837500Y-74950000D02*
X194825000Y-74962500D01*
X192674614Y-78000000D02*
X193699114Y-79024500D01*
X188962500Y-74950000D02*
X188975000Y-74962500D01*
X188212500Y-69237500D02*
X188200000Y-69250000D01*
X188200000Y-74950000D02*
X188962500Y-74950000D01*
X196587500Y-74962500D02*
X196600000Y-74950000D01*
X188975000Y-69237500D02*
X188212500Y-69237500D01*
X186400000Y-78000000D02*
X192674614Y-78000000D01*
X185895511Y-91204489D02*
X186400000Y-90700000D01*
X174936711Y-91204489D02*
X185895511Y-91204489D01*
X186400000Y-74950000D02*
X188200000Y-74950000D01*
X197850000Y-74950000D02*
X194837500Y-74950000D01*
X174371000Y-91770200D02*
X174936711Y-91204489D01*
%TO.N,CS_FPGA*%
X204690200Y-99390200D02*
X204700000Y-99400000D01*
X174371000Y-99390200D02*
X204690200Y-99390200D01*
%TO.N,REQ*%
X176110200Y-81610200D02*
X176650000Y-82150000D01*
X176650000Y-85400000D02*
X177374489Y-86124489D01*
X177374489Y-86124489D02*
X202151689Y-86124489D01*
X174371000Y-81610200D02*
X176110200Y-81610200D01*
X202151689Y-86124489D02*
X203276200Y-87249000D01*
X176650000Y-82150000D02*
X176650000Y-85400000D01*
%TO.N,CS_MCP43x1*%
X192950000Y-70575500D02*
X192950000Y-69312500D01*
X192950000Y-69312500D02*
X192875000Y-69237500D01*
X193000000Y-79350000D02*
X192479001Y-78829001D01*
X192479001Y-78829001D02*
X181216199Y-78829001D01*
X181216199Y-78829001D02*
X180416200Y-79629000D01*
%TO.N,Z80_WR_N*%
X167589800Y-94310200D02*
X159131000Y-94310200D01*
X167600000Y-94300000D02*
X167589800Y-94310200D01*
%TO.N,Z80_RD_N*%
X166850000Y-96850000D02*
X166849800Y-96850200D01*
X166849800Y-96850200D02*
X159131000Y-96850200D01*
%TO.N,Z80_OUT_N*%
X165959800Y-99390200D02*
X159131000Y-99390200D01*
X166000000Y-99350000D02*
X165959800Y-99390200D01*
%TO.N,Z80_IN_N*%
X165174500Y-102000000D02*
X165104700Y-101930200D01*
X165104700Y-101930200D02*
X159131000Y-101930200D01*
%TD*%
M02*
