%TF.GenerationSoftware,KiCad,Pcbnew,(6.0.0-0)*%
%TF.CreationDate,2022-01-11T18:58:16-08:00*%
%TF.ProjectId,TRS-IO-M1,5452532d-494f-42d4-9d31-2e6b69636164,rev?*%
%TF.SameCoordinates,Original*%
%TF.FileFunction,Soldermask,Bot*%
%TF.FilePolarity,Negative*%
%FSLAX46Y46*%
G04 Gerber Fmt 4.6, Leading zero omitted, Abs format (unit mm)*
G04 Created by KiCad (PCBNEW (6.0.0-0)) date 2022-01-11 18:58:16*
%MOMM*%
%LPD*%
G01*
G04 APERTURE LIST*
G04 Aperture macros list*
%AMRoundRect*
0 Rectangle with rounded corners*
0 $1 Rounding radius*
0 $2 $3 $4 $5 $6 $7 $8 $9 X,Y pos of 4 corners*
0 Add a 4 corners polygon primitive as box body*
4,1,4,$2,$3,$4,$5,$6,$7,$8,$9,$2,$3,0*
0 Add four circle primitives for the rounded corners*
1,1,$1+$1,$2,$3*
1,1,$1+$1,$4,$5*
1,1,$1+$1,$6,$7*
1,1,$1+$1,$8,$9*
0 Add four rect primitives between the rounded corners*
20,1,$1+$1,$2,$3,$4,$5,0*
20,1,$1+$1,$4,$5,$6,$7,0*
20,1,$1+$1,$6,$7,$8,$9,0*
20,1,$1+$1,$8,$9,$2,$3,0*%
G04 Aperture macros list end*
%ADD10RoundRect,0.051000X-0.850000X-0.850000X0.850000X-0.850000X0.850000X0.850000X-0.850000X0.850000X0*%
%ADD11O,1.802000X1.802000*%
%ADD12RoundRect,0.051000X3.810000X-0.889000X3.810000X0.889000X-3.810000X0.889000X-3.810000X-0.889000X0*%
%ADD13RoundRect,0.051000X-0.800000X-0.800000X0.800000X-0.800000X0.800000X0.800000X-0.800000X0.800000X0*%
%ADD14O,1.702000X1.702000*%
%ADD15C,1.702000*%
%ADD16O,2.102000X1.302000*%
%ADD17RoundRect,0.051000X-0.525000X-0.750000X0.525000X-0.750000X0.525000X0.750000X-0.525000X0.750000X0*%
%ADD18O,1.152000X1.602000*%
%ADD19RoundRect,0.051000X0.850000X0.850000X-0.850000X0.850000X-0.850000X-0.850000X0.850000X-0.850000X0*%
%ADD20RoundRect,0.051000X-0.535000X-0.900000X0.535000X-0.900000X0.535000X0.900000X-0.535000X0.900000X0*%
%ADD21O,1.172000X1.902000*%
%ADD22C,2.102000*%
%ADD23C,0.902000*%
%ADD24C,5.102000*%
%ADD25C,5.103260*%
%ADD26C,1.300880*%
G04 APERTURE END LIST*
D10*
%TO.C,J1*%
X118839000Y-68759200D03*
D11*
X121379000Y-68759200D03*
X118839000Y-71299200D03*
X121379000Y-71299200D03*
X118839000Y-73839200D03*
X121379000Y-73839200D03*
X118839000Y-76379200D03*
X121379000Y-76379200D03*
X118839000Y-78919200D03*
X121379000Y-78919200D03*
X118839000Y-81459200D03*
X121379000Y-81459200D03*
X118839000Y-83999200D03*
X121379000Y-83999200D03*
X118839000Y-86539200D03*
X121379000Y-86539200D03*
X118839000Y-89079200D03*
X121379000Y-89079200D03*
X118839000Y-91619200D03*
X121379000Y-91619200D03*
X118839000Y-94159200D03*
X121379000Y-94159200D03*
X118839000Y-96699200D03*
X121379000Y-96699200D03*
X118839000Y-99239200D03*
X121379000Y-99239200D03*
X118839000Y-101779200D03*
X121379000Y-101779200D03*
X118839000Y-104319200D03*
X121379000Y-104319200D03*
X118839000Y-106859200D03*
X121379000Y-106859200D03*
X118839000Y-109399200D03*
X121379000Y-109399200D03*
X118839000Y-111939200D03*
X121379000Y-111939200D03*
X118839000Y-114479200D03*
X121379000Y-114479200D03*
X118839000Y-117019200D03*
X121379000Y-117019200D03*
%TD*%
D12*
%TO.C,J2*%
X107061000Y-68783200D03*
X107061000Y-71323200D03*
X107061000Y-73863200D03*
X107061000Y-76403200D03*
X107061000Y-78943200D03*
X107061000Y-81483200D03*
X107061000Y-84023200D03*
X107061000Y-86563200D03*
X107061000Y-89103200D03*
X107061000Y-91643200D03*
X107061000Y-94183200D03*
X107061000Y-96723200D03*
X107061000Y-99263200D03*
X107061000Y-101803200D03*
X107061000Y-104343200D03*
X107061000Y-106883200D03*
X107061000Y-109423200D03*
X107061000Y-111963200D03*
X107061000Y-114503200D03*
X107061000Y-117043200D03*
%TD*%
D13*
%TO.C,U3*%
X138684000Y-54432200D03*
D14*
X138684000Y-56972200D03*
X138684000Y-59512200D03*
X138684000Y-62052200D03*
X138684000Y-64592200D03*
X138684000Y-67132200D03*
X138684000Y-69672200D03*
X138684000Y-72212200D03*
X138684000Y-74752200D03*
X138684000Y-77292200D03*
X146304000Y-77292200D03*
X146304000Y-74752200D03*
X146304000Y-72212200D03*
X146304000Y-69672200D03*
X146304000Y-67132200D03*
X146304000Y-64592200D03*
X146304000Y-62052200D03*
X146304000Y-59512200D03*
X146304000Y-56972200D03*
X146304000Y-54432200D03*
%TD*%
D13*
%TO.C,U6*%
X163220400Y-114376200D03*
D14*
X163220400Y-116916200D03*
X163220400Y-119456200D03*
X163220400Y-121996200D03*
X163220400Y-124536200D03*
X163220400Y-127076200D03*
X163220400Y-129616200D03*
X163220400Y-132156200D03*
X163220400Y-134696200D03*
X163220400Y-137236200D03*
X170840400Y-137236200D03*
X170840400Y-134696200D03*
X170840400Y-132156200D03*
X170840400Y-129616200D03*
X170840400Y-127076200D03*
X170840400Y-124536200D03*
X170840400Y-121996200D03*
X170840400Y-119456200D03*
X170840400Y-116916200D03*
X170840400Y-114376200D03*
%TD*%
D13*
%TO.C,U5*%
X138684000Y-112801400D03*
D14*
X138684000Y-115341400D03*
X138684000Y-117881400D03*
X138684000Y-120421400D03*
X138684000Y-122961400D03*
X138684000Y-125501400D03*
X138684000Y-128041400D03*
X138684000Y-130581400D03*
X138684000Y-133121400D03*
X138684000Y-135661400D03*
X146304000Y-135661400D03*
X146304000Y-133121400D03*
X146304000Y-130581400D03*
X146304000Y-128041400D03*
X146304000Y-125501400D03*
X146304000Y-122961400D03*
X146304000Y-120421400D03*
X146304000Y-117881400D03*
X146304000Y-115341400D03*
X146304000Y-112801400D03*
%TD*%
D15*
%TO.C,R8*%
X187900000Y-80613000D03*
D14*
X195520000Y-80613000D03*
%TD*%
D15*
%TO.C,R7*%
X187900000Y-84042000D03*
D14*
X195520000Y-84042000D03*
%TD*%
D15*
%TO.C,R6*%
X187900000Y-87471000D03*
D14*
X195520000Y-87471000D03*
%TD*%
D16*
%TO.C,U2*%
X174371000Y-109550200D03*
X174371000Y-107010200D03*
X174371000Y-104470200D03*
X174371000Y-101930200D03*
X174371000Y-99390200D03*
X174371000Y-96850200D03*
X174371000Y-94310200D03*
X174371000Y-91770200D03*
X174371000Y-89230200D03*
X174371000Y-86690200D03*
X174371000Y-84150200D03*
X174371000Y-81610200D03*
X174371000Y-79070200D03*
X174371000Y-76530200D03*
X174371000Y-73990200D03*
X174371000Y-71450200D03*
X174371000Y-68910200D03*
X174371000Y-66370200D03*
X174371000Y-63830200D03*
X174371000Y-61290200D03*
X174371000Y-58750200D03*
X174371000Y-56210200D03*
X174371000Y-53670200D03*
X174371000Y-51130200D03*
X159131000Y-51130200D03*
X159131000Y-53670200D03*
X159131000Y-56210200D03*
X159131000Y-58750200D03*
X159131000Y-61290200D03*
X159131000Y-63830200D03*
X159131000Y-66370200D03*
X159131000Y-68910200D03*
X159131000Y-71450200D03*
X159131000Y-73990200D03*
X159131000Y-76530200D03*
X159131000Y-79070200D03*
X159131000Y-81610200D03*
X159131000Y-84150200D03*
X159131000Y-86690200D03*
X159131000Y-89230200D03*
X159131000Y-91770200D03*
X159131000Y-94310200D03*
X159131000Y-96850200D03*
X159131000Y-99390200D03*
X159131000Y-101930200D03*
X159131000Y-104470200D03*
X159131000Y-107010200D03*
X159131000Y-109550200D03*
%TD*%
D17*
%TO.C,Q2*%
X183286400Y-111429800D03*
D18*
X184556400Y-111429800D03*
X185826400Y-111429800D03*
%TD*%
D17*
%TO.C,Q1*%
X183286400Y-104927400D03*
D18*
X184556400Y-104927400D03*
X185826400Y-104927400D03*
%TD*%
D15*
%TO.C,C2*%
X148615400Y-83312000D03*
X151115400Y-83312000D03*
%TD*%
%TO.C,C1*%
X148666200Y-54127400D03*
X151166200Y-54127400D03*
%TD*%
D19*
%TO.C,J5*%
X211500000Y-66750000D03*
D11*
X211500000Y-64210000D03*
%TD*%
D19*
%TO.C,J4*%
X207206400Y-66750000D03*
D11*
X207206400Y-64210000D03*
%TD*%
D15*
%TO.C,C5*%
X187200000Y-65550000D03*
X184700000Y-65550000D03*
%TD*%
%TO.C,C4*%
X173126400Y-114071400D03*
X175626400Y-114071400D03*
%TD*%
%TO.C,C3*%
X148615400Y-112522000D03*
X151115400Y-112522000D03*
%TD*%
%TO.C,R5*%
X187900000Y-90900000D03*
D14*
X195520000Y-90900000D03*
%TD*%
D20*
%TO.C,D1*%
X193065400Y-134543800D03*
D21*
X194335400Y-134543800D03*
X195605400Y-134543800D03*
X196875400Y-134543800D03*
%TD*%
D13*
%TO.C,U4*%
X138684000Y-83616800D03*
D14*
X138684000Y-86156800D03*
X138684000Y-88696800D03*
X138684000Y-91236800D03*
X138684000Y-93776800D03*
X138684000Y-96316800D03*
X138684000Y-98856800D03*
X138684000Y-101396800D03*
X138684000Y-103936800D03*
X138684000Y-106476800D03*
X146304000Y-106476800D03*
X146304000Y-103936800D03*
X146304000Y-101396800D03*
X146304000Y-98856800D03*
X146304000Y-96316800D03*
X146304000Y-93776800D03*
X146304000Y-91236800D03*
X146304000Y-88696800D03*
X146304000Y-86156800D03*
X146304000Y-83616800D03*
%TD*%
D15*
%TO.C,R3*%
X195605400Y-120827800D03*
D14*
X195605400Y-128447800D03*
%TD*%
D15*
%TO.C,R2*%
X199161400Y-120827800D03*
D14*
X199161400Y-128447800D03*
%TD*%
D13*
%TO.C,U1*%
X180416200Y-51689000D03*
D14*
X180416200Y-54229000D03*
X180416200Y-56769000D03*
X180416200Y-59309000D03*
X180416200Y-61849000D03*
X180416200Y-64389000D03*
X180416200Y-66929000D03*
X180416200Y-69469000D03*
X180416200Y-72009000D03*
X180416200Y-74549000D03*
X180416200Y-77089000D03*
X180416200Y-79629000D03*
X180416200Y-82169000D03*
X180416200Y-84709000D03*
X180416200Y-87249000D03*
X180416200Y-89789000D03*
X180416200Y-92329000D03*
X180416200Y-94869000D03*
X180416200Y-97409000D03*
X203276200Y-97409000D03*
X203276200Y-94869000D03*
X203276200Y-92329000D03*
X203276200Y-89789000D03*
X203276200Y-87249000D03*
X203276200Y-84709000D03*
X203276200Y-82169000D03*
X203276200Y-79629000D03*
X203276200Y-77089000D03*
X203276200Y-74549000D03*
X203276200Y-72009000D03*
X203276200Y-69469000D03*
X203276200Y-66929000D03*
X203276200Y-64389000D03*
X203276200Y-61849000D03*
X203276200Y-59309000D03*
X203276200Y-56769000D03*
X203276200Y-54229000D03*
X203276200Y-51752500D03*
%TD*%
D15*
%TO.C,R4*%
X192874900Y-103809800D03*
D14*
X200494900Y-103809800D03*
%TD*%
D22*
%TO.C,SW1*%
X177950000Y-136550000D03*
X184450000Y-136550000D03*
X184450000Y-132050000D03*
X177950000Y-132050000D03*
%TD*%
D15*
%TO.C,R1*%
X192049400Y-120827800D03*
D14*
X192049400Y-128447800D03*
%TD*%
D23*
%TO.C,H1*%
X118400000Y-51575000D03*
X117074175Y-52124175D03*
D24*
X118400000Y-53450000D03*
D23*
X118400000Y-55325000D03*
X119725825Y-52124175D03*
X117074175Y-54775825D03*
X116525000Y-53450000D03*
X119725825Y-54775825D03*
X120275000Y-53450000D03*
%TD*%
%TO.C,H2*%
X207975000Y-53000000D03*
X209850000Y-54875000D03*
X209850000Y-51125000D03*
X211725000Y-53000000D03*
X208524175Y-54325825D03*
X211175825Y-51674175D03*
X208524175Y-51674175D03*
X211175825Y-54325825D03*
D24*
X209850000Y-53000000D03*
%TD*%
%TO.C,H3*%
X118900000Y-136800000D03*
D23*
X117574175Y-138125825D03*
X118900000Y-138675000D03*
X120775000Y-136800000D03*
X117025000Y-136800000D03*
X120225825Y-138125825D03*
X117574175Y-135474175D03*
X118900000Y-134925000D03*
X120225825Y-135474175D03*
%TD*%
%TO.C,H4*%
X211275825Y-138025825D03*
D24*
X209950000Y-136700000D03*
D23*
X211825000Y-136700000D03*
X208624175Y-135374175D03*
X208624175Y-138025825D03*
X208075000Y-136700000D03*
X211275825Y-135374175D03*
X209950000Y-138575000D03*
X209950000Y-134825000D03*
%TD*%
D25*
%TO.C,J6*%
X210928580Y-102655740D03*
X210928580Y-127644260D03*
D26*
X209209600Y-110839620D03*
X209209600Y-113130700D03*
X209209600Y-115416700D03*
X209209600Y-117710320D03*
X209209600Y-119998860D03*
X210974300Y-109694080D03*
X210974300Y-111987700D03*
X210974300Y-114286400D03*
X210974300Y-116585100D03*
X210974300Y-118858400D03*
X212765600Y-110839620D03*
X212765600Y-113130700D03*
X212765600Y-115419240D03*
X212765600Y-117710320D03*
X212765600Y-120001400D03*
%TD*%
G36*
X193653319Y-133746067D02*
G01*
X193672995Y-133813079D01*
X193725338Y-133858434D01*
X193793891Y-133868291D01*
X193857047Y-133839448D01*
X193877102Y-133817250D01*
X193898959Y-133786150D01*
X193899280Y-133785793D01*
X193908037Y-133778154D01*
X193910000Y-133777769D01*
X193911315Y-133779276D01*
X193910939Y-133780879D01*
X193829655Y-133886810D01*
X193771316Y-134027654D01*
X193751400Y-134178932D01*
X193751400Y-134908668D01*
X193771316Y-135059946D01*
X193829655Y-135200790D01*
X193909046Y-135304255D01*
X193909307Y-135306238D01*
X193907720Y-135307456D01*
X193906128Y-135306966D01*
X193895190Y-135297220D01*
X193894873Y-135296860D01*
X193877928Y-135272206D01*
X193823978Y-135228306D01*
X193755150Y-135220575D01*
X193693071Y-135251281D01*
X193657362Y-135310818D01*
X193653384Y-135341892D01*
X193652172Y-135343483D01*
X193650188Y-135343229D01*
X193649400Y-135341638D01*
X193649400Y-133746630D01*
X193650400Y-133744898D01*
X193652400Y-133744898D01*
X193653319Y-133746067D01*
G37*
G36*
X196364759Y-133896941D02*
G01*
X196364793Y-133898548D01*
X196311316Y-134027654D01*
X196291400Y-134178932D01*
X196291400Y-134908668D01*
X196311316Y-135059946D01*
X196363604Y-135186180D01*
X196363343Y-135188163D01*
X196361495Y-135188928D01*
X196360108Y-135188078D01*
X196347393Y-135169578D01*
X196346866Y-135169620D01*
X196346130Y-135169020D01*
X196313264Y-135125504D01*
X196248269Y-135101578D01*
X196180659Y-135116589D01*
X196131729Y-135165937D01*
X196125403Y-135179600D01*
X196122904Y-135186009D01*
X196122677Y-135186433D01*
X196119491Y-135190967D01*
X196117677Y-135191809D01*
X196116041Y-135190659D01*
X196116007Y-135189052D01*
X196169484Y-135059946D01*
X196189400Y-134908668D01*
X196189400Y-134178932D01*
X196169484Y-134027654D01*
X196117196Y-133901420D01*
X196117457Y-133899437D01*
X196119305Y-133898672D01*
X196120692Y-133899522D01*
X196133407Y-133918022D01*
X196133934Y-133917980D01*
X196134670Y-133918580D01*
X196167536Y-133962096D01*
X196232531Y-133986022D01*
X196300141Y-133971011D01*
X196349071Y-133921663D01*
X196355397Y-133908000D01*
X196357896Y-133901591D01*
X196358123Y-133901167D01*
X196361309Y-133896633D01*
X196363123Y-133895791D01*
X196364759Y-133896941D01*
G37*
G36*
X195094759Y-133896941D02*
G01*
X195094793Y-133898548D01*
X195041316Y-134027654D01*
X195021400Y-134178932D01*
X195021400Y-134908668D01*
X195041316Y-135059946D01*
X195093604Y-135186180D01*
X195093343Y-135188163D01*
X195091495Y-135188928D01*
X195090108Y-135188078D01*
X195077393Y-135169578D01*
X195076866Y-135169620D01*
X195076130Y-135169020D01*
X195043264Y-135125504D01*
X194978269Y-135101578D01*
X194910659Y-135116589D01*
X194861729Y-135165937D01*
X194855403Y-135179600D01*
X194852904Y-135186009D01*
X194852677Y-135186433D01*
X194849491Y-135190967D01*
X194847677Y-135191809D01*
X194846041Y-135190659D01*
X194846007Y-135189052D01*
X194899484Y-135059946D01*
X194919400Y-134908668D01*
X194919400Y-134178932D01*
X194899484Y-134027654D01*
X194847196Y-133901420D01*
X194847457Y-133899437D01*
X194849305Y-133898672D01*
X194850692Y-133899522D01*
X194863407Y-133918022D01*
X194863934Y-133917980D01*
X194864670Y-133918580D01*
X194897536Y-133962096D01*
X194962531Y-133986022D01*
X195030141Y-133971011D01*
X195079071Y-133921663D01*
X195085397Y-133908000D01*
X195087896Y-133901591D01*
X195088123Y-133901167D01*
X195091309Y-133896633D01*
X195093123Y-133895791D01*
X195094759Y-133896941D01*
G37*
G36*
X183864319Y-110803559D02*
G01*
X183883995Y-110870571D01*
X183936338Y-110915926D01*
X184004891Y-110925783D01*
X184068048Y-110896940D01*
X184082963Y-110880430D01*
X184084866Y-110879815D01*
X184086350Y-110881156D01*
X184086034Y-110882989D01*
X184059315Y-110917810D01*
X184001976Y-111056242D01*
X183982400Y-111204932D01*
X183982400Y-111654668D01*
X184001976Y-111803358D01*
X184059315Y-111941790D01*
X184090275Y-111982138D01*
X184090536Y-111984121D01*
X184088949Y-111985339D01*
X184087426Y-111984907D01*
X184034979Y-111942228D01*
X183966151Y-111934497D01*
X183904072Y-111965202D01*
X183868362Y-112024739D01*
X183864384Y-112055814D01*
X183863172Y-112057405D01*
X183861188Y-112057151D01*
X183860400Y-112055560D01*
X183860400Y-110804122D01*
X183861400Y-110802390D01*
X183863400Y-110802390D01*
X183864319Y-110803559D01*
G37*
G36*
X185324476Y-110927804D02*
G01*
X185324510Y-110929411D01*
X185271976Y-111056242D01*
X185252400Y-111204932D01*
X185252400Y-111654668D01*
X185271976Y-111803358D01*
X185323341Y-111927365D01*
X185323080Y-111929348D01*
X185321232Y-111930113D01*
X185319845Y-111929263D01*
X185315107Y-111922370D01*
X185314884Y-111921944D01*
X185306330Y-111899306D01*
X185264408Y-111843802D01*
X185199413Y-111819875D01*
X185131803Y-111834887D01*
X185082874Y-111884236D01*
X185076549Y-111897894D01*
X185065089Y-111927287D01*
X185064862Y-111927710D01*
X185061774Y-111932104D01*
X185059960Y-111932946D01*
X185058324Y-111931796D01*
X185058290Y-111930189D01*
X185110824Y-111803358D01*
X185130400Y-111654668D01*
X185130400Y-111204932D01*
X185110824Y-111056242D01*
X185059459Y-110932235D01*
X185059720Y-110930252D01*
X185061568Y-110929487D01*
X185062955Y-110930337D01*
X185067693Y-110937230D01*
X185067916Y-110937656D01*
X185076470Y-110960294D01*
X185118392Y-111015798D01*
X185183387Y-111039725D01*
X185250997Y-111024713D01*
X185299926Y-110975364D01*
X185306251Y-110961706D01*
X185317711Y-110932313D01*
X185317938Y-110931890D01*
X185321026Y-110927496D01*
X185322840Y-110926654D01*
X185324476Y-110927804D01*
G37*
G36*
X183864319Y-104301159D02*
G01*
X183883995Y-104368171D01*
X183936338Y-104413526D01*
X184004891Y-104423383D01*
X184068048Y-104394540D01*
X184082963Y-104378030D01*
X184084866Y-104377415D01*
X184086350Y-104378756D01*
X184086034Y-104380589D01*
X184059315Y-104415410D01*
X184001976Y-104553842D01*
X183982400Y-104702532D01*
X183982400Y-105152268D01*
X184001976Y-105300958D01*
X184059315Y-105439390D01*
X184090275Y-105479738D01*
X184090536Y-105481721D01*
X184088949Y-105482939D01*
X184087426Y-105482507D01*
X184034979Y-105439828D01*
X183966151Y-105432097D01*
X183904072Y-105462802D01*
X183868362Y-105522339D01*
X183864384Y-105553414D01*
X183863172Y-105555005D01*
X183861188Y-105554751D01*
X183860400Y-105553160D01*
X183860400Y-104301722D01*
X183861400Y-104299990D01*
X183863400Y-104299990D01*
X183864319Y-104301159D01*
G37*
G36*
X185324476Y-104425404D02*
G01*
X185324510Y-104427011D01*
X185271976Y-104553842D01*
X185252400Y-104702532D01*
X185252400Y-105152268D01*
X185271976Y-105300958D01*
X185323341Y-105424965D01*
X185323080Y-105426948D01*
X185321232Y-105427713D01*
X185319845Y-105426863D01*
X185315107Y-105419970D01*
X185314884Y-105419544D01*
X185306330Y-105396906D01*
X185264408Y-105341402D01*
X185199413Y-105317475D01*
X185131803Y-105332487D01*
X185082874Y-105381836D01*
X185076549Y-105395494D01*
X185065089Y-105424887D01*
X185064862Y-105425310D01*
X185061774Y-105429704D01*
X185059960Y-105430546D01*
X185058324Y-105429396D01*
X185058290Y-105427789D01*
X185110824Y-105300958D01*
X185130400Y-105152268D01*
X185130400Y-104702532D01*
X185110824Y-104553842D01*
X185059459Y-104429835D01*
X185059720Y-104427852D01*
X185061568Y-104427087D01*
X185062955Y-104427937D01*
X185067693Y-104434830D01*
X185067916Y-104435256D01*
X185076470Y-104457894D01*
X185118392Y-104513398D01*
X185183387Y-104537325D01*
X185250997Y-104522313D01*
X185299926Y-104472964D01*
X185306251Y-104459306D01*
X185317711Y-104429913D01*
X185317938Y-104429490D01*
X185321026Y-104425096D01*
X185322840Y-104424254D01*
X185324476Y-104425404D01*
G37*
M02*
