%TF.GenerationSoftware,KiCad,Pcbnew,(5.1.10-1-10_14)*%
%TF.CreationDate,2021-11-12T16:12:36-08:00*%
%TF.ProjectId,TRS-IO-M1,5452532d-494f-42d4-9d31-2e6b69636164,rev?*%
%TF.SameCoordinates,Original*%
%TF.FileFunction,Legend,Top*%
%TF.FilePolarity,Positive*%
%FSLAX46Y46*%
G04 Gerber Fmt 4.6, Leading zero omitted, Abs format (unit mm)*
G04 Created by KiCad (PCBNEW (5.1.10-1-10_14)) date 2021-11-12 16:12:36*
%MOMM*%
%LPD*%
G01*
G04 APERTURE LIST*
%ADD10C,0.150000*%
%ADD11C,0.120000*%
G04 APERTURE END LIST*
D10*
X184259523Y-138866666D02*
X184735714Y-138866666D01*
X184164285Y-139152380D02*
X184497619Y-138152380D01*
X184830952Y-139152380D01*
X185688095Y-139152380D02*
X185116666Y-139152380D01*
X185402380Y-139152380D02*
X185402380Y-138152380D01*
X185307142Y-138295238D01*
X185211904Y-138390476D01*
X185116666Y-138438095D01*
X186592857Y-138152380D02*
X186116666Y-138152380D01*
X186069047Y-138628571D01*
X186116666Y-138580952D01*
X186211904Y-138533333D01*
X186450000Y-138533333D01*
X186545238Y-138580952D01*
X186592857Y-138628571D01*
X186640476Y-138723809D01*
X186640476Y-138961904D01*
X186592857Y-139057142D01*
X186545238Y-139104761D01*
X186450000Y-139152380D01*
X186211904Y-139152380D01*
X186116666Y-139104761D01*
X186069047Y-139057142D01*
X178592857Y-138152380D02*
X178926190Y-139152380D01*
X179259523Y-138152380D01*
X179592857Y-138152380D02*
X179592857Y-138961904D01*
X179640476Y-139057142D01*
X179688095Y-139104761D01*
X179783333Y-139152380D01*
X179973809Y-139152380D01*
X180069047Y-139104761D01*
X180116666Y-139057142D01*
X180164285Y-138961904D01*
X180164285Y-138152380D01*
X208727380Y-124192857D02*
X208727380Y-123621428D01*
X209727380Y-123907142D02*
X208727380Y-123907142D01*
X209727380Y-122716666D02*
X209251190Y-123050000D01*
X209727380Y-123288095D02*
X208727380Y-123288095D01*
X208727380Y-122907142D01*
X208775000Y-122811904D01*
X208822619Y-122764285D01*
X208917857Y-122716666D01*
X209060714Y-122716666D01*
X209155952Y-122764285D01*
X209203571Y-122811904D01*
X209251190Y-122907142D01*
X209251190Y-123288095D01*
X209679761Y-122335714D02*
X209727380Y-122192857D01*
X209727380Y-121954761D01*
X209679761Y-121859523D01*
X209632142Y-121811904D01*
X209536904Y-121764285D01*
X209441666Y-121764285D01*
X209346428Y-121811904D01*
X209298809Y-121859523D01*
X209251190Y-121954761D01*
X209203571Y-122145238D01*
X209155952Y-122240476D01*
X209108333Y-122288095D01*
X209013095Y-122335714D01*
X208917857Y-122335714D01*
X208822619Y-122288095D01*
X208775000Y-122240476D01*
X208727380Y-122145238D01*
X208727380Y-121907142D01*
X208775000Y-121764285D01*
X209346428Y-121335714D02*
X209346428Y-120573809D01*
X209727380Y-120097619D02*
X208727380Y-120097619D01*
X208727380Y-119430952D02*
X208727380Y-119240476D01*
X208775000Y-119145238D01*
X208870238Y-119050000D01*
X209060714Y-119002380D01*
X209394047Y-119002380D01*
X209584523Y-119050000D01*
X209679761Y-119145238D01*
X209727380Y-119240476D01*
X209727380Y-119430952D01*
X209679761Y-119526190D01*
X209584523Y-119621428D01*
X209394047Y-119669047D01*
X209060714Y-119669047D01*
X208870238Y-119621428D01*
X208775000Y-119526190D01*
X208727380Y-119430952D01*
X209346428Y-118573809D02*
X209346428Y-117811904D01*
X209727380Y-117335714D02*
X208727380Y-117335714D01*
X209441666Y-117002380D01*
X208727380Y-116669047D01*
X209727380Y-116669047D01*
X209727380Y-115669047D02*
X209727380Y-116240476D01*
X209727380Y-115954761D02*
X208727380Y-115954761D01*
X208870238Y-116050000D01*
X208965476Y-116145238D01*
X209013095Y-116240476D01*
X209060714Y-114573809D02*
X209727380Y-114335714D01*
X209060714Y-114097619D01*
X209727380Y-113192857D02*
X209727380Y-113764285D01*
X209727380Y-113478571D02*
X208727380Y-113478571D01*
X208870238Y-113573809D01*
X208965476Y-113669047D01*
X209013095Y-113764285D01*
X209632142Y-112764285D02*
X209679761Y-112716666D01*
X209727380Y-112764285D01*
X209679761Y-112811904D01*
X209632142Y-112764285D01*
X209727380Y-112764285D01*
X208822619Y-112335714D02*
X208775000Y-112288095D01*
X208727380Y-112192857D01*
X208727380Y-111954761D01*
X208775000Y-111859523D01*
X208822619Y-111811904D01*
X208917857Y-111764285D01*
X209013095Y-111764285D01*
X209155952Y-111811904D01*
X209727380Y-112383333D01*
X209727380Y-111764285D01*
X210108333Y-110288095D02*
X210060714Y-110335714D01*
X209917857Y-110430952D01*
X209822619Y-110478571D01*
X209679761Y-110526190D01*
X209441666Y-110573809D01*
X209251190Y-110573809D01*
X209013095Y-110526190D01*
X208870238Y-110478571D01*
X208775000Y-110430952D01*
X208632142Y-110335714D01*
X208584523Y-110288095D01*
X208727380Y-110002380D02*
X209727380Y-109335714D01*
X208727380Y-109335714D02*
X209727380Y-110002380D01*
X209727380Y-108383333D02*
X209251190Y-108716666D01*
X209727380Y-108954761D02*
X208727380Y-108954761D01*
X208727380Y-108573809D01*
X208775000Y-108478571D01*
X208822619Y-108430952D01*
X208917857Y-108383333D01*
X209060714Y-108383333D01*
X209155952Y-108430952D01*
X209203571Y-108478571D01*
X209251190Y-108573809D01*
X209251190Y-108954761D01*
X209441666Y-108002380D02*
X209441666Y-107526190D01*
X209727380Y-108097619D02*
X208727380Y-107764285D01*
X209727380Y-107430952D01*
X209251190Y-106907142D02*
X209727380Y-106907142D01*
X208727380Y-107240476D02*
X209251190Y-106907142D01*
X208727380Y-106573809D01*
X210108333Y-106335714D02*
X210060714Y-106288095D01*
X209917857Y-106192857D01*
X209822619Y-106145238D01*
X209679761Y-106097619D01*
X209441666Y-106050000D01*
X209251190Y-106050000D01*
X209013095Y-106097619D01*
X208870238Y-106145238D01*
X208775000Y-106192857D01*
X208632142Y-106288095D01*
X208584523Y-106335714D01*
X211377380Y-120740476D02*
X210377380Y-120740476D01*
X211377380Y-120169047D01*
X210377380Y-120169047D01*
X211377380Y-119550000D02*
X211329761Y-119645238D01*
X211282142Y-119692857D01*
X211186904Y-119740476D01*
X210901190Y-119740476D01*
X210805952Y-119692857D01*
X210758333Y-119645238D01*
X210710714Y-119550000D01*
X210710714Y-119407142D01*
X210758333Y-119311904D01*
X210805952Y-119264285D01*
X210901190Y-119216666D01*
X211186904Y-119216666D01*
X211282142Y-119264285D01*
X211329761Y-119311904D01*
X211377380Y-119407142D01*
X211377380Y-119550000D01*
X210710714Y-118883333D02*
X211377380Y-118645238D01*
X210710714Y-118407142D01*
X211329761Y-117645238D02*
X211377380Y-117740476D01*
X211377380Y-117930952D01*
X211329761Y-118026190D01*
X211234523Y-118073809D01*
X210853571Y-118073809D01*
X210758333Y-118026190D01*
X210710714Y-117930952D01*
X210710714Y-117740476D01*
X210758333Y-117645238D01*
X210853571Y-117597619D01*
X210948809Y-117597619D01*
X211044047Y-118073809D01*
X211377380Y-117169047D02*
X210710714Y-117169047D01*
X210805952Y-117169047D02*
X210758333Y-117121428D01*
X210710714Y-117026190D01*
X210710714Y-116883333D01*
X210758333Y-116788095D01*
X210853571Y-116740476D01*
X211377380Y-116740476D01*
X210853571Y-116740476D02*
X210758333Y-116692857D01*
X210710714Y-116597619D01*
X210710714Y-116454761D01*
X210758333Y-116359523D01*
X210853571Y-116311904D01*
X211377380Y-116311904D01*
X211377380Y-115835714D02*
X210377380Y-115835714D01*
X210758333Y-115835714D02*
X210710714Y-115740476D01*
X210710714Y-115550000D01*
X210758333Y-115454761D01*
X210805952Y-115407142D01*
X210901190Y-115359523D01*
X211186904Y-115359523D01*
X211282142Y-115407142D01*
X211329761Y-115454761D01*
X211377380Y-115550000D01*
X211377380Y-115740476D01*
X211329761Y-115835714D01*
X211329761Y-114550000D02*
X211377380Y-114645238D01*
X211377380Y-114835714D01*
X211329761Y-114930952D01*
X211234523Y-114978571D01*
X210853571Y-114978571D01*
X210758333Y-114930952D01*
X210710714Y-114835714D01*
X210710714Y-114645238D01*
X210758333Y-114550000D01*
X210853571Y-114502380D01*
X210948809Y-114502380D01*
X211044047Y-114978571D01*
X211377380Y-114073809D02*
X210710714Y-114073809D01*
X210901190Y-114073809D02*
X210805952Y-114026190D01*
X210758333Y-113978571D01*
X210710714Y-113883333D01*
X210710714Y-113788095D01*
X210472619Y-112740476D02*
X210425000Y-112692857D01*
X210377380Y-112597619D01*
X210377380Y-112359523D01*
X210425000Y-112264285D01*
X210472619Y-112216666D01*
X210567857Y-112169047D01*
X210663095Y-112169047D01*
X210805952Y-112216666D01*
X211377380Y-112788095D01*
X211377380Y-112169047D01*
X210377380Y-111550000D02*
X210377380Y-111454761D01*
X210425000Y-111359523D01*
X210472619Y-111311904D01*
X210567857Y-111264285D01*
X210758333Y-111216666D01*
X210996428Y-111216666D01*
X211186904Y-111264285D01*
X211282142Y-111311904D01*
X211329761Y-111359523D01*
X211377380Y-111454761D01*
X211377380Y-111550000D01*
X211329761Y-111645238D01*
X211282142Y-111692857D01*
X211186904Y-111740476D01*
X210996428Y-111788095D01*
X210758333Y-111788095D01*
X210567857Y-111740476D01*
X210472619Y-111692857D01*
X210425000Y-111645238D01*
X210377380Y-111550000D01*
X210472619Y-110835714D02*
X210425000Y-110788095D01*
X210377380Y-110692857D01*
X210377380Y-110454761D01*
X210425000Y-110359523D01*
X210472619Y-110311904D01*
X210567857Y-110264285D01*
X210663095Y-110264285D01*
X210805952Y-110311904D01*
X211377380Y-110883333D01*
X211377380Y-110264285D01*
X211377380Y-109311904D02*
X211377380Y-109883333D01*
X211377380Y-109597619D02*
X210377380Y-109597619D01*
X210520238Y-109692857D01*
X210615476Y-109788095D01*
X210663095Y-109883333D01*
X116143019Y-116233676D02*
X116143019Y-116852723D01*
X115762066Y-116519390D01*
X115762066Y-116662247D01*
X115714447Y-116757485D01*
X115666828Y-116805104D01*
X115571590Y-116852723D01*
X115333495Y-116852723D01*
X115238257Y-116805104D01*
X115190638Y-116757485D01*
X115143019Y-116662247D01*
X115143019Y-116376533D01*
X115190638Y-116281295D01*
X115238257Y-116233676D01*
X115143019Y-117328914D02*
X115143019Y-117519390D01*
X115190638Y-117614628D01*
X115238257Y-117662247D01*
X115381114Y-117757485D01*
X115571590Y-117805104D01*
X115952542Y-117805104D01*
X116047780Y-117757485D01*
X116095400Y-117709866D01*
X116143019Y-117614628D01*
X116143019Y-117424152D01*
X116095400Y-117328914D01*
X116047780Y-117281295D01*
X115952542Y-117233676D01*
X115714447Y-117233676D01*
X115619209Y-117281295D01*
X115571590Y-117328914D01*
X115523971Y-117424152D01*
X115523971Y-117614628D01*
X115571590Y-117709866D01*
X115619209Y-117757485D01*
X115714447Y-117805104D01*
X115193819Y-69043514D02*
X115193819Y-68472085D01*
X115193819Y-68757800D02*
X116193819Y-68757800D01*
X116050961Y-68662561D01*
X115955723Y-68567323D01*
X115908104Y-68472085D01*
X118510085Y-119521314D02*
X118510085Y-120187980D01*
X118271990Y-119140361D02*
X118033895Y-119854647D01*
X118652942Y-119854647D01*
X119224371Y-119187980D02*
X119319609Y-119187980D01*
X119414847Y-119235600D01*
X119462466Y-119283219D01*
X119510085Y-119378457D01*
X119557704Y-119568933D01*
X119557704Y-119807028D01*
X119510085Y-119997504D01*
X119462466Y-120092742D01*
X119414847Y-120140361D01*
X119319609Y-120187980D01*
X119224371Y-120187980D01*
X119129133Y-120140361D01*
X119081514Y-120092742D01*
X119033895Y-119997504D01*
X118986276Y-119807028D01*
X118986276Y-119568933D01*
X119033895Y-119378457D01*
X119081514Y-119283219D01*
X119129133Y-119235600D01*
X119224371Y-119187980D01*
X121799314Y-66416180D02*
X121227885Y-66416180D01*
X121513600Y-66416180D02*
X121513600Y-65416180D01*
X121418361Y-65559038D01*
X121323123Y-65654276D01*
X121227885Y-65701895D01*
D11*
%TO.C,U1*%
X202141600Y-50359000D02*
X193303400Y-50359000D01*
X202141600Y-97351500D02*
X202141600Y-50371500D01*
X181576200Y-97469000D02*
X202141600Y-97469000D01*
X181576200Y-50371500D02*
X181576200Y-97351500D01*
X191303400Y-50359000D02*
X181576200Y-50359000D01*
X193303400Y-50333600D02*
G75*
G02*
X191303400Y-50333600I-1000000J0D01*
G01*
%TO.C,SW1*%
X200294900Y-112397800D02*
X200294900Y-110897800D01*
X199044900Y-108397800D02*
X194544900Y-108397800D01*
X193294900Y-110897800D02*
X193294900Y-112397800D01*
X194544900Y-114897800D02*
X199044900Y-114897800D01*
%TO.C,R4*%
X199954900Y-105179800D02*
X199954900Y-104849800D01*
X193414900Y-105179800D02*
X199954900Y-105179800D01*
X193414900Y-104849800D02*
X193414900Y-105179800D01*
X199954900Y-102439800D02*
X199954900Y-102769800D01*
X193414900Y-102439800D02*
X199954900Y-102439800D01*
X193414900Y-102769800D02*
X193414900Y-102439800D01*
%TO.C,R3*%
X194235400Y-127907800D02*
X194565400Y-127907800D01*
X194235400Y-121367800D02*
X194235400Y-127907800D01*
X194565400Y-121367800D02*
X194235400Y-121367800D01*
X196975400Y-127907800D02*
X196645400Y-127907800D01*
X196975400Y-121367800D02*
X196975400Y-127907800D01*
X196645400Y-121367800D02*
X196975400Y-121367800D01*
%TO.C,R2*%
X197791400Y-127907800D02*
X198121400Y-127907800D01*
X197791400Y-121367800D02*
X197791400Y-127907800D01*
X198121400Y-121367800D02*
X197791400Y-121367800D01*
X200531400Y-127907800D02*
X200201400Y-127907800D01*
X200531400Y-121367800D02*
X200531400Y-127907800D01*
X200201400Y-121367800D02*
X200531400Y-121367800D01*
%TO.C,R1*%
X190679400Y-127907800D02*
X191009400Y-127907800D01*
X190679400Y-121367800D02*
X190679400Y-127907800D01*
X191009400Y-121367800D02*
X190679400Y-121367800D01*
X193419400Y-127907800D02*
X193089400Y-127907800D01*
X193419400Y-121367800D02*
X193419400Y-127907800D01*
X193089400Y-121367800D02*
X193419400Y-121367800D01*
%TO.C,J1*%
X117509000Y-67429200D02*
X118839000Y-67429200D01*
X117509000Y-68759200D02*
X117509000Y-67429200D01*
X120109000Y-67429200D02*
X122709000Y-67429200D01*
X120109000Y-70029200D02*
X120109000Y-67429200D01*
X117509000Y-70029200D02*
X120109000Y-70029200D01*
X122709000Y-67429200D02*
X122709000Y-118349200D01*
X117509000Y-70029200D02*
X117509000Y-118349200D01*
X117509000Y-118349200D02*
X122709000Y-118349200D01*
%TO.C,D1*%
X192410400Y-135623800D02*
X192410400Y-136088800D01*
X192410400Y-132998800D02*
X192410400Y-133463800D01*
X197224879Y-135624229D02*
G75*
G02*
X192715716Y-135623800I-2254479J1080429D01*
G01*
X197224879Y-133463371D02*
G75*
G03*
X192715716Y-133463800I-2254479J-1080429D01*
G01*
X197758215Y-135624627D02*
G75*
G02*
X192410400Y-136088630I-2787815J1080827D01*
G01*
X197758215Y-133462973D02*
G75*
G03*
X192410400Y-132998970I-2787815J-1080827D01*
G01*
D10*
%TO.C,J3*%
X197225400Y-52374800D02*
G75*
G03*
X197225400Y-52374800I-500000J0D01*
G01*
X189245400Y-52374800D02*
G75*
G03*
X189245400Y-52374800I-500000J0D01*
G01*
X199295400Y-62374800D02*
X184295400Y-62374800D01*
X184295400Y-62374800D02*
X184295400Y-47674800D01*
X184295400Y-47674800D02*
X199295400Y-47674800D01*
X199295400Y-47674800D02*
X199295400Y-62374800D01*
D11*
%TO.C,R5*%
X189617600Y-77750800D02*
X189617600Y-77420800D01*
X189617600Y-77420800D02*
X196157600Y-77420800D01*
X196157600Y-77420800D02*
X196157600Y-77750800D01*
X189617600Y-79830800D02*
X189617600Y-80160800D01*
X189617600Y-80160800D02*
X196157600Y-80160800D01*
X196157600Y-80160800D02*
X196157600Y-79830800D01*
%TO.C,R6*%
X196157600Y-76731800D02*
X196157600Y-76401800D01*
X189617600Y-76731800D02*
X196157600Y-76731800D01*
X189617600Y-76401800D02*
X189617600Y-76731800D01*
X196157600Y-73991800D02*
X196157600Y-74321800D01*
X189617600Y-73991800D02*
X196157600Y-73991800D01*
X189617600Y-74321800D02*
X189617600Y-73991800D01*
%TO.C,R7*%
X189617600Y-70892800D02*
X189617600Y-70562800D01*
X189617600Y-70562800D02*
X196157600Y-70562800D01*
X196157600Y-70562800D02*
X196157600Y-70892800D01*
X189617600Y-72972800D02*
X189617600Y-73302800D01*
X189617600Y-73302800D02*
X196157600Y-73302800D01*
X196157600Y-73302800D02*
X196157600Y-72972800D01*
%TO.C,R8*%
X196157600Y-69873800D02*
X196157600Y-69543800D01*
X189617600Y-69873800D02*
X196157600Y-69873800D01*
X189617600Y-69543800D02*
X189617600Y-69873800D01*
X196157600Y-67133800D02*
X196157600Y-67463800D01*
X189617600Y-67133800D02*
X196157600Y-67133800D01*
X189617600Y-67463800D02*
X189617600Y-67133800D01*
%TO.C,C1*%
X148296200Y-53007400D02*
X151536200Y-53007400D01*
X148296200Y-55247400D02*
X151536200Y-55247400D01*
X148296200Y-53007400D02*
X148296200Y-53072400D01*
X148296200Y-55182400D02*
X148296200Y-55247400D01*
X151536200Y-53007400D02*
X151536200Y-53072400D01*
X151536200Y-55182400D02*
X151536200Y-55247400D01*
%TO.C,C2*%
X151485400Y-84367000D02*
X151485400Y-84432000D01*
X151485400Y-82192000D02*
X151485400Y-82257000D01*
X148245400Y-84367000D02*
X148245400Y-84432000D01*
X148245400Y-82192000D02*
X148245400Y-82257000D01*
X148245400Y-84432000D02*
X151485400Y-84432000D01*
X148245400Y-82192000D02*
X151485400Y-82192000D01*
%TO.C,C3*%
X148245400Y-111402000D02*
X151485400Y-111402000D01*
X148245400Y-113642000D02*
X151485400Y-113642000D01*
X148245400Y-111402000D02*
X148245400Y-111467000D01*
X148245400Y-113577000D02*
X148245400Y-113642000D01*
X151485400Y-111402000D02*
X151485400Y-111467000D01*
X151485400Y-113577000D02*
X151485400Y-113642000D01*
%TO.C,C4*%
X175996400Y-115126400D02*
X175996400Y-115191400D01*
X175996400Y-112951400D02*
X175996400Y-113016400D01*
X172756400Y-115126400D02*
X172756400Y-115191400D01*
X172756400Y-112951400D02*
X172756400Y-113016400D01*
X172756400Y-115191400D02*
X175996400Y-115191400D01*
X172756400Y-112951400D02*
X175996400Y-112951400D01*
%TO.C,C5*%
X182738600Y-64589800D02*
X185978600Y-64589800D01*
X182738600Y-66829800D02*
X185978600Y-66829800D01*
X182738600Y-64589800D02*
X182738600Y-64654800D01*
X182738600Y-66764800D02*
X182738600Y-66829800D01*
X185978600Y-64589800D02*
X185978600Y-64654800D01*
X185978600Y-66764800D02*
X185978600Y-66829800D01*
%TO.C,J4*%
X178095600Y-137016800D02*
X180755600Y-137016800D01*
X178095600Y-134416800D02*
X178095600Y-137016800D01*
X180755600Y-134416800D02*
X180755600Y-137016800D01*
X178095600Y-134416800D02*
X180755600Y-134416800D01*
X178095600Y-133146800D02*
X178095600Y-131816800D01*
X178095600Y-131816800D02*
X179425600Y-131816800D01*
%TO.C,J5*%
X184039200Y-131816800D02*
X185369200Y-131816800D01*
X184039200Y-133146800D02*
X184039200Y-131816800D01*
X184039200Y-134416800D02*
X186699200Y-134416800D01*
X186699200Y-134416800D02*
X186699200Y-137016800D01*
X184039200Y-134416800D02*
X184039200Y-137016800D01*
X184039200Y-137016800D02*
X186699200Y-137016800D01*
%TO.C,Q1*%
X182756400Y-106777400D02*
X186356400Y-106777400D01*
X182717922Y-106765878D02*
G75*
G02*
X184556400Y-102327400I1838478J1838478D01*
G01*
X186394878Y-106765878D02*
G75*
G03*
X184556400Y-102327400I-1838478J1838478D01*
G01*
%TO.C,Q2*%
X182756400Y-113279800D02*
X186356400Y-113279800D01*
X186394878Y-113268278D02*
G75*
G03*
X184556400Y-108829800I-1838478J1838478D01*
G01*
X182717922Y-113268278D02*
G75*
G02*
X184556400Y-108829800I1838478J1838478D01*
G01*
%TO.C,U2*%
X163711001Y-50030200D02*
X157631001Y-50030200D01*
X163711001Y-50390200D02*
X163711001Y-50030200D01*
X169791000Y-50390200D02*
X163711001Y-50390200D01*
X169791000Y-50030200D02*
X169791000Y-50390200D01*
X175871000Y-50030200D02*
X169791000Y-50030200D01*
X175870999Y-110650200D02*
X175871000Y-50030200D01*
X157631000Y-110650200D02*
X175870999Y-110650200D01*
X157631001Y-50030200D02*
X157631000Y-110650200D01*
%TO.C,U3*%
X141494000Y-53102200D02*
X139844000Y-53102200D01*
X139844000Y-53102200D02*
X139844000Y-78622200D01*
X139844000Y-78622200D02*
X145144000Y-78622200D01*
X145144000Y-78622200D02*
X145144000Y-53102200D01*
X145144000Y-53102200D02*
X143494000Y-53102200D01*
X143494000Y-53102200D02*
G75*
G02*
X141494000Y-53102200I-1000000J0D01*
G01*
%TO.C,U4*%
X145144000Y-82286800D02*
X143494000Y-82286800D01*
X145144000Y-107806800D02*
X145144000Y-82286800D01*
X139844000Y-107806800D02*
X145144000Y-107806800D01*
X139844000Y-82286800D02*
X139844000Y-107806800D01*
X141494000Y-82286800D02*
X139844000Y-82286800D01*
X143494000Y-82286800D02*
G75*
G02*
X141494000Y-82286800I-1000000J0D01*
G01*
%TO.C,U5*%
X141494000Y-111471400D02*
X139844000Y-111471400D01*
X139844000Y-111471400D02*
X139844000Y-136991400D01*
X139844000Y-136991400D02*
X145144000Y-136991400D01*
X145144000Y-136991400D02*
X145144000Y-111471400D01*
X145144000Y-111471400D02*
X143494000Y-111471400D01*
X143494000Y-111471400D02*
G75*
G02*
X141494000Y-111471400I-1000000J0D01*
G01*
%TO.C,U6*%
X169680400Y-113046200D02*
X168030400Y-113046200D01*
X169680400Y-138566200D02*
X169680400Y-113046200D01*
X164380400Y-138566200D02*
X169680400Y-138566200D01*
X164380400Y-113046200D02*
X164380400Y-138566200D01*
X166030400Y-113046200D02*
X164380400Y-113046200D01*
X168030400Y-113046200D02*
G75*
G02*
X166030400Y-113046200I-1000000J0D01*
G01*
%TO.C,U1*%
D10*
X179324095Y-48753780D02*
X179324095Y-49563304D01*
X179371714Y-49658542D01*
X179419333Y-49706161D01*
X179514571Y-49753780D01*
X179705047Y-49753780D01*
X179800285Y-49706161D01*
X179847904Y-49658542D01*
X179895523Y-49563304D01*
X179895523Y-48753780D01*
X180895523Y-49753780D02*
X180324095Y-49753780D01*
X180609809Y-49753780D02*
X180609809Y-48753780D01*
X180514571Y-48896638D01*
X180419333Y-48991876D01*
X180324095Y-49039495D01*
%TO.C,SW1*%
X195465866Y-112012361D02*
X195608723Y-112059980D01*
X195846819Y-112059980D01*
X195942057Y-112012361D01*
X195989676Y-111964742D01*
X196037295Y-111869504D01*
X196037295Y-111774266D01*
X195989676Y-111679028D01*
X195942057Y-111631409D01*
X195846819Y-111583790D01*
X195656342Y-111536171D01*
X195561104Y-111488552D01*
X195513485Y-111440933D01*
X195465866Y-111345695D01*
X195465866Y-111250457D01*
X195513485Y-111155219D01*
X195561104Y-111107600D01*
X195656342Y-111059980D01*
X195894438Y-111059980D01*
X196037295Y-111107600D01*
X196370628Y-111059980D02*
X196608723Y-112059980D01*
X196799200Y-111345695D01*
X196989676Y-112059980D01*
X197227771Y-111059980D01*
X198132533Y-112059980D02*
X197561104Y-112059980D01*
X197846819Y-112059980D02*
X197846819Y-111059980D01*
X197751580Y-111202838D01*
X197656342Y-111298076D01*
X197561104Y-111345695D01*
%TO.C,R4*%
X196581733Y-104236780D02*
X196248400Y-103760590D01*
X196010304Y-104236780D02*
X196010304Y-103236780D01*
X196391257Y-103236780D01*
X196486495Y-103284400D01*
X196534114Y-103332019D01*
X196581733Y-103427257D01*
X196581733Y-103570114D01*
X196534114Y-103665352D01*
X196486495Y-103712971D01*
X196391257Y-103760590D01*
X196010304Y-103760590D01*
X197438876Y-103570114D02*
X197438876Y-104236780D01*
X197200780Y-103189161D02*
X196962685Y-103903447D01*
X197581733Y-103903447D01*
%TO.C,R3*%
X195981580Y-124829866D02*
X195505390Y-125163200D01*
X195981580Y-125401295D02*
X194981580Y-125401295D01*
X194981580Y-125020342D01*
X195029200Y-124925104D01*
X195076819Y-124877485D01*
X195172057Y-124829866D01*
X195314914Y-124829866D01*
X195410152Y-124877485D01*
X195457771Y-124925104D01*
X195505390Y-125020342D01*
X195505390Y-125401295D01*
X194981580Y-124496533D02*
X194981580Y-123877485D01*
X195362533Y-124210819D01*
X195362533Y-124067961D01*
X195410152Y-123972723D01*
X195457771Y-123925104D01*
X195553009Y-123877485D01*
X195791104Y-123877485D01*
X195886342Y-123925104D01*
X195933961Y-123972723D01*
X195981580Y-124067961D01*
X195981580Y-124353676D01*
X195933961Y-124448914D01*
X195886342Y-124496533D01*
%TO.C,R2*%
X199613780Y-124829866D02*
X199137590Y-125163200D01*
X199613780Y-125401295D02*
X198613780Y-125401295D01*
X198613780Y-125020342D01*
X198661400Y-124925104D01*
X198709019Y-124877485D01*
X198804257Y-124829866D01*
X198947114Y-124829866D01*
X199042352Y-124877485D01*
X199089971Y-124925104D01*
X199137590Y-125020342D01*
X199137590Y-125401295D01*
X198709019Y-124448914D02*
X198661400Y-124401295D01*
X198613780Y-124306057D01*
X198613780Y-124067961D01*
X198661400Y-123972723D01*
X198709019Y-123925104D01*
X198804257Y-123877485D01*
X198899495Y-123877485D01*
X199042352Y-123925104D01*
X199613780Y-124496533D01*
X199613780Y-123877485D01*
%TO.C,R1*%
X192476380Y-124855266D02*
X192000190Y-125188600D01*
X192476380Y-125426695D02*
X191476380Y-125426695D01*
X191476380Y-125045742D01*
X191524000Y-124950504D01*
X191571619Y-124902885D01*
X191666857Y-124855266D01*
X191809714Y-124855266D01*
X191904952Y-124902885D01*
X191952571Y-124950504D01*
X192000190Y-125045742D01*
X192000190Y-125426695D01*
X192476380Y-123902885D02*
X192476380Y-124474314D01*
X192476380Y-124188600D02*
X191476380Y-124188600D01*
X191619238Y-124283838D01*
X191714476Y-124379076D01*
X191762095Y-124474314D01*
%TO.C,J1*%
X123974266Y-67498980D02*
X123974266Y-68213266D01*
X123926647Y-68356123D01*
X123831409Y-68451361D01*
X123688552Y-68498980D01*
X123593314Y-68498980D01*
X124974266Y-68498980D02*
X124402838Y-68498980D01*
X124688552Y-68498980D02*
X124688552Y-67498980D01*
X124593314Y-67641838D01*
X124498076Y-67737076D01*
X124402838Y-67784695D01*
%TO.C,D1*%
X194232304Y-131036180D02*
X194232304Y-130036180D01*
X194470400Y-130036180D01*
X194613257Y-130083800D01*
X194708495Y-130179038D01*
X194756114Y-130274276D01*
X194803733Y-130464752D01*
X194803733Y-130607609D01*
X194756114Y-130798085D01*
X194708495Y-130893323D01*
X194613257Y-130988561D01*
X194470400Y-131036180D01*
X194232304Y-131036180D01*
X195756114Y-131036180D02*
X195184685Y-131036180D01*
X195470400Y-131036180D02*
X195470400Y-130036180D01*
X195375161Y-130179038D01*
X195279923Y-130274276D01*
X195184685Y-130321895D01*
%TO.C,J3*%
X191843066Y-48093380D02*
X191843066Y-48807666D01*
X191795447Y-48950523D01*
X191700209Y-49045761D01*
X191557352Y-49093380D01*
X191462114Y-49093380D01*
X192224019Y-48093380D02*
X192843066Y-48093380D01*
X192509733Y-48474333D01*
X192652590Y-48474333D01*
X192747828Y-48521952D01*
X192795447Y-48569571D01*
X192843066Y-48664809D01*
X192843066Y-48902904D01*
X192795447Y-48998142D01*
X192747828Y-49045761D01*
X192652590Y-49093380D01*
X192366876Y-49093380D01*
X192271638Y-49045761D01*
X192224019Y-48998142D01*
%TO.C,R5*%
X192746333Y-79268580D02*
X192413000Y-78792390D01*
X192174904Y-79268580D02*
X192174904Y-78268580D01*
X192555857Y-78268580D01*
X192651095Y-78316200D01*
X192698714Y-78363819D01*
X192746333Y-78459057D01*
X192746333Y-78601914D01*
X192698714Y-78697152D01*
X192651095Y-78744771D01*
X192555857Y-78792390D01*
X192174904Y-78792390D01*
X193651095Y-78268580D02*
X193174904Y-78268580D01*
X193127285Y-78744771D01*
X193174904Y-78697152D01*
X193270142Y-78649533D01*
X193508238Y-78649533D01*
X193603476Y-78697152D01*
X193651095Y-78744771D01*
X193698714Y-78840009D01*
X193698714Y-79078104D01*
X193651095Y-79173342D01*
X193603476Y-79220961D01*
X193508238Y-79268580D01*
X193270142Y-79268580D01*
X193174904Y-79220961D01*
X193127285Y-79173342D01*
%TO.C,R6*%
X192720933Y-75890380D02*
X192387600Y-75414190D01*
X192149504Y-75890380D02*
X192149504Y-74890380D01*
X192530457Y-74890380D01*
X192625695Y-74938000D01*
X192673314Y-74985619D01*
X192720933Y-75080857D01*
X192720933Y-75223714D01*
X192673314Y-75318952D01*
X192625695Y-75366571D01*
X192530457Y-75414190D01*
X192149504Y-75414190D01*
X193578076Y-74890380D02*
X193387600Y-74890380D01*
X193292361Y-74938000D01*
X193244742Y-74985619D01*
X193149504Y-75128476D01*
X193101885Y-75318952D01*
X193101885Y-75699904D01*
X193149504Y-75795142D01*
X193197123Y-75842761D01*
X193292361Y-75890380D01*
X193482838Y-75890380D01*
X193578076Y-75842761D01*
X193625695Y-75795142D01*
X193673314Y-75699904D01*
X193673314Y-75461809D01*
X193625695Y-75366571D01*
X193578076Y-75318952D01*
X193482838Y-75271333D01*
X193292361Y-75271333D01*
X193197123Y-75318952D01*
X193149504Y-75366571D01*
X193101885Y-75461809D01*
%TO.C,R7*%
X192720933Y-72359780D02*
X192387600Y-71883590D01*
X192149504Y-72359780D02*
X192149504Y-71359780D01*
X192530457Y-71359780D01*
X192625695Y-71407400D01*
X192673314Y-71455019D01*
X192720933Y-71550257D01*
X192720933Y-71693114D01*
X192673314Y-71788352D01*
X192625695Y-71835971D01*
X192530457Y-71883590D01*
X192149504Y-71883590D01*
X193054266Y-71359780D02*
X193720933Y-71359780D01*
X193292361Y-72359780D01*
%TO.C,R8*%
X192670133Y-68956180D02*
X192336800Y-68479990D01*
X192098704Y-68956180D02*
X192098704Y-67956180D01*
X192479657Y-67956180D01*
X192574895Y-68003800D01*
X192622514Y-68051419D01*
X192670133Y-68146657D01*
X192670133Y-68289514D01*
X192622514Y-68384752D01*
X192574895Y-68432371D01*
X192479657Y-68479990D01*
X192098704Y-68479990D01*
X193241561Y-68384752D02*
X193146323Y-68337133D01*
X193098704Y-68289514D01*
X193051085Y-68194276D01*
X193051085Y-68146657D01*
X193098704Y-68051419D01*
X193146323Y-68003800D01*
X193241561Y-67956180D01*
X193432038Y-67956180D01*
X193527276Y-68003800D01*
X193574895Y-68051419D01*
X193622514Y-68146657D01*
X193622514Y-68194276D01*
X193574895Y-68289514D01*
X193527276Y-68337133D01*
X193432038Y-68384752D01*
X193241561Y-68384752D01*
X193146323Y-68432371D01*
X193098704Y-68479990D01*
X193051085Y-68575228D01*
X193051085Y-68765704D01*
X193098704Y-68860942D01*
X193146323Y-68908561D01*
X193241561Y-68956180D01*
X193432038Y-68956180D01*
X193527276Y-68908561D01*
X193574895Y-68860942D01*
X193622514Y-68765704D01*
X193622514Y-68575228D01*
X193574895Y-68479990D01*
X193527276Y-68432371D01*
X193432038Y-68384752D01*
%TO.C,C1*%
X149749533Y-52234542D02*
X149701914Y-52282161D01*
X149559057Y-52329780D01*
X149463819Y-52329780D01*
X149320961Y-52282161D01*
X149225723Y-52186923D01*
X149178104Y-52091685D01*
X149130485Y-51901209D01*
X149130485Y-51758352D01*
X149178104Y-51567876D01*
X149225723Y-51472638D01*
X149320961Y-51377400D01*
X149463819Y-51329780D01*
X149559057Y-51329780D01*
X149701914Y-51377400D01*
X149749533Y-51425019D01*
X150701914Y-52329780D02*
X150130485Y-52329780D01*
X150416200Y-52329780D02*
X150416200Y-51329780D01*
X150320961Y-51472638D01*
X150225723Y-51567876D01*
X150130485Y-51615495D01*
%TO.C,C2*%
X149698733Y-81419142D02*
X149651114Y-81466761D01*
X149508257Y-81514380D01*
X149413019Y-81514380D01*
X149270161Y-81466761D01*
X149174923Y-81371523D01*
X149127304Y-81276285D01*
X149079685Y-81085809D01*
X149079685Y-80942952D01*
X149127304Y-80752476D01*
X149174923Y-80657238D01*
X149270161Y-80562000D01*
X149413019Y-80514380D01*
X149508257Y-80514380D01*
X149651114Y-80562000D01*
X149698733Y-80609619D01*
X150079685Y-80609619D02*
X150127304Y-80562000D01*
X150222542Y-80514380D01*
X150460638Y-80514380D01*
X150555876Y-80562000D01*
X150603495Y-80609619D01*
X150651114Y-80704857D01*
X150651114Y-80800095D01*
X150603495Y-80942952D01*
X150032066Y-81514380D01*
X150651114Y-81514380D01*
%TO.C,C3*%
X149698733Y-110629142D02*
X149651114Y-110676761D01*
X149508257Y-110724380D01*
X149413019Y-110724380D01*
X149270161Y-110676761D01*
X149174923Y-110581523D01*
X149127304Y-110486285D01*
X149079685Y-110295809D01*
X149079685Y-110152952D01*
X149127304Y-109962476D01*
X149174923Y-109867238D01*
X149270161Y-109772000D01*
X149413019Y-109724380D01*
X149508257Y-109724380D01*
X149651114Y-109772000D01*
X149698733Y-109819619D01*
X150032066Y-109724380D02*
X150651114Y-109724380D01*
X150317780Y-110105333D01*
X150460638Y-110105333D01*
X150555876Y-110152952D01*
X150603495Y-110200571D01*
X150651114Y-110295809D01*
X150651114Y-110533904D01*
X150603495Y-110629142D01*
X150555876Y-110676761D01*
X150460638Y-110724380D01*
X150174923Y-110724380D01*
X150079685Y-110676761D01*
X150032066Y-110629142D01*
%TO.C,C4*%
X174209733Y-112178542D02*
X174162114Y-112226161D01*
X174019257Y-112273780D01*
X173924019Y-112273780D01*
X173781161Y-112226161D01*
X173685923Y-112130923D01*
X173638304Y-112035685D01*
X173590685Y-111845209D01*
X173590685Y-111702352D01*
X173638304Y-111511876D01*
X173685923Y-111416638D01*
X173781161Y-111321400D01*
X173924019Y-111273780D01*
X174019257Y-111273780D01*
X174162114Y-111321400D01*
X174209733Y-111369019D01*
X175066876Y-111607114D02*
X175066876Y-112273780D01*
X174828780Y-111226161D02*
X174590685Y-111940447D01*
X175209733Y-111940447D01*
%TO.C,C5*%
X184191933Y-63816942D02*
X184144314Y-63864561D01*
X184001457Y-63912180D01*
X183906219Y-63912180D01*
X183763361Y-63864561D01*
X183668123Y-63769323D01*
X183620504Y-63674085D01*
X183572885Y-63483609D01*
X183572885Y-63340752D01*
X183620504Y-63150276D01*
X183668123Y-63055038D01*
X183763361Y-62959800D01*
X183906219Y-62912180D01*
X184001457Y-62912180D01*
X184144314Y-62959800D01*
X184191933Y-63007419D01*
X185096695Y-62912180D02*
X184620504Y-62912180D01*
X184572885Y-63388371D01*
X184620504Y-63340752D01*
X184715742Y-63293133D01*
X184953838Y-63293133D01*
X185049076Y-63340752D01*
X185096695Y-63388371D01*
X185144314Y-63483609D01*
X185144314Y-63721704D01*
X185096695Y-63816942D01*
X185049076Y-63864561D01*
X184953838Y-63912180D01*
X184715742Y-63912180D01*
X184620504Y-63864561D01*
X184572885Y-63816942D01*
%TO.C,J4*%
X179092266Y-130269180D02*
X179092266Y-130983466D01*
X179044647Y-131126323D01*
X178949409Y-131221561D01*
X178806552Y-131269180D01*
X178711314Y-131269180D01*
X179997028Y-130602514D02*
X179997028Y-131269180D01*
X179758933Y-130221561D02*
X179520838Y-130935847D01*
X180139885Y-130935847D01*
%TO.C,J5*%
X185035866Y-130269180D02*
X185035866Y-130983466D01*
X184988247Y-131126323D01*
X184893009Y-131221561D01*
X184750152Y-131269180D01*
X184654914Y-131269180D01*
X185988247Y-130269180D02*
X185512057Y-130269180D01*
X185464438Y-130745371D01*
X185512057Y-130697752D01*
X185607295Y-130650133D01*
X185845390Y-130650133D01*
X185940628Y-130697752D01*
X185988247Y-130745371D01*
X186035866Y-130840609D01*
X186035866Y-131078704D01*
X185988247Y-131173942D01*
X185940628Y-131221561D01*
X185845390Y-131269180D01*
X185607295Y-131269180D01*
X185512057Y-131221561D01*
X185464438Y-131173942D01*
%TO.C,Q1*%
X184461161Y-101915019D02*
X184365923Y-101867400D01*
X184270685Y-101772161D01*
X184127828Y-101629304D01*
X184032590Y-101581685D01*
X183937352Y-101581685D01*
X183984971Y-101819780D02*
X183889733Y-101772161D01*
X183794495Y-101676923D01*
X183746876Y-101486447D01*
X183746876Y-101153114D01*
X183794495Y-100962638D01*
X183889733Y-100867400D01*
X183984971Y-100819780D01*
X184175447Y-100819780D01*
X184270685Y-100867400D01*
X184365923Y-100962638D01*
X184413542Y-101153114D01*
X184413542Y-101486447D01*
X184365923Y-101676923D01*
X184270685Y-101772161D01*
X184175447Y-101819780D01*
X183984971Y-101819780D01*
X185365923Y-101819780D02*
X184794495Y-101819780D01*
X185080209Y-101819780D02*
X185080209Y-100819780D01*
X184984971Y-100962638D01*
X184889733Y-101057876D01*
X184794495Y-101105495D01*
%TO.C,Q2*%
X184461161Y-108417419D02*
X184365923Y-108369800D01*
X184270685Y-108274561D01*
X184127828Y-108131704D01*
X184032590Y-108084085D01*
X183937352Y-108084085D01*
X183984971Y-108322180D02*
X183889733Y-108274561D01*
X183794495Y-108179323D01*
X183746876Y-107988847D01*
X183746876Y-107655514D01*
X183794495Y-107465038D01*
X183889733Y-107369800D01*
X183984971Y-107322180D01*
X184175447Y-107322180D01*
X184270685Y-107369800D01*
X184365923Y-107465038D01*
X184413542Y-107655514D01*
X184413542Y-107988847D01*
X184365923Y-108179323D01*
X184270685Y-108274561D01*
X184175447Y-108322180D01*
X183984971Y-108322180D01*
X184794495Y-107417419D02*
X184842114Y-107369800D01*
X184937352Y-107322180D01*
X185175447Y-107322180D01*
X185270685Y-107369800D01*
X185318304Y-107417419D01*
X185365923Y-107512657D01*
X185365923Y-107607895D01*
X185318304Y-107750752D01*
X184746876Y-108322180D01*
X185365923Y-108322180D01*
%TO.C,U2*%
X165989095Y-48482580D02*
X165989095Y-49292104D01*
X166036714Y-49387342D01*
X166084333Y-49434961D01*
X166179571Y-49482580D01*
X166370047Y-49482580D01*
X166465285Y-49434961D01*
X166512904Y-49387342D01*
X166560523Y-49292104D01*
X166560523Y-48482580D01*
X166989095Y-48577819D02*
X167036714Y-48530200D01*
X167131952Y-48482580D01*
X167370047Y-48482580D01*
X167465285Y-48530200D01*
X167512904Y-48577819D01*
X167560523Y-48673057D01*
X167560523Y-48768295D01*
X167512904Y-48911152D01*
X166941476Y-49482580D01*
X167560523Y-49482580D01*
%TO.C,U3*%
X141732095Y-51554580D02*
X141732095Y-52364104D01*
X141779714Y-52459342D01*
X141827333Y-52506961D01*
X141922571Y-52554580D01*
X142113047Y-52554580D01*
X142208285Y-52506961D01*
X142255904Y-52459342D01*
X142303523Y-52364104D01*
X142303523Y-51554580D01*
X142684476Y-51554580D02*
X143303523Y-51554580D01*
X142970190Y-51935533D01*
X143113047Y-51935533D01*
X143208285Y-51983152D01*
X143255904Y-52030771D01*
X143303523Y-52126009D01*
X143303523Y-52364104D01*
X143255904Y-52459342D01*
X143208285Y-52506961D01*
X143113047Y-52554580D01*
X142827333Y-52554580D01*
X142732095Y-52506961D01*
X142684476Y-52459342D01*
%TO.C,U4*%
X141732095Y-80739180D02*
X141732095Y-81548704D01*
X141779714Y-81643942D01*
X141827333Y-81691561D01*
X141922571Y-81739180D01*
X142113047Y-81739180D01*
X142208285Y-81691561D01*
X142255904Y-81643942D01*
X142303523Y-81548704D01*
X142303523Y-80739180D01*
X143208285Y-81072514D02*
X143208285Y-81739180D01*
X142970190Y-80691561D02*
X142732095Y-81405847D01*
X143351142Y-81405847D01*
%TO.C,U5*%
X141732095Y-109923780D02*
X141732095Y-110733304D01*
X141779714Y-110828542D01*
X141827333Y-110876161D01*
X141922571Y-110923780D01*
X142113047Y-110923780D01*
X142208285Y-110876161D01*
X142255904Y-110828542D01*
X142303523Y-110733304D01*
X142303523Y-109923780D01*
X143255904Y-109923780D02*
X142779714Y-109923780D01*
X142732095Y-110399971D01*
X142779714Y-110352352D01*
X142874952Y-110304733D01*
X143113047Y-110304733D01*
X143208285Y-110352352D01*
X143255904Y-110399971D01*
X143303523Y-110495209D01*
X143303523Y-110733304D01*
X143255904Y-110828542D01*
X143208285Y-110876161D01*
X143113047Y-110923780D01*
X142874952Y-110923780D01*
X142779714Y-110876161D01*
X142732095Y-110828542D01*
%TO.C,U6*%
X166268495Y-111498580D02*
X166268495Y-112308104D01*
X166316114Y-112403342D01*
X166363733Y-112450961D01*
X166458971Y-112498580D01*
X166649447Y-112498580D01*
X166744685Y-112450961D01*
X166792304Y-112403342D01*
X166839923Y-112308104D01*
X166839923Y-111498580D01*
X167744685Y-111498580D02*
X167554209Y-111498580D01*
X167458971Y-111546200D01*
X167411352Y-111593819D01*
X167316114Y-111736676D01*
X167268495Y-111927152D01*
X167268495Y-112308104D01*
X167316114Y-112403342D01*
X167363733Y-112450961D01*
X167458971Y-112498580D01*
X167649447Y-112498580D01*
X167744685Y-112450961D01*
X167792304Y-112403342D01*
X167839923Y-112308104D01*
X167839923Y-112070009D01*
X167792304Y-111974771D01*
X167744685Y-111927152D01*
X167649447Y-111879533D01*
X167458971Y-111879533D01*
X167363733Y-111927152D01*
X167316114Y-111974771D01*
X167268495Y-112070009D01*
%TD*%
M02*
