%TF.GenerationSoftware,KiCad,Pcbnew,(5.1.10-1-10_14)*%
%TF.CreationDate,2021-11-12T16:12:36-08:00*%
%TF.ProjectId,TRS-IO-M1,5452532d-494f-42d4-9d31-2e6b69636164,rev?*%
%TF.SameCoordinates,Original*%
%TF.FileFunction,Copper,L1,Top*%
%TF.FilePolarity,Positive*%
%FSLAX46Y46*%
G04 Gerber Fmt 4.6, Leading zero omitted, Abs format (unit mm)*
G04 Created by KiCad (PCBNEW (5.1.10-1-10_14)) date 2021-11-12 16:12:36*
%MOMM*%
%LPD*%
G01*
G04 APERTURE LIST*
%TA.AperFunction,ComponentPad*%
%ADD10O,1.600000X1.600000*%
%TD*%
%TA.AperFunction,ComponentPad*%
%ADD11R,1.600000X1.600000*%
%TD*%
%TA.AperFunction,ComponentPad*%
%ADD12C,2.000000*%
%TD*%
%TA.AperFunction,ComponentPad*%
%ADD13C,1.600000*%
%TD*%
%TA.AperFunction,ConnectorPad*%
%ADD14R,7.620000X1.778000*%
%TD*%
%TA.AperFunction,ComponentPad*%
%ADD15O,1.700000X1.700000*%
%TD*%
%TA.AperFunction,ComponentPad*%
%ADD16R,1.700000X1.700000*%
%TD*%
%TA.AperFunction,ComponentPad*%
%ADD17O,1.070000X1.800000*%
%TD*%
%TA.AperFunction,ComponentPad*%
%ADD18R,1.070000X1.800000*%
%TD*%
%TA.AperFunction,SMDPad,CuDef*%
%ADD19R,0.700000X1.600000*%
%TD*%
%TA.AperFunction,SMDPad,CuDef*%
%ADD20R,1.600000X1.400000*%
%TD*%
%TA.AperFunction,SMDPad,CuDef*%
%ADD21R,1.200000X2.200000*%
%TD*%
%TA.AperFunction,SMDPad,CuDef*%
%ADD22R,1.200000X1.400000*%
%TD*%
%TA.AperFunction,ComponentPad*%
%ADD23O,1.050000X1.500000*%
%TD*%
%TA.AperFunction,ComponentPad*%
%ADD24R,1.050000X1.500000*%
%TD*%
%TA.AperFunction,ComponentPad*%
%ADD25O,2.000000X1.200000*%
%TD*%
%TA.AperFunction,ComponentPad*%
%ADD26C,5.000000*%
%TD*%
%TA.AperFunction,ComponentPad*%
%ADD27C,0.800000*%
%TD*%
%TA.AperFunction,ViaPad*%
%ADD28C,0.800000*%
%TD*%
%TA.AperFunction,Conductor*%
%ADD29C,0.250000*%
%TD*%
G04 APERTURE END LIST*
D10*
%TO.P,U1,38*%
%TO.N,+5V*%
X203276200Y-51752500D03*
%TO.P,U1,37*%
%TO.N,Net-(U1-Pad37)*%
X203276200Y-54229000D03*
%TO.P,U1,19*%
%TO.N,GND*%
X180416200Y-97409000D03*
%TO.P,U1,36*%
%TO.N,Net-(U1-Pad36)*%
X203276200Y-56769000D03*
%TO.P,U1,18*%
%TO.N,CS_SD_CARD*%
X180416200Y-94869000D03*
%TO.P,U1,35*%
%TO.N,Net-(U1-Pad35)*%
X203276200Y-59309000D03*
%TO.P,U1,17*%
%TO.N,MISO*%
X180416200Y-92329000D03*
%TO.P,U1,34*%
%TO.N,AA1*%
X203276200Y-61849000D03*
%TO.P,U1,16*%
%TO.N,Net-(U1-Pad16)*%
X180416200Y-89789000D03*
%TO.P,U1,33*%
%TO.N,GND*%
X203276200Y-64389000D03*
%TO.P,U1,15*%
%TO.N,Net-(U1-Pad15)*%
X180416200Y-87249000D03*
%TO.P,U1,32*%
%TO.N,AA0*%
X203276200Y-66929000D03*
%TO.P,U1,14*%
%TO.N,MOSI*%
X180416200Y-84709000D03*
%TO.P,U1,31*%
%TO.N,AA2*%
X203276200Y-69469000D03*
%TO.P,U1,13*%
%TO.N,GND*%
X180416200Y-82169000D03*
%TO.P,U1,30*%
%TO.N,DONE*%
X203276200Y-72009000D03*
%TO.P,U1,12*%
%TO.N,ESP_S3*%
X180416200Y-79629000D03*
%TO.P,U1,29*%
%TO.N,CS_FPGA*%
X203276200Y-74549000D03*
%TO.P,U1,11*%
%TO.N,ESP_S2*%
X180416200Y-77089000D03*
%TO.P,U1,28*%
%TO.N,SCK*%
X203276200Y-77089000D03*
%TO.P,U1,10*%
%TO.N,LED_RED*%
X180416200Y-74549000D03*
%TO.P,U1,27*%
%TO.N,Net-(U1-Pad27)*%
X203276200Y-79629000D03*
%TO.P,U1,9*%
%TO.N,ESP_S1*%
X180416200Y-72009000D03*
%TO.P,U1,26*%
%TO.N,LED_BLUE*%
X203276200Y-82169000D03*
%TO.P,U1,8*%
%TO.N,ESP_S0*%
X180416200Y-69469000D03*
%TO.P,U1,25*%
%TO.N,Net-(U1-Pad25)*%
X203276200Y-84709000D03*
%TO.P,U1,7*%
%TO.N,LED_GREEN*%
X180416200Y-66929000D03*
%TO.P,U1,24*%
%TO.N,REQ*%
X203276200Y-87249000D03*
%TO.P,U1,6*%
%TO.N,Net-(U1-Pad6)*%
X180416200Y-64389000D03*
%TO.P,U1,23*%
%TO.N,BUTTON*%
X203276200Y-89789000D03*
%TO.P,U1,5*%
%TO.N,Net-(U1-Pad5)*%
X180416200Y-61849000D03*
%TO.P,U1,22*%
%TO.N,Net-(U1-Pad22)*%
X203276200Y-92329000D03*
%TO.P,U1,4*%
%TO.N,AA3*%
X180416200Y-59309000D03*
%TO.P,U1,21*%
%TO.N,Net-(U1-Pad21)*%
X203276200Y-94869000D03*
%TO.P,U1,3*%
%TO.N,Net-(U1-Pad3)*%
X180416200Y-56769000D03*
%TO.P,U1,20*%
%TO.N,+3V3*%
X203276200Y-97409000D03*
%TO.P,U1,2*%
%TO.N,Net-(U1-Pad2)*%
X180416200Y-54229000D03*
D11*
%TO.P,U1,1*%
%TO.N,Net-(U1-Pad1)*%
X180416200Y-51689000D03*
%TD*%
D12*
%TO.P,SW1,1*%
%TO.N,GND*%
X200044900Y-109397800D03*
%TO.P,SW1,2*%
%TO.N,BUTTON*%
X200044900Y-113897800D03*
%TO.P,SW1,1*%
%TO.N,GND*%
X193544900Y-109397800D03*
%TO.P,SW1,2*%
%TO.N,BUTTON*%
X193544900Y-113897800D03*
%TD*%
D10*
%TO.P,R4,2*%
%TO.N,BUTTON*%
X200494900Y-103809800D03*
D13*
%TO.P,R4,1*%
%TO.N,+3V3*%
X192874900Y-103809800D03*
%TD*%
D10*
%TO.P,R3,2*%
%TO.N,Net-(D1-Pad3)*%
X195605400Y-128447800D03*
D13*
%TO.P,R3,1*%
%TO.N,LED_BLUE*%
X195605400Y-120827800D03*
%TD*%
D10*
%TO.P,R2,2*%
%TO.N,Net-(D1-Pad4)*%
X199161400Y-128447800D03*
D13*
%TO.P,R2,1*%
%TO.N,LED_GREEN*%
X199161400Y-120827800D03*
%TD*%
D10*
%TO.P,R1,2*%
%TO.N,Net-(D1-Pad1)*%
X192049400Y-128447800D03*
D13*
%TO.P,R1,1*%
%TO.N,LED_RED*%
X192049400Y-120827800D03*
%TD*%
D14*
%TO.P,J2,2*%
%TO.N,RAS_N*%
X107061000Y-68783200D03*
%TO.P,J2,4*%
%TO.N,CAS_N*%
X107061000Y-71323200D03*
%TO.P,J2,6*%
%TO.N,A12*%
X107061000Y-73863200D03*
%TO.P,J2,8*%
%TO.N,A15*%
X107061000Y-76403200D03*
%TO.P,J2,10*%
%TO.N,A11*%
X107061000Y-78943200D03*
%TO.P,J2,12*%
%TO.N,A8*%
X107061000Y-81483200D03*
%TO.P,J2,14*%
%TO.N,WR_N*%
X107061000Y-84023200D03*
%TO.P,J2,16*%
%TO.N,RD_N*%
X107061000Y-86563200D03*
%TO.P,J2,18*%
%TO.N,A9*%
X107061000Y-89103200D03*
%TO.P,J2,20*%
%TO.N,IN_N*%
X107061000Y-91643200D03*
%TO.P,J2,22*%
%TO.N,INT_N*%
X107061000Y-94183200D03*
%TO.P,J2,24*%
%TO.N,TEST_N*%
X107061000Y-96723200D03*
%TO.P,J2,26*%
%TO.N,A0*%
X107061000Y-99263200D03*
%TO.P,J2,28*%
%TO.N,A1*%
X107061000Y-101803200D03*
%TO.P,J2,30*%
%TO.N,GND*%
X107061000Y-104343200D03*
%TO.P,J2,32*%
%TO.N,A4*%
X107061000Y-106883200D03*
%TO.P,J2,34*%
%TO.N,WAIT_N*%
X107061000Y-109423200D03*
%TO.P,J2,36*%
%TO.N,A5*%
X107061000Y-111963200D03*
%TO.P,J2,38*%
%TO.N,GND*%
X107061000Y-114503200D03*
%TO.P,J2,40*%
%TO.N,5V*%
X107061000Y-117043200D03*
%TD*%
D15*
%TO.P,J1,40*%
%TO.N,5V*%
X121379000Y-117019200D03*
%TO.P,J1,39*%
%TO.N,A2*%
X118839000Y-117019200D03*
%TO.P,J1,38*%
%TO.N,GND*%
X121379000Y-114479200D03*
%TO.P,J1,37*%
%TO.N,A6*%
X118839000Y-114479200D03*
%TO.P,J1,36*%
%TO.N,A5*%
X121379000Y-111939200D03*
%TO.P,J1,35*%
%TO.N,A7*%
X118839000Y-111939200D03*
%TO.P,J1,34*%
%TO.N,WAIT_N*%
X121379000Y-109399200D03*
%TO.P,J1,33*%
%TO.N,A3*%
X118839000Y-109399200D03*
%TO.P,J1,32*%
%TO.N,A4*%
X121379000Y-106859200D03*
%TO.P,J1,31*%
%TO.N,D2*%
X118839000Y-106859200D03*
%TO.P,J1,30*%
%TO.N,GND*%
X121379000Y-104319200D03*
%TO.P,J1,29*%
%TO.N,D0*%
X118839000Y-104319200D03*
%TO.P,J1,28*%
%TO.N,A1*%
X121379000Y-101779200D03*
%TO.P,J1,27*%
%TO.N,D5*%
X118839000Y-101779200D03*
%TO.P,J1,26*%
%TO.N,A0*%
X121379000Y-99239200D03*
%TO.P,J1,25*%
%TO.N,D3*%
X118839000Y-99239200D03*
%TO.P,J1,24*%
%TO.N,TEST_N*%
X121379000Y-96699200D03*
%TO.P,J1,23*%
%TO.N,D6*%
X118839000Y-96699200D03*
%TO.P,J1,22*%
%TO.N,INT_N*%
X121379000Y-94159200D03*
%TO.P,J1,21*%
%TO.N,D1*%
X118839000Y-94159200D03*
%TO.P,J1,20*%
%TO.N,IN_N*%
X121379000Y-91619200D03*
%TO.P,J1,19*%
%TO.N,D7*%
X118839000Y-91619200D03*
%TO.P,J1,18*%
%TO.N,A9*%
X121379000Y-89079200D03*
%TO.P,J1,17*%
%TO.N,D4*%
X118839000Y-89079200D03*
%TO.P,J1,16*%
%TO.N,RD_N*%
X121379000Y-86539200D03*
%TO.P,J1,15*%
%TO.N,MUX*%
X118839000Y-86539200D03*
%TO.P,J1,14*%
%TO.N,WR_N*%
X121379000Y-83999200D03*
%TO.P,J1,13*%
%TO.N,INTACK_N*%
X118839000Y-83999200D03*
%TO.P,J1,12*%
%TO.N,A8*%
X121379000Y-81459200D03*
%TO.P,J1,11*%
%TO.N,OUT_N*%
X118839000Y-81459200D03*
%TO.P,J1,10*%
%TO.N,A11*%
X121379000Y-78919200D03*
%TO.P,J1,9*%
%TO.N,A14*%
X118839000Y-78919200D03*
%TO.P,J1,8*%
%TO.N,A15*%
X121379000Y-76379200D03*
%TO.P,J1,7*%
%TO.N,GND*%
X118839000Y-76379200D03*
%TO.P,J1,6*%
%TO.N,A12*%
X121379000Y-73839200D03*
%TO.P,J1,5*%
%TO.N,A13*%
X118839000Y-73839200D03*
%TO.P,J1,4*%
%TO.N,CAS_N*%
X121379000Y-71299200D03*
%TO.P,J1,3*%
%TO.N,A10*%
X118839000Y-71299200D03*
%TO.P,J1,2*%
%TO.N,RAS_N*%
X121379000Y-68759200D03*
D16*
%TO.P,J1,1*%
%TO.N,SYSRES_N*%
X118839000Y-68759200D03*
%TD*%
D17*
%TO.P,D1,4*%
%TO.N,Net-(D1-Pad4)*%
X196875400Y-134543800D03*
%TO.P,D1,3*%
%TO.N,Net-(D1-Pad3)*%
X195605400Y-134543800D03*
%TO.P,D1,2*%
%TO.N,GND*%
X194335400Y-134543800D03*
D18*
%TO.P,D1,1*%
%TO.N,Net-(D1-Pad1)*%
X193065400Y-134543800D03*
%TD*%
D19*
%TO.P,J3,1*%
%TO.N,Net-(J3-Pad1)*%
X189595400Y-62874800D03*
%TO.P,J3,2*%
%TO.N,CS_SD_CARD*%
X190695400Y-62874800D03*
%TO.P,J3,3*%
%TO.N,MOSI*%
X191795400Y-62874800D03*
%TO.P,J3,4*%
%TO.N,+3V3*%
X192895400Y-62874800D03*
%TO.P,J3,5*%
%TO.N,SCK*%
X193995400Y-62874800D03*
%TO.P,J3,6*%
%TO.N,GND*%
X195095400Y-62874800D03*
%TO.P,J3,7*%
%TO.N,MISO*%
X196195400Y-62874800D03*
%TO.P,J3,8*%
%TO.N,Net-(J3-Pad8)*%
X197295400Y-62874800D03*
%TO.P,J3,9*%
%TO.N,Net-(J3-Pad9)*%
X198395400Y-62874800D03*
D20*
%TO.P,J3,10*%
%TO.N,GND*%
X184945400Y-62374800D03*
D21*
%TO.P,J3,11*%
X184045400Y-52774800D03*
%TO.P,J3,12*%
X199545400Y-52774800D03*
D22*
%TO.P,J3,13*%
X199545400Y-62374800D03*
%TD*%
D13*
%TO.P,R5,1*%
%TO.N,+3V3*%
X189077600Y-78790800D03*
D10*
%TO.P,R5,2*%
%TO.N,Net-(J3-Pad8)*%
X196697600Y-78790800D03*
%TD*%
%TO.P,R6,2*%
%TO.N,MOSI*%
X196697600Y-75361800D03*
D13*
%TO.P,R6,1*%
%TO.N,+3V3*%
X189077600Y-75361800D03*
%TD*%
%TO.P,R7,1*%
%TO.N,+3V3*%
X189077600Y-71932800D03*
D10*
%TO.P,R7,2*%
%TO.N,CS_SD_CARD*%
X196697600Y-71932800D03*
%TD*%
%TO.P,R8,2*%
%TO.N,Net-(J3-Pad1)*%
X196697600Y-68503800D03*
D13*
%TO.P,R8,1*%
%TO.N,+3V3*%
X189077600Y-68503800D03*
%TD*%
%TO.P,C1,1*%
%TO.N,+3V3*%
X148666200Y-54127400D03*
%TO.P,C1,2*%
%TO.N,GND*%
X151166200Y-54127400D03*
%TD*%
%TO.P,C2,2*%
%TO.N,GND*%
X151115400Y-83312000D03*
%TO.P,C2,1*%
%TO.N,+3V3*%
X148615400Y-83312000D03*
%TD*%
%TO.P,C3,1*%
%TO.N,+3V3*%
X148615400Y-112522000D03*
%TO.P,C3,2*%
%TO.N,GND*%
X151115400Y-112522000D03*
%TD*%
%TO.P,C4,2*%
%TO.N,GND*%
X175626400Y-114071400D03*
%TO.P,C4,1*%
%TO.N,+3V3*%
X173126400Y-114071400D03*
%TD*%
%TO.P,C5,1*%
%TO.N,+3V3*%
X183108600Y-65709800D03*
%TO.P,C5,2*%
%TO.N,GND*%
X185608600Y-65709800D03*
%TD*%
D16*
%TO.P,J4,1*%
%TO.N,+5V*%
X179425600Y-133146800D03*
D15*
%TO.P,J4,2*%
%TO.N,VU*%
X179425600Y-135686800D03*
%TD*%
%TO.P,J5,2*%
%TO.N,GND*%
X185369200Y-135686800D03*
D16*
%TO.P,J5,1*%
%TO.N,FULL_ADDR*%
X185369200Y-133146800D03*
%TD*%
D23*
%TO.P,Q1,2*%
%TO.N,WAIT*%
X184556400Y-104927400D03*
%TO.P,Q1,3*%
%TO.N,WAIT_N*%
X185826400Y-104927400D03*
D24*
%TO.P,Q1,1*%
%TO.N,GND*%
X183286400Y-104927400D03*
%TD*%
%TO.P,Q2,1*%
%TO.N,GND*%
X183286400Y-111429800D03*
D23*
%TO.P,Q2,3*%
%TO.N,INT_N*%
X185826400Y-111429800D03*
%TO.P,Q2,2*%
%TO.N,INT*%
X184556400Y-111429800D03*
%TD*%
D25*
%TO.P,U2,48*%
%TO.N,AA1*%
X174371000Y-51130200D03*
%TO.P,U2,1*%
%TO.N,AA0*%
X159131000Y-51130200D03*
%TO.P,U2,47*%
%TO.N,AA3*%
X174371000Y-53670200D03*
%TO.P,U2,2*%
%TO.N,AA4*%
X159131000Y-53670200D03*
%TO.P,U2,46*%
%TO.N,AA7*%
X174371000Y-56210200D03*
%TO.P,U2,3*%
%TO.N,AA5*%
X159131000Y-56210200D03*
%TO.P,U2,45*%
%TO.N,AA2*%
X174371000Y-58750200D03*
%TO.P,U2,4*%
%TO.N,AA6*%
X159131000Y-58750200D03*
%TO.P,U2,44*%
%TO.N,AA11*%
X174371000Y-61290200D03*
%TO.P,U2,5*%
%TO.N,AA10*%
X159131000Y-61290200D03*
%TO.P,U2,43*%
%TO.N,AA14*%
X174371000Y-63830200D03*
%TO.P,U2,6*%
%TO.N,AA12*%
X159131000Y-63830200D03*
%TO.P,U2,42*%
%TO.N,AA8*%
X174371000Y-66370200D03*
%TO.P,U2,7*%
%TO.N,AA13*%
X159131000Y-66370200D03*
%TO.P,U2,41*%
%TO.N,AA9*%
X174371000Y-68910200D03*
%TO.P,U2,8*%
%TO.N,AA15*%
X159131000Y-68910200D03*
%TO.P,U2,40*%
%TO.N,DONE*%
X174371000Y-71450200D03*
%TO.P,U2,9*%
%TO.N,DD4*%
X159131000Y-71450200D03*
%TO.P,U2,39*%
%TO.N,REQ*%
X174371000Y-73990200D03*
%TO.P,U2,10*%
%TO.N,DD7*%
X159131000Y-73990200D03*
%TO.P,U2,38*%
%TO.N,ESP_S0*%
X174371000Y-76530200D03*
%TO.P,U2,11*%
%TO.N,DD1*%
X159131000Y-76530200D03*
%TO.P,U2,37*%
%TO.N,ESP_S1*%
X174371000Y-79070200D03*
%TO.P,U2,12*%
%TO.N,DD6*%
X159131000Y-79070200D03*
%TO.P,U2,36*%
%TO.N,ESP_S2*%
X174371000Y-81610200D03*
%TO.P,U2,13*%
%TO.N,DD3*%
X159131000Y-81610200D03*
%TO.P,U2,35*%
%TO.N,ESP_S3*%
X174371000Y-84150200D03*
%TO.P,U2,14*%
%TO.N,DD5*%
X159131000Y-84150200D03*
%TO.P,U2,34*%
%TO.N,MOSI*%
X174371000Y-86690200D03*
%TO.P,U2,15*%
%TO.N,Net-(U2-Pad15)*%
X159131000Y-86690200D03*
%TO.P,U2,33*%
%TO.N,MISO*%
X174371000Y-89230200D03*
%TO.P,U2,16*%
%TO.N,Net-(U2-Pad16)*%
X159131000Y-89230200D03*
%TO.P,U2,32*%
%TO.N,CS_FPGA*%
X174371000Y-91770200D03*
%TO.P,U2,17*%
%TO.N,DD0*%
X159131000Y-91770200D03*
%TO.P,U2,31*%
%TO.N,SCK*%
X174371000Y-94310200D03*
%TO.P,U2,18*%
%TO.N,DD2*%
X159131000Y-94310200D03*
%TO.P,U2,30*%
%TO.N,FULL_ADDR*%
X174371000Y-96850200D03*
%TO.P,U2,19*%
%TO.N,Z80_WR_N*%
X159131000Y-96850200D03*
%TO.P,U2,29*%
%TO.N,DBUS_SEL_N*%
X174371000Y-99390200D03*
%TO.P,U2,20*%
%TO.N,Z80_RD_N*%
X159131000Y-99390200D03*
%TO.P,U2,28*%
%TO.N,READ_N*%
X174371000Y-101930200D03*
%TO.P,U2,21*%
%TO.N,Z80_RAS_N*%
X159131000Y-101930200D03*
%TO.P,U2,27*%
%TO.N,WAIT*%
X174371000Y-104470200D03*
%TO.P,U2,22*%
%TO.N,Z80_OUT_N*%
X159131000Y-104470200D03*
%TO.P,U2,26*%
%TO.N,INT*%
X174371000Y-107010200D03*
%TO.P,U2,23*%
%TO.N,Z80_IN_N*%
X159131000Y-107010200D03*
%TO.P,U2,25*%
%TO.N,GND*%
X174371000Y-109550200D03*
%TO.P,U2,24*%
%TO.N,VU*%
X159131000Y-109550200D03*
%TD*%
D11*
%TO.P,U3,1*%
%TO.N,+3V3*%
X138684000Y-54432200D03*
D10*
%TO.P,U3,11*%
%TO.N,AA2*%
X146304000Y-77292200D03*
%TO.P,U3,2*%
%TO.N,A0*%
X138684000Y-56972200D03*
%TO.P,U3,12*%
%TO.N,AA6*%
X146304000Y-74752200D03*
%TO.P,U3,3*%
%TO.N,A1*%
X138684000Y-59512200D03*
%TO.P,U3,13*%
%TO.N,AA7*%
X146304000Y-72212200D03*
%TO.P,U3,4*%
%TO.N,A4*%
X138684000Y-62052200D03*
%TO.P,U3,14*%
%TO.N,AA5*%
X146304000Y-69672200D03*
%TO.P,U3,5*%
%TO.N,A3*%
X138684000Y-64592200D03*
%TO.P,U3,15*%
%TO.N,AA3*%
X146304000Y-67132200D03*
%TO.P,U3,6*%
%TO.N,A5*%
X138684000Y-67132200D03*
%TO.P,U3,16*%
%TO.N,AA4*%
X146304000Y-64592200D03*
%TO.P,U3,7*%
%TO.N,A7*%
X138684000Y-69672200D03*
%TO.P,U3,17*%
%TO.N,AA1*%
X146304000Y-62052200D03*
%TO.P,U3,8*%
%TO.N,A6*%
X138684000Y-72212200D03*
%TO.P,U3,18*%
%TO.N,AA0*%
X146304000Y-59512200D03*
%TO.P,U3,9*%
%TO.N,A2*%
X138684000Y-74752200D03*
%TO.P,U3,19*%
%TO.N,GND*%
X146304000Y-56972200D03*
%TO.P,U3,10*%
X138684000Y-77292200D03*
%TO.P,U3,20*%
%TO.N,+3V3*%
X146304000Y-54432200D03*
%TD*%
%TO.P,U4,20*%
%TO.N,+3V3*%
X146304000Y-83616800D03*
%TO.P,U4,10*%
%TO.N,GND*%
X138684000Y-106476800D03*
%TO.P,U4,19*%
X146304000Y-86156800D03*
%TO.P,U4,9*%
%TO.N,A9*%
X138684000Y-103936800D03*
%TO.P,U4,18*%
%TO.N,AA10*%
X146304000Y-88696800D03*
%TO.P,U4,8*%
%TO.N,A8*%
X138684000Y-101396800D03*
%TO.P,U4,17*%
%TO.N,AA12*%
X146304000Y-91236800D03*
%TO.P,U4,7*%
%TO.N,A14*%
X138684000Y-98856800D03*
%TO.P,U4,16*%
%TO.N,AA13*%
X146304000Y-93776800D03*
%TO.P,U4,6*%
%TO.N,A11*%
X138684000Y-96316800D03*
%TO.P,U4,15*%
%TO.N,AA15*%
X146304000Y-96316800D03*
%TO.P,U4,5*%
%TO.N,A15*%
X138684000Y-93776800D03*
%TO.P,U4,14*%
%TO.N,AA11*%
X146304000Y-98856800D03*
%TO.P,U4,4*%
%TO.N,A13*%
X138684000Y-91236800D03*
%TO.P,U4,13*%
%TO.N,AA14*%
X146304000Y-101396800D03*
%TO.P,U4,3*%
%TO.N,A12*%
X138684000Y-88696800D03*
%TO.P,U4,12*%
%TO.N,AA8*%
X146304000Y-103936800D03*
%TO.P,U4,2*%
%TO.N,A10*%
X138684000Y-86156800D03*
%TO.P,U4,11*%
%TO.N,AA9*%
X146304000Y-106476800D03*
D11*
%TO.P,U4,1*%
%TO.N,+3V3*%
X138684000Y-83616800D03*
%TD*%
%TO.P,U5,1*%
%TO.N,READ_N*%
X138684000Y-112801400D03*
D10*
%TO.P,U5,11*%
%TO.N,DD2*%
X146304000Y-135661400D03*
%TO.P,U5,2*%
%TO.N,D4*%
X138684000Y-115341400D03*
%TO.P,U5,12*%
%TO.N,DD0*%
X146304000Y-133121400D03*
%TO.P,U5,3*%
%TO.N,D7*%
X138684000Y-117881400D03*
%TO.P,U5,13*%
%TO.N,DD5*%
X146304000Y-130581400D03*
%TO.P,U5,4*%
%TO.N,D1*%
X138684000Y-120421400D03*
%TO.P,U5,14*%
%TO.N,DD3*%
X146304000Y-128041400D03*
%TO.P,U5,5*%
%TO.N,D6*%
X138684000Y-122961400D03*
%TO.P,U5,15*%
%TO.N,DD6*%
X146304000Y-125501400D03*
%TO.P,U5,6*%
%TO.N,D3*%
X138684000Y-125501400D03*
%TO.P,U5,16*%
%TO.N,DD1*%
X146304000Y-122961400D03*
%TO.P,U5,7*%
%TO.N,D5*%
X138684000Y-128041400D03*
%TO.P,U5,17*%
%TO.N,DD7*%
X146304000Y-120421400D03*
%TO.P,U5,8*%
%TO.N,D0*%
X138684000Y-130581400D03*
%TO.P,U5,18*%
%TO.N,DD4*%
X146304000Y-117881400D03*
%TO.P,U5,9*%
%TO.N,D2*%
X138684000Y-133121400D03*
%TO.P,U5,19*%
%TO.N,DBUS_SEL_N*%
X146304000Y-115341400D03*
%TO.P,U5,10*%
%TO.N,GND*%
X138684000Y-135661400D03*
%TO.P,U5,20*%
%TO.N,+3V3*%
X146304000Y-112801400D03*
%TD*%
%TO.P,U6,20*%
%TO.N,+3V3*%
X170840400Y-114376200D03*
%TO.P,U6,10*%
%TO.N,GND*%
X163220400Y-137236200D03*
%TO.P,U6,19*%
X170840400Y-116916200D03*
%TO.P,U6,9*%
%TO.N,Net-(U6-Pad9)*%
X163220400Y-134696200D03*
%TO.P,U6,18*%
%TO.N,Z80_WR_N*%
X170840400Y-119456200D03*
%TO.P,U6,8*%
%TO.N,Net-(U6-Pad8)*%
X163220400Y-132156200D03*
%TO.P,U6,17*%
%TO.N,Z80_RD_N*%
X170840400Y-121996200D03*
%TO.P,U6,7*%
%TO.N,Net-(U6-Pad7)*%
X163220400Y-129616200D03*
%TO.P,U6,16*%
%TO.N,Z80_RAS_N*%
X170840400Y-124536200D03*
%TO.P,U6,6*%
%TO.N,IN_N*%
X163220400Y-127076200D03*
%TO.P,U6,15*%
%TO.N,Z80_OUT_N*%
X170840400Y-127076200D03*
%TO.P,U6,5*%
%TO.N,OUT_N*%
X163220400Y-124536200D03*
%TO.P,U6,14*%
%TO.N,Z80_IN_N*%
X170840400Y-129616200D03*
%TO.P,U6,4*%
%TO.N,RAS_N*%
X163220400Y-121996200D03*
%TO.P,U6,13*%
%TO.N,Net-(U6-Pad13)*%
X170840400Y-132156200D03*
%TO.P,U6,3*%
%TO.N,RD_N*%
X163220400Y-119456200D03*
%TO.P,U6,12*%
%TO.N,Net-(U6-Pad12)*%
X170840400Y-134696200D03*
%TO.P,U6,2*%
%TO.N,WR_N*%
X163220400Y-116916200D03*
%TO.P,U6,11*%
%TO.N,Net-(U6-Pad11)*%
X170840400Y-137236200D03*
D11*
%TO.P,U6,1*%
%TO.N,+3V3*%
X163220400Y-114376200D03*
%TD*%
D26*
%TO.P,H1,1*%
%TO.N,N/C*%
X118400000Y-53450000D03*
D27*
X120275000Y-53450000D03*
X119725825Y-54775825D03*
X118400000Y-55325000D03*
X117074175Y-54775825D03*
X116525000Y-53450000D03*
X117074175Y-52124175D03*
X118400000Y-51575000D03*
X119725825Y-52124175D03*
%TD*%
%TO.P,H2,1*%
%TO.N,N/C*%
X211175825Y-51674175D03*
X209850000Y-51125000D03*
X208524175Y-51674175D03*
X207975000Y-53000000D03*
X208524175Y-54325825D03*
X209850000Y-54875000D03*
X211175825Y-54325825D03*
X211725000Y-53000000D03*
D26*
X209850000Y-53000000D03*
%TD*%
%TO.P,H3,1*%
%TO.N,N/C*%
X118900000Y-136800000D03*
D27*
X120775000Y-136800000D03*
X120225825Y-138125825D03*
X118900000Y-138675000D03*
X117574175Y-138125825D03*
X117025000Y-136800000D03*
X117574175Y-135474175D03*
X118900000Y-134925000D03*
X120225825Y-135474175D03*
%TD*%
%TO.P,H4,1*%
%TO.N,N/C*%
X211275825Y-135374175D03*
X209950000Y-134825000D03*
X208624175Y-135374175D03*
X208075000Y-136700000D03*
X208624175Y-138025825D03*
X209950000Y-138575000D03*
X211275825Y-138025825D03*
X211825000Y-136700000D03*
D26*
X209950000Y-136700000D03*
%TD*%
D28*
%TO.N,GND*%
X178600000Y-114050000D03*
X178600000Y-109550000D03*
X120000000Y-66200000D03*
X143000000Y-106450000D03*
X186318811Y-53231189D03*
X186957801Y-60692199D03*
%TO.N,+3V3*%
X203073000Y-115392200D03*
X203073000Y-104825800D03*
X189103000Y-97409000D03*
%TO.N,RAS_N*%
X129336800Y-121793000D03*
X129692400Y-68808600D03*
%TO.N,A10*%
X137566400Y-71196200D03*
%TO.N,A12*%
X136833999Y-73761600D03*
%TO.N,A13*%
X136108999Y-75717400D03*
X136042400Y-91262200D03*
%TO.N,A15*%
X135383999Y-76481733D03*
X135331200Y-93827600D03*
%TO.N,A11*%
X134658999Y-78917800D03*
X134721600Y-96316800D03*
%TO.N,A14*%
X133933999Y-80162400D03*
X133908800Y-98907600D03*
%TO.N,A8*%
X133208999Y-81483200D03*
X133121400Y-101396800D03*
%TO.N,OUT_N*%
X140806000Y-124256800D03*
X140792200Y-82423000D03*
%TO.N,WR_N*%
X131380400Y-116890800D03*
X131394200Y-84048600D03*
%TO.N,RD_N*%
X130581400Y-119303800D03*
X130581400Y-86537800D03*
%TO.N,A9*%
X132396400Y-89077800D03*
X132410200Y-104013000D03*
%TO.N,D4*%
X137642600Y-90170000D03*
%TO.N,IN_N*%
X140081000Y-126923800D03*
X140081000Y-92379800D03*
%TO.N,D7*%
X136833999Y-92811600D03*
%TO.N,INT_N*%
X141531000Y-110515400D03*
X141531000Y-95072200D03*
%TO.N,D1*%
X136108999Y-95478600D03*
X136042400Y-120269000D03*
%TO.N,D6*%
X135383999Y-97967800D03*
X135331200Y-122834400D03*
%TO.N,A0*%
X123164600Y-56972200D03*
X123088400Y-99263200D03*
%TO.N,D3*%
X134543800Y-100558600D03*
X134543800Y-125425200D03*
%TO.N,A1*%
X123889600Y-59639200D03*
X123875800Y-101650800D03*
%TO.N,D5*%
X133818800Y-102870000D03*
X133832600Y-127990600D03*
%TO.N,D0*%
X133070600Y-105537000D03*
X132994400Y-130581400D03*
%TO.N,A4*%
X124614600Y-62052200D03*
X124510800Y-106705400D03*
%TO.N,D2*%
X132345600Y-108026200D03*
X132105400Y-133146800D03*
%TO.N,A3*%
X125339600Y-64617600D03*
X125298200Y-109372400D03*
%TO.N,A5*%
X126111000Y-67183000D03*
X126187200Y-111861600D03*
%TO.N,A7*%
X127177800Y-69621400D03*
X127000000Y-112699800D03*
%TO.N,A6*%
X127902800Y-72186800D03*
X127889000Y-115366800D03*
%TO.N,A2*%
X128627800Y-74853800D03*
X128600200Y-117983000D03*
%TO.N,SCK*%
X200863200Y-93751400D03*
X200660000Y-77089000D03*
X193979800Y-64135000D03*
%TO.N,MOSI*%
X190969381Y-67229886D03*
X194868800Y-84683600D03*
%TO.N,READ_N*%
X176250600Y-111455200D03*
%TO.N,MISO*%
X198780400Y-92329000D03*
X198678800Y-65938400D03*
%TO.N,DD3*%
X160996800Y-127762000D03*
X160959800Y-81508600D03*
%TO.N,DD4*%
X155305000Y-117881400D03*
%TO.N,DD5*%
X161721800Y-130835400D03*
X161721800Y-84074000D03*
%TO.N,DD6*%
X157480000Y-125450600D03*
%TO.N,DD7*%
X156030000Y-120319800D03*
%TO.N,DD2*%
X165938200Y-135839200D03*
X165684200Y-94310200D03*
%TO.N,DD0*%
X164795200Y-133400800D03*
X164795200Y-91871800D03*
%TO.N,DD1*%
X156755000Y-123012200D03*
%TO.N,AA14*%
X170870990Y-100634800D03*
%TO.N,AA2*%
X204495400Y-58293000D03*
%TO.N,AA1*%
X201650600Y-50469800D03*
%TO.N,AA11*%
X168794600Y-98145600D03*
%TO.N,AA0*%
X200482200Y-49580800D03*
%TO.N,AA9*%
X172320990Y-105664000D03*
%TO.N,AA8*%
X171595990Y-103251000D03*
%TO.N,DBUS_SEL_N*%
X173614295Y-115584601D03*
%TO.N,LED_GREEN*%
X199771000Y-69621400D03*
%TO.N,LED_BLUE*%
X195580000Y-82219800D03*
%TO.N,LED_RED*%
X191490600Y-77063600D03*
%TO.N,Net-(J3-Pad1)*%
X189560200Y-61417200D03*
%TO.N,CS_SD_CARD*%
X190728600Y-65836800D03*
X187858400Y-94818200D03*
%TO.N,Net-(J3-Pad8)*%
X197281800Y-64860000D03*
%TO.N,VU*%
X159054800Y-138861800D03*
%TO.N,INT*%
X184581800Y-107061000D03*
%TO.N,CS_FPGA*%
X204546200Y-91033600D03*
%TO.N,REQ*%
X201803000Y-73380600D03*
%TO.N,Z80_WR_N*%
X169519600Y-96875600D03*
%TO.N,Z80_RD_N*%
X168794600Y-99441000D03*
%TO.N,Z80_RAS_N*%
X168069600Y-101879400D03*
%TO.N,Z80_OUT_N*%
X167344600Y-104444800D03*
%TO.N,Z80_IN_N*%
X166619600Y-107010200D03*
%TD*%
D29*
%TO.N,+5V*%
X179425600Y-133146800D02*
X182295800Y-130276600D01*
X198997602Y-130276600D02*
X199099202Y-130175000D01*
X182295800Y-130276600D02*
X198997602Y-130276600D01*
X205271201Y-53747501D02*
X205271201Y-128662599D01*
X203276200Y-51752500D02*
X205271201Y-53747501D01*
X205271201Y-128662599D02*
X203682600Y-130251200D01*
X199023002Y-130251200D02*
X198997602Y-130276600D01*
X203682600Y-130251200D02*
X199023002Y-130251200D01*
%TO.N,GND*%
X107061000Y-104343200D02*
X116992400Y-104343200D01*
X120203999Y-103144199D02*
X121379000Y-104319200D01*
X118191401Y-103144199D02*
X120203999Y-103144199D01*
X116992400Y-104343200D02*
X118191401Y-103144199D01*
X107061000Y-114503200D02*
X116967000Y-114503200D01*
X120203999Y-113304199D02*
X121379000Y-114479200D01*
X118166001Y-113304199D02*
X120203999Y-113304199D01*
X116967000Y-114503200D02*
X118166001Y-113304199D01*
X178578600Y-114071400D02*
X178600000Y-114050000D01*
X175626400Y-114071400D02*
X178578600Y-114071400D01*
X178599800Y-109550200D02*
X178600000Y-109550000D01*
X174371000Y-109550200D02*
X178599800Y-109550200D01*
X142973200Y-106476800D02*
X143000000Y-106450000D01*
X138684000Y-106476800D02*
X142973200Y-106476800D01*
X199089011Y-53231189D02*
X199545400Y-52774800D01*
X184501789Y-53231189D02*
X186318811Y-53231189D01*
X184045400Y-52774800D02*
X184501789Y-53231189D01*
X186318811Y-53231189D02*
X199089011Y-53231189D01*
X193962799Y-60692199D02*
X195095400Y-61824800D01*
X186628001Y-60692199D02*
X186957801Y-60692199D01*
X184945400Y-62374800D02*
X186628001Y-60692199D01*
X195170401Y-61749799D02*
X195095400Y-61824800D01*
X199005401Y-61749799D02*
X195170401Y-61749799D01*
X199545400Y-62289798D02*
X199005401Y-61749799D01*
X195095400Y-61824800D02*
X195095400Y-62874800D01*
X199545400Y-62374800D02*
X199545400Y-62289798D01*
X186957801Y-60692199D02*
X193962799Y-60692199D01*
%TO.N,+3V3*%
X148361400Y-54432200D02*
X148666200Y-54127400D01*
X146304000Y-54432200D02*
X148361400Y-54432200D01*
X148310600Y-83616800D02*
X148615400Y-83312000D01*
X146304000Y-83616800D02*
X148310600Y-83616800D01*
X148336000Y-112801400D02*
X148615400Y-112522000D01*
X146304000Y-112801400D02*
X148336000Y-112801400D01*
X146304000Y-83616800D02*
X138684000Y-83616800D01*
X146304000Y-54432200D02*
X138684000Y-54432200D01*
X171145200Y-114071400D02*
X170840400Y-114376200D01*
X173126400Y-114071400D02*
X171145200Y-114071400D01*
X170840400Y-114376200D02*
X163220400Y-114376200D01*
X150469600Y-114376200D02*
X148615400Y-112522000D01*
X163220400Y-114376200D02*
X150469600Y-114376200D01*
X174447200Y-115392200D02*
X203073000Y-115392200D01*
X173126400Y-114071400D02*
X174447200Y-115392200D01*
X193999901Y-104934801D02*
X202963999Y-104934801D01*
X192874900Y-103809800D02*
X193999901Y-104934801D01*
X202963999Y-104934801D02*
X203073000Y-104825800D01*
X189077600Y-68503800D02*
X192328800Y-68503800D01*
X192895400Y-67937200D02*
X192895400Y-62874800D01*
X192328800Y-68503800D02*
X192895400Y-67937200D01*
X189077600Y-68503800D02*
X183642000Y-68503800D01*
X183108600Y-67970400D02*
X183108600Y-65709800D01*
X183642000Y-68503800D02*
X183108600Y-67970400D01*
X189103000Y-97409000D02*
X203276200Y-97409000D01*
%TO.N,RAS_N*%
X107061000Y-68783200D02*
X117043200Y-68783200D01*
X117728999Y-67584199D02*
X120203999Y-67584199D01*
X117043200Y-68269998D02*
X117728999Y-67584199D01*
X120203999Y-67584199D02*
X121379000Y-68759200D01*
X117043200Y-68783200D02*
X117043200Y-68269998D01*
X163060599Y-121836399D02*
X129380199Y-121836399D01*
X129380199Y-121836399D02*
X129336800Y-121793000D01*
X163220400Y-121996200D02*
X163060599Y-121836399D01*
X121428400Y-68808600D02*
X121379000Y-68759200D01*
X129692400Y-68808600D02*
X121428400Y-68808600D01*
%TO.N,CAS_N*%
X107061000Y-71323200D02*
X117043200Y-71323200D01*
X120203999Y-70124199D02*
X121379000Y-71299200D01*
X118242201Y-70124199D02*
X120203999Y-70124199D01*
X117043200Y-71323200D02*
X118242201Y-70124199D01*
%TO.N,A10*%
X121943001Y-72474201D02*
X120814999Y-72474201D01*
X123221002Y-71196200D02*
X121943001Y-72474201D01*
X119639998Y-71299200D02*
X118839000Y-71299200D01*
X120814999Y-72474201D02*
X119639998Y-71299200D01*
X137566400Y-71196200D02*
X123221002Y-71196200D01*
%TO.N,A12*%
X107061000Y-73863200D02*
X117043200Y-73863200D01*
X120203999Y-72664199D02*
X121379000Y-73839200D01*
X118242201Y-72664199D02*
X120203999Y-72664199D01*
X117043200Y-73863200D02*
X118242201Y-72664199D01*
X121456600Y-73761600D02*
X121379000Y-73839200D01*
X136833999Y-73761600D02*
X121456600Y-73761600D01*
%TO.N,A13*%
X120650411Y-75014201D02*
X119475410Y-73839200D01*
X121943001Y-75014201D02*
X120650411Y-75014201D01*
X119475410Y-73839200D02*
X118839000Y-73839200D01*
X122646200Y-75717400D02*
X121943001Y-75014201D01*
X136108999Y-75717400D02*
X122646200Y-75717400D01*
X138658600Y-91262200D02*
X138684000Y-91236800D01*
X136042400Y-91262200D02*
X138658600Y-91262200D01*
%TO.N,A15*%
X107061000Y-76403200D02*
X116992400Y-76403200D01*
X120203999Y-75204199D02*
X121379000Y-76379200D01*
X118191401Y-75204199D02*
X120203999Y-75204199D01*
X116992400Y-76403200D02*
X118191401Y-75204199D01*
X121481533Y-76481733D02*
X121379000Y-76379200D01*
X135383999Y-76481733D02*
X121481533Y-76481733D01*
X138633200Y-93827600D02*
X138684000Y-93776800D01*
X135331200Y-93827600D02*
X138633200Y-93827600D01*
%TO.N,A11*%
X107061000Y-78943200D02*
X116941600Y-78943200D01*
X120203999Y-77744199D02*
X121379000Y-78919200D01*
X118140601Y-77744199D02*
X120203999Y-77744199D01*
X116941600Y-78943200D02*
X118140601Y-77744199D01*
X121380400Y-78917800D02*
X121379000Y-78919200D01*
X134658999Y-78917800D02*
X121380400Y-78917800D01*
X134721600Y-96316800D02*
X138684000Y-96316800D01*
%TO.N,A14*%
X119475410Y-78919200D02*
X118839000Y-78919200D01*
X120718610Y-80162400D02*
X119475410Y-78919200D01*
X133933999Y-80162400D02*
X120718610Y-80162400D01*
X138633200Y-98907600D02*
X138684000Y-98856800D01*
X133908800Y-98907600D02*
X138633200Y-98907600D01*
%TO.N,A8*%
X107061000Y-81483200D02*
X116941600Y-81483200D01*
X120203999Y-80284199D02*
X121379000Y-81459200D01*
X118140601Y-80284199D02*
X120203999Y-80284199D01*
X116941600Y-81483200D02*
X118140601Y-80284199D01*
X133184999Y-81459200D02*
X133208999Y-81483200D01*
X121379000Y-81459200D02*
X133184999Y-81459200D01*
X133121400Y-101396800D02*
X138684000Y-101396800D01*
%TO.N,OUT_N*%
X140925599Y-124376399D02*
X140806000Y-124256800D01*
X163060599Y-124376399D02*
X140925599Y-124376399D01*
X163220400Y-124536200D02*
X163060599Y-124376399D01*
X119475410Y-81459200D02*
X118839000Y-81459200D01*
X120650411Y-82634201D02*
X119475410Y-81459200D01*
X121943001Y-82634201D02*
X120650411Y-82634201D01*
X122154202Y-82423000D02*
X121943001Y-82634201D01*
X140792200Y-82423000D02*
X122154202Y-82423000D01*
%TO.N,WR_N*%
X107061000Y-84023200D02*
X116992400Y-84023200D01*
X120203999Y-82824199D02*
X121379000Y-83999200D01*
X118191401Y-82824199D02*
X120203999Y-82824199D01*
X116992400Y-84023200D02*
X118191401Y-82824199D01*
X131514801Y-116756399D02*
X131380400Y-116890800D01*
X163060599Y-116756399D02*
X131514801Y-116756399D01*
X163220400Y-116916200D02*
X163060599Y-116756399D01*
X121428400Y-84048600D02*
X121379000Y-83999200D01*
X131394200Y-84048600D02*
X121428400Y-84048600D01*
%TO.N,RD_N*%
X107061000Y-86563200D02*
X116890800Y-86563200D01*
X120203999Y-85364199D02*
X121379000Y-86539200D01*
X118089801Y-85364199D02*
X120203999Y-85364199D01*
X116890800Y-86563200D02*
X118089801Y-85364199D01*
X130588801Y-119296399D02*
X130581400Y-119303800D01*
X163060599Y-119296399D02*
X130588801Y-119296399D01*
X163220400Y-119456200D02*
X163060599Y-119296399D01*
X121380400Y-86537800D02*
X121379000Y-86539200D01*
X130581400Y-86537800D02*
X121380400Y-86537800D01*
%TO.N,A9*%
X107061000Y-89103200D02*
X116992400Y-89103200D01*
X120203999Y-87904199D02*
X121379000Y-89079200D01*
X118191401Y-87904199D02*
X120203999Y-87904199D01*
X116992400Y-89103200D02*
X118191401Y-87904199D01*
X132395000Y-89079200D02*
X132396400Y-89077800D01*
X121379000Y-89079200D02*
X132395000Y-89079200D01*
X138607800Y-104013000D02*
X138684000Y-103936800D01*
X132410200Y-104013000D02*
X138607800Y-104013000D01*
%TO.N,D4*%
X119475410Y-89079200D02*
X118839000Y-89079200D01*
X137558399Y-90254201D02*
X120650411Y-90254201D01*
X120650411Y-90254201D02*
X119475410Y-89079200D01*
X137642600Y-90170000D02*
X137558399Y-90254201D01*
%TO.N,IN_N*%
X107061000Y-91643200D02*
X116967000Y-91643200D01*
X118166001Y-90444199D02*
X120203999Y-90444199D01*
X120203999Y-90444199D02*
X121379000Y-91619200D01*
X116967000Y-91643200D02*
X118166001Y-90444199D01*
X140088401Y-126916399D02*
X140081000Y-126923800D01*
X163060599Y-126916399D02*
X140088401Y-126916399D01*
X163220400Y-127076200D02*
X163060599Y-126916399D01*
X137082602Y-91987201D02*
X121747001Y-91987201D01*
X137475201Y-92379800D02*
X137082602Y-91987201D01*
X121747001Y-91987201D02*
X121379000Y-91619200D01*
X140081000Y-92379800D02*
X137475201Y-92379800D01*
%TO.N,D7*%
X119639998Y-91619200D02*
X118839000Y-91619200D01*
X120832398Y-92811600D02*
X119639998Y-91619200D01*
X136833999Y-92811600D02*
X120832398Y-92811600D01*
%TO.N,INT_N*%
X107061000Y-94183200D02*
X116916200Y-94183200D01*
X118115201Y-92984199D02*
X120203999Y-92984199D01*
X120203999Y-92984199D02*
X121379000Y-94159200D01*
X116916200Y-94183200D02*
X118115201Y-92984199D01*
X185751390Y-110354790D02*
X176278008Y-110354790D01*
X176117398Y-110515400D02*
X141531000Y-110515400D01*
X176278008Y-110354790D02*
X176117398Y-110515400D01*
X185826400Y-110429800D02*
X185751390Y-110354790D01*
X185826400Y-111429800D02*
X185826400Y-110429800D01*
X121772401Y-94552601D02*
X121379000Y-94159200D01*
X136256002Y-94552601D02*
X121772401Y-94552601D01*
X136775601Y-95072200D02*
X136256002Y-94552601D01*
X141531000Y-95072200D02*
X136775601Y-95072200D01*
%TO.N,D1*%
X119639998Y-94159200D02*
X120959398Y-95478600D01*
X120959398Y-95478600D02*
X136108999Y-95478600D01*
X118839000Y-94159200D02*
X119639998Y-94159200D01*
X138531600Y-120269000D02*
X138684000Y-120421400D01*
X136042400Y-120269000D02*
X138531600Y-120269000D01*
%TO.N,TEST_N*%
X107061000Y-96723200D02*
X117068600Y-96723200D01*
X120203999Y-95524199D02*
X121379000Y-96699200D01*
X118267601Y-95524199D02*
X120203999Y-95524199D01*
X117068600Y-96723200D02*
X118267601Y-95524199D01*
%TO.N,D6*%
X120908598Y-97967800D02*
X135383999Y-97967800D01*
X119639998Y-96699200D02*
X120908598Y-97967800D01*
X118839000Y-96699200D02*
X119639998Y-96699200D01*
X138557000Y-122834400D02*
X138684000Y-122961400D01*
X135331200Y-122834400D02*
X138557000Y-122834400D01*
%TO.N,A0*%
X107061000Y-99263200D02*
X117017800Y-99263200D01*
X120203999Y-98064199D02*
X121379000Y-99239200D01*
X118216801Y-98064199D02*
X120203999Y-98064199D01*
X117017800Y-99263200D02*
X118216801Y-98064199D01*
X138684000Y-56972200D02*
X123164600Y-56972200D01*
X121403000Y-99263200D02*
X121379000Y-99239200D01*
X123088400Y-99263200D02*
X121403000Y-99263200D01*
%TO.N,D3*%
X120959398Y-100558600D02*
X134543800Y-100558600D01*
X119639998Y-99239200D02*
X120959398Y-100558600D01*
X118839000Y-99239200D02*
X119639998Y-99239200D01*
X138607800Y-125425200D02*
X138684000Y-125501400D01*
X134543800Y-125425200D02*
X138607800Y-125425200D01*
%TO.N,A1*%
X120203999Y-100604199D02*
X121379000Y-101779200D01*
X118274999Y-100604199D02*
X120203999Y-100604199D01*
X117075998Y-101803200D02*
X118274999Y-100604199D01*
X107061000Y-101803200D02*
X117075998Y-101803200D01*
X124016600Y-59512200D02*
X123889600Y-59639200D01*
X138684000Y-59512200D02*
X124016600Y-59512200D01*
X121507400Y-101650800D02*
X121379000Y-101779200D01*
X123875800Y-101650800D02*
X121507400Y-101650800D01*
%TO.N,D5*%
X133734599Y-102954201D02*
X133818800Y-102870000D01*
X120814999Y-102954201D02*
X133734599Y-102954201D01*
X119639998Y-101779200D02*
X120814999Y-102954201D01*
X118839000Y-101779200D02*
X119639998Y-101779200D01*
X138633200Y-127990600D02*
X138684000Y-128041400D01*
X133832600Y-127990600D02*
X138633200Y-127990600D01*
%TO.N,D0*%
X119639998Y-104319200D02*
X120857798Y-105537000D01*
X120857798Y-105537000D02*
X133070600Y-105537000D01*
X118839000Y-104319200D02*
X119639998Y-104319200D01*
X132994400Y-130581400D02*
X138684000Y-130581400D01*
%TO.N,A4*%
X107061000Y-106883200D02*
X117043200Y-106883200D01*
X120203999Y-105684199D02*
X121379000Y-106859200D01*
X118242201Y-105684199D02*
X120203999Y-105684199D01*
X117043200Y-106883200D02*
X118242201Y-105684199D01*
X138684000Y-62052200D02*
X124614600Y-62052200D01*
X121532800Y-106705400D02*
X121379000Y-106859200D01*
X124510800Y-106705400D02*
X121532800Y-106705400D01*
%TO.N,D2*%
X120814999Y-108034201D02*
X132337599Y-108034201D01*
X132337599Y-108034201D02*
X132345600Y-108026200D01*
X119639998Y-106859200D02*
X120814999Y-108034201D01*
X118839000Y-106859200D02*
X119639998Y-106859200D01*
X138658600Y-133146800D02*
X138684000Y-133121400D01*
X132105400Y-133146800D02*
X138658600Y-133146800D01*
%TO.N,WAIT_N*%
X107061000Y-109423200D02*
X116992400Y-109423200D01*
X120203999Y-108224199D02*
X121379000Y-109399200D01*
X118191401Y-108224199D02*
X120203999Y-108224199D01*
X116992400Y-109423200D02*
X118191401Y-108224199D01*
X126429601Y-108751201D02*
X126325799Y-108647399D01*
X132693601Y-108751201D02*
X126429601Y-108751201D01*
X132819612Y-108625190D02*
X132693601Y-108751201D01*
X122130801Y-108647399D02*
X121379000Y-109399200D01*
X185826400Y-106889402D02*
X184090612Y-108625190D01*
X126325799Y-108647399D02*
X122130801Y-108647399D01*
X184090612Y-108625190D02*
X132819612Y-108625190D01*
X185826400Y-104927400D02*
X185826400Y-106889402D01*
%TO.N,A3*%
X125365000Y-64592200D02*
X125339600Y-64617600D01*
X138684000Y-64592200D02*
X125365000Y-64592200D01*
X119639998Y-109399200D02*
X118839000Y-109399200D01*
X120814999Y-110574201D02*
X119639998Y-109399200D01*
X124096399Y-110574201D02*
X120814999Y-110574201D01*
X125298200Y-109372400D02*
X124096399Y-110574201D01*
%TO.N,A5*%
X107061000Y-111963200D02*
X116916200Y-111963200D01*
X120203999Y-110764199D02*
X121379000Y-111939200D01*
X118115201Y-110764199D02*
X120203999Y-110764199D01*
X116916200Y-111963200D02*
X118115201Y-110764199D01*
X126161800Y-67132200D02*
X126111000Y-67183000D01*
X138684000Y-67132200D02*
X126161800Y-67132200D01*
X121456600Y-111861600D02*
X121379000Y-111939200D01*
X126187200Y-111861600D02*
X121456600Y-111861600D01*
%TO.N,A7*%
X127228600Y-69672200D02*
X127177800Y-69621400D01*
X138684000Y-69672200D02*
X127228600Y-69672200D01*
X119475410Y-111939200D02*
X118839000Y-111939200D01*
X120650411Y-113114201D02*
X119475410Y-111939200D01*
X126585599Y-113114201D02*
X120650411Y-113114201D01*
X127000000Y-112699800D02*
X126585599Y-113114201D01*
%TO.N,A6*%
X127928200Y-72212200D02*
X127902800Y-72186800D01*
X138684000Y-72212200D02*
X127928200Y-72212200D01*
X119475410Y-114479200D02*
X118839000Y-114479200D01*
X120763009Y-115766799D02*
X119475410Y-114479200D01*
X127489001Y-115766799D02*
X120763009Y-115766799D01*
X127889000Y-115366800D02*
X127489001Y-115766799D01*
%TO.N,5V*%
X107061000Y-117043200D02*
X116992400Y-117043200D01*
X120203999Y-115844199D02*
X121379000Y-117019200D01*
X118191401Y-115844199D02*
X120203999Y-115844199D01*
X116992400Y-117043200D02*
X118191401Y-115844199D01*
%TO.N,A2*%
X128729400Y-74752200D02*
X128627800Y-74853800D01*
X138684000Y-74752200D02*
X128729400Y-74752200D01*
X128200201Y-118382999D02*
X120202799Y-118382999D01*
X120202799Y-118382999D02*
X118839000Y-117019200D01*
X128600200Y-117983000D02*
X128200201Y-118382999D01*
%TO.N,WAIT*%
X184556400Y-104337398D02*
X184556400Y-104927400D01*
X184071401Y-103852399D02*
X184556400Y-104337398D01*
X174988801Y-103852399D02*
X184071401Y-103852399D01*
X174371000Y-104470200D02*
X174988801Y-103852399D01*
%TO.N,SCK*%
X174937201Y-93743999D02*
X200855799Y-93743999D01*
X200855799Y-93743999D02*
X200863200Y-93751400D01*
X174371000Y-94310200D02*
X174937201Y-93743999D01*
X200660000Y-77089000D02*
X203276200Y-77089000D01*
X193995400Y-63924800D02*
X193995400Y-62874800D01*
X193979800Y-62890400D02*
X193995400Y-62874800D01*
X193979800Y-64135000D02*
X193979800Y-62890400D01*
%TO.N,MOSI*%
X191795400Y-66403867D02*
X191795400Y-62874800D01*
X190969381Y-67229886D02*
X191795400Y-66403867D01*
X194843400Y-84709000D02*
X194868800Y-84683600D01*
X180416200Y-84709000D02*
X194843400Y-84709000D01*
%TO.N,READ_N*%
X176192399Y-111396999D02*
X176250600Y-111455200D01*
X140088401Y-111396999D02*
X176192399Y-111396999D01*
X138684000Y-112801400D02*
X140088401Y-111396999D01*
%TO.N,MISO*%
X180416200Y-92329000D02*
X198780400Y-92329000D01*
X196195400Y-64846602D02*
X196195400Y-62874800D01*
X197287198Y-65938400D02*
X196195400Y-64846602D01*
X198678800Y-65938400D02*
X197287198Y-65938400D01*
%TO.N,DD3*%
X160717400Y-128041400D02*
X160996800Y-127762000D01*
X146304000Y-128041400D02*
X160717400Y-128041400D01*
X159232600Y-81508600D02*
X159131000Y-81610200D01*
X160959800Y-81508600D02*
X159232600Y-81508600D01*
%TO.N,DD4*%
X146304000Y-117881400D02*
X155305000Y-117881400D01*
X159080200Y-71501000D02*
X159131000Y-71450200D01*
%TO.N,DD5*%
X161467800Y-130581400D02*
X161721800Y-130835400D01*
X146304000Y-130581400D02*
X161467800Y-130581400D01*
X159207200Y-84074000D02*
X159131000Y-84150200D01*
X161721800Y-84074000D02*
X159207200Y-84074000D01*
%TO.N,DD6*%
X157429200Y-125501400D02*
X157480000Y-125450600D01*
X146304000Y-125501400D02*
X157429200Y-125501400D01*
%TO.N,DD7*%
X155928400Y-120421400D02*
X156030000Y-120319800D01*
X146304000Y-120421400D02*
X155928400Y-120421400D01*
X159054800Y-74066400D02*
X159131000Y-73990200D01*
%TO.N,DD2*%
X146481800Y-135839200D02*
X165938200Y-135839200D01*
X146304000Y-135661400D02*
X146481800Y-135839200D01*
X165684200Y-94310200D02*
X159131000Y-94310200D01*
%TO.N,DD0*%
X146583400Y-133400800D02*
X164795200Y-133400800D01*
X146304000Y-133121400D02*
X146583400Y-133400800D01*
X159232600Y-91871800D02*
X159131000Y-91770200D01*
X164795200Y-91871800D02*
X159232600Y-91871800D01*
%TO.N,DD1*%
X156704200Y-122961400D02*
X156755000Y-123012200D01*
X146304000Y-122961400D02*
X156704200Y-122961400D01*
%TO.N,AA14*%
X147066000Y-100634800D02*
X170870990Y-100634800D01*
X146304000Y-101396800D02*
X147066000Y-100634800D01*
%TO.N,AA7*%
X174371000Y-56210200D02*
X174015400Y-56210200D01*
X174371000Y-56210200D02*
X173964600Y-56210200D01*
X174371000Y-56210200D02*
X174320200Y-56210200D01*
X174320200Y-56210200D02*
X173151800Y-57378600D01*
X155930600Y-57378600D02*
X155520840Y-57788360D01*
X173151800Y-57378600D02*
X155930600Y-57378600D01*
X155520840Y-57788360D02*
X155520840Y-71504360D01*
X154813000Y-72212200D02*
X146304000Y-72212200D01*
X155520840Y-71504360D02*
X154813000Y-72212200D01*
%TO.N,AA6*%
X159131000Y-58750200D02*
X156504250Y-58750200D01*
X155970850Y-59283600D02*
X155970850Y-73848350D01*
X156504250Y-58750200D02*
X155970850Y-59283600D01*
X155067000Y-74752200D02*
X146304000Y-74752200D01*
X155970850Y-73848350D02*
X155067000Y-74752200D01*
%TO.N,AA5*%
X159131000Y-56210200D02*
X155528030Y-56210200D01*
X155070830Y-56667400D02*
X155070830Y-69134970D01*
X155528030Y-56210200D02*
X155070830Y-56667400D01*
X154533600Y-69672200D02*
X146304000Y-69672200D01*
X155070830Y-69134970D02*
X154533600Y-69672200D01*
%TO.N,AA4*%
X159131000Y-53670200D02*
X154609800Y-53670200D01*
X154170810Y-54109190D02*
X154170810Y-63583390D01*
X154609800Y-53670200D02*
X154170810Y-54109190D01*
X153162000Y-64592200D02*
X146304000Y-64592200D01*
X154170810Y-63583390D02*
X153162000Y-64592200D01*
%TO.N,AA3*%
X174371000Y-53670200D02*
X173380400Y-53670200D01*
X173380400Y-53670200D02*
X172135800Y-54914800D01*
X172135800Y-54914800D02*
X155194000Y-54914800D01*
X154620820Y-55487980D02*
X154620820Y-66384580D01*
X155194000Y-54914800D02*
X154620820Y-55487980D01*
X153873200Y-67132200D02*
X146304000Y-67132200D01*
X154620820Y-66384580D02*
X153873200Y-67132200D01*
%TO.N,AA2*%
X174371000Y-58750200D02*
X174142400Y-58750200D01*
X156420860Y-76446340D02*
X155575000Y-77292200D01*
X156768800Y-59944000D02*
X156420860Y-60291940D01*
X156420860Y-60291940D02*
X156420860Y-76446340D01*
X172796200Y-59944000D02*
X156768800Y-59944000D01*
X173990000Y-58750200D02*
X172796200Y-59944000D01*
X155575000Y-77292200D02*
X146304000Y-77292200D01*
X174371000Y-58750200D02*
X173990000Y-58750200D01*
X204386399Y-58183999D02*
X204495400Y-58293000D01*
X174937201Y-58183999D02*
X204386399Y-58183999D01*
X174371000Y-58750200D02*
X174937201Y-58183999D01*
%TO.N,AA1*%
X174371000Y-51130200D02*
X174244000Y-51130200D01*
X174371000Y-51130200D02*
X173888400Y-51130200D01*
X173888400Y-51130200D02*
X172593000Y-52425600D01*
X154228800Y-52425600D02*
X153720800Y-52933600D01*
X172593000Y-52425600D02*
X154228800Y-52425600D01*
X153720800Y-52933600D02*
X153720800Y-61290200D01*
X152958800Y-62052200D02*
X146304000Y-62052200D01*
X153720800Y-61290200D02*
X152958800Y-62052200D01*
X201556401Y-50563999D02*
X201650600Y-50469800D01*
X174937201Y-50563999D02*
X201556401Y-50563999D01*
X174371000Y-51130200D02*
X174937201Y-50563999D01*
%TO.N,AA11*%
X147015200Y-98145600D02*
X168794600Y-98145600D01*
X146304000Y-98856800D02*
X147015200Y-98145600D01*
%TO.N,AA0*%
X146304000Y-59512200D02*
X152450800Y-59512200D01*
X152450800Y-59512200D02*
X153136600Y-58826400D01*
X153136600Y-58826400D02*
X153136600Y-52247800D01*
X154254200Y-51130200D02*
X159131000Y-51130200D01*
X153136600Y-52247800D02*
X154254200Y-51130200D01*
X160680400Y-49580800D02*
X200482200Y-49580800D01*
X159131000Y-51130200D02*
X160680400Y-49580800D01*
%TO.N,AA9*%
X172308189Y-105676801D02*
X172320990Y-105664000D01*
X147103999Y-105676801D02*
X172308189Y-105676801D01*
X146304000Y-106476800D02*
X147103999Y-105676801D01*
%TO.N,AA8*%
X146989800Y-103251000D02*
X171595990Y-103251000D01*
X146304000Y-103936800D02*
X146989800Y-103251000D01*
%TO.N,DBUS_SEL_N*%
X173530895Y-115501201D02*
X173614295Y-115584601D01*
X146463801Y-115501201D02*
X173530895Y-115501201D01*
X146304000Y-115341400D02*
X146463801Y-115501201D01*
%TO.N,BUTTON*%
X200044900Y-113897800D02*
X193544900Y-113897800D01*
%TO.N,LED_GREEN*%
X183116001Y-69628801D02*
X180416200Y-66929000D01*
X199763599Y-69628801D02*
X183116001Y-69628801D01*
X199771000Y-69621400D02*
X199763599Y-69628801D01*
%TO.N,LED_BLUE*%
X203225400Y-82219800D02*
X203276200Y-82169000D01*
X195580000Y-82219800D02*
X203225400Y-82219800D01*
%TO.N,LED_RED*%
X182930800Y-77063600D02*
X180416200Y-74549000D01*
X191490600Y-77063600D02*
X182930800Y-77063600D01*
%TO.N,Net-(J3-Pad1)*%
X189560200Y-62839600D02*
X189595400Y-62874800D01*
X189560200Y-61417200D02*
X189560200Y-62839600D01*
%TO.N,CS_SD_CARD*%
X190728600Y-62908000D02*
X190695400Y-62874800D01*
X190728600Y-65836800D02*
X190728600Y-62908000D01*
X180467000Y-94818200D02*
X180416200Y-94869000D01*
X187858400Y-94818200D02*
X180467000Y-94818200D01*
%TO.N,Net-(J3-Pad8)*%
X197281800Y-62888400D02*
X197295400Y-62874800D01*
X197281800Y-64860000D02*
X197281800Y-62888400D01*
%TO.N,VU*%
X176250600Y-138861800D02*
X179425600Y-135686800D01*
X159054800Y-138861800D02*
X176250600Y-138861800D01*
%TO.N,INT*%
X184531000Y-107010200D02*
X184581800Y-107061000D01*
X174371000Y-107010200D02*
X184531000Y-107010200D01*
%TO.N,DONE*%
X202074999Y-70807799D02*
X203276200Y-72009000D01*
X175013401Y-70807799D02*
X202074999Y-70807799D01*
X174371000Y-71450200D02*
X175013401Y-70807799D01*
%TO.N,CS_FPGA*%
X175107600Y-91033600D02*
X204546200Y-91033600D01*
X174371000Y-91770200D02*
X175107600Y-91033600D01*
%TO.N,REQ*%
X201759601Y-73423999D02*
X201803000Y-73380600D01*
X174937201Y-73423999D02*
X201759601Y-73423999D01*
X174371000Y-73990200D02*
X174937201Y-73423999D01*
%TO.N,Z80_WR_N*%
X159156400Y-96875600D02*
X159131000Y-96850200D01*
X169519600Y-96875600D02*
X159156400Y-96875600D01*
%TO.N,Z80_RD_N*%
X159181800Y-99441000D02*
X159131000Y-99390200D01*
X168794600Y-99441000D02*
X159181800Y-99441000D01*
%TO.N,Z80_RAS_N*%
X159181800Y-101879400D02*
X159131000Y-101930200D01*
X168069600Y-101879400D02*
X159181800Y-101879400D01*
%TO.N,Z80_OUT_N*%
X159156400Y-104444800D02*
X159131000Y-104470200D01*
X167344600Y-104444800D02*
X159156400Y-104444800D01*
%TO.N,Z80_IN_N*%
X166619600Y-107010200D02*
X159131000Y-107010200D01*
%TD*%
M02*
