%TF.GenerationSoftware,KiCad,Pcbnew,(6.0.5)*%
%TF.CreationDate,2022-06-04T10:33:38-07:00*%
%TF.ProjectId,TRS-IO-M1,5452532d-494f-42d4-9d31-2e6b69636164,rev?*%
%TF.SameCoordinates,Original*%
%TF.FileFunction,Soldermask,Bot*%
%TF.FilePolarity,Negative*%
%FSLAX46Y46*%
G04 Gerber Fmt 4.6, Leading zero omitted, Abs format (unit mm)*
G04 Created by KiCad (PCBNEW (6.0.5)) date 2022-06-04 10:33:38*
%MOMM*%
%LPD*%
G01*
G04 APERTURE LIST*
G04 Aperture macros list*
%AMRoundRect*
0 Rectangle with rounded corners*
0 $1 Rounding radius*
0 $2 $3 $4 $5 $6 $7 $8 $9 X,Y pos of 4 corners*
0 Add a 4 corners polygon primitive as box body*
4,1,4,$2,$3,$4,$5,$6,$7,$8,$9,$2,$3,0*
0 Add four circle primitives for the rounded corners*
1,1,$1+$1,$2,$3*
1,1,$1+$1,$4,$5*
1,1,$1+$1,$6,$7*
1,1,$1+$1,$8,$9*
0 Add four rect primitives between the rounded corners*
20,1,$1+$1,$2,$3,$4,$5,0*
20,1,$1+$1,$4,$5,$6,$7,0*
20,1,$1+$1,$6,$7,$8,$9,0*
20,1,$1+$1,$8,$9,$2,$3,0*%
G04 Aperture macros list end*
%ADD10C,6.102000*%
%ADD11C,0.902000*%
%ADD12C,1.702000*%
%ADD13O,1.702000X1.702000*%
%ADD14O,2.102000X1.302000*%
%ADD15RoundRect,0.051000X0.525000X0.750000X-0.525000X0.750000X-0.525000X-0.750000X0.525000X-0.750000X0*%
%ADD16O,1.152000X1.602000*%
%ADD17RoundRect,0.051000X0.850000X-0.850000X0.850000X0.850000X-0.850000X0.850000X-0.850000X-0.850000X0*%
%ADD18O,1.802000X1.802000*%
%ADD19RoundRect,0.051000X-0.800000X-0.800000X0.800000X-0.800000X0.800000X0.800000X-0.800000X0.800000X0*%
%ADD20RoundRect,0.051000X3.810000X-0.889000X3.810000X0.889000X-3.810000X0.889000X-3.810000X-0.889000X0*%
%ADD21RoundRect,0.051000X-0.535000X-0.900000X0.535000X-0.900000X0.535000X0.900000X-0.535000X0.900000X0*%
%ADD22O,1.172000X1.902000*%
%ADD23RoundRect,0.051000X-0.850000X-0.850000X0.850000X-0.850000X0.850000X0.850000X-0.850000X0.850000X0*%
%ADD24C,2.102000*%
G04 APERTURE END LIST*
D10*
%TO.C,H1*%
X124714000Y-60960000D03*
D11*
X126304990Y-62550990D03*
X123123010Y-59369010D03*
X126964000Y-60960000D03*
X124714000Y-58710000D03*
X122464000Y-60960000D03*
X124714000Y-63210000D03*
X126304990Y-59369010D03*
X123123010Y-62550990D03*
%TD*%
%TO.C,H2*%
X217744990Y-62550990D03*
X218404000Y-60960000D03*
D10*
X216154000Y-60960000D03*
D11*
X213904000Y-60960000D03*
X214563010Y-62550990D03*
X214563010Y-59369010D03*
X217744990Y-59369010D03*
X216154000Y-63210000D03*
X216154000Y-58710000D03*
%TD*%
%TO.C,H3*%
X126964000Y-125476000D03*
X124714000Y-127726000D03*
X126304990Y-123885010D03*
X123123010Y-127066990D03*
D10*
X124714000Y-125476000D03*
D11*
X122464000Y-125476000D03*
X124714000Y-123226000D03*
X126304990Y-127066990D03*
X123123010Y-123885010D03*
%TD*%
%TO.C,H4*%
X217744990Y-123885010D03*
X213904000Y-125476000D03*
X217744990Y-127066990D03*
X216154000Y-127726000D03*
X214563010Y-123885010D03*
X218404000Y-125476000D03*
X216154000Y-123226000D03*
X214563010Y-127066990D03*
D10*
X216154000Y-125476000D03*
%TD*%
D12*
%TO.C,R1*%
X186182000Y-99568000D03*
D13*
X186182000Y-107188000D03*
%TD*%
D12*
%TO.C,R2*%
X192786000Y-99568000D03*
D13*
X192786000Y-107188000D03*
%TD*%
D14*
%TO.C,U5*%
X153650000Y-62230000D03*
X153650000Y-64770000D03*
X153650000Y-67310000D03*
X153650000Y-69850000D03*
X153650000Y-72390000D03*
X153650000Y-74930000D03*
X153650000Y-77470000D03*
X153650000Y-80010000D03*
X153650000Y-82550000D03*
X153650000Y-85090000D03*
X153650000Y-87630000D03*
X153650000Y-90170000D03*
X153650000Y-92710000D03*
X153650000Y-95250000D03*
X153650000Y-97790000D03*
X153650000Y-100330000D03*
X153650000Y-102870000D03*
X153650000Y-105410000D03*
X153650000Y-107950000D03*
X153650000Y-110490000D03*
X153650000Y-113030000D03*
X153650000Y-115570000D03*
X153650000Y-118110000D03*
X153650000Y-120650000D03*
X176550000Y-120650000D03*
X176550000Y-118110000D03*
X176550000Y-115570000D03*
X176550000Y-113030000D03*
X176550000Y-110490000D03*
X176550000Y-107950000D03*
X176550000Y-105410000D03*
X176550000Y-102870000D03*
X176550000Y-100330000D03*
X176550000Y-97790000D03*
X176550000Y-95250000D03*
X176550000Y-92710000D03*
X176550000Y-90170000D03*
X176550000Y-87630000D03*
X176550000Y-85090000D03*
X176550000Y-82550000D03*
X176550000Y-80010000D03*
X176550000Y-77470000D03*
X176550000Y-74930000D03*
X176550000Y-72390000D03*
X176550000Y-69850000D03*
X176550000Y-67310000D03*
X176550000Y-64770000D03*
X176550000Y-62230000D03*
%TD*%
D15*
%TO.C,Q2*%
X143764000Y-119380000D03*
D16*
X142494000Y-119380000D03*
X141224000Y-119380000D03*
%TD*%
D17*
%TO.C,J4*%
X211328000Y-71120000D03*
D18*
X213868000Y-71120000D03*
%TD*%
D19*
%TO.C,U6*%
X182880000Y-62645000D03*
D13*
X182880000Y-65185000D03*
X182880000Y-67725000D03*
X182880000Y-70265000D03*
X182880000Y-72805000D03*
X182880000Y-75345000D03*
X182880000Y-77885000D03*
X182880000Y-80425000D03*
X182880000Y-82965000D03*
X182880000Y-85505000D03*
X182880000Y-88045000D03*
X182880000Y-90585000D03*
X182880000Y-93125000D03*
X182880000Y-95665000D03*
X182880000Y-98205000D03*
X182880000Y-100745000D03*
X182880000Y-103285000D03*
X182880000Y-105825000D03*
X182880000Y-108365000D03*
X205740000Y-108365000D03*
X205740000Y-105825000D03*
X205740000Y-103285000D03*
X205740000Y-100745000D03*
X205740000Y-98205000D03*
X205740000Y-95665000D03*
X205740000Y-93125000D03*
X205740000Y-90585000D03*
X205740000Y-88045000D03*
X205740000Y-85505000D03*
X205740000Y-82965000D03*
X205740000Y-80425000D03*
X205740000Y-77885000D03*
X205740000Y-75345000D03*
X205740000Y-72805000D03*
X205740000Y-70265000D03*
X205740000Y-67725000D03*
X205740000Y-65185000D03*
X205740000Y-62708500D03*
%TD*%
D12*
%TO.C,R4*%
X202184000Y-107188000D03*
D13*
X202184000Y-99568000D03*
%TD*%
D20*
%TO.C,J1*%
X106934000Y-123698000D03*
X106934000Y-121158000D03*
X106934000Y-118618000D03*
X106934000Y-116078000D03*
X106934000Y-113538000D03*
X106934000Y-110998000D03*
X106934000Y-108458000D03*
X106934000Y-105918000D03*
X106934000Y-103378000D03*
X106934000Y-100838000D03*
X106934000Y-98298000D03*
X106934000Y-95758000D03*
X106934000Y-93218000D03*
X106934000Y-90678000D03*
X106934000Y-88138000D03*
X106934000Y-85598000D03*
X106934000Y-83058000D03*
X106934000Y-80518000D03*
X106934000Y-77978000D03*
X106934000Y-75438000D03*
X106934000Y-72898000D03*
X106934000Y-70358000D03*
X106934000Y-67818000D03*
X106934000Y-65278000D03*
X106934000Y-62738000D03*
%TD*%
D17*
%TO.C,J5*%
X211328000Y-84074000D03*
D18*
X213868000Y-84074000D03*
%TD*%
D17*
%TO.C,J3*%
X211328000Y-77470000D03*
D18*
X213868000Y-77470000D03*
%TD*%
D12*
%TO.C,R3*%
X189484000Y-99568000D03*
D13*
X189484000Y-107188000D03*
%TD*%
D21*
%TO.C,D1*%
X186314000Y-121920000D03*
D22*
X187584000Y-121920000D03*
X188854000Y-121920000D03*
X190124000Y-121920000D03*
%TD*%
D15*
%TO.C,Q1*%
X137160000Y-119380000D03*
D16*
X135890000Y-119380000D03*
X134620000Y-119380000D03*
%TD*%
D18*
%TO.C,J2*%
X118867000Y-123703000D03*
X116327000Y-123703000D03*
X118867000Y-121163000D03*
X116327000Y-121163000D03*
X118867000Y-118623000D03*
X116327000Y-118623000D03*
X118867000Y-116083000D03*
X116327000Y-116083000D03*
X118867000Y-113543000D03*
X116327000Y-113543000D03*
X118867000Y-111003000D03*
X116327000Y-111003000D03*
X118867000Y-108463000D03*
X116327000Y-108463000D03*
X118867000Y-105923000D03*
X116327000Y-105923000D03*
X118867000Y-103383000D03*
X116327000Y-103383000D03*
X118867000Y-100843000D03*
X116327000Y-100843000D03*
X118867000Y-98303000D03*
X116327000Y-98303000D03*
X118867000Y-95763000D03*
X116327000Y-95763000D03*
X118867000Y-93223000D03*
X116327000Y-93223000D03*
X118867000Y-90683000D03*
X116327000Y-90683000D03*
X118867000Y-88143000D03*
X116327000Y-88143000D03*
X118867000Y-85603000D03*
X116327000Y-85603000D03*
X118867000Y-83063000D03*
X116327000Y-83063000D03*
X118867000Y-80523000D03*
X116327000Y-80523000D03*
X118867000Y-77983000D03*
X116327000Y-77983000D03*
X118867000Y-75443000D03*
X116327000Y-75443000D03*
X118867000Y-72903000D03*
X116327000Y-72903000D03*
X118867000Y-70363000D03*
X116327000Y-70363000D03*
X118867000Y-67823000D03*
X116327000Y-67823000D03*
X118867000Y-65283000D03*
X116327000Y-65283000D03*
X118867000Y-62743000D03*
D23*
X116327000Y-62743000D03*
%TD*%
D24*
%TO.C,SW1*%
X205994000Y-123952000D03*
X199494000Y-123952000D03*
X205994000Y-119452000D03*
X199494000Y-119452000D03*
%TD*%
G36*
X186901919Y-121122267D02*
G01*
X186921595Y-121189279D01*
X186973938Y-121234634D01*
X187042491Y-121244491D01*
X187105647Y-121215648D01*
X187125702Y-121193450D01*
X187147559Y-121162350D01*
X187147880Y-121161993D01*
X187156637Y-121154354D01*
X187158600Y-121153969D01*
X187159915Y-121155476D01*
X187159539Y-121157079D01*
X187078255Y-121263010D01*
X187019916Y-121403854D01*
X187000000Y-121555132D01*
X187000000Y-122284868D01*
X187019916Y-122436146D01*
X187078255Y-122576990D01*
X187157646Y-122680455D01*
X187157907Y-122682438D01*
X187156320Y-122683656D01*
X187154728Y-122683166D01*
X187143790Y-122673420D01*
X187143473Y-122673060D01*
X187126528Y-122648406D01*
X187072578Y-122604506D01*
X187003750Y-122596775D01*
X186941671Y-122627481D01*
X186905962Y-122687018D01*
X186901984Y-122718092D01*
X186900772Y-122719683D01*
X186898788Y-122719429D01*
X186898000Y-122717838D01*
X186898000Y-121122830D01*
X186899000Y-121121098D01*
X186901000Y-121121098D01*
X186901919Y-121122267D01*
G37*
G36*
X188343359Y-121273141D02*
G01*
X188343393Y-121274748D01*
X188289916Y-121403854D01*
X188270000Y-121555132D01*
X188270000Y-122284868D01*
X188289916Y-122436146D01*
X188342204Y-122562380D01*
X188341943Y-122564363D01*
X188340095Y-122565128D01*
X188338708Y-122564278D01*
X188325993Y-122545778D01*
X188325466Y-122545820D01*
X188324730Y-122545220D01*
X188291864Y-122501704D01*
X188226869Y-122477778D01*
X188159259Y-122492789D01*
X188110329Y-122542137D01*
X188104003Y-122555800D01*
X188101504Y-122562209D01*
X188101277Y-122562633D01*
X188098091Y-122567167D01*
X188096277Y-122568009D01*
X188094641Y-122566859D01*
X188094607Y-122565252D01*
X188148084Y-122436146D01*
X188168000Y-122284868D01*
X188168000Y-121555132D01*
X188148084Y-121403854D01*
X188095796Y-121277620D01*
X188096057Y-121275637D01*
X188097905Y-121274872D01*
X188099292Y-121275722D01*
X188112007Y-121294222D01*
X188112534Y-121294180D01*
X188113270Y-121294780D01*
X188146136Y-121338296D01*
X188211131Y-121362222D01*
X188278741Y-121347211D01*
X188327671Y-121297863D01*
X188333997Y-121284200D01*
X188336496Y-121277791D01*
X188336723Y-121277367D01*
X188339909Y-121272833D01*
X188341723Y-121271991D01*
X188343359Y-121273141D01*
G37*
G36*
X189613359Y-121273141D02*
G01*
X189613393Y-121274748D01*
X189559916Y-121403854D01*
X189540000Y-121555132D01*
X189540000Y-122284868D01*
X189559916Y-122436146D01*
X189612204Y-122562380D01*
X189611943Y-122564363D01*
X189610095Y-122565128D01*
X189608708Y-122564278D01*
X189595993Y-122545778D01*
X189595466Y-122545820D01*
X189594730Y-122545220D01*
X189561864Y-122501704D01*
X189496869Y-122477778D01*
X189429259Y-122492789D01*
X189380329Y-122542137D01*
X189374003Y-122555800D01*
X189371504Y-122562209D01*
X189371277Y-122562633D01*
X189368091Y-122567167D01*
X189366277Y-122568009D01*
X189364641Y-122566859D01*
X189364607Y-122565252D01*
X189418084Y-122436146D01*
X189438000Y-122284868D01*
X189438000Y-121555132D01*
X189418084Y-121403854D01*
X189365796Y-121277620D01*
X189366057Y-121275637D01*
X189367905Y-121274872D01*
X189369292Y-121275722D01*
X189382007Y-121294222D01*
X189382534Y-121294180D01*
X189383270Y-121294780D01*
X189416136Y-121338296D01*
X189481131Y-121362222D01*
X189548741Y-121347211D01*
X189597671Y-121297863D01*
X189603997Y-121284200D01*
X189606496Y-121277791D01*
X189606723Y-121277367D01*
X189609909Y-121272833D01*
X189611723Y-121271991D01*
X189613359Y-121273141D01*
G37*
G36*
X136585212Y-118752649D02*
G01*
X136586000Y-118754240D01*
X136586000Y-120005678D01*
X136585000Y-120007410D01*
X136583000Y-120007410D01*
X136582081Y-120006241D01*
X136562405Y-119939229D01*
X136510062Y-119893874D01*
X136441509Y-119884017D01*
X136378352Y-119912860D01*
X136363437Y-119929370D01*
X136361534Y-119929985D01*
X136360050Y-119928644D01*
X136360366Y-119926811D01*
X136387085Y-119891990D01*
X136444424Y-119753558D01*
X136464000Y-119604868D01*
X136464000Y-119155132D01*
X136444424Y-119006442D01*
X136387085Y-118868010D01*
X136356125Y-118827662D01*
X136355864Y-118825679D01*
X136357451Y-118824461D01*
X136358974Y-118824893D01*
X136411421Y-118867572D01*
X136480249Y-118875303D01*
X136542328Y-118844598D01*
X136578038Y-118785061D01*
X136582016Y-118753986D01*
X136583228Y-118752395D01*
X136585212Y-118752649D01*
G37*
G36*
X143189212Y-118752649D02*
G01*
X143190000Y-118754240D01*
X143190000Y-120005678D01*
X143189000Y-120007410D01*
X143187000Y-120007410D01*
X143186081Y-120006241D01*
X143166405Y-119939229D01*
X143114062Y-119893874D01*
X143045509Y-119884017D01*
X142982352Y-119912860D01*
X142967437Y-119929370D01*
X142965534Y-119929985D01*
X142964050Y-119928644D01*
X142964366Y-119926811D01*
X142991085Y-119891990D01*
X143048424Y-119753558D01*
X143068000Y-119604868D01*
X143068000Y-119155132D01*
X143048424Y-119006442D01*
X142991085Y-118868010D01*
X142960125Y-118827662D01*
X142959864Y-118825679D01*
X142961451Y-118824461D01*
X142962974Y-118824893D01*
X143015421Y-118867572D01*
X143084249Y-118875303D01*
X143146328Y-118844598D01*
X143182038Y-118785061D01*
X143186016Y-118753986D01*
X143187228Y-118752395D01*
X143189212Y-118752649D01*
G37*
G36*
X141992076Y-118878004D02*
G01*
X141992110Y-118879611D01*
X141939576Y-119006442D01*
X141920000Y-119155132D01*
X141920000Y-119604868D01*
X141939576Y-119753558D01*
X141990941Y-119877565D01*
X141990680Y-119879548D01*
X141988832Y-119880313D01*
X141987445Y-119879463D01*
X141982707Y-119872570D01*
X141982484Y-119872144D01*
X141973930Y-119849506D01*
X141932008Y-119794002D01*
X141867013Y-119770075D01*
X141799403Y-119785087D01*
X141750474Y-119834436D01*
X141744149Y-119848094D01*
X141732689Y-119877487D01*
X141732462Y-119877910D01*
X141729374Y-119882304D01*
X141727560Y-119883146D01*
X141725924Y-119881996D01*
X141725890Y-119880389D01*
X141778424Y-119753558D01*
X141798000Y-119604868D01*
X141798000Y-119155132D01*
X141778424Y-119006442D01*
X141727059Y-118882435D01*
X141727320Y-118880452D01*
X141729168Y-118879687D01*
X141730555Y-118880537D01*
X141735293Y-118887430D01*
X141735516Y-118887856D01*
X141744070Y-118910494D01*
X141785992Y-118965998D01*
X141850987Y-118989925D01*
X141918597Y-118974913D01*
X141967526Y-118925564D01*
X141973851Y-118911906D01*
X141985311Y-118882513D01*
X141985538Y-118882090D01*
X141988626Y-118877696D01*
X141990440Y-118876854D01*
X141992076Y-118878004D01*
G37*
G36*
X135388076Y-118878004D02*
G01*
X135388110Y-118879611D01*
X135335576Y-119006442D01*
X135316000Y-119155132D01*
X135316000Y-119604868D01*
X135335576Y-119753558D01*
X135386941Y-119877565D01*
X135386680Y-119879548D01*
X135384832Y-119880313D01*
X135383445Y-119879463D01*
X135378707Y-119872570D01*
X135378484Y-119872144D01*
X135369930Y-119849506D01*
X135328008Y-119794002D01*
X135263013Y-119770075D01*
X135195403Y-119785087D01*
X135146474Y-119834436D01*
X135140149Y-119848094D01*
X135128689Y-119877487D01*
X135128462Y-119877910D01*
X135125374Y-119882304D01*
X135123560Y-119883146D01*
X135121924Y-119881996D01*
X135121890Y-119880389D01*
X135174424Y-119753558D01*
X135194000Y-119604868D01*
X135194000Y-119155132D01*
X135174424Y-119006442D01*
X135123059Y-118882435D01*
X135123320Y-118880452D01*
X135125168Y-118879687D01*
X135126555Y-118880537D01*
X135131293Y-118887430D01*
X135131516Y-118887856D01*
X135140070Y-118910494D01*
X135181992Y-118965998D01*
X135246987Y-118989925D01*
X135314597Y-118974913D01*
X135363526Y-118925564D01*
X135369851Y-118911906D01*
X135381311Y-118882513D01*
X135381538Y-118882090D01*
X135384626Y-118877696D01*
X135386440Y-118876854D01*
X135388076Y-118878004D01*
G37*
M02*
