%TF.GenerationSoftware,KiCad,Pcbnew,(6.0.6-0)*%
%TF.CreationDate,2022-07-26T13:54:31-07:00*%
%TF.ProjectId,TRS-IO-M3,5452532d-494f-42d4-9d33-2e6b69636164,rev?*%
%TF.SameCoordinates,Original*%
%TF.FileFunction,Soldermask,Bot*%
%TF.FilePolarity,Negative*%
%FSLAX46Y46*%
G04 Gerber Fmt 4.6, Leading zero omitted, Abs format (unit mm)*
G04 Created by KiCad (PCBNEW (6.0.6-0)) date 2022-07-26 13:54:31*
%MOMM*%
%LPD*%
G01*
G04 APERTURE LIST*
G04 Aperture macros list*
%AMRoundRect*
0 Rectangle with rounded corners*
0 $1 Rounding radius*
0 $2 $3 $4 $5 $6 $7 $8 $9 X,Y pos of 4 corners*
0 Add a 4 corners polygon primitive as box body*
4,1,4,$2,$3,$4,$5,$6,$7,$8,$9,$2,$3,0*
0 Add four circle primitives for the rounded corners*
1,1,$1+$1,$2,$3*
1,1,$1+$1,$4,$5*
1,1,$1+$1,$6,$7*
1,1,$1+$1,$8,$9*
0 Add four rect primitives between the rounded corners*
20,1,$1+$1,$2,$3,$4,$5,0*
20,1,$1+$1,$4,$5,$6,$7,0*
20,1,$1+$1,$6,$7,$8,$9,0*
20,1,$1+$1,$8,$9,$2,$3,0*%
G04 Aperture macros list end*
%ADD10C,6.102000*%
%ADD11C,0.902000*%
%ADD12C,1.702000*%
%ADD13O,1.702000X1.702000*%
%ADD14RoundRect,0.051000X0.850000X-0.850000X0.850000X0.850000X-0.850000X0.850000X-0.850000X-0.850000X0*%
%ADD15O,1.802000X1.802000*%
%ADD16O,2.102000X1.302000*%
%ADD17RoundRect,0.051000X-0.525000X-0.750000X0.525000X-0.750000X0.525000X0.750000X-0.525000X0.750000X0*%
%ADD18O,1.152000X1.602000*%
%ADD19RoundRect,0.051000X-0.850000X-0.850000X0.850000X-0.850000X0.850000X0.850000X-0.850000X0.850000X0*%
%ADD20RoundRect,0.051000X-0.800000X-0.800000X0.800000X-0.800000X0.800000X0.800000X-0.800000X0.800000X0*%
%ADD21RoundRect,0.051000X3.810000X-0.889000X3.810000X0.889000X-3.810000X0.889000X-3.810000X-0.889000X0*%
%ADD22RoundRect,0.051000X-0.535000X-0.900000X0.535000X-0.900000X0.535000X0.900000X-0.535000X0.900000X0*%
%ADD23O,1.172000X1.902000*%
%ADD24C,2.102000*%
%ADD25RoundRect,0.051000X0.850000X0.850000X-0.850000X0.850000X-0.850000X-0.850000X0.850000X-0.850000X0*%
G04 APERTURE END LIST*
D10*
%TO.C,H1*%
X124714000Y-60960000D03*
D11*
X126304990Y-62550990D03*
X123123010Y-59369010D03*
X126964000Y-60960000D03*
X124714000Y-58710000D03*
X122464000Y-60960000D03*
X124714000Y-63210000D03*
X126304990Y-59369010D03*
X123123010Y-62550990D03*
%TD*%
%TO.C,H2*%
X233540990Y-62550990D03*
X234200000Y-60960000D03*
D10*
X231950000Y-60960000D03*
D11*
X229700000Y-60960000D03*
X230359010Y-62550990D03*
X230359010Y-59369010D03*
X233540990Y-59369010D03*
X231950000Y-63210000D03*
X231950000Y-58710000D03*
%TD*%
%TO.C,H3*%
X126964000Y-125476000D03*
X124714000Y-127726000D03*
X126304990Y-123885010D03*
X123123010Y-127066990D03*
D10*
X124714000Y-125476000D03*
D11*
X122464000Y-125476000D03*
X124714000Y-123226000D03*
X126304990Y-127066990D03*
X123123010Y-123885010D03*
%TD*%
%TO.C,H4*%
X233540990Y-123885010D03*
X229700000Y-125476000D03*
X233540990Y-127066990D03*
X231950000Y-127726000D03*
X230359010Y-123885010D03*
X234200000Y-125476000D03*
X231950000Y-123226000D03*
X230359010Y-127066990D03*
D10*
X231950000Y-125476000D03*
%TD*%
D12*
%TO.C,R1*%
X209350000Y-105323000D03*
D13*
X209350000Y-112943000D03*
%TD*%
D12*
%TO.C,R2*%
X215954000Y-105323000D03*
D13*
X215954000Y-112943000D03*
%TD*%
D14*
%TO.C,J5*%
X133600000Y-66675000D03*
D15*
X136140000Y-66675000D03*
X138680000Y-66675000D03*
X141220000Y-66675000D03*
X143760000Y-66675000D03*
X146300000Y-66675000D03*
%TD*%
D16*
%TO.C,U5*%
X175520000Y-67985000D03*
X175520000Y-70525000D03*
X175520000Y-73065000D03*
X175520000Y-75605000D03*
X175520000Y-78145000D03*
X175520000Y-80685000D03*
X175520000Y-83225000D03*
X175520000Y-85765000D03*
X175520000Y-88305000D03*
X175520000Y-90845000D03*
X175520000Y-93385000D03*
X175520000Y-95925000D03*
X175520000Y-98465000D03*
X175520000Y-101005000D03*
X175520000Y-103545000D03*
X175520000Y-106085000D03*
X175520000Y-108625000D03*
X175520000Y-111165000D03*
X175520000Y-113705000D03*
X175520000Y-116245000D03*
X175520000Y-118785000D03*
X175520000Y-121325000D03*
X175520000Y-123865000D03*
X175520000Y-126405000D03*
X198420000Y-126405000D03*
X198420000Y-123865000D03*
X198420000Y-121325000D03*
X198420000Y-118785000D03*
X198420000Y-116245000D03*
X198420000Y-113705000D03*
X198420000Y-111165000D03*
X198420000Y-108625000D03*
X198420000Y-106085000D03*
X198420000Y-103545000D03*
X198420000Y-101005000D03*
X198420000Y-98465000D03*
X198420000Y-95925000D03*
X198420000Y-93385000D03*
X198420000Y-90845000D03*
X198420000Y-88305000D03*
X198420000Y-85765000D03*
X198420000Y-83225000D03*
X198420000Y-80685000D03*
X198420000Y-78145000D03*
X198420000Y-75605000D03*
X198420000Y-73065000D03*
X198420000Y-70525000D03*
X198420000Y-67985000D03*
%TD*%
D17*
%TO.C,Q2*%
X144990000Y-124060000D03*
D18*
X146260000Y-124060000D03*
X147530000Y-124060000D03*
%TD*%
D19*
%TO.C,J4*%
X171300000Y-60475000D03*
D15*
X171300000Y-63015000D03*
%TD*%
D20*
%TO.C,U6*%
X204750000Y-68400000D03*
D13*
X204750000Y-70940000D03*
X204750000Y-73480000D03*
X204750000Y-76020000D03*
X204750000Y-78560000D03*
X204750000Y-81100000D03*
X204750000Y-83640000D03*
X204750000Y-86180000D03*
X204750000Y-88720000D03*
X204750000Y-91260000D03*
X204750000Y-93800000D03*
X204750000Y-96340000D03*
X204750000Y-98880000D03*
X204750000Y-101420000D03*
X204750000Y-103960000D03*
X204750000Y-106500000D03*
X204750000Y-109040000D03*
X204750000Y-111580000D03*
X204750000Y-114120000D03*
X227610000Y-114120000D03*
X227610000Y-111580000D03*
X227610000Y-109040000D03*
X227610000Y-106500000D03*
X227610000Y-103960000D03*
X227610000Y-101420000D03*
X227610000Y-98880000D03*
X227610000Y-96340000D03*
X227610000Y-93800000D03*
X227610000Y-91260000D03*
X227610000Y-88720000D03*
X227610000Y-86180000D03*
X227610000Y-83640000D03*
X227610000Y-81100000D03*
X227610000Y-78560000D03*
X227610000Y-76020000D03*
X227610000Y-73480000D03*
X227610000Y-70940000D03*
X227610000Y-68463500D03*
%TD*%
D12*
%TO.C,R4*%
X224054000Y-112943000D03*
D13*
X224054000Y-105323000D03*
%TD*%
D21*
%TO.C,J1*%
X106934000Y-123698000D03*
X106934000Y-121158000D03*
X106934000Y-118618000D03*
X106934000Y-116078000D03*
X106934000Y-113538000D03*
X106934000Y-110998000D03*
X106934000Y-108458000D03*
X106934000Y-105918000D03*
X106934000Y-103378000D03*
X106934000Y-100838000D03*
X106934000Y-98298000D03*
X106934000Y-95758000D03*
X106934000Y-93218000D03*
X106934000Y-90678000D03*
X106934000Y-88138000D03*
X106934000Y-85598000D03*
X106934000Y-83058000D03*
X106934000Y-80518000D03*
X106934000Y-77978000D03*
X106934000Y-75438000D03*
X106934000Y-72898000D03*
X106934000Y-70358000D03*
X106934000Y-67818000D03*
X106934000Y-65278000D03*
X106934000Y-62738000D03*
%TD*%
D17*
%TO.C,Q1*%
X136700000Y-124060000D03*
D18*
X137970000Y-124060000D03*
X139240000Y-124060000D03*
%TD*%
D14*
%TO.C,J6*%
X152800000Y-66675000D03*
D15*
X155340000Y-66675000D03*
X157880000Y-66675000D03*
X160420000Y-66675000D03*
X162960000Y-66675000D03*
X165500000Y-66675000D03*
%TD*%
D12*
%TO.C,R3*%
X212652000Y-105323000D03*
D13*
X212652000Y-112943000D03*
%TD*%
D22*
%TO.C,D1*%
X207750000Y-123500000D03*
D23*
X209020000Y-123500000D03*
X210290000Y-123500000D03*
X211560000Y-123500000D03*
%TD*%
D15*
%TO.C,J2*%
X118867000Y-123703000D03*
X116327000Y-123703000D03*
X118867000Y-121163000D03*
X116327000Y-121163000D03*
X118867000Y-118623000D03*
X116327000Y-118623000D03*
X118867000Y-116083000D03*
X116327000Y-116083000D03*
X118867000Y-113543000D03*
X116327000Y-113543000D03*
X118867000Y-111003000D03*
X116327000Y-111003000D03*
X118867000Y-108463000D03*
X116327000Y-108463000D03*
X118867000Y-105923000D03*
X116327000Y-105923000D03*
X118867000Y-103383000D03*
X116327000Y-103383000D03*
X118867000Y-100843000D03*
X116327000Y-100843000D03*
X118867000Y-98303000D03*
X116327000Y-98303000D03*
X118867000Y-95763000D03*
X116327000Y-95763000D03*
X118867000Y-93223000D03*
X116327000Y-93223000D03*
X118867000Y-90683000D03*
X116327000Y-90683000D03*
X118867000Y-88143000D03*
X116327000Y-88143000D03*
X118867000Y-85603000D03*
X116327000Y-85603000D03*
X118867000Y-83063000D03*
X116327000Y-83063000D03*
X118867000Y-80523000D03*
X116327000Y-80523000D03*
X118867000Y-77983000D03*
X116327000Y-77983000D03*
X118867000Y-75443000D03*
X116327000Y-75443000D03*
X118867000Y-72903000D03*
X116327000Y-72903000D03*
X118867000Y-70363000D03*
X116327000Y-70363000D03*
X118867000Y-67823000D03*
X116327000Y-67823000D03*
X118867000Y-65283000D03*
X116327000Y-65283000D03*
X118867000Y-62743000D03*
D19*
X116327000Y-62743000D03*
%TD*%
D24*
%TO.C,SW1*%
X226250000Y-125750000D03*
X219750000Y-125750000D03*
X226250000Y-121250000D03*
X219750000Y-121250000D03*
%TD*%
D15*
%TO.C,J3*%
X230150000Y-68430000D03*
X230150000Y-70970000D03*
X230150000Y-73510000D03*
X230150000Y-76050000D03*
X230150000Y-78590000D03*
X230150000Y-81130000D03*
X230150000Y-83670000D03*
X230150000Y-86210000D03*
X230150000Y-88750000D03*
X230150000Y-91290000D03*
X230150000Y-93830000D03*
X230150000Y-96370000D03*
X230150000Y-98910000D03*
X230150000Y-101450000D03*
X230150000Y-103990000D03*
X230150000Y-106530000D03*
X230150000Y-109070000D03*
X230150000Y-111610000D03*
D25*
X230150000Y-114150000D03*
%TD*%
D17*
%TO.C,Q3*%
X153280000Y-124060000D03*
D18*
X154550000Y-124060000D03*
X155820000Y-124060000D03*
%TD*%
G36*
X137277919Y-123433759D02*
G01*
X137297595Y-123500771D01*
X137349938Y-123546126D01*
X137418491Y-123555983D01*
X137481648Y-123527140D01*
X137496563Y-123510630D01*
X137498466Y-123510015D01*
X137499950Y-123511356D01*
X137499634Y-123513189D01*
X137472915Y-123548010D01*
X137415576Y-123686442D01*
X137396000Y-123835132D01*
X137396000Y-124284868D01*
X137415576Y-124433558D01*
X137472915Y-124571990D01*
X137503875Y-124612338D01*
X137504136Y-124614321D01*
X137502549Y-124615539D01*
X137501026Y-124615107D01*
X137448579Y-124572428D01*
X137379751Y-124564697D01*
X137317672Y-124595402D01*
X137281962Y-124654939D01*
X137277984Y-124686014D01*
X137276772Y-124687605D01*
X137274788Y-124687351D01*
X137274000Y-124685760D01*
X137274000Y-123434322D01*
X137275000Y-123432590D01*
X137277000Y-123432590D01*
X137277919Y-123433759D01*
G37*
G36*
X145567919Y-123433759D02*
G01*
X145587595Y-123500771D01*
X145639938Y-123546126D01*
X145708491Y-123555983D01*
X145771648Y-123527140D01*
X145786563Y-123510630D01*
X145788466Y-123510015D01*
X145789950Y-123511356D01*
X145789634Y-123513189D01*
X145762915Y-123548010D01*
X145705576Y-123686442D01*
X145686000Y-123835132D01*
X145686000Y-124284868D01*
X145705576Y-124433558D01*
X145762915Y-124571990D01*
X145793875Y-124612338D01*
X145794136Y-124614321D01*
X145792549Y-124615539D01*
X145791026Y-124615107D01*
X145738579Y-124572428D01*
X145669751Y-124564697D01*
X145607672Y-124595402D01*
X145571962Y-124654939D01*
X145567984Y-124686014D01*
X145566772Y-124687605D01*
X145564788Y-124687351D01*
X145564000Y-124685760D01*
X145564000Y-123434322D01*
X145565000Y-123432590D01*
X145567000Y-123432590D01*
X145567919Y-123433759D01*
G37*
G36*
X153857919Y-123433759D02*
G01*
X153877595Y-123500771D01*
X153929938Y-123546126D01*
X153998491Y-123555983D01*
X154061648Y-123527140D01*
X154076563Y-123510630D01*
X154078466Y-123510015D01*
X154079950Y-123511356D01*
X154079634Y-123513189D01*
X154052915Y-123548010D01*
X153995576Y-123686442D01*
X153976000Y-123835132D01*
X153976000Y-124284868D01*
X153995576Y-124433558D01*
X154052915Y-124571990D01*
X154083875Y-124612338D01*
X154084136Y-124614321D01*
X154082549Y-124615539D01*
X154081026Y-124615107D01*
X154028579Y-124572428D01*
X153959751Y-124564697D01*
X153897672Y-124595402D01*
X153861962Y-124654939D01*
X153857984Y-124686014D01*
X153856772Y-124687605D01*
X153854788Y-124687351D01*
X153854000Y-124685760D01*
X153854000Y-123434322D01*
X153855000Y-123432590D01*
X153857000Y-123432590D01*
X153857919Y-123433759D01*
G37*
G36*
X147028076Y-123558004D02*
G01*
X147028110Y-123559611D01*
X146975576Y-123686442D01*
X146956000Y-123835132D01*
X146956000Y-124284868D01*
X146975576Y-124433558D01*
X147026941Y-124557565D01*
X147026680Y-124559548D01*
X147024832Y-124560313D01*
X147023445Y-124559463D01*
X147018707Y-124552570D01*
X147018484Y-124552144D01*
X147009930Y-124529506D01*
X146968008Y-124474002D01*
X146903013Y-124450075D01*
X146835403Y-124465087D01*
X146786474Y-124514436D01*
X146780149Y-124528094D01*
X146768689Y-124557487D01*
X146768462Y-124557910D01*
X146765374Y-124562304D01*
X146763560Y-124563146D01*
X146761924Y-124561996D01*
X146761890Y-124560389D01*
X146814424Y-124433558D01*
X146834000Y-124284868D01*
X146834000Y-123835132D01*
X146814424Y-123686442D01*
X146763059Y-123562435D01*
X146763320Y-123560452D01*
X146765168Y-123559687D01*
X146766555Y-123560537D01*
X146771293Y-123567430D01*
X146771516Y-123567856D01*
X146780070Y-123590494D01*
X146821992Y-123645998D01*
X146886987Y-123669925D01*
X146954597Y-123654913D01*
X147003526Y-123605564D01*
X147009851Y-123591906D01*
X147021311Y-123562513D01*
X147021538Y-123562090D01*
X147024626Y-123557696D01*
X147026440Y-123556854D01*
X147028076Y-123558004D01*
G37*
G36*
X138738076Y-123558004D02*
G01*
X138738110Y-123559611D01*
X138685576Y-123686442D01*
X138666000Y-123835132D01*
X138666000Y-124284868D01*
X138685576Y-124433558D01*
X138736941Y-124557565D01*
X138736680Y-124559548D01*
X138734832Y-124560313D01*
X138733445Y-124559463D01*
X138728707Y-124552570D01*
X138728484Y-124552144D01*
X138719930Y-124529506D01*
X138678008Y-124474002D01*
X138613013Y-124450075D01*
X138545403Y-124465087D01*
X138496474Y-124514436D01*
X138490149Y-124528094D01*
X138478689Y-124557487D01*
X138478462Y-124557910D01*
X138475374Y-124562304D01*
X138473560Y-124563146D01*
X138471924Y-124561996D01*
X138471890Y-124560389D01*
X138524424Y-124433558D01*
X138544000Y-124284868D01*
X138544000Y-123835132D01*
X138524424Y-123686442D01*
X138473059Y-123562435D01*
X138473320Y-123560452D01*
X138475168Y-123559687D01*
X138476555Y-123560537D01*
X138481293Y-123567430D01*
X138481516Y-123567856D01*
X138490070Y-123590494D01*
X138531992Y-123645998D01*
X138596987Y-123669925D01*
X138664597Y-123654913D01*
X138713526Y-123605564D01*
X138719851Y-123591906D01*
X138731311Y-123562513D01*
X138731538Y-123562090D01*
X138734626Y-123557696D01*
X138736440Y-123556854D01*
X138738076Y-123558004D01*
G37*
G36*
X155318076Y-123558004D02*
G01*
X155318110Y-123559611D01*
X155265576Y-123686442D01*
X155246000Y-123835132D01*
X155246000Y-124284868D01*
X155265576Y-124433558D01*
X155316941Y-124557565D01*
X155316680Y-124559548D01*
X155314832Y-124560313D01*
X155313445Y-124559463D01*
X155308707Y-124552570D01*
X155308484Y-124552144D01*
X155299930Y-124529506D01*
X155258008Y-124474002D01*
X155193013Y-124450075D01*
X155125403Y-124465087D01*
X155076474Y-124514436D01*
X155070149Y-124528094D01*
X155058689Y-124557487D01*
X155058462Y-124557910D01*
X155055374Y-124562304D01*
X155053560Y-124563146D01*
X155051924Y-124561996D01*
X155051890Y-124560389D01*
X155104424Y-124433558D01*
X155124000Y-124284868D01*
X155124000Y-123835132D01*
X155104424Y-123686442D01*
X155053059Y-123562435D01*
X155053320Y-123560452D01*
X155055168Y-123559687D01*
X155056555Y-123560537D01*
X155061293Y-123567430D01*
X155061516Y-123567856D01*
X155070070Y-123590494D01*
X155111992Y-123645998D01*
X155176987Y-123669925D01*
X155244597Y-123654913D01*
X155293526Y-123605564D01*
X155299851Y-123591906D01*
X155311311Y-123562513D01*
X155311538Y-123562090D01*
X155314626Y-123557696D01*
X155316440Y-123556854D01*
X155318076Y-123558004D01*
G37*
G36*
X208337919Y-122702267D02*
G01*
X208357595Y-122769279D01*
X208409938Y-122814634D01*
X208478491Y-122824491D01*
X208541647Y-122795648D01*
X208561702Y-122773450D01*
X208583559Y-122742350D01*
X208583880Y-122741993D01*
X208592637Y-122734354D01*
X208594600Y-122733969D01*
X208595915Y-122735476D01*
X208595539Y-122737079D01*
X208514255Y-122843010D01*
X208455916Y-122983854D01*
X208436000Y-123135132D01*
X208436000Y-123864868D01*
X208455916Y-124016146D01*
X208514255Y-124156990D01*
X208593646Y-124260455D01*
X208593907Y-124262438D01*
X208592320Y-124263656D01*
X208590728Y-124263166D01*
X208579790Y-124253420D01*
X208579473Y-124253060D01*
X208562528Y-124228406D01*
X208508578Y-124184506D01*
X208439750Y-124176775D01*
X208377671Y-124207481D01*
X208341962Y-124267018D01*
X208337984Y-124298092D01*
X208336772Y-124299683D01*
X208334788Y-124299429D01*
X208334000Y-124297838D01*
X208334000Y-122702830D01*
X208335000Y-122701098D01*
X208337000Y-122701098D01*
X208337919Y-122702267D01*
G37*
G36*
X211049359Y-122853141D02*
G01*
X211049393Y-122854748D01*
X210995916Y-122983854D01*
X210976000Y-123135132D01*
X210976000Y-123864868D01*
X210995916Y-124016146D01*
X211048204Y-124142380D01*
X211047943Y-124144363D01*
X211046095Y-124145128D01*
X211044708Y-124144278D01*
X211031993Y-124125778D01*
X211031466Y-124125820D01*
X211030730Y-124125220D01*
X210997864Y-124081704D01*
X210932869Y-124057778D01*
X210865259Y-124072789D01*
X210816329Y-124122137D01*
X210810003Y-124135800D01*
X210807504Y-124142209D01*
X210807277Y-124142633D01*
X210804091Y-124147167D01*
X210802277Y-124148009D01*
X210800641Y-124146859D01*
X210800607Y-124145252D01*
X210854084Y-124016146D01*
X210874000Y-123864868D01*
X210874000Y-123135132D01*
X210854084Y-122983854D01*
X210801796Y-122857620D01*
X210802057Y-122855637D01*
X210803905Y-122854872D01*
X210805292Y-122855722D01*
X210818007Y-122874222D01*
X210818534Y-122874180D01*
X210819270Y-122874780D01*
X210852136Y-122918296D01*
X210917131Y-122942222D01*
X210984741Y-122927211D01*
X211033671Y-122877863D01*
X211039997Y-122864200D01*
X211042496Y-122857791D01*
X211042723Y-122857367D01*
X211045909Y-122852833D01*
X211047723Y-122851991D01*
X211049359Y-122853141D01*
G37*
G36*
X209779359Y-122853141D02*
G01*
X209779393Y-122854748D01*
X209725916Y-122983854D01*
X209706000Y-123135132D01*
X209706000Y-123864868D01*
X209725916Y-124016146D01*
X209778204Y-124142380D01*
X209777943Y-124144363D01*
X209776095Y-124145128D01*
X209774708Y-124144278D01*
X209761993Y-124125778D01*
X209761466Y-124125820D01*
X209760730Y-124125220D01*
X209727864Y-124081704D01*
X209662869Y-124057778D01*
X209595259Y-124072789D01*
X209546329Y-124122137D01*
X209540003Y-124135800D01*
X209537504Y-124142209D01*
X209537277Y-124142633D01*
X209534091Y-124147167D01*
X209532277Y-124148009D01*
X209530641Y-124146859D01*
X209530607Y-124145252D01*
X209584084Y-124016146D01*
X209604000Y-123864868D01*
X209604000Y-123135132D01*
X209584084Y-122983854D01*
X209531796Y-122857620D01*
X209532057Y-122855637D01*
X209533905Y-122854872D01*
X209535292Y-122855722D01*
X209548007Y-122874222D01*
X209548534Y-122874180D01*
X209549270Y-122874780D01*
X209582136Y-122918296D01*
X209647131Y-122942222D01*
X209714741Y-122927211D01*
X209763671Y-122877863D01*
X209769997Y-122864200D01*
X209772496Y-122857791D01*
X209772723Y-122857367D01*
X209775909Y-122852833D01*
X209777723Y-122851991D01*
X209779359Y-122853141D01*
G37*
M02*
