M48
; DRILL file {KiCad (6.0.6-0)} date Tuesday, July 26, 2022 at 01:54:35 PM
; FORMAT={-:-/ absolute / inch / decimal}
; #@! TF.CreationDate,2022-07-26T13:54:35-07:00
; #@! TF.GenerationSoftware,Kicad,Pcbnew,(6.0.6-0)
; #@! TF.FileFunction,Plated,1,2,PTH
FMAT,2
INCH
; #@! TA.AperFunction,Plated,PTH,ViaDrill
T1C0.0157
; #@! TA.AperFunction,Plated,PTH,ComponentDrill
T2C0.0197
; #@! TA.AperFunction,Plated,PTH,ComponentDrill
T3C0.0295
; #@! TA.AperFunction,Plated,PTH,ComponentDrill
T4C0.0315
; #@! TA.AperFunction,Plated,PTH,ComponentDrill
T5C0.0354
; #@! TA.AperFunction,Plated,PTH,ComponentDrill
T6C0.0394
; #@! TA.AperFunction,Plated,PTH,ComponentDrill
T7C0.0433
; #@! TA.AperFunction,Plated,PTH,ComponentDrill
T8C0.1181
%
G90
G05
T1
X5.5472Y-3.0886
X5.5472Y-3.6535
X5.5472Y-4.2579
X5.6594Y-4.6122
X5.6634Y-4.0138
X5.7097Y-4.2854
X5.8878Y-4.0138
X5.9646Y-3.6555
X5.9656Y-4.2589
X5.9783Y-4.378
X6.0118Y-3.7332
X6.0466Y-3.7517
X6.0768Y-3.7815
X6.1181Y-3.8051
X6.1634Y-3.8307
X6.1732Y-3.9213
X6.2126Y-3.8898
X6.2303Y-3.8327
X6.25Y-4.4803
X6.3602Y-4.2205
X6.3622Y-4.6142
X7.0669Y-2.8307
X8.1201Y-3.1969
X8.2362Y-3.5945
X8.4961Y-3.2874
T2
X4.8214Y-2.4
X4.8214Y-4.94
X4.8474Y-2.3374
X4.8474Y-2.4626
X4.8474Y-4.8774
X4.8474Y-5.0026
X4.91Y-2.3114
X4.91Y-2.4886
X4.91Y-4.8514
X4.91Y-5.0286
X4.9726Y-2.3374
X4.9726Y-2.4626
X4.9726Y-4.8774
X4.9726Y-5.0026
X4.9986Y-2.4
X4.9986Y-4.94
X9.0433Y-2.4
X9.0433Y-4.94
X9.0693Y-2.3374
X9.0693Y-2.4626
X9.0693Y-4.8774
X9.0693Y-5.0026
X9.1319Y-2.3114
X9.1319Y-2.4886
X9.1319Y-4.8514
X9.1319Y-5.0286
X9.1945Y-2.3374
X9.1945Y-2.4626
X9.1945Y-4.8774
X9.1945Y-5.0026
X9.2205Y-2.4
X9.2205Y-4.94
T3
X5.3819Y-4.8843
X5.4319Y-4.8843
X5.4819Y-4.8843
X5.7083Y-4.8843
X5.7583Y-4.8843
X5.8083Y-4.8843
X6.0346Y-4.8843
X6.0846Y-4.8843
X6.1346Y-4.8843
T4
X6.9102Y-2.6766
X6.9102Y-2.7766
X6.9102Y-2.8766
X6.9102Y-2.9766
X6.9102Y-3.0766
X6.9102Y-3.1766
X6.9102Y-3.2766
X6.9102Y-3.3766
X6.9102Y-3.4766
X6.9102Y-3.5766
X6.9102Y-3.6766
X6.9102Y-3.7766
X6.9102Y-3.8766
X6.9102Y-3.9766
X6.9102Y-4.0766
X6.9102Y-4.1766
X6.9102Y-4.2766
X6.9102Y-4.3766
X6.9102Y-4.4766
X6.9102Y-4.5766
X6.9102Y-4.6766
X6.9102Y-4.7766
X6.9102Y-4.8766
X6.9102Y-4.9766
X7.8118Y-2.6766
X7.8118Y-2.7766
X7.8118Y-2.8766
X7.8118Y-2.9766
X7.8118Y-3.0766
X7.8118Y-3.1766
X7.8118Y-3.2766
X7.8118Y-3.3766
X7.8118Y-3.4766
X7.8118Y-3.5766
X7.8118Y-3.6766
X7.8118Y-3.7766
X7.8118Y-3.8766
X7.8118Y-3.9766
X7.8118Y-4.0766
X7.8118Y-4.1766
X7.8118Y-4.2766
X7.8118Y-4.3766
X7.8118Y-4.4766
X7.8118Y-4.5766
X7.8118Y-4.6766
X7.8118Y-4.7766
X7.8118Y-4.8766
X7.8118Y-4.9766
X8.061Y-2.6929
X8.061Y-2.7929
X8.061Y-2.8929
X8.061Y-2.9929
X8.061Y-3.0929
X8.061Y-3.1929
X8.061Y-3.2929
X8.061Y-3.3929
X8.061Y-3.4929
X8.061Y-3.5929
X8.061Y-3.6929
X8.061Y-3.7929
X8.061Y-3.8929
X8.061Y-3.9929
X8.061Y-4.0929
X8.061Y-4.1929
X8.061Y-4.2929
X8.061Y-4.3929
X8.061Y-4.4929
X8.2421Y-4.1466
X8.2421Y-4.4466
X8.3721Y-4.1466
X8.3721Y-4.4466
X8.5021Y-4.1466
X8.5021Y-4.4466
X8.821Y-4.1466
X8.821Y-4.4466
X8.961Y-2.6954
X8.961Y-2.7929
X8.961Y-2.8929
X8.961Y-2.9929
X8.961Y-3.0929
X8.961Y-3.1929
X8.961Y-3.2929
X8.961Y-3.3929
X8.961Y-3.4929
X8.961Y-3.5929
X8.961Y-3.6929
X8.961Y-3.7929
X8.961Y-3.8929
X8.961Y-3.9929
X8.961Y-4.0929
X8.961Y-4.1929
X8.961Y-4.2929
X8.961Y-4.3929
X8.961Y-4.4929
T5
X8.1791Y-4.8622
X8.2291Y-4.8622
X8.2791Y-4.8622
X8.3291Y-4.8622
T6
X4.5798Y-2.4702
X4.5798Y-2.5702
X4.5798Y-2.6702
X4.5798Y-2.7702
X4.5798Y-2.8702
X4.5798Y-2.9702
X4.5798Y-3.0702
X4.5798Y-3.1702
X4.5798Y-3.2702
X4.5798Y-3.3702
X4.5798Y-3.4702
X4.5798Y-3.5702
X4.5798Y-3.6702
X4.5798Y-3.7702
X4.5798Y-3.8702
X4.5798Y-3.9702
X4.5798Y-4.0702
X4.5798Y-4.1702
X4.5798Y-4.2702
X4.5798Y-4.3702
X4.5798Y-4.4702
X4.5798Y-4.5702
X4.5798Y-4.6702
X4.5798Y-4.7702
X4.5798Y-4.8702
X4.6798Y-2.4702
X4.6798Y-2.5702
X4.6798Y-2.6702
X4.6798Y-2.7702
X4.6798Y-2.8702
X4.6798Y-2.9702
X4.6798Y-3.0702
X4.6798Y-3.1702
X4.6798Y-3.2702
X4.6798Y-3.3702
X4.6798Y-3.4702
X4.6798Y-3.5702
X4.6798Y-3.6702
X4.6798Y-3.7702
X4.6798Y-3.8702
X4.6798Y-3.9702
X4.6798Y-4.0702
X4.6798Y-4.1702
X4.6798Y-4.2702
X4.6798Y-4.3702
X4.6798Y-4.4702
X4.6798Y-4.5702
X4.6798Y-4.6702
X4.6798Y-4.7702
X4.6798Y-4.8702
X5.2598Y-2.625
X5.3598Y-2.625
X5.4598Y-2.625
X5.5598Y-2.625
X5.6598Y-2.625
X5.7598Y-2.625
X6.0157Y-2.625
X6.1157Y-2.625
X6.2157Y-2.625
X6.3157Y-2.625
X6.4157Y-2.625
X6.5157Y-2.625
X6.7441Y-2.3809
X6.7441Y-2.4809
X9.061Y-2.6941
X9.061Y-2.7941
X9.061Y-2.8941
X9.061Y-2.9941
X9.061Y-3.0941
X9.061Y-3.1941
X9.061Y-3.2941
X9.061Y-3.3941
X9.061Y-3.4941
X9.061Y-3.5941
X9.061Y-3.6941
X9.061Y-3.7941
X9.061Y-3.8941
X9.061Y-3.9941
X9.061Y-4.0941
X9.061Y-4.1941
X9.061Y-4.2941
X9.061Y-4.3941
X9.061Y-4.4941
T7
X8.6516Y-4.7736
X8.6516Y-4.9508
X8.9075Y-4.7736
X8.9075Y-4.9508
T8
X4.91Y-2.4
X4.91Y-4.94
X9.1319Y-2.4
X9.1319Y-4.94
T0
M30
