%TF.GenerationSoftware,KiCad,Pcbnew,(6.0.6-0)*%
%TF.CreationDate,2022-07-26T13:54:30-07:00*%
%TF.ProjectId,TRS-IO-M3,5452532d-494f-42d4-9d33-2e6b69636164,rev?*%
%TF.SameCoordinates,Original*%
%TF.FileFunction,Legend,Top*%
%TF.FilePolarity,Positive*%
%FSLAX46Y46*%
G04 Gerber Fmt 4.6, Leading zero omitted, Abs format (unit mm)*
G04 Created by KiCad (PCBNEW (6.0.6-0)) date 2022-07-26 13:54:30*
%MOMM*%
%LPD*%
G01*
G04 APERTURE LIST*
%ADD10C,0.300000*%
%ADD11C,0.150000*%
%ADD12C,0.120000*%
G04 APERTURE END LIST*
D10*
X154028571Y-68878571D02*
X154528571Y-70378571D01*
X155028571Y-68878571D01*
X155528571Y-70378571D02*
X155528571Y-69378571D01*
X155528571Y-68878571D02*
X155457142Y-68950000D01*
X155528571Y-69021428D01*
X155600000Y-68950000D01*
X155528571Y-68878571D01*
X155528571Y-69021428D01*
X156885714Y-70378571D02*
X156885714Y-68878571D01*
X156885714Y-70307142D02*
X156742857Y-70378571D01*
X156457142Y-70378571D01*
X156314285Y-70307142D01*
X156242857Y-70235714D01*
X156171428Y-70092857D01*
X156171428Y-69664285D01*
X156242857Y-69521428D01*
X156314285Y-69450000D01*
X156457142Y-69378571D01*
X156742857Y-69378571D01*
X156885714Y-69450000D01*
X158171428Y-70307142D02*
X158028571Y-70378571D01*
X157742857Y-70378571D01*
X157600000Y-70307142D01*
X157528571Y-70164285D01*
X157528571Y-69592857D01*
X157600000Y-69450000D01*
X157742857Y-69378571D01*
X158028571Y-69378571D01*
X158171428Y-69450000D01*
X158242857Y-69592857D01*
X158242857Y-69735714D01*
X157528571Y-69878571D01*
X159100000Y-70378571D02*
X158957142Y-70307142D01*
X158885714Y-70235714D01*
X158814285Y-70092857D01*
X158814285Y-69664285D01*
X158885714Y-69521428D01*
X158957142Y-69450000D01*
X159100000Y-69378571D01*
X159314285Y-69378571D01*
X159457142Y-69450000D01*
X159528571Y-69521428D01*
X159600000Y-69664285D01*
X159600000Y-70092857D01*
X159528571Y-70235714D01*
X159457142Y-70307142D01*
X159314285Y-70378571D01*
X159100000Y-70378571D01*
X161671428Y-68878571D02*
X161957142Y-68878571D01*
X162100000Y-68950000D01*
X162242857Y-69092857D01*
X162314285Y-69378571D01*
X162314285Y-69878571D01*
X162242857Y-70164285D01*
X162100000Y-70307142D01*
X161957142Y-70378571D01*
X161671428Y-70378571D01*
X161528571Y-70307142D01*
X161385714Y-70164285D01*
X161314285Y-69878571D01*
X161314285Y-69378571D01*
X161385714Y-69092857D01*
X161528571Y-68950000D01*
X161671428Y-68878571D01*
X163600000Y-69378571D02*
X163600000Y-70378571D01*
X162957142Y-69378571D02*
X162957142Y-70164285D01*
X163028571Y-70307142D01*
X163171428Y-70378571D01*
X163385714Y-70378571D01*
X163528571Y-70307142D01*
X163600000Y-70235714D01*
X164100000Y-69378571D02*
X164671428Y-69378571D01*
X164314285Y-68878571D02*
X164314285Y-70164285D01*
X164385714Y-70307142D01*
X164528571Y-70378571D01*
X164671428Y-70378571D01*
X135985714Y-69078571D02*
X136485714Y-70578571D01*
X136985714Y-69078571D01*
X137485714Y-70578571D02*
X137485714Y-69578571D01*
X137485714Y-69078571D02*
X137414285Y-69150000D01*
X137485714Y-69221428D01*
X137557142Y-69150000D01*
X137485714Y-69078571D01*
X137485714Y-69221428D01*
X138842857Y-70578571D02*
X138842857Y-69078571D01*
X138842857Y-70507142D02*
X138700000Y-70578571D01*
X138414285Y-70578571D01*
X138271428Y-70507142D01*
X138200000Y-70435714D01*
X138128571Y-70292857D01*
X138128571Y-69864285D01*
X138200000Y-69721428D01*
X138271428Y-69650000D01*
X138414285Y-69578571D01*
X138700000Y-69578571D01*
X138842857Y-69650000D01*
X140128571Y-70507142D02*
X139985714Y-70578571D01*
X139700000Y-70578571D01*
X139557142Y-70507142D01*
X139485714Y-70364285D01*
X139485714Y-69792857D01*
X139557142Y-69650000D01*
X139700000Y-69578571D01*
X139985714Y-69578571D01*
X140128571Y-69650000D01*
X140200000Y-69792857D01*
X140200000Y-69935714D01*
X139485714Y-70078571D01*
X141057142Y-70578571D02*
X140914285Y-70507142D01*
X140842857Y-70435714D01*
X140771428Y-70292857D01*
X140771428Y-69864285D01*
X140842857Y-69721428D01*
X140914285Y-69650000D01*
X141057142Y-69578571D01*
X141271428Y-69578571D01*
X141414285Y-69650000D01*
X141485714Y-69721428D01*
X141557142Y-69864285D01*
X141557142Y-70292857D01*
X141485714Y-70435714D01*
X141414285Y-70507142D01*
X141271428Y-70578571D01*
X141057142Y-70578571D01*
X143342857Y-70578571D02*
X143342857Y-69078571D01*
X144057142Y-69578571D02*
X144057142Y-70578571D01*
X144057142Y-69721428D02*
X144128571Y-69650000D01*
X144271428Y-69578571D01*
X144485714Y-69578571D01*
X144628571Y-69650000D01*
X144700000Y-69792857D01*
X144700000Y-70578571D01*
D11*
X128952619Y-74188095D02*
X128952619Y-74759523D01*
X127952619Y-74473809D02*
X128952619Y-74473809D01*
X127952619Y-75664285D02*
X128428809Y-75330952D01*
X127952619Y-75092857D02*
X128952619Y-75092857D01*
X128952619Y-75473809D01*
X128905000Y-75569047D01*
X128857380Y-75616666D01*
X128762142Y-75664285D01*
X128619285Y-75664285D01*
X128524047Y-75616666D01*
X128476428Y-75569047D01*
X128428809Y-75473809D01*
X128428809Y-75092857D01*
X128000238Y-76045238D02*
X127952619Y-76188095D01*
X127952619Y-76426190D01*
X128000238Y-76521428D01*
X128047857Y-76569047D01*
X128143095Y-76616666D01*
X128238333Y-76616666D01*
X128333571Y-76569047D01*
X128381190Y-76521428D01*
X128428809Y-76426190D01*
X128476428Y-76235714D01*
X128524047Y-76140476D01*
X128571666Y-76092857D01*
X128666904Y-76045238D01*
X128762142Y-76045238D01*
X128857380Y-76092857D01*
X128905000Y-76140476D01*
X128952619Y-76235714D01*
X128952619Y-76473809D01*
X128905000Y-76616666D01*
X128333571Y-77045238D02*
X128333571Y-77807142D01*
X127952619Y-78283333D02*
X128952619Y-78283333D01*
X128952619Y-78949999D02*
X128952619Y-79140476D01*
X128905000Y-79235714D01*
X128809761Y-79330952D01*
X128619285Y-79378571D01*
X128285952Y-79378571D01*
X128095476Y-79330952D01*
X128000238Y-79235714D01*
X127952619Y-79140476D01*
X127952619Y-78949999D01*
X128000238Y-78854761D01*
X128095476Y-78759523D01*
X128285952Y-78711904D01*
X128619285Y-78711904D01*
X128809761Y-78759523D01*
X128905000Y-78854761D01*
X128952619Y-78949999D01*
X128333571Y-79807142D02*
X128333571Y-80569047D01*
X127952619Y-81045238D02*
X128952619Y-81045238D01*
X128238333Y-81378571D01*
X128952619Y-81711904D01*
X127952619Y-81711904D01*
X128952619Y-82092857D02*
X128952619Y-82711904D01*
X128571666Y-82378571D01*
X128571666Y-82521428D01*
X128524047Y-82616666D01*
X128476428Y-82664285D01*
X128381190Y-82711904D01*
X128143095Y-82711904D01*
X128047857Y-82664285D01*
X128000238Y-82616666D01*
X127952619Y-82521428D01*
X127952619Y-82235714D01*
X128000238Y-82140476D01*
X128047857Y-82092857D01*
X128619285Y-83807142D02*
X127952619Y-84045238D01*
X128619285Y-84283333D01*
X128857380Y-84616666D02*
X128905000Y-84664285D01*
X128952619Y-84759523D01*
X128952619Y-84997619D01*
X128905000Y-85092857D01*
X128857380Y-85140476D01*
X128762142Y-85188095D01*
X128666904Y-85188095D01*
X128524047Y-85140476D01*
X127952619Y-84569047D01*
X127952619Y-85188095D01*
X128047857Y-85616666D02*
X128000238Y-85664285D01*
X127952619Y-85616666D01*
X128000238Y-85569047D01*
X128047857Y-85616666D01*
X127952619Y-85616666D01*
X128952619Y-86283333D02*
X128952619Y-86378571D01*
X128905000Y-86473809D01*
X128857380Y-86521428D01*
X128762142Y-86569047D01*
X128571666Y-86616666D01*
X128333571Y-86616666D01*
X128143095Y-86569047D01*
X128047857Y-86521428D01*
X128000238Y-86473809D01*
X127952619Y-86378571D01*
X127952619Y-86283333D01*
X128000238Y-86188095D01*
X128047857Y-86140476D01*
X128143095Y-86092857D01*
X128333571Y-86045238D01*
X128571666Y-86045238D01*
X128762142Y-86092857D01*
X128857380Y-86140476D01*
X128905000Y-86188095D01*
X128952619Y-86283333D01*
X127342619Y-77211904D02*
X126628333Y-77211904D01*
X126485476Y-77164285D01*
X126390238Y-77069047D01*
X126342619Y-76926190D01*
X126342619Y-76830952D01*
X127009285Y-78116666D02*
X126342619Y-78116666D01*
X127009285Y-77688095D02*
X126485476Y-77688095D01*
X126390238Y-77735714D01*
X126342619Y-77830952D01*
X126342619Y-77973809D01*
X126390238Y-78069047D01*
X126437857Y-78116666D01*
X126342619Y-78735714D02*
X126390238Y-78640476D01*
X126485476Y-78592857D01*
X127342619Y-78592857D01*
X127009285Y-79021428D02*
X126342619Y-79259523D01*
X127009285Y-79497619D02*
X126342619Y-79259523D01*
X126104523Y-79164285D01*
X126056904Y-79116666D01*
X126009285Y-79021428D01*
X127247380Y-80592857D02*
X127295000Y-80640476D01*
X127342619Y-80735714D01*
X127342619Y-80973809D01*
X127295000Y-81069047D01*
X127247380Y-81116666D01*
X127152142Y-81164285D01*
X127056904Y-81164285D01*
X126914047Y-81116666D01*
X126342619Y-80545238D01*
X126342619Y-81164285D01*
X127342619Y-81783333D02*
X127342619Y-81878571D01*
X127295000Y-81973809D01*
X127247380Y-82021428D01*
X127152142Y-82069047D01*
X126961666Y-82116666D01*
X126723571Y-82116666D01*
X126533095Y-82069047D01*
X126437857Y-82021428D01*
X126390238Y-81973809D01*
X126342619Y-81878571D01*
X126342619Y-81783333D01*
X126390238Y-81688095D01*
X126437857Y-81640476D01*
X126533095Y-81592857D01*
X126723571Y-81545238D01*
X126961666Y-81545238D01*
X127152142Y-81592857D01*
X127247380Y-81640476D01*
X127295000Y-81688095D01*
X127342619Y-81783333D01*
X127247380Y-82497619D02*
X127295000Y-82545238D01*
X127342619Y-82640476D01*
X127342619Y-82878571D01*
X127295000Y-82973809D01*
X127247380Y-83021428D01*
X127152142Y-83069047D01*
X127056904Y-83069047D01*
X126914047Y-83021428D01*
X126342619Y-82450000D01*
X126342619Y-83069047D01*
X127247380Y-83450000D02*
X127295000Y-83497619D01*
X127342619Y-83592857D01*
X127342619Y-83830952D01*
X127295000Y-83926190D01*
X127247380Y-83973809D01*
X127152142Y-84021428D01*
X127056904Y-84021428D01*
X126914047Y-83973809D01*
X126342619Y-83402380D01*
X126342619Y-84021428D01*
X119157714Y-126690380D02*
X118586285Y-126690380D01*
X118872000Y-126690380D02*
X118872000Y-125690380D01*
X118776761Y-125833238D01*
X118681523Y-125928476D01*
X118586285Y-125976095D01*
D10*
X170014285Y-65749571D02*
X170514285Y-67249571D01*
X171014285Y-65749571D01*
X171514285Y-65749571D02*
X171514285Y-66963857D01*
X171585714Y-67106714D01*
X171657142Y-67178142D01*
X171800000Y-67249571D01*
X172085714Y-67249571D01*
X172228571Y-67178142D01*
X172300000Y-67106714D01*
X172371428Y-66963857D01*
X172371428Y-65749571D01*
D11*
%TO.C,R1*%
X209802380Y-109299666D02*
X209326190Y-109633000D01*
X209802380Y-109871095D02*
X208802380Y-109871095D01*
X208802380Y-109490142D01*
X208850000Y-109394904D01*
X208897619Y-109347285D01*
X208992857Y-109299666D01*
X209135714Y-109299666D01*
X209230952Y-109347285D01*
X209278571Y-109394904D01*
X209326190Y-109490142D01*
X209326190Y-109871095D01*
X209802380Y-108347285D02*
X209802380Y-108918714D01*
X209802380Y-108633000D02*
X208802380Y-108633000D01*
X208945238Y-108728238D01*
X209040476Y-108823476D01*
X209088095Y-108918714D01*
%TO.C,R2*%
X216406380Y-109299666D02*
X215930190Y-109633000D01*
X216406380Y-109871095D02*
X215406380Y-109871095D01*
X215406380Y-109490142D01*
X215454000Y-109394904D01*
X215501619Y-109347285D01*
X215596857Y-109299666D01*
X215739714Y-109299666D01*
X215834952Y-109347285D01*
X215882571Y-109394904D01*
X215930190Y-109490142D01*
X215930190Y-109871095D01*
X215501619Y-108918714D02*
X215454000Y-108871095D01*
X215406380Y-108775857D01*
X215406380Y-108537761D01*
X215454000Y-108442523D01*
X215501619Y-108394904D01*
X215596857Y-108347285D01*
X215692095Y-108347285D01*
X215834952Y-108394904D01*
X216406380Y-108966333D01*
X216406380Y-108347285D01*
%TO.C,J5*%
X130782380Y-62623333D02*
X131496666Y-62623333D01*
X131639523Y-62670952D01*
X131734761Y-62766190D01*
X131782380Y-62909047D01*
X131782380Y-63004285D01*
X130782380Y-61670952D02*
X130782380Y-62147142D01*
X131258571Y-62194761D01*
X131210952Y-62147142D01*
X131163333Y-62051904D01*
X131163333Y-61813809D01*
X131210952Y-61718571D01*
X131258571Y-61670952D01*
X131353809Y-61623333D01*
X131591904Y-61623333D01*
X131687142Y-61670952D01*
X131734761Y-61718571D01*
X131782380Y-61813809D01*
X131782380Y-62051904D01*
X131734761Y-62147142D01*
X131687142Y-62194761D01*
%TO.C,C6*%
X151687142Y-105516666D02*
X151734761Y-105564285D01*
X151782380Y-105707142D01*
X151782380Y-105802380D01*
X151734761Y-105945238D01*
X151639523Y-106040476D01*
X151544285Y-106088095D01*
X151353809Y-106135714D01*
X151210952Y-106135714D01*
X151020476Y-106088095D01*
X150925238Y-106040476D01*
X150830000Y-105945238D01*
X150782380Y-105802380D01*
X150782380Y-105707142D01*
X150830000Y-105564285D01*
X150877619Y-105516666D01*
X150782380Y-104659523D02*
X150782380Y-104850000D01*
X150830000Y-104945238D01*
X150877619Y-104992857D01*
X151020476Y-105088095D01*
X151210952Y-105135714D01*
X151591904Y-105135714D01*
X151687142Y-105088095D01*
X151734761Y-105040476D01*
X151782380Y-104945238D01*
X151782380Y-104754761D01*
X151734761Y-104659523D01*
X151687142Y-104611904D01*
X151591904Y-104564285D01*
X151353809Y-104564285D01*
X151258571Y-104611904D01*
X151210952Y-104659523D01*
X151163333Y-104754761D01*
X151163333Y-104945238D01*
X151210952Y-105040476D01*
X151258571Y-105088095D01*
X151353809Y-105135714D01*
%TO.C,U5*%
X186208095Y-65337380D02*
X186208095Y-66146904D01*
X186255714Y-66242142D01*
X186303333Y-66289761D01*
X186398571Y-66337380D01*
X186589047Y-66337380D01*
X186684285Y-66289761D01*
X186731904Y-66242142D01*
X186779523Y-66146904D01*
X186779523Y-65337380D01*
X187731904Y-65337380D02*
X187255714Y-65337380D01*
X187208095Y-65813571D01*
X187255714Y-65765952D01*
X187350952Y-65718333D01*
X187589047Y-65718333D01*
X187684285Y-65765952D01*
X187731904Y-65813571D01*
X187779523Y-65908809D01*
X187779523Y-66146904D01*
X187731904Y-66242142D01*
X187684285Y-66289761D01*
X187589047Y-66337380D01*
X187350952Y-66337380D01*
X187255714Y-66289761D01*
X187208095Y-66242142D01*
%TO.C,C1*%
X142527142Y-90016666D02*
X142574761Y-90064285D01*
X142622380Y-90207142D01*
X142622380Y-90302380D01*
X142574761Y-90445238D01*
X142479523Y-90540476D01*
X142384285Y-90588095D01*
X142193809Y-90635714D01*
X142050952Y-90635714D01*
X141860476Y-90588095D01*
X141765238Y-90540476D01*
X141670000Y-90445238D01*
X141622380Y-90302380D01*
X141622380Y-90207142D01*
X141670000Y-90064285D01*
X141717619Y-90016666D01*
X142622380Y-89064285D02*
X142622380Y-89635714D01*
X142622380Y-89350000D02*
X141622380Y-89350000D01*
X141765238Y-89445238D01*
X141860476Y-89540476D01*
X141908095Y-89635714D01*
%TO.C,C7*%
X152437142Y-75366666D02*
X152484761Y-75414285D01*
X152532380Y-75557142D01*
X152532380Y-75652380D01*
X152484761Y-75795238D01*
X152389523Y-75890476D01*
X152294285Y-75938095D01*
X152103809Y-75985714D01*
X151960952Y-75985714D01*
X151770476Y-75938095D01*
X151675238Y-75890476D01*
X151580000Y-75795238D01*
X151532380Y-75652380D01*
X151532380Y-75557142D01*
X151580000Y-75414285D01*
X151627619Y-75366666D01*
X151532380Y-75033333D02*
X151532380Y-74366666D01*
X152532380Y-74795238D01*
%TO.C,U4*%
X165013095Y-108027380D02*
X165013095Y-108836904D01*
X165060714Y-108932142D01*
X165108333Y-108979761D01*
X165203571Y-109027380D01*
X165394047Y-109027380D01*
X165489285Y-108979761D01*
X165536904Y-108932142D01*
X165584523Y-108836904D01*
X165584523Y-108027380D01*
X166489285Y-108360714D02*
X166489285Y-109027380D01*
X166251190Y-107979761D02*
X166013095Y-108694047D01*
X166632142Y-108694047D01*
%TO.C,U2*%
X145938095Y-106352380D02*
X145938095Y-107161904D01*
X145985714Y-107257142D01*
X146033333Y-107304761D01*
X146128571Y-107352380D01*
X146319047Y-107352380D01*
X146414285Y-107304761D01*
X146461904Y-107257142D01*
X146509523Y-107161904D01*
X146509523Y-106352380D01*
X146938095Y-106447619D02*
X146985714Y-106400000D01*
X147080952Y-106352380D01*
X147319047Y-106352380D01*
X147414285Y-106400000D01*
X147461904Y-106447619D01*
X147509523Y-106542857D01*
X147509523Y-106638095D01*
X147461904Y-106780952D01*
X146890476Y-107352380D01*
X147509523Y-107352380D01*
%TO.C,C3*%
X151637142Y-90016666D02*
X151684761Y-90064285D01*
X151732380Y-90207142D01*
X151732380Y-90302380D01*
X151684761Y-90445238D01*
X151589523Y-90540476D01*
X151494285Y-90588095D01*
X151303809Y-90635714D01*
X151160952Y-90635714D01*
X150970476Y-90588095D01*
X150875238Y-90540476D01*
X150780000Y-90445238D01*
X150732380Y-90302380D01*
X150732380Y-90207142D01*
X150780000Y-90064285D01*
X150827619Y-90016666D01*
X150732380Y-89683333D02*
X150732380Y-89064285D01*
X151113333Y-89397619D01*
X151113333Y-89254761D01*
X151160952Y-89159523D01*
X151208571Y-89111904D01*
X151303809Y-89064285D01*
X151541904Y-89064285D01*
X151637142Y-89111904D01*
X151684761Y-89159523D01*
X151732380Y-89254761D01*
X151732380Y-89540476D01*
X151684761Y-89635714D01*
X151637142Y-89683333D01*
%TO.C,Q2*%
X146164761Y-121047619D02*
X146069523Y-121000000D01*
X145974285Y-120904761D01*
X145831428Y-120761904D01*
X145736190Y-120714285D01*
X145640952Y-120714285D01*
X145688571Y-120952380D02*
X145593333Y-120904761D01*
X145498095Y-120809523D01*
X145450476Y-120619047D01*
X145450476Y-120285714D01*
X145498095Y-120095238D01*
X145593333Y-120000000D01*
X145688571Y-119952380D01*
X145879047Y-119952380D01*
X145974285Y-120000000D01*
X146069523Y-120095238D01*
X146117142Y-120285714D01*
X146117142Y-120619047D01*
X146069523Y-120809523D01*
X145974285Y-120904761D01*
X145879047Y-120952380D01*
X145688571Y-120952380D01*
X146498095Y-120047619D02*
X146545714Y-120000000D01*
X146640952Y-119952380D01*
X146879047Y-119952380D01*
X146974285Y-120000000D01*
X147021904Y-120047619D01*
X147069523Y-120142857D01*
X147069523Y-120238095D01*
X147021904Y-120380952D01*
X146450476Y-120952380D01*
X147069523Y-120952380D01*
%TO.C,C4*%
X157083333Y-112907142D02*
X157035714Y-112954761D01*
X156892857Y-113002380D01*
X156797619Y-113002380D01*
X156654761Y-112954761D01*
X156559523Y-112859523D01*
X156511904Y-112764285D01*
X156464285Y-112573809D01*
X156464285Y-112430952D01*
X156511904Y-112240476D01*
X156559523Y-112145238D01*
X156654761Y-112050000D01*
X156797619Y-112002380D01*
X156892857Y-112002380D01*
X157035714Y-112050000D01*
X157083333Y-112097619D01*
X157940476Y-112335714D02*
X157940476Y-113002380D01*
X157702380Y-111954761D02*
X157464285Y-112669047D01*
X158083333Y-112669047D01*
%TO.C,J4*%
X170966666Y-57597380D02*
X170966666Y-58311666D01*
X170919047Y-58454523D01*
X170823809Y-58549761D01*
X170680952Y-58597380D01*
X170585714Y-58597380D01*
X171871428Y-57930714D02*
X171871428Y-58597380D01*
X171633333Y-57549761D02*
X171395238Y-58264047D01*
X172014285Y-58264047D01*
%TO.C,U6*%
X216688095Y-65522380D02*
X216688095Y-66331904D01*
X216735714Y-66427142D01*
X216783333Y-66474761D01*
X216878571Y-66522380D01*
X217069047Y-66522380D01*
X217164285Y-66474761D01*
X217211904Y-66427142D01*
X217259523Y-66331904D01*
X217259523Y-65522380D01*
X218164285Y-65522380D02*
X217973809Y-65522380D01*
X217878571Y-65570000D01*
X217830952Y-65617619D01*
X217735714Y-65760476D01*
X217688095Y-65950952D01*
X217688095Y-66331904D01*
X217735714Y-66427142D01*
X217783333Y-66474761D01*
X217878571Y-66522380D01*
X218069047Y-66522380D01*
X218164285Y-66474761D01*
X218211904Y-66427142D01*
X218259523Y-66331904D01*
X218259523Y-66093809D01*
X218211904Y-65998571D01*
X218164285Y-65950952D01*
X218069047Y-65903333D01*
X217878571Y-65903333D01*
X217783333Y-65950952D01*
X217735714Y-65998571D01*
X217688095Y-66093809D01*
%TO.C,R4*%
X224506380Y-109299666D02*
X224030190Y-109633000D01*
X224506380Y-109871095D02*
X223506380Y-109871095D01*
X223506380Y-109490142D01*
X223554000Y-109394904D01*
X223601619Y-109347285D01*
X223696857Y-109299666D01*
X223839714Y-109299666D01*
X223934952Y-109347285D01*
X223982571Y-109394904D01*
X224030190Y-109490142D01*
X224030190Y-109871095D01*
X223839714Y-108442523D02*
X224506380Y-108442523D01*
X223458761Y-108680619D02*
X224173047Y-108918714D01*
X224173047Y-108299666D01*
%TO.C,Q1*%
X137874761Y-121047619D02*
X137779523Y-121000000D01*
X137684285Y-120904761D01*
X137541428Y-120761904D01*
X137446190Y-120714285D01*
X137350952Y-120714285D01*
X137398571Y-120952380D02*
X137303333Y-120904761D01*
X137208095Y-120809523D01*
X137160476Y-120619047D01*
X137160476Y-120285714D01*
X137208095Y-120095238D01*
X137303333Y-120000000D01*
X137398571Y-119952380D01*
X137589047Y-119952380D01*
X137684285Y-120000000D01*
X137779523Y-120095238D01*
X137827142Y-120285714D01*
X137827142Y-120619047D01*
X137779523Y-120809523D01*
X137684285Y-120904761D01*
X137589047Y-120952380D01*
X137398571Y-120952380D01*
X138779523Y-120952380D02*
X138208095Y-120952380D01*
X138493809Y-120952380D02*
X138493809Y-119952380D01*
X138398571Y-120095238D01*
X138303333Y-120190476D01*
X138208095Y-120238095D01*
%TO.C,J6*%
X149982380Y-62623333D02*
X150696666Y-62623333D01*
X150839523Y-62670952D01*
X150934761Y-62766190D01*
X150982380Y-62909047D01*
X150982380Y-63004285D01*
X149982380Y-61718571D02*
X149982380Y-61909047D01*
X150030000Y-62004285D01*
X150077619Y-62051904D01*
X150220476Y-62147142D01*
X150410952Y-62194761D01*
X150791904Y-62194761D01*
X150887142Y-62147142D01*
X150934761Y-62099523D01*
X150982380Y-62004285D01*
X150982380Y-61813809D01*
X150934761Y-61718571D01*
X150887142Y-61670952D01*
X150791904Y-61623333D01*
X150553809Y-61623333D01*
X150458571Y-61670952D01*
X150410952Y-61718571D01*
X150363333Y-61813809D01*
X150363333Y-62004285D01*
X150410952Y-62099523D01*
X150458571Y-62147142D01*
X150553809Y-62194761D01*
%TO.C,R3*%
X213088380Y-109299666D02*
X212612190Y-109633000D01*
X213088380Y-109871095D02*
X212088380Y-109871095D01*
X212088380Y-109490142D01*
X212136000Y-109394904D01*
X212183619Y-109347285D01*
X212278857Y-109299666D01*
X212421714Y-109299666D01*
X212516952Y-109347285D01*
X212564571Y-109394904D01*
X212612190Y-109490142D01*
X212612190Y-109871095D01*
X212088380Y-108966333D02*
X212088380Y-108347285D01*
X212469333Y-108680619D01*
X212469333Y-108537761D01*
X212516952Y-108442523D01*
X212564571Y-108394904D01*
X212659809Y-108347285D01*
X212897904Y-108347285D01*
X212993142Y-108394904D01*
X213040761Y-108442523D01*
X213088380Y-108537761D01*
X213088380Y-108823476D01*
X213040761Y-108918714D01*
X212993142Y-108966333D01*
%TO.C,D1*%
X208916904Y-119992380D02*
X208916904Y-118992380D01*
X209155000Y-118992380D01*
X209297857Y-119040000D01*
X209393095Y-119135238D01*
X209440714Y-119230476D01*
X209488333Y-119420952D01*
X209488333Y-119563809D01*
X209440714Y-119754285D01*
X209393095Y-119849523D01*
X209297857Y-119944761D01*
X209155000Y-119992380D01*
X208916904Y-119992380D01*
X210440714Y-119992380D02*
X209869285Y-119992380D01*
X210155000Y-119992380D02*
X210155000Y-118992380D01*
X210059761Y-119135238D01*
X209964523Y-119230476D01*
X209869285Y-119278095D01*
%TO.C,C2*%
X142477142Y-105516666D02*
X142524761Y-105564285D01*
X142572380Y-105707142D01*
X142572380Y-105802380D01*
X142524761Y-105945238D01*
X142429523Y-106040476D01*
X142334285Y-106088095D01*
X142143809Y-106135714D01*
X142000952Y-106135714D01*
X141810476Y-106088095D01*
X141715238Y-106040476D01*
X141620000Y-105945238D01*
X141572380Y-105802380D01*
X141572380Y-105707142D01*
X141620000Y-105564285D01*
X141667619Y-105516666D01*
X141667619Y-105135714D02*
X141620000Y-105088095D01*
X141572380Y-104992857D01*
X141572380Y-104754761D01*
X141620000Y-104659523D01*
X141667619Y-104611904D01*
X141762857Y-104564285D01*
X141858095Y-104564285D01*
X142000952Y-104611904D01*
X142572380Y-105183333D01*
X142572380Y-104564285D01*
%TO.C,SW1*%
X221666666Y-119550761D02*
X221809523Y-119598380D01*
X222047619Y-119598380D01*
X222142857Y-119550761D01*
X222190476Y-119503142D01*
X222238095Y-119407904D01*
X222238095Y-119312666D01*
X222190476Y-119217428D01*
X222142857Y-119169809D01*
X222047619Y-119122190D01*
X221857142Y-119074571D01*
X221761904Y-119026952D01*
X221714285Y-118979333D01*
X221666666Y-118884095D01*
X221666666Y-118788857D01*
X221714285Y-118693619D01*
X221761904Y-118646000D01*
X221857142Y-118598380D01*
X222095238Y-118598380D01*
X222238095Y-118646000D01*
X222571428Y-118598380D02*
X222809523Y-119598380D01*
X223000000Y-118884095D01*
X223190476Y-119598380D01*
X223428571Y-118598380D01*
X224333333Y-119598380D02*
X223761904Y-119598380D01*
X224047619Y-119598380D02*
X224047619Y-118598380D01*
X223952380Y-118741238D01*
X223857142Y-118836476D01*
X223761904Y-118884095D01*
%TO.C,U1*%
X145938095Y-90977380D02*
X145938095Y-91786904D01*
X145985714Y-91882142D01*
X146033333Y-91929761D01*
X146128571Y-91977380D01*
X146319047Y-91977380D01*
X146414285Y-91929761D01*
X146461904Y-91882142D01*
X146509523Y-91786904D01*
X146509523Y-90977380D01*
X147509523Y-91977380D02*
X146938095Y-91977380D01*
X147223809Y-91977380D02*
X147223809Y-90977380D01*
X147128571Y-91120238D01*
X147033333Y-91215476D01*
X146938095Y-91263095D01*
%TO.C,C5*%
X157033333Y-117707142D02*
X156985714Y-117754761D01*
X156842857Y-117802380D01*
X156747619Y-117802380D01*
X156604761Y-117754761D01*
X156509523Y-117659523D01*
X156461904Y-117564285D01*
X156414285Y-117373809D01*
X156414285Y-117230952D01*
X156461904Y-117040476D01*
X156509523Y-116945238D01*
X156604761Y-116850000D01*
X156747619Y-116802380D01*
X156842857Y-116802380D01*
X156985714Y-116850000D01*
X157033333Y-116897619D01*
X157938095Y-116802380D02*
X157461904Y-116802380D01*
X157414285Y-117278571D01*
X157461904Y-117230952D01*
X157557142Y-117183333D01*
X157795238Y-117183333D01*
X157890476Y-117230952D01*
X157938095Y-117278571D01*
X157985714Y-117373809D01*
X157985714Y-117611904D01*
X157938095Y-117707142D01*
X157890476Y-117754761D01*
X157795238Y-117802380D01*
X157557142Y-117802380D01*
X157461904Y-117754761D01*
X157414285Y-117707142D01*
%TO.C,C8*%
X156245833Y-74807142D02*
X156198214Y-74854761D01*
X156055357Y-74902380D01*
X155960119Y-74902380D01*
X155817261Y-74854761D01*
X155722023Y-74759523D01*
X155674404Y-74664285D01*
X155626785Y-74473809D01*
X155626785Y-74330952D01*
X155674404Y-74140476D01*
X155722023Y-74045238D01*
X155817261Y-73950000D01*
X155960119Y-73902380D01*
X156055357Y-73902380D01*
X156198214Y-73950000D01*
X156245833Y-73997619D01*
X156817261Y-74330952D02*
X156722023Y-74283333D01*
X156674404Y-74235714D01*
X156626785Y-74140476D01*
X156626785Y-74092857D01*
X156674404Y-73997619D01*
X156722023Y-73950000D01*
X156817261Y-73902380D01*
X157007738Y-73902380D01*
X157102976Y-73950000D01*
X157150595Y-73997619D01*
X157198214Y-74092857D01*
X157198214Y-74140476D01*
X157150595Y-74235714D01*
X157102976Y-74283333D01*
X157007738Y-74330952D01*
X156817261Y-74330952D01*
X156722023Y-74378571D01*
X156674404Y-74426190D01*
X156626785Y-74521428D01*
X156626785Y-74711904D01*
X156674404Y-74807142D01*
X156722023Y-74854761D01*
X156817261Y-74902380D01*
X157007738Y-74902380D01*
X157102976Y-74854761D01*
X157150595Y-74807142D01*
X157198214Y-74711904D01*
X157198214Y-74521428D01*
X157150595Y-74426190D01*
X157102976Y-74378571D01*
X157007738Y-74330952D01*
%TO.C,U3*%
X145938095Y-76202380D02*
X145938095Y-77011904D01*
X145985714Y-77107142D01*
X146033333Y-77154761D01*
X146128571Y-77202380D01*
X146319047Y-77202380D01*
X146414285Y-77154761D01*
X146461904Y-77107142D01*
X146509523Y-77011904D01*
X146509523Y-76202380D01*
X146890476Y-76202380D02*
X147509523Y-76202380D01*
X147176190Y-76583333D01*
X147319047Y-76583333D01*
X147414285Y-76630952D01*
X147461904Y-76678571D01*
X147509523Y-76773809D01*
X147509523Y-77011904D01*
X147461904Y-77107142D01*
X147414285Y-77154761D01*
X147319047Y-77202380D01*
X147033333Y-77202380D01*
X146938095Y-77154761D01*
X146890476Y-77107142D01*
%TO.C,Q3*%
X154454761Y-121047619D02*
X154359523Y-121000000D01*
X154264285Y-120904761D01*
X154121428Y-120761904D01*
X154026190Y-120714285D01*
X153930952Y-120714285D01*
X153978571Y-120952380D02*
X153883333Y-120904761D01*
X153788095Y-120809523D01*
X153740476Y-120619047D01*
X153740476Y-120285714D01*
X153788095Y-120095238D01*
X153883333Y-120000000D01*
X153978571Y-119952380D01*
X154169047Y-119952380D01*
X154264285Y-120000000D01*
X154359523Y-120095238D01*
X154407142Y-120285714D01*
X154407142Y-120619047D01*
X154359523Y-120809523D01*
X154264285Y-120904761D01*
X154169047Y-120952380D01*
X153978571Y-120952380D01*
X154740476Y-119952380D02*
X155359523Y-119952380D01*
X155026190Y-120333333D01*
X155169047Y-120333333D01*
X155264285Y-120380952D01*
X155311904Y-120428571D01*
X155359523Y-120523809D01*
X155359523Y-120761904D01*
X155311904Y-120857142D01*
X155264285Y-120904761D01*
X155169047Y-120952380D01*
X154883333Y-120952380D01*
X154788095Y-120904761D01*
X154740476Y-120857142D01*
%TO.C,G1*%
G36*
X127965165Y-95483734D02*
G01*
X128110028Y-95739563D01*
X128110282Y-96020372D01*
X128058914Y-96111904D01*
X127814323Y-96300770D01*
X127630240Y-96241954D01*
X127538716Y-95952217D01*
X127534031Y-95837435D01*
X127579189Y-95489564D01*
X127720438Y-95372184D01*
X127728829Y-95371990D01*
X127965165Y-95483734D01*
G37*
G36*
X127685152Y-109292423D02*
G01*
X128077344Y-109475841D01*
X128433221Y-109812468D01*
X128673653Y-110212250D01*
X128730890Y-110482514D01*
X128616417Y-111022893D01*
X128311023Y-111444917D01*
X127871745Y-111726439D01*
X127355619Y-111845314D01*
X126819684Y-111779395D01*
X126320975Y-111506535D01*
X126251611Y-111445174D01*
X126019663Y-111065917D01*
X125955145Y-110694900D01*
X126498971Y-110694900D01*
X126629738Y-110904555D01*
X126907469Y-111029718D01*
X127309417Y-111058338D01*
X127713947Y-110995342D01*
X127995935Y-110849203D01*
X128122817Y-110594787D01*
X128039524Y-110353323D01*
X127801192Y-110156445D01*
X127462959Y-110035784D01*
X127079962Y-110022974D01*
X126742270Y-110129958D01*
X126510864Y-110377953D01*
X126498971Y-110694900D01*
X125955145Y-110694900D01*
X125933371Y-110569683D01*
X125999962Y-110066601D01*
X126141617Y-109769051D01*
X126464128Y-109501868D01*
X126938734Y-109323485D01*
X127079962Y-109308176D01*
X127457402Y-109267263D01*
X127685152Y-109292423D01*
G37*
G36*
X127697540Y-102237671D02*
G01*
X128023304Y-102401208D01*
X128191521Y-102625391D01*
X128198953Y-102686126D01*
X128079641Y-102928142D01*
X127776377Y-103120358D01*
X127371169Y-103215034D01*
X127285161Y-103218063D01*
X126801737Y-103143577D01*
X126528971Y-102925656D01*
X126470157Y-102686126D01*
X126558879Y-102406895D01*
X126629738Y-102313770D01*
X126915281Y-102173670D01*
X127299707Y-102155065D01*
X127697540Y-102237671D01*
G37*
G36*
X126963346Y-104431322D02*
G01*
X127122791Y-104574130D01*
X127135079Y-104649356D01*
X127025322Y-104878615D01*
X126835864Y-105015063D01*
X126600084Y-105222413D01*
X126489859Y-105530735D01*
X126493335Y-105867587D01*
X126598660Y-106160527D01*
X126793980Y-106337114D01*
X127051250Y-106331445D01*
X127215950Y-106165924D01*
X127401005Y-105833193D01*
X127500304Y-105588077D01*
X127757460Y-104990411D01*
X128042033Y-104621573D01*
X128390934Y-104444591D01*
X128671533Y-104414922D01*
X129022594Y-104462748D01*
X129265539Y-104653856D01*
X129397269Y-104847121D01*
X129627904Y-105469620D01*
X129610052Y-106142706D01*
X129447151Y-106622311D01*
X129249161Y-106938765D01*
X129007555Y-107062945D01*
X128848722Y-107074607D01*
X128570647Y-107035385D01*
X128472145Y-106871167D01*
X128464922Y-106742147D01*
X128530333Y-106478191D01*
X128715387Y-106409686D01*
X128924415Y-106295081D01*
X129043143Y-106007036D01*
X129049399Y-105629208D01*
X128986778Y-105385789D01*
X128807729Y-105110820D01*
X128592100Y-105081695D01*
X128363288Y-105285138D01*
X128144691Y-105707875D01*
X128075729Y-105902686D01*
X127790506Y-106542470D01*
X127425746Y-106931420D01*
X126977353Y-107073747D01*
X126935602Y-107074607D01*
X126467349Y-106961576D01*
X126141297Y-106630951D01*
X125966597Y-106095435D01*
X125938220Y-105689928D01*
X125983280Y-105178408D01*
X126102401Y-104783782D01*
X126145237Y-104710480D01*
X126386476Y-104504936D01*
X126688543Y-104410070D01*
X126963346Y-104431322D01*
G37*
G36*
X128261154Y-114604770D02*
G01*
X128545496Y-114947912D01*
X128701065Y-115482515D01*
X128629916Y-115971605D01*
X128362467Y-116362074D01*
X127929135Y-116600815D01*
X127570934Y-116649477D01*
X127135079Y-116649477D01*
X127135079Y-115851571D01*
X127122373Y-115519110D01*
X127534031Y-115519110D01*
X127579189Y-115866981D01*
X127720438Y-115984360D01*
X127728829Y-115984555D01*
X127974080Y-115876794D01*
X128096418Y-115628203D01*
X128055367Y-115350823D01*
X127989714Y-115262377D01*
X127740028Y-115076147D01*
X127592355Y-115130518D01*
X127535494Y-115431802D01*
X127534031Y-115519110D01*
X127122373Y-115519110D01*
X127116894Y-115375749D01*
X127056146Y-115123350D01*
X126951885Y-115053665D01*
X126671650Y-115168027D01*
X126519147Y-115481173D01*
X126515555Y-115948196D01*
X126519105Y-115971302D01*
X126547918Y-116340485D01*
X126471531Y-116525546D01*
X126405031Y-116564059D01*
X126190540Y-116538190D01*
X126036997Y-116317693D01*
X125950007Y-115968090D01*
X125935176Y-115554898D01*
X125998109Y-115143639D01*
X126144414Y-114799833D01*
X126243828Y-114679939D01*
X126713057Y-114392725D01*
X127256015Y-114290319D01*
X127740028Y-114356152D01*
X127797210Y-114363930D01*
X128261154Y-114604770D01*
G37*
G36*
X128971640Y-92679058D02*
G01*
X128912689Y-93020624D01*
X128775521Y-93178728D01*
X128605357Y-93223624D01*
X128259619Y-93156469D01*
X128018483Y-92884881D01*
X127932984Y-92487410D01*
X127966005Y-92289929D01*
X128113865Y-92201466D01*
X128449760Y-92180397D01*
X128472949Y-92180367D01*
X129012914Y-92180367D01*
X128971640Y-92679058D01*
G37*
G36*
X128612122Y-107487773D02*
G01*
X128631152Y-107581197D01*
X128717694Y-107700713D01*
X128930367Y-107739529D01*
X129167967Y-107782467D01*
X129254888Y-107964993D01*
X129262827Y-108138482D01*
X129227820Y-108422847D01*
X129075378Y-108527157D01*
X128916139Y-108537435D01*
X128669054Y-108579609D01*
X128641208Y-108723743D01*
X128645996Y-108736911D01*
X128629108Y-108891587D01*
X128398429Y-108936388D01*
X128165115Y-108889463D01*
X128150862Y-108736911D01*
X128149289Y-108628598D01*
X128008501Y-108567320D01*
X127680719Y-108541195D01*
X127348783Y-108537435D01*
X126876343Y-108545464D01*
X126611326Y-108581326D01*
X126495384Y-108662686D01*
X126470157Y-108803403D01*
X126376123Y-109025661D01*
X126204189Y-109069372D01*
X126019394Y-109016016D01*
X125946009Y-108808939D01*
X125938220Y-108613426D01*
X125997104Y-108238082D01*
X126139568Y-107956433D01*
X126147195Y-107948504D01*
X126381714Y-107820937D01*
X126794451Y-107754493D01*
X127277562Y-107739529D01*
X127775676Y-107728606D01*
X128059998Y-107688031D01*
X128182098Y-107606094D01*
X128198953Y-107530302D01*
X128295239Y-107373638D01*
X128431675Y-107371969D01*
X128612122Y-107487773D01*
G37*
G36*
X130725654Y-117181414D02*
G01*
X124741361Y-117181414D01*
X124741361Y-116782461D01*
X125140314Y-116782461D01*
X130326702Y-116782461D01*
X130326702Y-103750000D01*
X130325347Y-101295430D01*
X130321296Y-99092454D01*
X130314563Y-97142668D01*
X130305165Y-95447669D01*
X130293118Y-94009051D01*
X130278439Y-92828411D01*
X130261143Y-91907344D01*
X130241248Y-91247446D01*
X130218769Y-90850313D01*
X130193723Y-90717539D01*
X130193717Y-90717539D01*
X130160086Y-90849804D01*
X130131201Y-91243803D01*
X130107147Y-91895340D01*
X130088006Y-92800223D01*
X130073861Y-93954258D01*
X130064796Y-95353249D01*
X130060892Y-96993003D01*
X130060733Y-97433246D01*
X130060733Y-104148953D01*
X125406283Y-104148953D01*
X125406283Y-102829812D01*
X125948035Y-102829812D01*
X126066830Y-103319773D01*
X126141617Y-103449273D01*
X126472730Y-103724051D01*
X126954813Y-103897035D01*
X127481743Y-103934569D01*
X127617245Y-103917238D01*
X128130656Y-103706251D01*
X128496976Y-103321352D01*
X128680329Y-102827006D01*
X128644838Y-102287677D01*
X128598132Y-102154736D01*
X128303987Y-101760026D01*
X127855811Y-101507223D01*
X127330377Y-101406062D01*
X126804457Y-101466277D01*
X126354824Y-101697602D01*
X126204716Y-101851262D01*
X125995607Y-102299526D01*
X125948035Y-102829812D01*
X125406283Y-102829812D01*
X125406283Y-100026440D01*
X125938220Y-100026440D01*
X125961259Y-100450148D01*
X126038772Y-100654900D01*
X126129848Y-100691361D01*
X126356260Y-100610314D01*
X126403665Y-100558377D01*
X126572548Y-100484289D01*
X126918763Y-100436012D01*
X127206885Y-100425393D01*
X127330377Y-100428849D01*
X127628463Y-100437190D01*
X127857866Y-100492558D01*
X127968543Y-100621458D01*
X128010163Y-100753088D01*
X128159739Y-101011589D01*
X128400907Y-101180641D01*
X128636324Y-101203200D01*
X128705169Y-101160364D01*
X128705030Y-100998855D01*
X128589037Y-100719882D01*
X128568348Y-100682776D01*
X128452008Y-100424394D01*
X128456650Y-100295649D01*
X128471107Y-100292408D01*
X128550513Y-100174416D01*
X128594675Y-99879661D01*
X128597906Y-99760471D01*
X128564967Y-99390599D01*
X128455777Y-99238188D01*
X128398429Y-99228534D01*
X128222123Y-99334984D01*
X128198953Y-99428011D01*
X128140859Y-99540341D01*
X127933451Y-99602539D01*
X127527041Y-99626176D01*
X127342403Y-99627487D01*
X126888446Y-99608277D01*
X126548118Y-99558139D01*
X126403665Y-99494503D01*
X126211253Y-99372140D01*
X126129848Y-99361518D01*
X126007737Y-99441461D01*
X125948728Y-99710418D01*
X125938220Y-100026440D01*
X125406283Y-100026440D01*
X125406283Y-98513404D01*
X125938220Y-98513404D01*
X125970384Y-98827314D01*
X126094674Y-98950494D01*
X126204189Y-98962566D01*
X126426446Y-98868531D01*
X126470157Y-98696597D01*
X126497098Y-98552659D01*
X126617100Y-98472410D01*
X126888933Y-98437767D01*
X127334555Y-98430628D01*
X127819409Y-98443946D01*
X128088892Y-98491531D01*
X128192623Y-98584834D01*
X128198953Y-98630105D01*
X128305402Y-98806411D01*
X128398429Y-98829581D01*
X128574736Y-98723132D01*
X128597906Y-98630105D01*
X128713509Y-98469671D01*
X128930367Y-98430628D01*
X129167967Y-98387690D01*
X129254888Y-98205164D01*
X129262827Y-98031676D01*
X129227045Y-97746555D01*
X129074941Y-97642250D01*
X128930367Y-97632723D01*
X128662976Y-97563360D01*
X128597906Y-97433246D01*
X128491456Y-97256940D01*
X128398429Y-97233770D01*
X128221951Y-97332511D01*
X128198953Y-97418239D01*
X128114344Y-97528580D01*
X127837117Y-97603345D01*
X127332171Y-97651598D01*
X127284374Y-97654387D01*
X126653964Y-97721123D01*
X126246570Y-97852991D01*
X126022208Y-98075507D01*
X125940894Y-98414184D01*
X125938220Y-98513404D01*
X125406283Y-98513404D01*
X125406283Y-97433246D01*
X125404082Y-96005859D01*
X125934194Y-96005859D01*
X125983781Y-96514746D01*
X126018940Y-96624464D01*
X126204771Y-96804909D01*
X126338746Y-96834817D01*
X126488216Y-96794300D01*
X126535061Y-96626797D01*
X126506656Y-96304152D01*
X126512797Y-95822777D01*
X126663392Y-95497503D01*
X126937477Y-95372222D01*
X126951885Y-95371990D01*
X127061131Y-95451195D01*
X127119079Y-95715783D01*
X127135079Y-96169895D01*
X127135079Y-96967801D01*
X127575448Y-96967801D01*
X128079939Y-96853912D01*
X128398429Y-96594361D01*
X128451800Y-96550867D01*
X128656815Y-96116604D01*
X128660767Y-95609058D01*
X128557742Y-95304547D01*
X128237623Y-94913484D01*
X127773053Y-94676823D01*
X127241633Y-94602566D01*
X126720965Y-94698717D01*
X126288649Y-94973279D01*
X126209951Y-95062408D01*
X126015028Y-95477231D01*
X125934194Y-96005859D01*
X125404082Y-96005859D01*
X125403664Y-95734849D01*
X125395862Y-94276182D01*
X125382960Y-93061439D01*
X125365042Y-92094814D01*
X125355015Y-91781414D01*
X125938220Y-91781414D01*
X125955972Y-92255252D01*
X126015742Y-92507174D01*
X126123469Y-92579319D01*
X126328765Y-92472051D01*
X126385263Y-92379843D01*
X126578558Y-92228894D01*
X126939456Y-92180367D01*
X127250854Y-92195661D01*
X127376345Y-92294160D01*
X127385404Y-92554788D01*
X127375829Y-92676094D01*
X127331874Y-92985440D01*
X127216358Y-93147143D01*
X126952021Y-93234229D01*
X126745770Y-93271618D01*
X126283179Y-93393263D01*
X126033087Y-93591176D01*
X125943582Y-93912870D01*
X125940256Y-94008901D01*
X126026196Y-94243670D01*
X126217163Y-94310195D01*
X126403665Y-94175131D01*
X126587853Y-94070402D01*
X126795734Y-94042147D01*
X127127779Y-93959448D01*
X127241633Y-93893025D01*
X127413848Y-93792553D01*
X127639235Y-93631434D01*
X127809002Y-93629202D01*
X128052801Y-93787483D01*
X128070807Y-93800783D01*
X128506450Y-93978316D01*
X128945875Y-93916698D01*
X129310469Y-93628539D01*
X129332422Y-93598409D01*
X129435424Y-93330499D01*
X129504314Y-92914737D01*
X129539173Y-92418733D01*
X129540079Y-91910100D01*
X129507114Y-91456449D01*
X129440357Y-91125394D01*
X129339890Y-90984544D01*
X129329319Y-90983508D01*
X129153013Y-91089958D01*
X129129843Y-91182984D01*
X129008838Y-91282498D01*
X128690444Y-91352434D01*
X128241587Y-91392792D01*
X127729199Y-91403572D01*
X127220206Y-91384775D01*
X126781537Y-91336399D01*
X126480123Y-91258446D01*
X126385263Y-91182984D01*
X126217824Y-91006245D01*
X126123469Y-90983508D01*
X126013458Y-91059969D01*
X125954970Y-91317411D01*
X125938220Y-91781414D01*
X125355015Y-91781414D01*
X125342189Y-91380502D01*
X125314487Y-90922696D01*
X125282016Y-90725591D01*
X125273298Y-90717539D01*
X125248252Y-90850252D01*
X125225772Y-91247324D01*
X125205877Y-91907162D01*
X125188581Y-92828169D01*
X125173901Y-94008750D01*
X125161854Y-95447308D01*
X125152455Y-97142249D01*
X125145721Y-99091976D01*
X125141669Y-101294894D01*
X125140314Y-103749407D01*
X125140314Y-116782461D01*
X124741361Y-116782461D01*
X124741361Y-90318587D01*
X130725654Y-90318587D01*
X130725654Y-117181414D01*
G37*
G36*
X128584455Y-112281898D02*
G01*
X128641699Y-112615452D01*
X128642290Y-112670031D01*
X128621386Y-113023424D01*
X128570334Y-113259523D01*
X128562352Y-113274809D01*
X128554949Y-113485361D01*
X128604644Y-113597187D01*
X128723104Y-113904761D01*
X128628988Y-114086735D01*
X128458004Y-114122775D01*
X128196189Y-114001010D01*
X128046042Y-113723822D01*
X127944657Y-113490972D01*
X127797654Y-113372423D01*
X127524128Y-113329900D01*
X127202789Y-113324869D01*
X126732101Y-113353065D01*
X126480949Y-113444657D01*
X126422066Y-113524346D01*
X126244343Y-113701252D01*
X126141870Y-113723822D01*
X126019714Y-113661863D01*
X125956665Y-113441300D01*
X125938235Y-113010107D01*
X125938220Y-112992408D01*
X125949764Y-112569726D01*
X125999677Y-112349532D01*
X126110879Y-112268796D01*
X126204189Y-112260995D01*
X126420284Y-112316685D01*
X126470157Y-112393979D01*
X126592289Y-112463471D01*
X126915822Y-112511050D01*
X127334555Y-112526963D01*
X127814613Y-112514761D01*
X128081950Y-112469684D01*
X128189046Y-112379030D01*
X128198953Y-112317736D01*
X128298658Y-112157956D01*
X128420650Y-112151506D01*
X128584455Y-112281898D01*
G37*
D12*
%TO.C,R1*%
X210720000Y-112403000D02*
X210390000Y-112403000D01*
X210720000Y-105863000D02*
X210720000Y-112403000D01*
X210390000Y-105863000D02*
X210720000Y-105863000D01*
X207980000Y-112403000D02*
X208310000Y-112403000D01*
X208310000Y-105863000D02*
X207980000Y-105863000D01*
X207980000Y-105863000D02*
X207980000Y-112403000D01*
%TO.C,R2*%
X214584000Y-105863000D02*
X214584000Y-112403000D01*
X217324000Y-112403000D02*
X216994000Y-112403000D01*
X214584000Y-112403000D02*
X214914000Y-112403000D01*
X216994000Y-105863000D02*
X217324000Y-105863000D01*
X217324000Y-105863000D02*
X217324000Y-112403000D01*
X214914000Y-105863000D02*
X214584000Y-105863000D01*
%TO.C,J5*%
X133880000Y-62575000D02*
X133880000Y-56575000D01*
X133980000Y-56575000D02*
X133980000Y-62575000D01*
X136520000Y-65632071D02*
X136520000Y-65235000D01*
X139950000Y-65235000D02*
X139950000Y-62575000D01*
X141600000Y-56575000D02*
X141600000Y-62575000D01*
X132270000Y-62575000D02*
X132270000Y-65235000D01*
X144140000Y-65632071D02*
X144140000Y-65235000D01*
X144140000Y-56575000D02*
X144140000Y-62575000D01*
X138300000Y-65632071D02*
X138300000Y-65235000D01*
X133760000Y-62575000D02*
X133760000Y-56575000D01*
X136520000Y-56575000D02*
X136520000Y-62575000D01*
X142490000Y-65235000D02*
X142490000Y-62575000D01*
X141600000Y-65632071D02*
X141600000Y-65235000D01*
X146680000Y-65632071D02*
X146680000Y-65235000D01*
X133520000Y-62575000D02*
X133520000Y-56575000D01*
X143380000Y-65632071D02*
X143380000Y-65235000D01*
X133280000Y-62575000D02*
X133280000Y-56575000D01*
X133980000Y-65565000D02*
X133980000Y-65235000D01*
X145920000Y-65632071D02*
X145920000Y-65235000D01*
X132270000Y-65235000D02*
X147630000Y-65235000D01*
X133400000Y-62575000D02*
X133400000Y-56575000D01*
X145920000Y-56575000D02*
X146680000Y-56575000D01*
X135760000Y-62575000D02*
X135760000Y-56575000D01*
X140840000Y-65632071D02*
X140840000Y-65235000D01*
X139060000Y-56575000D02*
X139060000Y-62575000D01*
X135760000Y-56575000D02*
X136520000Y-56575000D01*
X138300000Y-56575000D02*
X139060000Y-56575000D01*
X134870000Y-65235000D02*
X134870000Y-62575000D01*
X133220000Y-65565000D02*
X133220000Y-65235000D01*
X140840000Y-56575000D02*
X141600000Y-56575000D01*
X143380000Y-56575000D02*
X144140000Y-56575000D01*
X145030000Y-65235000D02*
X145030000Y-62575000D01*
X147630000Y-62575000D02*
X132270000Y-62575000D01*
X139060000Y-65632071D02*
X139060000Y-65235000D01*
X146680000Y-56575000D02*
X146680000Y-62575000D01*
X133220000Y-56575000D02*
X133980000Y-56575000D01*
X135760000Y-65632071D02*
X135760000Y-65235000D01*
X137410000Y-65235000D02*
X137410000Y-62575000D01*
X133600000Y-67945000D02*
X132330000Y-67945000D01*
X143380000Y-62575000D02*
X143380000Y-56575000D01*
X132330000Y-67945000D02*
X132330000Y-66675000D01*
X140840000Y-62575000D02*
X140840000Y-56575000D01*
X133640000Y-62575000D02*
X133640000Y-56575000D01*
X138300000Y-62575000D02*
X138300000Y-56575000D01*
X133220000Y-62575000D02*
X133220000Y-56575000D01*
X145920000Y-62575000D02*
X145920000Y-56575000D01*
X147630000Y-65235000D02*
X147630000Y-62575000D01*
%TO.C,C6*%
X150385000Y-105088748D02*
X150385000Y-105611252D01*
X148915000Y-105088748D02*
X148915000Y-105611252D01*
%TO.C,U5*%
X190010000Y-67245000D02*
X183930001Y-67245000D01*
X183930001Y-66885000D02*
X174020000Y-66885000D01*
X183930001Y-67245000D02*
X183930001Y-66885000D01*
X174020000Y-127505000D02*
X199920000Y-127505000D01*
X174020000Y-66885000D02*
X174020000Y-127505000D01*
X199920000Y-127505000D02*
X199920000Y-66885000D01*
X199920000Y-66885000D02*
X190010000Y-66885000D01*
X190010000Y-66885000D02*
X190010000Y-67245000D01*
%TO.C,C1*%
X144585000Y-90111252D02*
X144585000Y-89588748D01*
X143115000Y-90111252D02*
X143115000Y-89588748D01*
%TO.C,C7*%
X151135000Y-74938748D02*
X151135000Y-75461252D01*
X149665000Y-74938748D02*
X149665000Y-75461252D01*
%TO.C,U4*%
X164805000Y-116525000D02*
X163305000Y-116525000D01*
X163305000Y-116255000D02*
X162205000Y-116255000D01*
X164805000Y-109625000D02*
X163305000Y-109625000D01*
X163305000Y-109895000D02*
X160475000Y-109895000D01*
X163305000Y-116525000D02*
X163305000Y-116255000D01*
X163305000Y-109625000D02*
X163305000Y-109895000D01*
%TO.C,U2*%
X146700000Y-115785000D02*
X144500000Y-115785000D01*
X146700000Y-107715000D02*
X148900000Y-107715000D01*
X146700000Y-115785000D02*
X148900000Y-115785000D01*
X146700000Y-107715000D02*
X143100000Y-107715000D01*
%TO.C,C3*%
X148865000Y-89588748D02*
X148865000Y-90111252D01*
X150335000Y-89588748D02*
X150335000Y-90111252D01*
%TO.C,Q2*%
X144460000Y-125910000D02*
X148060000Y-125910000D01*
X146260000Y-121459999D02*
G75*
G03*
X144421522Y-125898478I0J-2600001D01*
G01*
X148098478Y-125898478D02*
G75*
G03*
X146260000Y-121460000I-1838478J1838478D01*
G01*
%TO.C,C4*%
X157961252Y-111610000D02*
X156538748Y-111610000D01*
X157961252Y-109790000D02*
X156538748Y-109790000D01*
%TO.C,J4*%
X169970000Y-59145000D02*
X171300000Y-59145000D01*
X172630000Y-61745000D02*
X172630000Y-64345000D01*
X169970000Y-61745000D02*
X172630000Y-61745000D01*
X169970000Y-64345000D02*
X172630000Y-64345000D01*
X169970000Y-60475000D02*
X169970000Y-59145000D01*
X169970000Y-61745000D02*
X169970000Y-64345000D01*
%TO.C,U6*%
X205910000Y-67082500D02*
X205910000Y-114062500D01*
X226475400Y-114062500D02*
X226475400Y-67082500D01*
X215637200Y-67070000D02*
X205910000Y-67070000D01*
X226475400Y-67070000D02*
X217637200Y-67070000D01*
X205910000Y-114180000D02*
X226475400Y-114180000D01*
X215637200Y-67044600D02*
G75*
G03*
X217637200Y-67044600I1000000J0D01*
G01*
%TO.C,R4*%
X223014000Y-112403000D02*
X222684000Y-112403000D01*
X225424000Y-112403000D02*
X225424000Y-105863000D01*
X222684000Y-105863000D02*
X223014000Y-105863000D01*
X225094000Y-112403000D02*
X225424000Y-112403000D01*
X225424000Y-105863000D02*
X225094000Y-105863000D01*
X222684000Y-112403000D02*
X222684000Y-105863000D01*
%TO.C,Q1*%
X136170000Y-125910000D02*
X139770000Y-125910000D01*
X137970000Y-121459999D02*
G75*
G03*
X136131522Y-125898478I0J-2600001D01*
G01*
X139808478Y-125898478D02*
G75*
G03*
X137970000Y-121460000I-1838478J1838478D01*
G01*
%TO.C,J6*%
X154960000Y-65632071D02*
X154960000Y-65235000D01*
X160040000Y-65632071D02*
X160040000Y-65235000D01*
X152420000Y-65565000D02*
X152420000Y-65235000D01*
X153080000Y-62575000D02*
X153080000Y-56575000D01*
X165880000Y-56575000D02*
X165880000Y-62575000D01*
X154960000Y-56575000D02*
X155720000Y-56575000D01*
X164230000Y-65235000D02*
X164230000Y-62575000D01*
X155720000Y-65632071D02*
X155720000Y-65235000D01*
X151470000Y-65235000D02*
X166830000Y-65235000D01*
X155720000Y-56575000D02*
X155720000Y-62575000D01*
X158260000Y-56575000D02*
X158260000Y-62575000D01*
X160800000Y-65632071D02*
X160800000Y-65235000D01*
X162580000Y-62575000D02*
X162580000Y-56575000D01*
X157500000Y-62575000D02*
X157500000Y-56575000D01*
X162580000Y-56575000D02*
X163340000Y-56575000D01*
X165120000Y-56575000D02*
X165880000Y-56575000D01*
X157500000Y-56575000D02*
X158260000Y-56575000D01*
X160040000Y-62575000D02*
X160040000Y-56575000D01*
X161690000Y-65235000D02*
X161690000Y-62575000D01*
X163340000Y-65632071D02*
X163340000Y-65235000D01*
X160040000Y-56575000D02*
X160800000Y-56575000D01*
X162580000Y-65632071D02*
X162580000Y-65235000D01*
X154070000Y-65235000D02*
X154070000Y-62575000D01*
X157500000Y-65632071D02*
X157500000Y-65235000D01*
X151470000Y-62575000D02*
X151470000Y-65235000D01*
X165880000Y-65632071D02*
X165880000Y-65235000D01*
X160800000Y-56575000D02*
X160800000Y-62575000D01*
X165120000Y-65632071D02*
X165120000Y-65235000D01*
X152840000Y-62575000D02*
X152840000Y-56575000D01*
X156610000Y-65235000D02*
X156610000Y-62575000D01*
X152720000Y-62575000D02*
X152720000Y-56575000D01*
X163340000Y-56575000D02*
X163340000Y-62575000D01*
X152420000Y-62575000D02*
X152420000Y-56575000D01*
X153180000Y-65565000D02*
X153180000Y-65235000D01*
X166830000Y-62575000D02*
X151470000Y-62575000D01*
X152420000Y-56575000D02*
X153180000Y-56575000D01*
X152800000Y-67945000D02*
X151530000Y-67945000D01*
X153180000Y-56575000D02*
X153180000Y-62575000D01*
X151530000Y-67945000D02*
X151530000Y-66675000D01*
X152600000Y-62575000D02*
X152600000Y-56575000D01*
X152960000Y-62575000D02*
X152960000Y-56575000D01*
X152480000Y-62575000D02*
X152480000Y-56575000D01*
X165120000Y-62575000D02*
X165120000Y-56575000D01*
X166830000Y-65235000D02*
X166830000Y-62575000D01*
X159150000Y-65235000D02*
X159150000Y-62575000D01*
X154960000Y-62575000D02*
X154960000Y-56575000D01*
X158260000Y-65632071D02*
X158260000Y-65235000D01*
%TO.C,R3*%
X211282000Y-105863000D02*
X211282000Y-112403000D01*
X214022000Y-112403000D02*
X213692000Y-112403000D01*
X211612000Y-105863000D02*
X211282000Y-105863000D01*
X213692000Y-105863000D02*
X214022000Y-105863000D01*
X211282000Y-112403000D02*
X211612000Y-112403000D01*
X214022000Y-105863000D02*
X214022000Y-112403000D01*
%TO.C,D1*%
X207095000Y-124580000D02*
X207095000Y-125045000D01*
X207095000Y-121955000D02*
X207095000Y-122420000D01*
X212442815Y-122419173D02*
G75*
G03*
X207095000Y-121955170I-2787815J-1080827D01*
G01*
X207095000Y-125044830D02*
G75*
G03*
X212442815Y-124580827I2560000J1544830D01*
G01*
X211909479Y-122419571D02*
G75*
G03*
X207400316Y-122420000I-2254479J-1080429D01*
G01*
X207400316Y-124580000D02*
G75*
G03*
X211909479Y-124580429I2254684J1080000D01*
G01*
%TO.C,J2*%
X114997000Y-125033000D02*
X120197000Y-125033000D01*
X117597000Y-61413000D02*
X120197000Y-61413000D01*
X114997000Y-61413000D02*
X116327000Y-61413000D01*
X120197000Y-61413000D02*
X120197000Y-125033000D01*
X114997000Y-64013000D02*
X117597000Y-64013000D01*
X114997000Y-64013000D02*
X114997000Y-125033000D01*
X117597000Y-64013000D02*
X117597000Y-61413000D01*
X114997000Y-62743000D02*
X114997000Y-61413000D01*
%TO.C,C2*%
X144535000Y-105611252D02*
X144535000Y-105088748D01*
X143065000Y-105611252D02*
X143065000Y-105088748D01*
%TO.C,SW1*%
X226500000Y-124250000D02*
X226500000Y-122750000D01*
X225250000Y-120250000D02*
X220750000Y-120250000D01*
X219500000Y-122750000D02*
X219500000Y-124250000D01*
X220750000Y-126750000D02*
X225250000Y-126750000D01*
%TO.C,U1*%
X146700000Y-92340000D02*
X148900000Y-92340000D01*
X146700000Y-100410000D02*
X148900000Y-100410000D01*
X146700000Y-92340000D02*
X143100000Y-92340000D01*
X146700000Y-100410000D02*
X144500000Y-100410000D01*
%TO.C,C5*%
X157911252Y-116410000D02*
X156488748Y-116410000D01*
X157911252Y-114590000D02*
X156488748Y-114590000D01*
%TO.C,C8*%
X156151248Y-71815000D02*
X156673752Y-71815000D01*
X156151248Y-73285000D02*
X156673752Y-73285000D01*
%TO.C,U3*%
X146700000Y-85010000D02*
X149460000Y-85010000D01*
X146700000Y-85010000D02*
X143940000Y-85010000D01*
X143940000Y-77590000D02*
X143940000Y-77865000D01*
X149460000Y-85010000D02*
X149460000Y-84735000D01*
X146700000Y-77590000D02*
X143940000Y-77590000D01*
X143940000Y-85010000D02*
X143940000Y-84735000D01*
X143940000Y-77865000D02*
X142250000Y-77865000D01*
X149460000Y-77590000D02*
X149460000Y-77865000D01*
X146700000Y-77590000D02*
X149460000Y-77590000D01*
%TO.C,J3*%
X228820000Y-112880000D02*
X228820000Y-67100000D01*
X231480000Y-114150000D02*
X231480000Y-115480000D01*
X231480000Y-112880000D02*
X231480000Y-67100000D01*
X231480000Y-112880000D02*
X228820000Y-112880000D01*
X231480000Y-115480000D02*
X230150000Y-115480000D01*
X231480000Y-67100000D02*
X228820000Y-67100000D01*
%TO.C,Q3*%
X152750000Y-125910000D02*
X156350000Y-125910000D01*
X156388478Y-125898478D02*
G75*
G03*
X154550000Y-121460000I-1838478J1838478D01*
G01*
X154550000Y-121459999D02*
G75*
G03*
X152711522Y-125898478I0J-2600001D01*
G01*
%TD*%
M02*
